G75*
G70*
%OFA0B0*%
%FSLAX24Y24*%
%IPPOS*%
%LPD*%
%AMOC8*
5,1,8,0,0,1.08239X$1,22.5*
%
%ADD10C,0.1261*%
%ADD11C,0.0240*%
%ADD12R,0.0395X0.0218*%
%ADD13R,0.0218X0.0395*%
%ADD14R,0.2639X0.2639*%
%ADD15R,0.0316X0.0946*%
%ADD16R,0.0395X0.0474*%
%ADD17R,0.0592X0.0946*%
%ADD18R,0.0474X0.0395*%
%ADD19R,0.0395X0.0395*%
%ADD20R,0.0710X0.0789*%
%ADD21R,0.0277X0.1064*%
%ADD22R,0.0867X0.1064*%
%ADD23C,0.0434*%
%ADD24R,0.0190X0.0474*%
%ADD25R,0.0474X0.0190*%
%ADD26R,0.1025X0.1025*%
%ADD27R,0.0946X0.0592*%
%ADD28R,0.0356X0.0434*%
%ADD29R,0.0434X0.0356*%
%ADD30C,0.1080*%
%ADD31R,0.0674X0.0674*%
%ADD32OC8,0.0674*%
%ADD33C,0.0820*%
%ADD34R,0.0740X0.0740*%
%ADD35OC8,0.0740*%
%ADD36R,0.0316X0.0552*%
%ADD37R,0.0395X0.0316*%
%ADD38C,0.0158*%
%ADD39R,0.0336X0.0946*%
%ADD40R,0.0552X0.0867*%
%ADD41R,0.0867X0.0552*%
%ADD42R,0.0513X0.0474*%
%ADD43R,0.0316X0.0395*%
%ADD44C,0.0650*%
%ADD45R,0.0330X0.0580*%
%ADD46R,0.0474X0.0513*%
%ADD47R,0.0474X0.0237*%
%ADD48R,0.0237X0.0474*%
%ADD49R,0.0513X0.0237*%
%ADD50R,0.0880X0.0340*%
%ADD51R,0.0749X0.1064*%
%ADD52R,0.0237X0.0513*%
%ADD53R,0.0340X0.0880*%
%ADD54R,0.1064X0.0749*%
%ADD55OC8,0.0476*%
%ADD56C,0.0476*%
D10*
X010023Y010023D03*
X021834Y010023D03*
X021834Y021834D03*
X010023Y021834D03*
X015141Y040337D03*
X018290Y040337D03*
X018290Y049786D03*
X015141Y049786D03*
X000967Y049786D03*
X000967Y040337D03*
X032463Y040337D03*
X035613Y040337D03*
X035613Y049786D03*
X032463Y049786D03*
X049786Y049786D03*
X052936Y048211D03*
X049786Y040337D03*
X052936Y034038D03*
X054904Y021834D03*
X043093Y021834D03*
X043093Y010023D03*
X054904Y010023D03*
D11*
X060751Y019480D02*
X063051Y019480D01*
X064051Y020480D01*
X064351Y020480D01*
X059651Y021280D02*
X057851Y021280D01*
X057651Y021480D01*
X057651Y025580D01*
X057451Y025780D01*
X053651Y025780D01*
X031280Y020480D02*
X030980Y020480D01*
X029980Y019480D01*
X027680Y019480D01*
X026580Y021280D02*
X024780Y021280D01*
X024580Y021480D01*
X024580Y025580D01*
X024380Y025780D01*
X020580Y025780D01*
D12*
X017503Y017208D03*
X017503Y016952D03*
X017503Y016696D03*
X017503Y016440D03*
X017503Y016184D03*
X017503Y015928D03*
X017503Y015672D03*
X017503Y015416D03*
X017503Y015160D03*
X017503Y014904D03*
X017503Y014649D03*
X014353Y014649D03*
X014353Y014904D03*
X014353Y015160D03*
X014353Y015416D03*
X014353Y015672D03*
X014353Y015928D03*
X014353Y016184D03*
X014353Y016440D03*
X014353Y016696D03*
X014353Y016952D03*
X014353Y017208D03*
X047424Y017208D03*
X047424Y016952D03*
X047424Y016696D03*
X047424Y016440D03*
X047424Y016184D03*
X047424Y015928D03*
X047424Y015672D03*
X047424Y015416D03*
X047424Y015160D03*
X047424Y014904D03*
X047424Y014649D03*
X050574Y014649D03*
X050574Y014904D03*
X050574Y015160D03*
X050574Y015416D03*
X050574Y015672D03*
X050574Y015928D03*
X050574Y016184D03*
X050574Y016440D03*
X050574Y016696D03*
X050574Y016952D03*
X050574Y017208D03*
D13*
X050278Y017503D03*
X050023Y017503D03*
X049767Y017503D03*
X049511Y017503D03*
X049255Y017503D03*
X048999Y017503D03*
X048743Y017503D03*
X048487Y017503D03*
X048231Y017503D03*
X047975Y017503D03*
X047719Y017503D03*
X047719Y014353D03*
X047975Y014353D03*
X048231Y014353D03*
X048487Y014353D03*
X048743Y014353D03*
X048999Y014353D03*
X049255Y014353D03*
X049511Y014353D03*
X049767Y014353D03*
X050023Y014353D03*
X050278Y014353D03*
X017208Y014353D03*
X016952Y014353D03*
X016696Y014353D03*
X016440Y014353D03*
X016184Y014353D03*
X015928Y014353D03*
X015672Y014353D03*
X015416Y014353D03*
X015160Y014353D03*
X014904Y014353D03*
X014649Y014353D03*
X014649Y017503D03*
X014904Y017503D03*
X015160Y017503D03*
X015416Y017503D03*
X015672Y017503D03*
X015928Y017503D03*
X016184Y017503D03*
X016440Y017503D03*
X016696Y017503D03*
X016952Y017503D03*
X017208Y017503D03*
D14*
X015928Y015928D03*
X048999Y015928D03*
D15*
X037501Y005904D03*
X037001Y005904D03*
X036501Y005904D03*
X036001Y005904D03*
X036001Y003856D03*
X036501Y003856D03*
X037001Y003856D03*
X037501Y003856D03*
X004430Y003856D03*
X003930Y003856D03*
X003430Y003856D03*
X002930Y003856D03*
X002930Y005904D03*
X003430Y005904D03*
X003930Y005904D03*
X004430Y005904D03*
D16*
X005280Y004415D03*
X005280Y003745D03*
X002180Y005345D03*
X002180Y006015D03*
X008180Y001515D03*
X008180Y000845D03*
X008880Y000845D03*
X008880Y001515D03*
X010080Y001515D03*
X010080Y000845D03*
X010656Y002315D03*
X010656Y002984D03*
X015739Y005855D03*
X015739Y006524D03*
X015780Y013045D03*
X015780Y013715D03*
X015780Y018345D03*
X015780Y019015D03*
X007680Y029145D03*
X007680Y029815D03*
X006680Y029815D03*
X006680Y029145D03*
X030080Y024515D03*
X030080Y023845D03*
X030080Y022215D03*
X030080Y021545D03*
X039751Y029145D03*
X039751Y029815D03*
X040751Y029815D03*
X040751Y029145D03*
X048851Y019015D03*
X048851Y018345D03*
X048851Y013715D03*
X048851Y013045D03*
X048810Y006524D03*
X048810Y005855D03*
X043726Y002984D03*
X043726Y002315D03*
X043151Y001515D03*
X043151Y000845D03*
X041951Y000845D03*
X041951Y001515D03*
X041251Y001515D03*
X041251Y000845D03*
X038351Y003745D03*
X038351Y004415D03*
X035251Y005345D03*
X035251Y006015D03*
X063151Y021545D03*
X063151Y022215D03*
X063151Y023845D03*
X063151Y024515D03*
D17*
G36*
X052760Y018538D02*
X053178Y018120D01*
X052510Y017452D01*
X052092Y017870D01*
X052760Y018538D01*
G37*
G36*
X051591Y019708D02*
X052009Y019290D01*
X051341Y018622D01*
X050923Y019040D01*
X051591Y019708D01*
G37*
G36*
X019690Y018538D02*
X020108Y018120D01*
X019440Y017452D01*
X019022Y017870D01*
X019690Y018538D01*
G37*
G36*
X018520Y019708D02*
X018938Y019290D01*
X018270Y018622D01*
X017852Y019040D01*
X018520Y019708D01*
G37*
D18*
X019245Y019480D03*
X019915Y019480D03*
X020245Y018380D03*
X020915Y018380D03*
X019315Y015980D03*
X018645Y015980D03*
X028045Y015880D03*
X028715Y015880D03*
X029076Y014726D03*
X029745Y014726D03*
X028345Y011851D03*
X027676Y011851D03*
X027515Y002080D03*
X026845Y002080D03*
X038816Y002280D03*
X039486Y002280D03*
X051716Y015980D03*
X052386Y015980D03*
X053316Y018380D03*
X053986Y018380D03*
X052986Y019480D03*
X052316Y019480D03*
X061116Y015880D03*
X061786Y015880D03*
X062147Y014726D03*
X062816Y014726D03*
X061416Y011851D03*
X060747Y011851D03*
X060586Y002080D03*
X059916Y002080D03*
X006415Y002280D03*
X005745Y002280D03*
D19*
X008180Y002085D03*
X008180Y002675D03*
X008880Y002675D03*
X008880Y002085D03*
X010080Y002085D03*
X010080Y002675D03*
X041251Y002675D03*
X041251Y002085D03*
X041951Y002085D03*
X041951Y002675D03*
X043151Y002675D03*
X043151Y002085D03*
X040751Y030385D03*
X040751Y030975D03*
X039751Y030975D03*
X039751Y030385D03*
X007680Y030385D03*
X006680Y030385D03*
X006680Y030975D03*
X007680Y030975D03*
D20*
X011829Y015580D03*
X012931Y015580D03*
X028153Y016850D03*
X029256Y016850D03*
X029197Y012676D03*
X030300Y012676D03*
X044900Y015580D03*
X046002Y015580D03*
X061224Y016850D03*
X062326Y016850D03*
X062268Y012676D03*
X063371Y012676D03*
D21*
X036881Y027696D03*
X036566Y027696D03*
X036251Y027696D03*
X035936Y027696D03*
X035621Y027696D03*
X003810Y027696D03*
X003495Y027696D03*
X003180Y027696D03*
X002865Y027696D03*
X002550Y027696D03*
D22*
X001408Y027696D03*
X001408Y029861D03*
X004952Y029861D03*
X004952Y027696D03*
X034479Y027696D03*
X034479Y029861D03*
X038023Y029861D03*
X038023Y027696D03*
D23*
X037117Y028680D03*
X035385Y028680D03*
X004046Y028680D03*
X002314Y028680D03*
D24*
X027286Y023848D03*
X027483Y023848D03*
X027680Y023848D03*
X027877Y023848D03*
X028074Y023848D03*
X028074Y022312D03*
X027877Y022312D03*
X027680Y022312D03*
X027483Y022312D03*
X027286Y022312D03*
X060357Y022312D03*
X060554Y022312D03*
X060751Y022312D03*
X060948Y022312D03*
X061145Y022312D03*
X061145Y023848D03*
X060948Y023848D03*
X060751Y023848D03*
X060554Y023848D03*
X060357Y023848D03*
D25*
X059983Y023474D03*
X059983Y023277D03*
X059983Y023080D03*
X059983Y022883D03*
X059983Y022686D03*
X061519Y022686D03*
X061519Y022883D03*
X061519Y023080D03*
X061519Y023277D03*
X061519Y023474D03*
X028448Y023474D03*
X028448Y023277D03*
X028448Y023080D03*
X028448Y022883D03*
X028448Y022686D03*
X026912Y022686D03*
X026912Y022883D03*
X026912Y023080D03*
X026912Y023277D03*
X026912Y023474D03*
D26*
X027680Y023080D03*
X060751Y023080D03*
D27*
X063851Y022253D03*
X063851Y023907D03*
X030780Y023907D03*
X030780Y022253D03*
D28*
X029936Y023380D03*
X029424Y023380D03*
X029136Y024180D03*
X028624Y024180D03*
X028636Y025480D03*
X028124Y025480D03*
X027436Y025480D03*
X026924Y025480D03*
X026736Y024180D03*
X026224Y024180D03*
X026136Y023280D03*
X025624Y023280D03*
X025824Y022680D03*
X026336Y022680D03*
X026824Y027080D03*
X027336Y027080D03*
X028124Y027580D03*
X028636Y027580D03*
X058695Y023280D03*
X059207Y023280D03*
X059407Y022680D03*
X058895Y022680D03*
X059295Y024180D03*
X059807Y024180D03*
X059995Y025480D03*
X060507Y025480D03*
X061195Y025480D03*
X061707Y025480D03*
X061695Y024180D03*
X062207Y024180D03*
X062495Y023380D03*
X063007Y023380D03*
X060407Y027080D03*
X059895Y027080D03*
X061195Y027580D03*
X061707Y027580D03*
D29*
X060851Y027536D03*
X060851Y027024D03*
X061151Y026436D03*
X061151Y025924D03*
X060551Y025924D03*
X060551Y026436D03*
X060551Y025036D03*
X060551Y024524D03*
X061151Y024524D03*
X061151Y025036D03*
X061851Y022336D03*
X061851Y021824D03*
X061351Y021536D03*
X060851Y021536D03*
X060851Y021024D03*
X061351Y021024D03*
X028780Y021824D03*
X028280Y021536D03*
X027780Y021536D03*
X027780Y021024D03*
X028280Y021024D03*
X028780Y022336D03*
X028080Y024524D03*
X028080Y025036D03*
X027480Y025036D03*
X027480Y024524D03*
X027480Y025924D03*
X027480Y026436D03*
X028080Y026436D03*
X028080Y025924D03*
X027780Y027024D03*
X027780Y027536D03*
D30*
X026782Y028680D03*
X027782Y029680D03*
X028782Y028680D03*
X028782Y030680D03*
X026782Y030680D03*
X059853Y030680D03*
X060853Y029680D03*
X061853Y028680D03*
X059853Y028680D03*
X061853Y030680D03*
D31*
X001180Y001180D03*
X034251Y001180D03*
X036278Y034251D03*
X036278Y043700D03*
X018956Y043700D03*
X018956Y034251D03*
X001633Y034251D03*
X001633Y043700D03*
X059023Y034704D03*
D32*
X059023Y035704D03*
X059023Y036704D03*
X059023Y037704D03*
X039278Y034251D03*
X038278Y034251D03*
X037278Y034251D03*
X037278Y043700D03*
X038278Y043700D03*
X039278Y043700D03*
X021956Y043700D03*
X020956Y043700D03*
X019956Y043700D03*
X019956Y034251D03*
X020956Y034251D03*
X021956Y034251D03*
X004633Y034251D03*
X003633Y034251D03*
X002633Y034251D03*
X002633Y043700D03*
X003633Y043700D03*
X004633Y043700D03*
X004180Y001180D03*
X003180Y001180D03*
X002180Y001180D03*
X035251Y001180D03*
X036251Y001180D03*
X037251Y001180D03*
D33*
X038681Y001180D03*
X039821Y001180D03*
X047999Y001755D03*
X048999Y001755D03*
X049999Y001755D03*
X016928Y001755D03*
X015928Y001755D03*
X014928Y001755D03*
X006750Y001180D03*
X005610Y001180D03*
D34*
X011023Y008054D03*
X008054Y009507D03*
X022349Y008054D03*
X023802Y011023D03*
X026680Y001180D03*
X041125Y009507D03*
X044093Y008054D03*
X055420Y008054D03*
X056873Y011023D03*
X059751Y001180D03*
X041125Y020834D03*
X042578Y023802D03*
X053904Y023802D03*
X056873Y022349D03*
X047605Y034251D03*
X047605Y043700D03*
X059023Y046030D03*
X030282Y043700D03*
X030282Y034251D03*
X020834Y023802D03*
X023802Y022349D03*
X009507Y023802D03*
X008054Y020834D03*
X012960Y034251D03*
X012960Y043700D03*
D35*
X013960Y043700D03*
X014960Y043700D03*
X014960Y034251D03*
X013960Y034251D03*
X012507Y023802D03*
X011507Y023802D03*
X010507Y023802D03*
X008054Y022834D03*
X008054Y021834D03*
X008054Y012507D03*
X008054Y011507D03*
X008054Y010507D03*
X009023Y008054D03*
X010023Y008054D03*
X019349Y008054D03*
X020349Y008054D03*
X021349Y008054D03*
X023802Y009023D03*
X023802Y010023D03*
X027680Y006680D03*
X027680Y005680D03*
X027680Y004680D03*
X030680Y004680D03*
X030680Y005680D03*
X030680Y006680D03*
X030680Y001180D03*
X029680Y001180D03*
X028680Y001180D03*
X027680Y001180D03*
X041125Y010507D03*
X041125Y011507D03*
X041125Y012507D03*
X042093Y008054D03*
X043093Y008054D03*
X052420Y008054D03*
X053420Y008054D03*
X054420Y008054D03*
X056873Y009023D03*
X056873Y010023D03*
X060751Y006680D03*
X060751Y005680D03*
X060751Y004680D03*
X063751Y004680D03*
X063751Y005680D03*
X063751Y006680D03*
X063751Y001180D03*
X062751Y001180D03*
X061751Y001180D03*
X060751Y001180D03*
X056873Y019349D03*
X056873Y020349D03*
X056873Y021349D03*
X055904Y023802D03*
X054904Y023802D03*
X045578Y023802D03*
X044578Y023802D03*
X043578Y023802D03*
X041125Y022834D03*
X041125Y021834D03*
X048605Y034251D03*
X049605Y034251D03*
X049605Y043700D03*
X048605Y043700D03*
X059023Y047030D03*
X059023Y048030D03*
X032282Y043700D03*
X031282Y043700D03*
X031282Y034251D03*
X032282Y034251D03*
X022834Y023802D03*
X021834Y023802D03*
X023802Y021349D03*
X023802Y020349D03*
X023802Y019349D03*
D36*
X016100Y005044D03*
X015726Y005044D03*
X015352Y005044D03*
X015352Y004020D03*
X015726Y004020D03*
X016100Y004020D03*
X048423Y004020D03*
X048797Y004020D03*
X049171Y004020D03*
X049171Y005044D03*
X048797Y005044D03*
X048423Y005044D03*
D37*
X050988Y006134D03*
X051421Y006134D03*
X051770Y001841D03*
X052203Y001841D03*
X019132Y001841D03*
X018699Y001841D03*
X018350Y006134D03*
X017917Y006134D03*
D38*
X014634Y005047D02*
X012744Y005047D01*
X012744Y005677D01*
X014634Y005677D01*
X014634Y005047D01*
X014634Y005204D02*
X012744Y005204D01*
X012744Y005361D02*
X014634Y005361D01*
X014634Y005518D02*
X012744Y005518D01*
X012744Y005675D02*
X014634Y005675D01*
X014634Y003590D02*
X012744Y003590D01*
X012744Y004220D01*
X014634Y004220D01*
X014634Y003590D01*
X014634Y003747D02*
X012744Y003747D01*
X012744Y003904D02*
X014634Y003904D01*
X014634Y004061D02*
X012744Y004061D01*
X012744Y004218D02*
X014634Y004218D01*
X045815Y003590D02*
X047705Y003590D01*
X045815Y003590D02*
X045815Y004220D01*
X047705Y004220D01*
X047705Y003590D01*
X047705Y003747D02*
X045815Y003747D01*
X045815Y003904D02*
X047705Y003904D01*
X047705Y004061D02*
X045815Y004061D01*
X045815Y004218D02*
X047705Y004218D01*
X047705Y005047D02*
X045815Y005047D01*
X045815Y005677D01*
X047705Y005677D01*
X047705Y005047D01*
X047705Y005204D02*
X045815Y005204D01*
X045815Y005361D02*
X047705Y005361D01*
X047705Y005518D02*
X045815Y005518D01*
X045815Y005675D02*
X047705Y005675D01*
D39*
X045252Y002737D03*
X045252Y001281D03*
X054571Y001240D03*
X054571Y002697D03*
X021500Y002697D03*
X021500Y001240D03*
X012181Y001281D03*
X012181Y002737D03*
D40*
X017186Y003452D03*
X018445Y003452D03*
X018445Y004684D03*
X017186Y004684D03*
X050256Y004684D03*
X051516Y004684D03*
X051516Y003452D03*
X050256Y003452D03*
D41*
X052584Y003386D03*
X052584Y004645D03*
X052586Y005315D03*
X052586Y006574D03*
X041651Y005410D03*
X041651Y004150D03*
X019513Y004645D03*
X019515Y005315D03*
X019515Y006574D03*
X019513Y003386D03*
X008580Y004150D03*
X008580Y005410D03*
D42*
X008319Y006237D03*
X008989Y006237D03*
X017145Y009980D03*
X017815Y009980D03*
X017815Y010880D03*
X017145Y010880D03*
X017681Y005578D03*
X018350Y005578D03*
X018710Y002424D03*
X019379Y002424D03*
X041390Y006237D03*
X042060Y006237D03*
X050216Y009980D03*
X050886Y009980D03*
X050886Y010880D03*
X050216Y010880D03*
X050752Y005578D03*
X051421Y005578D03*
X051781Y002424D03*
X052450Y002424D03*
X054088Y033951D03*
X054757Y033951D03*
X055788Y033951D03*
X056457Y033951D03*
X056457Y037351D03*
X056457Y037951D03*
X055788Y037951D03*
X055788Y037351D03*
X054857Y037351D03*
X054857Y037951D03*
X054188Y037951D03*
X054188Y037351D03*
X054188Y038851D03*
X054857Y038851D03*
X055588Y040051D03*
X056257Y040051D03*
X056888Y040051D03*
X057557Y040051D03*
X057557Y040751D03*
X056888Y040751D03*
X053457Y042551D03*
X052788Y042551D03*
X053988Y045051D03*
X054657Y045051D03*
X047960Y048000D03*
X047291Y048000D03*
X045460Y049300D03*
X045460Y049900D03*
X044791Y049900D03*
X044791Y049300D03*
X043460Y049300D03*
X043460Y049900D03*
X042791Y049900D03*
X042791Y049300D03*
X042960Y047200D03*
X042960Y046600D03*
X042291Y046600D03*
X042291Y047200D03*
X040760Y046800D03*
X040091Y046800D03*
X042791Y040451D03*
X042791Y039851D03*
X043460Y039851D03*
X043460Y040451D03*
X044791Y040451D03*
X044791Y039851D03*
X045460Y039851D03*
X045460Y040451D03*
X047291Y038551D03*
X047960Y038551D03*
X042960Y037751D03*
X042960Y037151D03*
X042291Y037151D03*
X042291Y037751D03*
X040760Y037351D03*
X040091Y037351D03*
X030637Y038551D03*
X029968Y038551D03*
X028137Y039851D03*
X028137Y040451D03*
X027468Y040451D03*
X027468Y039851D03*
X026137Y039851D03*
X026137Y040451D03*
X025468Y040451D03*
X025468Y039851D03*
X025637Y037751D03*
X025637Y037151D03*
X024968Y037151D03*
X024968Y037751D03*
X023437Y037351D03*
X022768Y037351D03*
X013315Y038551D03*
X012645Y038551D03*
X010815Y039851D03*
X010815Y040451D03*
X010145Y040451D03*
X010145Y039851D03*
X008815Y039851D03*
X008815Y040451D03*
X008145Y040451D03*
X008145Y039851D03*
X008315Y037751D03*
X008315Y037151D03*
X007645Y037151D03*
X007645Y037751D03*
X006115Y037351D03*
X005445Y037351D03*
X007645Y046600D03*
X007645Y047200D03*
X008315Y047200D03*
X008315Y046600D03*
X006115Y046800D03*
X005445Y046800D03*
X008145Y049300D03*
X008145Y049900D03*
X008815Y049900D03*
X008815Y049300D03*
X010145Y049300D03*
X010145Y049900D03*
X010815Y049900D03*
X010815Y049300D03*
X012645Y048000D03*
X013315Y048000D03*
X022768Y046800D03*
X023437Y046800D03*
X024968Y046600D03*
X024968Y047200D03*
X025637Y047200D03*
X025637Y046600D03*
X025468Y049300D03*
X025468Y049900D03*
X026137Y049900D03*
X026137Y049300D03*
X027468Y049300D03*
X027468Y049900D03*
X028137Y049900D03*
X028137Y049300D03*
X029968Y048000D03*
X030637Y048000D03*
D43*
X017110Y006061D03*
X017110Y005628D03*
X019967Y002861D03*
X019967Y002428D03*
X050181Y005628D03*
X050181Y006061D03*
X053038Y002861D03*
X053038Y002428D03*
D44*
X047507Y010188D03*
X047507Y010975D03*
X014436Y010975D03*
X014436Y010188D03*
D45*
X011091Y005799D03*
X010591Y005799D03*
X010091Y005799D03*
X009591Y005799D03*
X009591Y003799D03*
X010091Y003799D03*
X010591Y003799D03*
X011091Y003799D03*
X042662Y003799D03*
X043162Y003799D03*
X043662Y003799D03*
X044162Y003799D03*
X044162Y005799D03*
X043662Y005799D03*
X043162Y005799D03*
X042662Y005799D03*
D46*
X044750Y005845D03*
X044750Y005176D03*
X030000Y016115D03*
X030000Y016784D03*
X011679Y005845D03*
X011679Y005176D03*
X007680Y035716D03*
X007680Y036386D03*
X006980Y036386D03*
X006980Y037016D03*
X006980Y037686D03*
X005780Y038416D03*
X004880Y038416D03*
X004280Y038416D03*
X004280Y039086D03*
X004880Y039086D03*
X005780Y039086D03*
X004880Y037486D03*
X004280Y037486D03*
X004280Y036816D03*
X004880Y036816D03*
X006980Y035716D03*
X009480Y039816D03*
X009480Y040486D03*
X011980Y039286D03*
X011980Y038616D03*
X018203Y038516D03*
X018203Y039186D03*
X018203Y037486D03*
X018203Y036816D03*
X021603Y036816D03*
X022203Y036816D03*
X022203Y037486D03*
X021603Y037486D03*
X021603Y038416D03*
X022203Y038416D03*
X022203Y039086D03*
X021603Y039086D03*
X023103Y039086D03*
X023103Y038416D03*
X024303Y037686D03*
X024303Y037016D03*
X024303Y036386D03*
X024303Y035716D03*
X025003Y035716D03*
X025003Y036386D03*
X029303Y038616D03*
X029303Y039286D03*
X026803Y039816D03*
X026803Y040486D03*
X025003Y045165D03*
X024303Y045165D03*
X024303Y045834D03*
X024303Y046465D03*
X024303Y047134D03*
X023103Y047865D03*
X023103Y048534D03*
X022203Y048534D03*
X021603Y048534D03*
X021603Y047865D03*
X022203Y047865D03*
X022203Y046934D03*
X021603Y046934D03*
X021603Y046265D03*
X022203Y046265D03*
X025003Y045834D03*
X029303Y048065D03*
X029303Y048734D03*
X026803Y049265D03*
X026803Y049934D03*
X035526Y048634D03*
X035526Y047965D03*
X035526Y046934D03*
X035526Y046265D03*
X038926Y046265D03*
X039526Y046265D03*
X039526Y046934D03*
X038926Y046934D03*
X038926Y047865D03*
X039526Y047865D03*
X039526Y048534D03*
X038926Y048534D03*
X040426Y048534D03*
X040426Y047865D03*
X041626Y047134D03*
X041626Y046465D03*
X041626Y045834D03*
X042326Y045834D03*
X042326Y045165D03*
X041626Y045165D03*
X046626Y048065D03*
X046626Y048734D03*
X044126Y049265D03*
X044126Y049934D03*
X052823Y043886D03*
X053423Y043886D03*
X053423Y043216D03*
X052823Y043216D03*
X052823Y041886D03*
X053423Y041886D03*
X053423Y041216D03*
X052823Y041216D03*
X055523Y041386D03*
X056123Y041386D03*
X056123Y040716D03*
X055523Y040716D03*
X055923Y039186D03*
X055923Y038516D03*
X046626Y038616D03*
X046626Y039286D03*
X044126Y039816D03*
X044126Y040486D03*
X041626Y037686D03*
X041626Y037016D03*
X041626Y036386D03*
X041626Y035716D03*
X042326Y035716D03*
X042326Y036386D03*
X040426Y038416D03*
X039526Y038416D03*
X038926Y038416D03*
X038926Y039086D03*
X039526Y039086D03*
X040426Y039086D03*
X039526Y037486D03*
X038926Y037486D03*
X038926Y036816D03*
X039526Y036816D03*
X035526Y036816D03*
X035526Y037486D03*
X035526Y038516D03*
X035526Y039186D03*
X018203Y046265D03*
X018203Y046934D03*
X018203Y047965D03*
X018203Y048634D03*
X011980Y048734D03*
X011980Y048065D03*
X009480Y049265D03*
X009480Y049934D03*
X006980Y047134D03*
X006980Y046465D03*
X006980Y045834D03*
X007680Y045834D03*
X007680Y045165D03*
X006980Y045165D03*
X004880Y046265D03*
X004280Y046265D03*
X004280Y046934D03*
X004880Y046934D03*
X004880Y047865D03*
X004280Y047865D03*
X004280Y048534D03*
X004880Y048534D03*
X005780Y048534D03*
X005780Y047865D03*
X000880Y047965D03*
X000880Y048634D03*
X000880Y046934D03*
X000880Y046265D03*
X000880Y039186D03*
X000880Y038516D03*
X000880Y037486D03*
X000880Y036816D03*
X054723Y045716D03*
X054723Y046386D03*
X063071Y016784D03*
X063071Y016115D03*
D47*
X061519Y015023D03*
X061519Y014786D03*
X061519Y014550D03*
X061519Y014314D03*
X061519Y014078D03*
X061519Y013841D03*
X061519Y013605D03*
X061519Y013369D03*
X061519Y013133D03*
X061519Y012897D03*
X060101Y012897D03*
X060101Y013133D03*
X060101Y013369D03*
X060101Y013605D03*
X060101Y013841D03*
X060101Y014078D03*
X060101Y014314D03*
X060101Y014550D03*
X060101Y014786D03*
X060101Y015023D03*
X028448Y015023D03*
X028448Y014786D03*
X028448Y014550D03*
X028448Y014314D03*
X028448Y014078D03*
X028448Y013841D03*
X028448Y013605D03*
X028448Y013369D03*
X028448Y013133D03*
X028448Y012897D03*
X027030Y012897D03*
X027030Y013133D03*
X027030Y013369D03*
X027030Y013605D03*
X027030Y013841D03*
X027030Y014078D03*
X027030Y014314D03*
X027030Y014550D03*
X027030Y014786D03*
X027030Y015023D03*
D48*
X027385Y015278D03*
X027621Y015278D03*
X027857Y015278D03*
X028093Y015278D03*
X028093Y012641D03*
X027857Y012641D03*
X027621Y012641D03*
X027385Y012641D03*
X060456Y012641D03*
X060692Y012641D03*
X060928Y012641D03*
X061164Y012641D03*
X061164Y015278D03*
X060928Y015278D03*
X060692Y015278D03*
X060456Y015278D03*
D49*
X038011Y036867D03*
X038011Y037123D03*
X038011Y037379D03*
X038011Y037635D03*
X038011Y038367D03*
X038011Y038623D03*
X038011Y038879D03*
X038011Y039135D03*
X036240Y039135D03*
X036240Y038879D03*
X036240Y038623D03*
X036240Y038367D03*
X036240Y037635D03*
X036240Y037379D03*
X036240Y037123D03*
X036240Y036867D03*
X041840Y038467D03*
X041840Y038723D03*
X041840Y038979D03*
X041840Y039235D03*
X043611Y039235D03*
X043611Y038979D03*
X043611Y038723D03*
X043611Y038467D03*
X038011Y046316D03*
X038011Y046572D03*
X038011Y046828D03*
X038011Y047084D03*
X038011Y047816D03*
X038011Y048072D03*
X038011Y048328D03*
X038011Y048584D03*
X036240Y048584D03*
X036240Y048328D03*
X036240Y048072D03*
X036240Y047816D03*
X036240Y047084D03*
X036240Y046828D03*
X036240Y046572D03*
X036240Y046316D03*
X041840Y047916D03*
X041840Y048172D03*
X041840Y048428D03*
X041840Y048684D03*
X043611Y048684D03*
X043611Y048428D03*
X043611Y048172D03*
X043611Y047916D03*
X026289Y047916D03*
X026289Y048172D03*
X026289Y048428D03*
X026289Y048684D03*
X024517Y048684D03*
X024517Y048428D03*
X024517Y048172D03*
X024517Y047916D03*
X020689Y047816D03*
X020689Y048072D03*
X020689Y048328D03*
X020689Y048584D03*
X020689Y047084D03*
X020689Y046828D03*
X020689Y046572D03*
X020689Y046316D03*
X018917Y046316D03*
X018917Y046572D03*
X018917Y046828D03*
X018917Y047084D03*
X018917Y047816D03*
X018917Y048072D03*
X018917Y048328D03*
X018917Y048584D03*
X008966Y048684D03*
X008966Y048428D03*
X008966Y048172D03*
X008966Y047916D03*
X007194Y047916D03*
X007194Y048172D03*
X007194Y048428D03*
X007194Y048684D03*
X003366Y048584D03*
X003366Y048328D03*
X003366Y048072D03*
X003366Y047816D03*
X003366Y047084D03*
X003366Y046828D03*
X003366Y046572D03*
X003366Y046316D03*
X001594Y046316D03*
X001594Y046572D03*
X001594Y046828D03*
X001594Y047084D03*
X001594Y047816D03*
X001594Y048072D03*
X001594Y048328D03*
X001594Y048584D03*
X001594Y039135D03*
X001594Y038879D03*
X001594Y038623D03*
X001594Y038367D03*
X001594Y037635D03*
X001594Y037379D03*
X001594Y037123D03*
X001594Y036867D03*
X003366Y036867D03*
X003366Y037123D03*
X003366Y037379D03*
X003366Y037635D03*
X003366Y038367D03*
X003366Y038623D03*
X003366Y038879D03*
X003366Y039135D03*
X007194Y039235D03*
X007194Y038979D03*
X007194Y038723D03*
X007194Y038467D03*
X008966Y038467D03*
X008966Y038723D03*
X008966Y038979D03*
X008966Y039235D03*
X018917Y039135D03*
X018917Y038879D03*
X018917Y038623D03*
X018917Y038367D03*
X018917Y037635D03*
X018917Y037379D03*
X018917Y037123D03*
X018917Y036867D03*
X020689Y036867D03*
X020689Y037123D03*
X020689Y037379D03*
X020689Y037635D03*
X020689Y038367D03*
X020689Y038623D03*
X020689Y038879D03*
X020689Y039135D03*
X024517Y039235D03*
X024517Y038979D03*
X024517Y038723D03*
X024517Y038467D03*
X026289Y038467D03*
X026289Y038723D03*
X026289Y038979D03*
X026289Y039235D03*
D50*
X026498Y037051D03*
X026498Y036551D03*
X026498Y036051D03*
X026498Y035551D03*
X026498Y035051D03*
X026498Y034551D03*
X026498Y034051D03*
X029108Y034051D03*
X029108Y034551D03*
X029108Y035051D03*
X029108Y035551D03*
X029108Y036051D03*
X029108Y036551D03*
X029108Y037051D03*
X029108Y043500D03*
X029108Y044000D03*
X029108Y044500D03*
X029108Y045000D03*
X029108Y045500D03*
X029108Y046000D03*
X029108Y046500D03*
X026498Y046500D03*
X026498Y046000D03*
X026498Y045500D03*
X026498Y045000D03*
X026498Y044500D03*
X026498Y044000D03*
X026498Y043500D03*
X011785Y043500D03*
X011785Y044000D03*
X011785Y044500D03*
X011785Y045000D03*
X011785Y045500D03*
X011785Y046000D03*
X011785Y046500D03*
X009175Y046500D03*
X009175Y046000D03*
X009175Y045500D03*
X009175Y045000D03*
X009175Y044500D03*
X009175Y044000D03*
X009175Y043500D03*
X009175Y037051D03*
X009175Y036551D03*
X009175Y036051D03*
X009175Y035551D03*
X009175Y035051D03*
X009175Y034551D03*
X009175Y034051D03*
X011785Y034051D03*
X011785Y034551D03*
X011785Y035051D03*
X011785Y035551D03*
X011785Y036051D03*
X011785Y036551D03*
X011785Y037051D03*
X043821Y037051D03*
X043821Y036551D03*
X043821Y036051D03*
X043821Y035551D03*
X043821Y035051D03*
X043821Y034551D03*
X043821Y034051D03*
X046431Y034051D03*
X046431Y034551D03*
X046431Y035051D03*
X046431Y035551D03*
X046431Y036051D03*
X046431Y036551D03*
X046431Y037051D03*
X046431Y043500D03*
X046431Y044000D03*
X046431Y044500D03*
X046431Y045000D03*
X046431Y045500D03*
X046431Y046000D03*
X046431Y046500D03*
X043821Y046500D03*
X043821Y046000D03*
X043821Y045500D03*
X043821Y045000D03*
X043821Y044500D03*
X043821Y044000D03*
X043821Y043500D03*
D51*
X041574Y040151D03*
X040078Y040151D03*
X038574Y040151D03*
X037078Y040151D03*
X037174Y035751D03*
X035678Y035751D03*
X038578Y035751D03*
X040074Y035751D03*
X040074Y045200D03*
X038578Y045200D03*
X037174Y045200D03*
X035678Y045200D03*
X037078Y049600D03*
X038574Y049600D03*
X040078Y049600D03*
X041574Y049600D03*
X024251Y049600D03*
X022755Y049600D03*
X021251Y049600D03*
X019755Y049600D03*
X019851Y045200D03*
X021255Y045200D03*
X022751Y045200D03*
X018355Y045200D03*
X019755Y040151D03*
X021251Y040151D03*
X022755Y040151D03*
X024251Y040151D03*
X022751Y035751D03*
X021255Y035751D03*
X019851Y035751D03*
X018355Y035751D03*
X006928Y040151D03*
X005432Y040151D03*
X003928Y040151D03*
X002432Y040151D03*
X002528Y035751D03*
X001032Y035751D03*
X003932Y035751D03*
X005428Y035751D03*
X005428Y045200D03*
X003932Y045200D03*
X002528Y045200D03*
X001032Y045200D03*
X002432Y049600D03*
X003928Y049600D03*
X005432Y049600D03*
X006928Y049600D03*
D52*
X054039Y042037D03*
X054295Y042037D03*
X054550Y042037D03*
X054806Y042037D03*
X054806Y040265D03*
X054550Y040265D03*
X054295Y040265D03*
X054039Y040265D03*
X054139Y036437D03*
X054395Y036437D03*
X054650Y036437D03*
X054906Y036437D03*
X055639Y036437D03*
X055895Y036437D03*
X056150Y036437D03*
X056406Y036437D03*
X056406Y034665D03*
X056150Y034665D03*
X055895Y034665D03*
X055639Y034665D03*
X054906Y034665D03*
X054650Y034665D03*
X054395Y034665D03*
X054139Y034665D03*
D53*
X056223Y042246D03*
X056723Y042246D03*
X057223Y042246D03*
X057723Y042246D03*
X058223Y042246D03*
X058723Y042246D03*
X059223Y042246D03*
X059223Y044856D03*
X058723Y044856D03*
X058223Y044856D03*
X057723Y044856D03*
X057223Y044856D03*
X056723Y044856D03*
X056223Y044856D03*
D54*
X053123Y039999D03*
X053123Y038503D03*
X053123Y036999D03*
X053123Y035503D03*
X057523Y035599D03*
X057523Y037003D03*
X057523Y038499D03*
X057523Y034103D03*
D55*
X057151Y031180D03*
X055151Y031180D03*
X053151Y031180D03*
X051151Y031180D03*
X049151Y031180D03*
X047151Y031180D03*
X045151Y031180D03*
X043151Y031180D03*
X041251Y030780D03*
X039151Y030880D03*
X037151Y031180D03*
X035151Y031180D03*
X031080Y029480D03*
X031080Y027480D03*
X031080Y025480D03*
X029580Y024280D03*
X028880Y024680D03*
X029680Y022880D03*
X030780Y023080D03*
X031080Y021480D03*
X029280Y021780D03*
X028780Y021280D03*
X028280Y019980D03*
X026080Y018780D03*
X025580Y018380D03*
X025580Y017780D03*
X027280Y015880D03*
X026580Y015480D03*
X025780Y015580D03*
X026480Y013880D03*
X027680Y013680D03*
X027780Y014680D03*
X029380Y015280D03*
X031080Y015480D03*
X031080Y013480D03*
X029330Y013580D03*
X029380Y011880D03*
X029380Y011380D03*
X027980Y011380D03*
X026280Y011980D03*
X025780Y012380D03*
X025380Y012780D03*
X023880Y012780D03*
X022280Y013080D03*
X021580Y013080D03*
X019880Y010780D03*
X018680Y013080D03*
X017280Y011580D03*
X015680Y012380D03*
X015180Y011980D03*
X014380Y012180D03*
X013480Y013080D03*
X012980Y013480D03*
X013480Y013880D03*
X012980Y014280D03*
X011280Y014780D03*
X010680Y014280D03*
X010080Y013880D03*
X009280Y013480D03*
X008680Y013080D03*
X007980Y015280D03*
X006180Y015280D03*
X000680Y014780D03*
X000680Y012780D03*
X000680Y010780D03*
X000680Y008780D03*
X000680Y006780D03*
X000680Y004780D03*
X000680Y002780D03*
X006180Y004880D03*
X003580Y007180D03*
X003580Y009080D03*
X005280Y008280D03*
X012180Y006580D03*
X013880Y006580D03*
X014980Y006380D03*
X014980Y008080D03*
X017380Y006680D03*
X020480Y006480D03*
X020480Y005980D03*
X022280Y006980D03*
X023180Y007980D03*
X023780Y006280D03*
X026180Y006280D03*
X023880Y002880D03*
X023880Y001080D03*
X025580Y001080D03*
X021480Y003580D03*
X020480Y003780D03*
X020480Y003280D03*
X016580Y003280D03*
X010980Y001080D03*
X012480Y010980D03*
X015280Y010980D03*
X016280Y012980D03*
X016880Y014980D03*
X014980Y014980D03*
X014980Y016880D03*
X013580Y017480D03*
X014780Y018780D03*
X015780Y019680D03*
X016480Y019380D03*
X016280Y018680D03*
X016880Y016880D03*
X018480Y017380D03*
X018980Y016980D03*
X019980Y016080D03*
X020880Y017780D03*
X020580Y019480D03*
X021580Y020280D03*
X022280Y020280D03*
X025080Y021780D03*
X025780Y022180D03*
X026380Y022180D03*
X025080Y022780D03*
X025080Y023780D03*
X025780Y023880D03*
X026480Y024680D03*
X025080Y024780D03*
X024253Y026456D03*
X027480Y023280D03*
X027880Y022880D03*
X031080Y019480D03*
X031080Y017480D03*
X033751Y016780D03*
X033751Y014780D03*
X033751Y012780D03*
X033751Y010780D03*
X033751Y008780D03*
X033751Y006780D03*
X033751Y004780D03*
X033751Y002780D03*
X036651Y007180D03*
X038351Y008280D03*
X036651Y009080D03*
X039251Y004880D03*
X044051Y001080D03*
X049651Y003280D03*
X048051Y006380D03*
X046951Y006580D03*
X045251Y006580D03*
X048051Y008080D03*
X050451Y006680D03*
X053551Y006480D03*
X053551Y005980D03*
X055351Y006980D03*
X056251Y007980D03*
X056851Y006280D03*
X059251Y006280D03*
X056951Y002880D03*
X056951Y001080D03*
X058651Y001080D03*
X054551Y003580D03*
X053551Y003780D03*
X053551Y003280D03*
X052951Y010780D03*
X051751Y013080D03*
X050351Y011580D03*
X049351Y012980D03*
X048751Y012380D03*
X048251Y011980D03*
X047451Y012180D03*
X046551Y013080D03*
X046051Y013480D03*
X046551Y013880D03*
X046051Y014280D03*
X044351Y014780D03*
X043751Y014280D03*
X043151Y013880D03*
X042351Y013480D03*
X041751Y013080D03*
X041051Y015280D03*
X039251Y015280D03*
X033751Y018780D03*
X033751Y020780D03*
X033751Y022780D03*
X033751Y024780D03*
X035251Y024980D03*
X035651Y025480D03*
X033751Y026780D03*
X038951Y023680D03*
X037151Y021980D03*
X039751Y025980D03*
X042551Y025180D03*
X043151Y026456D03*
X047875Y026456D03*
X052600Y026456D03*
X057324Y026456D03*
X058151Y024780D03*
X058851Y023880D03*
X058151Y023780D03*
X058151Y022780D03*
X058851Y022180D03*
X059451Y022180D03*
X058151Y021780D03*
X060551Y023280D03*
X060951Y022880D03*
X062651Y024280D03*
X061951Y024680D03*
X062751Y022880D03*
X063851Y023080D03*
X064151Y021480D03*
X062351Y021780D03*
X061851Y021280D03*
X061351Y019980D03*
X059151Y018780D03*
X058651Y018380D03*
X058651Y017780D03*
X060351Y015880D03*
X059651Y015480D03*
X058851Y015580D03*
X059551Y013880D03*
X060751Y013680D03*
X060851Y014680D03*
X062451Y015280D03*
X064151Y015480D03*
X064151Y013480D03*
X062401Y013580D03*
X062451Y011880D03*
X062451Y011380D03*
X061051Y011380D03*
X059351Y011980D03*
X058851Y012380D03*
X058451Y012780D03*
X056951Y012780D03*
X055351Y013080D03*
X054651Y013080D03*
X053051Y016080D03*
X052051Y016980D03*
X051551Y017380D03*
X049951Y016880D03*
X049351Y018680D03*
X049551Y019380D03*
X048851Y019680D03*
X047851Y018780D03*
X046651Y017480D03*
X048051Y016880D03*
X048051Y014980D03*
X049951Y014980D03*
X053951Y017780D03*
X053651Y019480D03*
X054651Y020280D03*
X055351Y020280D03*
X055951Y016780D03*
X048351Y010980D03*
X045551Y010980D03*
X031080Y011480D03*
X031080Y009480D03*
X022880Y016780D03*
X019529Y026456D03*
X014804Y026456D03*
X010080Y026456D03*
X009480Y025180D03*
X006680Y025980D03*
X005880Y023680D03*
X004080Y021980D03*
X000680Y022780D03*
X000680Y020780D03*
X000680Y018780D03*
X000680Y016780D03*
X000680Y024780D03*
X002180Y024980D03*
X002580Y025480D03*
X000680Y026780D03*
X006080Y030880D03*
X004080Y031180D03*
X002080Y031180D03*
X008180Y030780D03*
X010080Y031180D03*
X012080Y031180D03*
X014080Y031180D03*
X016080Y031180D03*
X018080Y031180D03*
X020080Y031180D03*
X022080Y031180D03*
X024080Y031180D03*
X059551Y024680D03*
X064151Y025480D03*
X064151Y027480D03*
X064151Y029480D03*
X064151Y019480D03*
X064151Y017480D03*
X064151Y011480D03*
X064151Y009480D03*
D56*
X045126Y033951D03*
X045626Y035751D03*
X045526Y036451D03*
X044626Y035851D03*
X043826Y037551D03*
X042426Y038351D03*
X041326Y038451D03*
X041066Y039190D03*
X042226Y040451D03*
X042526Y039351D03*
X044226Y039251D03*
X045226Y039351D03*
X046026Y039051D03*
X046026Y038351D03*
X046226Y037651D03*
X047626Y036651D03*
X048326Y037051D03*
X048226Y037951D03*
X049426Y037251D03*
X049926Y036651D03*
X049426Y035551D03*
X048926Y035051D03*
X047326Y035551D03*
X042826Y034251D03*
X041526Y034251D03*
X040126Y034251D03*
X037926Y036451D03*
X038526Y037951D03*
X036826Y037951D03*
X035826Y038001D03*
X036426Y039551D03*
X037826Y040151D03*
X039326Y040151D03*
X040026Y037951D03*
X040826Y036851D03*
X045126Y043400D03*
X047326Y045000D03*
X047626Y046100D03*
X048326Y046500D03*
X048226Y047400D03*
X049426Y046700D03*
X049926Y046100D03*
X049426Y045000D03*
X048926Y044500D03*
X045626Y045200D03*
X045526Y045900D03*
X044626Y045300D03*
X043826Y047000D03*
X042426Y047800D03*
X041326Y047900D03*
X041066Y048639D03*
X040026Y047400D03*
X040826Y046300D03*
X038526Y047400D03*
X036826Y047400D03*
X035826Y047450D03*
X036426Y049000D03*
X037826Y049600D03*
X039326Y049600D03*
X042226Y049900D03*
X042526Y048800D03*
X044226Y048700D03*
X045226Y048800D03*
X046026Y048500D03*
X046026Y047800D03*
X046226Y047100D03*
X042826Y043700D03*
X041526Y043700D03*
X040126Y043700D03*
X037926Y045900D03*
X032603Y046100D03*
X032103Y046700D03*
X031003Y046500D03*
X030303Y046100D03*
X030003Y045000D03*
X028303Y045200D03*
X028203Y045900D03*
X027303Y045300D03*
X026503Y047000D03*
X025103Y047800D03*
X025203Y048800D03*
X024903Y049900D03*
X023743Y048639D03*
X024003Y047900D03*
X022703Y047400D03*
X023503Y046300D03*
X021203Y047400D03*
X020603Y045900D03*
X019503Y047400D03*
X018503Y047450D03*
X019103Y049000D03*
X020503Y049600D03*
X022003Y049600D03*
X026903Y048700D03*
X027903Y048800D03*
X028703Y048500D03*
X028703Y047800D03*
X028903Y047100D03*
X030903Y047400D03*
X032103Y045000D03*
X031603Y044500D03*
X027803Y043400D03*
X025503Y043700D03*
X024203Y043700D03*
X022803Y043700D03*
X022003Y040151D03*
X020503Y040151D03*
X019103Y039551D03*
X019503Y037951D03*
X018503Y038001D03*
X020603Y036451D03*
X021203Y037951D03*
X022703Y037951D03*
X023503Y036851D03*
X024003Y038451D03*
X023743Y039190D03*
X025203Y039351D03*
X025103Y038351D03*
X026503Y037551D03*
X027303Y035851D03*
X028303Y035751D03*
X028203Y036451D03*
X030003Y035551D03*
X030303Y036651D03*
X031003Y037051D03*
X030903Y037951D03*
X032103Y037251D03*
X032603Y036651D03*
X032103Y035551D03*
X031603Y035051D03*
X028903Y037651D03*
X028703Y038351D03*
X028703Y039051D03*
X027903Y039351D03*
X026903Y039251D03*
X024903Y040451D03*
X025503Y034251D03*
X024203Y034251D03*
X022803Y034251D03*
X027803Y033951D03*
X015280Y036651D03*
X014780Y037251D03*
X013680Y037051D03*
X012980Y036651D03*
X012680Y035551D03*
X014280Y035051D03*
X014780Y035551D03*
X013580Y037951D03*
X011580Y037651D03*
X011380Y038351D03*
X011380Y039051D03*
X010580Y039351D03*
X009580Y039251D03*
X007880Y039351D03*
X007780Y038351D03*
X006680Y038451D03*
X006421Y039190D03*
X007580Y040451D03*
X004680Y040151D03*
X003180Y040151D03*
X001780Y039551D03*
X002180Y037951D03*
X001180Y038001D03*
X003280Y036451D03*
X003880Y037951D03*
X005380Y037951D03*
X006180Y036851D03*
X005480Y034251D03*
X006880Y034251D03*
X008180Y034251D03*
X009980Y035851D03*
X010980Y035751D03*
X010880Y036451D03*
X009180Y037551D03*
X010480Y033951D03*
X010480Y043400D03*
X012680Y045000D03*
X012980Y046100D03*
X013680Y046500D03*
X013580Y047400D03*
X014780Y046700D03*
X015280Y046100D03*
X014780Y045000D03*
X014280Y044500D03*
X010980Y045200D03*
X010880Y045900D03*
X009980Y045300D03*
X009180Y047000D03*
X007780Y047800D03*
X006680Y047900D03*
X006421Y048639D03*
X005380Y047400D03*
X006180Y046300D03*
X003880Y047400D03*
X002180Y047400D03*
X001180Y047450D03*
X001780Y049000D03*
X003180Y049600D03*
X004680Y049600D03*
X007580Y049900D03*
X007880Y048800D03*
X009580Y048700D03*
X010580Y048800D03*
X011380Y048500D03*
X011380Y047800D03*
X011580Y047100D03*
X008180Y043700D03*
X006880Y043700D03*
X005480Y043700D03*
X003280Y045900D03*
X052823Y040651D03*
X053923Y040951D03*
X054923Y040851D03*
X054823Y039751D03*
X054084Y039491D03*
X055323Y038451D03*
X056423Y039251D03*
X059023Y039951D03*
X059023Y041251D03*
X057423Y043051D03*
X057523Y044051D03*
X056823Y043951D03*
X055623Y044651D03*
X054923Y044451D03*
X054223Y044451D03*
X053923Y043651D03*
X054023Y042651D03*
X055723Y042251D03*
X059323Y043551D03*
X057723Y045751D03*
X056623Y046051D03*
X056223Y046751D03*
X055323Y046651D03*
X056023Y047851D03*
X056623Y048351D03*
X057723Y047851D03*
X058223Y047351D03*
X059023Y038551D03*
X056823Y036351D03*
X055323Y036951D03*
X055323Y035251D03*
X055273Y034251D03*
X053723Y034851D03*
X053123Y036251D03*
X053123Y037751D03*
M02*
