G75*
G70*
%OFA0B0*%
%FSLAX24Y24*%
%IPPOS*%
%LPD*%
%AMOC8*
5,1,8,0,0,1.08239X$1,22.5*
%
%ADD10R,0.0315X0.0138*%
%ADD11R,0.0138X0.0315*%
%ADD12R,0.2559X0.2559*%
%ADD13R,0.0236X0.0866*%
%ADD14R,0.0315X0.0394*%
%ADD15R,0.0512X0.0866*%
%ADD16R,0.0394X0.0315*%
%ADD17R,0.0315X0.0315*%
%ADD18R,0.0630X0.0709*%
%ADD19R,0.0197X0.0984*%
%ADD20R,0.0787X0.0984*%
%ADD21R,0.0110X0.0394*%
%ADD22R,0.0394X0.0110*%
%ADD23R,0.0945X0.0945*%
%ADD24R,0.0866X0.0512*%
%ADD25R,0.0276X0.0354*%
%ADD26R,0.0354X0.0276*%
%ADD27R,0.0236X0.0472*%
%ADD28R,0.0315X0.0236*%
%ADD29C,0.0142*%
%ADD30R,0.0256X0.0866*%
%ADD31R,0.0472X0.0787*%
%ADD32R,0.0787X0.0472*%
%ADD33R,0.0433X0.0394*%
%ADD34R,0.0236X0.0315*%
%ADD35R,0.0250X0.0500*%
%ADD36R,0.0394X0.0433*%
%ADD37R,0.0394X0.0157*%
%ADD38R,0.0157X0.0394*%
%ADD39R,0.0433X0.0157*%
%ADD40R,0.0800X0.0260*%
%ADD41R,0.0669X0.0984*%
%ADD42R,0.0157X0.0433*%
%ADD43R,0.0260X0.0800*%
%ADD44R,0.0984X0.0669*%
D10*
X014353Y014649D03*
X014353Y014904D03*
X014353Y015160D03*
X014353Y015416D03*
X014353Y015672D03*
X014353Y015928D03*
X014353Y016184D03*
X014353Y016440D03*
X014353Y016696D03*
X014353Y016952D03*
X014353Y017208D03*
X017503Y017208D03*
X017503Y016952D03*
X017503Y016696D03*
X017503Y016440D03*
X017503Y016184D03*
X017503Y015928D03*
X017503Y015672D03*
X017503Y015416D03*
X017503Y015160D03*
X017503Y014904D03*
X017503Y014649D03*
X047424Y014649D03*
X047424Y014904D03*
X047424Y015160D03*
X047424Y015416D03*
X047424Y015672D03*
X047424Y015928D03*
X047424Y016184D03*
X047424Y016440D03*
X047424Y016696D03*
X047424Y016952D03*
X047424Y017208D03*
X050574Y017208D03*
X050574Y016952D03*
X050574Y016696D03*
X050574Y016440D03*
X050574Y016184D03*
X050574Y015928D03*
X050574Y015672D03*
X050574Y015416D03*
X050574Y015160D03*
X050574Y014904D03*
X050574Y014649D03*
D11*
X050278Y014353D03*
X050023Y014353D03*
X049767Y014353D03*
X049511Y014353D03*
X049255Y014353D03*
X048999Y014353D03*
X048743Y014353D03*
X048487Y014353D03*
X048231Y014353D03*
X047975Y014353D03*
X047719Y014353D03*
X047719Y017503D03*
X047975Y017503D03*
X048231Y017503D03*
X048487Y017503D03*
X048743Y017503D03*
X048999Y017503D03*
X049255Y017503D03*
X049511Y017503D03*
X049767Y017503D03*
X050023Y017503D03*
X050278Y017503D03*
X017208Y017503D03*
X016952Y017503D03*
X016696Y017503D03*
X016440Y017503D03*
X016184Y017503D03*
X015928Y017503D03*
X015672Y017503D03*
X015416Y017503D03*
X015160Y017503D03*
X014904Y017503D03*
X014649Y017503D03*
X014649Y014353D03*
X014904Y014353D03*
X015160Y014353D03*
X015416Y014353D03*
X015672Y014353D03*
X015928Y014353D03*
X016184Y014353D03*
X016440Y014353D03*
X016696Y014353D03*
X016952Y014353D03*
X017208Y014353D03*
D12*
X015928Y015928D03*
X048999Y015928D03*
D13*
X002930Y003856D03*
X003430Y003856D03*
X003930Y003856D03*
X004430Y003856D03*
X004430Y005904D03*
X003930Y005904D03*
X003430Y005904D03*
X002930Y005904D03*
X036001Y005904D03*
X036501Y005904D03*
X037001Y005904D03*
X037501Y005904D03*
X037501Y003856D03*
X037001Y003856D03*
X036501Y003856D03*
X036001Y003856D03*
D14*
X035251Y005345D03*
X035251Y006015D03*
X038351Y004415D03*
X038351Y003745D03*
X041251Y001515D03*
X041251Y000845D03*
X041951Y000845D03*
X041951Y001515D03*
X043151Y001515D03*
X043151Y000845D03*
X043726Y002315D03*
X043726Y002984D03*
X048810Y005855D03*
X048810Y006524D03*
X048851Y013045D03*
X048851Y013715D03*
X048851Y018345D03*
X048851Y019015D03*
X040751Y029145D03*
X040751Y029815D03*
X039751Y029815D03*
X039751Y029145D03*
X030080Y024515D03*
X030080Y023845D03*
X030080Y022215D03*
X030080Y021545D03*
X015780Y019015D03*
X015780Y018345D03*
X015780Y013715D03*
X015780Y013045D03*
X015739Y006524D03*
X015739Y005855D03*
X010656Y002984D03*
X010656Y002315D03*
X010080Y001515D03*
X010080Y000845D03*
X008880Y000845D03*
X008880Y001515D03*
X008180Y001515D03*
X008180Y000845D03*
X005280Y003745D03*
X005280Y004415D03*
X002180Y005345D03*
X002180Y006015D03*
X006680Y029145D03*
X006680Y029815D03*
X007680Y029815D03*
X007680Y029145D03*
X063151Y024515D03*
X063151Y023845D03*
X063151Y022215D03*
X063151Y021545D03*
D15*
G36*
X052760Y018482D02*
X053122Y018120D01*
X052510Y017508D01*
X052148Y017870D01*
X052760Y018482D01*
G37*
G36*
X051591Y019652D02*
X051953Y019290D01*
X051341Y018678D01*
X050979Y019040D01*
X051591Y019652D01*
G37*
G36*
X019690Y018482D02*
X020052Y018120D01*
X019440Y017508D01*
X019078Y017870D01*
X019690Y018482D01*
G37*
G36*
X018520Y019652D02*
X018882Y019290D01*
X018270Y018678D01*
X017908Y019040D01*
X018520Y019652D01*
G37*
D16*
X019245Y019480D03*
X019915Y019480D03*
X020245Y018380D03*
X020915Y018380D03*
X019315Y015980D03*
X018645Y015980D03*
X028045Y015880D03*
X028715Y015880D03*
X029076Y014726D03*
X029745Y014726D03*
X028345Y011851D03*
X027676Y011851D03*
X027515Y002080D03*
X026845Y002080D03*
X038816Y002280D03*
X039486Y002280D03*
X051716Y015980D03*
X052386Y015980D03*
X053316Y018380D03*
X053986Y018380D03*
X052986Y019480D03*
X052316Y019480D03*
X061116Y015880D03*
X061786Y015880D03*
X062147Y014726D03*
X062816Y014726D03*
X061416Y011851D03*
X060747Y011851D03*
X060586Y002080D03*
X059916Y002080D03*
X006415Y002280D03*
X005745Y002280D03*
D17*
X008180Y002085D03*
X008180Y002675D03*
X008880Y002675D03*
X008880Y002085D03*
X010080Y002085D03*
X010080Y002675D03*
X041251Y002675D03*
X041251Y002085D03*
X041951Y002085D03*
X041951Y002675D03*
X043151Y002675D03*
X043151Y002085D03*
X040751Y030385D03*
X040751Y030975D03*
X039751Y030975D03*
X039751Y030385D03*
X007680Y030385D03*
X006680Y030385D03*
X006680Y030975D03*
X007680Y030975D03*
D18*
X011829Y015580D03*
X012931Y015580D03*
X028153Y016850D03*
X029256Y016850D03*
X029197Y012676D03*
X030300Y012676D03*
X044900Y015580D03*
X046002Y015580D03*
X061224Y016850D03*
X062326Y016850D03*
X062268Y012676D03*
X063371Y012676D03*
D19*
X036881Y027696D03*
X036566Y027696D03*
X036251Y027696D03*
X035936Y027696D03*
X035621Y027696D03*
X003810Y027696D03*
X003495Y027696D03*
X003180Y027696D03*
X002865Y027696D03*
X002550Y027696D03*
D20*
X001408Y027696D03*
X001408Y029861D03*
X004952Y029861D03*
X004952Y027696D03*
X034479Y027696D03*
X034479Y029861D03*
X038023Y029861D03*
X038023Y027696D03*
D21*
X028074Y023848D03*
X027877Y023848D03*
X027680Y023848D03*
X027483Y023848D03*
X027286Y023848D03*
X027286Y022312D03*
X027483Y022312D03*
X027680Y022312D03*
X027877Y022312D03*
X028074Y022312D03*
X060357Y022312D03*
X060554Y022312D03*
X060751Y022312D03*
X060948Y022312D03*
X061145Y022312D03*
X061145Y023848D03*
X060948Y023848D03*
X060751Y023848D03*
X060554Y023848D03*
X060357Y023848D03*
D22*
X059983Y023474D03*
X059983Y023277D03*
X059983Y023080D03*
X059983Y022883D03*
X059983Y022686D03*
X061519Y022686D03*
X061519Y022883D03*
X061519Y023080D03*
X061519Y023277D03*
X061519Y023474D03*
X028448Y023474D03*
X028448Y023277D03*
X028448Y023080D03*
X028448Y022883D03*
X028448Y022686D03*
X026912Y022686D03*
X026912Y022883D03*
X026912Y023080D03*
X026912Y023277D03*
X026912Y023474D03*
D23*
X027680Y023080D03*
X060751Y023080D03*
D24*
X063851Y022253D03*
X063851Y023907D03*
X030780Y023907D03*
X030780Y022253D03*
D25*
X029936Y023380D03*
X029424Y023380D03*
X029136Y024180D03*
X028624Y024180D03*
X028636Y025480D03*
X028124Y025480D03*
X027436Y025480D03*
X026924Y025480D03*
X026736Y024180D03*
X026224Y024180D03*
X026136Y023280D03*
X025624Y023280D03*
X025824Y022680D03*
X026336Y022680D03*
X026824Y027080D03*
X027336Y027080D03*
X028124Y027580D03*
X028636Y027580D03*
X058695Y023280D03*
X059207Y023280D03*
X059407Y022680D03*
X058895Y022680D03*
X059295Y024180D03*
X059807Y024180D03*
X059995Y025480D03*
X060507Y025480D03*
X061195Y025480D03*
X061707Y025480D03*
X061695Y024180D03*
X062207Y024180D03*
X062495Y023380D03*
X063007Y023380D03*
X060407Y027080D03*
X059895Y027080D03*
X061195Y027580D03*
X061707Y027580D03*
D26*
X060851Y027536D03*
X060851Y027024D03*
X061151Y026436D03*
X061151Y025924D03*
X060551Y025924D03*
X060551Y026436D03*
X060551Y025036D03*
X060551Y024524D03*
X061151Y024524D03*
X061151Y025036D03*
X061851Y022336D03*
X061851Y021824D03*
X061351Y021536D03*
X060851Y021536D03*
X060851Y021024D03*
X061351Y021024D03*
X028780Y021824D03*
X028280Y021536D03*
X027780Y021536D03*
X027780Y021024D03*
X028280Y021024D03*
X028780Y022336D03*
X028080Y024524D03*
X028080Y025036D03*
X027480Y025036D03*
X027480Y024524D03*
X027480Y025924D03*
X027480Y026436D03*
X028080Y026436D03*
X028080Y025924D03*
X027780Y027024D03*
X027780Y027536D03*
D27*
X016100Y005044D03*
X015726Y005044D03*
X015352Y005044D03*
X015352Y004020D03*
X015726Y004020D03*
X016100Y004020D03*
X048423Y004020D03*
X048797Y004020D03*
X049171Y004020D03*
X049171Y005044D03*
X048797Y005044D03*
X048423Y005044D03*
D28*
X050988Y006134D03*
X051421Y006134D03*
X051770Y001841D03*
X052203Y001841D03*
X019132Y001841D03*
X018699Y001841D03*
X018350Y006134D03*
X017917Y006134D03*
D29*
X014602Y005079D02*
X012776Y005079D01*
X012776Y005645D01*
X014602Y005645D01*
X014602Y005079D01*
X014602Y005220D02*
X012776Y005220D01*
X012776Y005361D02*
X014602Y005361D01*
X014602Y005502D02*
X012776Y005502D01*
X012776Y005643D02*
X014602Y005643D01*
X014602Y003622D02*
X012776Y003622D01*
X012776Y004188D01*
X014602Y004188D01*
X014602Y003622D01*
X014602Y003763D02*
X012776Y003763D01*
X012776Y003904D02*
X014602Y003904D01*
X014602Y004045D02*
X012776Y004045D01*
X012776Y004186D02*
X014602Y004186D01*
X045847Y003622D02*
X047673Y003622D01*
X045847Y003622D02*
X045847Y004188D01*
X047673Y004188D01*
X047673Y003622D01*
X047673Y003763D02*
X045847Y003763D01*
X045847Y003904D02*
X047673Y003904D01*
X047673Y004045D02*
X045847Y004045D01*
X045847Y004186D02*
X047673Y004186D01*
X047673Y005079D02*
X045847Y005079D01*
X045847Y005645D01*
X047673Y005645D01*
X047673Y005079D01*
X047673Y005220D02*
X045847Y005220D01*
X045847Y005361D02*
X047673Y005361D01*
X047673Y005502D02*
X045847Y005502D01*
X045847Y005643D02*
X047673Y005643D01*
D30*
X045252Y002737D03*
X045252Y001281D03*
X054571Y001240D03*
X054571Y002697D03*
X021500Y002697D03*
X021500Y001240D03*
X012181Y001281D03*
X012181Y002737D03*
D31*
X017186Y003452D03*
X018445Y003452D03*
X018445Y004684D03*
X017186Y004684D03*
X050256Y004684D03*
X051516Y004684D03*
X051516Y003452D03*
X050256Y003452D03*
D32*
X052584Y003386D03*
X052584Y004645D03*
X052586Y005315D03*
X052586Y006574D03*
X041651Y005410D03*
X041651Y004150D03*
X019513Y004645D03*
X019515Y005315D03*
X019515Y006574D03*
X019513Y003386D03*
X008580Y004150D03*
X008580Y005410D03*
D33*
X008319Y006237D03*
X008989Y006237D03*
X017145Y009980D03*
X017815Y009980D03*
X017815Y010880D03*
X017145Y010880D03*
X017681Y005578D03*
X018350Y005578D03*
X018710Y002424D03*
X019379Y002424D03*
X041390Y006237D03*
X042060Y006237D03*
X050216Y009980D03*
X050886Y009980D03*
X050886Y010880D03*
X050216Y010880D03*
X050752Y005578D03*
X051421Y005578D03*
X051781Y002424D03*
X052450Y002424D03*
X054088Y033951D03*
X054757Y033951D03*
X055788Y033951D03*
X056457Y033951D03*
X056457Y037351D03*
X056457Y037951D03*
X055788Y037951D03*
X055788Y037351D03*
X054857Y037351D03*
X054857Y037951D03*
X054188Y037951D03*
X054188Y037351D03*
X054188Y038851D03*
X054857Y038851D03*
X055588Y040051D03*
X056257Y040051D03*
X056888Y040051D03*
X057557Y040051D03*
X057557Y040751D03*
X056888Y040751D03*
X053457Y042551D03*
X052788Y042551D03*
X053988Y045051D03*
X054657Y045051D03*
X047960Y048000D03*
X047291Y048000D03*
X045460Y049300D03*
X045460Y049900D03*
X044791Y049900D03*
X044791Y049300D03*
X043460Y049300D03*
X043460Y049900D03*
X042791Y049900D03*
X042791Y049300D03*
X042960Y047200D03*
X042960Y046600D03*
X042291Y046600D03*
X042291Y047200D03*
X040760Y046800D03*
X040091Y046800D03*
X042791Y040451D03*
X042791Y039851D03*
X043460Y039851D03*
X043460Y040451D03*
X044791Y040451D03*
X044791Y039851D03*
X045460Y039851D03*
X045460Y040451D03*
X047291Y038551D03*
X047960Y038551D03*
X042960Y037751D03*
X042960Y037151D03*
X042291Y037151D03*
X042291Y037751D03*
X040760Y037351D03*
X040091Y037351D03*
X030637Y038551D03*
X029968Y038551D03*
X028137Y039851D03*
X028137Y040451D03*
X027468Y040451D03*
X027468Y039851D03*
X026137Y039851D03*
X026137Y040451D03*
X025468Y040451D03*
X025468Y039851D03*
X025637Y037751D03*
X025637Y037151D03*
X024968Y037151D03*
X024968Y037751D03*
X023437Y037351D03*
X022768Y037351D03*
X013315Y038551D03*
X012645Y038551D03*
X010815Y039851D03*
X010815Y040451D03*
X010145Y040451D03*
X010145Y039851D03*
X008815Y039851D03*
X008815Y040451D03*
X008145Y040451D03*
X008145Y039851D03*
X008315Y037751D03*
X008315Y037151D03*
X007645Y037151D03*
X007645Y037751D03*
X006115Y037351D03*
X005445Y037351D03*
X007645Y046600D03*
X007645Y047200D03*
X008315Y047200D03*
X008315Y046600D03*
X006115Y046800D03*
X005445Y046800D03*
X008145Y049300D03*
X008145Y049900D03*
X008815Y049900D03*
X008815Y049300D03*
X010145Y049300D03*
X010145Y049900D03*
X010815Y049900D03*
X010815Y049300D03*
X012645Y048000D03*
X013315Y048000D03*
X022768Y046800D03*
X023437Y046800D03*
X024968Y046600D03*
X024968Y047200D03*
X025637Y047200D03*
X025637Y046600D03*
X025468Y049300D03*
X025468Y049900D03*
X026137Y049900D03*
X026137Y049300D03*
X027468Y049300D03*
X027468Y049900D03*
X028137Y049900D03*
X028137Y049300D03*
X029968Y048000D03*
X030637Y048000D03*
D34*
X017110Y006061D03*
X017110Y005628D03*
X019967Y002861D03*
X019967Y002428D03*
X050181Y005628D03*
X050181Y006061D03*
X053038Y002861D03*
X053038Y002428D03*
D35*
X044162Y003799D03*
X043662Y003799D03*
X043162Y003799D03*
X042662Y003799D03*
X042662Y005799D03*
X043162Y005799D03*
X043662Y005799D03*
X044162Y005799D03*
X011091Y005799D03*
X010591Y005799D03*
X010091Y005799D03*
X009591Y005799D03*
X009591Y003799D03*
X010091Y003799D03*
X010591Y003799D03*
X011091Y003799D03*
D36*
X011679Y005176D03*
X011679Y005845D03*
X030000Y016115D03*
X030000Y016784D03*
X044750Y005845D03*
X044750Y005176D03*
X063071Y016115D03*
X063071Y016784D03*
X042326Y035716D03*
X042326Y036386D03*
X041626Y036386D03*
X041626Y037016D03*
X041626Y037686D03*
X040426Y038416D03*
X039526Y038416D03*
X038926Y038416D03*
X038926Y039086D03*
X039526Y039086D03*
X040426Y039086D03*
X039526Y037486D03*
X038926Y037486D03*
X038926Y036816D03*
X039526Y036816D03*
X041626Y035716D03*
X044126Y039816D03*
X044126Y040486D03*
X046626Y039286D03*
X046626Y038616D03*
X052823Y041216D03*
X053423Y041216D03*
X053423Y041886D03*
X052823Y041886D03*
X052823Y043216D03*
X053423Y043216D03*
X053423Y043886D03*
X052823Y043886D03*
X054723Y045716D03*
X054723Y046386D03*
X055523Y041386D03*
X056123Y041386D03*
X056123Y040716D03*
X055523Y040716D03*
X055923Y039186D03*
X055923Y038516D03*
X046626Y048065D03*
X046626Y048734D03*
X044126Y049265D03*
X044126Y049934D03*
X041626Y047134D03*
X041626Y046465D03*
X041626Y045834D03*
X042326Y045834D03*
X042326Y045165D03*
X041626Y045165D03*
X039526Y046265D03*
X038926Y046265D03*
X038926Y046934D03*
X039526Y046934D03*
X039526Y047865D03*
X038926Y047865D03*
X038926Y048534D03*
X039526Y048534D03*
X040426Y048534D03*
X040426Y047865D03*
X035526Y047965D03*
X035526Y048634D03*
X035526Y046934D03*
X035526Y046265D03*
X029303Y048065D03*
X029303Y048734D03*
X026803Y049265D03*
X026803Y049934D03*
X024303Y047134D03*
X024303Y046465D03*
X024303Y045834D03*
X025003Y045834D03*
X025003Y045165D03*
X024303Y045165D03*
X022203Y046265D03*
X021603Y046265D03*
X021603Y046934D03*
X022203Y046934D03*
X022203Y047865D03*
X021603Y047865D03*
X021603Y048534D03*
X022203Y048534D03*
X023103Y048534D03*
X023103Y047865D03*
X018203Y047965D03*
X018203Y048634D03*
X018203Y046934D03*
X018203Y046265D03*
X011980Y048065D03*
X011980Y048734D03*
X009480Y049265D03*
X009480Y049934D03*
X006980Y047134D03*
X006980Y046465D03*
X006980Y045834D03*
X007680Y045834D03*
X007680Y045165D03*
X006980Y045165D03*
X004880Y046265D03*
X004280Y046265D03*
X004280Y046934D03*
X004880Y046934D03*
X004880Y047865D03*
X004280Y047865D03*
X004280Y048534D03*
X004880Y048534D03*
X005780Y048534D03*
X005780Y047865D03*
X000880Y047965D03*
X000880Y048634D03*
X000880Y046934D03*
X000880Y046265D03*
X009480Y040486D03*
X009480Y039816D03*
X011980Y039286D03*
X011980Y038616D03*
X007680Y036386D03*
X007680Y035716D03*
X006980Y035716D03*
X006980Y036386D03*
X006980Y037016D03*
X006980Y037686D03*
X005780Y038416D03*
X004880Y038416D03*
X004280Y038416D03*
X004280Y039086D03*
X004880Y039086D03*
X005780Y039086D03*
X004880Y037486D03*
X004280Y037486D03*
X004280Y036816D03*
X004880Y036816D03*
X000880Y036816D03*
X000880Y037486D03*
X000880Y038516D03*
X000880Y039186D03*
X018203Y039186D03*
X018203Y038516D03*
X018203Y037486D03*
X018203Y036816D03*
X021603Y036816D03*
X022203Y036816D03*
X022203Y037486D03*
X021603Y037486D03*
X021603Y038416D03*
X022203Y038416D03*
X022203Y039086D03*
X021603Y039086D03*
X023103Y039086D03*
X023103Y038416D03*
X024303Y037686D03*
X024303Y037016D03*
X024303Y036386D03*
X024303Y035716D03*
X025003Y035716D03*
X025003Y036386D03*
X029303Y038616D03*
X029303Y039286D03*
X026803Y039816D03*
X026803Y040486D03*
X035526Y039186D03*
X035526Y038516D03*
X035526Y037486D03*
X035526Y036816D03*
D37*
X028448Y015023D03*
X028448Y014786D03*
X028448Y014550D03*
X028448Y014314D03*
X028448Y014078D03*
X028448Y013841D03*
X028448Y013605D03*
X028448Y013369D03*
X028448Y013133D03*
X028448Y012897D03*
X027030Y012897D03*
X027030Y013133D03*
X027030Y013369D03*
X027030Y013605D03*
X027030Y013841D03*
X027030Y014078D03*
X027030Y014314D03*
X027030Y014550D03*
X027030Y014786D03*
X027030Y015023D03*
X060101Y015023D03*
X060101Y014786D03*
X060101Y014550D03*
X060101Y014314D03*
X060101Y014078D03*
X060101Y013841D03*
X060101Y013605D03*
X060101Y013369D03*
X060101Y013133D03*
X060101Y012897D03*
X061519Y012897D03*
X061519Y013133D03*
X061519Y013369D03*
X061519Y013605D03*
X061519Y013841D03*
X061519Y014078D03*
X061519Y014314D03*
X061519Y014550D03*
X061519Y014786D03*
X061519Y015023D03*
D38*
X061164Y015278D03*
X060928Y015278D03*
X060692Y015278D03*
X060456Y015278D03*
X060456Y012641D03*
X060692Y012641D03*
X060928Y012641D03*
X061164Y012641D03*
X028093Y012641D03*
X027857Y012641D03*
X027621Y012641D03*
X027385Y012641D03*
X027385Y015278D03*
X027621Y015278D03*
X027857Y015278D03*
X028093Y015278D03*
D39*
X020689Y036867D03*
X020689Y037123D03*
X020689Y037379D03*
X020689Y037635D03*
X020689Y038367D03*
X020689Y038623D03*
X020689Y038879D03*
X020689Y039135D03*
X018917Y039135D03*
X018917Y038879D03*
X018917Y038623D03*
X018917Y038367D03*
X018917Y037635D03*
X018917Y037379D03*
X018917Y037123D03*
X018917Y036867D03*
X024517Y038467D03*
X024517Y038723D03*
X024517Y038979D03*
X024517Y039235D03*
X026289Y039235D03*
X026289Y038979D03*
X026289Y038723D03*
X026289Y038467D03*
X036240Y038367D03*
X036240Y038623D03*
X036240Y038879D03*
X036240Y039135D03*
X036240Y037635D03*
X036240Y037379D03*
X036240Y037123D03*
X036240Y036867D03*
X038011Y036867D03*
X038011Y037123D03*
X038011Y037379D03*
X038011Y037635D03*
X038011Y038367D03*
X038011Y038623D03*
X038011Y038879D03*
X038011Y039135D03*
X041840Y039235D03*
X041840Y038979D03*
X041840Y038723D03*
X041840Y038467D03*
X043611Y038467D03*
X043611Y038723D03*
X043611Y038979D03*
X043611Y039235D03*
X038011Y046316D03*
X038011Y046572D03*
X038011Y046828D03*
X038011Y047084D03*
X038011Y047816D03*
X038011Y048072D03*
X038011Y048328D03*
X038011Y048584D03*
X036240Y048584D03*
X036240Y048328D03*
X036240Y048072D03*
X036240Y047816D03*
X036240Y047084D03*
X036240Y046828D03*
X036240Y046572D03*
X036240Y046316D03*
X041840Y047916D03*
X041840Y048172D03*
X041840Y048428D03*
X041840Y048684D03*
X043611Y048684D03*
X043611Y048428D03*
X043611Y048172D03*
X043611Y047916D03*
X026289Y047916D03*
X026289Y048172D03*
X026289Y048428D03*
X026289Y048684D03*
X024517Y048684D03*
X024517Y048428D03*
X024517Y048172D03*
X024517Y047916D03*
X020689Y047816D03*
X020689Y048072D03*
X020689Y048328D03*
X020689Y048584D03*
X020689Y047084D03*
X020689Y046828D03*
X020689Y046572D03*
X020689Y046316D03*
X018917Y046316D03*
X018917Y046572D03*
X018917Y046828D03*
X018917Y047084D03*
X018917Y047816D03*
X018917Y048072D03*
X018917Y048328D03*
X018917Y048584D03*
X008966Y048684D03*
X008966Y048428D03*
X008966Y048172D03*
X008966Y047916D03*
X007194Y047916D03*
X007194Y048172D03*
X007194Y048428D03*
X007194Y048684D03*
X003366Y048584D03*
X003366Y048328D03*
X003366Y048072D03*
X003366Y047816D03*
X003366Y047084D03*
X003366Y046828D03*
X003366Y046572D03*
X003366Y046316D03*
X001594Y046316D03*
X001594Y046572D03*
X001594Y046828D03*
X001594Y047084D03*
X001594Y047816D03*
X001594Y048072D03*
X001594Y048328D03*
X001594Y048584D03*
X001594Y039135D03*
X001594Y038879D03*
X001594Y038623D03*
X001594Y038367D03*
X001594Y037635D03*
X001594Y037379D03*
X001594Y037123D03*
X001594Y036867D03*
X003366Y036867D03*
X003366Y037123D03*
X003366Y037379D03*
X003366Y037635D03*
X003366Y038367D03*
X003366Y038623D03*
X003366Y038879D03*
X003366Y039135D03*
X007194Y039235D03*
X007194Y038979D03*
X007194Y038723D03*
X007194Y038467D03*
X008966Y038467D03*
X008966Y038723D03*
X008966Y038979D03*
X008966Y039235D03*
D40*
X009175Y037051D03*
X009175Y036551D03*
X009175Y036051D03*
X009175Y035551D03*
X009175Y035051D03*
X009175Y034551D03*
X009175Y034051D03*
X011785Y034051D03*
X011785Y034551D03*
X011785Y035051D03*
X011785Y035551D03*
X011785Y036051D03*
X011785Y036551D03*
X011785Y037051D03*
X011785Y043500D03*
X011785Y044000D03*
X011785Y044500D03*
X011785Y045000D03*
X011785Y045500D03*
X011785Y046000D03*
X011785Y046500D03*
X009175Y046500D03*
X009175Y046000D03*
X009175Y045500D03*
X009175Y045000D03*
X009175Y044500D03*
X009175Y044000D03*
X009175Y043500D03*
X026498Y043500D03*
X026498Y044000D03*
X026498Y044500D03*
X026498Y045000D03*
X026498Y045500D03*
X026498Y046000D03*
X026498Y046500D03*
X029108Y046500D03*
X029108Y046000D03*
X029108Y045500D03*
X029108Y045000D03*
X029108Y044500D03*
X029108Y044000D03*
X029108Y043500D03*
X029108Y037051D03*
X029108Y036551D03*
X029108Y036051D03*
X029108Y035551D03*
X029108Y035051D03*
X029108Y034551D03*
X029108Y034051D03*
X026498Y034051D03*
X026498Y034551D03*
X026498Y035051D03*
X026498Y035551D03*
X026498Y036051D03*
X026498Y036551D03*
X026498Y037051D03*
X043821Y037051D03*
X043821Y036551D03*
X043821Y036051D03*
X043821Y035551D03*
X043821Y035051D03*
X043821Y034551D03*
X043821Y034051D03*
X046431Y034051D03*
X046431Y034551D03*
X046431Y035051D03*
X046431Y035551D03*
X046431Y036051D03*
X046431Y036551D03*
X046431Y037051D03*
X046431Y043500D03*
X046431Y044000D03*
X046431Y044500D03*
X046431Y045000D03*
X046431Y045500D03*
X046431Y046000D03*
X046431Y046500D03*
X043821Y046500D03*
X043821Y046000D03*
X043821Y045500D03*
X043821Y045000D03*
X043821Y044500D03*
X043821Y044000D03*
X043821Y043500D03*
D41*
X041574Y040151D03*
X040078Y040151D03*
X038574Y040151D03*
X037078Y040151D03*
X037174Y035751D03*
X035678Y035751D03*
X038578Y035751D03*
X040074Y035751D03*
X040074Y045200D03*
X038578Y045200D03*
X037174Y045200D03*
X035678Y045200D03*
X037078Y049600D03*
X038574Y049600D03*
X040078Y049600D03*
X041574Y049600D03*
X024251Y049600D03*
X022755Y049600D03*
X021251Y049600D03*
X019755Y049600D03*
X019851Y045200D03*
X021255Y045200D03*
X022751Y045200D03*
X018355Y045200D03*
X019755Y040151D03*
X021251Y040151D03*
X022755Y040151D03*
X024251Y040151D03*
X022751Y035751D03*
X021255Y035751D03*
X019851Y035751D03*
X018355Y035751D03*
X006928Y040151D03*
X005432Y040151D03*
X003928Y040151D03*
X002432Y040151D03*
X002528Y035751D03*
X001032Y035751D03*
X003932Y035751D03*
X005428Y035751D03*
X005428Y045200D03*
X003932Y045200D03*
X002528Y045200D03*
X001032Y045200D03*
X002432Y049600D03*
X003928Y049600D03*
X005432Y049600D03*
X006928Y049600D03*
D42*
X054039Y042037D03*
X054295Y042037D03*
X054550Y042037D03*
X054806Y042037D03*
X054806Y040265D03*
X054550Y040265D03*
X054295Y040265D03*
X054039Y040265D03*
X054139Y036437D03*
X054395Y036437D03*
X054650Y036437D03*
X054906Y036437D03*
X055639Y036437D03*
X055895Y036437D03*
X056150Y036437D03*
X056406Y036437D03*
X056406Y034665D03*
X056150Y034665D03*
X055895Y034665D03*
X055639Y034665D03*
X054906Y034665D03*
X054650Y034665D03*
X054395Y034665D03*
X054139Y034665D03*
D43*
X056223Y042246D03*
X056723Y042246D03*
X057223Y042246D03*
X057723Y042246D03*
X058223Y042246D03*
X058723Y042246D03*
X059223Y042246D03*
X059223Y044856D03*
X058723Y044856D03*
X058223Y044856D03*
X057723Y044856D03*
X057223Y044856D03*
X056723Y044856D03*
X056223Y044856D03*
D44*
X053123Y039999D03*
X053123Y038503D03*
X053123Y036999D03*
X053123Y035503D03*
X057523Y035599D03*
X057523Y037003D03*
X057523Y038499D03*
X057523Y034103D03*
M02*
