%
M48
M72
T01C0.0236
T02C0.0276
T03C0.0354
T04C0.0394
T05C0.0400
T06C0.0591
T07C0.0630
T08C0.1181
%
T01
X680Y2780
X680Y4780
X680Y6780
X680Y8780
X680Y10780
X680Y12780
X680Y14780
X680Y16780
X680Y18780
X680Y20780
X680Y22780
X680Y24780
X2180Y24980
X2580Y25480
X680Y26780
X5880Y23680
X4080Y21980
X6680Y25980
X9480Y25180
X10080Y26456
X14804Y26456
X19529Y26456
X24253Y26456
X25080Y24780
X25780Y23880
X25080Y23780
X25080Y22780
X25780Y22180
X26380Y22180
X25080Y21780
X27480Y23280
X27880Y22880
X29280Y21780
X28780Y21280
X28280Y19980
X26080Y18780
X25580Y18380
X25580Y17780
X27280Y15880
X26580Y15480
X25780Y15580
X26480Y13880
X27680Y13680
X27780Y14680
X29380Y15280
X31080Y15480
X31080Y13480
X29330Y13580
X29380Y11880
X29380Y11380
X27980Y11380
X26280Y11980
X25780Y12380
X25380Y12780
X23880Y12780
X22280Y13080
X21580Y13080
X19880Y10780
X18680Y13080
X17280Y11580
X15680Y12380
X15180Y11980
X14380Y12180
X13480Y13080
X12980Y13480
X13480Y13880
X12980Y14280
X11280Y14780
X10680Y14280
X10080Y13880
X9280Y13480
X8680Y13080
X7980Y15280
X6180Y15280
X12480Y10980
X15280Y10980
X16280Y12980
X16880Y14980
X14980Y14980
X14980Y16880
X13580Y17480
X14780Y18780
X15780Y19680
X16480Y19380
X16280Y18680
X16880Y16880
X18480Y17380
X18980Y16980
X19980Y16080
X20880Y17780
X20580Y19480
X21580Y20280
X22280Y20280
X22880Y16780
X31080Y17480
X31080Y19480
X31080Y21480
X30780Y23080
X29680Y22880
X29580Y24280
X28880Y24680
X31080Y25480
X31080Y27480
X31080Y29480
X33751Y26780
X35651Y25480
X35251Y24980
X33751Y24780
X33751Y22780
X33751Y20780
X33751Y18780
X33751Y16780
X33751Y14780
X33751Y12780
X33751Y10780
X33751Y8780
X33751Y6780
X33751Y4780
X33751Y2780
X36651Y7180
X38351Y8280
X36651Y9080
X39251Y4880
X44051Y1080
X49651Y3280
X48051Y6380
X46951Y6580
X45251Y6580
X48051Y8080
X50451Y6680
X53551Y6480
X53551Y5980
X55351Y6980
X56251Y7980
X56851Y6280
X59251Y6280
X56951Y2880
X56951Y1080
X58651Y1080
X54551Y3580
X53551Y3780
X53551Y3280
X52951Y10780
X51751Y13080
X50351Y11580
X49351Y12980
X48751Y12380
X48251Y11980
X47451Y12180
X46551Y13080
X46051Y13480
X46551Y13880
X46051Y14280
X44351Y14780
X43751Y14280
X43151Y13880
X42351Y13480
X41751Y13080
X41051Y15280
X39251Y15280
X45551Y10980
X48351Y10980
X48051Y14980
X49951Y14980
X49951Y16880
X51551Y17380
X52051Y16980
X53051Y16080
X53951Y17780
X53651Y19480
X54651Y20280
X55351Y20280
X58151Y21780
X58851Y22180
X59451Y22180
X58151Y22780
X58151Y23780
X58851Y23880
X59551Y24680
X58151Y24780
X60551Y23280
X60951Y22880
X62651Y24280
X61951Y24680
X62751Y22880
X63851Y23080
X64151Y21480
X62351Y21780
X61851Y21280
X61351Y19980
X59151Y18780
X58651Y18380
X58651Y17780
X60351Y15880
X59651Y15480
X58851Y15580
X59551Y13880
X60751Y13680
X60851Y14680
X62451Y15280
X64151Y15480
X64151Y13480
X62401Y13580
X62451Y11880
X62451Y11380
X61051Y11380
X59351Y11980
X58851Y12380
X58451Y12780
X56951Y12780
X55351Y13080
X54651Y13080
X55951Y16780
X49351Y18680
X49551Y19380
X48851Y19680
X47851Y18780
X46651Y17480
X48051Y16880
X38951Y23680
X37151Y21980
X39751Y25980
X42551Y25180
X43151Y26456
X47875Y26456
X52600Y26456
X57324Y26456
X57151Y31180
X55151Y31180
X53151Y31180
X51151Y31180
X49151Y31180
X47151Y31180
X45151Y31180
X43151Y31180
X41251Y30780
X39151Y30880
X37151Y31180
X35151Y31180
X31603Y35051
X32103Y35551
X32603Y36651
X32103Y37251
X31003Y37051
X30303Y36651
X30003Y35551
X28303Y35751
X28203Y36451
X27303Y35851
X26503Y37551
X25103Y38351
X25203Y39351
X24903Y40451
X23743Y39190
X24003Y38451
X22703Y37951
X23503Y36851
X21203Y37951
X20603Y36451
X19503Y37951
X18503Y38001
X19103Y39551
X20503Y40151
X22003Y40151
X22803Y43700
X24203Y43700
X25503Y43700
X27803Y43400
X30003Y45000
X30303Y46100
X31003Y46500
X30903Y47400
X32103Y46700
X32603Y46100
X32103Y45000
X31603Y44500
X28303Y45200
X28203Y45900
X27303Y45300
X26503Y47000
X25103Y47800
X25203Y48800
X24903Y49900
X23743Y48639
X24003Y47900
X22703Y47400
X23503Y46300
X21203Y47400
X20603Y45900
X19503Y47400
X18503Y47450
X19103Y49000
X20503Y49600
X22003Y49600
X26903Y48700
X27903Y48800
X28703Y48500
X28703Y47800
X28903Y47100
X35826Y47450
X36826Y47400
X38526Y47400
X40026Y47400
X40826Y46300
X41326Y47900
X41066Y48639
X42426Y47800
X42526Y48800
X42226Y49900
X44226Y48700
X45226Y48800
X46026Y48500
X46026Y47800
X46226Y47100
X45526Y45900
X45626Y45200
X44626Y45300
X43826Y47000
X47626Y46100
X48326Y46500
X48226Y47400
X49426Y46700
X49926Y46100
X49426Y45000
X48926Y44500
X47326Y45000
X45126Y43400
X42826Y43700
X41526Y43700
X40126Y43700
X37926Y45900
X36426Y49000
X37826Y49600
X39326Y49600
X39326Y40151
X41066Y39190
X41326Y38451
X42426Y38351
X42526Y39351
X42226Y40451
X44226Y39251
X45226Y39351
X46026Y39051
X46026Y38351
X46226Y37651
X47626Y36651
X48326Y37051
X48226Y37951
X49426Y37251
X49926Y36651
X49426Y35551
X48926Y35051
X47326Y35551
X45626Y35751
X45526Y36451
X44626Y35851
X43826Y37551
X40826Y36851
X40026Y37951
X38526Y37951
X36826Y37951
X35826Y38001
X36426Y39551
X37826Y40151
X37926Y36451
X40126Y34251
X41526Y34251
X42826Y34251
X45126Y33951
X53123Y36251
X53123Y37751
X54084Y39491
X54823Y39751
X54923Y40851
X53923Y40951
X52823Y40651
X54023Y42651
X53923Y43651
X54223Y44451
X54923Y44451
X55623Y44651
X56823Y43951
X57523Y44051
X57423Y43051
X55723Y42251
X59023Y41251
X59023Y39951
X59023Y38551
X56423Y39251
X55323Y38451
X55323Y36951
X56823Y36351
X55323Y35251
X55273Y34251
X53723Y34851
X64151Y29480
X64151Y27480
X64151Y25480
X64151Y19480
X64151Y17480
X64151Y11480
X64151Y9480
X31080Y9480
X31080Y11480
X26180Y6280
X23780Y6280
X22280Y6980
X23180Y7980
X20480Y6480
X20480Y5980
X20480Y3780
X20480Y3280
X21480Y3580
X23880Y2880
X23880Y1080
X25580Y1080
X17380Y6680
X14980Y6380
X13880Y6580
X12180Y6580
X14980Y8080
X16580Y3280
X10980Y1080
X6180Y4880
X3580Y7180
X3580Y9080
X5280Y8280
X26480Y24680
X24080Y31180
X22080Y31180
X20080Y31180
X18080Y31180
X16080Y31180
X14080Y31180
X12080Y31180
X10080Y31180
X8180Y30780
X6080Y30880
X4080Y31180
X2080Y31180
X5480Y34251
X6880Y34251
X8180Y34251
X9980Y35851
X10980Y35751
X10880Y36451
X9180Y37551
X7780Y38351
X6680Y38451
X6421Y39190
X7580Y40451
X7880Y39351
X9580Y39251
X10580Y39351
X11380Y39051
X11380Y38351
X11580Y37651
X12980Y36651
X13680Y37051
X13580Y37951
X14780Y37251
X15280Y36651
X14780Y35551
X14280Y35051
X12680Y35551
X10480Y33951
X6180Y36851
X5380Y37951
X3880Y37951
X2180Y37951
X1180Y38001
X1780Y39551
X3180Y40151
X4680Y40151
X5480Y43700
X6880Y43700
X8180Y43700
X9980Y45300
X10980Y45200
X10880Y45900
X11580Y47100
X11380Y47800
X11380Y48500
X10580Y48800
X9580Y48700
X7880Y48800
X7780Y47800
X6680Y47900
X6421Y48639
X5380Y47400
X6180Y46300
X3880Y47400
X2180Y47400
X1180Y47450
X1780Y49000
X3180Y49600
X4680Y49600
X7580Y49900
X9180Y47000
X12980Y46100
X13680Y46500
X13580Y47400
X14780Y46700
X15280Y46100
X14780Y45000
X14280Y44500
X12680Y45000
X10480Y43400
X3280Y45900
X3280Y36451
X22803Y34251
X24203Y34251
X25503Y34251
X27803Y33951
X28903Y37651
X28703Y38351
X28703Y39051
X27903Y39351
X26903Y39251
X30903Y37951
X55323Y46651
X56223Y46751
X56623Y46051
X57723Y45751
X58223Y47351
X57723Y47851
X56623Y48351
X56023Y47851
X59323Y43551
T02
X47507Y10975
X47507Y10188
X14436Y10188
X14436Y10975
T03
X4046Y28680
X2314Y28680
X35385Y28680
X37117Y28680
T04
X1180Y1180
X2180Y1180
X3180Y1180
X4180Y1180
X9023Y8054
X10023Y8054
X11023Y8054
X8054Y9507
X8054Y10507
X8054Y11507
X8054Y12507
X8054Y20834
X8054Y21834
X8054Y22834
X9507Y23802
X10507Y23802
X11507Y23802
X12507Y23802
X20834Y23802
X21834Y23802
X22834Y23802
X23802Y22349
X23802Y21349
X23802Y20349
X23802Y19349
X23802Y11023
X23802Y10023
X23802Y9023
X22349Y8054
X21349Y8054
X20349Y8054
X19349Y8054
X27680Y6680
X27680Y5680
X27680Y4680
X30680Y4680
X30680Y5680
X30680Y6680
X30680Y1180
X29680Y1180
X28680Y1180
X27680Y1180
X26680Y1180
X34251Y1180
X35251Y1180
X36251Y1180
X37251Y1180
X42093Y8054
X43093Y8054
X44093Y8054
X41125Y9507
X41125Y10507
X41125Y11507
X41125Y12507
X41125Y20834
X41125Y21834
X41125Y22834
X42578Y23802
X43578Y23802
X44578Y23802
X45578Y23802
X53904Y23802
X54904Y23802
X55904Y23802
X56873Y22349
X56873Y21349
X56873Y20349
X56873Y19349
X56873Y11023
X56873Y10023
X56873Y9023
X55420Y8054
X54420Y8054
X53420Y8054
X52420Y8054
X60751Y6680
X60751Y5680
X60751Y4680
X63751Y4680
X63751Y5680
X63751Y6680
X63751Y1180
X62751Y1180
X61751Y1180
X60751Y1180
X59751Y1180
X49605Y34251
X48605Y34251
X47605Y34251
X39278Y34251
X38278Y34251
X37278Y34251
X36278Y34251
X32282Y34251
X31282Y34251
X30282Y34251
X21956Y34251
X20956Y34251
X19956Y34251
X18956Y34251
X14960Y34251
X13960Y34251
X12960Y34251
X4633Y34251
X3633Y34251
X2633Y34251
X1633Y34251
X1633Y43700
X2633Y43700
X3633Y43700
X4633Y43700
X12960Y43700
X13960Y43700
X14960Y43700
X18956Y43700
X19956Y43700
X20956Y43700
X21956Y43700
X30282Y43700
X31282Y43700
X32282Y43700
X36278Y43700
X37278Y43700
X38278Y43700
X39278Y43700
X47605Y43700
X48605Y43700
X49605Y43700
X59023Y46030
X59023Y47030
X59023Y48030
X59023Y37704
X59023Y36704
X59023Y35704
X59023Y34704
T05
X49999Y1755
X48999Y1755
X47999Y1755
X39821Y1180
X38681Y1180
X16928Y1755
X15928Y1755
X14928Y1755
X6750Y1180
X5610Y1180
T06
X27782Y29680
X60853Y29680
T07
X61853Y28680
X59853Y28680
X59853Y30680
X61853Y30680
X28782Y30680
X28782Y28680
X26782Y28680
X26782Y30680
T08
X21834Y21834
X10023Y21834
X10023Y10023
X21834Y10023
X43093Y10023
X54904Y10023
X54904Y21834
X43093Y21834
X52936Y34038
X49786Y40337
X52936Y48211
X49786Y49786
X35613Y49786
X32463Y49786
X32463Y40337
X35613Y40337
X18290Y40337
X15141Y40337
X15141Y49786
X18290Y49786
X967Y49786
X967Y40337
M30
