%
M48
M72
T01C0.0236
T02C0.0394
T03C0.1181
%
T01
X10190Y4078
X11590Y4078
X12890Y4078
X15190Y3778
X17390Y5378
X18990Y4878
X19490Y5378
X19990Y6478
X19490Y7078
X18390Y6878
X17690Y6478
X16290Y7478
X16090Y8178
X16090Y8878
X15290Y9178
X14290Y9078
X12590Y9178
X11131Y9017
X11390Y8278
X12490Y8178
X13890Y7378
X15590Y6278
X15690Y5578
X14690Y5678
X18290Y7778
X12290Y10278
X9390Y9978
X7890Y9978
X6490Y9378
X6890Y7778
X5890Y7828
X7990Y6278
X8590Y7778
X10090Y7778
X10890Y6678
T02
X6343Y4078
X7343Y4078
X8343Y4078
X9343Y4078
X17670Y4078
X18670Y4078
X19670Y4078
T03
X19851Y10165
X5677Y10165
M30
