G75*
G70*
%OFA0B0*%
%FSLAX24Y24*%
%IPPOS*%
%LPD*%
%AMOC8*
5,1,8,0,0,1.08239X$1,22.5*
%
%ADD10C,0.1261*%
%ADD11R,0.0769X0.0789*%
%ADD12R,0.0580X0.0330*%
%ADD13R,0.0474X0.0513*%
%ADD14R,0.0513X0.0474*%
%ADD15R,0.0434X0.0434*%
%ADD16R,0.0316X0.0356*%
%ADD17R,0.0740X0.0740*%
%ADD18OC8,0.0740*%
%ADD19R,0.0674X0.0674*%
%ADD20OC8,0.0674*%
%ADD21C,0.0476*%
D10*
X005677Y010165D03*
X019851Y010165D03*
D11*
X014733Y010165D03*
X014733Y007803D03*
X010796Y007803D03*
X010796Y010165D03*
D12*
X016990Y007828D03*
X016990Y007328D03*
X016990Y006828D03*
X016990Y006328D03*
X018990Y006328D03*
X018990Y006828D03*
X018990Y007328D03*
X018990Y007828D03*
D13*
X019390Y008344D03*
X019990Y008344D03*
X019990Y007713D03*
X019990Y007044D03*
X019990Y009013D03*
X019390Y009013D03*
X018690Y009444D03*
X018690Y010113D03*
X011890Y009013D03*
X011890Y008344D03*
X014690Y004913D03*
X015690Y004913D03*
X015690Y004244D03*
X014690Y004244D03*
D14*
X017655Y008478D03*
X018325Y008478D03*
X016925Y009578D03*
X016255Y009578D03*
X016255Y010278D03*
X016925Y010278D03*
D15*
X017890Y009406D03*
D16*
X017634Y010351D03*
X018146Y010351D03*
D17*
X017670Y004078D03*
D18*
X018670Y004078D03*
X019670Y004078D03*
D19*
X006343Y004078D03*
D20*
X007343Y004078D03*
X008343Y004078D03*
X009343Y004078D03*
D21*
X010190Y004078D03*
X011590Y004078D03*
X012890Y004078D03*
X015190Y003778D03*
X017390Y005378D03*
X018990Y004878D03*
X019490Y005378D03*
X019990Y006478D03*
X019490Y007078D03*
X018390Y006878D03*
X017690Y006478D03*
X016290Y007478D03*
X016090Y008178D03*
X016090Y008878D03*
X015290Y009178D03*
X014290Y009078D03*
X012590Y009178D03*
X011131Y009017D03*
X011390Y008278D03*
X012490Y008178D03*
X013890Y007378D03*
X015590Y006278D03*
X015690Y005578D03*
X014690Y005678D03*
X018290Y007778D03*
X012290Y010278D03*
X009390Y009978D03*
X007890Y009978D03*
X006490Y009378D03*
X006890Y007778D03*
X005890Y007828D03*
X007990Y006278D03*
X008590Y007778D03*
X010090Y007778D03*
X010890Y006678D03*
M02*
