G75*
G70*
%OFA0B0*%
%FSLAX24Y24*%
%IPPOS*%
%LPD*%
%AMOC8*
5,1,8,0,0,1.08239X$1,22.5*
%
%ADD10C,0.0020*%
%ADD11C,0.0010*%
%ADD12C,0.0060*%
%ADD13C,0.0100*%
%ADD14C,0.0080*%
%ADD15C,0.0220*%
%ADD16C,0.0157*%
%ADD17R,0.0300X0.0180*%
%ADD18R,0.0180X0.0300*%
%ADD19C,0.0050*%
D10*
X005983Y003457D02*
X005983Y003604D01*
X006129Y003604D02*
X006129Y003457D01*
X006056Y003384D01*
X005983Y003457D01*
X006204Y003384D02*
X006277Y003384D01*
X006240Y003384D02*
X006240Y003604D01*
X006204Y003604D02*
X006277Y003604D01*
X006351Y003604D02*
X006498Y003384D01*
X006498Y003604D01*
X006572Y003494D02*
X006719Y003494D01*
X006645Y003567D02*
X006645Y003420D01*
X006351Y003384D02*
X006351Y003604D01*
X005841Y003786D02*
X005841Y003822D01*
X005804Y003859D01*
X005620Y003859D01*
X005620Y003822D02*
X005620Y003896D01*
X005620Y003970D02*
X005620Y004043D01*
X005620Y004007D02*
X005841Y004007D01*
X005841Y004043D02*
X005841Y003970D01*
X005841Y004117D02*
X005620Y004117D01*
X005841Y004264D01*
X005620Y004264D01*
X005566Y004598D02*
X005566Y004818D01*
X005676Y004818D01*
X005713Y004781D01*
X005713Y004708D01*
X005676Y004671D01*
X005566Y004671D01*
X005639Y004671D02*
X005713Y004598D01*
X005787Y004598D02*
X005860Y004598D01*
X005824Y004598D02*
X005824Y004818D01*
X005860Y004818D02*
X005787Y004818D01*
X005934Y004818D02*
X006081Y004598D01*
X006081Y004818D01*
X006155Y004708D02*
X006302Y004708D01*
X005934Y004598D02*
X005934Y004818D01*
X005492Y004781D02*
X005455Y004818D01*
X005382Y004818D01*
X005345Y004781D01*
X005345Y004634D01*
X005382Y004598D01*
X005455Y004598D01*
X005492Y004634D01*
X005841Y003786D02*
X005804Y003749D01*
X007656Y003567D02*
X007656Y003420D01*
X007693Y003384D01*
X007766Y003384D01*
X007803Y003420D01*
X007803Y003494D01*
X007729Y003494D01*
X007656Y003567D02*
X007693Y003604D01*
X007766Y003604D01*
X007803Y003567D01*
X007877Y003604D02*
X008024Y003384D01*
X008024Y003604D01*
X008098Y003604D02*
X008208Y003604D01*
X008245Y003567D01*
X008245Y003420D01*
X008208Y003384D01*
X008098Y003384D01*
X008098Y003604D01*
X007877Y003604D02*
X007877Y003384D01*
X009132Y003457D02*
X009206Y003384D01*
X009279Y003457D01*
X009279Y003604D01*
X009353Y003604D02*
X009427Y003604D01*
X009390Y003604D02*
X009390Y003384D01*
X009353Y003384D02*
X009427Y003384D01*
X009501Y003384D02*
X009501Y003604D01*
X009647Y003384D01*
X009647Y003604D01*
X009722Y003494D02*
X009868Y003494D01*
X009132Y003457D02*
X009132Y003604D01*
X009071Y004643D02*
X009107Y004680D01*
X009107Y004864D01*
X009182Y004864D02*
X009328Y004864D01*
X009255Y004864D02*
X009255Y004643D01*
X009071Y004643D02*
X008997Y004643D01*
X008961Y004680D01*
X008961Y004864D01*
X008886Y004827D02*
X008850Y004864D01*
X008776Y004864D01*
X008740Y004827D01*
X008740Y004680D01*
X008776Y004643D01*
X008850Y004643D01*
X008886Y004680D01*
X008886Y004827D01*
X008665Y004827D02*
X008629Y004864D01*
X008519Y004864D01*
X008519Y004643D01*
X008519Y004717D02*
X008629Y004717D01*
X008665Y004754D01*
X008665Y004827D01*
X008592Y004717D02*
X008665Y004643D01*
X008444Y004680D02*
X008408Y004643D01*
X008334Y004643D01*
X008298Y004680D01*
X008298Y004827D01*
X008334Y004864D01*
X008408Y004864D01*
X008444Y004827D01*
X009403Y004754D02*
X009549Y004754D01*
X009476Y004827D02*
X009476Y004680D01*
X011258Y005341D02*
X011258Y005452D01*
X011295Y005488D01*
X011368Y005488D01*
X011405Y005452D01*
X011405Y005341D01*
X011478Y005341D02*
X011258Y005341D01*
X011405Y005415D02*
X011478Y005488D01*
X011478Y005562D02*
X011478Y005709D01*
X011478Y005783D02*
X011478Y005894D01*
X011442Y005930D01*
X011405Y005930D01*
X011368Y005894D01*
X011368Y005783D01*
X011478Y005783D02*
X011258Y005783D01*
X011258Y005894D01*
X011295Y005930D01*
X011332Y005930D01*
X011368Y005894D01*
X011919Y005867D02*
X011919Y005794D01*
X011919Y005830D02*
X012139Y005830D01*
X012139Y005794D02*
X012139Y005867D01*
X012139Y005941D02*
X012139Y006051D01*
X012102Y006088D01*
X012066Y006088D01*
X012029Y006051D01*
X012029Y005941D01*
X012139Y005941D02*
X011919Y005941D01*
X011919Y006051D01*
X011956Y006088D01*
X011992Y006088D01*
X012029Y006051D01*
X011919Y005720D02*
X011919Y005573D01*
X012139Y005573D01*
X012102Y005499D02*
X012139Y005462D01*
X012139Y005388D01*
X012102Y005352D01*
X011956Y005352D01*
X011919Y005388D01*
X011919Y005462D01*
X011956Y005499D01*
X012029Y005573D02*
X012029Y005646D01*
X011478Y005562D02*
X011258Y005562D01*
X010491Y006415D02*
X010344Y006415D01*
X010417Y006415D02*
X010417Y006635D01*
X010344Y006562D01*
X010270Y006599D02*
X010270Y006525D01*
X010233Y006489D01*
X010123Y006489D01*
X010196Y006489D02*
X010270Y006415D01*
X010123Y006415D02*
X010123Y006635D01*
X010233Y006635D01*
X010270Y006599D01*
X010049Y006599D02*
X010049Y006525D01*
X010012Y006489D01*
X009902Y006489D01*
X009975Y006489D02*
X010049Y006415D01*
X009902Y006415D02*
X009902Y006635D01*
X010012Y006635D01*
X010049Y006599D01*
X010565Y006525D02*
X010712Y006525D01*
X010638Y006452D02*
X010638Y006599D01*
X011241Y006611D02*
X011241Y006721D01*
X011278Y006758D01*
X011351Y006758D01*
X011388Y006721D01*
X011388Y006611D01*
X011461Y006611D02*
X011241Y006611D01*
X011388Y006684D02*
X011461Y006758D01*
X011461Y006832D02*
X011241Y006832D01*
X011241Y006979D01*
X011241Y007053D02*
X011241Y007163D01*
X011278Y007200D01*
X011314Y007200D01*
X011351Y007163D01*
X011351Y007053D01*
X011351Y007163D02*
X011388Y007200D01*
X011424Y007200D01*
X011461Y007163D01*
X011461Y007053D01*
X011241Y007053D01*
X011351Y006905D02*
X011351Y006832D01*
X012437Y006767D02*
X012437Y006547D01*
X012437Y006620D02*
X012547Y006620D01*
X012583Y006657D01*
X012583Y006730D01*
X012547Y006767D01*
X012437Y006767D01*
X012510Y006620D02*
X012583Y006547D01*
X012658Y006547D02*
X012658Y006767D01*
X012804Y006767D01*
X012879Y006767D02*
X012952Y006767D01*
X012915Y006767D02*
X012915Y006547D01*
X012879Y006547D02*
X012952Y006547D01*
X013026Y006547D02*
X013136Y006547D01*
X013173Y006583D01*
X013173Y006620D01*
X013136Y006657D01*
X013026Y006657D01*
X013026Y006547D02*
X013026Y006767D01*
X013136Y006767D01*
X013173Y006730D01*
X013173Y006694D01*
X013136Y006657D01*
X012731Y006657D02*
X012658Y006657D01*
X011104Y007494D02*
X011104Y007641D01*
X011030Y007568D02*
X011177Y007568D01*
X010956Y007604D02*
X010956Y007641D01*
X010919Y007678D01*
X010846Y007678D01*
X010809Y007641D01*
X010735Y007641D02*
X010735Y007568D01*
X010698Y007531D01*
X010588Y007531D01*
X010588Y007458D02*
X010588Y007678D01*
X010698Y007678D01*
X010735Y007641D01*
X010662Y007531D02*
X010735Y007458D01*
X010809Y007458D02*
X010956Y007604D01*
X010956Y007458D02*
X010809Y007458D01*
X010514Y007458D02*
X010441Y007531D01*
X010477Y007531D02*
X010367Y007531D01*
X010367Y007458D02*
X010367Y007678D01*
X010477Y007678D01*
X010514Y007641D01*
X010514Y007568D01*
X010477Y007531D01*
X010180Y008140D02*
X009960Y008140D01*
X009960Y008250D01*
X009997Y008287D01*
X010070Y008287D01*
X010107Y008250D01*
X010107Y008140D01*
X010107Y008213D02*
X010180Y008287D01*
X010180Y008361D02*
X009960Y008361D01*
X009960Y008471D01*
X009997Y008508D01*
X010070Y008508D01*
X010107Y008471D01*
X010107Y008361D01*
X010107Y008434D02*
X010180Y008508D01*
X010180Y008582D02*
X010033Y008729D01*
X009997Y008729D01*
X009960Y008692D01*
X009960Y008619D01*
X009997Y008582D01*
X010180Y008582D02*
X010180Y008729D01*
X010070Y008803D02*
X010070Y008950D01*
X009777Y009171D02*
X009630Y009171D01*
X009703Y009171D02*
X009703Y009391D01*
X009630Y009318D01*
X009556Y009355D02*
X009556Y009281D01*
X009519Y009244D01*
X009409Y009244D01*
X009409Y009171D02*
X009409Y009391D01*
X009519Y009391D01*
X009556Y009355D01*
X009482Y009244D02*
X009556Y009171D01*
X009335Y009171D02*
X009261Y009244D01*
X009298Y009244D02*
X009188Y009244D01*
X009188Y009171D02*
X009188Y009391D01*
X009298Y009391D01*
X009335Y009355D01*
X009335Y009281D01*
X009298Y009244D01*
X009851Y009281D02*
X009998Y009281D01*
X008778Y008925D02*
X008558Y008925D01*
X008558Y009036D01*
X008595Y009072D01*
X008668Y009072D01*
X008705Y009036D01*
X008705Y008925D01*
X008595Y008851D02*
X008668Y008778D01*
X008778Y008778D01*
X008668Y008778D02*
X008595Y008704D01*
X008558Y008704D01*
X008595Y008630D02*
X008632Y008630D01*
X008668Y008594D01*
X008668Y008483D01*
X008668Y008409D02*
X008705Y008373D01*
X008705Y008262D01*
X008778Y008262D02*
X008558Y008262D01*
X008558Y008373D01*
X008595Y008409D01*
X008668Y008409D01*
X008705Y008336D02*
X008778Y008409D01*
X008778Y008483D02*
X008558Y008483D01*
X008558Y008594D01*
X008595Y008630D01*
X008668Y008594D02*
X008705Y008630D01*
X008742Y008630D01*
X008778Y008594D01*
X008778Y008483D01*
X008742Y008188D02*
X008778Y008152D01*
X008778Y008078D01*
X008742Y008041D01*
X008595Y008041D01*
X008558Y008078D01*
X008558Y008152D01*
X008595Y008188D01*
X008668Y007595D02*
X008668Y007448D01*
X008668Y007374D02*
X008705Y007337D01*
X008705Y007227D01*
X008778Y007227D02*
X008558Y007227D01*
X008558Y007337D01*
X008595Y007374D01*
X008668Y007374D01*
X008595Y007521D02*
X008742Y007521D01*
X008595Y007153D02*
X008558Y007153D01*
X008595Y007153D02*
X008668Y007079D01*
X008778Y007079D01*
X008668Y007079D02*
X008595Y007006D01*
X008558Y007006D01*
X008595Y006932D02*
X008632Y006932D01*
X008668Y006895D01*
X008668Y006785D01*
X008668Y006711D02*
X008705Y006674D01*
X008705Y006564D01*
X008778Y006564D02*
X008558Y006564D01*
X008558Y006674D01*
X008595Y006711D01*
X008668Y006711D01*
X008705Y006637D02*
X008778Y006711D01*
X008778Y006785D02*
X008778Y006895D01*
X008742Y006932D01*
X008705Y006932D01*
X008668Y006895D01*
X008595Y006932D02*
X008558Y006895D01*
X008558Y006785D01*
X008778Y006785D01*
X008742Y006490D02*
X008778Y006453D01*
X008778Y006380D01*
X008742Y006343D01*
X008595Y006343D01*
X008558Y006380D01*
X008558Y006453D01*
X008595Y006490D01*
X006602Y006289D02*
X006455Y006289D01*
X006528Y006289D02*
X006528Y006509D01*
X006455Y006436D01*
X006381Y006509D02*
X006381Y006326D01*
X006344Y006289D01*
X006271Y006289D01*
X006234Y006326D01*
X006234Y006509D01*
X005333Y006540D02*
X005296Y006577D01*
X005333Y006540D02*
X005333Y006467D01*
X005296Y006430D01*
X005149Y006430D01*
X005112Y006467D01*
X005112Y006540D01*
X005149Y006577D01*
X005112Y006651D02*
X005112Y006761D01*
X005149Y006798D01*
X005223Y006798D01*
X005259Y006761D01*
X005259Y006651D01*
X005333Y006651D02*
X005112Y006651D01*
X005259Y006725D02*
X005333Y006798D01*
X005333Y006872D02*
X005112Y006872D01*
X005333Y007019D01*
X005112Y007019D01*
X005112Y007093D02*
X005112Y007203D01*
X005149Y007240D01*
X005223Y007240D01*
X005259Y007203D01*
X005259Y007093D01*
X005259Y007167D02*
X005333Y007240D01*
X005223Y007314D02*
X005223Y007461D01*
X005149Y007388D02*
X005296Y007388D01*
X005333Y007093D02*
X005112Y007093D01*
X006234Y007779D02*
X006271Y007742D01*
X006344Y007742D01*
X006381Y007779D01*
X006381Y007962D01*
X006455Y007925D02*
X006492Y007962D01*
X006565Y007962D01*
X006602Y007925D01*
X006602Y007889D01*
X006455Y007742D01*
X006602Y007742D01*
X006234Y007779D02*
X006234Y007962D01*
X005333Y008167D02*
X005296Y008130D01*
X005149Y008130D01*
X005112Y008167D01*
X005112Y008240D01*
X005149Y008277D01*
X005112Y008351D02*
X005112Y008461D01*
X005149Y008498D01*
X005223Y008498D01*
X005259Y008461D01*
X005259Y008351D01*
X005333Y008351D02*
X005112Y008351D01*
X005259Y008425D02*
X005333Y008498D01*
X005333Y008572D02*
X005112Y008572D01*
X005333Y008719D01*
X005112Y008719D01*
X005112Y008793D02*
X005112Y008903D01*
X005149Y008940D01*
X005223Y008940D01*
X005259Y008903D01*
X005259Y008793D01*
X005259Y008867D02*
X005333Y008940D01*
X005223Y009014D02*
X005223Y009161D01*
X005333Y008793D02*
X005112Y008793D01*
X005296Y008277D02*
X005333Y008240D01*
X005333Y008167D01*
X006370Y009654D02*
X006333Y009691D01*
X006333Y009764D01*
X006370Y009801D01*
X006333Y009875D02*
X006333Y009985D01*
X006370Y010022D01*
X006443Y010022D01*
X006480Y009985D01*
X006480Y009875D01*
X006553Y009875D02*
X006333Y009875D01*
X006480Y009948D02*
X006553Y010022D01*
X006553Y010096D02*
X006553Y010169D01*
X006553Y010133D02*
X006333Y010133D01*
X006333Y010169D02*
X006333Y010096D01*
X006333Y010243D02*
X006553Y010390D01*
X006333Y010390D01*
X006443Y010464D02*
X006443Y010611D01*
X006370Y010538D02*
X006516Y010538D01*
X006553Y010243D02*
X006333Y010243D01*
X006516Y009801D02*
X006553Y009764D01*
X006553Y009691D01*
X006516Y009654D01*
X006370Y009654D01*
X008668Y009293D02*
X008668Y009146D01*
X008595Y008851D02*
X008558Y008851D01*
X010492Y010708D02*
X010529Y010671D01*
X010602Y010671D01*
X010639Y010708D01*
X010713Y010744D02*
X010823Y010744D01*
X010860Y010781D01*
X010860Y010855D01*
X010823Y010891D01*
X010713Y010891D01*
X010713Y010671D01*
X010787Y010744D02*
X010860Y010671D01*
X010934Y010708D02*
X010971Y010671D01*
X011044Y010671D01*
X011081Y010708D01*
X011081Y010855D01*
X011044Y010891D01*
X010971Y010891D01*
X010934Y010855D01*
X010934Y010708D01*
X011155Y010708D02*
X011192Y010671D01*
X011265Y010671D01*
X011302Y010708D01*
X011302Y010891D01*
X011376Y010891D02*
X011523Y010891D01*
X011449Y010891D02*
X011449Y010671D01*
X011597Y010781D02*
X011744Y010781D01*
X011155Y010708D02*
X011155Y010891D01*
X010639Y010855D02*
X010602Y010891D01*
X010529Y010891D01*
X010492Y010855D01*
X010492Y010708D01*
X012379Y010016D02*
X012453Y009943D01*
X012600Y009943D01*
X012489Y009943D02*
X012489Y010089D01*
X012453Y010089D02*
X012600Y010089D01*
X012453Y010089D02*
X012379Y010016D01*
X012379Y009868D02*
X012379Y009722D01*
X012600Y009722D01*
X012563Y009647D02*
X012600Y009611D01*
X012600Y009537D01*
X012563Y009501D01*
X012416Y009501D01*
X012379Y009537D01*
X012379Y009611D01*
X012416Y009647D01*
X012489Y009722D02*
X012489Y009795D01*
X013429Y009437D02*
X013429Y009253D01*
X013466Y009217D01*
X013539Y009217D01*
X013576Y009253D01*
X013576Y009437D01*
X013650Y009400D02*
X013687Y009437D01*
X013760Y009437D01*
X013797Y009400D01*
X013797Y009363D01*
X013760Y009327D01*
X013797Y009290D01*
X013797Y009253D01*
X013760Y009217D01*
X013687Y009217D01*
X013650Y009253D01*
X013724Y009327D02*
X013760Y009327D01*
X013812Y010624D02*
X013812Y010844D01*
X013922Y010844D01*
X013959Y010807D01*
X013959Y010734D01*
X013922Y010697D01*
X013812Y010697D01*
X013886Y010697D02*
X013959Y010624D01*
X014033Y010624D02*
X014033Y010844D01*
X014180Y010844D01*
X014254Y010771D02*
X014328Y010844D01*
X014401Y010771D01*
X014401Y010624D01*
X014401Y010734D02*
X014254Y010734D01*
X014254Y010771D02*
X014254Y010624D01*
X014107Y010734D02*
X014033Y010734D01*
X013389Y010735D02*
X013389Y010588D01*
X013389Y010698D02*
X013242Y010698D01*
X013242Y010735D02*
X013242Y010588D01*
X013169Y010588D02*
X013095Y010588D01*
X013132Y010588D02*
X013132Y010809D01*
X013095Y010809D02*
X013169Y010809D01*
X013242Y010735D02*
X013316Y010809D01*
X013389Y010735D01*
X013021Y010809D02*
X012874Y010809D01*
X012874Y010588D01*
X012800Y010588D02*
X012727Y010662D01*
X012763Y010662D02*
X012653Y010662D01*
X012653Y010588D02*
X012653Y010809D01*
X012763Y010809D01*
X012800Y010772D01*
X012800Y010698D01*
X012763Y010662D01*
X012874Y010698D02*
X012948Y010698D01*
X014752Y010625D02*
X014788Y010588D01*
X014862Y010588D01*
X014898Y010625D01*
X014973Y010588D02*
X014973Y010809D01*
X015119Y010809D01*
X015194Y010809D02*
X015267Y010809D01*
X015230Y010809D02*
X015230Y010588D01*
X015194Y010588D02*
X015267Y010588D01*
X015341Y010588D02*
X015341Y010735D01*
X015414Y010809D01*
X015488Y010735D01*
X015488Y010588D01*
X015488Y010698D02*
X015341Y010698D01*
X015046Y010698D02*
X014973Y010698D01*
X014898Y010772D02*
X014862Y010809D01*
X014788Y010809D01*
X014752Y010772D01*
X014752Y010625D01*
X015824Y009851D02*
X015898Y009924D01*
X016044Y009924D01*
X015934Y009924D02*
X015934Y009777D01*
X015898Y009777D02*
X015824Y009851D01*
X015898Y009777D02*
X016044Y009777D01*
X016044Y009703D02*
X016044Y009556D01*
X015824Y009556D01*
X015861Y009482D02*
X015934Y009482D01*
X015971Y009445D01*
X015971Y009335D01*
X016044Y009335D02*
X015824Y009335D01*
X015824Y009445D01*
X015861Y009482D01*
X015971Y009409D02*
X016044Y009482D01*
X016549Y009440D02*
X016586Y009403D01*
X016659Y009403D01*
X016696Y009440D01*
X016770Y009403D02*
X016880Y009403D01*
X016917Y009440D01*
X016917Y009477D01*
X016880Y009513D01*
X016770Y009513D01*
X016696Y009587D02*
X016659Y009623D01*
X016586Y009623D01*
X016549Y009587D01*
X016549Y009440D01*
X016770Y009403D02*
X016770Y009623D01*
X016880Y009623D01*
X016917Y009587D01*
X016917Y009550D01*
X016880Y009513D01*
X016991Y009587D02*
X017065Y009513D01*
X017065Y009403D01*
X017065Y009513D02*
X017138Y009587D01*
X017138Y009623D01*
X017212Y009623D02*
X017322Y009623D01*
X017359Y009587D01*
X017359Y009513D01*
X017322Y009477D01*
X017212Y009477D01*
X017212Y009403D02*
X017212Y009623D01*
X016991Y009623D02*
X016991Y009587D01*
X017433Y009367D02*
X017580Y009367D01*
X017654Y009440D02*
X017691Y009403D01*
X017764Y009403D01*
X017801Y009440D01*
X017801Y009623D01*
X017875Y009623D02*
X017875Y009513D01*
X017949Y009550D01*
X017985Y009550D01*
X018022Y009513D01*
X018022Y009440D01*
X017985Y009403D01*
X017912Y009403D01*
X017875Y009440D01*
X017875Y009623D02*
X018022Y009623D01*
X018096Y009513D02*
X018243Y009513D01*
X018317Y009587D02*
X018354Y009623D01*
X018427Y009623D01*
X018464Y009587D01*
X018464Y009550D01*
X018317Y009403D01*
X018464Y009403D01*
X018479Y008909D02*
X018479Y008798D01*
X018552Y008835D01*
X018589Y008835D01*
X018626Y008798D01*
X018626Y008725D01*
X018589Y008688D01*
X018516Y008688D01*
X018479Y008725D01*
X018405Y008725D02*
X018405Y008909D01*
X018479Y008909D02*
X018626Y008909D01*
X018700Y008798D02*
X018847Y008798D01*
X018921Y008835D02*
X018994Y008909D01*
X018994Y008688D01*
X018921Y008688D02*
X019068Y008688D01*
X018405Y008725D02*
X018368Y008688D01*
X018295Y008688D01*
X018258Y008725D01*
X018258Y008909D01*
X017963Y008872D02*
X017963Y008798D01*
X017926Y008762D01*
X017816Y008762D01*
X017816Y008688D02*
X017816Y008909D01*
X017926Y008909D01*
X017963Y008872D01*
X017742Y008872D02*
X017669Y008798D01*
X017669Y008688D01*
X017669Y008798D02*
X017595Y008872D01*
X017595Y008909D01*
X017521Y008872D02*
X017521Y008835D01*
X017484Y008798D01*
X017374Y008798D01*
X017300Y008725D02*
X017263Y008688D01*
X017190Y008688D01*
X017153Y008725D01*
X017153Y008872D01*
X017190Y008909D01*
X017263Y008909D01*
X017300Y008872D01*
X017374Y008909D02*
X017484Y008909D01*
X017521Y008872D01*
X017484Y008798D02*
X017521Y008762D01*
X017521Y008725D01*
X017484Y008688D01*
X017374Y008688D01*
X017374Y008909D01*
X017742Y008909D02*
X017742Y008872D01*
X018037Y008652D02*
X018184Y008652D01*
X017654Y009440D02*
X017654Y009623D01*
X017711Y010112D02*
X017711Y010222D01*
X017674Y010259D01*
X017564Y010259D01*
X017564Y010112D01*
X017490Y010149D02*
X017453Y010112D01*
X017380Y010112D01*
X017343Y010149D01*
X017343Y010222D01*
X017380Y010259D01*
X017453Y010259D01*
X017490Y010222D01*
X017490Y010149D01*
X017269Y010112D02*
X017159Y010112D01*
X017122Y010149D01*
X017122Y010222D01*
X017159Y010259D01*
X017269Y010259D01*
X017048Y010222D02*
X017048Y010112D01*
X016938Y010112D01*
X016901Y010149D01*
X016938Y010185D01*
X017048Y010185D01*
X017048Y010222D02*
X017011Y010259D01*
X016938Y010259D01*
X016827Y010222D02*
X016827Y010185D01*
X016680Y010185D01*
X016680Y010149D02*
X016680Y010222D01*
X016717Y010259D01*
X016790Y010259D01*
X016827Y010222D01*
X016790Y010112D02*
X016717Y010112D01*
X016680Y010149D01*
X016606Y010149D02*
X016569Y010112D01*
X016459Y010112D01*
X016459Y010332D01*
X016569Y010332D01*
X016606Y010295D01*
X016606Y010259D01*
X016569Y010222D01*
X016459Y010222D01*
X016569Y010222D02*
X016606Y010185D01*
X016606Y010149D01*
X016599Y010466D02*
X016599Y010613D01*
X016599Y010540D02*
X016672Y010613D01*
X016709Y010613D01*
X016783Y010576D02*
X016820Y010613D01*
X016893Y010613D01*
X016930Y010576D01*
X016930Y010540D01*
X016783Y010540D01*
X016783Y010576D02*
X016783Y010503D01*
X016820Y010466D01*
X016893Y010466D01*
X017004Y010466D02*
X017004Y010686D01*
X017004Y010613D02*
X017114Y010613D01*
X017151Y010576D01*
X017151Y010503D01*
X017114Y010466D01*
X017004Y010466D01*
X017225Y010503D02*
X017225Y010576D01*
X017262Y010613D01*
X017335Y010613D01*
X017372Y010576D01*
X017372Y010503D01*
X017335Y010466D01*
X017262Y010466D01*
X017225Y010503D01*
X017446Y010613D02*
X017520Y010613D01*
X017483Y010650D02*
X017483Y010503D01*
X017520Y010466D01*
X017814Y010466D02*
X017961Y010613D01*
X017961Y010650D01*
X017925Y010686D01*
X017851Y010686D01*
X017814Y010650D01*
X017814Y010466D02*
X017961Y010466D01*
X018035Y010503D02*
X018182Y010650D01*
X018182Y010503D01*
X018146Y010466D01*
X018072Y010466D01*
X018035Y010503D01*
X018035Y010650D01*
X018072Y010686D01*
X018146Y010686D01*
X018182Y010650D01*
X018256Y010613D02*
X018330Y010686D01*
X018330Y010466D01*
X018403Y010466D02*
X018256Y010466D01*
X018264Y010332D02*
X018337Y010332D01*
X018374Y010295D01*
X018374Y010259D01*
X018337Y010222D01*
X018374Y010185D01*
X018374Y010149D01*
X018337Y010112D01*
X018264Y010112D01*
X018227Y010149D01*
X018153Y010185D02*
X018153Y010332D01*
X018227Y010295D02*
X018264Y010332D01*
X018300Y010222D02*
X018337Y010222D01*
X018153Y010185D02*
X018079Y010112D01*
X018006Y010185D01*
X018006Y010332D01*
X018477Y010503D02*
X018514Y010466D01*
X018588Y010466D01*
X018624Y010503D01*
X018624Y010540D01*
X018588Y010576D01*
X018551Y010576D01*
X018588Y010576D02*
X018624Y010613D01*
X018624Y010650D01*
X018588Y010686D01*
X018514Y010686D01*
X018477Y010650D01*
X016525Y010650D02*
X016488Y010686D01*
X016415Y010686D01*
X016378Y010650D01*
X016378Y010503D01*
X016415Y010466D01*
X016488Y010466D01*
X016525Y010503D01*
X016525Y010576D01*
X016451Y010576D01*
X016304Y010466D02*
X016231Y010466D01*
X016267Y010466D02*
X016267Y010686D01*
X016231Y010686D02*
X016304Y010686D01*
X013886Y007813D02*
X013776Y007813D01*
X013776Y007593D01*
X013886Y007593D01*
X013923Y007630D01*
X013923Y007666D01*
X013886Y007703D01*
X013776Y007703D01*
X013886Y007703D02*
X013923Y007740D01*
X013923Y007777D01*
X013886Y007813D01*
X013702Y007813D02*
X013555Y007813D01*
X013555Y007593D01*
X013481Y007630D02*
X013444Y007593D01*
X013371Y007593D01*
X013334Y007630D01*
X013334Y007777D01*
X013371Y007813D01*
X013444Y007813D01*
X013481Y007777D01*
X013555Y007703D02*
X013629Y007703D01*
X014425Y007559D02*
X014425Y007375D01*
X014462Y007338D01*
X014535Y007338D01*
X014572Y007375D01*
X014572Y007559D01*
X014646Y007448D02*
X014793Y007448D01*
X014756Y007338D02*
X014756Y007559D01*
X014646Y007448D01*
X017355Y004809D02*
X017428Y004809D01*
X017391Y004809D02*
X017391Y004625D01*
X017355Y004588D01*
X017318Y004588D01*
X017281Y004625D01*
X017502Y004625D02*
X017502Y004772D01*
X017539Y004809D01*
X017612Y004809D01*
X017649Y004772D01*
X017649Y004625D01*
X017612Y004588D01*
X017539Y004588D01*
X017502Y004625D01*
X017723Y004625D02*
X017723Y004809D01*
X017870Y004809D02*
X017870Y004625D01*
X017833Y004588D01*
X017760Y004588D01*
X017723Y004625D01*
X017944Y004809D02*
X018091Y004809D01*
X018017Y004809D02*
X018017Y004588D01*
X017952Y003604D02*
X017842Y003604D01*
X017842Y003384D01*
X017952Y003384D01*
X017989Y003420D01*
X017989Y003457D01*
X017952Y003494D01*
X017842Y003494D01*
X017768Y003494D02*
X017621Y003494D01*
X017547Y003494D02*
X017400Y003494D01*
X017400Y003530D02*
X017473Y003604D01*
X017547Y003530D01*
X017547Y003384D01*
X017400Y003384D02*
X017400Y003530D01*
X017952Y003494D02*
X017989Y003530D01*
X017989Y003567D01*
X017952Y003604D01*
X018483Y003567D02*
X018483Y003420D01*
X018519Y003384D01*
X018593Y003384D01*
X018629Y003420D01*
X018629Y003494D01*
X018556Y003494D01*
X018483Y003567D02*
X018519Y003604D01*
X018593Y003604D01*
X018629Y003567D01*
X018704Y003604D02*
X018850Y003384D01*
X018850Y003604D01*
X018925Y003604D02*
X019035Y003604D01*
X019071Y003567D01*
X019071Y003420D01*
X019035Y003384D01*
X018925Y003384D01*
X018925Y003604D01*
X018704Y003604D02*
X018704Y003384D01*
X019369Y003384D02*
X019479Y003384D01*
X019515Y003420D01*
X019515Y003457D01*
X019479Y003494D01*
X019369Y003494D01*
X019479Y003494D02*
X019515Y003530D01*
X019515Y003567D01*
X019479Y003604D01*
X019369Y003604D01*
X019369Y003384D01*
X019590Y003494D02*
X019736Y003494D01*
X019811Y003494D02*
X019957Y003494D01*
X019957Y003530D02*
X019957Y003384D01*
X019957Y003530D02*
X019884Y003604D01*
X019811Y003530D01*
X019811Y003384D01*
D11*
X013282Y008072D02*
X013282Y008122D01*
X013283Y008121D02*
X013298Y008124D01*
X013312Y008129D01*
X013324Y008137D01*
X013335Y008148D01*
X013343Y008160D01*
X013348Y008174D01*
X013351Y008189D01*
X013400Y008190D01*
X013401Y008189D01*
X013398Y008169D01*
X013393Y008149D01*
X013384Y008131D01*
X013372Y008115D01*
X013357Y008100D01*
X013341Y008088D01*
X013323Y008079D01*
X013303Y008074D01*
X013283Y008071D01*
X013283Y008080D01*
X013302Y008082D01*
X013320Y008088D01*
X013336Y008096D01*
X013352Y008107D01*
X013365Y008120D01*
X013376Y008136D01*
X013384Y008152D01*
X013390Y008170D01*
X013392Y008189D01*
X013383Y008189D01*
X013380Y008170D01*
X013374Y008152D01*
X013365Y008135D01*
X013352Y008120D01*
X013337Y008107D01*
X013320Y008098D01*
X013302Y008092D01*
X013283Y008089D01*
X013283Y008098D01*
X013300Y008101D01*
X013317Y008106D01*
X013332Y008115D01*
X013346Y008126D01*
X013357Y008140D01*
X013366Y008155D01*
X013371Y008172D01*
X013374Y008189D01*
X013365Y008189D01*
X013362Y008171D01*
X013355Y008154D01*
X013346Y008139D01*
X013333Y008126D01*
X013318Y008117D01*
X013301Y008110D01*
X013283Y008107D01*
X013283Y008116D01*
X013299Y008119D01*
X013314Y008125D01*
X013327Y008133D01*
X013339Y008145D01*
X013347Y008158D01*
X013353Y008173D01*
X013356Y008189D01*
X012184Y008190D02*
X012234Y008190D01*
X012233Y008189D02*
X012236Y008174D01*
X012241Y008160D01*
X012249Y008148D01*
X012260Y008137D01*
X012272Y008129D01*
X012286Y008124D01*
X012301Y008121D01*
X012302Y008072D01*
X012301Y008071D01*
X012281Y008074D01*
X012261Y008079D01*
X012243Y008088D01*
X012227Y008100D01*
X012212Y008115D01*
X012200Y008131D01*
X012191Y008149D01*
X012186Y008169D01*
X012183Y008189D01*
X012192Y008189D01*
X012194Y008170D01*
X012200Y008152D01*
X012208Y008136D01*
X012219Y008120D01*
X012232Y008107D01*
X012248Y008096D01*
X012264Y008088D01*
X012282Y008082D01*
X012301Y008080D01*
X012301Y008089D01*
X012282Y008092D01*
X012264Y008098D01*
X012247Y008107D01*
X012232Y008120D01*
X012219Y008135D01*
X012210Y008152D01*
X012204Y008170D01*
X012201Y008189D01*
X012210Y008189D01*
X012213Y008172D01*
X012218Y008155D01*
X012227Y008140D01*
X012238Y008126D01*
X012252Y008115D01*
X012267Y008106D01*
X012284Y008101D01*
X012301Y008098D01*
X012301Y008107D01*
X012283Y008110D01*
X012266Y008117D01*
X012251Y008126D01*
X012238Y008139D01*
X012229Y008154D01*
X012222Y008171D01*
X012219Y008189D01*
X012228Y008189D01*
X012231Y008173D01*
X012237Y008158D01*
X012245Y008145D01*
X012257Y008133D01*
X012270Y008125D01*
X012285Y008119D01*
X012301Y008116D01*
X007682Y007972D02*
X007682Y008022D01*
X007683Y008021D02*
X007698Y008024D01*
X007712Y008029D01*
X007724Y008037D01*
X007735Y008048D01*
X007743Y008060D01*
X007748Y008074D01*
X007751Y008089D01*
X007800Y008090D01*
X007801Y008089D01*
X007798Y008069D01*
X007793Y008049D01*
X007784Y008031D01*
X007772Y008015D01*
X007757Y008000D01*
X007741Y007988D01*
X007723Y007979D01*
X007703Y007974D01*
X007683Y007971D01*
X007683Y007980D01*
X007702Y007982D01*
X007720Y007988D01*
X007736Y007996D01*
X007752Y008007D01*
X007765Y008020D01*
X007776Y008036D01*
X007784Y008052D01*
X007790Y008070D01*
X007792Y008089D01*
X007783Y008089D01*
X007780Y008070D01*
X007774Y008052D01*
X007765Y008035D01*
X007752Y008020D01*
X007737Y008007D01*
X007720Y007998D01*
X007702Y007992D01*
X007683Y007989D01*
X007683Y007998D01*
X007700Y008001D01*
X007717Y008006D01*
X007732Y008015D01*
X007746Y008026D01*
X007757Y008040D01*
X007766Y008055D01*
X007771Y008072D01*
X007774Y008089D01*
X007765Y008089D01*
X007762Y008071D01*
X007755Y008054D01*
X007746Y008039D01*
X007733Y008026D01*
X007718Y008017D01*
X007701Y008010D01*
X007683Y008007D01*
X007683Y008016D01*
X007699Y008019D01*
X007714Y008025D01*
X007727Y008033D01*
X007739Y008045D01*
X007747Y008058D01*
X007753Y008073D01*
X007756Y008089D01*
X006584Y008090D02*
X006634Y008090D01*
X006633Y008089D02*
X006636Y008074D01*
X006641Y008060D01*
X006649Y008048D01*
X006660Y008037D01*
X006672Y008029D01*
X006686Y008024D01*
X006701Y008021D01*
X006702Y007972D01*
X006701Y007971D01*
X006681Y007974D01*
X006661Y007979D01*
X006643Y007988D01*
X006627Y008000D01*
X006612Y008015D01*
X006600Y008031D01*
X006591Y008049D01*
X006586Y008069D01*
X006583Y008089D01*
X006592Y008089D01*
X006594Y008070D01*
X006600Y008052D01*
X006608Y008036D01*
X006619Y008020D01*
X006632Y008007D01*
X006648Y007996D01*
X006664Y007988D01*
X006682Y007982D01*
X006701Y007980D01*
X006701Y007989D01*
X006682Y007992D01*
X006664Y007998D01*
X006647Y008007D01*
X006632Y008020D01*
X006619Y008035D01*
X006610Y008052D01*
X006604Y008070D01*
X006601Y008089D01*
X006610Y008089D01*
X006613Y008072D01*
X006618Y008055D01*
X006627Y008040D01*
X006638Y008026D01*
X006652Y008015D01*
X006667Y008006D01*
X006684Y008001D01*
X006701Y007998D01*
X006701Y008007D01*
X006683Y008010D01*
X006666Y008017D01*
X006651Y008026D01*
X006638Y008039D01*
X006629Y008054D01*
X006622Y008071D01*
X006619Y008089D01*
X006628Y008089D01*
X006631Y008073D01*
X006637Y008058D01*
X006645Y008045D01*
X006657Y008033D01*
X006670Y008025D01*
X006685Y008019D01*
X006701Y008016D01*
X006584Y006590D02*
X006634Y006590D01*
X006633Y006589D02*
X006636Y006574D01*
X006641Y006560D01*
X006649Y006548D01*
X006660Y006537D01*
X006672Y006529D01*
X006686Y006524D01*
X006701Y006521D01*
X006702Y006472D01*
X006701Y006471D01*
X006681Y006474D01*
X006661Y006479D01*
X006643Y006488D01*
X006627Y006500D01*
X006612Y006515D01*
X006600Y006531D01*
X006591Y006549D01*
X006586Y006569D01*
X006583Y006589D01*
X006592Y006589D01*
X006594Y006570D01*
X006600Y006552D01*
X006608Y006536D01*
X006619Y006520D01*
X006632Y006507D01*
X006648Y006496D01*
X006664Y006488D01*
X006682Y006482D01*
X006701Y006480D01*
X006701Y006489D01*
X006682Y006492D01*
X006664Y006498D01*
X006647Y006507D01*
X006632Y006520D01*
X006619Y006535D01*
X006610Y006552D01*
X006604Y006570D01*
X006601Y006589D01*
X006610Y006589D01*
X006613Y006572D01*
X006618Y006555D01*
X006627Y006540D01*
X006638Y006526D01*
X006652Y006515D01*
X006667Y006506D01*
X006684Y006501D01*
X006701Y006498D01*
X006701Y006507D01*
X006683Y006510D01*
X006666Y006517D01*
X006651Y006526D01*
X006638Y006539D01*
X006629Y006554D01*
X006622Y006571D01*
X006619Y006589D01*
X006628Y006589D01*
X006631Y006573D01*
X006637Y006558D01*
X006645Y006545D01*
X006657Y006533D01*
X006670Y006525D01*
X006685Y006519D01*
X006701Y006516D01*
X007682Y006472D02*
X007682Y006522D01*
X007683Y006521D02*
X007698Y006524D01*
X007712Y006529D01*
X007724Y006537D01*
X007735Y006548D01*
X007743Y006560D01*
X007748Y006574D01*
X007751Y006589D01*
X007800Y006590D01*
X007801Y006589D01*
X007798Y006569D01*
X007793Y006549D01*
X007784Y006531D01*
X007772Y006515D01*
X007757Y006500D01*
X007741Y006488D01*
X007723Y006479D01*
X007703Y006474D01*
X007683Y006471D01*
X007683Y006480D01*
X007702Y006482D01*
X007720Y006488D01*
X007736Y006496D01*
X007752Y006507D01*
X007765Y006520D01*
X007776Y006536D01*
X007784Y006552D01*
X007790Y006570D01*
X007792Y006589D01*
X007783Y006589D01*
X007780Y006570D01*
X007774Y006552D01*
X007765Y006535D01*
X007752Y006520D01*
X007737Y006507D01*
X007720Y006498D01*
X007702Y006492D01*
X007683Y006489D01*
X007683Y006498D01*
X007700Y006501D01*
X007717Y006506D01*
X007732Y006515D01*
X007746Y006526D01*
X007757Y006540D01*
X007766Y006555D01*
X007771Y006572D01*
X007774Y006589D01*
X007765Y006589D01*
X007762Y006571D01*
X007755Y006554D01*
X007746Y006539D01*
X007733Y006526D01*
X007718Y006517D01*
X007701Y006510D01*
X007683Y006507D01*
X007683Y006516D01*
X007699Y006519D01*
X007714Y006525D01*
X007727Y006533D01*
X007739Y006545D01*
X007747Y006558D01*
X007753Y006573D01*
X007756Y006589D01*
D12*
X007777Y006598D02*
X007777Y007567D01*
X007776Y007563D02*
X007775Y007580D01*
X007770Y007597D01*
X007763Y007612D01*
X007753Y007626D01*
X007741Y007638D01*
X007727Y007648D01*
X007712Y007655D01*
X007695Y007660D01*
X007678Y007661D01*
X006706Y007661D01*
X006689Y007660D01*
X006672Y007655D01*
X006657Y007648D01*
X006643Y007638D01*
X006631Y007626D01*
X006621Y007612D01*
X006614Y007597D01*
X006609Y007580D01*
X006608Y007563D01*
X006607Y007567D02*
X006607Y006598D01*
X006706Y006496D02*
X007674Y006496D01*
X007674Y007996D02*
X006706Y007996D01*
X006607Y008098D02*
X006607Y009067D01*
X006608Y009063D02*
X006609Y009080D01*
X006614Y009097D01*
X006621Y009112D01*
X006631Y009126D01*
X006643Y009138D01*
X006657Y009148D01*
X006672Y009155D01*
X006689Y009160D01*
X006706Y009161D01*
X007678Y009161D01*
X007695Y009160D01*
X007712Y009155D01*
X007727Y009148D01*
X007741Y009138D01*
X007753Y009126D01*
X007763Y009112D01*
X007770Y009097D01*
X007775Y009080D01*
X007776Y009063D01*
X007777Y009067D02*
X007777Y008098D01*
X012207Y008198D02*
X012207Y009167D01*
X012208Y009163D02*
X012209Y009180D01*
X012214Y009197D01*
X012221Y009212D01*
X012231Y009226D01*
X012243Y009238D01*
X012257Y009248D01*
X012272Y009255D01*
X012289Y009260D01*
X012306Y009261D01*
X013278Y009261D01*
X013295Y009260D01*
X013312Y009255D01*
X013327Y009248D01*
X013341Y009238D01*
X013353Y009226D01*
X013363Y009212D01*
X013370Y009197D01*
X013375Y009180D01*
X013376Y009163D01*
X013377Y009167D02*
X013377Y008198D01*
X013274Y008096D02*
X012306Y008096D01*
D13*
X012918Y008422D02*
X012920Y008444D01*
X012926Y008466D01*
X012935Y008486D01*
X012948Y008504D01*
X012964Y008520D01*
X012982Y008533D01*
X013002Y008542D01*
X013024Y008548D01*
X013046Y008550D01*
X013068Y008548D01*
X013090Y008542D01*
X013110Y008533D01*
X013128Y008520D01*
X013144Y008504D01*
X013157Y008486D01*
X013166Y008466D01*
X013172Y008444D01*
X013174Y008422D01*
X013172Y008400D01*
X013166Y008378D01*
X013157Y008358D01*
X013144Y008340D01*
X013128Y008324D01*
X013110Y008311D01*
X013090Y008302D01*
X013068Y008296D01*
X013046Y008294D01*
X013024Y008296D01*
X013002Y008302D01*
X012982Y008311D01*
X012964Y008324D01*
X012948Y008340D01*
X012935Y008358D01*
X012926Y008378D01*
X012920Y008400D01*
X012918Y008422D01*
X007318Y008322D02*
X007320Y008344D01*
X007326Y008366D01*
X007335Y008386D01*
X007348Y008404D01*
X007364Y008420D01*
X007382Y008433D01*
X007402Y008442D01*
X007424Y008448D01*
X007446Y008450D01*
X007468Y008448D01*
X007490Y008442D01*
X007510Y008433D01*
X007528Y008420D01*
X007544Y008404D01*
X007557Y008386D01*
X007566Y008366D01*
X007572Y008344D01*
X007574Y008322D01*
X007572Y008300D01*
X007566Y008278D01*
X007557Y008258D01*
X007544Y008240D01*
X007528Y008224D01*
X007510Y008211D01*
X007490Y008202D01*
X007468Y008196D01*
X007446Y008194D01*
X007424Y008196D01*
X007402Y008202D01*
X007382Y008211D01*
X007364Y008224D01*
X007348Y008240D01*
X007335Y008258D01*
X007326Y008278D01*
X007320Y008300D01*
X007318Y008322D01*
X007318Y006822D02*
X007320Y006844D01*
X007326Y006866D01*
X007335Y006886D01*
X007348Y006904D01*
X007364Y006920D01*
X007382Y006933D01*
X007402Y006942D01*
X007424Y006948D01*
X007446Y006950D01*
X007468Y006948D01*
X007490Y006942D01*
X007510Y006933D01*
X007528Y006920D01*
X007544Y006904D01*
X007557Y006886D01*
X007566Y006866D01*
X007572Y006844D01*
X007574Y006822D01*
X007572Y006800D01*
X007566Y006778D01*
X007557Y006758D01*
X007544Y006740D01*
X007528Y006724D01*
X007510Y006711D01*
X007490Y006702D01*
X007468Y006696D01*
X007446Y006694D01*
X007424Y006696D01*
X007402Y006702D01*
X007382Y006711D01*
X007364Y006724D01*
X007348Y006740D01*
X007335Y006758D01*
X007326Y006778D01*
X007320Y006800D01*
X007318Y006822D01*
D14*
X007710Y006208D02*
X006844Y006208D01*
X007710Y006208D02*
X007710Y004968D01*
X006844Y004968D01*
X006096Y004968D02*
X005427Y004968D01*
X005270Y005086D01*
X005270Y006051D01*
X005427Y006189D01*
X006096Y006189D01*
X008170Y006051D02*
X008170Y005086D01*
X008327Y004968D01*
X008996Y004968D01*
X009744Y004968D02*
X010610Y004968D01*
X010610Y006208D01*
X009744Y006208D01*
X008996Y006189D02*
X008327Y006189D01*
X008170Y006051D01*
X008244Y009368D02*
X009110Y009368D01*
X009110Y010608D01*
X008244Y010608D01*
X007496Y010589D02*
X006827Y010589D01*
X006670Y010451D01*
X006670Y009486D01*
X006827Y009368D01*
X007496Y009368D01*
X009670Y009486D02*
X009827Y009368D01*
X010496Y009368D01*
X011244Y009368D02*
X012110Y009368D01*
X012110Y010608D01*
X011244Y010608D01*
X010496Y010589D02*
X009827Y010589D01*
X009670Y010451D01*
X009670Y009486D01*
X014424Y007048D02*
X014424Y003669D01*
X014423Y003669D02*
X014428Y003649D01*
X014436Y003630D01*
X014447Y003612D01*
X014460Y003596D01*
X014476Y003583D01*
X014493Y003572D01*
X014512Y003564D01*
X014532Y003559D01*
X014553Y003557D01*
X014574Y003558D01*
X015806Y003558D01*
X015829Y003560D01*
X015852Y003565D01*
X015874Y003574D01*
X015894Y003587D01*
X015912Y003602D01*
X015927Y003620D01*
X015940Y003640D01*
X015949Y003662D01*
X015954Y003685D01*
X015956Y003708D01*
X015956Y007048D01*
X015957Y007049D02*
X015952Y007073D01*
X015944Y007096D01*
X015933Y007117D01*
X015919Y007137D01*
X015902Y007155D01*
X015883Y007170D01*
X015862Y007183D01*
X015840Y007192D01*
X015816Y007198D01*
X015792Y007200D01*
X015767Y007199D01*
X015762Y007198D02*
X015430Y007198D01*
X015430Y007178D02*
X015428Y007148D01*
X015423Y007118D01*
X015414Y007089D01*
X015401Y007062D01*
X015386Y007036D01*
X015367Y007012D01*
X015346Y006991D01*
X015322Y006972D01*
X015296Y006957D01*
X015269Y006944D01*
X015240Y006935D01*
X015210Y006930D01*
X015180Y006928D01*
X015150Y006930D01*
X015120Y006935D01*
X015091Y006944D01*
X015064Y006957D01*
X015038Y006972D01*
X015014Y006991D01*
X014993Y007012D01*
X014974Y007036D01*
X014959Y007062D01*
X014946Y007089D01*
X014937Y007118D01*
X014932Y007148D01*
X014930Y007178D01*
X014930Y007198D02*
X014534Y007198D01*
X014534Y007199D02*
X014514Y007194D01*
X014495Y007186D01*
X014477Y007175D01*
X014461Y007162D01*
X014448Y007146D01*
X014437Y007129D01*
X014429Y007110D01*
X014424Y007090D01*
X014422Y007069D01*
X014423Y007048D01*
D15*
X012690Y007566D02*
X012690Y007590D01*
X012402Y005878D02*
X012378Y005878D01*
X009002Y006978D02*
X008978Y006978D01*
X008978Y008578D02*
X009002Y008578D01*
X005602Y008678D02*
X005578Y008678D01*
X005602Y006978D02*
X005578Y006978D01*
X013190Y009666D02*
X013190Y009690D01*
X015190Y010266D02*
X015190Y010290D01*
X016678Y008778D02*
X016702Y008778D01*
X017690Y008390D02*
X017690Y008366D01*
D16*
X010650Y009462D02*
X010650Y010485D01*
X007650Y010485D02*
X007650Y009462D01*
X006250Y006085D02*
X006250Y005062D01*
X009150Y005062D02*
X009150Y006085D01*
D17*
X009590Y006978D03*
X011690Y007178D03*
X011690Y005878D03*
X010490Y008578D03*
X009590Y008578D03*
X014190Y009978D03*
D18*
X015190Y009678D03*
X013190Y010278D03*
X010490Y007178D03*
X012690Y006978D03*
D19*
X009743Y004278D02*
X009543Y004478D01*
X009143Y004478D01*
X008943Y004278D01*
X008743Y004278D01*
X008543Y004478D01*
X008143Y004478D01*
X007943Y004278D01*
X007743Y004278D01*
X007543Y004478D01*
X007143Y004478D01*
X006943Y004278D01*
X006743Y004278D01*
X006743Y004478D01*
X005943Y004478D01*
X005943Y003678D01*
X006743Y003678D01*
X006743Y003878D01*
X006943Y003878D01*
X007143Y003678D01*
X007543Y003678D01*
X007743Y003878D01*
X007943Y003878D01*
X008143Y003678D01*
X008543Y003678D01*
X008743Y003878D01*
X008943Y003878D01*
X009143Y003678D01*
X009543Y003678D01*
X009743Y003878D01*
X009743Y004278D01*
X017270Y004478D02*
X017270Y003678D01*
X018070Y003678D01*
X018070Y003878D01*
X018270Y003878D01*
X018470Y003678D01*
X018870Y003678D01*
X019070Y003878D01*
X019270Y003878D01*
X019470Y003678D01*
X019870Y003678D01*
X020070Y003878D01*
X020070Y004278D01*
X019870Y004478D01*
X019470Y004478D01*
X019270Y004278D01*
X019070Y004278D01*
X018870Y004478D01*
X018470Y004478D01*
X018270Y004278D01*
X018070Y004278D01*
X018070Y004478D01*
X017270Y004478D01*
M02*
