G75*
G70*
%OFA0B0*%
%FSLAX24Y24*%
%IPPOS*%
%LPD*%
%AMOC8*
5,1,8,0,0,1.08239X$1,22.5*
%
%ADD10R,0.0020X0.0020*%
%ADD11R,0.0059X0.0020*%
%ADD12R,0.0039X0.0020*%
%ADD13R,0.0079X0.0020*%
%ADD14R,0.0098X0.0020*%
%ADD15R,0.0335X0.0020*%
%ADD16R,0.0571X0.0020*%
%ADD17R,0.0787X0.0020*%
%ADD18R,0.0610X0.0020*%
%ADD19R,0.0512X0.0020*%
%ADD20R,0.0531X0.0020*%
%ADD21R,0.0354X0.0020*%
%ADD22R,0.0906X0.0020*%
%ADD23R,0.0748X0.0020*%
%ADD24R,0.0197X0.0020*%
%ADD25R,0.0374X0.0020*%
%ADD26R,0.0807X0.0020*%
%ADD27R,0.0315X0.0020*%
%ADD28R,0.0709X0.0020*%
%ADD29R,0.0157X0.0020*%
%ADD30R,0.0866X0.0020*%
%ADD31R,0.0394X0.0020*%
%ADD32R,0.0472X0.0020*%
%ADD33R,0.0886X0.0020*%
%ADD34R,0.0413X0.0020*%
%ADD35R,0.0256X0.0020*%
%ADD36R,0.0276X0.0020*%
%ADD37R,0.0295X0.0020*%
%ADD38R,0.0453X0.0020*%
%ADD39R,0.0118X0.0020*%
%ADD40R,0.0177X0.0020*%
%ADD41R,0.0138X0.0020*%
%ADD42R,0.0433X0.0020*%
%ADD43R,0.1535X0.0020*%
%ADD44R,0.1201X0.0020*%
%ADD45R,0.0492X0.0020*%
%ADD46R,0.0236X0.0020*%
%ADD47R,0.0217X0.0020*%
%ADD48R,0.0630X0.0020*%
%ADD49R,0.0591X0.0020*%
%ADD50R,0.0650X0.0020*%
%ADD51R,0.0728X0.0020*%
%ADD52R,0.0689X0.0020*%
%ADD53R,0.1240X0.0020*%
%ADD54R,0.0846X0.0020*%
%ADD55R,0.1280X0.0020*%
%ADD56R,0.0827X0.0020*%
%ADD57R,0.0669X0.0020*%
%ADD58R,0.0768X0.0020*%
%ADD59R,0.1299X0.0020*%
%ADD60R,0.1339X0.0020*%
%ADD61C,0.0030*%
%ADD62C,0.0040*%
%ADD63C,0.0010*%
%ADD64C,0.0060*%
%ADD65C,0.0100*%
%ADD66C,0.0080*%
%ADD67C,0.0220*%
%ADD68C,0.0157*%
%ADD69R,0.0180X0.0300*%
%ADD70C,0.0050*%
%ADD71R,0.0300X0.0180*%
D10*
X013455Y007937D03*
X013455Y007996D03*
X013809Y008154D03*
X013829Y008233D03*
X013947Y008154D03*
X013947Y008115D03*
X014045Y008174D03*
X013986Y008351D03*
X014124Y008351D03*
X014340Y008430D03*
X014380Y008292D03*
X014380Y008252D03*
X014380Y008233D03*
X014380Y008213D03*
X014380Y008193D03*
X014380Y008174D03*
X014380Y008154D03*
X014281Y007859D03*
X014242Y007859D03*
X017982Y008390D03*
X018061Y008154D03*
X018336Y007859D03*
X018750Y007859D03*
X018750Y007878D03*
X018632Y008154D03*
X018592Y007268D03*
X018218Y007229D03*
X018100Y007268D03*
X017982Y007327D03*
D11*
X017982Y007347D03*
X018336Y007229D03*
X018474Y007248D03*
X018592Y007288D03*
X018789Y007426D03*
X018868Y007524D03*
X018218Y008489D03*
X016565Y007445D03*
X016565Y007426D03*
X016053Y007485D03*
X016053Y007504D03*
X016053Y007524D03*
X016053Y007544D03*
X016053Y007563D03*
X016053Y007583D03*
X016053Y007603D03*
X016053Y007622D03*
X016053Y007642D03*
X016053Y007662D03*
X016053Y007681D03*
X016053Y007701D03*
X016053Y007721D03*
X016053Y007741D03*
X016053Y007760D03*
X016053Y007780D03*
X016053Y007800D03*
X016053Y007819D03*
X016053Y007839D03*
X016053Y007977D03*
X016053Y007996D03*
X016053Y008016D03*
X016053Y008036D03*
X016053Y008056D03*
X016053Y008075D03*
X016053Y008095D03*
X016053Y008115D03*
X016053Y008134D03*
X016053Y008154D03*
X016053Y008174D03*
X016053Y008193D03*
X016053Y008213D03*
X016053Y008233D03*
X016053Y008252D03*
X014340Y008370D03*
X014340Y008410D03*
X014301Y008134D03*
X014340Y008036D03*
X014262Y007878D03*
X014203Y007701D03*
X014203Y007681D03*
X014203Y007662D03*
X014045Y008154D03*
X013770Y008233D03*
X013632Y008252D03*
X013455Y007839D03*
X012962Y007307D03*
X012943Y007268D03*
D12*
X013445Y007819D03*
X013445Y007859D03*
X013445Y007878D03*
X013445Y007898D03*
X013445Y007918D03*
X013523Y008233D03*
X013543Y008252D03*
X013878Y008193D03*
X013898Y008233D03*
X014055Y008115D03*
X014252Y007898D03*
X014370Y008134D03*
X015709Y008311D03*
X015827Y008252D03*
X015827Y008233D03*
X015827Y008213D03*
X015827Y008193D03*
X015827Y008174D03*
X015827Y008154D03*
X015827Y008134D03*
X015827Y008115D03*
X015827Y008095D03*
X015827Y008075D03*
X015827Y008056D03*
X015827Y008036D03*
X015827Y008016D03*
X015827Y007996D03*
X015827Y007977D03*
X015827Y007957D03*
X015827Y007937D03*
X015827Y007918D03*
X015827Y007898D03*
X015827Y007878D03*
X015827Y007859D03*
X015827Y007839D03*
X015827Y007819D03*
X015827Y007800D03*
X015827Y007780D03*
X015827Y007760D03*
X015827Y007741D03*
X015827Y007721D03*
X015827Y007701D03*
X015827Y007681D03*
X015827Y007662D03*
X015827Y007642D03*
X015827Y007622D03*
X015827Y007603D03*
X015827Y007583D03*
X015827Y007563D03*
X015827Y007544D03*
X015827Y007524D03*
X015827Y007504D03*
X015827Y007485D03*
X015827Y007465D03*
X016338Y007780D03*
X016338Y007800D03*
X016338Y007819D03*
X016338Y007839D03*
X016398Y007839D03*
X016398Y007859D03*
X016398Y007878D03*
X016398Y007898D03*
X016398Y007918D03*
X016398Y007937D03*
X016398Y007957D03*
X016398Y007977D03*
X016398Y007996D03*
X016398Y008016D03*
X016398Y008036D03*
X016338Y008036D03*
X016338Y008016D03*
X016338Y007996D03*
X016338Y007977D03*
X016398Y007819D03*
X016398Y007800D03*
X016398Y007780D03*
X016496Y008174D03*
X016496Y008193D03*
X016496Y008213D03*
X016496Y008233D03*
X016496Y008252D03*
X016555Y008252D03*
X016555Y008233D03*
X016555Y008213D03*
X016555Y008193D03*
X016555Y008174D03*
X016555Y008272D03*
X016555Y008292D03*
X016555Y008311D03*
X017933Y007859D03*
X017815Y007524D03*
X017894Y007426D03*
X018464Y007229D03*
X018701Y008390D03*
X018583Y008449D03*
X018464Y008489D03*
X018090Y008449D03*
D13*
X018090Y008430D03*
X017992Y008370D03*
X018209Y008469D03*
X018346Y008469D03*
X018346Y008489D03*
X018464Y008469D03*
X018464Y008449D03*
X018583Y008430D03*
X018701Y008370D03*
X018701Y007347D03*
X018464Y007268D03*
X018346Y007248D03*
X018209Y007248D03*
X018090Y007288D03*
X014350Y008390D03*
X014291Y008174D03*
X014291Y008154D03*
X014055Y008134D03*
X013878Y008213D03*
X013681Y007898D03*
X013681Y007878D03*
X013543Y007878D03*
X013543Y007859D03*
X013543Y007898D03*
X013543Y007918D03*
X013543Y007937D03*
X014212Y007642D03*
X014212Y007622D03*
X014212Y007603D03*
X014212Y007583D03*
X014212Y007563D03*
X014212Y007544D03*
X012972Y007347D03*
X012972Y007327D03*
X012953Y007288D03*
D14*
X012982Y007367D03*
X013553Y007819D03*
X013553Y007839D03*
X013671Y007839D03*
X013671Y007859D03*
X013691Y007918D03*
X013553Y007996D03*
X013770Y008213D03*
X014203Y008351D03*
X014281Y008193D03*
X014340Y008075D03*
X014340Y008056D03*
X016368Y008056D03*
X016368Y008075D03*
X016525Y008134D03*
X016525Y008154D03*
X016368Y007760D03*
X016368Y007741D03*
X017805Y007859D03*
X017805Y007878D03*
X018218Y008449D03*
X018336Y008449D03*
X018888Y007878D03*
X018888Y007859D03*
X018888Y007839D03*
X018336Y007268D03*
X018218Y007268D03*
X019655Y008115D03*
X019655Y008134D03*
X019655Y008154D03*
X019655Y008174D03*
X019655Y008193D03*
X019655Y008213D03*
X019655Y008233D03*
X019655Y008252D03*
D15*
X018573Y007386D03*
X018336Y007288D03*
X018120Y007386D03*
X017510Y007504D03*
X017470Y007839D03*
X017451Y008252D03*
X018120Y008331D03*
X018336Y008430D03*
X016191Y007957D03*
X016191Y007937D03*
X016191Y007859D03*
X015285Y008252D03*
X014242Y007839D03*
X013986Y007367D03*
D16*
X016309Y007465D03*
X018336Y007347D03*
X018336Y007327D03*
X018336Y007307D03*
X018651Y008016D03*
X018336Y008390D03*
X018336Y008410D03*
D17*
X017106Y008331D03*
X018346Y007367D03*
D18*
X018041Y008016D03*
X012726Y007406D03*
X012726Y007386D03*
D19*
X012677Y007426D03*
X012677Y007445D03*
X012677Y008272D03*
X012677Y008292D03*
X012677Y008311D03*
X012677Y008331D03*
X012677Y008351D03*
X013996Y007386D03*
X017972Y007957D03*
X018012Y007721D03*
X018661Y007721D03*
X018720Y007957D03*
X019212Y007445D03*
X019212Y007426D03*
X019212Y007406D03*
X019212Y007386D03*
D20*
X014833Y007386D03*
X014833Y007406D03*
X014833Y007426D03*
X014833Y007445D03*
D21*
X015472Y007406D03*
X015472Y007386D03*
X017480Y007485D03*
X017401Y007957D03*
X018130Y008351D03*
D22*
X016142Y007406D03*
X016142Y007386D03*
D23*
X017086Y007386D03*
D24*
X017874Y007544D03*
X017874Y007563D03*
X017894Y007622D03*
X017795Y007780D03*
X017795Y007937D03*
X017894Y008095D03*
X017874Y008154D03*
X017874Y008174D03*
X018169Y008233D03*
X018090Y007918D03*
X018583Y007918D03*
X018583Y007898D03*
X018583Y007819D03*
X018583Y007800D03*
X018819Y007563D03*
X018898Y007937D03*
X018819Y008154D03*
X018819Y008174D03*
X018799Y008193D03*
X014153Y007800D03*
X013799Y007406D03*
D25*
X013809Y007445D03*
X014124Y007406D03*
X014242Y007760D03*
X014242Y007780D03*
X014242Y007819D03*
X015462Y007445D03*
X015462Y007426D03*
D26*
X014970Y008311D03*
X017116Y007406D03*
D27*
X017520Y007524D03*
X017539Y007544D03*
X017559Y007603D03*
X017520Y007800D03*
X017500Y007819D03*
X018110Y007426D03*
X018110Y007406D03*
X018563Y007406D03*
X018583Y007426D03*
X018110Y008311D03*
X016201Y007918D03*
X016201Y007878D03*
X015197Y007800D03*
X013779Y008272D03*
X013602Y008095D03*
X013602Y008075D03*
X013583Y007800D03*
D28*
X014016Y007426D03*
X013996Y008292D03*
X017185Y007937D03*
D29*
X017775Y007819D03*
X017894Y007603D03*
X018189Y007504D03*
X018209Y007524D03*
X018583Y007839D03*
X018583Y007878D03*
X018898Y007898D03*
X018898Y007819D03*
X018740Y008233D03*
X018189Y008213D03*
X017953Y008233D03*
X017894Y008115D03*
X015768Y008272D03*
X015768Y008292D03*
X015768Y007445D03*
X015768Y007426D03*
X014350Y007544D03*
X014350Y007563D03*
X014350Y007583D03*
X014350Y007603D03*
X014350Y007800D03*
X014232Y008252D03*
X013523Y008016D03*
X013523Y007977D03*
D30*
X017146Y007426D03*
D31*
X018051Y007445D03*
X018071Y007485D03*
X018622Y007485D03*
X018051Y008272D03*
X014212Y007445D03*
D32*
X016279Y007445D03*
X017992Y007977D03*
X018346Y008075D03*
X018681Y007977D03*
X018681Y007741D03*
X018346Y007642D03*
D33*
X017155Y007445D03*
X017155Y008272D03*
X016132Y008331D03*
X016132Y008351D03*
D34*
X017392Y007859D03*
X018061Y008252D03*
X018061Y008292D03*
X018336Y008174D03*
X018336Y008154D03*
X018336Y008134D03*
X018336Y008115D03*
X018632Y008252D03*
X018336Y007603D03*
X018336Y007583D03*
X018336Y007563D03*
X018336Y007544D03*
X018061Y007465D03*
X018632Y007465D03*
X018632Y007445D03*
D35*
X016959Y007465D03*
X016959Y007485D03*
X016959Y007504D03*
X016959Y007524D03*
X016959Y007544D03*
X016959Y007563D03*
X016959Y007583D03*
X016959Y007603D03*
X016959Y007622D03*
X016959Y007642D03*
X016959Y007662D03*
X016959Y007681D03*
X016959Y007701D03*
X016959Y007721D03*
X016959Y007741D03*
X016959Y007760D03*
X016959Y007780D03*
X016959Y007800D03*
X016959Y007819D03*
X016959Y007839D03*
X016959Y007859D03*
X016959Y007957D03*
X016959Y007977D03*
X016959Y007996D03*
X016959Y008016D03*
X016959Y008036D03*
X016959Y008056D03*
X016959Y008075D03*
X016959Y008095D03*
X016959Y008115D03*
X016959Y008134D03*
X016959Y008154D03*
X016959Y008174D03*
X016959Y008193D03*
X016959Y008213D03*
X016959Y008233D03*
X016959Y008252D03*
X014833Y008252D03*
X014833Y008233D03*
X014833Y008213D03*
X014833Y008193D03*
X014833Y008174D03*
X014833Y008154D03*
X014833Y008134D03*
X014833Y008115D03*
X014833Y008095D03*
X014833Y008075D03*
X014833Y008056D03*
X014833Y008036D03*
X014833Y008016D03*
X014833Y007996D03*
X014833Y007977D03*
X014833Y007957D03*
X014833Y007937D03*
X014833Y007918D03*
X014833Y007800D03*
X014833Y007780D03*
X014833Y007760D03*
X014833Y007741D03*
X014833Y007721D03*
X014833Y007701D03*
X014833Y007681D03*
X014833Y007662D03*
X014833Y007642D03*
X014833Y007622D03*
X014833Y007603D03*
X014833Y007583D03*
X014833Y007563D03*
X014833Y007544D03*
X014833Y007524D03*
X014833Y007504D03*
X014833Y007485D03*
X014833Y007465D03*
X014301Y007485D03*
X014301Y007504D03*
X014301Y007524D03*
X014301Y007721D03*
X014301Y007741D03*
X013691Y007504D03*
X013671Y007524D03*
X012667Y007524D03*
X012667Y007504D03*
X012667Y007485D03*
X012667Y007465D03*
X012667Y007544D03*
X012667Y007563D03*
X012667Y007583D03*
X012667Y007603D03*
X012667Y007622D03*
X012667Y007642D03*
X012667Y007662D03*
X012667Y007681D03*
X012667Y007701D03*
X012667Y007721D03*
X012667Y007741D03*
X012667Y007760D03*
X012667Y007780D03*
X012667Y007800D03*
X012667Y007819D03*
X012667Y007839D03*
X012667Y007859D03*
X012667Y007878D03*
X012667Y007898D03*
X012667Y007918D03*
X012667Y007937D03*
X012667Y007957D03*
X012667Y007977D03*
X012667Y007996D03*
X012667Y008016D03*
X012667Y008036D03*
X012667Y008056D03*
X012667Y008075D03*
X012667Y008095D03*
X012667Y008115D03*
X012667Y008134D03*
X012667Y008154D03*
X012667Y008174D03*
X012667Y008193D03*
X012667Y008213D03*
X012667Y008233D03*
X012667Y008252D03*
X013632Y008134D03*
D36*
X013642Y008154D03*
X013661Y008174D03*
X013661Y008193D03*
X013602Y007681D03*
X013602Y007662D03*
X013622Y007622D03*
X013622Y007603D03*
X013642Y007583D03*
X013642Y007563D03*
X013661Y007544D03*
X013720Y007485D03*
X013740Y007465D03*
X015256Y007741D03*
X015275Y007701D03*
X015295Y007662D03*
X015315Y007642D03*
X015315Y007622D03*
X015335Y007603D03*
X015335Y007583D03*
X015354Y007563D03*
X015354Y007544D03*
X015374Y007524D03*
X015374Y007504D03*
X015394Y007485D03*
X015315Y007957D03*
X015335Y007977D03*
X015354Y007996D03*
X015354Y008016D03*
X015354Y008036D03*
X015354Y008056D03*
X015354Y008075D03*
X015354Y008095D03*
X015354Y008115D03*
X015354Y008134D03*
X015354Y008154D03*
X015354Y008174D03*
X015335Y008193D03*
X017480Y007996D03*
X017500Y008016D03*
X017500Y008036D03*
X017520Y008056D03*
X017520Y008075D03*
X017520Y008095D03*
X017520Y008115D03*
X017520Y008134D03*
X017520Y008154D03*
X017520Y008174D03*
X017500Y008193D03*
X017874Y008075D03*
X017874Y007642D03*
X018819Y007642D03*
X019212Y007642D03*
X019212Y007622D03*
X019212Y007603D03*
X019212Y007583D03*
X019212Y007563D03*
X019212Y007544D03*
X019212Y007524D03*
X019212Y007504D03*
X019212Y007485D03*
X019212Y007465D03*
X019212Y007662D03*
X019212Y007681D03*
X019212Y007701D03*
X019212Y007721D03*
X019212Y007741D03*
X019212Y007760D03*
X019212Y007780D03*
X019212Y007800D03*
X019212Y007819D03*
X019212Y007839D03*
X019212Y007859D03*
X019212Y007878D03*
X019212Y007898D03*
X019212Y007918D03*
X019212Y007937D03*
X019212Y007957D03*
X019212Y007977D03*
X019212Y007996D03*
X019212Y008016D03*
X019212Y008036D03*
X019212Y008056D03*
X019212Y008075D03*
X019212Y008095D03*
X019212Y008115D03*
X019212Y008134D03*
X019212Y008154D03*
X019212Y008174D03*
X019212Y008193D03*
X019212Y008213D03*
X019212Y008233D03*
X019212Y008252D03*
X018819Y008075D03*
D37*
X017569Y007701D03*
X017549Y007721D03*
X017549Y007741D03*
X017549Y007760D03*
X017529Y007780D03*
X017569Y007642D03*
X017569Y007622D03*
X017549Y007583D03*
X017549Y007563D03*
X017451Y007977D03*
X017490Y008213D03*
X017470Y008233D03*
X015325Y008213D03*
X015305Y008233D03*
X015305Y007937D03*
X015285Y007918D03*
X015226Y007780D03*
X015246Y007760D03*
X015266Y007721D03*
X015285Y007681D03*
X015403Y007465D03*
X014281Y007465D03*
X013612Y007642D03*
X013592Y007701D03*
X013592Y007721D03*
X013592Y007741D03*
X013592Y007760D03*
X013592Y007780D03*
X013592Y007957D03*
X013592Y008036D03*
X013592Y008056D03*
X013612Y008115D03*
X014242Y008272D03*
D38*
X016270Y008292D03*
X017411Y007465D03*
X018336Y008095D03*
D39*
X017933Y008213D03*
X017795Y007839D03*
X017913Y007524D03*
X017933Y007504D03*
X018760Y007524D03*
X016535Y007524D03*
X016535Y007504D03*
X016535Y007485D03*
X016535Y007544D03*
X016535Y007563D03*
X016535Y007583D03*
X016535Y007603D03*
X014331Y008095D03*
X014331Y008115D03*
X014272Y008213D03*
X014212Y008331D03*
X013681Y008016D03*
X013681Y007996D03*
X013681Y007977D03*
X013681Y007937D03*
X013681Y007819D03*
X013563Y008213D03*
D40*
X013809Y008252D03*
X013868Y008351D03*
X013966Y008370D03*
X017785Y007918D03*
X017785Y007800D03*
X017884Y007583D03*
X018100Y007819D03*
X018100Y007839D03*
X018100Y007859D03*
X018100Y007878D03*
X018100Y007898D03*
X018218Y008193D03*
X018474Y008193D03*
X018494Y008213D03*
X018514Y008233D03*
X018789Y008115D03*
X018789Y008095D03*
X018809Y008134D03*
X018907Y007918D03*
X018907Y007800D03*
X018789Y007622D03*
X018789Y007603D03*
X018809Y007583D03*
X018809Y007544D03*
X018494Y007504D03*
X018474Y007524D03*
X018573Y007859D03*
X017884Y008134D03*
X017884Y008193D03*
D41*
X017785Y007898D03*
X018750Y008213D03*
X018750Y007504D03*
X014360Y007622D03*
X014360Y007642D03*
X014360Y007662D03*
X014360Y007681D03*
X014360Y007701D03*
X014262Y008233D03*
D42*
X018346Y007622D03*
D43*
X018189Y007662D03*
X018189Y007681D03*
D44*
X018336Y007701D03*
D45*
X018002Y007741D03*
X017982Y007760D03*
X018022Y007996D03*
X018671Y007996D03*
X018710Y007760D03*
X016270Y008272D03*
D46*
X018090Y007937D03*
X018090Y007780D03*
X018602Y007780D03*
D47*
X018592Y007937D03*
X018888Y007780D03*
X018100Y007800D03*
X013829Y008331D03*
D48*
X015020Y007819D03*
D49*
X015000Y007839D03*
X015000Y007859D03*
X018346Y008370D03*
D50*
X017155Y007918D03*
X015029Y007878D03*
D51*
X017195Y007878D03*
D52*
X017175Y007898D03*
X017057Y008351D03*
X015049Y007898D03*
D53*
X018336Y008036D03*
X018336Y008056D03*
D54*
X017136Y008292D03*
X015010Y008272D03*
D55*
X019065Y008272D03*
X019065Y008292D03*
X019065Y008311D03*
D56*
X017126Y008311D03*
X014980Y008292D03*
D57*
X014921Y008351D03*
X014016Y008311D03*
D58*
X014951Y008331D03*
D59*
X019055Y008331D03*
D60*
X019035Y008351D03*
D61*
X018983Y008654D02*
X018983Y008944D01*
X018886Y008944D02*
X019080Y008944D01*
X019181Y008944D02*
X019374Y008944D01*
X019278Y008944D02*
X019278Y008654D01*
X019475Y008654D02*
X019572Y008654D01*
X019524Y008654D02*
X019524Y008944D01*
X019572Y008944D02*
X019475Y008944D01*
X019672Y008944D02*
X019672Y008654D01*
X019817Y008654D01*
X019865Y008703D01*
X019865Y008751D01*
X019817Y008799D01*
X019672Y008799D01*
X019817Y008799D02*
X019865Y008848D01*
X019865Y008896D01*
X019817Y008944D01*
X019672Y008944D01*
X019083Y009526D02*
X018938Y009526D01*
X018938Y009816D01*
X019083Y009816D01*
X019132Y009768D01*
X019132Y009720D01*
X019083Y009671D01*
X018938Y009671D01*
X019083Y009671D02*
X019132Y009623D01*
X019132Y009574D01*
X019083Y009526D01*
X018839Y009526D02*
X018742Y009526D01*
X018790Y009526D02*
X018790Y009816D01*
X018742Y009816D02*
X018839Y009816D01*
X018641Y009816D02*
X018447Y009816D01*
X018447Y009526D01*
X018346Y009574D02*
X018298Y009526D01*
X018201Y009526D01*
X018153Y009574D01*
X018153Y009768D01*
X018201Y009816D01*
X018298Y009816D01*
X018346Y009768D01*
X018447Y009671D02*
X018544Y009671D01*
X018688Y008944D02*
X018785Y008944D01*
X018737Y008944D02*
X018737Y008703D01*
X018688Y008654D01*
X018640Y008654D01*
X018591Y008703D01*
X020384Y008123D02*
X020384Y007832D01*
X020384Y007929D02*
X020529Y007929D01*
X020577Y007978D01*
X020577Y008074D01*
X020529Y008123D01*
X020384Y008123D01*
X020480Y007929D02*
X020577Y007832D01*
X020678Y007832D02*
X020872Y007832D01*
X020973Y007832D02*
X021118Y007832D01*
X021166Y007881D01*
X021166Y007929D01*
X021118Y007978D01*
X020973Y007978D01*
X020973Y008123D02*
X020973Y007832D01*
X021118Y007978D02*
X021166Y008026D01*
X021166Y008074D01*
X021118Y008123D01*
X020973Y008123D01*
X020678Y008123D02*
X020678Y007832D01*
X020720Y007395D02*
X020720Y007210D01*
X020782Y007148D01*
X020967Y007148D01*
X020967Y007395D01*
X021089Y007519D02*
X021150Y007519D01*
X021150Y007148D01*
X021089Y007148D02*
X021212Y007148D01*
X021254Y006909D02*
X021131Y006909D01*
X021069Y006847D01*
X020948Y006909D02*
X020701Y006538D01*
X020579Y006600D02*
X020518Y006538D01*
X020394Y006538D01*
X020332Y006600D01*
X020332Y006662D01*
X020394Y006723D01*
X020518Y006723D01*
X020579Y006662D01*
X020579Y006600D01*
X020518Y006723D02*
X020579Y006785D01*
X020579Y006847D01*
X020518Y006909D01*
X020394Y006909D01*
X020332Y006847D01*
X020332Y006785D01*
X020394Y006723D01*
X020211Y006600D02*
X020149Y006538D01*
X020026Y006538D01*
X019964Y006600D01*
X020211Y006847D01*
X020211Y006600D01*
X020211Y006847D02*
X020149Y006909D01*
X020026Y006909D01*
X019964Y006847D01*
X019964Y006600D01*
X019984Y007148D02*
X019984Y007519D01*
X020169Y007519D01*
X020231Y007457D01*
X020231Y007334D01*
X020169Y007272D01*
X019984Y007272D01*
X020352Y007210D02*
X020414Y007272D01*
X020599Y007272D01*
X020599Y007334D02*
X020599Y007148D01*
X020414Y007148D01*
X020352Y007210D01*
X020414Y007395D02*
X020537Y007395D01*
X020599Y007334D01*
X021254Y006909D02*
X021316Y006847D01*
X021316Y006785D01*
X021069Y006538D01*
X021316Y006538D01*
X021437Y006600D02*
X021499Y006538D01*
X021622Y006538D01*
X021684Y006600D01*
X021684Y006847D01*
X021437Y006600D01*
X021437Y006847D01*
X021499Y006909D01*
X021622Y006909D01*
X021684Y006847D01*
X021806Y006785D02*
X021929Y006909D01*
X021929Y006538D01*
X021806Y006538D02*
X022053Y006538D01*
X022174Y006538D02*
X022421Y006785D01*
X022421Y006847D01*
X022359Y006909D01*
X022236Y006909D01*
X022174Y006847D01*
X022133Y007148D02*
X022071Y007148D01*
X022071Y007210D01*
X022133Y007210D01*
X022133Y007148D01*
X021949Y007148D02*
X021949Y007519D01*
X021826Y007395D01*
X021703Y007519D01*
X021703Y007148D01*
X022174Y006538D02*
X022421Y006538D01*
X021083Y009426D02*
X020938Y009426D01*
X020938Y009716D01*
X021083Y009716D01*
X021132Y009668D01*
X021132Y009620D01*
X021083Y009571D01*
X020938Y009571D01*
X021083Y009571D02*
X021132Y009523D01*
X021132Y009474D01*
X021083Y009426D01*
X020740Y009571D02*
X020644Y009571D01*
X020543Y009571D02*
X020494Y009523D01*
X020349Y009523D01*
X020446Y009523D02*
X020543Y009426D01*
X020644Y009426D02*
X020644Y009716D01*
X020837Y009716D01*
X020543Y009668D02*
X020543Y009571D01*
X020543Y009668D02*
X020494Y009716D01*
X020349Y009716D01*
X020349Y009426D01*
X020346Y010326D02*
X020249Y010423D01*
X020298Y010423D02*
X020153Y010423D01*
X020153Y010326D02*
X020153Y010616D01*
X020298Y010616D01*
X020346Y010568D01*
X020346Y010471D01*
X020298Y010423D01*
X020447Y010471D02*
X020544Y010471D01*
X020447Y010326D02*
X020447Y010616D01*
X020641Y010616D01*
X020742Y010616D02*
X020839Y010616D01*
X020790Y010616D02*
X020790Y010326D01*
X020742Y010326D02*
X020839Y010326D01*
X020938Y010326D02*
X021083Y010326D01*
X021132Y010374D01*
X021132Y010423D01*
X021083Y010471D01*
X020938Y010471D01*
X020938Y010326D02*
X020938Y010616D01*
X021083Y010616D01*
X021132Y010568D01*
X021132Y010520D01*
X021083Y010471D01*
X022083Y010500D02*
X022083Y010307D01*
X022373Y010307D01*
X022325Y010206D02*
X022373Y010157D01*
X022373Y010061D01*
X022325Y010012D01*
X022131Y010012D01*
X022083Y010061D01*
X022083Y010157D01*
X022131Y010206D01*
X022228Y010307D02*
X022228Y010404D01*
X022228Y010601D02*
X022228Y010747D01*
X022276Y010795D01*
X022325Y010795D01*
X022373Y010747D01*
X022373Y010601D01*
X022083Y010601D01*
X022083Y010747D01*
X022131Y010795D01*
X022179Y010795D01*
X022228Y010747D01*
X022845Y010806D02*
X022845Y010903D01*
X022893Y010951D01*
X022990Y010903D02*
X023038Y010951D01*
X023087Y010951D01*
X023135Y010903D01*
X023135Y010806D01*
X023087Y010758D01*
X022990Y010806D02*
X022990Y010903D01*
X022990Y010806D02*
X022942Y010758D01*
X022893Y010758D01*
X022845Y010806D01*
X022893Y010657D02*
X022845Y010608D01*
X022845Y010463D01*
X023135Y010463D01*
X023038Y010463D02*
X023038Y010608D01*
X022990Y010657D01*
X022893Y010657D01*
X023038Y010560D02*
X023135Y010657D01*
X023135Y011053D02*
X022845Y011053D01*
X022845Y011198D01*
X022893Y011246D01*
X022942Y011246D01*
X022990Y011198D01*
X022990Y011053D01*
X022990Y011198D02*
X023038Y011246D01*
X023087Y011246D01*
X023135Y011198D01*
X023135Y011053D01*
X020571Y012594D02*
X020523Y012546D01*
X020426Y012546D01*
X020378Y012594D01*
X020276Y012594D02*
X020276Y012836D01*
X020378Y012788D02*
X020426Y012836D01*
X020523Y012836D01*
X020571Y012788D01*
X020571Y012740D01*
X020523Y012691D01*
X020571Y012643D01*
X020571Y012594D01*
X020523Y012691D02*
X020474Y012691D01*
X020276Y012594D02*
X020228Y012546D01*
X020131Y012546D01*
X020083Y012594D01*
X020083Y012836D01*
X020633Y013346D02*
X020633Y013636D01*
X020778Y013636D01*
X020826Y013588D01*
X020826Y013491D01*
X020778Y013443D01*
X020633Y013443D01*
X020730Y013443D02*
X020826Y013346D01*
X020928Y013346D02*
X020928Y013636D01*
X021121Y013636D01*
X021222Y013540D02*
X021319Y013636D01*
X021416Y013540D01*
X021416Y013346D01*
X021416Y013491D02*
X021222Y013491D01*
X021222Y013540D02*
X021222Y013346D01*
X021024Y013491D02*
X020928Y013491D01*
X020928Y014046D02*
X020928Y014336D01*
X021121Y014336D01*
X021222Y014336D02*
X021319Y014336D01*
X021271Y014336D02*
X021271Y014046D01*
X021319Y014046D02*
X021222Y014046D01*
X021419Y014046D02*
X021419Y014240D01*
X021515Y014336D01*
X021612Y014240D01*
X021612Y014046D01*
X021612Y014191D02*
X021419Y014191D01*
X021024Y014191D02*
X020928Y014191D01*
X020826Y014191D02*
X020778Y014143D01*
X020633Y014143D01*
X020730Y014143D02*
X020826Y014046D01*
X020826Y014191D02*
X020826Y014288D01*
X020778Y014336D01*
X020633Y014336D01*
X020633Y014046D01*
X019253Y013379D02*
X019059Y013379D01*
X018963Y013282D01*
X019059Y013185D01*
X019253Y013185D01*
X019108Y013185D02*
X019108Y013379D01*
X018963Y013084D02*
X018963Y012891D01*
X019253Y012891D01*
X019205Y012790D02*
X019253Y012741D01*
X019253Y012644D01*
X019205Y012596D01*
X019011Y012596D01*
X018963Y012644D01*
X018963Y012741D01*
X019011Y012790D01*
X019108Y012891D02*
X019108Y012988D01*
X017320Y013042D02*
X017126Y013042D01*
X017126Y013091D02*
X017223Y013188D01*
X017320Y013091D01*
X017320Y012897D01*
X017126Y012897D02*
X017126Y013091D01*
X017025Y013139D02*
X017025Y013042D01*
X016977Y012994D01*
X016832Y012994D01*
X016832Y012897D02*
X016832Y013188D01*
X016977Y013188D01*
X017025Y013139D01*
X015903Y013571D02*
X015903Y013765D01*
X015855Y013813D01*
X015710Y013813D01*
X015710Y013523D01*
X015855Y013523D01*
X015903Y013571D01*
X015609Y013523D02*
X015609Y013813D01*
X015415Y013813D02*
X015415Y013523D01*
X015314Y013571D02*
X015314Y013668D01*
X015217Y013668D01*
X015120Y013765D02*
X015120Y013571D01*
X015169Y013523D01*
X015266Y013523D01*
X015314Y013571D01*
X015314Y013765D02*
X015266Y013813D01*
X015169Y013813D01*
X015120Y013765D01*
X015019Y013716D02*
X015019Y013523D01*
X015019Y013668D02*
X014826Y013668D01*
X014826Y013716D02*
X014922Y013813D01*
X015019Y013716D01*
X014826Y013716D02*
X014826Y013523D01*
X014628Y013523D02*
X014628Y013813D01*
X014531Y013813D02*
X014725Y013813D01*
X014430Y013813D02*
X014333Y013813D01*
X014382Y013813D02*
X014382Y013571D01*
X014333Y013523D01*
X014285Y013523D01*
X014236Y013571D01*
X014050Y013841D02*
X013856Y013841D01*
X013755Y013793D02*
X013755Y013986D01*
X013755Y013793D02*
X013658Y013696D01*
X013562Y013793D01*
X013562Y013986D01*
X013460Y013938D02*
X013460Y013744D01*
X013412Y013696D01*
X013267Y013696D01*
X013267Y013986D01*
X013412Y013986D01*
X013460Y013938D01*
X013166Y013986D02*
X012972Y013986D01*
X012972Y013696D01*
X013166Y013696D01*
X013069Y013841D02*
X012972Y013841D01*
X012871Y013696D02*
X012678Y013696D01*
X012678Y013986D01*
X012576Y013938D02*
X012576Y013841D01*
X012528Y013793D01*
X012383Y013793D01*
X012480Y013793D02*
X012576Y013696D01*
X012383Y013696D02*
X012383Y013986D01*
X012528Y013986D01*
X012576Y013938D01*
X012578Y014571D02*
X012771Y014571D01*
X012872Y014571D02*
X013017Y014571D01*
X013066Y014619D01*
X013066Y014813D01*
X013017Y014861D01*
X012872Y014861D01*
X012872Y014571D01*
X012674Y014716D02*
X012578Y014716D01*
X012578Y014861D02*
X012578Y014571D01*
X012476Y014571D02*
X012283Y014571D01*
X012283Y014861D01*
X012578Y014861D02*
X012771Y014861D01*
X013167Y014861D02*
X013167Y014668D01*
X013264Y014571D01*
X013360Y014668D01*
X013360Y014861D01*
X013462Y014716D02*
X013655Y014716D01*
X013558Y014813D02*
X013558Y014619D01*
X013953Y013938D02*
X013953Y013744D01*
X015415Y013813D02*
X015609Y013523D01*
X013972Y012295D02*
X013972Y012101D01*
X013826Y012000D02*
X013826Y011807D01*
X013826Y011904D02*
X014117Y011904D01*
X014068Y011706D02*
X013826Y011706D01*
X013826Y011512D02*
X014068Y011512D01*
X014117Y011561D01*
X014117Y011657D01*
X014068Y011706D01*
X014068Y011411D02*
X013875Y011411D01*
X013826Y011363D01*
X013826Y011266D01*
X013875Y011217D01*
X014068Y011217D01*
X014117Y011266D01*
X014117Y011363D01*
X014068Y011411D01*
X014117Y011116D02*
X014020Y011020D01*
X014020Y011068D02*
X014020Y010923D01*
X014117Y010923D02*
X013826Y010923D01*
X013826Y011068D01*
X013875Y011116D01*
X013972Y011116D01*
X014020Y011068D01*
X014068Y010822D02*
X014117Y010773D01*
X014117Y010677D01*
X014068Y010628D01*
X013875Y010628D01*
X013826Y010677D01*
X013826Y010773D01*
X013875Y010822D01*
X014533Y010442D02*
X014630Y010442D01*
X014582Y010442D02*
X014582Y010200D01*
X014533Y010152D01*
X014485Y010152D01*
X014436Y010200D01*
X014731Y010152D02*
X014731Y010442D01*
X014876Y010442D01*
X014925Y010394D01*
X014925Y010297D01*
X014876Y010249D01*
X014731Y010249D01*
X015026Y010297D02*
X015219Y010297D01*
X015320Y010297D02*
X015417Y010345D01*
X015466Y010345D01*
X015514Y010297D01*
X015514Y010200D01*
X015466Y010152D01*
X015369Y010152D01*
X015320Y010200D01*
X015320Y010297D02*
X015320Y010442D01*
X015514Y010442D01*
X015615Y010442D02*
X015615Y010249D01*
X015712Y010152D01*
X015809Y010249D01*
X015809Y010442D01*
X016632Y010497D02*
X016632Y010788D01*
X016777Y010788D01*
X016825Y010739D01*
X016825Y010642D01*
X016777Y010594D01*
X016632Y010594D01*
X016926Y010642D02*
X017072Y010642D01*
X017120Y010594D01*
X017120Y010546D01*
X017072Y010497D01*
X016926Y010497D01*
X016926Y010788D01*
X017072Y010788D01*
X017120Y010739D01*
X017120Y010691D01*
X017072Y010642D01*
X017071Y011389D02*
X017071Y011583D01*
X017168Y011680D01*
X017265Y011583D01*
X017265Y011389D01*
X017265Y011535D02*
X017071Y011535D01*
X016970Y011486D02*
X016970Y011438D01*
X016922Y011389D01*
X016825Y011389D01*
X016776Y011438D01*
X016825Y011535D02*
X016922Y011535D01*
X016970Y011486D01*
X016970Y011631D02*
X016922Y011680D01*
X016825Y011680D01*
X016776Y011631D01*
X016776Y011583D01*
X016825Y011535D01*
X016675Y011535D02*
X016627Y011486D01*
X016482Y011486D01*
X016579Y011486D02*
X016675Y011389D01*
X016675Y011535D02*
X016675Y011631D01*
X016627Y011680D01*
X016482Y011680D01*
X016482Y011389D01*
X013655Y009816D02*
X013462Y009816D01*
X013360Y009768D02*
X013360Y009961D01*
X013167Y009961D02*
X013167Y009768D01*
X013264Y009671D01*
X013360Y009768D01*
X013066Y009719D02*
X013066Y009913D01*
X013017Y009961D01*
X012872Y009961D01*
X012872Y009671D01*
X013017Y009671D01*
X013066Y009719D01*
X012771Y009671D02*
X012578Y009671D01*
X012578Y009961D01*
X012771Y009961D01*
X012674Y009816D02*
X012578Y009816D01*
X012476Y009671D02*
X012283Y009671D01*
X012283Y009961D01*
X011310Y009591D02*
X011117Y009591D01*
X011016Y009446D02*
X010822Y009446D01*
X010919Y009446D02*
X010919Y009736D01*
X010822Y009640D01*
X010721Y009688D02*
X010721Y009591D01*
X010673Y009543D01*
X010528Y009543D01*
X010624Y009543D02*
X010721Y009446D01*
X010528Y009446D02*
X010528Y009736D01*
X010673Y009736D01*
X010721Y009688D01*
X010426Y009688D02*
X010426Y009591D01*
X010378Y009543D01*
X010233Y009543D01*
X010330Y009543D02*
X010426Y009446D01*
X010233Y009446D02*
X010233Y009736D01*
X010378Y009736D01*
X010426Y009688D01*
X010473Y008886D02*
X010521Y008838D01*
X010521Y008741D01*
X010473Y008693D01*
X010328Y008693D01*
X010424Y008693D02*
X010521Y008596D01*
X010622Y008596D02*
X010767Y008596D01*
X010816Y008644D01*
X010816Y008693D01*
X010767Y008741D01*
X010622Y008741D01*
X010622Y008596D02*
X010622Y008886D01*
X010767Y008886D01*
X010816Y008838D01*
X010816Y008790D01*
X010767Y008741D01*
X010917Y008838D02*
X011014Y008741D01*
X011014Y008596D01*
X011014Y008741D02*
X011110Y008838D01*
X011110Y008886D01*
X011212Y008886D02*
X011357Y008886D01*
X011405Y008838D01*
X011405Y008741D01*
X011357Y008693D01*
X011212Y008693D01*
X011212Y008596D02*
X011212Y008886D01*
X010917Y008886D02*
X010917Y008838D01*
X010473Y008886D02*
X010328Y008886D01*
X010328Y008596D01*
X010226Y008644D02*
X010178Y008596D01*
X010081Y008596D01*
X010033Y008644D01*
X010033Y008838D01*
X010081Y008886D01*
X010178Y008886D01*
X010226Y008838D01*
X010333Y008036D02*
X010478Y008036D01*
X010526Y007988D01*
X010526Y007891D01*
X010478Y007843D01*
X010333Y007843D01*
X010430Y007843D02*
X010526Y007746D01*
X010628Y007746D02*
X010628Y008036D01*
X010773Y008036D01*
X010821Y007988D01*
X010821Y007891D01*
X010773Y007843D01*
X010628Y007843D01*
X010724Y007843D02*
X010821Y007746D01*
X010922Y007746D02*
X011116Y007940D01*
X011116Y007988D01*
X011067Y008036D01*
X010971Y008036D01*
X010922Y007988D01*
X010922Y007746D02*
X011116Y007746D01*
X011217Y007891D02*
X011410Y007891D01*
X010333Y007746D02*
X010333Y008036D01*
X009105Y007821D02*
X009105Y007530D01*
X008911Y007821D01*
X008911Y007530D01*
X008811Y007530D02*
X008715Y007530D01*
X008763Y007530D02*
X008763Y007821D01*
X008715Y007821D02*
X008811Y007821D01*
X008613Y007821D02*
X008517Y007821D01*
X008565Y007821D02*
X008565Y007579D01*
X008517Y007530D01*
X008468Y007530D01*
X008420Y007579D01*
X007711Y008996D02*
X007759Y009044D01*
X007759Y009141D01*
X007711Y009190D01*
X007759Y009291D02*
X007469Y009291D01*
X007469Y009436D01*
X007517Y009484D01*
X007614Y009484D01*
X007663Y009436D01*
X007663Y009291D01*
X007663Y009388D02*
X007759Y009484D01*
X007759Y009585D02*
X007759Y009682D01*
X007759Y009634D02*
X007469Y009634D01*
X007469Y009682D02*
X007469Y009585D01*
X007469Y009782D02*
X007759Y009975D01*
X007469Y009975D01*
X007614Y010076D02*
X007614Y010270D01*
X007759Y009782D02*
X007469Y009782D01*
X007517Y009190D02*
X007469Y009141D01*
X007469Y009044D01*
X007517Y008996D01*
X007711Y008996D01*
X011506Y008741D02*
X011700Y008741D01*
X012433Y008746D02*
X012433Y009036D01*
X012578Y009036D01*
X012626Y008988D01*
X012626Y008891D01*
X012578Y008843D01*
X012433Y008843D01*
X012530Y008843D02*
X012626Y008746D01*
X012728Y008746D02*
X012728Y009036D01*
X012728Y008746D02*
X012921Y008746D01*
X013022Y008746D02*
X013216Y008746D01*
X013317Y008746D02*
X013462Y008746D01*
X013510Y008794D01*
X013510Y008988D01*
X013462Y009036D01*
X013317Y009036D01*
X013317Y008746D01*
X013119Y008891D02*
X013022Y008891D01*
X013022Y009036D02*
X013022Y008746D01*
X013022Y009036D02*
X013216Y009036D01*
X013612Y009036D02*
X013612Y008843D01*
X013708Y008746D01*
X013805Y008843D01*
X013805Y009036D01*
X013906Y008891D02*
X014100Y008891D01*
X010071Y011746D02*
X009878Y011746D01*
X010071Y011940D01*
X010071Y011988D01*
X010023Y012036D01*
X009926Y012036D01*
X009878Y011988D01*
X009776Y012036D02*
X009776Y011794D01*
X009728Y011746D01*
X009631Y011746D01*
X009583Y011794D01*
X009583Y012036D01*
X010033Y012394D02*
X010081Y012346D01*
X010178Y012346D01*
X010226Y012394D01*
X010328Y012346D02*
X010328Y012636D01*
X010473Y012636D01*
X010521Y012588D01*
X010521Y012491D01*
X010473Y012443D01*
X010328Y012443D01*
X010424Y012443D02*
X010521Y012346D01*
X010622Y012346D02*
X010622Y012636D01*
X010816Y012346D01*
X010816Y012636D01*
X010917Y012636D02*
X011062Y012636D01*
X011110Y012588D01*
X011110Y012491D01*
X011062Y012443D01*
X010917Y012443D01*
X011014Y012443D02*
X011110Y012346D01*
X011212Y012491D02*
X011405Y012491D01*
X011214Y012794D02*
X011214Y012988D01*
X011310Y012891D02*
X011117Y012891D01*
X011016Y012940D02*
X011016Y012988D01*
X010967Y013036D01*
X010871Y013036D01*
X010822Y012988D01*
X010721Y012988D02*
X010721Y012891D01*
X010673Y012843D01*
X010528Y012843D01*
X010624Y012843D02*
X010721Y012746D01*
X010822Y012746D02*
X011016Y012940D01*
X011016Y012746D02*
X010822Y012746D01*
X010917Y012636D02*
X010917Y012346D01*
X010226Y012588D02*
X010178Y012636D01*
X010081Y012636D01*
X010033Y012588D01*
X010033Y012394D01*
X010233Y012746D02*
X010233Y013036D01*
X010378Y013036D01*
X010426Y012988D01*
X010426Y012891D01*
X010378Y012843D01*
X010233Y012843D01*
X010330Y012843D02*
X010426Y012746D01*
X010528Y012746D02*
X010528Y013036D01*
X010673Y013036D01*
X010721Y012988D01*
X010767Y013596D02*
X010622Y013596D01*
X010622Y013886D01*
X010767Y013886D01*
X010816Y013838D01*
X010816Y013790D01*
X010767Y013741D01*
X010622Y013741D01*
X010521Y013741D02*
X010473Y013693D01*
X010328Y013693D01*
X010424Y013693D02*
X010521Y013596D01*
X010521Y013741D02*
X010521Y013838D01*
X010473Y013886D01*
X010328Y013886D01*
X010328Y013596D01*
X010226Y013644D02*
X010178Y013596D01*
X010081Y013596D01*
X010033Y013644D01*
X010033Y013838D01*
X010081Y013886D01*
X010178Y013886D01*
X010226Y013838D01*
X010767Y013741D02*
X010816Y013693D01*
X010816Y013644D01*
X010767Y013596D01*
X011014Y013596D02*
X011014Y013741D01*
X011110Y013838D01*
X011110Y013886D01*
X011212Y013886D02*
X011357Y013886D01*
X011405Y013838D01*
X011405Y013741D01*
X011357Y013693D01*
X011212Y013693D01*
X011212Y013596D02*
X011212Y013886D01*
X011014Y013741D02*
X010917Y013838D01*
X010917Y013886D01*
X011506Y013741D02*
X011700Y013741D01*
X011603Y013838D02*
X011603Y013644D01*
X011314Y014494D02*
X011314Y014688D01*
X011410Y014591D02*
X011217Y014591D01*
X011116Y014446D02*
X010922Y014446D01*
X011019Y014446D02*
X011019Y014736D01*
X010922Y014640D01*
X010821Y014688D02*
X010821Y014591D01*
X010773Y014543D01*
X010628Y014543D01*
X010724Y014543D02*
X010821Y014446D01*
X010628Y014446D02*
X010628Y014736D01*
X010773Y014736D01*
X010821Y014688D01*
X010526Y014688D02*
X010526Y014591D01*
X010478Y014543D01*
X010333Y014543D01*
X010430Y014543D02*
X010526Y014446D01*
X010333Y014446D02*
X010333Y014736D01*
X010478Y014736D01*
X010526Y014688D01*
X012019Y015244D02*
X012067Y015196D01*
X012261Y015196D01*
X012309Y015244D01*
X012309Y015341D01*
X012261Y015390D01*
X012309Y015491D02*
X012019Y015491D01*
X012019Y015636D01*
X012067Y015684D01*
X012164Y015684D01*
X012213Y015636D01*
X012213Y015491D01*
X012213Y015588D02*
X012309Y015684D01*
X012261Y015785D02*
X012309Y015834D01*
X012309Y015931D01*
X012261Y015979D01*
X012067Y015979D01*
X012019Y015931D01*
X012019Y015834D01*
X012067Y015785D01*
X012261Y015785D01*
X012261Y016080D02*
X012019Y016080D01*
X012019Y016274D02*
X012261Y016274D01*
X012309Y016225D01*
X012309Y016128D01*
X012261Y016080D01*
X012019Y016375D02*
X012019Y016568D01*
X012019Y016471D02*
X012309Y016471D01*
X012164Y016669D02*
X012164Y016863D01*
X012067Y016766D02*
X012261Y016766D01*
X011508Y017394D02*
X011508Y017588D01*
X011412Y017491D02*
X011605Y017491D01*
X011310Y017491D02*
X011262Y017443D01*
X011117Y017443D01*
X011214Y017443D02*
X011310Y017346D01*
X011310Y017491D02*
X011310Y017588D01*
X011262Y017636D01*
X011117Y017636D01*
X011117Y017346D01*
X011016Y017346D02*
X011016Y017636D01*
X010822Y017636D02*
X011016Y017346D01*
X010822Y017346D02*
X010822Y017636D01*
X010721Y017588D02*
X010721Y017491D01*
X010673Y017443D01*
X010528Y017443D01*
X010624Y017443D02*
X010721Y017346D01*
X010528Y017346D02*
X010528Y017636D01*
X010673Y017636D01*
X010721Y017588D01*
X010426Y017588D02*
X010378Y017636D01*
X010281Y017636D01*
X010233Y017588D01*
X010233Y017394D01*
X010281Y017346D01*
X010378Y017346D01*
X010426Y017394D01*
X010074Y017036D02*
X010074Y016746D01*
X009978Y016746D02*
X010171Y016746D01*
X009978Y016940D02*
X010074Y017036D01*
X009876Y017036D02*
X009876Y016794D01*
X009828Y016746D01*
X009731Y016746D01*
X009683Y016794D01*
X009683Y017036D01*
X012019Y015341D02*
X012019Y015244D01*
X012019Y015341D02*
X012067Y015390D01*
X014436Y016529D02*
X014485Y016481D01*
X014533Y016481D01*
X014582Y016529D01*
X014582Y016771D01*
X014630Y016771D02*
X014533Y016771D01*
X014731Y016771D02*
X014731Y016481D01*
X014731Y016578D02*
X014876Y016578D01*
X014925Y016626D01*
X014925Y016723D01*
X014876Y016771D01*
X014731Y016771D01*
X015026Y016626D02*
X015219Y016626D01*
X015320Y016626D02*
X015417Y016675D01*
X015466Y016675D01*
X015514Y016626D01*
X015514Y016529D01*
X015466Y016481D01*
X015369Y016481D01*
X015320Y016529D01*
X015320Y016626D02*
X015320Y016771D01*
X015514Y016771D01*
X015615Y016771D02*
X015615Y016578D01*
X015712Y016481D01*
X015809Y016578D01*
X015809Y016771D01*
X015122Y016723D02*
X015122Y016529D01*
X019498Y015549D02*
X019498Y015259D01*
X019498Y015355D02*
X019643Y015355D01*
X019692Y015404D01*
X019692Y015501D01*
X019643Y015549D01*
X019498Y015549D01*
X019595Y015355D02*
X019692Y015259D01*
X019793Y015259D02*
X019986Y015259D01*
X020088Y015259D02*
X020088Y015452D01*
X020184Y015549D01*
X020281Y015452D01*
X020281Y015259D01*
X020281Y015404D02*
X020088Y015404D01*
X019793Y015549D02*
X019793Y015259D01*
X020953Y015614D02*
X021001Y015566D01*
X021050Y015566D01*
X021098Y015614D01*
X021098Y015856D01*
X021050Y015856D02*
X021146Y015856D01*
X021248Y015856D02*
X021441Y015856D01*
X021344Y015856D02*
X021344Y015566D01*
X021639Y015566D02*
X021639Y015856D01*
X021542Y015856D02*
X021736Y015856D01*
X021837Y015856D02*
X021934Y015856D01*
X021885Y015856D02*
X021885Y015566D01*
X021837Y015566D02*
X021934Y015566D01*
X022033Y015566D02*
X022033Y015760D01*
X022130Y015856D01*
X022227Y015760D01*
X022227Y015566D01*
X022227Y015711D02*
X022033Y015711D01*
X024669Y015731D02*
X024669Y016021D01*
X024814Y016021D01*
X024862Y015973D01*
X024862Y015876D01*
X024814Y015828D01*
X024669Y015828D01*
X024963Y015828D02*
X025060Y015925D01*
X025109Y015925D01*
X025209Y015876D02*
X025209Y015780D01*
X025257Y015731D01*
X025354Y015731D01*
X025402Y015780D01*
X025402Y015876D01*
X025354Y015925D01*
X025257Y015925D01*
X025209Y015876D01*
X024963Y015925D02*
X024963Y015731D01*
X025504Y015925D02*
X025600Y015925D01*
X025552Y015973D02*
X025552Y015780D01*
X025600Y015731D01*
X025700Y015780D02*
X025748Y015731D01*
X025845Y015731D01*
X025894Y015780D01*
X025894Y015876D01*
X025845Y015925D01*
X025748Y015925D01*
X025700Y015876D01*
X025700Y015780D01*
X026289Y015731D02*
X026483Y015731D01*
X026386Y015731D02*
X026386Y016021D01*
X026289Y015925D01*
X026584Y015780D02*
X026632Y015780D01*
X026632Y015731D01*
X026584Y015731D01*
X026584Y015780D01*
X026731Y015780D02*
X026925Y015973D01*
X026925Y015780D01*
X026876Y015731D01*
X026780Y015731D01*
X026731Y015780D01*
X026731Y015973D01*
X026780Y016021D01*
X026876Y016021D01*
X026925Y015973D01*
X028053Y015414D02*
X028101Y015366D01*
X028150Y015366D01*
X028198Y015414D01*
X028198Y015656D01*
X028150Y015656D02*
X028246Y015656D01*
X028348Y015656D02*
X028541Y015656D01*
X028444Y015656D02*
X028444Y015366D01*
X028642Y015366D02*
X028642Y015656D01*
X028787Y015656D01*
X028836Y015608D01*
X028836Y015560D01*
X028787Y015511D01*
X028642Y015511D01*
X028642Y015366D02*
X028787Y015366D01*
X028836Y015414D01*
X028836Y015463D01*
X028787Y015511D01*
X028937Y015511D02*
X029130Y015511D01*
X029232Y015511D02*
X029425Y015511D01*
X029425Y015560D02*
X029425Y015366D01*
X029232Y015366D02*
X029232Y015560D01*
X029328Y015656D01*
X029425Y015560D01*
X029863Y015541D02*
X029863Y015396D01*
X030153Y015396D01*
X030056Y015396D02*
X030056Y015541D01*
X030008Y015590D01*
X029911Y015590D01*
X029863Y015541D01*
X029863Y015691D02*
X029863Y015836D01*
X029911Y015884D01*
X030008Y015884D01*
X030056Y015836D01*
X030056Y015691D01*
X030056Y015788D02*
X030153Y015884D01*
X030153Y015985D02*
X030153Y016179D01*
X030153Y016280D02*
X029863Y016280D01*
X029863Y016474D01*
X029959Y016575D02*
X029863Y016671D01*
X030153Y016671D01*
X030153Y016575D02*
X030153Y016768D01*
X030008Y016377D02*
X030008Y016280D01*
X029863Y016179D02*
X029863Y015985D01*
X030153Y015985D01*
X030008Y015985D02*
X030008Y016082D01*
X030153Y015691D02*
X029863Y015691D01*
X030056Y015493D02*
X030153Y015590D01*
X030860Y014716D02*
X031005Y014716D01*
X031053Y014668D01*
X031053Y014571D01*
X031005Y014523D01*
X030860Y014523D01*
X030956Y014523D02*
X031053Y014426D01*
X031154Y014426D02*
X031154Y014716D01*
X031299Y014716D01*
X031348Y014668D01*
X031348Y014571D01*
X031299Y014523D01*
X031154Y014523D01*
X031251Y014523D02*
X031348Y014426D01*
X031449Y014426D02*
X031449Y014716D01*
X031643Y014716D01*
X031744Y014716D02*
X031937Y014716D01*
X032038Y014668D02*
X032087Y014716D01*
X032183Y014716D01*
X032232Y014668D01*
X032232Y014620D01*
X032038Y014426D01*
X032232Y014426D01*
X032463Y014471D02*
X032559Y014375D01*
X032753Y014375D01*
X032705Y014274D02*
X032753Y014225D01*
X032753Y014128D01*
X032705Y014080D01*
X032608Y014128D02*
X032608Y014225D01*
X032656Y014274D01*
X032705Y014274D01*
X032608Y014375D02*
X032608Y014568D01*
X032559Y014568D02*
X032753Y014568D01*
X032753Y014669D02*
X032753Y014863D01*
X032753Y014766D02*
X032463Y014766D01*
X032559Y014669D01*
X032559Y014568D02*
X032463Y014471D01*
X032511Y014274D02*
X032463Y014225D01*
X032463Y014128D01*
X032511Y014080D01*
X032559Y014080D01*
X032608Y014128D01*
X032511Y013979D02*
X032463Y013979D01*
X032511Y013979D02*
X032608Y013882D01*
X032753Y013882D01*
X032608Y013882D02*
X032511Y013785D01*
X032463Y013785D01*
X032463Y013684D02*
X032753Y013684D01*
X032608Y013684D02*
X032608Y013491D01*
X032608Y013390D02*
X032656Y013341D01*
X032656Y013196D01*
X032656Y013293D02*
X032753Y013390D01*
X032753Y013491D02*
X032463Y013491D01*
X032511Y013390D02*
X032608Y013390D01*
X032511Y013390D02*
X032463Y013341D01*
X032463Y013196D01*
X032753Y013196D01*
X031900Y013746D02*
X031706Y013746D01*
X031900Y013940D01*
X031900Y013988D01*
X031851Y014036D01*
X031755Y014036D01*
X031706Y013988D01*
X031605Y013940D02*
X031605Y013746D01*
X031605Y013891D02*
X031412Y013891D01*
X031412Y013940D02*
X031412Y013746D01*
X031310Y013794D02*
X031262Y013746D01*
X031165Y013746D01*
X031117Y013794D01*
X031165Y013891D02*
X031262Y013891D01*
X031310Y013843D01*
X031310Y013794D01*
X031165Y013891D02*
X031117Y013940D01*
X031117Y013988D01*
X031165Y014036D01*
X031262Y014036D01*
X031310Y013988D01*
X031412Y013940D02*
X031508Y014036D01*
X031605Y013940D01*
X031643Y014426D02*
X031449Y014426D01*
X031449Y014571D02*
X031546Y014571D01*
X031744Y014571D02*
X031840Y014571D01*
X031744Y014426D02*
X031744Y014716D01*
X030860Y014716D02*
X030860Y014426D01*
X030822Y014036D02*
X030822Y013988D01*
X030919Y013891D01*
X030919Y013746D01*
X030919Y013891D02*
X031016Y013988D01*
X031016Y014036D01*
X030721Y014036D02*
X030721Y013746D01*
X030721Y013891D02*
X030528Y013891D01*
X030426Y013891D02*
X030378Y013843D01*
X030233Y013843D01*
X030330Y013843D02*
X030426Y013746D01*
X030528Y013746D02*
X030528Y014036D01*
X030426Y013988D02*
X030426Y013891D01*
X030426Y013988D02*
X030378Y014036D01*
X030233Y014036D01*
X030233Y013746D01*
X030296Y013219D02*
X030296Y012977D01*
X030344Y012929D01*
X030441Y012929D01*
X030489Y012977D01*
X030489Y013219D01*
X030590Y013219D02*
X030590Y013074D01*
X030687Y013122D01*
X030735Y013122D01*
X030784Y013074D01*
X030784Y012977D01*
X030735Y012929D01*
X030639Y012929D01*
X030590Y012977D01*
X030590Y013219D02*
X030784Y013219D01*
X032953Y015414D02*
X033001Y015366D01*
X033050Y015366D01*
X033098Y015414D01*
X033098Y015656D01*
X033050Y015656D02*
X033146Y015656D01*
X033248Y015656D02*
X033441Y015656D01*
X033344Y015656D02*
X033344Y015366D01*
X033542Y015463D02*
X033639Y015366D01*
X033736Y015463D01*
X033736Y015656D01*
X033837Y015656D02*
X033982Y015656D01*
X034030Y015608D01*
X034030Y015511D01*
X033982Y015463D01*
X033837Y015463D01*
X033934Y015463D02*
X034030Y015366D01*
X034132Y015366D02*
X034325Y015366D01*
X034426Y015366D02*
X034426Y015656D01*
X034620Y015656D01*
X034523Y015511D02*
X034426Y015511D01*
X034325Y015656D02*
X034132Y015656D01*
X034132Y015366D01*
X034132Y015511D02*
X034228Y015511D01*
X033837Y015366D02*
X033837Y015656D01*
X033542Y015656D02*
X033542Y015463D01*
X032016Y016597D02*
X032016Y016888D01*
X032209Y016888D01*
X032113Y016742D02*
X032016Y016742D01*
X031915Y016597D02*
X031721Y016597D01*
X031721Y016888D01*
X031915Y016888D01*
X031818Y016742D02*
X031721Y016742D01*
X031620Y016742D02*
X031572Y016694D01*
X031426Y016694D01*
X031426Y016597D02*
X031426Y016888D01*
X031572Y016888D01*
X031620Y016839D01*
X031620Y016742D01*
X031523Y016694D02*
X031620Y016597D01*
X031325Y016742D02*
X031277Y016694D01*
X031132Y016694D01*
X031132Y016597D02*
X031132Y016888D01*
X031277Y016888D01*
X031325Y016839D01*
X031325Y016742D01*
X034298Y014019D02*
X034298Y013826D01*
X034347Y013778D01*
X034443Y013778D01*
X034492Y013826D01*
X034593Y013874D02*
X034738Y013874D01*
X034786Y013923D01*
X034786Y014019D01*
X034738Y014068D01*
X034593Y014068D01*
X034593Y013778D01*
X034690Y013874D02*
X034786Y013778D01*
X034888Y013778D02*
X035081Y013778D01*
X035182Y013778D02*
X035182Y014068D01*
X035376Y014068D01*
X035279Y013923D02*
X035182Y013923D01*
X035081Y014068D02*
X034888Y014068D01*
X034888Y013778D01*
X034888Y013923D02*
X034984Y013923D01*
X034492Y014019D02*
X034443Y014068D01*
X034347Y014068D01*
X034298Y014019D01*
X032651Y010936D02*
X032555Y010936D01*
X032506Y010888D01*
X032405Y010888D02*
X032405Y010840D01*
X032357Y010791D01*
X032212Y010791D01*
X032110Y010743D02*
X032110Y010694D01*
X032062Y010646D01*
X031965Y010646D01*
X031917Y010694D01*
X031965Y010791D02*
X032062Y010791D01*
X032110Y010743D01*
X032212Y010646D02*
X032357Y010646D01*
X032405Y010694D01*
X032405Y010743D01*
X032357Y010791D01*
X032405Y010888D02*
X032357Y010936D01*
X032212Y010936D01*
X032212Y010646D01*
X032110Y010888D02*
X032062Y010936D01*
X031965Y010936D01*
X031917Y010888D01*
X031917Y010840D01*
X031965Y010791D01*
X031816Y010888D02*
X031816Y010936D01*
X031816Y010888D02*
X031719Y010791D01*
X031719Y010646D01*
X031719Y010791D02*
X031622Y010888D01*
X031622Y010936D01*
X031521Y010936D02*
X031521Y010646D01*
X031521Y010791D02*
X031328Y010791D01*
X031226Y010791D02*
X031178Y010743D01*
X031033Y010743D01*
X031130Y010743D02*
X031226Y010646D01*
X031328Y010646D02*
X031328Y010936D01*
X031226Y010888D02*
X031226Y010791D01*
X031226Y010888D02*
X031178Y010936D01*
X031033Y010936D01*
X031033Y010646D01*
X031033Y010136D02*
X031178Y010136D01*
X031226Y010088D01*
X031226Y009991D01*
X031178Y009943D01*
X031033Y009943D01*
X031130Y009943D02*
X031226Y009846D01*
X031328Y009846D02*
X031328Y010136D01*
X031328Y009991D02*
X031521Y009991D01*
X031622Y010088D02*
X031719Y009991D01*
X031719Y009846D01*
X031719Y009991D02*
X031816Y010088D01*
X031816Y010136D01*
X031917Y010088D02*
X031917Y010040D01*
X031965Y009991D01*
X032062Y009991D01*
X032110Y009943D01*
X032110Y009894D01*
X032062Y009846D01*
X031965Y009846D01*
X031917Y009894D01*
X031917Y010088D02*
X031965Y010136D01*
X032062Y010136D01*
X032110Y010088D01*
X032212Y010136D02*
X032212Y009846D01*
X032357Y009846D01*
X032405Y009894D01*
X032405Y009943D01*
X032357Y009991D01*
X032212Y009991D01*
X032357Y009991D02*
X032405Y010040D01*
X032405Y010088D01*
X032357Y010136D01*
X032212Y010136D01*
X032506Y010040D02*
X032603Y010136D01*
X032603Y009846D01*
X032506Y009846D02*
X032700Y009846D01*
X031622Y010088D02*
X031622Y010136D01*
X031521Y010136D02*
X031521Y009846D01*
X031033Y009846D02*
X031033Y010136D01*
X032506Y010646D02*
X032700Y010840D01*
X032700Y010888D01*
X032651Y010936D01*
X032700Y010646D02*
X032506Y010646D01*
X032478Y008836D02*
X032526Y008788D01*
X032526Y008691D01*
X032478Y008643D01*
X032333Y008643D01*
X032430Y008643D02*
X032526Y008546D01*
X032628Y008594D02*
X032676Y008546D01*
X032773Y008546D01*
X032821Y008594D01*
X032821Y008788D01*
X032773Y008836D01*
X032676Y008836D01*
X032628Y008788D01*
X032628Y008594D01*
X032478Y008836D02*
X032333Y008836D01*
X032333Y008546D01*
X032922Y008594D02*
X032922Y008836D01*
X033116Y008836D02*
X033116Y008594D01*
X033067Y008546D01*
X032971Y008546D01*
X032922Y008594D01*
X033217Y008836D02*
X033410Y008836D01*
X033314Y008836D02*
X033314Y008546D01*
X033512Y008546D02*
X033512Y008836D01*
X033657Y008836D01*
X033705Y008788D01*
X033705Y008740D01*
X033657Y008691D01*
X033512Y008691D01*
X033657Y008691D02*
X033705Y008643D01*
X033705Y008594D01*
X033657Y008546D01*
X033512Y008546D01*
X033806Y008546D02*
X034000Y008546D01*
X033903Y008546D02*
X033903Y008836D01*
X033806Y008740D01*
X034033Y008036D02*
X034178Y008036D01*
X034226Y007988D01*
X034226Y007891D01*
X034178Y007843D01*
X034033Y007843D01*
X034130Y007843D02*
X034226Y007746D01*
X034328Y007794D02*
X034328Y007988D01*
X034376Y008036D01*
X034473Y008036D01*
X034521Y007988D01*
X034521Y007794D01*
X034473Y007746D01*
X034376Y007746D01*
X034328Y007794D01*
X034622Y007794D02*
X034671Y007746D01*
X034767Y007746D01*
X034816Y007794D01*
X034816Y008036D01*
X034917Y008036D02*
X035110Y008036D01*
X035014Y008036D02*
X035014Y007746D01*
X035212Y007746D02*
X035212Y008036D01*
X035357Y008036D01*
X035405Y007988D01*
X035405Y007940D01*
X035357Y007891D01*
X035212Y007891D01*
X035357Y007891D02*
X035405Y007843D01*
X035405Y007794D01*
X035357Y007746D01*
X035212Y007746D01*
X035506Y007746D02*
X035700Y007940D01*
X035700Y007988D01*
X035651Y008036D01*
X035555Y008036D01*
X035506Y007988D01*
X035506Y007746D02*
X035700Y007746D01*
X034622Y007794D02*
X034622Y008036D01*
X034033Y008036D02*
X034033Y007746D01*
X031651Y007821D02*
X031457Y007821D01*
X031554Y007821D02*
X031554Y007530D01*
X031356Y007579D02*
X031356Y007821D01*
X031163Y007821D02*
X031163Y007579D01*
X031211Y007530D01*
X031308Y007530D01*
X031356Y007579D01*
X031062Y007579D02*
X031062Y007772D01*
X031013Y007821D01*
X030917Y007821D01*
X030868Y007772D01*
X030868Y007579D01*
X030917Y007530D01*
X031013Y007530D01*
X031062Y007579D01*
X030719Y007579D02*
X030719Y007821D01*
X030767Y007821D02*
X030670Y007821D01*
X030719Y007579D02*
X030670Y007530D01*
X030622Y007530D01*
X030574Y007579D01*
X029553Y007577D02*
X029263Y007577D01*
X029263Y007480D02*
X029263Y007674D01*
X029359Y007775D02*
X029263Y007871D01*
X029359Y007968D01*
X029553Y007968D01*
X029553Y008069D02*
X029359Y008263D01*
X029311Y008263D01*
X029263Y008214D01*
X029263Y008118D01*
X029311Y008069D01*
X029408Y007968D02*
X029408Y007775D01*
X029359Y007775D02*
X029553Y007775D01*
X029553Y008069D02*
X029553Y008263D01*
X029733Y008546D02*
X029733Y008836D01*
X029878Y008836D01*
X029926Y008788D01*
X029926Y008691D01*
X029878Y008643D01*
X029733Y008643D01*
X029830Y008643D02*
X029926Y008546D01*
X030028Y008594D02*
X030076Y008546D01*
X030173Y008546D01*
X030221Y008594D01*
X030221Y008788D01*
X030173Y008836D01*
X030076Y008836D01*
X030028Y008788D01*
X030028Y008594D01*
X030322Y008594D02*
X030322Y008836D01*
X030516Y008836D02*
X030516Y008594D01*
X030467Y008546D01*
X030371Y008546D01*
X030322Y008594D01*
X030617Y008836D02*
X030810Y008836D01*
X030714Y008836D02*
X030714Y008546D01*
X030912Y008546D02*
X030912Y008740D01*
X031008Y008836D01*
X031105Y008740D01*
X031105Y008546D01*
X031206Y008546D02*
X031400Y008546D01*
X031303Y008546D02*
X031303Y008836D01*
X031206Y008740D01*
X031105Y008691D02*
X030912Y008691D01*
X029325Y009614D02*
X029277Y009566D01*
X029132Y009566D01*
X029132Y009856D01*
X029277Y009856D01*
X029325Y009808D01*
X029325Y009760D01*
X029277Y009711D01*
X029132Y009711D01*
X029030Y009711D02*
X028837Y009711D01*
X028736Y009711D02*
X028542Y009711D01*
X028542Y009760D02*
X028639Y009856D01*
X028736Y009760D01*
X028736Y009566D01*
X028542Y009566D02*
X028542Y009760D01*
X028441Y009856D02*
X028248Y009856D01*
X028344Y009856D02*
X028344Y009566D01*
X028098Y009614D02*
X028098Y009856D01*
X028050Y009856D02*
X028146Y009856D01*
X028098Y009614D02*
X028050Y009566D01*
X028001Y009566D01*
X027953Y009614D01*
X029277Y009711D02*
X029325Y009663D01*
X029325Y009614D01*
X029263Y007379D02*
X029505Y007379D01*
X029553Y007331D01*
X029553Y007234D01*
X029505Y007185D01*
X029263Y007185D01*
X029311Y007084D02*
X029263Y007036D01*
X029263Y006939D01*
X029311Y006891D01*
X029505Y006891D01*
X029553Y006939D01*
X029553Y007036D01*
X029505Y007084D01*
X029311Y007084D01*
X029311Y006790D02*
X029408Y006790D01*
X029456Y006741D01*
X029456Y006596D01*
X029456Y006693D02*
X029553Y006790D01*
X029553Y006596D02*
X029263Y006596D01*
X029263Y006741D01*
X029311Y006790D01*
X023512Y013046D02*
X023512Y013240D01*
X023415Y013336D01*
X023319Y013240D01*
X023319Y013046D01*
X023219Y013046D02*
X023122Y013046D01*
X023171Y013046D02*
X023171Y013336D01*
X023219Y013336D02*
X023122Y013336D01*
X023021Y013336D02*
X022828Y013336D01*
X022828Y013046D01*
X022726Y013094D02*
X022678Y013046D01*
X022581Y013046D01*
X022533Y013094D01*
X022533Y013288D01*
X022581Y013336D01*
X022678Y013336D01*
X022726Y013288D01*
X022828Y013191D02*
X022924Y013191D01*
X023319Y013191D02*
X023512Y013191D01*
X026508Y014044D02*
X026556Y013996D01*
X026653Y013996D01*
X026701Y014044D01*
X026701Y014286D01*
X026803Y014141D02*
X026948Y014286D01*
X026948Y013996D01*
X026996Y014141D02*
X026803Y014141D01*
X026508Y014044D02*
X026508Y014286D01*
X007759Y013775D02*
X007469Y013582D01*
X007759Y013582D01*
X007759Y013482D02*
X007759Y013385D01*
X007759Y013434D02*
X007469Y013434D01*
X007469Y013482D02*
X007469Y013385D01*
X007517Y013284D02*
X007614Y013284D01*
X007663Y013236D01*
X007663Y013091D01*
X007759Y013091D02*
X007469Y013091D01*
X007469Y013236D01*
X007517Y013284D01*
X007663Y013188D02*
X007759Y013284D01*
X007711Y012990D02*
X007759Y012941D01*
X007759Y012844D01*
X007711Y012796D01*
X007517Y012796D01*
X007469Y012844D01*
X007469Y012941D01*
X007517Y012990D01*
X007469Y013775D02*
X007759Y013775D01*
X007614Y013876D02*
X007614Y014070D01*
X007517Y013973D02*
X007711Y013973D01*
D62*
X016583Y016307D02*
X016583Y016827D01*
X016843Y016827D01*
X016930Y016741D01*
X016930Y016567D01*
X016843Y016480D01*
X016583Y016480D01*
X017099Y016567D02*
X017186Y016654D01*
X017359Y016654D01*
X017446Y016567D01*
X017446Y016307D01*
X017615Y016394D02*
X017615Y016567D01*
X017701Y016654D01*
X017875Y016654D01*
X017961Y016567D01*
X017961Y016394D01*
X017875Y016307D01*
X017701Y016307D01*
X017615Y016394D01*
X018130Y016654D02*
X018304Y016654D01*
X018217Y016741D02*
X018217Y016394D01*
X018304Y016307D01*
X018474Y016394D02*
X018474Y016567D01*
X018561Y016654D01*
X018734Y016654D01*
X018821Y016567D01*
X018821Y016394D01*
X018734Y016307D01*
X018561Y016307D01*
X018474Y016394D01*
X018990Y016307D02*
X019250Y016307D01*
X019337Y016394D01*
X019337Y016741D01*
X019250Y016827D01*
X018990Y016827D01*
X018990Y016307D01*
X019505Y016394D02*
X019505Y016567D01*
X019592Y016654D01*
X019765Y016654D01*
X019852Y016567D01*
X019852Y016480D01*
X019505Y016480D01*
X019505Y016394D02*
X019592Y016307D01*
X019765Y016307D01*
X020108Y016394D02*
X020194Y016307D01*
X020108Y016394D02*
X020108Y016741D01*
X020194Y016654D02*
X020021Y016654D01*
X020365Y016567D02*
X020451Y016654D01*
X020625Y016654D01*
X020712Y016567D01*
X020712Y016480D01*
X020365Y016480D01*
X020365Y016394D02*
X020365Y016567D01*
X020365Y016394D02*
X020451Y016307D01*
X020625Y016307D01*
X020880Y016394D02*
X020880Y016567D01*
X020967Y016654D01*
X021227Y016654D01*
X021396Y016654D02*
X021569Y016654D01*
X021483Y016741D02*
X021483Y016394D01*
X021569Y016307D01*
X021227Y016307D02*
X020967Y016307D01*
X020880Y016394D01*
X022255Y016307D02*
X022516Y016307D01*
X022602Y016394D01*
X022602Y016741D01*
X022516Y016827D01*
X022255Y016827D01*
X022255Y016307D01*
X022771Y016394D02*
X022858Y016480D01*
X023118Y016480D01*
X023118Y016567D02*
X023118Y016307D01*
X022858Y016307D01*
X022771Y016394D01*
X022858Y016654D02*
X023031Y016654D01*
X023118Y016567D01*
X023287Y016654D02*
X023287Y016394D01*
X023373Y016307D01*
X023634Y016307D01*
X023634Y016654D01*
X023802Y016567D02*
X023802Y016394D01*
X023889Y016307D01*
X024149Y016307D01*
X024149Y016220D02*
X024149Y016654D01*
X023889Y016654D01*
X023802Y016567D01*
X024149Y016220D02*
X024062Y016134D01*
X023976Y016134D01*
X024318Y016307D02*
X024318Y016827D01*
X024405Y016654D02*
X024578Y016654D01*
X024665Y016567D01*
X024665Y016307D01*
X024920Y016394D02*
X025007Y016307D01*
X024920Y016394D02*
X024920Y016741D01*
X024833Y016654D02*
X025007Y016654D01*
X025177Y016567D02*
X025264Y016654D01*
X025437Y016654D01*
X025524Y016567D01*
X025524Y016480D01*
X025177Y016480D01*
X025177Y016394D02*
X025177Y016567D01*
X025177Y016394D02*
X025264Y016307D01*
X025437Y016307D01*
X025693Y016307D02*
X025693Y016654D01*
X025866Y016654D02*
X025693Y016480D01*
X025866Y016654D02*
X025953Y016654D01*
X024405Y016654D02*
X024318Y016567D01*
X017099Y016827D02*
X017099Y016307D01*
X022686Y008363D02*
X022946Y008363D01*
X023033Y008276D01*
X023033Y008189D01*
X022946Y008103D01*
X022686Y008103D01*
X022946Y008103D02*
X023033Y008016D01*
X023033Y007929D01*
X022946Y007842D01*
X022686Y007842D01*
X022686Y008363D01*
X023201Y008103D02*
X023288Y008189D01*
X023461Y008189D01*
X023548Y008103D01*
X023548Y008016D01*
X023201Y008016D01*
X023201Y007929D02*
X023201Y008103D01*
X023201Y007929D02*
X023288Y007842D01*
X023461Y007842D01*
X023717Y007929D02*
X023804Y008016D01*
X024064Y008016D01*
X024064Y008103D02*
X024064Y007842D01*
X023804Y007842D01*
X023717Y007929D01*
X023804Y008189D02*
X023977Y008189D01*
X024064Y008103D01*
X024233Y008103D02*
X024233Y007929D01*
X024319Y007842D01*
X024579Y007842D01*
X024748Y007929D02*
X024835Y007842D01*
X025008Y007842D01*
X025095Y007929D01*
X025095Y008103D01*
X025008Y008189D01*
X024835Y008189D01*
X024748Y008103D01*
X024748Y007929D01*
X024579Y008189D02*
X024319Y008189D01*
X024233Y008103D01*
X025264Y008189D02*
X025264Y007842D01*
X025611Y007842D02*
X025611Y008103D01*
X025524Y008189D01*
X025264Y008189D01*
X026295Y008016D02*
X026469Y007842D01*
X026642Y008016D01*
X026642Y008363D01*
X026811Y008276D02*
X026897Y008363D01*
X027071Y008363D01*
X027158Y008276D01*
X027158Y008189D01*
X027071Y008103D01*
X027158Y008016D01*
X027158Y007929D01*
X027071Y007842D01*
X026897Y007842D01*
X026811Y007929D01*
X026984Y008103D02*
X027071Y008103D01*
X027326Y007929D02*
X027413Y007929D01*
X027413Y007842D01*
X027326Y007842D01*
X027326Y007929D01*
X027584Y007929D02*
X027584Y008276D01*
X027671Y008363D01*
X027844Y008363D01*
X027931Y008276D01*
X027584Y007929D01*
X027671Y007842D01*
X027844Y007842D01*
X027931Y007929D01*
X027931Y008276D01*
X026295Y008363D02*
X026295Y008016D01*
D63*
X021774Y012419D02*
X021724Y012419D01*
X021725Y012420D02*
X021722Y012435D01*
X021717Y012449D01*
X021709Y012461D01*
X021698Y012472D01*
X021686Y012480D01*
X021672Y012485D01*
X021657Y012488D01*
X021656Y012537D01*
X021657Y012538D01*
X021677Y012535D01*
X021697Y012530D01*
X021715Y012521D01*
X021731Y012509D01*
X021746Y012494D01*
X021758Y012478D01*
X021767Y012460D01*
X021772Y012440D01*
X021775Y012420D01*
X021766Y012420D01*
X021764Y012439D01*
X021758Y012457D01*
X021750Y012473D01*
X021739Y012489D01*
X021726Y012502D01*
X021710Y012513D01*
X021694Y012521D01*
X021676Y012527D01*
X021657Y012529D01*
X021657Y012520D01*
X021676Y012517D01*
X021694Y012511D01*
X021711Y012502D01*
X021726Y012489D01*
X021739Y012474D01*
X021748Y012457D01*
X021754Y012439D01*
X021757Y012420D01*
X021748Y012420D01*
X021745Y012437D01*
X021740Y012454D01*
X021731Y012469D01*
X021720Y012483D01*
X021706Y012494D01*
X021691Y012503D01*
X021674Y012508D01*
X021657Y012511D01*
X021657Y012502D01*
X021675Y012499D01*
X021692Y012492D01*
X021707Y012483D01*
X021720Y012470D01*
X021729Y012455D01*
X021736Y012438D01*
X021739Y012420D01*
X021730Y012420D01*
X021727Y012436D01*
X021721Y012451D01*
X021713Y012464D01*
X021701Y012476D01*
X021688Y012484D01*
X021673Y012490D01*
X021657Y012493D01*
X020676Y012537D02*
X020676Y012487D01*
X020675Y012488D02*
X020660Y012485D01*
X020646Y012480D01*
X020634Y012472D01*
X020623Y012461D01*
X020615Y012449D01*
X020610Y012435D01*
X020607Y012420D01*
X020558Y012419D01*
X020557Y012420D01*
X020560Y012440D01*
X020565Y012460D01*
X020574Y012478D01*
X020586Y012494D01*
X020601Y012509D01*
X020617Y012521D01*
X020635Y012530D01*
X020655Y012535D01*
X020675Y012538D01*
X020675Y012529D01*
X020656Y012527D01*
X020638Y012521D01*
X020622Y012513D01*
X020606Y012502D01*
X020593Y012489D01*
X020582Y012473D01*
X020574Y012457D01*
X020568Y012439D01*
X020566Y012420D01*
X020575Y012420D01*
X020578Y012439D01*
X020584Y012457D01*
X020593Y012474D01*
X020606Y012489D01*
X020621Y012502D01*
X020638Y012511D01*
X020656Y012517D01*
X020675Y012520D01*
X020675Y012511D01*
X020658Y012508D01*
X020641Y012503D01*
X020626Y012494D01*
X020612Y012483D01*
X020601Y012469D01*
X020592Y012454D01*
X020587Y012437D01*
X020584Y012420D01*
X020593Y012420D01*
X020596Y012438D01*
X020603Y012455D01*
X020612Y012470D01*
X020625Y012483D01*
X020640Y012492D01*
X020657Y012499D01*
X020675Y012502D01*
X020675Y012493D01*
X020659Y012490D01*
X020644Y012484D01*
X020631Y012476D01*
X020619Y012464D01*
X020611Y012451D01*
X020605Y012436D01*
X020602Y012420D01*
X011260Y010425D02*
X011260Y010475D01*
X011261Y010474D02*
X011276Y010477D01*
X011290Y010482D01*
X011302Y010490D01*
X011313Y010501D01*
X011321Y010513D01*
X011326Y010527D01*
X011329Y010542D01*
X011378Y010543D01*
X011379Y010542D01*
X011376Y010522D01*
X011371Y010502D01*
X011362Y010484D01*
X011350Y010468D01*
X011335Y010453D01*
X011319Y010441D01*
X011301Y010432D01*
X011281Y010427D01*
X011261Y010424D01*
X011261Y010433D01*
X011280Y010435D01*
X011298Y010441D01*
X011314Y010449D01*
X011330Y010460D01*
X011343Y010473D01*
X011354Y010489D01*
X011362Y010505D01*
X011368Y010523D01*
X011370Y010542D01*
X011361Y010542D01*
X011358Y010523D01*
X011352Y010505D01*
X011343Y010488D01*
X011330Y010473D01*
X011315Y010460D01*
X011298Y010451D01*
X011280Y010445D01*
X011261Y010442D01*
X011261Y010451D01*
X011278Y010454D01*
X011295Y010459D01*
X011310Y010468D01*
X011324Y010479D01*
X011335Y010493D01*
X011344Y010508D01*
X011349Y010525D01*
X011352Y010542D01*
X011343Y010542D01*
X011340Y010524D01*
X011333Y010507D01*
X011324Y010492D01*
X011311Y010479D01*
X011296Y010470D01*
X011279Y010463D01*
X011261Y010460D01*
X011261Y010469D01*
X011277Y010472D01*
X011292Y010478D01*
X011305Y010486D01*
X011317Y010498D01*
X011325Y010511D01*
X011331Y010526D01*
X011334Y010542D01*
X010162Y010543D02*
X010212Y010543D01*
X010211Y010542D02*
X010214Y010527D01*
X010219Y010513D01*
X010227Y010501D01*
X010238Y010490D01*
X010250Y010482D01*
X010264Y010477D01*
X010279Y010474D01*
X010280Y010425D01*
X010279Y010424D01*
X010259Y010427D01*
X010239Y010432D01*
X010221Y010441D01*
X010205Y010453D01*
X010190Y010468D01*
X010178Y010484D01*
X010169Y010502D01*
X010164Y010522D01*
X010161Y010542D01*
X010170Y010542D01*
X010172Y010523D01*
X010178Y010505D01*
X010186Y010489D01*
X010197Y010473D01*
X010210Y010460D01*
X010226Y010449D01*
X010242Y010441D01*
X010260Y010435D01*
X010279Y010433D01*
X010279Y010442D01*
X010260Y010445D01*
X010242Y010451D01*
X010225Y010460D01*
X010210Y010473D01*
X010197Y010488D01*
X010188Y010505D01*
X010182Y010523D01*
X010179Y010542D01*
X010188Y010542D01*
X010191Y010525D01*
X010196Y010508D01*
X010205Y010493D01*
X010216Y010479D01*
X010230Y010468D01*
X010245Y010459D01*
X010262Y010454D01*
X010279Y010451D01*
X010279Y010460D01*
X010261Y010463D01*
X010244Y010470D01*
X010229Y010479D01*
X010216Y010492D01*
X010207Y010507D01*
X010200Y010524D01*
X010197Y010542D01*
X010206Y010542D01*
X010209Y010526D01*
X010215Y010511D01*
X010223Y010498D01*
X010235Y010486D01*
X010248Y010478D01*
X010263Y010472D01*
X010279Y010469D01*
X010162Y015543D02*
X010212Y015543D01*
X010211Y015542D02*
X010214Y015527D01*
X010219Y015513D01*
X010227Y015501D01*
X010238Y015490D01*
X010250Y015482D01*
X010264Y015477D01*
X010279Y015474D01*
X010280Y015425D01*
X010279Y015424D01*
X010259Y015427D01*
X010239Y015432D01*
X010221Y015441D01*
X010205Y015453D01*
X010190Y015468D01*
X010178Y015484D01*
X010169Y015502D01*
X010164Y015522D01*
X010161Y015542D01*
X010170Y015542D01*
X010172Y015523D01*
X010178Y015505D01*
X010186Y015489D01*
X010197Y015473D01*
X010210Y015460D01*
X010226Y015449D01*
X010242Y015441D01*
X010260Y015435D01*
X010279Y015433D01*
X010279Y015442D01*
X010260Y015445D01*
X010242Y015451D01*
X010225Y015460D01*
X010210Y015473D01*
X010197Y015488D01*
X010188Y015505D01*
X010182Y015523D01*
X010179Y015542D01*
X010188Y015542D01*
X010191Y015525D01*
X010196Y015508D01*
X010205Y015493D01*
X010216Y015479D01*
X010230Y015468D01*
X010245Y015459D01*
X010262Y015454D01*
X010279Y015451D01*
X010279Y015460D01*
X010261Y015463D01*
X010244Y015470D01*
X010229Y015479D01*
X010216Y015492D01*
X010207Y015507D01*
X010200Y015524D01*
X010197Y015542D01*
X010206Y015542D01*
X010209Y015526D01*
X010215Y015511D01*
X010223Y015498D01*
X010235Y015486D01*
X010248Y015478D01*
X010263Y015472D01*
X010279Y015469D01*
X011260Y015425D02*
X011260Y015475D01*
X011261Y015474D02*
X011276Y015477D01*
X011290Y015482D01*
X011302Y015490D01*
X011313Y015501D01*
X011321Y015513D01*
X011326Y015527D01*
X011329Y015542D01*
X011378Y015543D01*
X011379Y015542D01*
X011376Y015522D01*
X011371Y015502D01*
X011362Y015484D01*
X011350Y015468D01*
X011335Y015453D01*
X011319Y015441D01*
X011301Y015432D01*
X011281Y015427D01*
X011261Y015424D01*
X011261Y015433D01*
X011280Y015435D01*
X011298Y015441D01*
X011314Y015449D01*
X011330Y015460D01*
X011343Y015473D01*
X011354Y015489D01*
X011362Y015505D01*
X011368Y015523D01*
X011370Y015542D01*
X011361Y015542D01*
X011358Y015523D01*
X011352Y015505D01*
X011343Y015488D01*
X011330Y015473D01*
X011315Y015460D01*
X011298Y015451D01*
X011280Y015445D01*
X011261Y015442D01*
X011261Y015451D01*
X011278Y015454D01*
X011295Y015459D01*
X011310Y015468D01*
X011324Y015479D01*
X011335Y015493D01*
X011344Y015508D01*
X011349Y015525D01*
X011352Y015542D01*
X011343Y015542D01*
X011340Y015524D01*
X011333Y015507D01*
X011324Y015492D01*
X011311Y015479D01*
X011296Y015470D01*
X011279Y015463D01*
X011261Y015460D01*
X011261Y015469D01*
X011277Y015472D01*
X011292Y015478D01*
X011305Y015486D01*
X011317Y015498D01*
X011325Y015511D01*
X011331Y015526D01*
X011334Y015542D01*
D64*
X011355Y015551D02*
X011355Y016519D01*
X011354Y016515D02*
X011353Y016532D01*
X011348Y016549D01*
X011341Y016564D01*
X011331Y016578D01*
X011319Y016590D01*
X011305Y016600D01*
X011290Y016607D01*
X011273Y016612D01*
X011256Y016613D01*
X011256Y016614D02*
X010284Y016614D01*
X010284Y016613D02*
X010267Y016612D01*
X010250Y016607D01*
X010235Y016600D01*
X010221Y016590D01*
X010209Y016578D01*
X010199Y016564D01*
X010192Y016549D01*
X010187Y016532D01*
X010186Y016515D01*
X010185Y016519D02*
X010185Y015551D01*
X010284Y015448D02*
X011252Y015448D01*
X017561Y012405D02*
X017561Y011815D01*
X017560Y011814D02*
X017564Y011796D01*
X017570Y011778D01*
X017580Y011761D01*
X017592Y011747D01*
X017607Y011734D01*
X017623Y011725D01*
X017641Y011719D01*
X017660Y011715D01*
X017679Y011715D01*
X017679Y011716D02*
X018309Y011716D01*
X018309Y011715D02*
X018328Y011715D01*
X018347Y011719D01*
X018365Y011725D01*
X018381Y011735D01*
X018396Y011747D01*
X018408Y011761D01*
X018418Y011778D01*
X018424Y011795D01*
X018428Y011814D01*
X018427Y011815D02*
X018427Y012405D01*
X018428Y012405D02*
X018424Y012424D01*
X018418Y012441D01*
X018408Y012458D01*
X018396Y012472D01*
X018381Y012484D01*
X018365Y012494D01*
X018347Y012500D01*
X018328Y012504D01*
X018309Y012504D01*
X017679Y012504D01*
X017660Y012504D01*
X017641Y012500D01*
X017623Y012494D01*
X017607Y012484D01*
X017592Y012472D01*
X017580Y012458D01*
X017570Y012441D01*
X017564Y012424D01*
X017560Y012405D01*
X018585Y010846D02*
X019215Y010846D01*
X019215Y010847D02*
X019234Y010847D01*
X019253Y010843D01*
X019271Y010837D01*
X019287Y010828D01*
X019302Y010815D01*
X019314Y010801D01*
X019324Y010784D01*
X019330Y010766D01*
X019334Y010748D01*
X019333Y010748D02*
X019333Y010157D01*
X019334Y010157D02*
X019330Y010138D01*
X019324Y010121D01*
X019314Y010104D01*
X019302Y010090D01*
X019287Y010078D01*
X019271Y010068D01*
X019253Y010062D01*
X019234Y010058D01*
X019215Y010058D01*
X019215Y010059D02*
X018585Y010059D01*
X018585Y010058D02*
X018566Y010058D01*
X018547Y010062D01*
X018529Y010068D01*
X018513Y010078D01*
X018498Y010090D01*
X018486Y010104D01*
X018476Y010121D01*
X018470Y010138D01*
X018466Y010157D01*
X018467Y010157D02*
X018467Y010748D01*
X018466Y010748D02*
X018470Y010767D01*
X018476Y010784D01*
X018486Y010801D01*
X018498Y010815D01*
X018513Y010827D01*
X018529Y010837D01*
X018547Y010843D01*
X018566Y010847D01*
X018585Y010847D01*
X020581Y011443D02*
X020581Y012411D01*
X020684Y012514D02*
X021652Y012514D01*
X021751Y012411D02*
X021751Y011443D01*
X021750Y011447D02*
X021749Y011430D01*
X021744Y011413D01*
X021737Y011398D01*
X021727Y011384D01*
X021715Y011372D01*
X021701Y011362D01*
X021686Y011355D01*
X021669Y011350D01*
X021652Y011349D01*
X021652Y011348D02*
X020680Y011348D01*
X020680Y011349D02*
X020663Y011350D01*
X020646Y011355D01*
X020631Y011362D01*
X020617Y011372D01*
X020605Y011384D01*
X020595Y011398D01*
X020588Y011413D01*
X020583Y011430D01*
X020582Y011447D01*
X021553Y009225D02*
X022183Y009225D01*
X022183Y009226D02*
X022202Y009226D01*
X022221Y009222D01*
X022239Y009216D01*
X022255Y009206D01*
X022270Y009194D01*
X022282Y009180D01*
X022292Y009163D01*
X022298Y009146D01*
X022302Y009127D01*
X022301Y009126D02*
X022301Y008536D01*
X022302Y008536D02*
X022298Y008517D01*
X022292Y008500D01*
X022282Y008483D01*
X022270Y008469D01*
X022255Y008457D01*
X022239Y008447D01*
X022221Y008441D01*
X022202Y008437D01*
X022183Y008437D01*
X021553Y008437D01*
X021534Y008437D01*
X021515Y008441D01*
X021497Y008447D01*
X021481Y008456D01*
X021466Y008469D01*
X021454Y008483D01*
X021444Y008500D01*
X021438Y008518D01*
X021434Y008536D01*
X021435Y008536D02*
X021435Y009126D01*
X021434Y009127D02*
X021438Y009146D01*
X021444Y009163D01*
X021454Y009180D01*
X021466Y009194D01*
X021481Y009206D01*
X021497Y009216D01*
X021515Y009222D01*
X021534Y009226D01*
X021553Y009226D01*
X028735Y010636D02*
X028735Y011226D01*
X028734Y011227D02*
X028738Y011246D01*
X028744Y011263D01*
X028754Y011280D01*
X028766Y011294D01*
X028781Y011306D01*
X028797Y011316D01*
X028815Y011322D01*
X028834Y011326D01*
X028853Y011326D01*
X028853Y011325D02*
X029483Y011325D01*
X029483Y011326D02*
X029502Y011326D01*
X029521Y011322D01*
X029539Y011316D01*
X029555Y011306D01*
X029570Y011294D01*
X029582Y011280D01*
X029592Y011263D01*
X029598Y011246D01*
X029602Y011227D01*
X029601Y011226D02*
X029601Y010636D01*
X029602Y010636D02*
X029598Y010617D01*
X029592Y010600D01*
X029582Y010583D01*
X029570Y010569D01*
X029555Y010557D01*
X029539Y010547D01*
X029521Y010541D01*
X029502Y010537D01*
X029483Y010537D01*
X028853Y010537D01*
X028834Y010537D01*
X028815Y010541D01*
X028797Y010547D01*
X028781Y010556D01*
X028766Y010569D01*
X028754Y010583D01*
X028744Y010600D01*
X028738Y010618D01*
X028734Y010636D01*
X028853Y012537D02*
X029483Y012537D01*
X029502Y012537D01*
X029521Y012541D01*
X029539Y012547D01*
X029555Y012557D01*
X029570Y012569D01*
X029582Y012583D01*
X029592Y012600D01*
X029598Y012617D01*
X029602Y012636D01*
X029601Y012636D02*
X029601Y013226D01*
X029602Y013227D02*
X029598Y013246D01*
X029592Y013263D01*
X029582Y013280D01*
X029570Y013294D01*
X029555Y013306D01*
X029539Y013316D01*
X029521Y013322D01*
X029502Y013326D01*
X029483Y013326D01*
X029483Y013325D02*
X028853Y013325D01*
X028853Y013326D02*
X028834Y013326D01*
X028815Y013322D01*
X028797Y013316D01*
X028781Y013306D01*
X028766Y013294D01*
X028754Y013280D01*
X028744Y013263D01*
X028738Y013246D01*
X028734Y013227D01*
X028735Y013226D02*
X028735Y012636D01*
X028734Y012636D02*
X028738Y012618D01*
X028744Y012600D01*
X028754Y012583D01*
X028766Y012569D01*
X028781Y012556D01*
X028797Y012547D01*
X028815Y012541D01*
X028834Y012537D01*
X028853Y012537D01*
X022701Y014636D02*
X022701Y015226D01*
X022702Y015227D02*
X022698Y015246D01*
X022692Y015263D01*
X022682Y015280D01*
X022670Y015294D01*
X022655Y015306D01*
X022639Y015316D01*
X022621Y015322D01*
X022602Y015326D01*
X022583Y015326D01*
X022583Y015325D02*
X021953Y015325D01*
X021953Y015326D02*
X021934Y015326D01*
X021915Y015322D01*
X021897Y015316D01*
X021881Y015306D01*
X021866Y015294D01*
X021854Y015280D01*
X021844Y015263D01*
X021838Y015246D01*
X021834Y015227D01*
X021835Y015226D02*
X021835Y014636D01*
X021834Y014636D02*
X021838Y014618D01*
X021844Y014600D01*
X021854Y014583D01*
X021866Y014569D01*
X021881Y014556D01*
X021897Y014547D01*
X021915Y014541D01*
X021934Y014537D01*
X021953Y014537D01*
X022583Y014537D01*
X022602Y014537D01*
X022621Y014541D01*
X022639Y014547D01*
X022655Y014557D01*
X022670Y014569D01*
X022682Y014583D01*
X022692Y014600D01*
X022698Y014617D01*
X022702Y014636D01*
X011355Y011519D02*
X011355Y010551D01*
X011252Y010448D02*
X010284Y010448D01*
X010185Y010551D02*
X010185Y011519D01*
X010186Y011515D02*
X010187Y011532D01*
X010192Y011549D01*
X010199Y011564D01*
X010209Y011578D01*
X010221Y011590D01*
X010235Y011600D01*
X010250Y011607D01*
X010267Y011612D01*
X010284Y011613D01*
X010284Y011614D02*
X011256Y011614D01*
X011256Y011613D02*
X011273Y011612D01*
X011290Y011607D01*
X011305Y011600D01*
X011319Y011590D01*
X011331Y011578D01*
X011341Y011564D01*
X011348Y011549D01*
X011353Y011532D01*
X011354Y011515D01*
D65*
X010896Y010775D02*
X010898Y010797D01*
X010904Y010819D01*
X010913Y010839D01*
X010926Y010857D01*
X010942Y010873D01*
X010960Y010886D01*
X010980Y010895D01*
X011002Y010901D01*
X011024Y010903D01*
X011046Y010901D01*
X011068Y010895D01*
X011088Y010886D01*
X011106Y010873D01*
X011122Y010857D01*
X011135Y010839D01*
X011144Y010819D01*
X011150Y010797D01*
X011152Y010775D01*
X011150Y010753D01*
X011144Y010731D01*
X011135Y010711D01*
X011122Y010693D01*
X011106Y010677D01*
X011088Y010664D01*
X011068Y010655D01*
X011046Y010649D01*
X011024Y010647D01*
X011002Y010649D01*
X010980Y010655D01*
X010960Y010664D01*
X010942Y010677D01*
X010926Y010693D01*
X010913Y010711D01*
X010904Y010731D01*
X010898Y010753D01*
X010896Y010775D01*
X010896Y015775D02*
X010898Y015797D01*
X010904Y015819D01*
X010913Y015839D01*
X010926Y015857D01*
X010942Y015873D01*
X010960Y015886D01*
X010980Y015895D01*
X011002Y015901D01*
X011024Y015903D01*
X011046Y015901D01*
X011068Y015895D01*
X011088Y015886D01*
X011106Y015873D01*
X011122Y015857D01*
X011135Y015839D01*
X011144Y015819D01*
X011150Y015797D01*
X011152Y015775D01*
X011150Y015753D01*
X011144Y015731D01*
X011135Y015711D01*
X011122Y015693D01*
X011106Y015677D01*
X011088Y015664D01*
X011068Y015655D01*
X011046Y015649D01*
X011024Y015647D01*
X011002Y015649D01*
X010980Y015655D01*
X010960Y015664D01*
X010942Y015677D01*
X010926Y015693D01*
X010913Y015711D01*
X010904Y015731D01*
X010898Y015753D01*
X010896Y015775D01*
X020784Y012187D02*
X020786Y012209D01*
X020792Y012231D01*
X020801Y012251D01*
X020814Y012269D01*
X020830Y012285D01*
X020848Y012298D01*
X020868Y012307D01*
X020890Y012313D01*
X020912Y012315D01*
X020934Y012313D01*
X020956Y012307D01*
X020976Y012298D01*
X020994Y012285D01*
X021010Y012269D01*
X021023Y012251D01*
X021032Y012231D01*
X021038Y012209D01*
X021040Y012187D01*
X021038Y012165D01*
X021032Y012143D01*
X021023Y012123D01*
X021010Y012105D01*
X020994Y012089D01*
X020976Y012076D01*
X020956Y012067D01*
X020934Y012061D01*
X020912Y012059D01*
X020890Y012061D01*
X020868Y012067D01*
X020848Y012076D01*
X020830Y012089D01*
X020814Y012105D01*
X020801Y012123D01*
X020792Y012143D01*
X020786Y012165D01*
X020784Y012187D01*
D66*
X020918Y014431D02*
X021418Y014431D01*
X021668Y014681D01*
X021668Y015181D01*
X021418Y015431D01*
X020918Y015431D01*
X020668Y015181D01*
X020668Y014681D01*
X020918Y014431D01*
X025702Y013601D02*
X025702Y010222D01*
X025701Y010221D02*
X025706Y010201D01*
X025714Y010182D01*
X025725Y010164D01*
X025738Y010148D01*
X025754Y010135D01*
X025771Y010124D01*
X025790Y010116D01*
X025810Y010111D01*
X025831Y010109D01*
X025852Y010110D01*
X025852Y010111D02*
X027084Y010111D01*
X027107Y010113D01*
X027130Y010118D01*
X027152Y010127D01*
X027172Y010140D01*
X027190Y010155D01*
X027205Y010173D01*
X027218Y010193D01*
X027227Y010215D01*
X027232Y010238D01*
X027234Y010261D01*
X027234Y013601D01*
X027235Y013601D02*
X027230Y013625D01*
X027222Y013648D01*
X027211Y013669D01*
X027197Y013689D01*
X027180Y013707D01*
X027161Y013722D01*
X027140Y013735D01*
X027118Y013744D01*
X027094Y013750D01*
X027070Y013752D01*
X027045Y013751D01*
X027040Y013751D02*
X026708Y013751D01*
X026708Y013731D02*
X026706Y013701D01*
X026701Y013671D01*
X026692Y013642D01*
X026679Y013615D01*
X026664Y013589D01*
X026645Y013565D01*
X026624Y013544D01*
X026600Y013525D01*
X026574Y013510D01*
X026547Y013497D01*
X026518Y013488D01*
X026488Y013483D01*
X026458Y013481D01*
X026428Y013483D01*
X026398Y013488D01*
X026369Y013497D01*
X026342Y013510D01*
X026316Y013525D01*
X026292Y013544D01*
X026271Y013565D01*
X026252Y013589D01*
X026237Y013615D01*
X026224Y013642D01*
X026215Y013671D01*
X026210Y013701D01*
X026208Y013731D01*
X026208Y013751D02*
X025812Y013751D01*
X025812Y013752D02*
X025792Y013747D01*
X025773Y013739D01*
X025755Y013728D01*
X025739Y013715D01*
X025726Y013699D01*
X025715Y013682D01*
X025707Y013663D01*
X025702Y013643D01*
X025700Y013622D01*
X025701Y013601D01*
X028168Y014481D02*
X028168Y014981D01*
X028418Y015231D01*
X028918Y015231D01*
X029168Y014981D01*
X029168Y014481D01*
X028918Y014231D01*
X028418Y014231D01*
X028168Y014481D01*
X033168Y014481D02*
X033418Y014231D01*
X033918Y014231D01*
X034168Y014481D01*
X034168Y014981D01*
X033918Y015231D01*
X033418Y015231D01*
X033168Y014981D01*
X033168Y014481D01*
X028918Y009431D02*
X028418Y009431D01*
X028168Y009181D01*
X028168Y008681D01*
X028418Y008431D01*
X028918Y008431D01*
X029168Y008681D01*
X029168Y009181D01*
X028918Y009431D01*
X021168Y009081D02*
X021168Y008581D01*
X020918Y008331D01*
X020418Y008331D01*
X020168Y008581D01*
X020168Y009081D01*
X020418Y009331D01*
X020918Y009331D01*
X021168Y009081D01*
X016085Y009195D02*
X015835Y008945D01*
X015335Y008945D01*
X015085Y009195D01*
X014835Y008945D01*
X014335Y008945D01*
X014085Y009195D01*
X014085Y009695D01*
X014335Y009945D01*
X014835Y009945D01*
X015085Y009695D01*
X015335Y009945D01*
X015835Y009945D01*
X016085Y009695D01*
X016085Y009195D01*
X013648Y010061D02*
X012408Y010061D01*
X012408Y010927D01*
X012408Y011675D02*
X012408Y012344D01*
X012526Y012502D01*
X013490Y012502D01*
X013628Y012344D01*
X013628Y011675D01*
X013648Y010927D02*
X013648Y010061D01*
X012199Y009348D02*
X012018Y009348D01*
X012110Y009226D01*
X012018Y009348D02*
X011837Y009348D01*
X011932Y009226D02*
X012008Y009342D01*
X009128Y009637D02*
X009128Y008968D01*
X009010Y008811D01*
X008046Y008811D01*
X007908Y008968D01*
X007908Y009637D01*
X007888Y010385D02*
X007888Y011252D01*
X009128Y011252D01*
X009128Y010385D01*
X009148Y012811D02*
X007908Y012811D01*
X007908Y013677D01*
X007908Y014425D02*
X007908Y015094D01*
X008026Y015252D01*
X008990Y015252D01*
X009128Y015094D01*
X009128Y014425D01*
X009148Y013677D02*
X009148Y012811D01*
X011837Y014214D02*
X012018Y014214D01*
X011926Y014336D01*
X012018Y014214D02*
X012199Y014214D01*
X012104Y014336D02*
X012028Y014220D01*
X012546Y015061D02*
X013510Y015061D01*
X013628Y015218D01*
X013628Y015887D01*
X014085Y016066D02*
X014085Y015566D01*
X014335Y015316D01*
X014835Y015316D01*
X015085Y015566D01*
X015335Y015316D01*
X015835Y015316D01*
X016085Y015566D01*
X016085Y016066D01*
X015835Y016316D01*
X015335Y016316D01*
X015085Y016066D01*
X014835Y016316D01*
X014335Y016316D01*
X014085Y016066D01*
X013628Y016635D02*
X013628Y017502D01*
X012388Y017502D01*
X012388Y016635D01*
X012408Y015887D02*
X012408Y015218D01*
X012546Y015061D01*
X014051Y014738D02*
X014051Y014238D01*
X014301Y013988D01*
X014801Y013988D01*
X015051Y014238D01*
X015301Y013988D01*
X015801Y013988D01*
X016051Y014238D01*
X016051Y014738D01*
X015801Y014988D01*
X015301Y014988D01*
X015051Y014738D01*
X014801Y014988D01*
X014301Y014988D01*
X014051Y014738D01*
D67*
X010768Y014193D02*
X010768Y014169D01*
X010768Y012043D02*
X010768Y012019D01*
X010768Y009193D02*
X010768Y009169D01*
X019556Y010331D02*
X019580Y010331D01*
X021856Y010431D02*
X021880Y010431D01*
X019580Y013031D02*
X019556Y013031D01*
X022256Y013531D02*
X022280Y013531D01*
X033633Y013851D02*
X033633Y013875D01*
X010768Y017019D02*
X010768Y017043D01*
D68*
X012512Y016041D02*
X013534Y016041D01*
X009024Y014271D02*
X008002Y014271D01*
X012502Y011521D02*
X013524Y011521D01*
X009034Y009791D02*
X008012Y009791D01*
D69*
X010768Y010031D03*
X012968Y009331D03*
X010768Y008331D03*
X017917Y011474D03*
X020668Y010831D03*
X020668Y009931D03*
X021903Y008037D03*
X021168Y013131D03*
X021168Y013831D03*
X019833Y014944D03*
X013018Y014281D03*
X010768Y015031D03*
X010768Y013331D03*
X030268Y008231D03*
X031568Y009531D03*
X031568Y010431D03*
X033368Y008231D03*
X030968Y013531D03*
X031668Y015031D03*
D70*
X008305Y007415D02*
X008305Y006615D01*
X009105Y006615D01*
X009105Y006815D01*
X009305Y006815D01*
X009505Y006615D01*
X009905Y006615D01*
X010105Y006815D01*
X010305Y006815D01*
X010505Y006615D01*
X010905Y006615D01*
X011105Y006815D01*
X011305Y006815D01*
X011505Y006615D01*
X011905Y006615D01*
X012105Y006815D01*
X012105Y007215D01*
X011905Y007415D01*
X011505Y007415D01*
X011305Y007215D01*
X011105Y007215D01*
X010905Y007415D01*
X010505Y007415D01*
X010305Y007215D01*
X010105Y007215D01*
X009905Y007415D01*
X009505Y007415D01*
X009305Y007215D01*
X009105Y007215D01*
X009105Y007415D01*
X008305Y007415D01*
X017396Y010159D02*
X017396Y010356D01*
X017396Y010159D02*
X018340Y010159D01*
X018340Y010592D02*
X018340Y010670D01*
X017986Y010749D02*
X017986Y010513D01*
X017671Y010631D02*
X017673Y010661D01*
X017679Y010691D01*
X017688Y010720D01*
X017701Y010747D01*
X017718Y010772D01*
X017737Y010795D01*
X017760Y010816D01*
X017785Y010833D01*
X017811Y010847D01*
X017840Y010857D01*
X017869Y010864D01*
X017899Y010867D01*
X017930Y010866D01*
X017960Y010861D01*
X017989Y010852D01*
X018016Y010840D01*
X018042Y010825D01*
X018066Y010806D01*
X018087Y010784D01*
X018105Y010760D01*
X018120Y010733D01*
X018131Y010705D01*
X018139Y010676D01*
X018143Y010646D01*
X018143Y010616D01*
X018139Y010586D01*
X018131Y010557D01*
X018120Y010529D01*
X018105Y010502D01*
X018087Y010478D01*
X018066Y010456D01*
X018042Y010437D01*
X018016Y010422D01*
X017989Y010410D01*
X017960Y010401D01*
X017930Y010396D01*
X017899Y010395D01*
X017869Y010398D01*
X017840Y010405D01*
X017811Y010415D01*
X017785Y010429D01*
X017760Y010446D01*
X017737Y010467D01*
X017718Y010490D01*
X017701Y010515D01*
X017688Y010542D01*
X017679Y010571D01*
X017673Y010601D01*
X017671Y010631D01*
X017829Y010513D02*
X017829Y010749D01*
X017396Y010907D02*
X017396Y011104D01*
X018340Y011104D01*
X018540Y012559D02*
X017596Y012559D01*
X017596Y012756D01*
X018029Y012913D02*
X018029Y013149D01*
X017871Y013031D02*
X017873Y013061D01*
X017879Y013091D01*
X017888Y013120D01*
X017901Y013147D01*
X017918Y013172D01*
X017937Y013195D01*
X017960Y013216D01*
X017985Y013233D01*
X018011Y013247D01*
X018040Y013257D01*
X018069Y013264D01*
X018099Y013267D01*
X018130Y013266D01*
X018160Y013261D01*
X018189Y013252D01*
X018216Y013240D01*
X018242Y013225D01*
X018266Y013206D01*
X018287Y013184D01*
X018305Y013160D01*
X018320Y013133D01*
X018331Y013105D01*
X018339Y013076D01*
X018343Y013046D01*
X018343Y013016D01*
X018339Y012986D01*
X018331Y012957D01*
X018320Y012929D01*
X018305Y012902D01*
X018287Y012878D01*
X018266Y012856D01*
X018242Y012837D01*
X018216Y012822D01*
X018189Y012810D01*
X018160Y012801D01*
X018130Y012796D01*
X018099Y012795D01*
X018069Y012798D01*
X018040Y012805D01*
X018011Y012815D01*
X017985Y012829D01*
X017960Y012846D01*
X017937Y012867D01*
X017918Y012890D01*
X017901Y012915D01*
X017888Y012942D01*
X017879Y012971D01*
X017873Y013001D01*
X017871Y013031D01*
X018186Y013149D02*
X018186Y012913D01*
X018540Y012992D02*
X018540Y013070D01*
X018540Y013504D02*
X017596Y013504D01*
X017596Y013307D01*
X030459Y007415D02*
X030459Y006615D01*
X031259Y006615D01*
X031259Y006815D01*
X031459Y006815D01*
X031659Y006615D01*
X032059Y006615D01*
X032259Y006815D01*
X032459Y006815D01*
X032659Y006615D01*
X033059Y006615D01*
X033259Y006815D01*
X033259Y007215D01*
X033059Y007415D01*
X032659Y007415D01*
X032459Y007215D01*
X032259Y007215D01*
X032059Y007415D01*
X031659Y007415D01*
X031459Y007215D01*
X031259Y007215D01*
X031259Y007415D01*
X030459Y007415D01*
X030881Y010947D02*
X030881Y012915D01*
X032455Y012915D01*
X032455Y010947D01*
X030881Y010947D01*
X030979Y012719D02*
X030981Y012738D01*
X030986Y012757D01*
X030996Y012773D01*
X031008Y012788D01*
X031023Y012800D01*
X031039Y012810D01*
X031058Y012815D01*
X031077Y012817D01*
X031096Y012815D01*
X031115Y012810D01*
X031131Y012800D01*
X031146Y012788D01*
X031158Y012773D01*
X031168Y012757D01*
X031173Y012738D01*
X031175Y012719D01*
X031173Y012700D01*
X031168Y012681D01*
X031158Y012665D01*
X031146Y012650D01*
X031131Y012638D01*
X031115Y012628D01*
X031096Y012623D01*
X031077Y012621D01*
X031058Y012623D01*
X031039Y012628D01*
X031023Y012638D01*
X031008Y012650D01*
X030996Y012665D01*
X030986Y012681D01*
X030981Y012700D01*
X030979Y012719D01*
X031196Y015559D02*
X032140Y015559D01*
X032140Y015756D01*
X031707Y015913D02*
X031707Y016149D01*
X031393Y016031D02*
X031395Y016061D01*
X031401Y016091D01*
X031410Y016120D01*
X031423Y016147D01*
X031440Y016172D01*
X031459Y016195D01*
X031482Y016216D01*
X031507Y016233D01*
X031533Y016247D01*
X031562Y016257D01*
X031591Y016264D01*
X031621Y016267D01*
X031652Y016266D01*
X031682Y016261D01*
X031711Y016252D01*
X031738Y016240D01*
X031764Y016225D01*
X031788Y016206D01*
X031809Y016184D01*
X031827Y016160D01*
X031842Y016133D01*
X031853Y016105D01*
X031861Y016076D01*
X031865Y016046D01*
X031865Y016016D01*
X031861Y015986D01*
X031853Y015957D01*
X031842Y015929D01*
X031827Y015902D01*
X031809Y015878D01*
X031788Y015856D01*
X031764Y015837D01*
X031738Y015822D01*
X031711Y015810D01*
X031682Y015801D01*
X031652Y015796D01*
X031621Y015795D01*
X031591Y015798D01*
X031562Y015805D01*
X031533Y015815D01*
X031507Y015829D01*
X031482Y015846D01*
X031459Y015867D01*
X031440Y015890D01*
X031423Y015915D01*
X031410Y015942D01*
X031401Y015971D01*
X031395Y016001D01*
X031393Y016031D01*
X031550Y015913D02*
X031550Y016149D01*
X031196Y016070D02*
X031196Y015992D01*
X031196Y016504D02*
X032140Y016504D01*
X032140Y016307D01*
D71*
X030468Y015931D03*
X032168Y013731D03*
X022606Y010980D03*
X029868Y007131D03*
X033768Y007131D03*
M02*
