G75*
G70*
%OFA0B0*%
%FSLAX24Y24*%
%IPPOS*%
%LPD*%
%AMOC8*
5,1,8,0,0,1.08239X$1,22.5*
%
%ADD10R,0.0433X0.0157*%
%ADD11R,0.0800X0.0260*%
%ADD12R,0.0433X0.0394*%
%ADD13R,0.0984X0.0669*%
%ADD14R,0.0394X0.0433*%
%ADD15R,0.0250X0.0500*%
%ADD16R,0.0960X0.0900*%
%ADD17R,0.0500X0.0250*%
%ADD18R,0.0354X0.0354*%
%ADD19R,0.0276X0.0236*%
%ADD20R,0.0315X0.0315*%
D10*
X009882Y010647D03*
X009882Y010903D03*
X009882Y011159D03*
X009882Y011415D03*
X011654Y011415D03*
X011654Y011159D03*
X011654Y010903D03*
X011654Y010647D03*
X011654Y015647D03*
X011654Y015903D03*
X011654Y016159D03*
X011654Y016415D03*
X009882Y016415D03*
X009882Y016159D03*
X009882Y015903D03*
X009882Y015647D03*
X020282Y012315D03*
X020282Y012059D03*
X020282Y011803D03*
X020282Y011547D03*
X022054Y011547D03*
X022054Y011803D03*
X022054Y012059D03*
X022054Y012315D03*
D11*
X025163Y012431D03*
X025163Y011931D03*
X025163Y011431D03*
X025163Y010931D03*
X025163Y010431D03*
X027773Y010431D03*
X027773Y010931D03*
X027773Y011431D03*
X027773Y011931D03*
X027773Y012431D03*
X027773Y012931D03*
X027773Y013431D03*
X025163Y013431D03*
X025163Y012931D03*
D12*
X010433Y008331D03*
X011103Y008331D03*
X011103Y009181D03*
X010433Y009181D03*
X010433Y010031D03*
X011103Y010031D03*
X012633Y009331D03*
X013303Y009331D03*
X011103Y012031D03*
X010433Y012031D03*
X010433Y013331D03*
X011103Y013331D03*
X011103Y014181D03*
X010433Y014181D03*
X010433Y015031D03*
X011103Y015031D03*
X012683Y014281D03*
X013353Y014281D03*
X011103Y017031D03*
X010433Y017031D03*
X017582Y011474D03*
X018251Y011474D03*
X020333Y010831D03*
X021003Y010831D03*
X021003Y009931D03*
X020333Y009931D03*
X021568Y008037D03*
X022237Y008037D03*
X029933Y008231D03*
X030603Y008231D03*
X031233Y009531D03*
X031903Y009531D03*
X031903Y010431D03*
X031233Y010431D03*
X033033Y008231D03*
X033703Y008231D03*
X031303Y013531D03*
X030633Y013531D03*
X031333Y015031D03*
X032003Y015031D03*
X033299Y013863D03*
X033968Y013863D03*
X021503Y013831D03*
X020833Y013831D03*
X020833Y013131D03*
X021503Y013131D03*
X020168Y014944D03*
X019499Y014944D03*
D13*
X013018Y015533D03*
X013018Y017029D03*
X008518Y014779D03*
X008518Y013283D03*
X008518Y010779D03*
X008518Y009283D03*
X013018Y010533D03*
X013018Y012029D03*
D14*
X019568Y012696D03*
X019568Y013366D03*
X022268Y013196D03*
X022268Y013866D03*
X022606Y011315D03*
X022606Y010645D03*
X021868Y010766D03*
X021868Y010096D03*
X019568Y009996D03*
X019568Y010666D03*
X029868Y007466D03*
X029868Y006796D03*
X033768Y006796D03*
X033768Y007466D03*
X032168Y013396D03*
X032168Y014066D03*
X030468Y015596D03*
X030468Y016266D03*
D15*
X029330Y012931D03*
X029006Y012931D03*
X029006Y010931D03*
X029330Y010931D03*
X022430Y014931D03*
X022106Y014931D03*
X018156Y012110D03*
X017832Y012110D03*
X018738Y010452D03*
X019062Y010452D03*
X021706Y008831D03*
X022030Y008831D03*
D16*
X021868Y008831D03*
X018900Y010452D03*
X017994Y012110D03*
X022268Y014931D03*
X029168Y012931D03*
X029168Y010931D03*
D17*
X030668Y011181D03*
X030668Y011681D03*
X030668Y012181D03*
X030668Y012681D03*
X032668Y012681D03*
X032668Y012181D03*
X032668Y011681D03*
X032668Y011181D03*
D18*
X032140Y016031D03*
X017596Y013031D03*
X017396Y010631D03*
D19*
X018340Y010375D03*
X018340Y010887D03*
X018540Y012775D03*
X018540Y013287D03*
X031196Y015775D03*
X031196Y016287D03*
D20*
X012018Y014576D03*
X012018Y013986D03*
X012018Y009576D03*
X012018Y008986D03*
M02*
