%
M48
M72
T01C0.0315
T02C0.0394
T03C0.0400
T04C0.0787
%
T01
X11968Y8331
X13568Y6831
X15368Y6831
X16868Y6931
X17868Y9331
X19668Y9331
X22568Y9831
X24068Y10031
X26468Y9731
X23068Y11831
X22668Y12431
X21168Y12531
X18968Y12331
X18868Y11431
X22968Y14131
X25968Y14131
X27468Y14131
X29968Y13831
X30468Y14531
X33568Y12631
X34768Y13331
X33268Y11431
X34768Y11031
X33768Y9631
X34268Y8931
X32568Y9631
X31968Y8831
X30468Y9931
X28568Y11931
X24368Y11931
X20368Y15631
X21268Y17131
X24468Y17131
X27568Y17131
X31068Y17131
X18168Y17131
X16868Y15531
X15168Y17131
X8868Y15731
X11768Y12631
X8468Y12331
X8468Y11631
X7568Y8531
X23968Y6831
X25968Y6831
X27968Y6831
T02
X30859Y7015
X31859Y7015
X32859Y7015
X11705Y7015
X10705Y7015
X9705Y7015
X8705Y7015
T03
X14515Y9445
X15655Y9445
X20668Y8831
X28668Y8931
X28668Y14731
X33668Y14731
X21168Y14931
X15621Y14488
X14481Y14488
X14515Y15816
X15655Y15816
T04
X7252Y7015
X7449Y16464
X34614Y16464
X34811Y7015
M30
