G75*
G70*
%OFA0B0*%
%FSLAX24Y24*%
%IPPOS*%
%LPD*%
%AMOC8*
5,1,8,0,0,1.08239X$1,22.5*
%
%ADD10C,0.0100*%
%ADD11C,0.0000*%
%ADD12R,0.0433X0.0157*%
%ADD13R,0.0800X0.0260*%
%ADD14R,0.0433X0.0394*%
%ADD15R,0.0984X0.0669*%
%ADD16R,0.0394X0.0433*%
%ADD17R,0.0250X0.0500*%
%ADD18C,0.0740*%
%ADD19R,0.0500X0.0250*%
%ADD20R,0.0354X0.0354*%
%ADD21R,0.0276X0.0236*%
%ADD22R,0.0660X0.0660*%
%ADD23OC8,0.0660*%
%ADD24R,0.0594X0.0594*%
%ADD25OC8,0.0594*%
%ADD26R,0.0315X0.0315*%
%ADD27OC8,0.0475*%
%ADD28C,0.0160*%
%ADD29C,0.0320*%
D10*
X006268Y006031D02*
X006268Y015874D01*
X006568Y015874D02*
X006578Y016060D01*
X006662Y016425D01*
X006824Y016761D01*
X007057Y017053D01*
X007349Y017286D01*
X007685Y017448D01*
X008050Y017532D01*
X008236Y017542D01*
X009204Y017542D01*
X009202Y017512D01*
X009147Y017185D01*
X009055Y016867D01*
X008928Y016561D01*
X008768Y016271D01*
X008577Y016001D01*
X008356Y015754D01*
X008109Y015534D01*
X007839Y015342D01*
X007549Y015182D01*
X007451Y015141D01*
X007106Y015141D01*
X006992Y015094D01*
X006905Y015007D01*
X006849Y014950D01*
X006599Y014908D01*
X006568Y014906D01*
X006568Y015874D01*
X006568Y015881D02*
X007175Y015881D01*
X007084Y015918D02*
X007321Y015820D01*
X007577Y015820D01*
X007814Y015918D01*
X007995Y016100D01*
X008093Y016336D01*
X008093Y016592D01*
X007995Y016829D01*
X007814Y017010D01*
X007577Y017108D01*
X007321Y017108D01*
X007084Y017010D01*
X006903Y016829D01*
X006805Y016592D01*
X006805Y016336D01*
X006903Y016100D01*
X007084Y015918D01*
X007023Y015980D02*
X006574Y015980D01*
X006583Y016078D02*
X006925Y016078D01*
X006871Y016177D02*
X006605Y016177D01*
X006627Y016275D02*
X006831Y016275D01*
X006805Y016374D02*
X006650Y016374D01*
X006684Y016472D02*
X006805Y016472D01*
X006805Y016571D02*
X006732Y016571D01*
X006779Y016669D02*
X006837Y016669D01*
X006829Y016768D02*
X006878Y016768D01*
X006907Y016866D02*
X006941Y016866D01*
X006986Y016965D02*
X007039Y016965D01*
X007069Y017063D02*
X007213Y017063D01*
X007192Y017162D02*
X009140Y017162D01*
X009159Y017260D02*
X007316Y017260D01*
X007499Y017359D02*
X009176Y017359D01*
X009193Y017457D02*
X007723Y017457D01*
X007685Y017063D02*
X009112Y017063D01*
X009083Y016965D02*
X007859Y016965D01*
X007957Y016866D02*
X009055Y016866D01*
X009014Y016768D02*
X008020Y016768D01*
X008061Y016669D02*
X008973Y016669D01*
X008932Y016571D02*
X008093Y016571D01*
X008093Y016472D02*
X008879Y016472D01*
X008825Y016374D02*
X008093Y016374D01*
X008068Y016275D02*
X008770Y016275D01*
X008701Y016177D02*
X008027Y016177D01*
X007973Y016078D02*
X008631Y016078D01*
X008557Y015980D02*
X007875Y015980D01*
X007724Y015881D02*
X008469Y015881D01*
X008381Y015783D02*
X006568Y015783D01*
X006568Y015684D02*
X008277Y015684D01*
X008167Y015586D02*
X006568Y015586D01*
X006568Y015487D02*
X008044Y015487D01*
X007905Y015389D02*
X006568Y015389D01*
X006568Y015290D02*
X007745Y015290D01*
X007567Y015192D02*
X006568Y015192D01*
X006568Y015093D02*
X006992Y015093D01*
X006893Y014995D02*
X006568Y014995D01*
X007278Y014503D02*
X007296Y014521D01*
X007876Y014521D01*
X007876Y014382D01*
X007964Y014294D01*
X009072Y014294D01*
X009160Y014382D01*
X009160Y014469D01*
X009478Y014469D01*
X009592Y014516D01*
X009744Y014668D01*
X009831Y014756D01*
X009878Y014869D01*
X009878Y015417D01*
X009977Y015417D01*
X009979Y015419D01*
X010161Y015419D01*
X010249Y015506D01*
X010249Y015959D01*
X010313Y015959D01*
X010268Y015914D01*
X010268Y015378D01*
X010155Y015378D01*
X010067Y015290D01*
X009878Y015290D01*
X009878Y015192D02*
X010067Y015192D01*
X010067Y015290D02*
X010067Y014772D01*
X010155Y014684D01*
X010233Y014684D01*
X010233Y014528D01*
X010155Y014528D01*
X010067Y014440D01*
X010067Y013922D01*
X010155Y013834D01*
X010233Y013834D01*
X010233Y013678D01*
X010155Y013678D01*
X010067Y013590D01*
X010067Y013072D01*
X010155Y012984D01*
X010712Y012984D01*
X010768Y013040D01*
X010794Y013014D01*
X010828Y012994D01*
X010866Y012984D01*
X011054Y012984D01*
X011054Y013283D01*
X011151Y013283D01*
X011151Y013380D01*
X011054Y013380D01*
X011054Y013678D01*
X010866Y013678D01*
X010828Y013668D01*
X010794Y013648D01*
X010768Y013622D01*
X010712Y013678D01*
X010633Y013678D01*
X010633Y013834D01*
X010712Y013834D01*
X010768Y013890D01*
X010824Y013834D01*
X011381Y013834D01*
X011469Y013922D01*
X011469Y014440D01*
X011381Y014528D01*
X011333Y014528D01*
X011333Y014684D01*
X011381Y014684D01*
X011469Y014772D01*
X011469Y014801D01*
X011663Y014801D01*
X011763Y014901D01*
X011898Y015036D01*
X011898Y015417D01*
X012376Y015417D01*
X012376Y015136D01*
X012451Y015061D01*
X012273Y015061D01*
X012138Y014926D01*
X012095Y014884D01*
X011798Y014884D01*
X011710Y014796D01*
X011710Y014357D01*
X011786Y014281D01*
X011710Y014205D01*
X011710Y013766D01*
X011798Y013678D01*
X012238Y013678D01*
X012315Y013756D01*
X012483Y013756D01*
X012662Y013934D01*
X012962Y013934D01*
X013018Y013990D01*
X013044Y013964D01*
X013078Y013944D01*
X013116Y013934D01*
X013304Y013934D01*
X013304Y014233D01*
X013401Y014233D01*
X013401Y014330D01*
X013719Y014330D01*
X013719Y014498D01*
X013709Y014536D01*
X013689Y014570D01*
X013661Y014598D01*
X013656Y014601D01*
X013863Y014601D01*
X014074Y014812D01*
X014037Y014760D01*
X014000Y014687D01*
X013974Y014610D01*
X013963Y014538D01*
X014431Y014538D01*
X014431Y014438D01*
X013963Y014438D01*
X013974Y014366D01*
X014000Y014288D01*
X014037Y014215D01*
X014085Y014149D01*
X014143Y014091D01*
X014209Y014043D01*
X014282Y014006D01*
X014360Y013981D01*
X014431Y013969D01*
X014431Y014438D01*
X014531Y014438D01*
X014531Y013969D01*
X014603Y013981D01*
X014681Y014006D01*
X014754Y014043D01*
X014820Y014091D01*
X014878Y014149D01*
X014926Y014215D01*
X014963Y014288D01*
X014989Y014366D01*
X015000Y014438D01*
X014531Y014438D01*
X014531Y014538D01*
X015000Y014538D01*
X014989Y014610D01*
X014963Y014687D01*
X014926Y014760D01*
X014878Y014827D01*
X014820Y014884D01*
X014797Y014901D01*
X015306Y014901D01*
X015283Y014884D01*
X015225Y014827D01*
X015177Y014760D01*
X015140Y014687D01*
X015114Y014610D01*
X015103Y014538D01*
X015571Y014538D01*
X015571Y014438D01*
X015103Y014438D01*
X015114Y014366D01*
X015140Y014288D01*
X015177Y014215D01*
X015225Y014149D01*
X015283Y014091D01*
X015349Y014043D01*
X015422Y014006D01*
X015500Y013981D01*
X015571Y013969D01*
X015571Y014438D01*
X015671Y014438D01*
X015671Y013969D01*
X015743Y013981D01*
X015821Y014006D01*
X015894Y014043D01*
X015960Y014091D01*
X016018Y014149D01*
X016066Y014215D01*
X016103Y014288D01*
X016129Y014366D01*
X016140Y014438D01*
X015671Y014438D01*
X015671Y014538D01*
X016140Y014538D01*
X016129Y014610D01*
X016103Y014687D01*
X016066Y014760D01*
X016018Y014827D01*
X015960Y014884D01*
X015894Y014933D01*
X015821Y014970D01*
X015754Y014992D01*
X015763Y015001D01*
X015763Y015001D01*
X015898Y015136D01*
X015898Y015354D01*
X015949Y015375D01*
X016095Y015522D01*
X016122Y015586D01*
X016480Y015586D01*
X016480Y015371D01*
X016638Y015213D01*
X016638Y007249D01*
X016480Y007092D01*
X016480Y006771D01*
X016707Y006544D01*
X017028Y006544D01*
X017255Y006771D01*
X017255Y007092D01*
X017098Y007249D01*
X017098Y010362D01*
X017156Y010304D01*
X017166Y010304D01*
X017166Y010008D01*
X017338Y009836D01*
X017473Y009701D01*
X019238Y009701D01*
X019309Y009630D01*
X019827Y009630D01*
X019898Y009701D01*
X019967Y009701D01*
X019967Y009672D01*
X020055Y009584D01*
X020103Y009584D01*
X020103Y008870D01*
X020148Y008826D01*
X020148Y008728D01*
X020227Y008537D01*
X020373Y008390D01*
X020565Y008311D01*
X020771Y008311D01*
X020963Y008390D01*
X021109Y008537D01*
X021136Y008601D01*
X021431Y008601D01*
X021431Y008519D01*
X021476Y008474D01*
X021476Y008384D01*
X021289Y008384D01*
X021201Y008296D01*
X021201Y007778D01*
X021289Y007691D01*
X021847Y007691D01*
X021903Y007747D01*
X021929Y007721D01*
X021963Y007701D01*
X022001Y007691D01*
X022189Y007691D01*
X022189Y007989D01*
X022286Y007989D01*
X022286Y008086D01*
X022604Y008086D01*
X022604Y008254D01*
X022594Y008292D01*
X022574Y008326D01*
X022546Y008354D01*
X022512Y008374D01*
X022474Y008384D01*
X022286Y008384D01*
X022286Y008086D01*
X022189Y008086D01*
X022189Y008384D01*
X022001Y008384D01*
X021963Y008374D01*
X021936Y008358D01*
X021936Y008431D01*
X022217Y008431D01*
X022305Y008519D01*
X022305Y008601D01*
X023463Y008601D01*
X023663Y008801D01*
X023798Y008936D01*
X023798Y010701D01*
X024651Y010701D01*
X024671Y010681D01*
X024613Y010623D01*
X024613Y010239D01*
X024701Y010151D01*
X025625Y010151D01*
X025713Y010239D01*
X025713Y010623D01*
X025655Y010681D01*
X025713Y010739D01*
X025713Y011123D01*
X025655Y011181D01*
X025675Y011201D01*
X025963Y011201D01*
X026098Y011336D01*
X026198Y011436D01*
X026198Y012926D01*
X026438Y012926D01*
X026438Y012828D02*
X026198Y012828D01*
X026198Y012926D02*
X026063Y013061D01*
X025963Y013161D01*
X025675Y013161D01*
X025655Y013181D01*
X025713Y013239D01*
X025713Y013623D01*
X025625Y013711D01*
X024701Y013711D01*
X024613Y013623D01*
X024613Y013239D01*
X024671Y013181D01*
X024651Y013161D01*
X023763Y013161D01*
X023698Y013226D01*
X023698Y014826D01*
X023563Y014961D01*
X023363Y015161D01*
X022705Y015161D01*
X022705Y015243D01*
X022617Y015331D01*
X021919Y015331D01*
X021831Y015243D01*
X021831Y015161D01*
X021636Y015161D01*
X021609Y015226D01*
X021463Y015372D01*
X021392Y015401D01*
X026438Y015401D01*
X026438Y011936D01*
X026573Y011801D01*
X026673Y011701D01*
X027261Y011701D01*
X027281Y011681D01*
X027223Y011623D01*
X027223Y011239D01*
X027281Y011181D01*
X027223Y011123D01*
X027223Y010739D01*
X027281Y010681D01*
X027253Y010653D01*
X027233Y010619D01*
X027223Y010581D01*
X027223Y010446D01*
X027758Y010446D01*
X027758Y010416D01*
X027788Y010416D01*
X027788Y010151D01*
X028193Y010151D01*
X028231Y010161D01*
X028265Y010181D01*
X028293Y010209D01*
X028313Y010243D01*
X028323Y010281D01*
X028323Y010416D01*
X027788Y010416D01*
X027788Y010446D01*
X028323Y010446D01*
X028323Y010581D01*
X028313Y010619D01*
X028293Y010653D01*
X028265Y010681D01*
X028285Y010701D01*
X028438Y010701D01*
X028438Y009399D01*
X028373Y009372D01*
X028227Y009226D01*
X028148Y009035D01*
X028148Y008828D01*
X028227Y008637D01*
X028373Y008490D01*
X028565Y008411D01*
X028771Y008411D01*
X028963Y008490D01*
X029109Y008637D01*
X029188Y008828D01*
X029188Y009035D01*
X029109Y009226D01*
X028963Y009372D01*
X028898Y009399D01*
X028898Y010531D01*
X029517Y010531D01*
X029605Y010619D01*
X029605Y010701D01*
X029963Y010701D01*
X030098Y010836D01*
X030213Y010951D01*
X030311Y010951D01*
X030356Y010906D01*
X030938Y010906D01*
X030938Y010761D01*
X030867Y010690D01*
X030867Y010172D01*
X030955Y010084D01*
X031003Y010084D01*
X031003Y009878D01*
X030955Y009878D01*
X030867Y009790D01*
X030867Y009272D01*
X030955Y009184D01*
X031512Y009184D01*
X031568Y009240D01*
X031624Y009184D01*
X031738Y009184D01*
X031738Y009149D01*
X031580Y008992D01*
X031580Y008671D01*
X031790Y008461D01*
X030969Y008461D01*
X030969Y008490D01*
X030881Y008578D01*
X030324Y008578D01*
X030268Y008522D01*
X030212Y008578D01*
X029655Y008578D01*
X029567Y008490D01*
X029567Y007972D01*
X029655Y007884D01*
X029703Y007884D01*
X029703Y007832D01*
X029609Y007832D01*
X029521Y007744D01*
X029521Y007187D01*
X029577Y007131D01*
X029551Y007105D01*
X029531Y007071D01*
X029521Y007033D01*
X029521Y006845D01*
X029820Y006845D01*
X029820Y006748D01*
X029916Y006748D01*
X029916Y006430D01*
X030085Y006430D01*
X030123Y006440D01*
X030157Y006460D01*
X030185Y006488D01*
X030205Y006522D01*
X030215Y006560D01*
X030215Y006748D01*
X029916Y006748D01*
X029916Y006845D01*
X030215Y006845D01*
X030215Y007033D01*
X030205Y007071D01*
X030185Y007105D01*
X030159Y007131D01*
X030215Y007187D01*
X030215Y007236D01*
X030379Y007236D01*
X030379Y006623D01*
X030466Y006535D01*
X031251Y006535D01*
X031339Y006623D01*
X031339Y007407D01*
X031251Y007495D01*
X031029Y007495D01*
X030963Y007561D01*
X030829Y007696D01*
X030215Y007696D01*
X030215Y007744D01*
X030163Y007796D01*
X030163Y007884D01*
X030212Y007884D01*
X030268Y007940D01*
X030324Y007884D01*
X030881Y007884D01*
X030969Y007972D01*
X030969Y008001D01*
X032463Y008001D01*
X032663Y008201D01*
X032667Y008205D01*
X032667Y007972D01*
X032755Y007884D01*
X033312Y007884D01*
X033368Y007940D01*
X033424Y007884D01*
X033473Y007884D01*
X033473Y007796D01*
X033438Y007761D01*
X032873Y007761D01*
X032738Y007626D01*
X032629Y007517D01*
X032629Y007464D01*
X032379Y007214D01*
X032379Y006817D01*
X032660Y006535D01*
X033057Y006535D01*
X033339Y006817D01*
X033339Y007214D01*
X033252Y007301D01*
X033421Y007301D01*
X033421Y007187D01*
X033477Y007131D01*
X033451Y007105D01*
X033431Y007071D01*
X033421Y007033D01*
X033421Y006845D01*
X033627Y006845D01*
X033627Y006748D01*
X033421Y006748D01*
X033421Y006560D01*
X033431Y006522D01*
X033451Y006488D01*
X033479Y006460D01*
X033513Y006440D01*
X033551Y006430D01*
X033627Y006430D01*
X033627Y006331D01*
X008436Y006331D01*
X008436Y006569D01*
X009064Y006569D01*
X009152Y006656D01*
X009152Y007374D01*
X009064Y007462D01*
X009015Y007462D01*
X009015Y007856D01*
X008968Y007970D01*
X008831Y008107D01*
X008744Y008194D01*
X008630Y008241D01*
X007296Y008241D01*
X007278Y008260D01*
X007278Y014503D01*
X007278Y014502D02*
X007876Y014502D01*
X007876Y014404D02*
X007278Y014404D01*
X007278Y014305D02*
X007953Y014305D01*
X008006Y013768D02*
X007968Y013757D01*
X007934Y013738D01*
X007906Y013710D01*
X007886Y013676D01*
X007876Y013637D01*
X007876Y013333D01*
X008468Y013333D01*
X008468Y013233D01*
X008568Y013233D01*
X008568Y012798D01*
X009030Y012798D01*
X009068Y012809D01*
X009102Y012828D01*
X009130Y012856D01*
X009150Y012891D01*
X009160Y012929D01*
X009160Y013233D01*
X008568Y013233D01*
X008568Y013333D01*
X009160Y013333D01*
X009160Y013637D01*
X009150Y013676D01*
X009130Y013710D01*
X009102Y013738D01*
X009068Y013757D01*
X009030Y013768D01*
X008568Y013768D01*
X008568Y013333D01*
X008468Y013333D01*
X008468Y013768D01*
X008006Y013768D01*
X007910Y013714D02*
X007278Y013714D01*
X007278Y013616D02*
X007876Y013616D01*
X007876Y013517D02*
X007278Y013517D01*
X007278Y013419D02*
X007876Y013419D01*
X007876Y013233D02*
X007876Y012929D01*
X007886Y012891D01*
X007906Y012856D01*
X007934Y012828D01*
X007968Y012809D01*
X008006Y012798D01*
X008468Y012798D01*
X008468Y013233D01*
X007876Y013233D01*
X007876Y013222D02*
X007278Y013222D01*
X007278Y013320D02*
X008468Y013320D01*
X008468Y013222D02*
X008568Y013222D01*
X008568Y013320D02*
X010067Y013320D01*
X010067Y013222D02*
X009160Y013222D01*
X009160Y013123D02*
X010067Y013123D01*
X010114Y013025D02*
X009160Y013025D01*
X009159Y012926D02*
X016638Y012926D01*
X016638Y012828D02*
X009101Y012828D01*
X008568Y012828D02*
X008468Y012828D01*
X008468Y012926D02*
X008568Y012926D01*
X008568Y013025D02*
X008468Y013025D01*
X008468Y013123D02*
X008568Y013123D01*
X007876Y013123D02*
X007278Y013123D01*
X007278Y013025D02*
X007876Y013025D01*
X007877Y012926D02*
X007278Y012926D01*
X007278Y012828D02*
X007935Y012828D01*
X007278Y012729D02*
X016638Y012729D01*
X016638Y012631D02*
X007278Y012631D01*
X007278Y012532D02*
X016638Y012532D01*
X016638Y012434D02*
X013643Y012434D01*
X013650Y012422D02*
X013630Y012456D01*
X013602Y012484D01*
X013568Y012504D01*
X013530Y012514D01*
X013068Y012514D01*
X013068Y012079D01*
X013660Y012079D01*
X013660Y012384D01*
X013650Y012422D01*
X013660Y012335D02*
X016638Y012335D01*
X016638Y012237D02*
X013660Y012237D01*
X013660Y012138D02*
X016638Y012138D01*
X016638Y012040D02*
X013068Y012040D01*
X013068Y012079D02*
X013068Y011979D01*
X013068Y011544D01*
X013530Y011544D01*
X013568Y011555D01*
X013602Y011574D01*
X013630Y011602D01*
X013650Y011637D01*
X013660Y011675D01*
X013660Y011979D01*
X013068Y011979D01*
X012968Y011979D01*
X012968Y011544D01*
X012506Y011544D01*
X012468Y011555D01*
X012434Y011574D01*
X012406Y011602D01*
X012386Y011637D01*
X012376Y011675D01*
X012376Y011979D01*
X012968Y011979D01*
X012968Y012079D01*
X012376Y012079D01*
X012376Y012384D01*
X012386Y012422D01*
X012406Y012456D01*
X012434Y012484D01*
X012468Y012504D01*
X012506Y012514D01*
X012968Y012514D01*
X012968Y012079D01*
X013068Y012079D01*
X013068Y012138D02*
X012968Y012138D01*
X012968Y012040D02*
X011151Y012040D01*
X011151Y012080D02*
X011469Y012080D01*
X011469Y012248D01*
X011459Y012286D01*
X011439Y012320D01*
X011411Y012348D01*
X011377Y012368D01*
X011339Y012378D01*
X011151Y012378D01*
X011151Y012080D01*
X011054Y012080D01*
X011054Y012378D01*
X010866Y012378D01*
X010828Y012368D01*
X010794Y012348D01*
X010768Y012322D01*
X010712Y012378D01*
X010155Y012378D01*
X010067Y012290D01*
X010067Y011772D01*
X010155Y011684D01*
X010168Y011684D01*
X010168Y011637D01*
X010161Y011644D01*
X009979Y011644D01*
X009977Y011645D01*
X009307Y011645D01*
X009173Y011511D01*
X009038Y011376D01*
X009038Y011264D01*
X007964Y011264D01*
X007876Y011176D01*
X007876Y010382D01*
X007964Y010294D01*
X009072Y010294D01*
X009160Y010382D01*
X009160Y010417D01*
X009558Y010417D01*
X009558Y007869D01*
X009605Y007756D01*
X009692Y007668D01*
X009892Y007468D01*
X010006Y007421D01*
X010479Y007421D01*
X010258Y007200D01*
X010258Y007064D01*
X010657Y007064D01*
X010657Y006967D01*
X010753Y006967D01*
X010753Y006569D01*
X010890Y006569D01*
X011152Y006830D01*
X011152Y006967D01*
X010753Y006967D01*
X010753Y007064D01*
X011152Y007064D01*
X011152Y007200D01*
X010931Y007421D01*
X011395Y007421D01*
X011395Y007337D01*
X011258Y007200D01*
X011258Y006830D01*
X011520Y006569D01*
X011890Y006569D01*
X012152Y006830D01*
X012152Y007200D01*
X012015Y007337D01*
X012015Y007656D01*
X011968Y007770D01*
X011831Y007907D01*
X011744Y007994D01*
X011630Y008041D01*
X011438Y008041D01*
X011439Y008042D01*
X011459Y008076D01*
X011469Y008115D01*
X011469Y008283D01*
X011151Y008283D01*
X011151Y008380D01*
X011054Y008380D01*
X011054Y008678D01*
X010866Y008678D01*
X010828Y008668D01*
X010794Y008648D01*
X010768Y008622D01*
X010712Y008678D01*
X010663Y008678D01*
X010663Y008834D01*
X010712Y008834D01*
X010768Y008890D01*
X010824Y008834D01*
X011381Y008834D01*
X011469Y008922D01*
X011469Y009440D01*
X011381Y009528D01*
X011333Y009528D01*
X011333Y009684D01*
X011381Y009684D01*
X011469Y009772D01*
X011469Y009801D01*
X011563Y009801D01*
X011663Y009901D01*
X011798Y010036D01*
X011798Y010417D01*
X012376Y010417D01*
X012376Y010136D01*
X012451Y010061D01*
X012073Y010061D01*
X011938Y009926D01*
X011895Y009884D01*
X011798Y009884D01*
X011710Y009796D01*
X011710Y009357D01*
X011786Y009281D01*
X011710Y009205D01*
X011710Y008766D01*
X011798Y008678D01*
X012238Y008678D01*
X012315Y008756D01*
X012383Y008756D01*
X012612Y008984D01*
X012912Y008984D01*
X012968Y009040D01*
X012994Y009014D01*
X013028Y008994D01*
X013066Y008984D01*
X013254Y008984D01*
X013254Y009283D01*
X013351Y009283D01*
X013351Y008984D01*
X013539Y008984D01*
X013577Y008994D01*
X013611Y009014D01*
X013638Y009041D01*
X013638Y008836D01*
X013738Y008736D01*
X013873Y008601D01*
X015663Y008601D01*
X015763Y008701D01*
X015898Y008836D01*
X015898Y008983D01*
X015949Y009004D01*
X016095Y009151D01*
X016175Y009342D01*
X016175Y009549D01*
X016095Y009740D01*
X015949Y009886D01*
X015758Y009965D01*
X015551Y009965D01*
X015360Y009886D01*
X015214Y009740D01*
X015135Y009549D01*
X015135Y009342D01*
X015214Y009151D01*
X015303Y009061D01*
X014866Y009061D01*
X014955Y009151D01*
X015035Y009342D01*
X015035Y009549D01*
X014955Y009740D01*
X014809Y009886D01*
X014698Y009932D01*
X014698Y010426D01*
X014563Y010561D01*
X014361Y010763D01*
X013660Y010763D01*
X013660Y010930D01*
X013572Y011018D01*
X012464Y011018D01*
X012376Y010930D01*
X012376Y010877D01*
X012020Y010877D01*
X012020Y011300D01*
X012017Y011303D01*
X012020Y011316D01*
X012020Y011415D01*
X012020Y011513D01*
X012010Y011552D01*
X011990Y011586D01*
X011962Y011614D01*
X011928Y011633D01*
X011890Y011644D01*
X011654Y011644D01*
X011654Y011415D01*
X012020Y011415D01*
X011654Y011415D01*
X011654Y011415D01*
X011654Y011415D01*
X011654Y011644D01*
X011418Y011644D01*
X011379Y011633D01*
X011345Y011614D01*
X011317Y011586D01*
X011297Y011552D01*
X011287Y011513D01*
X011287Y011415D01*
X011654Y011415D01*
X011654Y011415D01*
X011287Y011415D01*
X011287Y011316D01*
X011291Y011303D01*
X011287Y011300D01*
X011287Y011103D01*
X010523Y011103D01*
X010568Y011148D01*
X010568Y011684D01*
X010712Y011684D01*
X010768Y011740D01*
X010794Y011714D01*
X010828Y011694D01*
X010866Y011684D01*
X011054Y011684D01*
X011054Y011983D01*
X011151Y011983D01*
X011151Y012080D01*
X011151Y012138D02*
X011054Y012138D01*
X011054Y012237D02*
X011151Y012237D01*
X011151Y012335D02*
X011054Y012335D01*
X010781Y012335D02*
X010755Y012335D01*
X010433Y012031D02*
X010368Y011966D01*
X010368Y011231D01*
X010296Y011159D01*
X009882Y011159D01*
X010468Y010831D02*
X010540Y010903D01*
X011654Y010903D01*
X012020Y010956D02*
X012402Y010956D01*
X012020Y011055D02*
X016638Y011055D01*
X016638Y011153D02*
X012020Y011153D01*
X012020Y011252D02*
X016638Y011252D01*
X016638Y011350D02*
X012020Y011350D01*
X012020Y011449D02*
X016638Y011449D01*
X016638Y011547D02*
X013540Y011547D01*
X013652Y011646D02*
X016638Y011646D01*
X016638Y011744D02*
X013660Y011744D01*
X013660Y011843D02*
X016638Y011843D01*
X016638Y011941D02*
X013660Y011941D01*
X013068Y011941D02*
X012968Y011941D01*
X012968Y011843D02*
X013068Y011843D01*
X013068Y011744D02*
X012968Y011744D01*
X012968Y011646D02*
X013068Y011646D01*
X013068Y011547D02*
X012968Y011547D01*
X012496Y011547D02*
X012011Y011547D01*
X011654Y011547D02*
X011654Y011547D01*
X011654Y011449D02*
X011654Y011449D01*
X011411Y011714D02*
X011439Y011742D01*
X011459Y011776D01*
X011469Y011815D01*
X011469Y011983D01*
X011151Y011983D01*
X011151Y011684D01*
X011339Y011684D01*
X011377Y011694D01*
X011411Y011714D01*
X011440Y011744D02*
X012376Y011744D01*
X012376Y011843D02*
X011469Y011843D01*
X011469Y011941D02*
X012376Y011941D01*
X012376Y012138D02*
X011469Y012138D01*
X011469Y012237D02*
X012376Y012237D01*
X012376Y012335D02*
X011424Y012335D01*
X011151Y011941D02*
X011054Y011941D01*
X011054Y011843D02*
X011151Y011843D01*
X011151Y011744D02*
X011054Y011744D01*
X011296Y011547D02*
X010568Y011547D01*
X010568Y011449D02*
X011287Y011449D01*
X011287Y011350D02*
X010568Y011350D01*
X010568Y011252D02*
X011287Y011252D01*
X011287Y011153D02*
X010568Y011153D01*
X010468Y010831D02*
X010468Y010066D01*
X010433Y010031D01*
X009558Y010070D02*
X007278Y010070D01*
X007278Y010168D02*
X009558Y010168D01*
X009558Y010267D02*
X007278Y010267D01*
X007278Y010365D02*
X007893Y010365D01*
X007876Y010464D02*
X007278Y010464D01*
X007278Y010562D02*
X007876Y010562D01*
X007876Y010661D02*
X007278Y010661D01*
X007278Y010759D02*
X007876Y010759D01*
X007876Y010858D02*
X007278Y010858D01*
X007278Y010956D02*
X007876Y010956D01*
X007876Y011055D02*
X007278Y011055D01*
X007278Y011153D02*
X007876Y011153D01*
X007952Y011252D02*
X007278Y011252D01*
X007278Y011350D02*
X009038Y011350D01*
X009110Y011449D02*
X007278Y011449D01*
X007278Y011547D02*
X009209Y011547D01*
X010067Y011843D02*
X007278Y011843D01*
X007278Y011941D02*
X010067Y011941D01*
X010067Y012040D02*
X007278Y012040D01*
X007278Y012138D02*
X010067Y012138D01*
X010067Y012237D02*
X007278Y012237D01*
X007278Y012335D02*
X010112Y012335D01*
X010095Y011744D02*
X007278Y011744D01*
X007278Y011646D02*
X010168Y011646D01*
X010568Y011646D02*
X012384Y011646D01*
X012968Y012237D02*
X013068Y012237D01*
X013068Y012335D02*
X012968Y012335D01*
X012968Y012434D02*
X013068Y012434D01*
X012393Y012434D02*
X007278Y012434D01*
X008468Y013419D02*
X008568Y013419D01*
X008568Y013517D02*
X008468Y013517D01*
X008468Y013616D02*
X008568Y013616D01*
X008568Y013714D02*
X008468Y013714D01*
X009126Y013714D02*
X010233Y013714D01*
X010233Y013813D02*
X007278Y013813D01*
X007278Y013911D02*
X010078Y013911D01*
X010067Y014010D02*
X007278Y014010D01*
X007278Y014108D02*
X010067Y014108D01*
X010067Y014207D02*
X007278Y014207D01*
X008074Y015264D02*
X008168Y015330D01*
X008180Y015329D01*
X008234Y015377D01*
X008292Y015418D01*
X008294Y015431D01*
X008437Y015558D01*
X008450Y015559D01*
X008498Y015613D01*
X008551Y015660D01*
X008552Y015673D01*
X008679Y015816D01*
X008692Y015818D01*
X008733Y015876D01*
X008781Y015930D01*
X008780Y015942D01*
X008891Y016098D01*
X008903Y016102D01*
X008938Y016165D01*
X008979Y016223D01*
X008977Y016236D01*
X009070Y016403D01*
X009081Y016408D01*
X009109Y016474D01*
X009143Y016537D01*
X009140Y016549D01*
X009213Y016726D01*
X009224Y016732D01*
X009244Y016801D01*
X009272Y016867D01*
X009267Y016879D01*
X009320Y017062D01*
X009330Y017070D01*
X009342Y017141D01*
X009362Y017209D01*
X009356Y017221D01*
X009388Y017409D01*
X009397Y017418D01*
X009401Y017489D01*
X009410Y017542D01*
X032840Y017542D01*
X032840Y017323D01*
X032833Y017315D01*
X032840Y017242D01*
X032840Y017169D01*
X032848Y017161D01*
X032865Y016981D01*
X032858Y016970D01*
X032873Y016900D01*
X032880Y016830D01*
X032891Y016821D01*
X032930Y016643D01*
X032924Y016630D01*
X032948Y016563D01*
X032963Y016494D01*
X032975Y016487D01*
X033036Y016314D01*
X033031Y016301D01*
X033063Y016238D01*
X033086Y016171D01*
X033099Y016165D01*
X033180Y016001D01*
X033177Y015987D01*
X033216Y015928D01*
X033247Y015865D01*
X033260Y015860D01*
X033361Y015707D01*
X033360Y015694D01*
X033405Y015640D01*
X033444Y015580D01*
X033458Y015578D01*
X033576Y015438D01*
X033576Y015424D01*
X033628Y015376D01*
X033674Y015322D01*
X033688Y015321D01*
X033763Y015251D01*
X033565Y015251D01*
X033373Y015172D01*
X033227Y015026D01*
X033200Y014961D01*
X032998Y014961D01*
X032998Y016026D01*
X032863Y016161D01*
X032763Y016261D01*
X032468Y016261D01*
X032468Y016270D01*
X032380Y016358D01*
X031901Y016358D01*
X031813Y016270D01*
X031813Y015792D01*
X031901Y015704D01*
X032380Y015704D01*
X032468Y015792D01*
X032468Y015801D01*
X032538Y015801D01*
X032538Y013626D01*
X032515Y013626D01*
X032515Y013675D01*
X032459Y013731D01*
X032515Y013787D01*
X032515Y014344D01*
X032427Y014432D01*
X031909Y014432D01*
X031821Y014344D01*
X031821Y014296D01*
X030781Y014296D01*
X030855Y014371D01*
X030855Y014692D01*
X030698Y014849D01*
X030698Y015230D01*
X030727Y015230D01*
X030815Y015318D01*
X030815Y015875D01*
X030759Y015931D01*
X030815Y015987D01*
X030815Y016057D01*
X030957Y016057D01*
X030983Y016031D01*
X030908Y015955D01*
X030908Y015595D01*
X030966Y015537D01*
X030966Y015074D01*
X030967Y015072D01*
X030967Y014772D01*
X031055Y014684D01*
X031612Y014684D01*
X031668Y014740D01*
X031694Y014714D01*
X031728Y014694D01*
X031766Y014684D01*
X031954Y014684D01*
X031954Y014983D01*
X032051Y014983D01*
X032051Y015080D01*
X031954Y015080D01*
X031954Y015378D01*
X031766Y015378D01*
X031728Y015368D01*
X031694Y015348D01*
X031668Y015322D01*
X031612Y015378D01*
X031426Y015378D01*
X031426Y015537D01*
X031483Y015595D01*
X031483Y015955D01*
X031408Y016031D01*
X031483Y016107D01*
X031483Y016467D01*
X031395Y016555D01*
X030996Y016555D01*
X030957Y016517D01*
X030815Y016517D01*
X030815Y016544D01*
X030727Y016632D01*
X030209Y016632D01*
X030121Y016544D01*
X030121Y015987D01*
X030177Y015931D01*
X030121Y015875D01*
X030121Y015861D01*
X020686Y015861D01*
X020528Y016019D01*
X020207Y016019D01*
X019980Y015792D01*
X019980Y015471D01*
X020161Y015291D01*
X019889Y015291D01*
X019833Y015235D01*
X019807Y015261D01*
X019773Y015280D01*
X019735Y015291D01*
X019547Y015291D01*
X019547Y014992D01*
X019450Y014992D01*
X019450Y014895D01*
X019547Y014895D01*
X019547Y014597D01*
X019735Y014597D01*
X019773Y014607D01*
X019807Y014627D01*
X019833Y014653D01*
X019889Y014597D01*
X020447Y014597D01*
X020535Y014685D01*
X020535Y014714D01*
X020695Y014714D01*
X020727Y014637D01*
X020873Y014490D01*
X020944Y014461D01*
X017673Y014461D01*
X017538Y014326D01*
X017366Y014154D01*
X017366Y013358D01*
X017356Y013358D01*
X017268Y013270D01*
X017268Y012792D01*
X017338Y012722D01*
X017338Y012136D01*
X017473Y012001D01*
X017557Y011917D01*
X017557Y011798D01*
X017631Y011724D01*
X017631Y011523D01*
X017534Y011523D01*
X017534Y011821D01*
X017346Y011821D01*
X017308Y011811D01*
X017274Y011791D01*
X017246Y011763D01*
X017226Y011729D01*
X017216Y011691D01*
X017216Y011523D01*
X017534Y011523D01*
X017534Y011426D01*
X017631Y011426D01*
X017631Y011128D01*
X017818Y011128D01*
X017857Y011138D01*
X017891Y011158D01*
X017917Y011184D01*
X017973Y011128D01*
X018113Y011128D01*
X018053Y011067D01*
X018053Y010707D01*
X018128Y010631D01*
X018053Y010555D01*
X018053Y010195D01*
X018086Y010161D01*
X017663Y010161D01*
X017626Y010199D01*
X017626Y010304D01*
X017635Y010304D01*
X017723Y010392D01*
X017723Y010870D01*
X017635Y010958D01*
X017156Y010958D01*
X017098Y010900D01*
X017098Y015213D01*
X017255Y015371D01*
X017255Y015692D01*
X017028Y015919D01*
X016806Y015919D01*
X016678Y016046D01*
X016122Y016046D01*
X016095Y016111D01*
X015949Y016257D01*
X015758Y016336D01*
X015551Y016336D01*
X015360Y016257D01*
X015214Y016111D01*
X015135Y015920D01*
X015135Y015713D01*
X015214Y015522D01*
X015360Y015375D01*
X015394Y015361D01*
X014775Y015361D01*
X014809Y015375D01*
X014955Y015522D01*
X015035Y015713D01*
X015035Y015920D01*
X014955Y016111D01*
X014809Y016257D01*
X014618Y016336D01*
X014411Y016336D01*
X014220Y016257D01*
X014074Y016111D01*
X013995Y015920D01*
X013995Y015763D01*
X013660Y015763D01*
X013660Y015930D01*
X013572Y016018D01*
X012464Y016018D01*
X012376Y015930D01*
X012376Y015877D01*
X012020Y015877D01*
X012020Y016300D01*
X012017Y016303D01*
X012020Y016316D01*
X012020Y016415D01*
X012020Y016513D01*
X012010Y016552D01*
X011990Y016586D01*
X011962Y016614D01*
X011928Y016633D01*
X011890Y016644D01*
X011654Y016644D01*
X011654Y016415D01*
X012020Y016415D01*
X011654Y016415D01*
X011654Y016415D01*
X011654Y016415D01*
X011654Y016644D01*
X011418Y016644D01*
X011379Y016633D01*
X011345Y016614D01*
X011317Y016586D01*
X011297Y016552D01*
X011287Y016513D01*
X011287Y016415D01*
X011654Y016415D01*
X011654Y016415D01*
X011287Y016415D01*
X011287Y016316D01*
X011291Y016303D01*
X011287Y016300D01*
X011287Y016103D01*
X010523Y016103D01*
X010568Y016148D01*
X010568Y016684D01*
X010712Y016684D01*
X010768Y016740D01*
X010794Y016714D01*
X010828Y016694D01*
X010866Y016684D01*
X011054Y016684D01*
X011054Y016983D01*
X011151Y016983D01*
X011151Y017080D01*
X011054Y017080D01*
X011054Y017378D01*
X010866Y017378D01*
X010828Y017368D01*
X010794Y017348D01*
X010768Y017322D01*
X010712Y017378D01*
X010155Y017378D01*
X010067Y017290D01*
X010067Y016772D01*
X010155Y016684D01*
X010168Y016684D01*
X010168Y016637D01*
X010161Y016644D01*
X009603Y016644D01*
X009575Y016615D01*
X009469Y016615D01*
X009385Y016531D01*
X009268Y016414D01*
X009268Y015617D01*
X009258Y015593D01*
X009258Y015089D01*
X009160Y015089D01*
X009160Y015176D01*
X009072Y015264D01*
X008074Y015264D01*
X008112Y015290D02*
X009258Y015290D01*
X009258Y015192D02*
X009144Y015192D01*
X009160Y015093D02*
X009258Y015093D01*
X009258Y015389D02*
X008250Y015389D01*
X008357Y015487D02*
X009258Y015487D01*
X009258Y015586D02*
X008473Y015586D01*
X008561Y015684D02*
X009268Y015684D01*
X009268Y015783D02*
X008650Y015783D01*
X008738Y015881D02*
X009268Y015881D01*
X009268Y015980D02*
X008807Y015980D01*
X008876Y016078D02*
X009268Y016078D01*
X009268Y016177D02*
X008946Y016177D01*
X008999Y016275D02*
X009268Y016275D01*
X009268Y016374D02*
X009053Y016374D01*
X009108Y016472D02*
X009326Y016472D01*
X009425Y016571D02*
X009149Y016571D01*
X009190Y016669D02*
X010168Y016669D01*
X010071Y016768D02*
X009235Y016768D01*
X009271Y016866D02*
X010067Y016866D01*
X010067Y016965D02*
X009291Y016965D01*
X009320Y017063D02*
X010067Y017063D01*
X010067Y017162D02*
X009348Y017162D01*
X009362Y017260D02*
X010067Y017260D01*
X010135Y017359D02*
X009379Y017359D01*
X009399Y017457D02*
X012407Y017457D01*
X012406Y017456D02*
X012386Y017422D01*
X012376Y017384D01*
X012376Y017079D01*
X012968Y017079D01*
X012968Y016979D01*
X013068Y016979D01*
X013068Y016544D01*
X013530Y016544D01*
X013568Y016555D01*
X013602Y016574D01*
X013630Y016602D01*
X013650Y016637D01*
X013660Y016675D01*
X013660Y016979D01*
X013068Y016979D01*
X013068Y017079D01*
X013660Y017079D01*
X013660Y017384D01*
X013650Y017422D01*
X013630Y017456D01*
X013602Y017484D01*
X013568Y017504D01*
X013530Y017514D01*
X013068Y017514D01*
X013068Y017079D01*
X012968Y017079D01*
X012968Y017514D01*
X012506Y017514D01*
X012468Y017504D01*
X012434Y017484D01*
X012406Y017456D01*
X012376Y017359D02*
X011393Y017359D01*
X011377Y017368D02*
X011339Y017378D01*
X011151Y017378D01*
X011151Y017080D01*
X011469Y017080D01*
X011469Y017248D01*
X011459Y017286D01*
X011439Y017320D01*
X011411Y017348D01*
X011377Y017368D01*
X011466Y017260D02*
X012376Y017260D01*
X012376Y017162D02*
X011469Y017162D01*
X011469Y016983D02*
X011151Y016983D01*
X011151Y016684D01*
X011339Y016684D01*
X011377Y016694D01*
X011411Y016714D01*
X011439Y016742D01*
X011459Y016776D01*
X011469Y016815D01*
X011469Y016983D01*
X011469Y016965D02*
X012376Y016965D01*
X012376Y016979D02*
X012376Y016675D01*
X012386Y016637D01*
X012406Y016602D01*
X012434Y016574D01*
X012468Y016555D01*
X012506Y016544D01*
X012968Y016544D01*
X012968Y016979D01*
X012376Y016979D01*
X012376Y016866D02*
X011469Y016866D01*
X011454Y016768D02*
X012376Y016768D01*
X012377Y016669D02*
X010568Y016669D01*
X010568Y016571D02*
X011308Y016571D01*
X011287Y016472D02*
X010568Y016472D01*
X010568Y016374D02*
X011287Y016374D01*
X011287Y016275D02*
X010568Y016275D01*
X010568Y016177D02*
X011287Y016177D01*
X011654Y015903D02*
X010540Y015903D01*
X010468Y015831D01*
X010468Y015066D01*
X010433Y015031D01*
X010433Y014181D01*
X010433Y013331D01*
X010067Y013419D02*
X009160Y013419D01*
X009160Y013517D02*
X010067Y013517D01*
X010092Y013616D02*
X009160Y013616D01*
X009083Y014305D02*
X010067Y014305D01*
X010067Y014404D02*
X009160Y014404D01*
X009557Y014502D02*
X010129Y014502D01*
X010233Y014601D02*
X009676Y014601D01*
X009774Y014699D02*
X010140Y014699D01*
X010067Y014798D02*
X009848Y014798D01*
X009878Y014896D02*
X010067Y014896D01*
X010067Y014995D02*
X009878Y014995D01*
X009878Y015093D02*
X010067Y015093D01*
X009878Y015389D02*
X010268Y015389D01*
X010268Y015487D02*
X010229Y015487D01*
X010249Y015586D02*
X010268Y015586D01*
X010268Y015684D02*
X010249Y015684D01*
X010249Y015783D02*
X010268Y015783D01*
X010268Y015881D02*
X010249Y015881D01*
X010296Y016159D02*
X009882Y016159D01*
X009882Y016415D02*
X009552Y016415D01*
X009468Y016331D01*
X009468Y015631D01*
X009568Y015531D01*
X010296Y016159D02*
X010368Y016231D01*
X010368Y016966D01*
X010433Y017031D01*
X010731Y017359D02*
X010812Y017359D01*
X011054Y017359D02*
X011151Y017359D01*
X011151Y017260D02*
X011054Y017260D01*
X011054Y017162D02*
X011151Y017162D01*
X011151Y017063D02*
X012968Y017063D01*
X012968Y016965D02*
X013068Y016965D01*
X013068Y017063D02*
X032857Y017063D01*
X032859Y016965D02*
X013660Y016965D01*
X013660Y016866D02*
X032876Y016866D01*
X032902Y016768D02*
X013660Y016768D01*
X013659Y016669D02*
X032924Y016669D01*
X032945Y016571D02*
X030789Y016571D01*
X030807Y015980D02*
X030932Y015980D01*
X030908Y015881D02*
X030809Y015881D01*
X030815Y015783D02*
X030908Y015783D01*
X030908Y015684D02*
X030815Y015684D01*
X030815Y015586D02*
X030917Y015586D01*
X030966Y015487D02*
X030815Y015487D01*
X030815Y015389D02*
X030966Y015389D01*
X030966Y015290D02*
X030787Y015290D01*
X030698Y015192D02*
X030966Y015192D01*
X030966Y015093D02*
X030698Y015093D01*
X030698Y014995D02*
X030967Y014995D01*
X030967Y014896D02*
X030698Y014896D01*
X030749Y014798D02*
X030967Y014798D01*
X031040Y014699D02*
X030848Y014699D01*
X030855Y014601D02*
X032538Y014601D01*
X032538Y014699D02*
X032285Y014699D01*
X032277Y014694D02*
X032311Y014714D01*
X032339Y014742D01*
X032359Y014776D01*
X032369Y014815D01*
X032369Y014983D01*
X032051Y014983D01*
X032051Y014684D01*
X032239Y014684D01*
X032277Y014694D01*
X032365Y014798D02*
X032538Y014798D01*
X032538Y014896D02*
X032369Y014896D01*
X032369Y015080D02*
X032051Y015080D01*
X032051Y015378D01*
X032239Y015378D01*
X032277Y015368D01*
X032311Y015348D01*
X032339Y015320D01*
X032359Y015286D01*
X032369Y015248D01*
X032369Y015080D01*
X032369Y015093D02*
X032538Y015093D01*
X032538Y014995D02*
X032051Y014995D01*
X032051Y015093D02*
X031954Y015093D01*
X031954Y015192D02*
X032051Y015192D01*
X032051Y015290D02*
X031954Y015290D01*
X032356Y015290D02*
X032538Y015290D01*
X032538Y015192D02*
X032369Y015192D01*
X032538Y015389D02*
X031426Y015389D01*
X031426Y015487D02*
X032538Y015487D01*
X032538Y015586D02*
X031474Y015586D01*
X031483Y015684D02*
X032538Y015684D01*
X032538Y015783D02*
X032458Y015783D01*
X032998Y015783D02*
X033311Y015783D01*
X033368Y015684D02*
X032998Y015684D01*
X032998Y015586D02*
X033441Y015586D01*
X033534Y015487D02*
X032998Y015487D01*
X032998Y015389D02*
X033614Y015389D01*
X033721Y015290D02*
X032998Y015290D01*
X032998Y015192D02*
X033421Y015192D01*
X033295Y015093D02*
X032998Y015093D01*
X032998Y014995D02*
X033214Y014995D01*
X033200Y014501D02*
X032998Y014501D01*
X032998Y014187D01*
X033020Y014209D01*
X033577Y014209D01*
X033633Y014153D01*
X033659Y014179D01*
X033694Y014199D01*
X033732Y014209D01*
X033920Y014209D01*
X033920Y013911D01*
X034016Y013911D01*
X034016Y014209D01*
X034204Y014209D01*
X034242Y014199D01*
X034277Y014179D01*
X034305Y014152D01*
X034324Y014117D01*
X034335Y014079D01*
X034335Y013911D01*
X034016Y013911D01*
X034016Y013814D01*
X034335Y013814D01*
X034335Y013646D01*
X034324Y013608D01*
X034305Y013574D01*
X034278Y013547D01*
X034363Y013461D01*
X034498Y013326D01*
X034498Y009249D01*
X034655Y009092D01*
X034655Y008771D01*
X034428Y008544D01*
X034107Y008544D01*
X033880Y008771D01*
X033880Y009092D01*
X034038Y009249D01*
X034038Y009353D01*
X033928Y009244D01*
X033607Y009244D01*
X033380Y009471D01*
X033380Y009792D01*
X033538Y009949D01*
X033538Y011936D01*
X033523Y011951D01*
X033025Y011951D01*
X033005Y011931D01*
X033068Y011868D01*
X033068Y011494D01*
X033004Y011430D01*
X033010Y011426D01*
X033038Y011398D01*
X033058Y011364D01*
X033068Y011326D01*
X033068Y011194D01*
X032680Y011194D01*
X032680Y011169D01*
X032680Y010906D01*
X032938Y010906D01*
X032976Y010916D01*
X033010Y010936D01*
X033038Y010964D01*
X033058Y010998D01*
X033068Y011036D01*
X033068Y011169D01*
X032680Y011169D01*
X032655Y011169D01*
X032268Y011169D01*
X032268Y011036D01*
X032278Y010998D01*
X032298Y010964D01*
X032326Y010936D01*
X032360Y010916D01*
X032398Y010906D01*
X032655Y010906D01*
X032655Y011169D01*
X032655Y011194D01*
X032268Y011194D01*
X032268Y011326D01*
X032278Y011364D01*
X032298Y011398D01*
X032326Y011426D01*
X032332Y011430D01*
X032311Y011451D01*
X032213Y011451D01*
X032198Y011436D01*
X032198Y010761D01*
X032269Y010690D01*
X032269Y010661D01*
X032963Y010661D01*
X033098Y010526D01*
X033263Y010361D01*
X033263Y008578D01*
X033312Y008578D01*
X033368Y008522D01*
X033424Y008578D01*
X033981Y008578D01*
X034069Y008490D01*
X034069Y008042D01*
X034085Y008055D01*
X034099Y008054D01*
X034104Y008067D01*
X034166Y008093D01*
X034223Y008128D01*
X034237Y008124D01*
X034244Y008136D01*
X034309Y008152D01*
X034371Y008178D01*
X034384Y008172D01*
X034393Y008183D01*
X034460Y008188D01*
X034525Y008204D01*
X034532Y008200D01*
X034607Y008200D01*
X034681Y008205D01*
X034688Y008200D01*
X035496Y008200D01*
X035496Y014495D01*
X035458Y014500D01*
X035387Y014502D01*
X035377Y014512D01*
X035196Y014538D01*
X035184Y014531D01*
X035116Y014550D01*
X035046Y014560D01*
X035038Y014571D01*
X034861Y014619D01*
X034848Y014614D01*
X034783Y014640D01*
X034714Y014659D01*
X034708Y014671D01*
X034538Y014740D01*
X034525Y014736D01*
X034463Y014770D01*
X034397Y014797D01*
X034392Y014810D01*
X034232Y014899D01*
X034218Y014896D01*
X034161Y014938D01*
X034140Y014949D01*
X034188Y014835D01*
X034188Y014628D01*
X034109Y014437D01*
X033963Y014290D01*
X033771Y014211D01*
X033565Y014211D01*
X033373Y014290D01*
X033227Y014437D01*
X033200Y014501D01*
X033260Y014404D02*
X032998Y014404D01*
X032998Y014305D02*
X033359Y014305D01*
X033580Y014207D02*
X033721Y014207D01*
X033920Y014207D02*
X034016Y014207D01*
X034016Y014108D02*
X033920Y014108D01*
X033920Y014010D02*
X034016Y014010D01*
X034016Y013911D02*
X033920Y013911D01*
X033977Y014305D02*
X035496Y014305D01*
X035496Y014207D02*
X034215Y014207D01*
X034327Y014108D02*
X035496Y014108D01*
X035496Y014010D02*
X034335Y014010D01*
X034335Y013911D02*
X035496Y013911D01*
X035496Y013813D02*
X034335Y013813D01*
X034335Y013714D02*
X035496Y013714D01*
X035496Y013616D02*
X034326Y013616D01*
X034307Y013517D02*
X035496Y013517D01*
X035496Y013419D02*
X034406Y013419D01*
X034498Y013320D02*
X035496Y013320D01*
X035496Y013222D02*
X034498Y013222D01*
X034498Y013123D02*
X035496Y013123D01*
X035496Y013025D02*
X034498Y013025D01*
X034498Y012926D02*
X035496Y012926D01*
X035496Y012828D02*
X034498Y012828D01*
X034498Y012729D02*
X035496Y012729D01*
X035496Y012631D02*
X034498Y012631D01*
X034498Y012532D02*
X035496Y012532D01*
X035496Y012434D02*
X034498Y012434D01*
X034498Y012335D02*
X035496Y012335D01*
X035496Y012237D02*
X034498Y012237D01*
X034498Y012138D02*
X035496Y012138D01*
X035496Y012040D02*
X034498Y012040D01*
X034498Y011941D02*
X035496Y011941D01*
X035496Y011843D02*
X034498Y011843D01*
X034498Y011744D02*
X035496Y011744D01*
X035496Y011646D02*
X034498Y011646D01*
X034498Y011547D02*
X035496Y011547D01*
X035496Y011449D02*
X034498Y011449D01*
X034498Y011350D02*
X035496Y011350D01*
X035496Y011252D02*
X034498Y011252D01*
X034498Y011153D02*
X035496Y011153D01*
X035496Y011055D02*
X034498Y011055D01*
X034498Y010956D02*
X035496Y010956D01*
X035496Y010858D02*
X034498Y010858D01*
X034498Y010759D02*
X035496Y010759D01*
X035496Y010661D02*
X034498Y010661D01*
X034498Y010562D02*
X035496Y010562D01*
X035496Y010464D02*
X034498Y010464D01*
X034498Y010365D02*
X035496Y010365D01*
X035496Y010267D02*
X034498Y010267D01*
X034498Y010168D02*
X035496Y010168D01*
X035496Y010070D02*
X034498Y010070D01*
X034498Y009971D02*
X035496Y009971D01*
X035496Y009873D02*
X034498Y009873D01*
X034498Y009774D02*
X035496Y009774D01*
X035496Y009676D02*
X034498Y009676D01*
X034498Y009577D02*
X035496Y009577D01*
X035496Y009479D02*
X034498Y009479D01*
X034498Y009380D02*
X035496Y009380D01*
X035496Y009282D02*
X034498Y009282D01*
X034564Y009183D02*
X035496Y009183D01*
X035496Y009085D02*
X034655Y009085D01*
X034655Y008986D02*
X035496Y008986D01*
X035496Y008888D02*
X034655Y008888D01*
X034655Y008789D02*
X035496Y008789D01*
X035496Y008691D02*
X034575Y008691D01*
X034477Y008592D02*
X035496Y008592D01*
X035496Y008494D02*
X034066Y008494D01*
X034059Y008592D02*
X033263Y008592D01*
X033263Y008691D02*
X033960Y008691D01*
X033880Y008789D02*
X033263Y008789D01*
X033263Y008888D02*
X033880Y008888D01*
X033880Y008986D02*
X033263Y008986D01*
X033263Y009085D02*
X033880Y009085D01*
X033972Y009183D02*
X033263Y009183D01*
X033263Y009282D02*
X033569Y009282D01*
X033471Y009380D02*
X033263Y009380D01*
X033263Y009479D02*
X033380Y009479D01*
X033380Y009577D02*
X033263Y009577D01*
X033263Y009676D02*
X033380Y009676D01*
X033380Y009774D02*
X033263Y009774D01*
X033263Y009873D02*
X033462Y009873D01*
X033538Y009971D02*
X033263Y009971D01*
X033263Y010070D02*
X033538Y010070D01*
X033538Y010168D02*
X033263Y010168D01*
X033263Y010267D02*
X033538Y010267D01*
X033538Y010365D02*
X033259Y010365D01*
X033161Y010464D02*
X033538Y010464D01*
X033538Y010562D02*
X033062Y010562D01*
X032964Y010661D02*
X033538Y010661D01*
X033538Y010759D02*
X032200Y010759D01*
X032198Y010858D02*
X033538Y010858D01*
X033538Y010956D02*
X033030Y010956D01*
X033068Y011055D02*
X033538Y011055D01*
X033538Y011153D02*
X033068Y011153D01*
X033068Y011252D02*
X033538Y011252D01*
X033538Y011350D02*
X033061Y011350D01*
X033023Y011449D02*
X033538Y011449D01*
X033538Y011547D02*
X033068Y011547D01*
X033068Y011646D02*
X033538Y011646D01*
X033538Y011744D02*
X033068Y011744D01*
X033068Y011843D02*
X033538Y011843D01*
X033533Y011941D02*
X033015Y011941D01*
X032313Y011449D02*
X032211Y011449D01*
X032198Y011350D02*
X032274Y011350D01*
X032268Y011252D02*
X032198Y011252D01*
X032198Y011153D02*
X032268Y011153D01*
X032268Y011055D02*
X032198Y011055D01*
X032198Y010956D02*
X032306Y010956D01*
X032655Y010956D02*
X032680Y010956D01*
X032680Y011055D02*
X032655Y011055D01*
X032655Y011153D02*
X032680Y011153D01*
X030938Y010858D02*
X030120Y010858D01*
X030021Y010759D02*
X030936Y010759D01*
X030867Y010661D02*
X029605Y010661D01*
X029548Y010562D02*
X030867Y010562D01*
X030867Y010464D02*
X028898Y010464D01*
X028898Y010365D02*
X030867Y010365D01*
X030867Y010267D02*
X028898Y010267D01*
X028898Y010168D02*
X030871Y010168D01*
X031003Y010070D02*
X028898Y010070D01*
X028898Y009971D02*
X031003Y009971D01*
X030949Y009873D02*
X028898Y009873D01*
X028898Y009774D02*
X030867Y009774D01*
X030867Y009676D02*
X028898Y009676D01*
X028898Y009577D02*
X030867Y009577D01*
X030867Y009479D02*
X028898Y009479D01*
X028943Y009380D02*
X030867Y009380D01*
X030867Y009282D02*
X029053Y009282D01*
X029126Y009183D02*
X031738Y009183D01*
X031674Y009085D02*
X029167Y009085D01*
X029188Y008986D02*
X031580Y008986D01*
X031580Y008888D02*
X029188Y008888D01*
X029172Y008789D02*
X031580Y008789D01*
X031580Y008691D02*
X029131Y008691D01*
X029064Y008592D02*
X031659Y008592D01*
X031757Y008494D02*
X030966Y008494D01*
X030900Y007903D02*
X032736Y007903D01*
X032667Y008001D02*
X032463Y008001D01*
X032562Y008100D02*
X032667Y008100D01*
X032660Y008198D02*
X032667Y008198D01*
X032817Y007706D02*
X030215Y007706D01*
X030163Y007804D02*
X033473Y007804D01*
X033406Y007903D02*
X033330Y007903D01*
X032719Y007607D02*
X030917Y007607D01*
X031016Y007509D02*
X032629Y007509D01*
X032574Y007410D02*
X032143Y007410D01*
X032057Y007495D02*
X031907Y007495D01*
X031907Y007064D01*
X031810Y007064D01*
X031810Y007495D01*
X031660Y007495D01*
X031379Y007214D01*
X031379Y007064D01*
X031810Y007064D01*
X031810Y006967D01*
X031379Y006967D01*
X031379Y006817D01*
X031660Y006535D01*
X031810Y006535D01*
X031810Y006967D01*
X031907Y006967D01*
X031907Y007064D01*
X032339Y007064D01*
X032339Y007214D01*
X032057Y007495D01*
X031907Y007410D02*
X031810Y007410D01*
X031810Y007312D02*
X031907Y007312D01*
X031907Y007213D02*
X031810Y007213D01*
X031810Y007115D02*
X031907Y007115D01*
X031907Y007016D02*
X032379Y007016D01*
X032339Y006967D02*
X031907Y006967D01*
X031907Y006535D01*
X032057Y006535D01*
X032339Y006817D01*
X032339Y006967D01*
X032339Y006918D02*
X032379Y006918D01*
X032379Y006819D02*
X032339Y006819D01*
X032243Y006721D02*
X032474Y006721D01*
X032573Y006622D02*
X032144Y006622D01*
X031907Y006622D02*
X031810Y006622D01*
X031810Y006721D02*
X031907Y006721D01*
X031907Y006819D02*
X031810Y006819D01*
X031810Y006918D02*
X031907Y006918D01*
X031810Y007016D02*
X031339Y007016D01*
X031339Y006918D02*
X031379Y006918D01*
X031379Y006819D02*
X031339Y006819D01*
X031339Y006721D02*
X031474Y006721D01*
X031573Y006622D02*
X031337Y006622D01*
X031339Y007115D02*
X031379Y007115D01*
X031379Y007213D02*
X031339Y007213D01*
X031339Y007312D02*
X031476Y007312D01*
X031574Y007410D02*
X031336Y007410D01*
X032241Y007312D02*
X032476Y007312D01*
X032379Y007213D02*
X032339Y007213D01*
X032339Y007115D02*
X032379Y007115D01*
X033144Y006622D02*
X033421Y006622D01*
X033421Y006721D02*
X033243Y006721D01*
X033339Y006819D02*
X033627Y006819D01*
X033421Y006918D02*
X033339Y006918D01*
X033339Y007016D02*
X033421Y007016D01*
X033461Y007115D02*
X033339Y007115D01*
X033339Y007213D02*
X033421Y007213D01*
X034059Y007131D02*
X034115Y007075D01*
X034115Y006518D01*
X034027Y006430D01*
X033827Y006430D01*
X033827Y006331D01*
X035496Y006331D01*
X035496Y008000D01*
X034614Y008000D01*
X034491Y007990D01*
X034371Y007961D01*
X034257Y007914D01*
X034152Y007849D01*
X034075Y007784D01*
X034115Y007744D01*
X034115Y007187D01*
X034059Y007131D01*
X034075Y007115D02*
X034168Y007115D01*
X034168Y007143D02*
X034168Y006887D01*
X034266Y006651D01*
X034447Y006470D01*
X034683Y006372D01*
X034939Y006372D01*
X035176Y006470D01*
X035357Y006651D01*
X035455Y006887D01*
X035455Y007143D01*
X035357Y007380D01*
X035176Y007561D01*
X034939Y007659D01*
X034683Y007659D01*
X034447Y007561D01*
X034266Y007380D01*
X034168Y007143D01*
X034196Y007213D02*
X034115Y007213D01*
X034115Y007312D02*
X034237Y007312D01*
X034296Y007410D02*
X034115Y007410D01*
X034115Y007509D02*
X034394Y007509D01*
X034558Y007607D02*
X034115Y007607D01*
X034115Y007706D02*
X035496Y007706D01*
X035496Y007804D02*
X034099Y007804D01*
X034239Y007903D02*
X035496Y007903D01*
X035496Y007607D02*
X035065Y007607D01*
X035228Y007509D02*
X035496Y007509D01*
X035496Y007410D02*
X035327Y007410D01*
X035385Y007312D02*
X035496Y007312D01*
X035496Y007213D02*
X035426Y007213D01*
X035455Y007115D02*
X035496Y007115D01*
X035496Y007016D02*
X035455Y007016D01*
X035455Y006918D02*
X035496Y006918D01*
X035496Y006819D02*
X035427Y006819D01*
X035386Y006721D02*
X035496Y006721D01*
X035496Y006622D02*
X035328Y006622D01*
X035230Y006524D02*
X035496Y006524D01*
X035496Y006425D02*
X035068Y006425D01*
X034554Y006425D02*
X033827Y006425D01*
X033627Y006425D02*
X008436Y006425D01*
X008436Y006524D02*
X029531Y006524D01*
X029531Y006522D02*
X029551Y006488D01*
X029579Y006460D01*
X029613Y006440D01*
X029651Y006430D01*
X029820Y006430D01*
X029820Y006748D01*
X029521Y006748D01*
X029521Y006560D01*
X029531Y006522D01*
X029521Y006622D02*
X017107Y006622D01*
X017205Y006721D02*
X029521Y006721D01*
X029521Y006918D02*
X017255Y006918D01*
X017255Y007016D02*
X029521Y007016D01*
X029561Y007115D02*
X017232Y007115D01*
X017134Y007213D02*
X029521Y007213D01*
X029521Y007312D02*
X017098Y007312D01*
X017098Y007410D02*
X029521Y007410D01*
X029521Y007509D02*
X017098Y007509D01*
X017098Y007607D02*
X029521Y007607D01*
X029521Y007706D02*
X022520Y007706D01*
X022512Y007701D02*
X022546Y007721D01*
X022574Y007748D01*
X022594Y007783D01*
X022604Y007821D01*
X022604Y007989D01*
X022286Y007989D01*
X022286Y007691D01*
X022474Y007691D01*
X022512Y007701D01*
X022599Y007804D02*
X029581Y007804D01*
X029636Y007903D02*
X022604Y007903D01*
X022604Y008100D02*
X029567Y008100D01*
X029567Y008198D02*
X022604Y008198D01*
X022591Y008297D02*
X029567Y008297D01*
X029567Y008395D02*
X021936Y008395D01*
X022189Y008297D02*
X022286Y008297D01*
X022286Y008198D02*
X022189Y008198D01*
X022189Y008100D02*
X022286Y008100D01*
X022286Y008001D02*
X029567Y008001D01*
X029570Y008494D02*
X028966Y008494D01*
X028370Y008494D02*
X022280Y008494D01*
X022305Y008592D02*
X028272Y008592D01*
X028205Y008691D02*
X023553Y008691D01*
X023651Y008789D02*
X028164Y008789D01*
X028148Y008888D02*
X023750Y008888D01*
X023798Y008986D02*
X028148Y008986D01*
X028169Y009085D02*
X023798Y009085D01*
X023798Y009183D02*
X028210Y009183D01*
X028283Y009282D02*
X023798Y009282D01*
X023798Y009380D02*
X028393Y009380D01*
X028438Y009479D02*
X023798Y009479D01*
X023798Y009577D02*
X028438Y009577D01*
X028438Y009676D02*
X023798Y009676D01*
X023798Y009774D02*
X028438Y009774D01*
X028438Y009873D02*
X023798Y009873D01*
X023798Y009971D02*
X028438Y009971D01*
X028438Y010070D02*
X023798Y010070D01*
X023798Y010168D02*
X024684Y010168D01*
X024613Y010267D02*
X023798Y010267D01*
X023798Y010365D02*
X024613Y010365D01*
X024613Y010464D02*
X023798Y010464D01*
X023798Y010562D02*
X024613Y010562D01*
X024650Y010661D02*
X023798Y010661D01*
X022838Y010283D02*
X022838Y009661D01*
X022098Y009661D01*
X022098Y009730D01*
X022127Y009730D01*
X022215Y009818D01*
X022215Y010375D01*
X022159Y010431D01*
X022215Y010487D01*
X022215Y011044D01*
X022127Y011132D01*
X021609Y011132D01*
X021598Y011121D01*
X021598Y011829D01*
X021687Y011829D01*
X021687Y011406D01*
X021775Y011319D01*
X021957Y011319D01*
X021959Y011317D01*
X022259Y011317D01*
X022259Y011036D01*
X022315Y010980D01*
X022289Y010954D01*
X022269Y010920D01*
X022259Y010882D01*
X022259Y010694D01*
X022557Y010694D01*
X022557Y010597D01*
X022259Y010597D01*
X022259Y010409D01*
X022269Y010371D01*
X022289Y010337D01*
X022317Y010309D01*
X022351Y010289D01*
X022389Y010279D01*
X022557Y010279D01*
X022557Y010597D01*
X022654Y010597D01*
X022654Y010279D01*
X022822Y010279D01*
X022838Y010283D01*
X022838Y010267D02*
X022215Y010267D01*
X022215Y010365D02*
X022272Y010365D01*
X022259Y010464D02*
X022191Y010464D01*
X022215Y010562D02*
X022259Y010562D01*
X022215Y010661D02*
X022557Y010661D01*
X022557Y010562D02*
X022654Y010562D01*
X022654Y010464D02*
X022557Y010464D01*
X022557Y010365D02*
X022654Y010365D01*
X022838Y010168D02*
X022215Y010168D01*
X022215Y010070D02*
X022838Y010070D01*
X022838Y009971D02*
X022215Y009971D01*
X022215Y009873D02*
X022838Y009873D01*
X022838Y009774D02*
X022171Y009774D01*
X022098Y009676D02*
X022838Y009676D01*
X022259Y010759D02*
X022215Y010759D01*
X022215Y010858D02*
X022259Y010858D01*
X022291Y010956D02*
X022215Y010956D01*
X022205Y011055D02*
X022259Y011055D01*
X022259Y011153D02*
X021598Y011153D01*
X021598Y011252D02*
X022259Y011252D01*
X021744Y011350D02*
X021598Y011350D01*
X021598Y011449D02*
X021687Y011449D01*
X021687Y011547D02*
X021598Y011547D01*
X021598Y011646D02*
X021687Y011646D01*
X021687Y011744D02*
X021598Y011744D01*
X021138Y011744D02*
X020649Y011744D01*
X020649Y011662D02*
X020649Y011829D01*
X020791Y011829D01*
X020863Y011901D01*
X020998Y012036D01*
X020998Y012784D01*
X021112Y012784D01*
X021168Y012840D01*
X021224Y012784D01*
X021781Y012784D01*
X021869Y012872D01*
X021869Y012901D01*
X021938Y012901D01*
X022009Y012830D01*
X022527Y012830D01*
X022615Y012918D01*
X022615Y013475D01*
X022559Y013531D01*
X022585Y013557D01*
X022605Y013591D01*
X022615Y013629D01*
X022615Y013817D01*
X022316Y013817D01*
X022316Y013914D01*
X022220Y013914D01*
X022220Y014232D01*
X022051Y014232D01*
X022013Y014222D01*
X021979Y014202D01*
X021951Y014174D01*
X021931Y014140D01*
X021921Y014102D01*
X021921Y013914D01*
X022220Y013914D01*
X022220Y013817D01*
X021921Y013817D01*
X021921Y013629D01*
X021931Y013591D01*
X021951Y013557D01*
X021977Y013531D01*
X021921Y013475D01*
X021921Y013361D01*
X021869Y013361D01*
X021869Y013390D01*
X021781Y013478D01*
X021733Y013478D01*
X021733Y013484D01*
X021781Y013484D01*
X021869Y013572D01*
X021869Y014090D01*
X021781Y014178D01*
X021698Y014178D01*
X021698Y014701D01*
X021831Y014701D01*
X021831Y014619D01*
X021919Y014531D01*
X022617Y014531D01*
X022705Y014619D01*
X022705Y014701D01*
X023173Y014701D01*
X023238Y014636D01*
X023238Y013036D01*
X023438Y012836D01*
X023573Y012701D01*
X024651Y012701D01*
X024671Y012681D01*
X024651Y012661D01*
X023573Y012661D01*
X023473Y012561D01*
X023338Y012426D01*
X023338Y012109D01*
X023228Y012219D01*
X023003Y012219D01*
X023055Y012271D01*
X023055Y012592D01*
X022828Y012819D01*
X022507Y012819D01*
X022280Y012592D01*
X022280Y012545D01*
X021959Y012545D01*
X021957Y012544D01*
X021775Y012544D01*
X021687Y012456D01*
X021687Y012289D01*
X021401Y012289D01*
X021273Y012161D01*
X021138Y012026D01*
X021138Y011178D01*
X020724Y011178D01*
X020668Y011122D01*
X020612Y011178D01*
X020055Y011178D01*
X019967Y011090D01*
X019967Y010572D01*
X020055Y010484D01*
X020103Y010484D01*
X020103Y010278D01*
X020055Y010278D01*
X019967Y010190D01*
X019967Y010161D01*
X019915Y010161D01*
X019915Y010275D01*
X019859Y010331D01*
X019885Y010357D01*
X019905Y010391D01*
X019915Y010429D01*
X019915Y010617D01*
X019616Y010617D01*
X019616Y010714D01*
X019520Y010714D01*
X019520Y011032D01*
X019351Y011032D01*
X019313Y011022D01*
X019279Y011002D01*
X019251Y010974D01*
X019231Y010940D01*
X019221Y010902D01*
X019221Y010852D01*
X018631Y010852D01*
X018822Y011044D01*
X019028Y011044D01*
X019255Y011271D01*
X019255Y011573D01*
X019916Y011573D01*
X019916Y011547D01*
X019255Y011547D01*
X019255Y011449D02*
X019916Y011449D01*
X019926Y011411D01*
X019946Y011376D01*
X019974Y011348D01*
X020008Y011329D01*
X020046Y011319D01*
X020282Y011319D01*
X020282Y011547D01*
X020282Y011547D01*
X020282Y011547D01*
X019916Y011547D01*
X019916Y011449D01*
X019916Y011547D02*
X020282Y011547D01*
X020282Y011547D01*
X020282Y011319D01*
X020518Y011319D01*
X020557Y011329D01*
X020591Y011348D01*
X020619Y011376D01*
X020638Y011411D01*
X020649Y011449D01*
X020649Y011547D01*
X021138Y011547D01*
X021138Y011449D02*
X020649Y011449D01*
X020649Y011547D02*
X020282Y011547D01*
X020282Y011547D01*
X020649Y011547D01*
X020649Y011646D01*
X020645Y011659D01*
X020649Y011662D01*
X020649Y011646D02*
X021138Y011646D01*
X021138Y011843D02*
X020805Y011843D01*
X020903Y011941D02*
X021138Y011941D01*
X021151Y012040D02*
X020998Y012040D01*
X020998Y012138D02*
X021250Y012138D01*
X021348Y012237D02*
X020998Y012237D01*
X020998Y012335D02*
X021687Y012335D01*
X021687Y012434D02*
X020998Y012434D01*
X020998Y012532D02*
X021764Y012532D01*
X021825Y012828D02*
X023446Y012828D01*
X023348Y012926D02*
X022615Y012926D01*
X022615Y013025D02*
X023249Y013025D01*
X023238Y013123D02*
X022615Y013123D01*
X022615Y013222D02*
X023238Y013222D01*
X023238Y013320D02*
X022615Y013320D01*
X022615Y013419D02*
X023238Y013419D01*
X023238Y013517D02*
X022573Y013517D01*
X022611Y013616D02*
X023238Y013616D01*
X023238Y013714D02*
X022615Y013714D01*
X022615Y013813D02*
X023238Y013813D01*
X023238Y013911D02*
X022316Y013911D01*
X022316Y013914D02*
X022615Y013914D01*
X022615Y014102D01*
X022605Y014140D01*
X022585Y014174D01*
X022557Y014202D01*
X022523Y014222D01*
X022485Y014232D01*
X022316Y014232D01*
X022316Y013914D01*
X022316Y014010D02*
X022220Y014010D01*
X022220Y014108D02*
X022316Y014108D01*
X022316Y014207D02*
X022220Y014207D01*
X021986Y014207D02*
X021698Y014207D01*
X021698Y014305D02*
X023238Y014305D01*
X023238Y014207D02*
X022549Y014207D01*
X022613Y014108D02*
X023238Y014108D01*
X023238Y014010D02*
X022615Y014010D01*
X022220Y013911D02*
X021869Y013911D01*
X021869Y013813D02*
X021921Y013813D01*
X021921Y013714D02*
X021869Y013714D01*
X021869Y013616D02*
X021925Y013616D01*
X021963Y013517D02*
X021814Y013517D01*
X021841Y013419D02*
X021921Y013419D01*
X021921Y014010D02*
X021869Y014010D01*
X021851Y014108D02*
X021923Y014108D01*
X021698Y014404D02*
X023238Y014404D01*
X023238Y014502D02*
X021698Y014502D01*
X021698Y014601D02*
X021849Y014601D01*
X021831Y014699D02*
X021698Y014699D01*
X021623Y015192D02*
X021831Y015192D01*
X021878Y015290D02*
X021544Y015290D01*
X021422Y015389D02*
X026438Y015389D01*
X026438Y015290D02*
X022658Y015290D01*
X022705Y015192D02*
X026438Y015192D01*
X026438Y015093D02*
X023431Y015093D01*
X023530Y014995D02*
X026438Y014995D01*
X026438Y014896D02*
X023628Y014896D01*
X023698Y014798D02*
X026438Y014798D01*
X026438Y014699D02*
X023698Y014699D01*
X023698Y014601D02*
X026438Y014601D01*
X026438Y014502D02*
X023698Y014502D01*
X023698Y014404D02*
X026438Y014404D01*
X026438Y014305D02*
X023698Y014305D01*
X023698Y014207D02*
X026438Y014207D01*
X026438Y014108D02*
X023698Y014108D01*
X023698Y014010D02*
X026438Y014010D01*
X026438Y013911D02*
X023698Y013911D01*
X023698Y013813D02*
X026438Y013813D01*
X026438Y013714D02*
X023698Y013714D01*
X023698Y013616D02*
X024613Y013616D01*
X024613Y013517D02*
X023698Y013517D01*
X023698Y013419D02*
X024613Y013419D01*
X024613Y013320D02*
X023698Y013320D01*
X023703Y013222D02*
X024630Y013222D01*
X025696Y013222D02*
X026438Y013222D01*
X026438Y013320D02*
X025713Y013320D01*
X025713Y013419D02*
X026438Y013419D01*
X026438Y013517D02*
X025713Y013517D01*
X025713Y013616D02*
X026438Y013616D01*
X026898Y013616D02*
X027232Y013616D01*
X027233Y013619D02*
X027223Y013581D01*
X027223Y013446D01*
X027758Y013446D01*
X027758Y013416D01*
X027223Y013416D01*
X027223Y013281D01*
X027233Y013243D01*
X027253Y013209D01*
X027281Y013181D01*
X027223Y013123D01*
X026898Y013123D01*
X026898Y013025D02*
X027223Y013025D01*
X027223Y013123D02*
X027223Y012739D01*
X027281Y012681D01*
X027223Y012623D01*
X027223Y012239D01*
X027281Y012181D01*
X027261Y012161D01*
X026898Y012161D01*
X026898Y015401D01*
X030121Y015401D01*
X030121Y015318D01*
X030209Y015230D01*
X030238Y015230D01*
X030238Y014849D01*
X030080Y014692D01*
X030080Y014371D01*
X030307Y014144D01*
X030555Y014144D01*
X030438Y014026D01*
X030438Y013878D01*
X030355Y013878D01*
X030267Y013790D01*
X030267Y013272D01*
X030355Y013184D01*
X030438Y013184D01*
X030438Y012956D01*
X030356Y012956D01*
X030268Y012868D01*
X030268Y012494D01*
X030331Y012431D01*
X030311Y012411D01*
X030113Y012411D01*
X030098Y012426D01*
X030098Y012926D01*
X030326Y012926D01*
X030268Y012828D02*
X030098Y012828D01*
X030098Y012926D02*
X029963Y013061D01*
X029863Y013161D01*
X029605Y013161D01*
X029605Y013243D01*
X029517Y013331D01*
X028898Y013331D01*
X028898Y014264D01*
X028963Y014290D01*
X029109Y014437D01*
X029188Y014628D01*
X029188Y014835D01*
X029109Y015026D01*
X028963Y015172D01*
X028771Y015251D01*
X028565Y015251D01*
X028373Y015172D01*
X028227Y015026D01*
X028148Y014835D01*
X028148Y014628D01*
X028227Y014437D01*
X028373Y014290D01*
X028438Y014264D01*
X028438Y013161D01*
X028285Y013161D01*
X028265Y013181D01*
X028293Y013209D01*
X028313Y013243D01*
X028323Y013281D01*
X028323Y013416D01*
X027788Y013416D01*
X027788Y013446D01*
X028323Y013446D01*
X028323Y013581D01*
X028313Y013619D01*
X028293Y013653D01*
X028265Y013681D01*
X028231Y013701D01*
X028193Y013711D01*
X027788Y013711D01*
X027788Y013446D01*
X027758Y013446D01*
X027758Y013711D01*
X027353Y013711D01*
X027315Y013701D01*
X027281Y013681D01*
X027253Y013653D01*
X027233Y013619D01*
X027223Y013517D02*
X026898Y013517D01*
X026898Y013419D02*
X027758Y013419D01*
X027788Y013419D02*
X028438Y013419D01*
X028438Y013517D02*
X028323Y013517D01*
X028314Y013616D02*
X028438Y013616D01*
X028438Y013714D02*
X026898Y013714D01*
X026898Y013813D02*
X028438Y013813D01*
X028438Y013911D02*
X026898Y013911D01*
X026898Y014010D02*
X028438Y014010D01*
X028438Y014108D02*
X026898Y014108D01*
X026898Y014207D02*
X028438Y014207D01*
X028359Y014305D02*
X026898Y014305D01*
X026898Y014404D02*
X028260Y014404D01*
X028200Y014502D02*
X026898Y014502D01*
X026898Y014601D02*
X028159Y014601D01*
X028148Y014699D02*
X026898Y014699D01*
X026898Y014798D02*
X028148Y014798D01*
X028173Y014896D02*
X026898Y014896D01*
X026898Y014995D02*
X028214Y014995D01*
X028295Y015093D02*
X026898Y015093D01*
X026898Y015192D02*
X028421Y015192D01*
X028915Y015192D02*
X030238Y015192D01*
X030238Y015093D02*
X029041Y015093D01*
X029122Y014995D02*
X030238Y014995D01*
X030238Y014896D02*
X029162Y014896D01*
X029188Y014798D02*
X030187Y014798D01*
X030088Y014699D02*
X029188Y014699D01*
X029177Y014601D02*
X030080Y014601D01*
X030080Y014502D02*
X029136Y014502D01*
X029076Y014404D02*
X030080Y014404D01*
X030146Y014305D02*
X028977Y014305D01*
X028898Y014207D02*
X030244Y014207D01*
X030438Y014010D02*
X028898Y014010D01*
X028898Y014108D02*
X030520Y014108D01*
X030438Y013911D02*
X028898Y013911D01*
X028898Y013813D02*
X030289Y013813D01*
X030267Y013714D02*
X028898Y013714D01*
X028898Y013616D02*
X030267Y013616D01*
X030267Y013517D02*
X028898Y013517D01*
X028898Y013419D02*
X030267Y013419D01*
X030267Y013320D02*
X029528Y013320D01*
X029605Y013222D02*
X030317Y013222D01*
X030438Y013123D02*
X029901Y013123D01*
X029963Y013061D02*
X029963Y013061D01*
X030000Y013025D02*
X030438Y013025D01*
X030268Y012729D02*
X030098Y012729D01*
X030098Y012631D02*
X030268Y012631D01*
X030268Y012532D02*
X030098Y012532D01*
X030098Y012434D02*
X030328Y012434D01*
X028438Y013222D02*
X028300Y013222D01*
X028323Y013320D02*
X028438Y013320D01*
X027788Y013517D02*
X027758Y013517D01*
X027758Y013616D02*
X027788Y013616D01*
X027223Y013320D02*
X026898Y013320D01*
X026898Y013222D02*
X027246Y013222D01*
X027223Y012926D02*
X026898Y012926D01*
X026898Y012828D02*
X027223Y012828D01*
X027233Y012729D02*
X026898Y012729D01*
X026898Y012631D02*
X027230Y012631D01*
X027223Y012532D02*
X026898Y012532D01*
X026898Y012434D02*
X027223Y012434D01*
X027223Y012335D02*
X026898Y012335D01*
X026898Y012237D02*
X027225Y012237D01*
X027245Y011646D02*
X026198Y011646D01*
X026198Y011744D02*
X026630Y011744D01*
X026531Y011843D02*
X026198Y011843D01*
X026198Y011941D02*
X026438Y011941D01*
X026438Y012040D02*
X026198Y012040D01*
X026198Y012138D02*
X026438Y012138D01*
X026438Y012237D02*
X026198Y012237D01*
X026198Y012335D02*
X026438Y012335D01*
X026438Y012434D02*
X026198Y012434D01*
X026198Y012532D02*
X026438Y012532D01*
X026438Y012631D02*
X026198Y012631D01*
X026198Y012729D02*
X026438Y012729D01*
X026438Y013025D02*
X026100Y013025D01*
X026001Y013123D02*
X026438Y013123D01*
X026198Y011547D02*
X027223Y011547D01*
X027223Y011449D02*
X026198Y011449D01*
X026112Y011350D02*
X027223Y011350D01*
X027223Y011252D02*
X026014Y011252D01*
X025683Y011153D02*
X027253Y011153D01*
X027223Y011055D02*
X025713Y011055D01*
X025713Y010956D02*
X027223Y010956D01*
X027223Y010858D02*
X025713Y010858D01*
X025713Y010759D02*
X027223Y010759D01*
X027260Y010661D02*
X025676Y010661D01*
X025713Y010562D02*
X027223Y010562D01*
X027223Y010464D02*
X025713Y010464D01*
X025713Y010365D02*
X027223Y010365D01*
X027223Y010416D02*
X027223Y010281D01*
X027233Y010243D01*
X027253Y010209D01*
X027281Y010181D01*
X027315Y010161D01*
X027353Y010151D01*
X027758Y010151D01*
X027758Y010416D01*
X027223Y010416D01*
X027227Y010267D02*
X025713Y010267D01*
X025642Y010168D02*
X027303Y010168D01*
X027758Y010168D02*
X027788Y010168D01*
X027788Y010267D02*
X027758Y010267D01*
X027758Y010365D02*
X027788Y010365D01*
X028243Y010168D02*
X028438Y010168D01*
X028438Y010267D02*
X028319Y010267D01*
X028323Y010365D02*
X028438Y010365D01*
X028438Y010464D02*
X028323Y010464D01*
X028323Y010562D02*
X028438Y010562D01*
X028438Y010661D02*
X028286Y010661D01*
X030230Y007903D02*
X030306Y007903D01*
X030379Y007213D02*
X030215Y007213D01*
X030175Y007115D02*
X030379Y007115D01*
X030379Y007016D02*
X030215Y007016D01*
X030215Y006918D02*
X030379Y006918D01*
X030379Y006819D02*
X029916Y006819D01*
X029820Y006819D02*
X017255Y006819D01*
X016629Y006622D02*
X011944Y006622D01*
X012042Y006721D02*
X016530Y006721D01*
X016480Y006819D02*
X012141Y006819D01*
X012152Y006918D02*
X016480Y006918D01*
X016480Y007016D02*
X012152Y007016D01*
X012152Y007115D02*
X016504Y007115D01*
X016602Y007213D02*
X012139Y007213D01*
X012041Y007312D02*
X016638Y007312D01*
X016638Y007410D02*
X012015Y007410D01*
X012015Y007509D02*
X016638Y007509D01*
X016638Y007607D02*
X012015Y007607D01*
X011994Y007706D02*
X016638Y007706D01*
X016638Y007804D02*
X011933Y007804D01*
X011835Y007903D02*
X016638Y007903D01*
X016638Y008001D02*
X011726Y008001D01*
X011465Y008100D02*
X016638Y008100D01*
X016638Y008198D02*
X011469Y008198D01*
X011469Y008380D02*
X011151Y008380D01*
X011151Y008678D01*
X011339Y008678D01*
X011377Y008668D01*
X011411Y008648D01*
X011439Y008620D01*
X011459Y008586D01*
X011469Y008548D01*
X011469Y008380D01*
X011469Y008395D02*
X016638Y008395D01*
X016638Y008297D02*
X011151Y008297D01*
X011151Y008395D02*
X011054Y008395D01*
X011054Y008494D02*
X011151Y008494D01*
X011151Y008592D02*
X011054Y008592D01*
X011455Y008592D02*
X016638Y008592D01*
X016638Y008494D02*
X011469Y008494D01*
X011786Y008691D02*
X010663Y008691D01*
X010663Y008789D02*
X011710Y008789D01*
X011710Y008888D02*
X011435Y008888D01*
X011469Y008986D02*
X011710Y008986D01*
X011710Y009085D02*
X011469Y009085D01*
X011469Y009183D02*
X011710Y009183D01*
X011786Y009282D02*
X011469Y009282D01*
X011469Y009380D02*
X011710Y009380D01*
X011710Y009479D02*
X011431Y009479D01*
X011333Y009577D02*
X011710Y009577D01*
X011710Y009676D02*
X011333Y009676D01*
X011469Y009774D02*
X011710Y009774D01*
X011635Y009873D02*
X011787Y009873D01*
X011733Y009971D02*
X011983Y009971D01*
X011938Y009926D02*
X011938Y009926D01*
X011798Y010070D02*
X012443Y010070D01*
X012376Y010168D02*
X011798Y010168D01*
X011798Y010267D02*
X012376Y010267D01*
X012376Y010365D02*
X011798Y010365D01*
X013254Y009282D02*
X013351Y009282D01*
X013351Y009183D02*
X013254Y009183D01*
X013254Y009085D02*
X013351Y009085D01*
X013351Y008986D02*
X013254Y008986D01*
X013059Y008986D02*
X012914Y008986D01*
X012515Y008888D02*
X013638Y008888D01*
X013638Y008986D02*
X013546Y008986D01*
X013685Y008789D02*
X012417Y008789D01*
X012250Y008691D02*
X013783Y008691D01*
X014889Y009085D02*
X015280Y009085D01*
X015200Y009183D02*
X014969Y009183D01*
X015010Y009282D02*
X015159Y009282D01*
X015135Y009380D02*
X015035Y009380D01*
X015035Y009479D02*
X015135Y009479D01*
X015146Y009577D02*
X015023Y009577D01*
X014982Y009676D02*
X015187Y009676D01*
X015248Y009774D02*
X014921Y009774D01*
X014823Y009873D02*
X015346Y009873D01*
X015963Y009873D02*
X016638Y009873D01*
X016638Y009971D02*
X014698Y009971D01*
X014698Y010070D02*
X016638Y010070D01*
X016638Y010168D02*
X014698Y010168D01*
X014698Y010267D02*
X016638Y010267D01*
X016638Y010365D02*
X014698Y010365D01*
X014661Y010464D02*
X016638Y010464D01*
X016638Y010562D02*
X014562Y010562D01*
X014464Y010661D02*
X016638Y010661D01*
X016638Y010759D02*
X014365Y010759D01*
X013660Y010858D02*
X016638Y010858D01*
X016638Y010956D02*
X013634Y010956D01*
X016061Y009774D02*
X016638Y009774D01*
X016638Y009676D02*
X016122Y009676D01*
X016163Y009577D02*
X016638Y009577D01*
X016638Y009479D02*
X016175Y009479D01*
X016175Y009380D02*
X016638Y009380D01*
X016638Y009282D02*
X016150Y009282D01*
X016109Y009183D02*
X016638Y009183D01*
X016638Y009085D02*
X016029Y009085D01*
X015905Y008986D02*
X016638Y008986D01*
X016638Y008888D02*
X015898Y008888D01*
X015851Y008789D02*
X016638Y008789D01*
X016638Y008691D02*
X015753Y008691D01*
X017098Y008691D02*
X020163Y008691D01*
X020148Y008789D02*
X017098Y008789D01*
X017098Y008888D02*
X020103Y008888D01*
X020103Y008986D02*
X017098Y008986D01*
X017098Y009085D02*
X020103Y009085D01*
X020103Y009183D02*
X017098Y009183D01*
X017098Y009282D02*
X020103Y009282D01*
X020103Y009380D02*
X017098Y009380D01*
X017098Y009479D02*
X020103Y009479D01*
X020103Y009577D02*
X017098Y009577D01*
X017098Y009676D02*
X019263Y009676D01*
X019873Y009676D02*
X019967Y009676D01*
X019967Y010168D02*
X019915Y010168D01*
X019915Y010267D02*
X020043Y010267D01*
X020103Y010365D02*
X019889Y010365D01*
X019915Y010464D02*
X020103Y010464D01*
X019977Y010562D02*
X019915Y010562D01*
X019967Y010661D02*
X019616Y010661D01*
X019616Y010714D02*
X019915Y010714D01*
X019915Y010902D01*
X019905Y010940D01*
X019885Y010974D01*
X019857Y011002D01*
X019823Y011022D01*
X019785Y011032D01*
X019616Y011032D01*
X019616Y010714D01*
X019616Y010759D02*
X019520Y010759D01*
X019520Y010858D02*
X019616Y010858D01*
X019616Y010956D02*
X019520Y010956D01*
X019241Y010956D02*
X018735Y010956D01*
X018636Y010858D02*
X019221Y010858D01*
X019039Y011055D02*
X019967Y011055D01*
X019967Y010956D02*
X019895Y010956D01*
X019915Y010858D02*
X019967Y010858D01*
X019967Y010759D02*
X019915Y010759D01*
X020030Y011153D02*
X019138Y011153D01*
X019236Y011252D02*
X021138Y011252D01*
X021138Y011350D02*
X020592Y011350D01*
X020637Y011153D02*
X020699Y011153D01*
X020282Y011350D02*
X020282Y011350D01*
X020282Y011449D02*
X020282Y011449D01*
X019972Y011350D02*
X019255Y011350D01*
X018053Y011055D02*
X017098Y011055D01*
X017098Y011153D02*
X017281Y011153D01*
X017274Y011158D02*
X017308Y011138D01*
X017346Y011128D01*
X017534Y011128D01*
X017534Y011426D01*
X017216Y011426D01*
X017216Y011258D01*
X017226Y011220D01*
X017246Y011185D01*
X017274Y011158D01*
X017217Y011252D02*
X017098Y011252D01*
X017098Y011350D02*
X017216Y011350D01*
X017098Y011449D02*
X017534Y011449D01*
X017534Y011547D02*
X017631Y011547D01*
X017631Y011646D02*
X017534Y011646D01*
X017534Y011744D02*
X017610Y011744D01*
X017557Y011843D02*
X017098Y011843D01*
X017098Y011941D02*
X017533Y011941D01*
X017434Y012040D02*
X017098Y012040D01*
X017098Y012138D02*
X017338Y012138D01*
X017338Y012237D02*
X017098Y012237D01*
X017098Y012335D02*
X017338Y012335D01*
X017338Y012434D02*
X017098Y012434D01*
X017098Y012532D02*
X017338Y012532D01*
X017338Y012631D02*
X017098Y012631D01*
X017098Y012729D02*
X017331Y012729D01*
X017268Y012828D02*
X017098Y012828D01*
X017098Y012926D02*
X017268Y012926D01*
X017268Y013025D02*
X017098Y013025D01*
X017098Y013123D02*
X017268Y013123D01*
X017268Y013222D02*
X017098Y013222D01*
X017098Y013320D02*
X017318Y013320D01*
X017366Y013419D02*
X017098Y013419D01*
X017098Y013517D02*
X017366Y013517D01*
X017366Y013616D02*
X017098Y013616D01*
X017098Y013714D02*
X017366Y013714D01*
X017366Y013813D02*
X017098Y013813D01*
X017098Y013911D02*
X017366Y013911D01*
X017366Y014010D02*
X017098Y014010D01*
X017098Y014108D02*
X017366Y014108D01*
X017418Y014207D02*
X017098Y014207D01*
X017098Y014305D02*
X017517Y014305D01*
X017538Y014326D02*
X017538Y014326D01*
X017615Y014404D02*
X017098Y014404D01*
X017098Y014502D02*
X020862Y014502D01*
X020763Y014601D02*
X020450Y014601D01*
X020535Y014699D02*
X020701Y014699D01*
X019886Y014601D02*
X019749Y014601D01*
X019547Y014601D02*
X019450Y014601D01*
X019450Y014597D02*
X019450Y014895D01*
X019132Y014895D01*
X019132Y014727D01*
X019142Y014689D01*
X019162Y014655D01*
X019190Y014627D01*
X019224Y014607D01*
X019262Y014597D01*
X019450Y014597D01*
X019450Y014699D02*
X019547Y014699D01*
X019547Y014798D02*
X019450Y014798D01*
X019450Y014896D02*
X017098Y014896D01*
X017098Y014798D02*
X019132Y014798D01*
X019140Y014699D02*
X017098Y014699D01*
X017098Y014601D02*
X019248Y014601D01*
X019132Y014992D02*
X019450Y014992D01*
X019450Y015291D01*
X019262Y015291D01*
X019224Y015280D01*
X019190Y015261D01*
X019162Y015233D01*
X019142Y015198D01*
X019132Y015160D01*
X019132Y014992D01*
X019132Y014995D02*
X017098Y014995D01*
X017098Y015093D02*
X019132Y015093D01*
X019141Y015192D02*
X017098Y015192D01*
X017175Y015290D02*
X019261Y015290D01*
X019450Y015290D02*
X019547Y015290D01*
X019547Y015192D02*
X019450Y015192D01*
X019450Y015093D02*
X019547Y015093D01*
X019547Y014995D02*
X019450Y014995D01*
X019737Y015290D02*
X019889Y015290D01*
X020062Y015389D02*
X017255Y015389D01*
X017255Y015487D02*
X019980Y015487D01*
X019980Y015586D02*
X017255Y015586D01*
X017255Y015684D02*
X019980Y015684D01*
X019980Y015783D02*
X017164Y015783D01*
X017066Y015881D02*
X020070Y015881D01*
X020169Y015980D02*
X016745Y015980D01*
X016109Y016078D02*
X030121Y016078D01*
X030121Y016177D02*
X016029Y016177D01*
X015905Y016275D02*
X030121Y016275D01*
X030121Y016374D02*
X012020Y016374D01*
X012020Y016472D02*
X030121Y016472D01*
X030147Y016571D02*
X013596Y016571D01*
X014264Y016275D02*
X012020Y016275D01*
X012020Y016177D02*
X014140Y016177D01*
X014060Y016078D02*
X012020Y016078D01*
X012020Y015980D02*
X012426Y015980D01*
X012376Y015881D02*
X012020Y015881D01*
X011898Y015389D02*
X012376Y015389D01*
X012376Y015290D02*
X011898Y015290D01*
X011898Y015192D02*
X012376Y015192D01*
X012419Y015093D02*
X011898Y015093D01*
X011857Y014995D02*
X012206Y014995D01*
X012108Y014896D02*
X011758Y014896D01*
X011712Y014798D02*
X011469Y014798D01*
X011396Y014699D02*
X011710Y014699D01*
X011710Y014601D02*
X011333Y014601D01*
X011407Y014502D02*
X011710Y014502D01*
X011710Y014404D02*
X011469Y014404D01*
X011469Y014305D02*
X011762Y014305D01*
X011712Y014207D02*
X011469Y014207D01*
X011469Y014108D02*
X011710Y014108D01*
X011710Y014010D02*
X011469Y014010D01*
X011458Y013911D02*
X011710Y013911D01*
X011710Y013813D02*
X010633Y013813D01*
X010633Y013714D02*
X011763Y013714D01*
X011459Y013586D02*
X011439Y013620D01*
X011411Y013648D01*
X011377Y013668D01*
X011339Y013678D01*
X011151Y013678D01*
X011151Y013380D01*
X011469Y013380D01*
X011469Y013548D01*
X011459Y013586D01*
X011442Y013616D02*
X016638Y013616D01*
X016638Y013714D02*
X012273Y013714D01*
X012540Y013813D02*
X016638Y013813D01*
X016638Y013911D02*
X012639Y013911D01*
X013304Y014010D02*
X013401Y014010D01*
X013401Y013934D02*
X013589Y013934D01*
X013627Y013944D01*
X013661Y013964D01*
X013689Y013992D01*
X013709Y014026D01*
X013719Y014065D01*
X013719Y014233D01*
X013401Y014233D01*
X013401Y013934D01*
X013401Y014108D02*
X013304Y014108D01*
X013304Y014207D02*
X013401Y014207D01*
X013401Y014305D02*
X013994Y014305D01*
X013968Y014404D02*
X013719Y014404D01*
X013718Y014502D02*
X014431Y014502D01*
X014431Y014404D02*
X014531Y014404D01*
X014531Y014502D02*
X015571Y014502D01*
X015571Y014404D02*
X015671Y014404D01*
X015671Y014502D02*
X016638Y014502D01*
X016638Y014404D02*
X016135Y014404D01*
X016109Y014305D02*
X016638Y014305D01*
X016638Y014207D02*
X016060Y014207D01*
X015977Y014108D02*
X016638Y014108D01*
X016638Y014010D02*
X015828Y014010D01*
X015671Y014010D02*
X015571Y014010D01*
X015571Y014108D02*
X015671Y014108D01*
X015671Y014207D02*
X015571Y014207D01*
X015571Y014305D02*
X015671Y014305D01*
X015415Y014010D02*
X014688Y014010D01*
X014531Y014010D02*
X014431Y014010D01*
X014431Y014108D02*
X014531Y014108D01*
X014531Y014207D02*
X014431Y014207D01*
X014431Y014305D02*
X014531Y014305D01*
X014837Y014108D02*
X015266Y014108D01*
X015183Y014207D02*
X014920Y014207D01*
X014969Y014305D02*
X015134Y014305D01*
X015108Y014404D02*
X014995Y014404D01*
X014990Y014601D02*
X015113Y014601D01*
X015146Y014699D02*
X014957Y014699D01*
X014899Y014798D02*
X015204Y014798D01*
X015299Y014896D02*
X014804Y014896D01*
X014822Y015389D02*
X015347Y015389D01*
X015248Y015487D02*
X014921Y015487D01*
X014982Y015586D02*
X015187Y015586D01*
X015146Y015684D02*
X015023Y015684D01*
X015035Y015783D02*
X015135Y015783D01*
X015135Y015881D02*
X015035Y015881D01*
X015010Y015980D02*
X015159Y015980D01*
X015200Y016078D02*
X014969Y016078D01*
X014889Y016177D02*
X015280Y016177D01*
X015404Y016275D02*
X014765Y016275D01*
X014019Y015980D02*
X013610Y015980D01*
X013660Y015881D02*
X013995Y015881D01*
X013995Y015783D02*
X013660Y015783D01*
X013068Y016571D02*
X012968Y016571D01*
X012968Y016669D02*
X013068Y016669D01*
X013068Y016768D02*
X012968Y016768D01*
X012968Y016866D02*
X013068Y016866D01*
X013068Y017162D02*
X012968Y017162D01*
X012968Y017260D02*
X013068Y017260D01*
X013068Y017359D02*
X012968Y017359D01*
X012968Y017457D02*
X013068Y017457D01*
X013629Y017457D02*
X032840Y017457D01*
X032840Y017359D02*
X013660Y017359D01*
X013660Y017260D02*
X032838Y017260D01*
X032847Y017162D02*
X013660Y017162D01*
X012440Y016571D02*
X011999Y016571D01*
X011654Y016571D02*
X011654Y016571D01*
X011654Y016472D02*
X011654Y016472D01*
X011151Y016768D02*
X011054Y016768D01*
X011054Y016866D02*
X011151Y016866D01*
X011151Y016965D02*
X011054Y016965D01*
X008236Y017842D02*
X033827Y017842D01*
X033827Y017542D02*
X034014Y017532D01*
X034378Y017448D01*
X034715Y017286D01*
X035007Y017053D01*
X035240Y016761D01*
X035402Y016425D01*
X035485Y016060D01*
X035496Y015874D01*
X035496Y014700D01*
X035474Y014700D01*
X035157Y014746D01*
X034847Y014830D01*
X034549Y014951D01*
X034268Y015107D01*
X034009Y015296D01*
X033773Y015514D01*
X033566Y015759D01*
X033390Y016028D01*
X033247Y016316D01*
X033140Y016618D01*
X033071Y016932D01*
X033040Y017252D01*
X033040Y017542D01*
X033827Y017542D01*
X034340Y017457D02*
X033040Y017457D01*
X033040Y017359D02*
X034565Y017359D01*
X034748Y017260D02*
X033040Y017260D01*
X033048Y017162D02*
X034871Y017162D01*
X034850Y017063D02*
X034995Y017063D01*
X034979Y017010D02*
X034742Y017108D01*
X034486Y017108D01*
X034250Y017010D01*
X034069Y016829D01*
X033971Y016592D01*
X033971Y016336D01*
X034069Y016100D01*
X034250Y015918D01*
X034486Y015820D01*
X034742Y015820D01*
X034979Y015918D01*
X035160Y016100D01*
X035258Y016336D01*
X035258Y016592D01*
X035160Y016829D01*
X034979Y017010D01*
X035024Y016965D02*
X035078Y016965D01*
X035123Y016866D02*
X035156Y016866D01*
X035185Y016768D02*
X035235Y016768D01*
X035226Y016669D02*
X035284Y016669D01*
X035258Y016571D02*
X035332Y016571D01*
X035379Y016472D02*
X035258Y016472D01*
X035258Y016374D02*
X035414Y016374D01*
X035436Y016275D02*
X035233Y016275D01*
X035192Y016177D02*
X035459Y016177D01*
X035481Y016078D02*
X035139Y016078D01*
X035040Y015980D02*
X035490Y015980D01*
X035495Y015881D02*
X034889Y015881D01*
X034340Y015881D02*
X033486Y015881D01*
X033551Y015783D02*
X035496Y015783D01*
X035496Y015684D02*
X033630Y015684D01*
X033713Y015586D02*
X035496Y015586D01*
X035496Y015487D02*
X033802Y015487D01*
X033908Y015389D02*
X035496Y015389D01*
X035496Y015290D02*
X034016Y015290D01*
X034152Y015192D02*
X035496Y015192D01*
X035496Y015093D02*
X034294Y015093D01*
X034471Y014995D02*
X035496Y014995D01*
X035496Y014896D02*
X034685Y014896D01*
X034638Y014699D02*
X034188Y014699D01*
X034188Y014798D02*
X034397Y014798D01*
X034236Y014896D02*
X034162Y014896D01*
X034177Y014601D02*
X034929Y014601D01*
X034967Y014798D02*
X035496Y014798D01*
X035387Y014502D02*
X034136Y014502D01*
X034076Y014404D02*
X035496Y014404D01*
X035796Y015874D02*
X035796Y006031D01*
X006268Y006031D01*
X006568Y006331D02*
X006568Y008000D01*
X006687Y008000D01*
X006705Y007956D01*
X006792Y007868D01*
X006992Y007668D01*
X007069Y007636D01*
X006888Y007561D01*
X006707Y007380D01*
X006609Y007143D01*
X006609Y006887D01*
X006707Y006651D01*
X006888Y006470D01*
X007124Y006372D01*
X007380Y006372D01*
X007617Y006470D01*
X007798Y006651D01*
X007896Y006887D01*
X007896Y007143D01*
X007798Y007380D01*
X007617Y007561D01*
X007472Y007621D01*
X008119Y007621D01*
X008151Y007570D01*
X008198Y007456D01*
X008227Y007335D01*
X008236Y007212D01*
X008236Y006331D01*
X006568Y006331D01*
X006568Y006425D02*
X006995Y006425D01*
X006834Y006524D02*
X006568Y006524D01*
X006568Y006622D02*
X006735Y006622D01*
X006678Y006721D02*
X006568Y006721D01*
X006568Y006819D02*
X006637Y006819D01*
X006609Y006918D02*
X006568Y006918D01*
X006568Y007016D02*
X006609Y007016D01*
X006609Y007115D02*
X006568Y007115D01*
X006568Y007213D02*
X006637Y007213D01*
X006678Y007312D02*
X006568Y007312D01*
X006568Y007410D02*
X006737Y007410D01*
X006835Y007509D02*
X006568Y007509D01*
X006568Y007607D02*
X006999Y007607D01*
X006955Y007706D02*
X006568Y007706D01*
X006568Y007804D02*
X006857Y007804D01*
X006758Y007903D02*
X006568Y007903D01*
X007278Y008297D02*
X009558Y008297D01*
X009558Y008395D02*
X007278Y008395D01*
X007278Y008494D02*
X009558Y008494D01*
X009558Y008592D02*
X007278Y008592D01*
X007278Y008691D02*
X009558Y008691D01*
X009558Y008789D02*
X007278Y008789D01*
X007278Y008888D02*
X007888Y008888D01*
X007886Y008891D02*
X007906Y008856D01*
X007934Y008828D01*
X007968Y008809D01*
X008006Y008798D01*
X008468Y008798D01*
X008468Y009233D01*
X008568Y009233D01*
X008568Y008798D01*
X009030Y008798D01*
X009068Y008809D01*
X009102Y008828D01*
X009130Y008856D01*
X009150Y008891D01*
X009160Y008929D01*
X009160Y009233D01*
X008568Y009233D01*
X008568Y009333D01*
X009160Y009333D01*
X009160Y009637D01*
X009150Y009676D01*
X009130Y009710D01*
X009102Y009738D01*
X009068Y009757D01*
X009030Y009768D01*
X008568Y009768D01*
X008568Y009333D01*
X008468Y009333D01*
X008468Y009233D01*
X007876Y009233D01*
X007876Y008929D01*
X007886Y008891D01*
X007876Y008986D02*
X007278Y008986D01*
X007278Y009085D02*
X007876Y009085D01*
X007876Y009183D02*
X007278Y009183D01*
X007278Y009282D02*
X008468Y009282D01*
X008468Y009333D02*
X007876Y009333D01*
X007876Y009637D01*
X007886Y009676D01*
X007906Y009710D01*
X007934Y009738D01*
X007968Y009757D01*
X008006Y009768D01*
X008468Y009768D01*
X008468Y009333D01*
X008468Y009380D02*
X008568Y009380D01*
X008568Y009282D02*
X009558Y009282D01*
X009558Y009380D02*
X009160Y009380D01*
X009160Y009479D02*
X009558Y009479D01*
X009558Y009577D02*
X009160Y009577D01*
X009150Y009676D02*
X009558Y009676D01*
X009558Y009774D02*
X007278Y009774D01*
X007278Y009676D02*
X007886Y009676D01*
X007876Y009577D02*
X007278Y009577D01*
X007278Y009479D02*
X007876Y009479D01*
X007876Y009380D02*
X007278Y009380D01*
X007278Y009873D02*
X009558Y009873D01*
X009558Y009971D02*
X007278Y009971D01*
X008468Y009676D02*
X008568Y009676D01*
X008568Y009577D02*
X008468Y009577D01*
X008468Y009479D02*
X008568Y009479D01*
X008568Y009183D02*
X008468Y009183D01*
X008468Y009085D02*
X008568Y009085D01*
X008568Y008986D02*
X008468Y008986D01*
X008468Y008888D02*
X008568Y008888D01*
X009148Y008888D02*
X009558Y008888D01*
X009558Y008986D02*
X009160Y008986D01*
X009160Y009085D02*
X009558Y009085D01*
X009558Y009183D02*
X009160Y009183D01*
X009558Y008198D02*
X008733Y008198D01*
X008838Y008100D02*
X009558Y008100D01*
X009558Y008001D02*
X008936Y008001D01*
X008996Y007903D02*
X009558Y007903D01*
X009585Y007804D02*
X009015Y007804D01*
X009015Y007706D02*
X009655Y007706D01*
X009754Y007607D02*
X009015Y007607D01*
X009015Y007509D02*
X009852Y007509D01*
X009890Y007462D02*
X009753Y007462D01*
X009753Y007064D01*
X009657Y007064D01*
X009657Y007462D01*
X009520Y007462D01*
X009258Y007200D01*
X009258Y007064D01*
X009657Y007064D01*
X009657Y006967D01*
X009753Y006967D01*
X009753Y006569D01*
X009890Y006569D01*
X010152Y006830D01*
X010152Y006967D01*
X009753Y006967D01*
X009753Y007064D01*
X010152Y007064D01*
X010152Y007200D01*
X009890Y007462D01*
X009942Y007410D02*
X010468Y007410D01*
X010369Y007312D02*
X010041Y007312D01*
X010139Y007213D02*
X010271Y007213D01*
X010258Y007115D02*
X010152Y007115D01*
X010258Y006967D02*
X010258Y006830D01*
X010520Y006569D01*
X010657Y006569D01*
X010657Y006967D01*
X010258Y006967D01*
X010258Y006918D02*
X010152Y006918D01*
X010141Y006819D02*
X010269Y006819D01*
X010368Y006721D02*
X010042Y006721D01*
X009944Y006622D02*
X010466Y006622D01*
X010657Y006622D02*
X010753Y006622D01*
X010753Y006721D02*
X010657Y006721D01*
X010657Y006819D02*
X010753Y006819D01*
X010753Y006918D02*
X010657Y006918D01*
X010657Y007016D02*
X009753Y007016D01*
X009657Y007016D02*
X009152Y007016D01*
X009152Y006918D02*
X009258Y006918D01*
X009258Y006967D02*
X009258Y006830D01*
X009520Y006569D01*
X009657Y006569D01*
X009657Y006967D01*
X009258Y006967D01*
X009258Y007115D02*
X009152Y007115D01*
X009152Y007213D02*
X009271Y007213D01*
X009369Y007312D02*
X009152Y007312D01*
X009116Y007410D02*
X009468Y007410D01*
X009657Y007410D02*
X009753Y007410D01*
X009753Y007312D02*
X009657Y007312D01*
X009657Y007213D02*
X009753Y007213D01*
X009753Y007115D02*
X009657Y007115D01*
X009657Y006918D02*
X009753Y006918D01*
X009753Y006819D02*
X009657Y006819D01*
X009657Y006721D02*
X009753Y006721D01*
X009753Y006622D02*
X009657Y006622D01*
X009466Y006622D02*
X009118Y006622D01*
X009152Y006721D02*
X009368Y006721D01*
X009269Y006819D02*
X009152Y006819D01*
X008236Y006819D02*
X007868Y006819D01*
X007896Y006918D02*
X008236Y006918D01*
X008236Y007016D02*
X007896Y007016D01*
X007896Y007115D02*
X008236Y007115D01*
X008236Y007213D02*
X007867Y007213D01*
X007826Y007312D02*
X008229Y007312D01*
X008209Y007410D02*
X007768Y007410D01*
X007669Y007509D02*
X008176Y007509D01*
X008128Y007607D02*
X007506Y007607D01*
X007827Y006721D02*
X008236Y006721D01*
X008236Y006622D02*
X007769Y006622D01*
X007671Y006524D02*
X008236Y006524D01*
X008236Y006425D02*
X007509Y006425D01*
X010753Y007016D02*
X011258Y007016D01*
X011258Y006918D02*
X011152Y006918D01*
X011141Y006819D02*
X011269Y006819D01*
X011368Y006721D02*
X011042Y006721D01*
X010944Y006622D02*
X011466Y006622D01*
X011258Y007115D02*
X011152Y007115D01*
X011139Y007213D02*
X011271Y007213D01*
X011369Y007312D02*
X011041Y007312D01*
X010942Y007410D02*
X011395Y007410D01*
X010771Y008888D02*
X010765Y008888D01*
X009558Y010365D02*
X009143Y010365D01*
X010752Y013025D02*
X010784Y013025D01*
X011054Y013025D02*
X011151Y013025D01*
X011151Y012984D02*
X011339Y012984D01*
X011377Y012994D01*
X011411Y013014D01*
X011439Y013042D01*
X011459Y013076D01*
X011469Y013115D01*
X011469Y013283D01*
X011151Y013283D01*
X011151Y012984D01*
X011151Y013123D02*
X011054Y013123D01*
X011054Y013222D02*
X011151Y013222D01*
X011151Y013320D02*
X016638Y013320D01*
X016638Y013222D02*
X011469Y013222D01*
X011469Y013123D02*
X016638Y013123D01*
X016638Y013025D02*
X011422Y013025D01*
X011469Y013419D02*
X016638Y013419D01*
X016638Y013517D02*
X011469Y013517D01*
X011151Y013517D02*
X011054Y013517D01*
X011054Y013419D02*
X011151Y013419D01*
X011151Y013616D02*
X011054Y013616D01*
X013699Y014010D02*
X014275Y014010D01*
X014126Y014108D02*
X013719Y014108D01*
X013719Y014207D02*
X014043Y014207D01*
X013973Y014601D02*
X013657Y014601D01*
X013961Y014699D02*
X014006Y014699D01*
X014060Y014798D02*
X014064Y014798D01*
X015757Y014995D02*
X016638Y014995D01*
X016638Y015093D02*
X015855Y015093D01*
X015898Y015192D02*
X016638Y015192D01*
X016561Y015290D02*
X015898Y015290D01*
X015962Y015389D02*
X016480Y015389D01*
X016480Y015487D02*
X016061Y015487D01*
X016122Y015586D02*
X016480Y015586D01*
X016638Y014896D02*
X015944Y014896D01*
X016039Y014798D02*
X016638Y014798D01*
X016638Y014699D02*
X016097Y014699D01*
X016130Y014601D02*
X016638Y014601D01*
X020567Y015980D02*
X030129Y015980D01*
X030127Y015881D02*
X020666Y015881D01*
X022705Y014699D02*
X023175Y014699D01*
X023238Y014601D02*
X022687Y014601D01*
X022918Y012729D02*
X023545Y012729D01*
X023542Y012631D02*
X023016Y012631D01*
X023055Y012532D02*
X023444Y012532D01*
X023345Y012434D02*
X023055Y012434D01*
X023055Y012335D02*
X023338Y012335D01*
X023338Y012237D02*
X023021Y012237D01*
X023309Y012138D02*
X023338Y012138D01*
X022418Y012729D02*
X020998Y012729D01*
X020998Y012631D02*
X022320Y012631D01*
X021181Y012828D02*
X021155Y012828D01*
X018053Y010956D02*
X017637Y010956D01*
X017723Y010858D02*
X018053Y010858D01*
X018053Y010759D02*
X017723Y010759D01*
X017723Y010661D02*
X018099Y010661D01*
X018059Y010562D02*
X017723Y010562D01*
X017723Y010464D02*
X018053Y010464D01*
X018053Y010365D02*
X017696Y010365D01*
X017626Y010267D02*
X018053Y010267D01*
X018079Y010168D02*
X017656Y010168D01*
X017301Y009873D02*
X017098Y009873D01*
X017098Y009971D02*
X017203Y009971D01*
X017166Y010070D02*
X017098Y010070D01*
X017098Y010168D02*
X017166Y010168D01*
X017166Y010267D02*
X017098Y010267D01*
X017098Y009774D02*
X017400Y009774D01*
X017154Y010956D02*
X017098Y010956D01*
X017534Y011153D02*
X017631Y011153D01*
X017631Y011252D02*
X017534Y011252D01*
X017534Y011350D02*
X017631Y011350D01*
X017883Y011153D02*
X017947Y011153D01*
X017216Y011547D02*
X017098Y011547D01*
X017098Y011646D02*
X017216Y011646D01*
X017234Y011744D02*
X017098Y011744D01*
X017098Y008592D02*
X020204Y008592D01*
X020270Y008494D02*
X017098Y008494D01*
X017098Y008395D02*
X020369Y008395D01*
X020967Y008395D02*
X021476Y008395D01*
X021456Y008494D02*
X021066Y008494D01*
X021132Y008592D02*
X021431Y008592D01*
X021202Y008297D02*
X017098Y008297D01*
X017098Y008198D02*
X021201Y008198D01*
X021201Y008100D02*
X017098Y008100D01*
X017098Y008001D02*
X021201Y008001D01*
X021201Y007903D02*
X017098Y007903D01*
X017098Y007804D02*
X021201Y007804D01*
X021274Y007706D02*
X017098Y007706D01*
X021862Y007706D02*
X021954Y007706D01*
X022189Y007706D02*
X022286Y007706D01*
X022286Y007804D02*
X022189Y007804D01*
X022189Y007903D02*
X022286Y007903D01*
X029820Y006721D02*
X029916Y006721D01*
X029916Y006622D02*
X029820Y006622D01*
X029820Y006524D02*
X029916Y006524D01*
X030205Y006524D02*
X033431Y006524D01*
X034115Y006524D02*
X034393Y006524D01*
X034294Y006622D02*
X034115Y006622D01*
X034115Y006721D02*
X034237Y006721D01*
X034196Y006819D02*
X034115Y006819D01*
X034115Y006918D02*
X034168Y006918D01*
X034168Y007016D02*
X034115Y007016D01*
X034069Y008100D02*
X034177Y008100D01*
X034069Y008198D02*
X034502Y008198D01*
X034069Y008297D02*
X035496Y008297D01*
X035496Y008395D02*
X034069Y008395D01*
X034038Y009282D02*
X033966Y009282D01*
X030379Y006721D02*
X030215Y006721D01*
X030215Y006622D02*
X030380Y006622D01*
X032476Y013714D02*
X032538Y013714D01*
X032538Y013813D02*
X032515Y013813D01*
X032515Y013911D02*
X032538Y013911D01*
X032538Y014010D02*
X032515Y014010D01*
X032515Y014108D02*
X032538Y014108D01*
X032538Y014207D02*
X032515Y014207D01*
X032515Y014305D02*
X032538Y014305D01*
X032538Y014404D02*
X032456Y014404D01*
X032538Y014502D02*
X030855Y014502D01*
X030855Y014404D02*
X031880Y014404D01*
X031821Y014305D02*
X030790Y014305D01*
X031627Y014699D02*
X031720Y014699D01*
X031954Y014699D02*
X032051Y014699D01*
X032051Y014798D02*
X031954Y014798D01*
X031954Y014896D02*
X032051Y014896D01*
X032998Y014207D02*
X033017Y014207D01*
X032998Y015881D02*
X033239Y015881D01*
X033182Y015980D02*
X032998Y015980D01*
X032946Y016078D02*
X033142Y016078D01*
X033084Y016177D02*
X032848Y016177D01*
X033044Y016275D02*
X032463Y016275D01*
X032980Y016472D02*
X031478Y016472D01*
X031483Y016374D02*
X033015Y016374D01*
X033192Y016472D02*
X033971Y016472D01*
X033971Y016374D02*
X033227Y016374D01*
X033267Y016275D02*
X033996Y016275D01*
X034037Y016177D02*
X033316Y016177D01*
X033365Y016078D02*
X034090Y016078D01*
X034189Y015980D02*
X033421Y015980D01*
X033827Y017843D02*
X033921Y017841D01*
X034014Y017834D01*
X034107Y017823D01*
X034200Y017807D01*
X034291Y017787D01*
X034382Y017763D01*
X034471Y017735D01*
X034559Y017702D01*
X034645Y017665D01*
X034729Y017624D01*
X034811Y017579D01*
X034892Y017530D01*
X034969Y017478D01*
X035044Y017422D01*
X035116Y017362D01*
X035186Y017299D01*
X035252Y017233D01*
X035315Y017163D01*
X035375Y017091D01*
X035431Y017016D01*
X035483Y016939D01*
X035532Y016858D01*
X035577Y016776D01*
X035618Y016692D01*
X035655Y016606D01*
X035688Y016518D01*
X035716Y016429D01*
X035740Y016338D01*
X035760Y016247D01*
X035776Y016154D01*
X035787Y016061D01*
X035794Y015968D01*
X035796Y015874D01*
X033971Y016571D02*
X033157Y016571D01*
X033129Y016669D02*
X034003Y016669D01*
X034043Y016768D02*
X033107Y016768D01*
X033085Y016866D02*
X034106Y016866D01*
X034205Y016965D02*
X033068Y016965D01*
X033058Y017063D02*
X034378Y017063D01*
X031818Y016275D02*
X031483Y016275D01*
X031483Y016177D02*
X031813Y016177D01*
X031813Y016078D02*
X031455Y016078D01*
X031459Y015980D02*
X031813Y015980D01*
X031813Y015881D02*
X031483Y015881D01*
X031483Y015783D02*
X031822Y015783D01*
X030149Y015290D02*
X026898Y015290D01*
X026898Y015389D02*
X030121Y015389D01*
X008236Y017843D02*
X008142Y017841D01*
X008049Y017834D01*
X007956Y017823D01*
X007863Y017807D01*
X007772Y017787D01*
X007681Y017763D01*
X007592Y017735D01*
X007504Y017702D01*
X007418Y017665D01*
X007334Y017624D01*
X007251Y017579D01*
X007171Y017530D01*
X007094Y017478D01*
X007019Y017422D01*
X006947Y017362D01*
X006877Y017299D01*
X006811Y017233D01*
X006748Y017163D01*
X006688Y017091D01*
X006632Y017016D01*
X006580Y016939D01*
X006531Y016859D01*
X006486Y016776D01*
X006445Y016692D01*
X006408Y016606D01*
X006375Y016518D01*
X006347Y016429D01*
X006323Y016338D01*
X006303Y016247D01*
X006287Y016154D01*
X006276Y016061D01*
X006269Y015968D01*
X006267Y015874D01*
D11*
X007055Y016464D02*
X007057Y016503D01*
X007063Y016542D01*
X007073Y016580D01*
X007086Y016617D01*
X007103Y016652D01*
X007123Y016686D01*
X007147Y016717D01*
X007174Y016746D01*
X007203Y016772D01*
X007235Y016795D01*
X007269Y016815D01*
X007305Y016831D01*
X007342Y016843D01*
X007381Y016852D01*
X007420Y016857D01*
X007459Y016858D01*
X007498Y016855D01*
X007537Y016848D01*
X007574Y016837D01*
X007611Y016823D01*
X007646Y016805D01*
X007679Y016784D01*
X007710Y016759D01*
X007738Y016732D01*
X007763Y016702D01*
X007785Y016669D01*
X007804Y016635D01*
X007819Y016599D01*
X007831Y016561D01*
X007839Y016523D01*
X007843Y016484D01*
X007843Y016444D01*
X007839Y016405D01*
X007831Y016367D01*
X007819Y016329D01*
X007804Y016293D01*
X007785Y016259D01*
X007763Y016226D01*
X007738Y016196D01*
X007710Y016169D01*
X007679Y016144D01*
X007646Y016123D01*
X007611Y016105D01*
X007574Y016091D01*
X007537Y016080D01*
X007498Y016073D01*
X007459Y016070D01*
X007420Y016071D01*
X007381Y016076D01*
X007342Y016085D01*
X007305Y016097D01*
X007269Y016113D01*
X007235Y016133D01*
X007203Y016156D01*
X007174Y016182D01*
X007147Y016211D01*
X007123Y016242D01*
X007103Y016276D01*
X007086Y016311D01*
X007073Y016348D01*
X007063Y016386D01*
X007057Y016425D01*
X007055Y016464D01*
X006858Y007015D02*
X006860Y007054D01*
X006866Y007093D01*
X006876Y007131D01*
X006889Y007168D01*
X006906Y007203D01*
X006926Y007237D01*
X006950Y007268D01*
X006977Y007297D01*
X007006Y007323D01*
X007038Y007346D01*
X007072Y007366D01*
X007108Y007382D01*
X007145Y007394D01*
X007184Y007403D01*
X007223Y007408D01*
X007262Y007409D01*
X007301Y007406D01*
X007340Y007399D01*
X007377Y007388D01*
X007414Y007374D01*
X007449Y007356D01*
X007482Y007335D01*
X007513Y007310D01*
X007541Y007283D01*
X007566Y007253D01*
X007588Y007220D01*
X007607Y007186D01*
X007622Y007150D01*
X007634Y007112D01*
X007642Y007074D01*
X007646Y007035D01*
X007646Y006995D01*
X007642Y006956D01*
X007634Y006918D01*
X007622Y006880D01*
X007607Y006844D01*
X007588Y006810D01*
X007566Y006777D01*
X007541Y006747D01*
X007513Y006720D01*
X007482Y006695D01*
X007449Y006674D01*
X007414Y006656D01*
X007377Y006642D01*
X007340Y006631D01*
X007301Y006624D01*
X007262Y006621D01*
X007223Y006622D01*
X007184Y006627D01*
X007145Y006636D01*
X007108Y006648D01*
X007072Y006664D01*
X007038Y006684D01*
X007006Y006707D01*
X006977Y006733D01*
X006950Y006762D01*
X006926Y006793D01*
X006906Y006827D01*
X006889Y006862D01*
X006876Y006899D01*
X006866Y006937D01*
X006860Y006976D01*
X006858Y007015D01*
X034220Y016464D02*
X034222Y016503D01*
X034228Y016542D01*
X034238Y016580D01*
X034251Y016617D01*
X034268Y016652D01*
X034288Y016686D01*
X034312Y016717D01*
X034339Y016746D01*
X034368Y016772D01*
X034400Y016795D01*
X034434Y016815D01*
X034470Y016831D01*
X034507Y016843D01*
X034546Y016852D01*
X034585Y016857D01*
X034624Y016858D01*
X034663Y016855D01*
X034702Y016848D01*
X034739Y016837D01*
X034776Y016823D01*
X034811Y016805D01*
X034844Y016784D01*
X034875Y016759D01*
X034903Y016732D01*
X034928Y016702D01*
X034950Y016669D01*
X034969Y016635D01*
X034984Y016599D01*
X034996Y016561D01*
X035004Y016523D01*
X035008Y016484D01*
X035008Y016444D01*
X035004Y016405D01*
X034996Y016367D01*
X034984Y016329D01*
X034969Y016293D01*
X034950Y016259D01*
X034928Y016226D01*
X034903Y016196D01*
X034875Y016169D01*
X034844Y016144D01*
X034811Y016123D01*
X034776Y016105D01*
X034739Y016091D01*
X034702Y016080D01*
X034663Y016073D01*
X034624Y016070D01*
X034585Y016071D01*
X034546Y016076D01*
X034507Y016085D01*
X034470Y016097D01*
X034434Y016113D01*
X034400Y016133D01*
X034368Y016156D01*
X034339Y016182D01*
X034312Y016211D01*
X034288Y016242D01*
X034268Y016276D01*
X034251Y016311D01*
X034238Y016348D01*
X034228Y016386D01*
X034222Y016425D01*
X034220Y016464D01*
X034417Y007015D02*
X034419Y007054D01*
X034425Y007093D01*
X034435Y007131D01*
X034448Y007168D01*
X034465Y007203D01*
X034485Y007237D01*
X034509Y007268D01*
X034536Y007297D01*
X034565Y007323D01*
X034597Y007346D01*
X034631Y007366D01*
X034667Y007382D01*
X034704Y007394D01*
X034743Y007403D01*
X034782Y007408D01*
X034821Y007409D01*
X034860Y007406D01*
X034899Y007399D01*
X034936Y007388D01*
X034973Y007374D01*
X035008Y007356D01*
X035041Y007335D01*
X035072Y007310D01*
X035100Y007283D01*
X035125Y007253D01*
X035147Y007220D01*
X035166Y007186D01*
X035181Y007150D01*
X035193Y007112D01*
X035201Y007074D01*
X035205Y007035D01*
X035205Y006995D01*
X035201Y006956D01*
X035193Y006918D01*
X035181Y006880D01*
X035166Y006844D01*
X035147Y006810D01*
X035125Y006777D01*
X035100Y006747D01*
X035072Y006720D01*
X035041Y006695D01*
X035008Y006674D01*
X034973Y006656D01*
X034936Y006642D01*
X034899Y006631D01*
X034860Y006624D01*
X034821Y006621D01*
X034782Y006622D01*
X034743Y006627D01*
X034704Y006636D01*
X034667Y006648D01*
X034631Y006664D01*
X034597Y006684D01*
X034565Y006707D01*
X034536Y006733D01*
X034509Y006762D01*
X034485Y006793D01*
X034465Y006827D01*
X034448Y006862D01*
X034435Y006899D01*
X034425Y006937D01*
X034419Y006976D01*
X034417Y007015D01*
D12*
X022054Y011547D03*
X022054Y011803D03*
X022054Y012059D03*
X022054Y012315D03*
X020282Y012315D03*
X020282Y012059D03*
X020282Y011803D03*
X020282Y011547D03*
X011654Y011415D03*
X011654Y011159D03*
X011654Y010903D03*
X011654Y010647D03*
X009882Y010647D03*
X009882Y010903D03*
X009882Y011159D03*
X009882Y011415D03*
X009882Y015647D03*
X009882Y015903D03*
X009882Y016159D03*
X009882Y016415D03*
X011654Y016415D03*
X011654Y016159D03*
X011654Y015903D03*
X011654Y015647D03*
D13*
X025163Y013431D03*
X025163Y012931D03*
X025163Y012431D03*
X025163Y011931D03*
X025163Y011431D03*
X025163Y010931D03*
X025163Y010431D03*
X027773Y010431D03*
X027773Y010931D03*
X027773Y011431D03*
X027773Y011931D03*
X027773Y012431D03*
X027773Y012931D03*
X027773Y013431D03*
D14*
X030633Y013531D03*
X031303Y013531D03*
X033299Y013863D03*
X033968Y013863D03*
X032003Y015031D03*
X031333Y015031D03*
X031233Y010431D03*
X031903Y010431D03*
X031903Y009531D03*
X031233Y009531D03*
X030603Y008231D03*
X029933Y008231D03*
X033033Y008231D03*
X033703Y008231D03*
X022237Y008037D03*
X021568Y008037D03*
X021003Y009931D03*
X020333Y009931D03*
X020333Y010831D03*
X021003Y010831D03*
X018251Y011474D03*
X017582Y011474D03*
X020833Y013131D03*
X021503Y013131D03*
X021503Y013831D03*
X020833Y013831D03*
X020168Y014944D03*
X019499Y014944D03*
X013353Y014281D03*
X012683Y014281D03*
X011103Y014181D03*
X010433Y014181D03*
X010433Y015031D03*
X011103Y015031D03*
X011103Y013331D03*
X010433Y013331D03*
X010433Y012031D03*
X011103Y012031D03*
X011103Y010031D03*
X010433Y010031D03*
X010433Y009181D03*
X011103Y009181D03*
X012633Y009331D03*
X013303Y009331D03*
X011103Y008331D03*
X010433Y008331D03*
X010433Y017031D03*
X011103Y017031D03*
D15*
X013018Y017029D03*
X013018Y015533D03*
X008518Y014779D03*
X008518Y013283D03*
X008518Y010779D03*
X008518Y009283D03*
X013018Y010533D03*
X013018Y012029D03*
D16*
X019568Y012696D03*
X019568Y013366D03*
X022268Y013196D03*
X022268Y013866D03*
X022606Y011315D03*
X022606Y010645D03*
X021868Y010766D03*
X021868Y010096D03*
X019568Y009996D03*
X019568Y010666D03*
X029868Y007466D03*
X029868Y006796D03*
X033768Y006796D03*
X033768Y007466D03*
X032168Y013396D03*
X032168Y014066D03*
X030468Y015596D03*
X030468Y016266D03*
D17*
X029330Y012931D03*
X029006Y012931D03*
X029006Y010931D03*
X029330Y010931D03*
X022430Y014931D03*
X022106Y014931D03*
X018156Y012110D03*
X017832Y012110D03*
X018738Y010452D03*
X019062Y010452D03*
X021706Y008831D03*
X022030Y008831D03*
D18*
X020668Y008831D03*
X015655Y009445D03*
X014515Y009445D03*
X014481Y014488D03*
X015621Y014488D03*
X015655Y015816D03*
X014515Y015816D03*
X021168Y014931D03*
X028668Y014731D03*
X033668Y014731D03*
X028668Y008931D03*
D19*
X030668Y011181D03*
X030668Y011681D03*
X030668Y012181D03*
X030668Y012681D03*
X032668Y012681D03*
X032668Y012181D03*
X032668Y011681D03*
X032668Y011181D03*
D20*
X032140Y016031D03*
X017596Y013031D03*
X017396Y010631D03*
D21*
X018340Y010375D03*
X018340Y010887D03*
X018540Y012775D03*
X018540Y013287D03*
X031196Y015775D03*
X031196Y016287D03*
D22*
X030859Y007015D03*
D23*
X031859Y007015D03*
X032859Y007015D03*
D24*
X008705Y007015D03*
D25*
X009705Y007015D03*
X010705Y007015D03*
X011705Y007015D03*
D26*
X012018Y008986D03*
X012018Y009576D03*
X012018Y013986D03*
X012018Y014576D03*
D27*
X011768Y012631D03*
X008468Y012331D03*
X008468Y011631D03*
X007568Y008531D03*
X011968Y008331D03*
X013568Y006831D03*
X015368Y006831D03*
X016868Y006931D03*
X017868Y009331D03*
X019668Y009331D03*
X022568Y009831D03*
X024068Y010031D03*
X026468Y009731D03*
X023068Y011831D03*
X022668Y012431D03*
X021168Y012531D03*
X018968Y012331D03*
X018868Y011431D03*
X022968Y014131D03*
X025968Y014131D03*
X027468Y014131D03*
X029968Y013831D03*
X030468Y014531D03*
X033568Y012631D03*
X034768Y013331D03*
X033268Y011431D03*
X034768Y011031D03*
X033768Y009631D03*
X034268Y008931D03*
X032568Y009631D03*
X031968Y008831D03*
X030468Y009931D03*
X028568Y011931D03*
X024368Y011931D03*
X020368Y015631D03*
X021268Y017131D03*
X024468Y017131D03*
X027568Y017131D03*
X031068Y017131D03*
X018168Y017131D03*
X016868Y015531D03*
X015168Y017131D03*
X008868Y015731D03*
X023968Y006831D03*
X025968Y006831D03*
X027968Y006831D03*
D28*
X029868Y007466D02*
X029933Y007531D01*
X029933Y008231D01*
X030603Y008231D02*
X032368Y008231D01*
X032568Y008431D01*
X032568Y009631D01*
X031968Y009466D02*
X031903Y009531D01*
X031968Y009466D02*
X031968Y008831D01*
X033033Y008231D02*
X033033Y010266D01*
X032868Y010431D01*
X031903Y010431D01*
X031968Y010496D01*
X031968Y011531D01*
X032118Y011681D01*
X032668Y011681D01*
X032668Y012181D02*
X033618Y012181D01*
X033768Y012031D01*
X033768Y009631D01*
X034268Y008931D02*
X034268Y013231D01*
X034103Y013396D01*
X033268Y013396D01*
X033299Y013427D01*
X033299Y013863D01*
X032768Y013531D02*
X032768Y014731D01*
X033668Y014731D01*
X032768Y014731D02*
X032768Y015931D01*
X032668Y016031D01*
X032140Y016031D01*
X031196Y015775D02*
X031196Y015169D01*
X031333Y015031D01*
X030468Y014531D02*
X030468Y015596D01*
X030433Y015631D01*
X026668Y015631D01*
X020368Y015631D01*
X020168Y014944D02*
X021168Y014944D01*
X021168Y014931D01*
X021468Y014931D01*
X022106Y014931D01*
X022430Y014931D02*
X023268Y014931D01*
X023468Y014731D01*
X023468Y013131D01*
X023668Y012931D01*
X025163Y012931D01*
X025868Y012931D01*
X025968Y012831D01*
X025968Y011531D01*
X025868Y011431D01*
X025163Y011431D01*
X025163Y010931D02*
X023568Y010931D01*
X023568Y012331D01*
X023668Y012431D01*
X025163Y012431D01*
X025163Y011931D02*
X024368Y011931D01*
X023068Y011831D02*
X023068Y009531D01*
X022968Y009431D01*
X021968Y009431D01*
X021868Y009531D01*
X021868Y010096D01*
X021533Y010096D01*
X021368Y009931D01*
X021003Y009931D01*
X020333Y009931D02*
X020333Y008966D01*
X020468Y008831D01*
X020668Y008831D01*
X021706Y008831D01*
X021706Y008037D01*
X021568Y008037D01*
X022030Y008831D02*
X023368Y008831D01*
X023568Y009031D01*
X023568Y010931D01*
X022606Y010645D02*
X022606Y009869D01*
X022568Y009831D01*
X021868Y010766D02*
X021803Y010831D01*
X021368Y010831D01*
X021003Y010831D01*
X021368Y010831D02*
X021368Y011931D01*
X021496Y012059D01*
X022054Y012059D01*
X022054Y011803D02*
X022940Y011803D01*
X023068Y011831D01*
X022606Y011315D02*
X022373Y011547D01*
X022054Y011547D01*
X022054Y012315D02*
X022552Y012315D01*
X022668Y012431D01*
X022203Y013131D02*
X022268Y013196D01*
X022203Y013131D02*
X021503Y013131D01*
X021503Y013831D01*
X021468Y013866D01*
X021468Y014131D01*
X021368Y014231D01*
X017768Y014231D01*
X017596Y014059D01*
X017596Y013031D01*
X017568Y013004D01*
X017568Y012231D01*
X017689Y012110D01*
X017832Y012110D01*
X018156Y012110D02*
X018168Y012122D01*
X018168Y012731D01*
X018212Y012775D01*
X018540Y012775D01*
X018968Y013131D02*
X018968Y012331D01*
X019240Y012059D01*
X019568Y012059D01*
X019568Y012696D01*
X018968Y013131D02*
X018812Y013287D01*
X018540Y013287D01*
X019568Y013366D02*
X019568Y013731D01*
X019668Y013831D01*
X020268Y013831D01*
X020282Y013817D01*
X020282Y012315D01*
X020282Y012059D02*
X020696Y012059D01*
X020768Y012131D01*
X020768Y012966D01*
X020833Y013131D01*
X020833Y013831D02*
X020268Y013831D01*
X021468Y014131D02*
X021468Y014931D01*
X016868Y015531D02*
X016583Y015816D01*
X015655Y015816D01*
X015668Y015803D01*
X015668Y015231D01*
X015568Y015131D01*
X014068Y015131D01*
X013768Y014831D01*
X012368Y014831D01*
X012113Y014576D01*
X012018Y014576D01*
X012018Y013986D02*
X012388Y013986D01*
X012683Y014281D01*
X011668Y015131D02*
X011668Y015633D01*
X011654Y015647D01*
X012904Y015647D01*
X013018Y015533D01*
X014231Y015533D01*
X014515Y015816D01*
X016868Y015531D02*
X016868Y006931D01*
X015568Y008831D02*
X013968Y008831D01*
X013868Y008931D01*
X013868Y009731D01*
X013768Y009831D01*
X012168Y009831D01*
X012018Y009681D01*
X012018Y009576D01*
X012288Y008986D02*
X012633Y009331D01*
X012288Y008986D02*
X012018Y008986D01*
X011103Y009181D02*
X011103Y010031D01*
X011468Y010031D01*
X011568Y010131D01*
X011568Y010561D01*
X011654Y010647D01*
X012904Y010647D01*
X013018Y010533D01*
X014266Y010533D01*
X014468Y010331D01*
X014468Y009492D01*
X014515Y009445D01*
X015655Y009445D02*
X015668Y009432D01*
X015668Y008931D01*
X015568Y008831D01*
X017396Y010104D02*
X017568Y009931D01*
X019068Y009931D01*
X019062Y009937D01*
X019062Y010452D01*
X018738Y010452D02*
X018661Y010375D01*
X018340Y010375D01*
X018340Y010887D02*
X018785Y011331D01*
X018785Y011348D01*
X018868Y011431D01*
X019096Y011803D02*
X018968Y011931D01*
X018708Y011931D01*
X018251Y011474D01*
X019096Y011803D02*
X020282Y011803D01*
X020282Y012059D02*
X019568Y012059D01*
X020333Y010831D02*
X020333Y009931D01*
X019633Y009931D01*
X019568Y009996D01*
X019503Y009931D01*
X019068Y009931D01*
X017396Y010104D02*
X017396Y010631D01*
X011103Y014181D02*
X011103Y015031D01*
X011568Y015031D01*
X011668Y015131D01*
X009882Y015647D02*
X009684Y015647D01*
X009568Y015531D01*
X009402Y011415D02*
X009268Y011281D01*
X009268Y010647D01*
X008650Y010647D01*
X008518Y010779D01*
X009268Y010647D02*
X009882Y010647D01*
X009868Y010574D01*
X009868Y010431D01*
X010433Y010031D02*
X010433Y009181D01*
X010433Y008331D01*
X009882Y011415D02*
X009402Y011415D01*
X026668Y012031D02*
X026668Y015631D01*
X028668Y014731D02*
X028668Y012931D01*
X029006Y012931D01*
X029330Y012931D02*
X029768Y012931D01*
X029868Y012831D01*
X029868Y012331D01*
X030018Y012181D01*
X030668Y012181D01*
X031268Y012331D02*
X031268Y013496D01*
X031303Y013531D01*
X030668Y013496D02*
X030633Y013531D01*
X030668Y013566D01*
X030668Y013931D01*
X030803Y014066D01*
X032168Y014066D01*
X032768Y013531D02*
X032633Y013396D01*
X032168Y013396D01*
X033268Y013396D01*
X033518Y012681D02*
X032668Y012681D01*
X032668Y012181D02*
X031418Y012181D01*
X031268Y012331D01*
X030668Y012681D02*
X030668Y013496D01*
X028668Y012931D02*
X027773Y012931D01*
X027773Y012431D01*
X027773Y011931D02*
X026768Y011931D01*
X026668Y012031D01*
X027773Y011931D02*
X028568Y011931D01*
X027773Y011431D02*
X027773Y010931D01*
X028668Y010931D01*
X028668Y008931D01*
X029868Y007466D02*
X030733Y007466D01*
X030868Y007331D01*
X030868Y007025D01*
X030859Y007015D01*
X032859Y007015D02*
X032859Y007422D01*
X032968Y007531D01*
X033703Y007531D01*
X033768Y007466D01*
X033703Y007531D02*
X033703Y008231D01*
X031233Y009531D02*
X031233Y010431D01*
X031168Y010496D01*
X031168Y011531D01*
X031018Y011681D01*
X030668Y011681D01*
X030668Y011181D02*
X030118Y011181D01*
X029868Y010931D01*
X029330Y010931D01*
X029006Y010931D02*
X028668Y010931D01*
X033518Y012681D02*
X033568Y012631D01*
X031196Y016287D02*
X030489Y016287D01*
X030468Y016266D01*
D29*
X011705Y007594D02*
X011705Y007015D01*
X011705Y007594D02*
X011568Y007731D01*
X010068Y007731D01*
X009868Y007931D01*
X009868Y010431D01*
X007168Y007931D02*
X006968Y008131D01*
X006968Y014631D01*
X007168Y014831D01*
X008466Y014831D01*
X008518Y014779D01*
X009416Y014779D01*
X009568Y014931D01*
X009568Y015531D01*
X008568Y007931D02*
X007168Y007931D01*
X008568Y007931D02*
X008705Y007794D01*
X008705Y007015D01*
M02*
