G75*
G70*
%OFA0B0*%
%FSLAX24Y24*%
%IPPOS*%
%LPD*%
%AMOC8*
5,1,8,0,0,1.08239X$1,22.5*
%
%ADD10C,0.0100*%
%ADD11C,0.0000*%
%ADD12R,0.0689X0.0709*%
%ADD13C,0.0740*%
%ADD14R,0.0394X0.0433*%
%ADD15R,0.0433X0.0394*%
%ADD16R,0.0660X0.0660*%
%ADD17OC8,0.0660*%
%ADD18R,0.0594X0.0594*%
%ADD19OC8,0.0594*%
%ADD20R,0.0315X0.0315*%
%ADD21R,0.0250X0.0500*%
%ADD22OC8,0.0475*%
%ADD23C,0.0160*%
D10*
X006268Y006031D02*
X006268Y015874D01*
X006568Y015874D02*
X006578Y016060D01*
X006662Y016425D01*
X006824Y016761D01*
X007057Y017053D01*
X007349Y017286D01*
X007685Y017448D01*
X008050Y017532D01*
X008236Y017542D01*
X009204Y017542D01*
X009202Y017512D01*
X009147Y017185D01*
X009055Y016867D01*
X008928Y016561D01*
X008768Y016271D01*
X008577Y016001D01*
X008356Y015754D01*
X008109Y015534D01*
X007839Y015342D01*
X007549Y015182D01*
X007243Y015055D01*
X006925Y014963D01*
X006599Y014908D01*
X006568Y014906D01*
X006568Y015874D01*
X006568Y015881D02*
X007175Y015881D01*
X007084Y015918D02*
X007321Y015820D01*
X007577Y015820D01*
X007814Y015918D01*
X007995Y016100D01*
X008093Y016336D01*
X008093Y016592D01*
X007995Y016829D01*
X007814Y017010D01*
X007577Y017108D01*
X007321Y017108D01*
X007084Y017010D01*
X006903Y016829D01*
X006805Y016592D01*
X006805Y016336D01*
X006903Y016100D01*
X007084Y015918D01*
X007023Y015980D02*
X006574Y015980D01*
X006583Y016078D02*
X006925Y016078D01*
X006871Y016177D02*
X006605Y016177D01*
X006627Y016275D02*
X006831Y016275D01*
X006805Y016374D02*
X006650Y016374D01*
X006684Y016472D02*
X006805Y016472D01*
X006805Y016571D02*
X006732Y016571D01*
X006779Y016669D02*
X006837Y016669D01*
X006829Y016768D02*
X006878Y016768D01*
X006907Y016866D02*
X006941Y016866D01*
X006986Y016965D02*
X007039Y016965D01*
X007069Y017063D02*
X007213Y017063D01*
X007192Y017162D02*
X009140Y017162D01*
X009159Y017260D02*
X007316Y017260D01*
X007499Y017359D02*
X009176Y017359D01*
X009193Y017457D02*
X007723Y017457D01*
X007685Y017063D02*
X009112Y017063D01*
X009083Y016965D02*
X007859Y016965D01*
X007957Y016866D02*
X009055Y016866D01*
X009014Y016768D02*
X008020Y016768D01*
X008061Y016669D02*
X008973Y016669D01*
X008932Y016571D02*
X008093Y016571D01*
X008093Y016472D02*
X008879Y016472D01*
X008825Y016374D02*
X008093Y016374D01*
X008068Y016275D02*
X008770Y016275D01*
X008701Y016177D02*
X008027Y016177D01*
X007973Y016078D02*
X008631Y016078D01*
X008557Y015980D02*
X007875Y015980D01*
X007724Y015881D02*
X008469Y015881D01*
X008381Y015783D02*
X006568Y015783D01*
X006568Y015684D02*
X008277Y015684D01*
X008167Y015586D02*
X006568Y015586D01*
X006568Y015487D02*
X008044Y015487D01*
X007905Y015389D02*
X006568Y015389D01*
X006568Y015290D02*
X007745Y015290D01*
X007874Y015133D02*
X007707Y015041D01*
X007702Y015029D01*
X007636Y015001D01*
X007573Y014967D01*
X007561Y014970D01*
X007384Y014897D01*
X007378Y014886D01*
X007309Y014866D01*
X007243Y014839D01*
X007231Y014844D01*
X007048Y014791D01*
X007040Y014780D01*
X006970Y014768D01*
X006901Y014748D01*
X006890Y014755D01*
X006701Y014722D01*
X006693Y014713D01*
X006621Y014709D01*
X006568Y014700D01*
X006568Y008200D01*
X007375Y008200D01*
X007382Y008205D01*
X007457Y008200D01*
X007532Y008200D01*
X007538Y008204D01*
X007604Y008188D01*
X007671Y008183D01*
X007680Y008172D01*
X007692Y008178D01*
X007754Y008152D01*
X007820Y008136D01*
X007827Y008124D01*
X007840Y008128D01*
X007898Y008093D01*
X007960Y008067D01*
X007965Y008054D01*
X007979Y008055D01*
X008030Y008012D01*
X008087Y007976D01*
X008090Y007963D01*
X008104Y007962D01*
X008148Y007911D01*
X008199Y007867D01*
X008200Y007853D01*
X008213Y007850D01*
X008248Y007793D01*
X008292Y007742D01*
X008291Y007728D01*
X008304Y007723D01*
X008329Y007661D01*
X008364Y007604D01*
X008361Y007590D01*
X008373Y007583D01*
X008389Y007518D01*
X008412Y007462D01*
X009064Y007462D01*
X009152Y007374D01*
X009152Y006656D01*
X009064Y006569D01*
X008436Y006569D01*
X008436Y006331D01*
X033627Y006331D01*
X033627Y007138D01*
X033621Y007145D01*
X033627Y007220D01*
X033627Y007295D01*
X033623Y007302D01*
X033639Y007367D01*
X033644Y007434D01*
X033654Y007443D01*
X033649Y007456D01*
X033675Y007518D01*
X033690Y007583D01*
X033702Y007590D01*
X033699Y007604D01*
X033734Y007661D01*
X033760Y007723D01*
X033773Y007728D01*
X033772Y007742D01*
X033815Y007793D01*
X033850Y007850D01*
X033864Y007853D01*
X033865Y007867D01*
X033916Y007911D01*
X033959Y007962D01*
X033973Y007963D01*
X033976Y007976D01*
X034034Y008012D01*
X034085Y008055D01*
X034099Y008054D01*
X034104Y008067D01*
X034166Y008093D01*
X034223Y008128D01*
X034237Y008124D01*
X034244Y008136D01*
X034309Y008152D01*
X034371Y008178D01*
X034384Y008172D01*
X034393Y008183D01*
X034460Y008188D01*
X034525Y008204D01*
X034532Y008200D01*
X034607Y008200D01*
X034681Y008205D01*
X034688Y008200D01*
X035496Y008200D01*
X035496Y014495D01*
X035458Y014500D01*
X035387Y014502D01*
X035377Y014512D01*
X035196Y014538D01*
X035184Y014531D01*
X035116Y014550D01*
X035046Y014560D01*
X035038Y014571D01*
X034861Y014619D01*
X034848Y014614D01*
X034783Y014640D01*
X034714Y014659D01*
X034708Y014671D01*
X034538Y014740D01*
X034525Y014736D01*
X034463Y014770D01*
X034397Y014797D01*
X034392Y014810D01*
X034232Y014899D01*
X034218Y014896D01*
X034161Y014938D01*
X034140Y014949D01*
X034188Y014835D01*
X034188Y014628D01*
X034109Y014437D01*
X033963Y014290D01*
X033771Y014211D01*
X033565Y014211D01*
X033477Y014247D01*
X033663Y014061D01*
X033798Y013926D01*
X033798Y012949D01*
X033812Y012935D01*
X033855Y012978D01*
X034412Y012978D01*
X034468Y012922D01*
X034494Y012948D01*
X034528Y012968D01*
X034566Y012978D01*
X034754Y012978D01*
X034754Y012680D01*
X034851Y012680D01*
X034851Y012978D01*
X035039Y012978D01*
X035077Y012968D01*
X035111Y012948D01*
X035139Y012920D01*
X035159Y012886D01*
X035169Y012848D01*
X035169Y012680D01*
X034851Y012680D01*
X034851Y012583D01*
X035169Y012583D01*
X035169Y012415D01*
X035159Y012376D01*
X035139Y012342D01*
X035111Y012314D01*
X035077Y012294D01*
X035039Y012284D01*
X034851Y012284D01*
X034851Y012583D01*
X034754Y012583D01*
X034754Y012284D01*
X034566Y012284D01*
X034528Y012294D01*
X034494Y012314D01*
X034468Y012340D01*
X034412Y012284D01*
X034363Y012284D01*
X034363Y012078D01*
X034412Y012078D01*
X034468Y012022D01*
X034494Y012048D01*
X034528Y012068D01*
X034566Y012078D01*
X034754Y012078D01*
X034754Y011780D01*
X034851Y011780D01*
X034851Y012078D01*
X035039Y012078D01*
X035077Y012068D01*
X035111Y012048D01*
X035139Y012020D01*
X035159Y011986D01*
X035169Y011948D01*
X035169Y011780D01*
X034851Y011780D01*
X034851Y011683D01*
X035169Y011683D01*
X035169Y011515D01*
X035159Y011476D01*
X035139Y011442D01*
X035111Y011414D01*
X035077Y011394D01*
X035039Y011384D01*
X034851Y011384D01*
X034851Y011683D01*
X034754Y011683D01*
X034754Y011384D01*
X034566Y011384D01*
X034528Y011394D01*
X034494Y011414D01*
X034468Y011440D01*
X034412Y011384D01*
X033855Y011384D01*
X033767Y011472D01*
X033767Y011990D01*
X033855Y012078D01*
X033903Y012078D01*
X033903Y012284D01*
X033855Y012284D01*
X033812Y012327D01*
X033728Y012244D01*
X033407Y012244D01*
X033180Y012471D01*
X033180Y012613D01*
X032436Y012613D01*
X032348Y012701D01*
X032348Y012901D01*
X028805Y012901D01*
X028805Y012819D01*
X028717Y012731D01*
X028019Y012731D01*
X027931Y012819D01*
X027931Y012901D01*
X027432Y012901D01*
X027432Y012701D01*
X027344Y012613D01*
X026531Y012613D01*
X026443Y012701D01*
X026443Y012901D01*
X024805Y012901D01*
X024805Y012819D01*
X024717Y012731D01*
X024019Y012731D01*
X023931Y012819D01*
X023931Y012901D01*
X023495Y012901D01*
X023495Y012701D01*
X023407Y012613D01*
X023298Y012613D01*
X023298Y012149D01*
X023455Y011992D01*
X023455Y011671D01*
X023228Y011444D01*
X022907Y011444D01*
X022750Y011601D01*
X021363Y011601D01*
X021098Y011336D01*
X020963Y011201D01*
X019529Y011201D01*
X019558Y011172D01*
X019558Y010986D01*
X022506Y010986D01*
X022506Y011172D01*
X022594Y011260D01*
X023407Y011260D01*
X023495Y011172D01*
X023495Y010986D01*
X024067Y010986D01*
X024067Y011490D01*
X024138Y011561D01*
X024138Y011613D01*
X023980Y011771D01*
X023980Y012092D01*
X024207Y012319D01*
X024528Y012319D01*
X024755Y012092D01*
X024755Y011771D01*
X024598Y011613D01*
X024598Y011578D01*
X024712Y011578D01*
X024768Y011522D01*
X024794Y011548D01*
X024828Y011568D01*
X024866Y011578D01*
X025054Y011578D01*
X025054Y011280D01*
X025151Y011280D01*
X025151Y011578D01*
X025339Y011578D01*
X025377Y011568D01*
X025411Y011548D01*
X025439Y011520D01*
X025459Y011486D01*
X025469Y011448D01*
X025469Y011280D01*
X025151Y011280D01*
X025151Y011183D01*
X025469Y011183D01*
X025469Y011015D01*
X025461Y010986D01*
X026443Y010986D01*
X026443Y011172D01*
X026531Y011260D01*
X027344Y011260D01*
X027432Y011172D01*
X027432Y010986D01*
X032348Y010986D01*
X032348Y011172D01*
X032436Y011260D01*
X033249Y011260D01*
X033337Y011172D01*
X033337Y010339D01*
X033249Y010251D01*
X032436Y010251D01*
X032348Y010339D01*
X032348Y010526D01*
X027432Y010526D01*
X027432Y010339D01*
X027344Y010251D01*
X026531Y010251D01*
X026443Y010339D01*
X026443Y010526D01*
X023495Y010526D01*
X023495Y010339D01*
X023407Y010251D01*
X022594Y010251D01*
X022506Y010339D01*
X022506Y010526D01*
X019558Y010526D01*
X019558Y010339D01*
X019470Y010251D01*
X018657Y010251D01*
X018569Y010339D01*
X018569Y010526D01*
X015898Y010526D01*
X015898Y009907D01*
X015949Y009886D01*
X016095Y009740D01*
X016175Y009549D01*
X016175Y009342D01*
X016095Y009151D01*
X015949Y009004D01*
X015758Y008925D01*
X015551Y008925D01*
X015360Y009004D01*
X015214Y009151D01*
X015135Y009342D01*
X015135Y009549D01*
X015214Y009740D01*
X015360Y009886D01*
X015438Y009918D01*
X015438Y010251D01*
X014720Y010251D01*
X014632Y010339D01*
X014632Y010526D01*
X009715Y010526D01*
X009715Y010339D01*
X009627Y010251D01*
X008814Y010251D01*
X008726Y010339D01*
X008726Y011172D01*
X008814Y011260D01*
X009627Y011260D01*
X009715Y011172D01*
X009715Y010986D01*
X014632Y010986D01*
X014632Y011172D01*
X014720Y011260D01*
X015533Y011260D01*
X015621Y011172D01*
X015621Y010986D01*
X018569Y010986D01*
X018569Y011172D01*
X018574Y011177D01*
X018480Y011271D01*
X018480Y011592D01*
X018707Y011819D01*
X019028Y011819D01*
X019186Y011661D01*
X020773Y011661D01*
X021173Y012061D01*
X022490Y012061D01*
X022280Y012271D01*
X022280Y012383D01*
X022227Y012330D01*
X021709Y012330D01*
X021621Y012418D01*
X021621Y012501D01*
X021573Y012501D01*
X021438Y012636D01*
X021338Y012736D01*
X021338Y013101D01*
X020373Y013101D01*
X020038Y013436D01*
X020038Y015236D01*
X019973Y015301D01*
X017186Y015301D01*
X017028Y015144D01*
X016707Y015144D01*
X016480Y015371D01*
X016480Y015692D01*
X016707Y015919D01*
X017028Y015919D01*
X017186Y015761D01*
X019980Y015761D01*
X019980Y015792D01*
X020207Y016019D01*
X020528Y016019D01*
X020755Y015792D01*
X020755Y015471D01*
X020528Y015244D01*
X020498Y015244D01*
X020498Y013626D01*
X020563Y013561D01*
X021563Y013561D01*
X021621Y013503D01*
X021621Y013602D01*
X021631Y013640D01*
X021651Y013674D01*
X021679Y013702D01*
X021713Y013722D01*
X021751Y013732D01*
X021920Y013732D01*
X021920Y013414D01*
X022016Y013414D01*
X022016Y013732D01*
X022185Y013732D01*
X022223Y013722D01*
X022257Y013702D01*
X022285Y013674D01*
X022305Y013640D01*
X022315Y013602D01*
X022315Y013414D01*
X022016Y013414D01*
X022016Y013317D01*
X022315Y013317D01*
X022315Y013129D01*
X022305Y013091D01*
X022285Y013057D01*
X022259Y013031D01*
X022315Y012975D01*
X022315Y012926D01*
X022506Y012926D01*
X022506Y013534D01*
X022594Y013622D01*
X023407Y013622D01*
X023495Y013534D01*
X023495Y013361D01*
X023931Y013361D01*
X023931Y013443D01*
X024019Y013531D01*
X024717Y013531D01*
X024805Y013443D01*
X024805Y013361D01*
X026443Y013361D01*
X026443Y013534D01*
X026531Y013622D01*
X027344Y013622D01*
X027432Y013534D01*
X027432Y013361D01*
X027931Y013361D01*
X027931Y013443D01*
X028019Y013531D01*
X028717Y013531D01*
X028805Y013443D01*
X028805Y013361D01*
X032348Y013361D01*
X032348Y013534D01*
X032436Y013622D01*
X033249Y013622D01*
X033337Y013534D01*
X033337Y012948D01*
X033338Y012949D01*
X033338Y013736D01*
X032773Y014301D01*
X030786Y014301D01*
X030628Y014144D01*
X030307Y014144D01*
X030080Y014371D01*
X030080Y014692D01*
X030307Y014919D01*
X030628Y014919D01*
X030786Y014761D01*
X032963Y014761D01*
X033184Y014540D01*
X033148Y014628D01*
X033148Y014835D01*
X033227Y015026D01*
X033373Y015172D01*
X033565Y015251D01*
X033763Y015251D01*
X033688Y015321D01*
X033674Y015322D01*
X033628Y015376D01*
X033576Y015424D01*
X033576Y015438D01*
X033458Y015578D01*
X033444Y015580D01*
X033405Y015640D01*
X033360Y015694D01*
X033361Y015707D01*
X033260Y015860D01*
X033247Y015865D01*
X033216Y015928D01*
X033177Y015987D01*
X033180Y016001D01*
X033099Y016165D01*
X033086Y016171D01*
X033063Y016238D01*
X033031Y016301D01*
X033036Y016314D01*
X032975Y016487D01*
X032963Y016494D01*
X032948Y016563D01*
X032924Y016630D01*
X032930Y016643D01*
X032891Y016821D01*
X032880Y016830D01*
X032873Y016900D01*
X032858Y016970D01*
X032865Y016981D01*
X032848Y017161D01*
X032840Y017169D01*
X032840Y017242D01*
X032833Y017315D01*
X032840Y017323D01*
X032840Y017542D01*
X009410Y017542D01*
X009401Y017489D01*
X009397Y017418D01*
X009388Y017409D01*
X009356Y017221D01*
X009362Y017209D01*
X009342Y017141D01*
X009330Y017070D01*
X009320Y017062D01*
X009267Y016879D01*
X009272Y016867D01*
X009244Y016801D01*
X009224Y016732D01*
X009213Y016726D01*
X009140Y016549D01*
X009143Y016537D01*
X009109Y016474D01*
X009081Y016408D01*
X009070Y016403D01*
X008977Y016236D01*
X008979Y016223D01*
X008938Y016165D01*
X008903Y016102D01*
X008891Y016098D01*
X008780Y015942D01*
X008781Y015930D01*
X008733Y015876D01*
X008692Y015818D01*
X008679Y015816D01*
X008552Y015673D01*
X008551Y015660D01*
X008498Y015613D01*
X008450Y015559D01*
X008437Y015558D01*
X008294Y015431D01*
X008292Y015418D01*
X008234Y015377D01*
X008180Y015329D01*
X008168Y015330D01*
X008012Y015219D01*
X008008Y015207D01*
X007946Y015172D01*
X007887Y015131D01*
X007874Y015133D01*
X007802Y015093D02*
X020038Y015093D01*
X020038Y014995D02*
X015744Y014995D01*
X015743Y014995D02*
X015671Y015006D01*
X015671Y014538D01*
X015571Y014538D01*
X015571Y014438D01*
X015103Y014438D01*
X015114Y014366D01*
X015140Y014288D01*
X015177Y014215D01*
X015225Y014149D01*
X015283Y014091D01*
X015349Y014043D01*
X015422Y014006D01*
X015500Y013981D01*
X015571Y013969D01*
X015571Y014438D01*
X015671Y014438D01*
X015671Y013969D01*
X015743Y013981D01*
X015821Y014006D01*
X015894Y014043D01*
X015960Y014091D01*
X016018Y014149D01*
X016066Y014215D01*
X016103Y014288D01*
X016129Y014366D01*
X016140Y014438D01*
X015671Y014438D01*
X015671Y014538D01*
X016140Y014538D01*
X016129Y014610D01*
X016103Y014687D01*
X016066Y014760D01*
X016018Y014827D01*
X015960Y014884D01*
X015894Y014933D01*
X015821Y014970D01*
X015743Y014995D01*
X015671Y014995D02*
X015571Y014995D01*
X015571Y015006D02*
X015500Y014995D01*
X015422Y014970D01*
X015349Y014933D01*
X015283Y014884D01*
X015225Y014827D01*
X015177Y014760D01*
X015140Y014687D01*
X015114Y014610D01*
X015103Y014538D01*
X015571Y014538D01*
X015571Y015006D01*
X015499Y014995D02*
X014604Y014995D01*
X014603Y014995D02*
X014531Y015006D01*
X014531Y014538D01*
X014431Y014538D01*
X014431Y014438D01*
X013963Y014438D01*
X013974Y014366D01*
X014000Y014288D01*
X014037Y014215D01*
X014085Y014149D01*
X014143Y014091D01*
X014209Y014043D01*
X014282Y014006D01*
X014360Y013981D01*
X014431Y013969D01*
X014431Y014438D01*
X014531Y014438D01*
X014531Y013969D01*
X014603Y013981D01*
X014681Y014006D01*
X014754Y014043D01*
X014820Y014091D01*
X014878Y014149D01*
X014926Y014215D01*
X014963Y014288D01*
X014989Y014366D01*
X015000Y014438D01*
X014531Y014438D01*
X014531Y014538D01*
X015000Y014538D01*
X014989Y014610D01*
X014963Y014687D01*
X014926Y014760D01*
X014878Y014827D01*
X014820Y014884D01*
X014754Y014933D01*
X014681Y014970D01*
X014603Y014995D01*
X014531Y014995D02*
X014431Y014995D01*
X014431Y015006D02*
X014360Y014995D01*
X014282Y014970D01*
X014209Y014933D01*
X014143Y014884D01*
X014085Y014827D01*
X014037Y014760D01*
X014000Y014687D01*
X013974Y014610D01*
X013963Y014538D01*
X014431Y014538D01*
X014431Y015006D01*
X014359Y014995D02*
X007624Y014995D01*
X007567Y015192D02*
X006568Y015192D01*
X006568Y015093D02*
X007335Y015093D01*
X007384Y014896D02*
X014159Y014896D01*
X014064Y014798D02*
X007072Y014798D01*
X007033Y014995D02*
X006568Y014995D01*
X006568Y014699D02*
X014006Y014699D01*
X013973Y014601D02*
X006568Y014601D01*
X006568Y014502D02*
X014431Y014502D01*
X014431Y014404D02*
X014531Y014404D01*
X014531Y014502D02*
X015571Y014502D01*
X015571Y014404D02*
X015671Y014404D01*
X015671Y014502D02*
X020038Y014502D01*
X020038Y014404D02*
X016135Y014404D01*
X016109Y014305D02*
X020038Y014305D01*
X020038Y014207D02*
X016060Y014207D01*
X015977Y014108D02*
X020038Y014108D01*
X020038Y014010D02*
X015828Y014010D01*
X015671Y014010D02*
X015571Y014010D01*
X015571Y014108D02*
X015671Y014108D01*
X015671Y014207D02*
X015571Y014207D01*
X015571Y014305D02*
X015671Y014305D01*
X015671Y014601D02*
X015571Y014601D01*
X015571Y014699D02*
X015671Y014699D01*
X015671Y014798D02*
X015571Y014798D01*
X015571Y014896D02*
X015671Y014896D01*
X015944Y014896D02*
X020038Y014896D01*
X020038Y014798D02*
X016039Y014798D01*
X016097Y014699D02*
X020038Y014699D01*
X020038Y014601D02*
X016130Y014601D01*
X015299Y014896D02*
X014804Y014896D01*
X014899Y014798D02*
X015204Y014798D01*
X015146Y014699D02*
X014957Y014699D01*
X014990Y014601D02*
X015113Y014601D01*
X015108Y014404D02*
X014995Y014404D01*
X014969Y014305D02*
X015134Y014305D01*
X015183Y014207D02*
X014920Y014207D01*
X014837Y014108D02*
X015266Y014108D01*
X015415Y014010D02*
X014688Y014010D01*
X014531Y014010D02*
X014431Y014010D01*
X014431Y014108D02*
X014531Y014108D01*
X014531Y014207D02*
X014431Y014207D01*
X014431Y014305D02*
X014531Y014305D01*
X014531Y014601D02*
X014431Y014601D01*
X014431Y014699D02*
X014531Y014699D01*
X014531Y014798D02*
X014431Y014798D01*
X014431Y014896D02*
X014531Y014896D01*
X014618Y015296D02*
X014809Y015375D01*
X014955Y015522D01*
X015035Y015713D01*
X015035Y015920D01*
X014955Y016111D01*
X014809Y016257D01*
X014618Y016336D01*
X014411Y016336D01*
X014220Y016257D01*
X014074Y016111D01*
X013995Y015920D01*
X013995Y015713D01*
X014074Y015522D01*
X014220Y015375D01*
X014411Y015296D01*
X014618Y015296D01*
X014822Y015389D02*
X015347Y015389D01*
X015360Y015375D02*
X015551Y015296D01*
X015758Y015296D01*
X015949Y015375D01*
X016095Y015522D01*
X016175Y015713D01*
X016175Y015920D01*
X016095Y016111D01*
X015949Y016257D01*
X015758Y016336D01*
X015551Y016336D01*
X015360Y016257D01*
X015214Y016111D01*
X015135Y015920D01*
X015135Y015713D01*
X015214Y015522D01*
X015360Y015375D01*
X015248Y015487D02*
X014921Y015487D01*
X014982Y015586D02*
X015187Y015586D01*
X015146Y015684D02*
X015023Y015684D01*
X015035Y015783D02*
X015135Y015783D01*
X015135Y015881D02*
X015035Y015881D01*
X015010Y015980D02*
X015159Y015980D01*
X015200Y016078D02*
X014969Y016078D01*
X014889Y016177D02*
X015280Y016177D01*
X015404Y016275D02*
X014765Y016275D01*
X014264Y016275D02*
X008999Y016275D01*
X008946Y016177D02*
X014140Y016177D01*
X014060Y016078D02*
X008876Y016078D01*
X008807Y015980D02*
X014019Y015980D01*
X013995Y015881D02*
X008738Y015881D01*
X008650Y015783D02*
X013995Y015783D01*
X014006Y015684D02*
X008561Y015684D01*
X008473Y015586D02*
X014047Y015586D01*
X014108Y015487D02*
X008357Y015487D01*
X008250Y015389D02*
X014207Y015389D01*
X013968Y014404D02*
X006568Y014404D01*
X006568Y014305D02*
X013994Y014305D01*
X014043Y014207D02*
X006568Y014207D01*
X006568Y014108D02*
X014126Y014108D01*
X014275Y014010D02*
X006568Y014010D01*
X006568Y013911D02*
X020038Y013911D01*
X020038Y013813D02*
X006568Y013813D01*
X006568Y013714D02*
X020038Y013714D01*
X020038Y013616D02*
X019476Y013616D01*
X019470Y013622D02*
X018657Y013622D01*
X018569Y013534D01*
X018569Y013361D01*
X018105Y013361D01*
X018105Y013443D01*
X018017Y013531D01*
X017319Y013531D01*
X017231Y013443D01*
X017231Y013361D01*
X015621Y013361D01*
X015621Y013534D01*
X015533Y013622D01*
X014720Y013622D01*
X014632Y013534D01*
X014632Y013361D01*
X014205Y013361D01*
X014205Y013443D01*
X014117Y013531D01*
X013419Y013531D01*
X013331Y013443D01*
X013331Y013361D01*
X009715Y013361D01*
X009715Y013534D01*
X009627Y013622D01*
X008814Y013622D01*
X008726Y013534D01*
X008726Y012701D01*
X008814Y012613D01*
X009627Y012613D01*
X009715Y012701D01*
X009715Y012901D01*
X013331Y012901D01*
X013331Y012819D01*
X013419Y012731D01*
X014117Y012731D01*
X014205Y012819D01*
X014205Y012901D01*
X014632Y012901D01*
X014632Y012701D01*
X014720Y012613D01*
X015533Y012613D01*
X015621Y012701D01*
X015621Y012901D01*
X017231Y012901D01*
X017231Y012819D01*
X017319Y012731D01*
X018017Y012731D01*
X018105Y012819D01*
X018105Y012901D01*
X018569Y012901D01*
X018569Y012701D01*
X018657Y012613D01*
X018702Y012613D01*
X018580Y012492D01*
X018580Y012171D01*
X018807Y011944D01*
X019128Y011944D01*
X019355Y012171D01*
X019355Y012492D01*
X019298Y012549D01*
X019298Y012613D01*
X019470Y012613D01*
X019558Y012701D01*
X019558Y013534D01*
X019470Y013622D01*
X019558Y013517D02*
X020038Y013517D01*
X020055Y013419D02*
X019558Y013419D01*
X019558Y013320D02*
X020154Y013320D01*
X020252Y013222D02*
X019558Y013222D01*
X019558Y013123D02*
X020351Y013123D01*
X020509Y013616D02*
X021625Y013616D01*
X021621Y013517D02*
X021607Y013517D01*
X021699Y013714D02*
X020498Y013714D01*
X020498Y013813D02*
X033261Y013813D01*
X033338Y013714D02*
X022236Y013714D01*
X022311Y013616D02*
X022587Y013616D01*
X022506Y013517D02*
X022315Y013517D01*
X022315Y013419D02*
X022506Y013419D01*
X022506Y013320D02*
X022016Y013320D01*
X022016Y013419D02*
X021920Y013419D01*
X021920Y013517D02*
X022016Y013517D01*
X022016Y013616D02*
X021920Y013616D01*
X021920Y013714D02*
X022016Y013714D01*
X022315Y013222D02*
X022506Y013222D01*
X022506Y013123D02*
X022313Y013123D01*
X022265Y013025D02*
X022506Y013025D01*
X023298Y012532D02*
X033180Y012532D01*
X033217Y012434D02*
X023298Y012434D01*
X023298Y012335D02*
X033316Y012335D01*
X033816Y012040D02*
X030169Y012040D01*
X030169Y011980D02*
X030169Y012148D01*
X030159Y012186D01*
X030139Y012220D01*
X030111Y012248D01*
X030077Y012268D01*
X030039Y012278D01*
X029851Y012278D01*
X029851Y011980D01*
X029754Y011980D01*
X029754Y012278D01*
X029566Y012278D01*
X029528Y012268D01*
X029494Y012248D01*
X029468Y012222D01*
X029412Y012278D01*
X028855Y012278D01*
X028812Y012235D01*
X028728Y012319D01*
X028407Y012319D01*
X028180Y012092D01*
X028180Y011771D01*
X028407Y011544D01*
X028728Y011544D01*
X028812Y011627D01*
X028855Y011584D01*
X029412Y011584D01*
X029468Y011640D01*
X029494Y011614D01*
X029528Y011594D01*
X029566Y011584D01*
X029754Y011584D01*
X029754Y011883D01*
X029851Y011883D01*
X029851Y011980D01*
X030169Y011980D01*
X030169Y011883D02*
X029851Y011883D01*
X029851Y011584D01*
X030039Y011584D01*
X030077Y011594D01*
X030111Y011614D01*
X030139Y011642D01*
X030159Y011676D01*
X030169Y011715D01*
X030169Y011883D01*
X030169Y011843D02*
X033767Y011843D01*
X033767Y011941D02*
X029851Y011941D01*
X029851Y011843D02*
X029754Y011843D01*
X029754Y011744D02*
X029851Y011744D01*
X029851Y011646D02*
X029754Y011646D01*
X030141Y011646D02*
X033767Y011646D01*
X033767Y011744D02*
X030169Y011744D01*
X030169Y012138D02*
X033903Y012138D01*
X033903Y012237D02*
X030123Y012237D01*
X029851Y012237D02*
X029754Y012237D01*
X029754Y012138D02*
X029851Y012138D01*
X029851Y012040D02*
X029754Y012040D01*
X029483Y012237D02*
X029453Y012237D01*
X028813Y012237D02*
X028810Y012237D01*
X028326Y012237D02*
X024610Y012237D01*
X024709Y012138D02*
X028227Y012138D01*
X028180Y012040D02*
X024755Y012040D01*
X024755Y011941D02*
X028180Y011941D01*
X028180Y011843D02*
X024755Y011843D01*
X024729Y011744D02*
X028207Y011744D01*
X028305Y011646D02*
X024630Y011646D01*
X024743Y011547D02*
X024793Y011547D01*
X025054Y011547D02*
X025151Y011547D01*
X025151Y011449D02*
X025054Y011449D01*
X025054Y011350D02*
X025151Y011350D01*
X025151Y011252D02*
X026522Y011252D01*
X026443Y011153D02*
X025469Y011153D01*
X025469Y011055D02*
X026443Y011055D01*
X026443Y010464D02*
X023495Y010464D01*
X023495Y010365D02*
X026443Y010365D01*
X026515Y010267D02*
X023422Y010267D01*
X022578Y010267D02*
X019485Y010267D01*
X019558Y010365D02*
X022506Y010365D01*
X022506Y010464D02*
X019558Y010464D01*
X019558Y011055D02*
X022506Y011055D01*
X022506Y011153D02*
X019558Y011153D01*
X019103Y011744D02*
X020856Y011744D01*
X020954Y011843D02*
X006568Y011843D01*
X006568Y011941D02*
X021053Y011941D01*
X021151Y012040D02*
X019224Y012040D01*
X019323Y012138D02*
X022413Y012138D01*
X022314Y012237D02*
X019355Y012237D01*
X019355Y012335D02*
X021704Y012335D01*
X021621Y012434D02*
X019355Y012434D01*
X019315Y012532D02*
X021542Y012532D01*
X021443Y012631D02*
X019487Y012631D01*
X019558Y012729D02*
X021345Y012729D01*
X021338Y012828D02*
X019558Y012828D01*
X019558Y012926D02*
X021338Y012926D01*
X021338Y013025D02*
X019558Y013025D01*
X018639Y012631D02*
X015550Y012631D01*
X015621Y012729D02*
X018569Y012729D01*
X018569Y012828D02*
X018105Y012828D01*
X018621Y012532D02*
X006568Y012532D01*
X006568Y012434D02*
X018580Y012434D01*
X018580Y012335D02*
X006568Y012335D01*
X006568Y012237D02*
X018580Y012237D01*
X018613Y012138D02*
X006568Y012138D01*
X006568Y012040D02*
X018711Y012040D01*
X018633Y011744D02*
X006568Y011744D01*
X006568Y011646D02*
X018535Y011646D01*
X018480Y011547D02*
X006568Y011547D01*
X006568Y011449D02*
X018480Y011449D01*
X018480Y011350D02*
X006568Y011350D01*
X006568Y011252D02*
X008806Y011252D01*
X008726Y011153D02*
X006568Y011153D01*
X006568Y011055D02*
X008726Y011055D01*
X008726Y010956D02*
X006568Y010956D01*
X006568Y010858D02*
X008726Y010858D01*
X008726Y010759D02*
X006568Y010759D01*
X006568Y010661D02*
X008726Y010661D01*
X008726Y010562D02*
X006568Y010562D01*
X006568Y010464D02*
X008726Y010464D01*
X008726Y010365D02*
X006568Y010365D01*
X006568Y010267D02*
X008799Y010267D01*
X009643Y010267D02*
X014704Y010267D01*
X014632Y010365D02*
X009715Y010365D01*
X009715Y010464D02*
X014632Y010464D01*
X014618Y009965D02*
X014411Y009965D01*
X014220Y009886D01*
X014074Y009740D01*
X013995Y009549D01*
X013995Y009342D01*
X014074Y009151D01*
X014220Y009004D01*
X014411Y008925D01*
X014618Y008925D01*
X014809Y009004D01*
X014955Y009151D01*
X015035Y009342D01*
X015035Y009549D01*
X014955Y009740D01*
X014809Y009886D01*
X014618Y009965D01*
X014823Y009873D02*
X015346Y009873D01*
X015438Y009971D02*
X006568Y009971D01*
X006568Y009873D02*
X014206Y009873D01*
X014108Y009774D02*
X006568Y009774D01*
X006568Y009676D02*
X014047Y009676D01*
X014006Y009577D02*
X006568Y009577D01*
X006568Y009479D02*
X013995Y009479D01*
X013995Y009380D02*
X006568Y009380D01*
X006568Y009282D02*
X014019Y009282D01*
X014060Y009183D02*
X006568Y009183D01*
X006568Y009085D02*
X014140Y009085D01*
X014264Y008986D02*
X006568Y008986D01*
X006568Y008888D02*
X020148Y008888D01*
X020148Y008935D02*
X020148Y008728D01*
X020227Y008537D01*
X020373Y008390D01*
X020444Y008361D01*
X019073Y008361D01*
X018973Y008261D01*
X018838Y008126D01*
X018838Y007678D01*
X018755Y007678D01*
X018667Y007590D01*
X018667Y007072D01*
X018755Y006984D01*
X019312Y006984D01*
X019368Y007040D01*
X019424Y006984D01*
X019981Y006984D01*
X020069Y007072D01*
X020069Y007098D01*
X020136Y007031D01*
X020071Y006966D01*
X018759Y006966D01*
X018563Y007161D01*
X017186Y007161D01*
X017028Y007319D01*
X016707Y007319D01*
X016480Y007092D01*
X016480Y006771D01*
X016707Y006544D01*
X017028Y006544D01*
X017186Y006701D01*
X018373Y006701D01*
X018433Y006641D01*
X018433Y006641D01*
X018568Y006506D01*
X020071Y006506D01*
X020148Y006428D01*
X020588Y006428D01*
X020665Y006506D01*
X021371Y006506D01*
X021448Y006428D01*
X021888Y006428D01*
X021975Y006516D01*
X021975Y006955D01*
X021900Y007031D01*
X021965Y007096D01*
X021967Y007096D01*
X021967Y007072D01*
X022055Y006984D01*
X022612Y006984D01*
X022668Y007040D01*
X022724Y006984D01*
X023281Y006984D01*
X023369Y007072D01*
X023369Y007136D01*
X028838Y007136D01*
X029038Y006936D01*
X029173Y006801D01*
X030379Y006801D01*
X030379Y006623D01*
X030466Y006535D01*
X031251Y006535D01*
X031339Y006623D01*
X031339Y007407D01*
X031251Y007495D01*
X030466Y007495D01*
X030379Y007407D01*
X030379Y007261D01*
X029363Y007261D01*
X029163Y007461D01*
X029029Y007596D01*
X023363Y007596D01*
X023281Y007678D01*
X022724Y007678D01*
X022668Y007622D01*
X022612Y007678D01*
X022055Y007678D01*
X021967Y007590D01*
X021967Y007556D01*
X021965Y007556D01*
X021888Y007634D01*
X021448Y007634D01*
X021360Y007546D01*
X021360Y007107D01*
X021436Y007031D01*
X021371Y006966D01*
X020665Y006966D01*
X020600Y007031D01*
X020675Y007107D01*
X020675Y007546D01*
X020588Y007634D01*
X020148Y007634D01*
X020076Y007561D01*
X020069Y007561D01*
X020069Y007590D01*
X019981Y007678D01*
X019424Y007678D01*
X019368Y007622D01*
X019312Y007678D01*
X019298Y007678D01*
X019298Y007901D01*
X032573Y007901D01*
X032638Y007836D01*
X032638Y007474D01*
X032379Y007214D01*
X032379Y006817D01*
X032660Y006535D01*
X033057Y006535D01*
X033339Y006817D01*
X033339Y007214D01*
X033098Y007455D01*
X033098Y008026D01*
X032963Y008161D01*
X032763Y008361D01*
X020892Y008361D01*
X020963Y008390D01*
X021109Y008537D01*
X021188Y008728D01*
X021188Y008935D01*
X021109Y009126D01*
X020963Y009272D01*
X020771Y009351D01*
X020565Y009351D01*
X020373Y009272D01*
X020227Y009126D01*
X020148Y008935D01*
X020169Y008986D02*
X015905Y008986D01*
X016029Y009085D02*
X020210Y009085D01*
X020285Y009183D02*
X016109Y009183D01*
X016150Y009282D02*
X020397Y009282D01*
X020939Y009282D02*
X028283Y009282D01*
X028227Y009226D02*
X028148Y009035D01*
X028148Y008828D01*
X028227Y008637D01*
X028373Y008490D01*
X028565Y008411D01*
X028771Y008411D01*
X028963Y008490D01*
X029109Y008637D01*
X029188Y008828D01*
X029188Y009035D01*
X029109Y009226D01*
X028963Y009372D01*
X028771Y009451D01*
X028565Y009451D01*
X028373Y009372D01*
X028227Y009226D01*
X028210Y009183D02*
X021051Y009183D01*
X021126Y009085D02*
X028169Y009085D01*
X028148Y008986D02*
X021167Y008986D01*
X021188Y008888D02*
X028148Y008888D01*
X028164Y008789D02*
X021188Y008789D01*
X021173Y008691D02*
X028205Y008691D01*
X028272Y008592D02*
X021132Y008592D01*
X021066Y008494D02*
X028370Y008494D01*
X028966Y008494D02*
X031757Y008494D01*
X031807Y008444D02*
X032128Y008444D01*
X032355Y008671D01*
X032355Y008701D01*
X033950Y008701D01*
X034107Y008544D01*
X034428Y008544D01*
X034655Y008771D01*
X034655Y009092D01*
X034428Y009319D01*
X034107Y009319D01*
X033950Y009161D01*
X032186Y009161D01*
X032128Y009219D01*
X031807Y009219D01*
X031580Y008992D01*
X031580Y008671D01*
X031807Y008444D01*
X031659Y008592D02*
X029064Y008592D01*
X029131Y008691D02*
X031580Y008691D01*
X031580Y008789D02*
X029172Y008789D01*
X029188Y008888D02*
X031580Y008888D01*
X031580Y008986D02*
X029188Y008986D01*
X029167Y009085D02*
X031674Y009085D01*
X031772Y009183D02*
X029126Y009183D01*
X029053Y009282D02*
X032369Y009282D01*
X032407Y009244D02*
X032728Y009244D01*
X032886Y009401D01*
X033450Y009401D01*
X033607Y009244D01*
X033928Y009244D01*
X034155Y009471D01*
X034155Y009792D01*
X033928Y010019D01*
X033607Y010019D01*
X033450Y009861D01*
X032886Y009861D01*
X032728Y010019D01*
X032407Y010019D01*
X032180Y009792D01*
X032180Y009471D01*
X032407Y009244D01*
X032271Y009380D02*
X028943Y009380D01*
X028393Y009380D02*
X016175Y009380D01*
X016175Y009479D02*
X032180Y009479D01*
X032180Y009577D02*
X016163Y009577D01*
X016122Y009676D02*
X032180Y009676D01*
X032180Y009774D02*
X016061Y009774D01*
X015963Y009873D02*
X032262Y009873D01*
X032360Y009971D02*
X015898Y009971D01*
X015898Y010070D02*
X035496Y010070D01*
X035496Y010168D02*
X015898Y010168D01*
X015898Y010267D02*
X018641Y010267D01*
X018569Y010365D02*
X015898Y010365D01*
X015898Y010464D02*
X018569Y010464D01*
X018569Y011055D02*
X015621Y011055D01*
X015621Y011153D02*
X018569Y011153D01*
X018499Y011252D02*
X015541Y011252D01*
X014711Y011252D02*
X009636Y011252D01*
X009715Y011153D02*
X014632Y011153D01*
X014632Y011055D02*
X009715Y011055D01*
X009645Y012631D02*
X014702Y012631D01*
X014632Y012729D02*
X009715Y012729D01*
X009715Y012828D02*
X013331Y012828D01*
X014205Y012828D02*
X014632Y012828D01*
X014632Y013419D02*
X014205Y013419D01*
X014131Y013517D02*
X014632Y013517D01*
X014713Y013616D02*
X009634Y013616D01*
X009715Y013517D02*
X013405Y013517D01*
X013331Y013419D02*
X009715Y013419D01*
X008808Y013616D02*
X006568Y013616D01*
X006568Y013517D02*
X008726Y013517D01*
X008726Y013419D02*
X006568Y013419D01*
X006568Y013320D02*
X008726Y013320D01*
X008726Y013222D02*
X006568Y013222D01*
X006568Y013123D02*
X008726Y013123D01*
X008726Y013025D02*
X006568Y013025D01*
X006568Y012926D02*
X008726Y012926D01*
X008726Y012828D02*
X006568Y012828D01*
X006568Y012729D02*
X008726Y012729D01*
X008797Y012631D02*
X006568Y012631D01*
X006568Y010168D02*
X015438Y010168D01*
X015438Y010070D02*
X006568Y010070D01*
X006568Y008789D02*
X020148Y008789D01*
X020163Y008691D02*
X006568Y008691D01*
X006568Y008592D02*
X020204Y008592D01*
X020270Y008494D02*
X006568Y008494D01*
X006568Y008395D02*
X020369Y008395D01*
X020967Y008395D02*
X035496Y008395D01*
X035496Y008297D02*
X032828Y008297D01*
X032926Y008198D02*
X034502Y008198D01*
X034491Y007990D02*
X034614Y008000D01*
X035496Y008000D01*
X035496Y006331D01*
X033827Y006331D01*
X033827Y007212D01*
X033837Y007335D01*
X033866Y007456D01*
X033913Y007570D01*
X033977Y007675D01*
X034058Y007769D01*
X034152Y007849D01*
X034257Y007914D01*
X034371Y007961D01*
X034491Y007990D01*
X034239Y007903D02*
X035496Y007903D01*
X035496Y007804D02*
X034099Y007804D01*
X034004Y007706D02*
X035496Y007706D01*
X035496Y007607D02*
X035065Y007607D01*
X035176Y007561D02*
X034939Y007659D01*
X034683Y007659D01*
X034447Y007561D01*
X034266Y007380D01*
X034168Y007143D01*
X034168Y006887D01*
X034266Y006651D01*
X034447Y006470D01*
X034683Y006372D01*
X034939Y006372D01*
X035176Y006470D01*
X035357Y006651D01*
X035455Y006887D01*
X035455Y007143D01*
X035357Y007380D01*
X035176Y007561D01*
X035228Y007509D02*
X035496Y007509D01*
X035496Y007410D02*
X035327Y007410D01*
X035385Y007312D02*
X035496Y007312D01*
X035496Y007213D02*
X035426Y007213D01*
X035455Y007115D02*
X035496Y007115D01*
X035496Y007016D02*
X035455Y007016D01*
X035455Y006918D02*
X035496Y006918D01*
X035496Y006819D02*
X035427Y006819D01*
X035386Y006721D02*
X035496Y006721D01*
X035496Y006622D02*
X035328Y006622D01*
X035230Y006524D02*
X035496Y006524D01*
X035496Y006425D02*
X035068Y006425D01*
X034554Y006425D02*
X033827Y006425D01*
X033827Y006524D02*
X034393Y006524D01*
X034294Y006622D02*
X033827Y006622D01*
X033827Y006721D02*
X034237Y006721D01*
X034196Y006819D02*
X033827Y006819D01*
X033827Y006918D02*
X034168Y006918D01*
X034168Y007016D02*
X033827Y007016D01*
X033827Y007115D02*
X034168Y007115D01*
X034196Y007213D02*
X033827Y007213D01*
X033835Y007312D02*
X034237Y007312D01*
X034296Y007410D02*
X033855Y007410D01*
X033888Y007509D02*
X034394Y007509D01*
X034558Y007607D02*
X033936Y007607D01*
X033753Y007706D02*
X033098Y007706D01*
X033098Y007804D02*
X033822Y007804D01*
X033906Y007903D02*
X033098Y007903D01*
X033098Y008001D02*
X034017Y008001D01*
X034177Y008100D02*
X033025Y008100D01*
X032277Y008592D02*
X034059Y008592D01*
X033960Y008691D02*
X032355Y008691D01*
X032178Y008494D02*
X035496Y008494D01*
X035496Y008592D02*
X034477Y008592D01*
X034575Y008691D02*
X035496Y008691D01*
X035496Y008789D02*
X034655Y008789D01*
X034655Y008888D02*
X035496Y008888D01*
X035496Y008986D02*
X034655Y008986D01*
X034655Y009085D02*
X035496Y009085D01*
X035496Y009183D02*
X034564Y009183D01*
X034465Y009282D02*
X035496Y009282D01*
X035496Y009380D02*
X034065Y009380D01*
X034071Y009282D02*
X033966Y009282D01*
X033972Y009183D02*
X032164Y009183D01*
X032766Y009282D02*
X033569Y009282D01*
X033471Y009380D02*
X032865Y009380D01*
X032874Y009873D02*
X033462Y009873D01*
X033560Y009971D02*
X032776Y009971D01*
X032421Y010267D02*
X027359Y010267D01*
X027432Y010365D02*
X032348Y010365D01*
X032348Y010464D02*
X027432Y010464D01*
X027432Y011055D02*
X032348Y011055D01*
X032348Y011153D02*
X027432Y011153D01*
X027352Y011252D02*
X032428Y011252D01*
X033258Y011252D02*
X035496Y011252D01*
X035496Y011350D02*
X025469Y011350D01*
X025469Y011449D02*
X033790Y011449D01*
X033767Y011547D02*
X028732Y011547D01*
X028404Y011547D02*
X025412Y011547D01*
X024124Y011547D02*
X023332Y011547D01*
X023233Y011449D02*
X024067Y011449D01*
X024067Y011350D02*
X021112Y011350D01*
X021014Y011252D02*
X022585Y011252D01*
X022804Y011547D02*
X021309Y011547D01*
X021211Y011449D02*
X022902Y011449D01*
X023415Y011252D02*
X024067Y011252D01*
X024067Y011153D02*
X023495Y011153D01*
X023495Y011055D02*
X024067Y011055D01*
X024105Y011646D02*
X023430Y011646D01*
X023455Y011744D02*
X024007Y011744D01*
X023980Y011843D02*
X023455Y011843D01*
X023455Y011941D02*
X023980Y011941D01*
X023980Y012040D02*
X023407Y012040D01*
X023309Y012138D02*
X024027Y012138D01*
X024126Y012237D02*
X023298Y012237D01*
X023424Y012631D02*
X026513Y012631D01*
X026443Y012729D02*
X023495Y012729D01*
X023495Y012828D02*
X023931Y012828D01*
X024805Y012828D02*
X026443Y012828D01*
X027361Y012631D02*
X032419Y012631D01*
X032348Y012729D02*
X027432Y012729D01*
X027432Y012828D02*
X027931Y012828D01*
X028805Y012828D02*
X032348Y012828D01*
X033337Y013025D02*
X033338Y013025D01*
X033337Y013123D02*
X033338Y013123D01*
X033337Y013222D02*
X033338Y013222D01*
X033337Y013320D02*
X033338Y013320D01*
X033337Y013419D02*
X033338Y013419D01*
X033337Y013517D02*
X033338Y013517D01*
X033338Y013616D02*
X033256Y013616D01*
X033798Y013616D02*
X035496Y013616D01*
X035496Y013714D02*
X033798Y013714D01*
X033798Y013813D02*
X035496Y013813D01*
X035496Y013911D02*
X033798Y013911D01*
X033715Y014010D02*
X035496Y014010D01*
X035496Y014108D02*
X033616Y014108D01*
X033518Y014207D02*
X035496Y014207D01*
X035496Y014305D02*
X033977Y014305D01*
X034076Y014404D02*
X035496Y014404D01*
X035387Y014502D02*
X034136Y014502D01*
X034177Y014601D02*
X034929Y014601D01*
X034967Y014798D02*
X035496Y014798D01*
X035496Y014896D02*
X034685Y014896D01*
X034549Y014951D02*
X034268Y015107D01*
X034009Y015296D01*
X033773Y015514D01*
X033566Y015759D01*
X033390Y016028D01*
X033247Y016316D01*
X033140Y016618D01*
X033071Y016932D01*
X033040Y017252D01*
X033040Y017542D01*
X033827Y017542D01*
X034014Y017532D01*
X034378Y017448D01*
X034715Y017286D01*
X035007Y017053D01*
X035240Y016761D01*
X035402Y016425D01*
X035485Y016060D01*
X035496Y015874D01*
X035496Y014700D01*
X035474Y014700D01*
X035157Y014746D01*
X034847Y014830D01*
X034549Y014951D01*
X034471Y014995D02*
X035496Y014995D01*
X035496Y015093D02*
X034294Y015093D01*
X034152Y015192D02*
X035496Y015192D01*
X035496Y015290D02*
X034016Y015290D01*
X033908Y015389D02*
X035496Y015389D01*
X035496Y015487D02*
X033802Y015487D01*
X033713Y015586D02*
X035496Y015586D01*
X035496Y015684D02*
X033630Y015684D01*
X033551Y015783D02*
X035496Y015783D01*
X035495Y015881D02*
X034889Y015881D01*
X034979Y015918D02*
X035160Y016100D01*
X035258Y016336D01*
X035258Y016592D01*
X035160Y016829D01*
X034979Y017010D01*
X034742Y017108D01*
X034486Y017108D01*
X034250Y017010D01*
X034069Y016829D01*
X033971Y016592D01*
X033971Y016336D01*
X034069Y016100D01*
X034250Y015918D01*
X034486Y015820D01*
X034742Y015820D01*
X034979Y015918D01*
X035040Y015980D02*
X035490Y015980D01*
X035481Y016078D02*
X035139Y016078D01*
X035192Y016177D02*
X035459Y016177D01*
X035436Y016275D02*
X035233Y016275D01*
X035258Y016374D02*
X035414Y016374D01*
X035379Y016472D02*
X035258Y016472D01*
X035258Y016571D02*
X035332Y016571D01*
X035284Y016669D02*
X035226Y016669D01*
X035235Y016768D02*
X035185Y016768D01*
X035156Y016866D02*
X035123Y016866D01*
X035078Y016965D02*
X035024Y016965D01*
X034995Y017063D02*
X034850Y017063D01*
X034871Y017162D02*
X033048Y017162D01*
X033040Y017260D02*
X034748Y017260D01*
X034565Y017359D02*
X033040Y017359D01*
X033040Y017457D02*
X034340Y017457D01*
X034378Y017063D02*
X033058Y017063D01*
X033068Y016965D02*
X034205Y016965D01*
X034106Y016866D02*
X033085Y016866D01*
X033107Y016768D02*
X034043Y016768D01*
X034003Y016669D02*
X033129Y016669D01*
X033157Y016571D02*
X033971Y016571D01*
X033971Y016472D02*
X033192Y016472D01*
X033227Y016374D02*
X033971Y016374D01*
X033996Y016275D02*
X033267Y016275D01*
X033316Y016177D02*
X034037Y016177D01*
X034090Y016078D02*
X033365Y016078D01*
X033421Y015980D02*
X034189Y015980D01*
X034340Y015881D02*
X033486Y015881D01*
X033311Y015783D02*
X020755Y015783D01*
X020755Y015684D02*
X033368Y015684D01*
X033441Y015586D02*
X020755Y015586D01*
X020755Y015487D02*
X033534Y015487D01*
X033614Y015389D02*
X021422Y015389D01*
X021463Y015372D02*
X021271Y015451D01*
X021065Y015451D01*
X020873Y015372D01*
X020727Y015226D01*
X020648Y015035D01*
X020648Y014828D01*
X020727Y014637D01*
X020873Y014490D01*
X021065Y014411D01*
X021271Y014411D01*
X021463Y014490D01*
X021609Y014637D01*
X021688Y014828D01*
X021688Y015035D01*
X021609Y015226D01*
X021463Y015372D01*
X021544Y015290D02*
X033720Y015290D01*
X033421Y015192D02*
X028915Y015192D01*
X028963Y015172D02*
X028771Y015251D01*
X028565Y015251D01*
X028373Y015172D01*
X028227Y015026D01*
X028148Y014835D01*
X028148Y014628D01*
X028227Y014437D01*
X028373Y014290D01*
X028565Y014211D01*
X028771Y014211D01*
X028963Y014290D01*
X029109Y014437D01*
X029188Y014628D01*
X029188Y014835D01*
X029109Y015026D01*
X028963Y015172D01*
X029041Y015093D02*
X033295Y015093D01*
X033214Y014995D02*
X029122Y014995D01*
X029162Y014896D02*
X030285Y014896D01*
X030187Y014798D02*
X029188Y014798D01*
X029188Y014699D02*
X030088Y014699D01*
X030080Y014601D02*
X029177Y014601D01*
X029136Y014502D02*
X030080Y014502D01*
X030080Y014404D02*
X029076Y014404D01*
X028977Y014305D02*
X030146Y014305D01*
X030244Y014207D02*
X020498Y014207D01*
X020498Y014305D02*
X028359Y014305D01*
X028260Y014404D02*
X020498Y014404D01*
X020498Y014502D02*
X020862Y014502D01*
X020763Y014601D02*
X020498Y014601D01*
X020498Y014699D02*
X020701Y014699D01*
X020660Y014798D02*
X020498Y014798D01*
X020498Y014896D02*
X020648Y014896D01*
X020648Y014995D02*
X020498Y014995D01*
X020498Y015093D02*
X020672Y015093D01*
X020713Y015192D02*
X020498Y015192D01*
X020575Y015290D02*
X020792Y015290D01*
X020673Y015389D02*
X020914Y015389D01*
X021623Y015192D02*
X028421Y015192D01*
X028295Y015093D02*
X021664Y015093D01*
X021688Y014995D02*
X028214Y014995D01*
X028173Y014896D02*
X021688Y014896D01*
X021676Y014798D02*
X028148Y014798D01*
X028148Y014699D02*
X021635Y014699D01*
X021573Y014601D02*
X028159Y014601D01*
X028200Y014502D02*
X021474Y014502D01*
X020498Y014108D02*
X032966Y014108D01*
X033064Y014010D02*
X020498Y014010D01*
X020498Y013911D02*
X033163Y013911D01*
X032867Y014207D02*
X030691Y014207D01*
X030749Y014798D02*
X033148Y014798D01*
X033148Y014699D02*
X033025Y014699D01*
X033124Y014601D02*
X033159Y014601D01*
X033173Y014896D02*
X030651Y014896D01*
X032348Y013517D02*
X028731Y013517D01*
X028805Y013419D02*
X032348Y013419D01*
X032430Y013616D02*
X027350Y013616D01*
X027432Y013517D02*
X028005Y013517D01*
X027931Y013419D02*
X027432Y013419D01*
X026524Y013616D02*
X023413Y013616D01*
X023495Y013517D02*
X024005Y013517D01*
X023931Y013419D02*
X023495Y013419D01*
X024731Y013517D02*
X026443Y013517D01*
X026443Y013419D02*
X024805Y013419D01*
X022280Y012335D02*
X022232Y012335D01*
X018650Y013616D02*
X015539Y013616D01*
X015621Y013517D02*
X017305Y013517D01*
X017231Y013419D02*
X015621Y013419D01*
X015621Y012828D02*
X017231Y012828D01*
X018105Y013419D02*
X018569Y013419D01*
X018569Y013517D02*
X018031Y013517D01*
X017076Y015192D02*
X020038Y015192D01*
X019984Y015290D02*
X017175Y015290D01*
X017164Y015783D02*
X019980Y015783D01*
X020070Y015881D02*
X017066Y015881D01*
X016670Y015881D02*
X016175Y015881D01*
X016175Y015783D02*
X016572Y015783D01*
X016480Y015684D02*
X016163Y015684D01*
X016122Y015586D02*
X016480Y015586D01*
X016480Y015487D02*
X016061Y015487D01*
X015962Y015389D02*
X016480Y015389D01*
X016561Y015290D02*
X008112Y015290D01*
X007980Y015192D02*
X016659Y015192D01*
X016150Y015980D02*
X020169Y015980D01*
X020567Y015980D02*
X033182Y015980D01*
X033142Y016078D02*
X016109Y016078D01*
X016029Y016177D02*
X033084Y016177D01*
X033044Y016275D02*
X015905Y016275D01*
X020666Y015881D02*
X033239Y015881D01*
X033827Y017843D02*
X033921Y017841D01*
X034014Y017834D01*
X034107Y017823D01*
X034200Y017807D01*
X034291Y017787D01*
X034382Y017763D01*
X034471Y017735D01*
X034559Y017702D01*
X034645Y017665D01*
X034729Y017624D01*
X034811Y017579D01*
X034892Y017530D01*
X034969Y017478D01*
X035044Y017422D01*
X035116Y017362D01*
X035186Y017299D01*
X035252Y017233D01*
X035315Y017163D01*
X035375Y017091D01*
X035431Y017016D01*
X035483Y016939D01*
X035532Y016858D01*
X035577Y016776D01*
X035618Y016692D01*
X035655Y016606D01*
X035688Y016518D01*
X035716Y016429D01*
X035740Y016338D01*
X035760Y016247D01*
X035776Y016154D01*
X035787Y016061D01*
X035794Y015968D01*
X035796Y015874D01*
X035796Y006031D01*
X006268Y006031D01*
X006568Y006331D02*
X006568Y008000D01*
X007449Y008000D01*
X007572Y007990D01*
X007692Y007961D01*
X007807Y007914D01*
X007912Y007849D01*
X008006Y007769D01*
X008086Y007675D01*
X008151Y007570D01*
X008198Y007456D01*
X008227Y007335D01*
X008236Y007212D01*
X008236Y006331D01*
X006568Y006331D01*
X006568Y006425D02*
X006995Y006425D01*
X006888Y006470D02*
X007124Y006372D01*
X007380Y006372D01*
X007617Y006470D01*
X007798Y006651D01*
X007896Y006887D01*
X007896Y007143D01*
X007798Y007380D01*
X007617Y007561D01*
X007380Y007659D01*
X007124Y007659D01*
X006888Y007561D01*
X006707Y007380D01*
X006609Y007143D01*
X006609Y006887D01*
X006707Y006651D01*
X006888Y006470D01*
X006834Y006524D02*
X006568Y006524D01*
X006568Y006622D02*
X006735Y006622D01*
X006678Y006721D02*
X006568Y006721D01*
X006568Y006819D02*
X006637Y006819D01*
X006609Y006918D02*
X006568Y006918D01*
X006568Y007016D02*
X006609Y007016D01*
X006609Y007115D02*
X006568Y007115D01*
X006568Y007213D02*
X006637Y007213D01*
X006678Y007312D02*
X006568Y007312D01*
X006568Y007410D02*
X006737Y007410D01*
X006835Y007509D02*
X006568Y007509D01*
X006568Y007607D02*
X006999Y007607D01*
X006568Y007706D02*
X008060Y007706D01*
X008128Y007607D02*
X007506Y007607D01*
X007669Y007509D02*
X008176Y007509D01*
X008209Y007410D02*
X007768Y007410D01*
X007826Y007312D02*
X008229Y007312D01*
X008236Y007213D02*
X007867Y007213D01*
X007896Y007115D02*
X008236Y007115D01*
X008236Y007016D02*
X007896Y007016D01*
X007896Y006918D02*
X008236Y006918D01*
X008236Y006819D02*
X007868Y006819D01*
X007827Y006721D02*
X008236Y006721D01*
X008236Y006622D02*
X007769Y006622D01*
X007671Y006524D02*
X008236Y006524D01*
X008236Y006425D02*
X007509Y006425D01*
X008436Y006425D02*
X033627Y006425D01*
X033627Y006524D02*
X021975Y006524D01*
X021975Y006622D02*
X030380Y006622D01*
X030379Y006721D02*
X021975Y006721D01*
X021975Y006819D02*
X029155Y006819D01*
X029056Y006918D02*
X021975Y006918D01*
X022023Y007016D02*
X021915Y007016D01*
X021421Y007016D02*
X020615Y007016D01*
X020675Y007115D02*
X021360Y007115D01*
X021360Y007213D02*
X020675Y007213D01*
X020675Y007312D02*
X021360Y007312D01*
X021360Y007410D02*
X020675Y007410D01*
X020675Y007509D02*
X021360Y007509D01*
X021422Y007607D02*
X020614Y007607D01*
X020122Y007607D02*
X020052Y007607D01*
X019298Y007706D02*
X032638Y007706D01*
X032638Y007804D02*
X019298Y007804D01*
X018838Y007804D02*
X008242Y007804D01*
X008311Y007706D02*
X018838Y007706D01*
X018684Y007607D02*
X008362Y007607D01*
X008392Y007509D02*
X018667Y007509D01*
X018667Y007410D02*
X011942Y007410D01*
X011890Y007462D02*
X011520Y007462D01*
X011258Y007200D01*
X011258Y006830D01*
X011520Y006569D01*
X011890Y006569D01*
X012152Y006830D01*
X012152Y007200D01*
X011890Y007462D01*
X012041Y007312D02*
X016701Y007312D01*
X016602Y007213D02*
X012139Y007213D01*
X012152Y007115D02*
X016504Y007115D01*
X016480Y007016D02*
X012152Y007016D01*
X012152Y006918D02*
X016480Y006918D01*
X016480Y006819D02*
X012141Y006819D01*
X012042Y006721D02*
X016530Y006721D01*
X016629Y006622D02*
X011944Y006622D01*
X011466Y006622D02*
X010944Y006622D01*
X010890Y006569D02*
X011152Y006830D01*
X011152Y006967D01*
X010753Y006967D01*
X010753Y006569D01*
X010890Y006569D01*
X010753Y006622D02*
X010657Y006622D01*
X010657Y006569D02*
X010520Y006569D01*
X010258Y006830D01*
X010258Y006967D01*
X010657Y006967D01*
X010753Y006967D01*
X010753Y007064D01*
X010657Y007064D01*
X010657Y007462D01*
X010520Y007462D01*
X010258Y007200D01*
X010258Y007064D01*
X010657Y007064D01*
X010657Y006967D01*
X010657Y006569D01*
X010657Y006721D02*
X010753Y006721D01*
X010753Y006819D02*
X010657Y006819D01*
X010657Y006918D02*
X010753Y006918D01*
X010753Y007016D02*
X011258Y007016D01*
X011258Y006918D02*
X011152Y006918D01*
X011141Y006819D02*
X011269Y006819D01*
X011368Y006721D02*
X011042Y006721D01*
X011152Y007064D02*
X010753Y007064D01*
X010753Y007462D01*
X010890Y007462D01*
X011152Y007200D01*
X011152Y007064D01*
X011152Y007115D02*
X011258Y007115D01*
X011271Y007213D02*
X011139Y007213D01*
X011041Y007312D02*
X011369Y007312D01*
X011468Y007410D02*
X010942Y007410D01*
X010753Y007410D02*
X010657Y007410D01*
X010657Y007312D02*
X010753Y007312D01*
X010753Y007213D02*
X010657Y007213D01*
X010657Y007115D02*
X010753Y007115D01*
X010657Y007016D02*
X009753Y007016D01*
X009753Y007064D02*
X010152Y007064D01*
X010152Y007200D01*
X009890Y007462D01*
X009753Y007462D01*
X009753Y007064D01*
X009657Y007064D01*
X009657Y007462D01*
X009520Y007462D01*
X009258Y007200D01*
X009258Y007064D01*
X009657Y007064D01*
X009657Y006967D01*
X009753Y006967D01*
X009753Y006569D01*
X009890Y006569D01*
X010152Y006830D01*
X010152Y006967D01*
X009753Y006967D01*
X009753Y007064D01*
X009753Y007115D02*
X009657Y007115D01*
X009657Y007213D02*
X009753Y007213D01*
X009753Y007312D02*
X009657Y007312D01*
X009657Y007410D02*
X009753Y007410D01*
X009942Y007410D02*
X010468Y007410D01*
X010369Y007312D02*
X010041Y007312D01*
X010139Y007213D02*
X010271Y007213D01*
X010258Y007115D02*
X010152Y007115D01*
X010152Y006918D02*
X010258Y006918D01*
X010269Y006819D02*
X010141Y006819D01*
X010042Y006721D02*
X010368Y006721D01*
X010466Y006622D02*
X009944Y006622D01*
X009753Y006622D02*
X009657Y006622D01*
X009657Y006569D02*
X009657Y006967D01*
X009258Y006967D01*
X009258Y006830D01*
X009520Y006569D01*
X009657Y006569D01*
X009657Y006721D02*
X009753Y006721D01*
X009753Y006819D02*
X009657Y006819D01*
X009657Y006918D02*
X009753Y006918D01*
X009657Y007016D02*
X009152Y007016D01*
X009152Y006918D02*
X009258Y006918D01*
X009269Y006819D02*
X009152Y006819D01*
X009152Y006721D02*
X009368Y006721D01*
X009466Y006622D02*
X009118Y006622D01*
X009152Y007115D02*
X009258Y007115D01*
X009271Y007213D02*
X009152Y007213D01*
X009152Y007312D02*
X009369Y007312D01*
X009468Y007410D02*
X009116Y007410D01*
X008157Y007903D02*
X018838Y007903D01*
X018838Y008001D02*
X008047Y008001D01*
X007886Y008100D02*
X018838Y008100D01*
X018910Y008198D02*
X007562Y008198D01*
X007825Y007903D02*
X006568Y007903D01*
X006568Y007804D02*
X007965Y007804D01*
X006568Y008297D02*
X019008Y008297D01*
X018667Y007312D02*
X017035Y007312D01*
X017134Y007213D02*
X018667Y007213D01*
X018667Y007115D02*
X018610Y007115D01*
X018708Y007016D02*
X018723Y007016D01*
X018452Y006622D02*
X017107Y006622D01*
X018550Y006524D02*
X008436Y006524D01*
X014765Y008986D02*
X015404Y008986D01*
X015280Y009085D02*
X014889Y009085D01*
X014969Y009183D02*
X015200Y009183D01*
X015159Y009282D02*
X015010Y009282D01*
X015035Y009380D02*
X015135Y009380D01*
X015135Y009479D02*
X015035Y009479D01*
X015023Y009577D02*
X015146Y009577D01*
X015187Y009676D02*
X014982Y009676D01*
X014921Y009774D02*
X015248Y009774D01*
X019344Y007016D02*
X019392Y007016D01*
X020013Y007016D02*
X020121Y007016D01*
X021914Y007607D02*
X021984Y007607D01*
X022644Y007016D02*
X022692Y007016D01*
X023313Y007016D02*
X028958Y007016D01*
X028859Y007115D02*
X023369Y007115D01*
X023352Y007607D02*
X032638Y007607D01*
X032638Y007509D02*
X029116Y007509D01*
X029214Y007410D02*
X030381Y007410D01*
X030379Y007312D02*
X029313Y007312D01*
X031336Y007410D02*
X031574Y007410D01*
X031660Y007495D02*
X031379Y007214D01*
X031379Y007064D01*
X031810Y007064D01*
X031810Y007495D01*
X031660Y007495D01*
X031810Y007410D02*
X031907Y007410D01*
X031907Y007495D02*
X032057Y007495D01*
X032339Y007214D01*
X032339Y007064D01*
X031907Y007064D01*
X031810Y007064D01*
X031810Y006967D01*
X031379Y006967D01*
X031379Y006817D01*
X031660Y006535D01*
X031810Y006535D01*
X031810Y006967D01*
X031907Y006967D01*
X031907Y007064D01*
X031907Y007495D01*
X031907Y007312D02*
X031810Y007312D01*
X031810Y007213D02*
X031907Y007213D01*
X031907Y007115D02*
X031810Y007115D01*
X031810Y007016D02*
X031339Y007016D01*
X031339Y006918D02*
X031379Y006918D01*
X031379Y006819D02*
X031339Y006819D01*
X031339Y006721D02*
X031474Y006721D01*
X031573Y006622D02*
X031337Y006622D01*
X031810Y006622D02*
X031907Y006622D01*
X031907Y006535D02*
X032057Y006535D01*
X032339Y006817D01*
X032339Y006967D01*
X031907Y006967D01*
X031907Y006535D01*
X031907Y006721D02*
X031810Y006721D01*
X031810Y006819D02*
X031907Y006819D01*
X031907Y006918D02*
X031810Y006918D01*
X031907Y007016D02*
X032379Y007016D01*
X032379Y006918D02*
X032339Y006918D01*
X032339Y006819D02*
X032379Y006819D01*
X032474Y006721D02*
X032243Y006721D01*
X032144Y006622D02*
X032573Y006622D01*
X032379Y007115D02*
X032339Y007115D01*
X032339Y007213D02*
X032379Y007213D01*
X032476Y007312D02*
X032241Y007312D01*
X032143Y007410D02*
X032574Y007410D01*
X033098Y007509D02*
X033671Y007509D01*
X033701Y007607D02*
X033098Y007607D01*
X033143Y007410D02*
X033642Y007410D01*
X033625Y007312D02*
X033241Y007312D01*
X033339Y007213D02*
X033626Y007213D01*
X033627Y007115D02*
X033339Y007115D01*
X033339Y007016D02*
X033627Y007016D01*
X033627Y006918D02*
X033339Y006918D01*
X033339Y006819D02*
X033627Y006819D01*
X033627Y006721D02*
X033243Y006721D01*
X033144Y006622D02*
X033627Y006622D01*
X031476Y007312D02*
X031339Y007312D01*
X031339Y007213D02*
X031379Y007213D01*
X031379Y007115D02*
X031339Y007115D01*
X034155Y009479D02*
X035496Y009479D01*
X035496Y009577D02*
X034155Y009577D01*
X034155Y009676D02*
X035496Y009676D01*
X035496Y009774D02*
X034155Y009774D01*
X034074Y009873D02*
X035496Y009873D01*
X035496Y009971D02*
X033976Y009971D01*
X033337Y010365D02*
X035496Y010365D01*
X035496Y010267D02*
X033265Y010267D01*
X033337Y010464D02*
X035496Y010464D01*
X035496Y010562D02*
X033337Y010562D01*
X033337Y010661D02*
X035496Y010661D01*
X035496Y010759D02*
X033337Y010759D01*
X033337Y010858D02*
X035496Y010858D01*
X035496Y010956D02*
X033337Y010956D01*
X033337Y011055D02*
X035496Y011055D01*
X035496Y011153D02*
X033337Y011153D01*
X034363Y012138D02*
X035496Y012138D01*
X035496Y012040D02*
X035120Y012040D01*
X035169Y011941D02*
X035496Y011941D01*
X035496Y011843D02*
X035169Y011843D01*
X035169Y011646D02*
X035496Y011646D01*
X035496Y011744D02*
X034851Y011744D01*
X034851Y011646D02*
X034754Y011646D01*
X034754Y011547D02*
X034851Y011547D01*
X034851Y011449D02*
X034754Y011449D01*
X035143Y011449D02*
X035496Y011449D01*
X035496Y011547D02*
X035169Y011547D01*
X034851Y011843D02*
X034754Y011843D01*
X034754Y011941D02*
X034851Y011941D01*
X034851Y012040D02*
X034754Y012040D01*
X034486Y012040D02*
X034450Y012040D01*
X034363Y012237D02*
X035496Y012237D01*
X035496Y012335D02*
X035132Y012335D01*
X035169Y012434D02*
X035496Y012434D01*
X035496Y012532D02*
X035169Y012532D01*
X035169Y012729D02*
X035496Y012729D01*
X035496Y012631D02*
X034851Y012631D01*
X034851Y012729D02*
X034754Y012729D01*
X034754Y012828D02*
X034851Y012828D01*
X034851Y012926D02*
X034754Y012926D01*
X034472Y012926D02*
X034464Y012926D01*
X034754Y012532D02*
X034851Y012532D01*
X034851Y012434D02*
X034754Y012434D01*
X034754Y012335D02*
X034851Y012335D01*
X034473Y012335D02*
X034463Y012335D01*
X035169Y012828D02*
X035496Y012828D01*
X035496Y012926D02*
X035133Y012926D01*
X035496Y013025D02*
X033798Y013025D01*
X033798Y013123D02*
X035496Y013123D01*
X035496Y013222D02*
X033798Y013222D01*
X033798Y013320D02*
X035496Y013320D01*
X035496Y013419D02*
X033798Y013419D01*
X033798Y013517D02*
X035496Y013517D01*
X034638Y014699D02*
X034188Y014699D01*
X034188Y014798D02*
X034397Y014798D01*
X034236Y014896D02*
X034162Y014896D01*
X033015Y016374D02*
X009053Y016374D01*
X009108Y016472D02*
X032980Y016472D01*
X032945Y016571D02*
X009149Y016571D01*
X009190Y016669D02*
X032924Y016669D01*
X032902Y016768D02*
X009235Y016768D01*
X009271Y016866D02*
X032876Y016866D01*
X032859Y016965D02*
X009291Y016965D01*
X009320Y017063D02*
X032857Y017063D01*
X032847Y017162D02*
X009348Y017162D01*
X009362Y017260D02*
X032838Y017260D01*
X032840Y017359D02*
X009379Y017359D01*
X009399Y017457D02*
X032840Y017457D01*
X033827Y017842D02*
X008236Y017842D01*
X008236Y017843D02*
X008142Y017841D01*
X008049Y017834D01*
X007956Y017823D01*
X007863Y017807D01*
X007772Y017787D01*
X007681Y017763D01*
X007592Y017735D01*
X007504Y017702D01*
X007418Y017665D01*
X007334Y017624D01*
X007251Y017579D01*
X007171Y017530D01*
X007094Y017478D01*
X007019Y017422D01*
X006947Y017362D01*
X006877Y017299D01*
X006811Y017233D01*
X006748Y017163D01*
X006688Y017091D01*
X006632Y017016D01*
X006580Y016939D01*
X006531Y016859D01*
X006486Y016776D01*
X006445Y016692D01*
X006408Y016606D01*
X006375Y016518D01*
X006347Y016429D01*
X006323Y016338D01*
X006303Y016247D01*
X006287Y016154D01*
X006276Y016061D01*
X006269Y015968D01*
X006267Y015874D01*
D11*
X007055Y016464D02*
X007057Y016503D01*
X007063Y016542D01*
X007073Y016580D01*
X007086Y016617D01*
X007103Y016652D01*
X007123Y016686D01*
X007147Y016717D01*
X007174Y016746D01*
X007203Y016772D01*
X007235Y016795D01*
X007269Y016815D01*
X007305Y016831D01*
X007342Y016843D01*
X007381Y016852D01*
X007420Y016857D01*
X007459Y016858D01*
X007498Y016855D01*
X007537Y016848D01*
X007574Y016837D01*
X007611Y016823D01*
X007646Y016805D01*
X007679Y016784D01*
X007710Y016759D01*
X007738Y016732D01*
X007763Y016702D01*
X007785Y016669D01*
X007804Y016635D01*
X007819Y016599D01*
X007831Y016561D01*
X007839Y016523D01*
X007843Y016484D01*
X007843Y016444D01*
X007839Y016405D01*
X007831Y016367D01*
X007819Y016329D01*
X007804Y016293D01*
X007785Y016259D01*
X007763Y016226D01*
X007738Y016196D01*
X007710Y016169D01*
X007679Y016144D01*
X007646Y016123D01*
X007611Y016105D01*
X007574Y016091D01*
X007537Y016080D01*
X007498Y016073D01*
X007459Y016070D01*
X007420Y016071D01*
X007381Y016076D01*
X007342Y016085D01*
X007305Y016097D01*
X007269Y016113D01*
X007235Y016133D01*
X007203Y016156D01*
X007174Y016182D01*
X007147Y016211D01*
X007123Y016242D01*
X007103Y016276D01*
X007086Y016311D01*
X007073Y016348D01*
X007063Y016386D01*
X007057Y016425D01*
X007055Y016464D01*
X006858Y007015D02*
X006860Y007054D01*
X006866Y007093D01*
X006876Y007131D01*
X006889Y007168D01*
X006906Y007203D01*
X006926Y007237D01*
X006950Y007268D01*
X006977Y007297D01*
X007006Y007323D01*
X007038Y007346D01*
X007072Y007366D01*
X007108Y007382D01*
X007145Y007394D01*
X007184Y007403D01*
X007223Y007408D01*
X007262Y007409D01*
X007301Y007406D01*
X007340Y007399D01*
X007377Y007388D01*
X007414Y007374D01*
X007449Y007356D01*
X007482Y007335D01*
X007513Y007310D01*
X007541Y007283D01*
X007566Y007253D01*
X007588Y007220D01*
X007607Y007186D01*
X007622Y007150D01*
X007634Y007112D01*
X007642Y007074D01*
X007646Y007035D01*
X007646Y006995D01*
X007642Y006956D01*
X007634Y006918D01*
X007622Y006880D01*
X007607Y006844D01*
X007588Y006810D01*
X007566Y006777D01*
X007541Y006747D01*
X007513Y006720D01*
X007482Y006695D01*
X007449Y006674D01*
X007414Y006656D01*
X007377Y006642D01*
X007340Y006631D01*
X007301Y006624D01*
X007262Y006621D01*
X007223Y006622D01*
X007184Y006627D01*
X007145Y006636D01*
X007108Y006648D01*
X007072Y006664D01*
X007038Y006684D01*
X007006Y006707D01*
X006977Y006733D01*
X006950Y006762D01*
X006926Y006793D01*
X006906Y006827D01*
X006889Y006862D01*
X006876Y006899D01*
X006866Y006937D01*
X006860Y006976D01*
X006858Y007015D01*
X034220Y016464D02*
X034222Y016503D01*
X034228Y016542D01*
X034238Y016580D01*
X034251Y016617D01*
X034268Y016652D01*
X034288Y016686D01*
X034312Y016717D01*
X034339Y016746D01*
X034368Y016772D01*
X034400Y016795D01*
X034434Y016815D01*
X034470Y016831D01*
X034507Y016843D01*
X034546Y016852D01*
X034585Y016857D01*
X034624Y016858D01*
X034663Y016855D01*
X034702Y016848D01*
X034739Y016837D01*
X034776Y016823D01*
X034811Y016805D01*
X034844Y016784D01*
X034875Y016759D01*
X034903Y016732D01*
X034928Y016702D01*
X034950Y016669D01*
X034969Y016635D01*
X034984Y016599D01*
X034996Y016561D01*
X035004Y016523D01*
X035008Y016484D01*
X035008Y016444D01*
X035004Y016405D01*
X034996Y016367D01*
X034984Y016329D01*
X034969Y016293D01*
X034950Y016259D01*
X034928Y016226D01*
X034903Y016196D01*
X034875Y016169D01*
X034844Y016144D01*
X034811Y016123D01*
X034776Y016105D01*
X034739Y016091D01*
X034702Y016080D01*
X034663Y016073D01*
X034624Y016070D01*
X034585Y016071D01*
X034546Y016076D01*
X034507Y016085D01*
X034470Y016097D01*
X034434Y016113D01*
X034400Y016133D01*
X034368Y016156D01*
X034339Y016182D01*
X034312Y016211D01*
X034288Y016242D01*
X034268Y016276D01*
X034251Y016311D01*
X034238Y016348D01*
X034228Y016386D01*
X034222Y016425D01*
X034220Y016464D01*
X034417Y007015D02*
X034419Y007054D01*
X034425Y007093D01*
X034435Y007131D01*
X034448Y007168D01*
X034465Y007203D01*
X034485Y007237D01*
X034509Y007268D01*
X034536Y007297D01*
X034565Y007323D01*
X034597Y007346D01*
X034631Y007366D01*
X034667Y007382D01*
X034704Y007394D01*
X034743Y007403D01*
X034782Y007408D01*
X034821Y007409D01*
X034860Y007406D01*
X034899Y007399D01*
X034936Y007388D01*
X034973Y007374D01*
X035008Y007356D01*
X035041Y007335D01*
X035072Y007310D01*
X035100Y007283D01*
X035125Y007253D01*
X035147Y007220D01*
X035166Y007186D01*
X035181Y007150D01*
X035193Y007112D01*
X035201Y007074D01*
X035205Y007035D01*
X035205Y006995D01*
X035201Y006956D01*
X035193Y006918D01*
X035181Y006880D01*
X035166Y006844D01*
X035147Y006810D01*
X035125Y006777D01*
X035100Y006747D01*
X035072Y006720D01*
X035041Y006695D01*
X035008Y006674D01*
X034973Y006656D01*
X034936Y006642D01*
X034899Y006631D01*
X034860Y006624D01*
X034821Y006621D01*
X034782Y006622D01*
X034743Y006627D01*
X034704Y006636D01*
X034667Y006648D01*
X034631Y006664D01*
X034597Y006684D01*
X034565Y006707D01*
X034536Y006733D01*
X034509Y006762D01*
X034485Y006793D01*
X034465Y006827D01*
X034448Y006862D01*
X034435Y006899D01*
X034425Y006937D01*
X034419Y006976D01*
X034417Y007015D01*
D12*
X032843Y010756D03*
X032843Y013118D03*
X026937Y013118D03*
X026937Y010756D03*
X023000Y010756D03*
X023000Y013118D03*
X019063Y013118D03*
X019063Y010756D03*
X015126Y010756D03*
X015126Y013118D03*
X009221Y013118D03*
X009221Y010756D03*
D13*
X014515Y009445D03*
X015655Y009445D03*
X020668Y008831D03*
X028668Y008931D03*
X028668Y014731D03*
X033668Y014731D03*
X021168Y014931D03*
X015621Y014488D03*
X014481Y014488D03*
X014515Y015816D03*
X015655Y015816D03*
D14*
X021968Y013366D03*
X021968Y012696D03*
D15*
X024433Y011231D03*
X025103Y011231D03*
X029133Y011931D03*
X029803Y011931D03*
X034133Y011731D03*
X034803Y011731D03*
X034803Y012631D03*
X034133Y012631D03*
X023003Y007331D03*
X022333Y007331D03*
X019703Y007331D03*
X019033Y007331D03*
D16*
X030859Y007015D03*
D17*
X031859Y007015D03*
X032859Y007015D03*
D18*
X008705Y007015D03*
D19*
X009705Y007015D03*
X010705Y007015D03*
X011705Y007015D03*
D20*
X020368Y006736D03*
X020368Y007326D03*
X021668Y007326D03*
X021668Y006736D03*
D21*
X024206Y013131D03*
X024530Y013131D03*
X028206Y013131D03*
X028530Y013131D03*
X017830Y013131D03*
X017506Y013131D03*
X013930Y013131D03*
X013606Y013131D03*
D22*
X011768Y012631D03*
X008468Y012331D03*
X008468Y011631D03*
X007568Y008531D03*
X011968Y008331D03*
X013568Y006831D03*
X015368Y006831D03*
X016868Y006931D03*
X017868Y009331D03*
X019668Y009331D03*
X022568Y009831D03*
X024068Y010031D03*
X026468Y009731D03*
X023068Y011831D03*
X022668Y012431D03*
X021168Y012531D03*
X018968Y012331D03*
X018868Y011431D03*
X022968Y014131D03*
X025968Y014131D03*
X027468Y014131D03*
X029968Y013831D03*
X030468Y014531D03*
X033568Y012631D03*
X034768Y013331D03*
X033268Y011431D03*
X034768Y011031D03*
X033768Y009631D03*
X034268Y008931D03*
X032568Y009631D03*
X031968Y008831D03*
X030468Y009931D03*
X028568Y011931D03*
X024368Y011931D03*
X020368Y015631D03*
X021268Y017131D03*
X024468Y017131D03*
X027568Y017131D03*
X031068Y017131D03*
X018168Y017131D03*
X016868Y015531D03*
X015168Y017131D03*
X008868Y015731D03*
X023968Y006831D03*
X025968Y006831D03*
X027968Y006831D03*
D23*
X028933Y007366D02*
X023037Y007366D01*
X023003Y007331D01*
X022333Y007331D02*
X022329Y007326D01*
X021668Y007326D01*
X021668Y006736D02*
X020368Y006736D01*
X018663Y006736D01*
X018468Y006931D01*
X016868Y006931D01*
X019033Y007331D02*
X019068Y007366D01*
X019068Y008031D01*
X019168Y008131D01*
X032668Y008131D01*
X032868Y007931D01*
X032868Y007025D01*
X032859Y007015D01*
X030859Y007015D02*
X030843Y007031D01*
X029268Y007031D01*
X028933Y007366D01*
X031968Y008831D02*
X032068Y008931D01*
X034268Y008931D01*
X033768Y009631D02*
X032568Y009631D01*
X032843Y010756D02*
X026937Y010756D01*
X024368Y010756D01*
X024368Y011296D01*
X024433Y011231D01*
X024368Y011296D02*
X024368Y011931D01*
X023068Y011831D02*
X023068Y013231D01*
X022968Y013312D01*
X023068Y013312D01*
X023036Y013344D01*
X023000Y013118D01*
X023000Y013131D01*
X024206Y013131D01*
X024530Y013131D02*
X026937Y013131D01*
X026937Y013118D01*
X026924Y013331D01*
X026937Y013131D02*
X028206Y013131D01*
X028530Y013131D02*
X032843Y013131D01*
X032843Y013118D01*
X032830Y013331D01*
X033568Y013831D02*
X033568Y012731D01*
X033768Y012631D01*
X034133Y012631D01*
X034133Y011731D01*
X033768Y012631D02*
X033568Y012631D01*
X033568Y013831D02*
X032868Y014531D01*
X030468Y014531D01*
X029133Y011931D02*
X028568Y011931D01*
X024368Y010756D02*
X023000Y010756D01*
X019063Y010756D01*
X015668Y010756D01*
X015668Y009445D01*
X015655Y009445D01*
X015668Y010756D02*
X015126Y010756D01*
X009221Y010756D01*
X009221Y013118D02*
X009221Y013131D01*
X013606Y013131D01*
X013930Y013131D02*
X015126Y013131D01*
X015126Y013118D01*
X015113Y013331D01*
X015139Y013331D02*
X015126Y013118D01*
X015126Y013131D02*
X017506Y013131D01*
X017830Y013131D02*
X019063Y013131D01*
X019063Y013118D01*
X019068Y013339D01*
X019068Y012431D01*
X018968Y012331D01*
X019063Y013118D02*
X019050Y013331D01*
X020268Y013531D02*
X020468Y013331D01*
X021468Y013331D01*
X021568Y013231D01*
X021568Y012831D01*
X021668Y012731D01*
X022033Y012731D01*
X021968Y012696D01*
X022503Y012696D01*
X022503Y012596D01*
X022668Y012431D01*
X023068Y011831D02*
X021268Y011831D01*
X020868Y011431D01*
X018868Y011431D01*
X020268Y013531D02*
X020268Y015331D01*
X020118Y015481D01*
X020268Y015631D01*
X020368Y015631D01*
X020118Y015481D02*
X020068Y015531D01*
X016868Y015531D01*
X019703Y007331D02*
X020363Y007331D01*
X020368Y007326D01*
M02*
