G75*
G70*
%OFA0B0*%
%FSLAX24Y24*%
%IPPOS*%
%LPD*%
%AMOC8*
5,1,8,0,0,1.08239X$1,22.5*
%
%ADD10C,0.0867*%
%ADD11R,0.0513X0.0237*%
%ADD12R,0.0880X0.0340*%
%ADD13R,0.0513X0.0474*%
%ADD14R,0.1064X0.0749*%
%ADD15R,0.0474X0.0513*%
%ADD16R,0.0330X0.0580*%
%ADD17C,0.0820*%
%ADD18R,0.0580X0.0330*%
%ADD19R,0.0434X0.0434*%
%ADD20R,0.0356X0.0316*%
%ADD21R,0.0740X0.0740*%
%ADD22OC8,0.0740*%
%ADD23R,0.0674X0.0674*%
%ADD24OC8,0.0674*%
%ADD25R,0.0395X0.0395*%
%ADD26OC8,0.0555*%
D10*
X007252Y007015D03*
X007449Y016464D03*
X034614Y016464D03*
X034811Y007015D03*
D11*
X022054Y011547D03*
X022054Y011803D03*
X022054Y012059D03*
X022054Y012315D03*
X020282Y012315D03*
X020282Y012059D03*
X020282Y011803D03*
X020282Y011547D03*
X011654Y011415D03*
X011654Y011159D03*
X011654Y010903D03*
X011654Y010647D03*
X009882Y010647D03*
X009882Y010903D03*
X009882Y011159D03*
X009882Y011415D03*
X009882Y015647D03*
X009882Y015903D03*
X009882Y016159D03*
X009882Y016415D03*
X011654Y016415D03*
X011654Y016159D03*
X011654Y015903D03*
X011654Y015647D03*
D12*
X025163Y013431D03*
X025163Y012931D03*
X025163Y012431D03*
X025163Y011931D03*
X025163Y011431D03*
X025163Y010931D03*
X025163Y010431D03*
X027773Y010431D03*
X027773Y010931D03*
X027773Y011431D03*
X027773Y011931D03*
X027773Y012431D03*
X027773Y012931D03*
X027773Y013431D03*
D13*
X030633Y013531D03*
X031303Y013531D03*
X033299Y013863D03*
X033968Y013863D03*
X032003Y015031D03*
X031333Y015031D03*
X031233Y010431D03*
X031903Y010431D03*
X031903Y009531D03*
X031233Y009531D03*
X030603Y008231D03*
X029933Y008231D03*
X033033Y008231D03*
X033703Y008231D03*
X022237Y008037D03*
X021568Y008037D03*
X021003Y009931D03*
X020333Y009931D03*
X020333Y010831D03*
X021003Y010831D03*
X018251Y011474D03*
X017582Y011474D03*
X020833Y013131D03*
X021503Y013131D03*
X021503Y013831D03*
X020833Y013831D03*
X020168Y014944D03*
X019499Y014944D03*
X013353Y014281D03*
X012683Y014281D03*
X011103Y014181D03*
X010433Y014181D03*
X010433Y015031D03*
X011103Y015031D03*
X011103Y013331D03*
X010433Y013331D03*
X010433Y012031D03*
X011103Y012031D03*
X011103Y010031D03*
X010433Y010031D03*
X010433Y009181D03*
X011103Y009181D03*
X012633Y009331D03*
X013303Y009331D03*
X011103Y008331D03*
X010433Y008331D03*
X010433Y017031D03*
X011103Y017031D03*
D14*
X013018Y017029D03*
X013018Y015533D03*
X008518Y014779D03*
X008518Y013283D03*
X008518Y010779D03*
X008518Y009283D03*
X013018Y010533D03*
X013018Y012029D03*
D15*
X019568Y012696D03*
X019568Y013366D03*
X022268Y013196D03*
X022268Y013866D03*
X022606Y011315D03*
X022606Y010645D03*
X021868Y010766D03*
X021868Y010096D03*
X019568Y009996D03*
X019568Y010666D03*
X029868Y007466D03*
X029868Y006796D03*
X033768Y006796D03*
X033768Y007466D03*
X032168Y013396D03*
X032168Y014066D03*
X030468Y015596D03*
X030468Y016266D03*
D16*
X029330Y012931D03*
X029006Y012931D03*
X029006Y010931D03*
X029330Y010931D03*
X022430Y014931D03*
X022106Y014931D03*
X018156Y012110D03*
X017832Y012110D03*
X018738Y010452D03*
X019062Y010452D03*
X021706Y008831D03*
X022030Y008831D03*
D17*
X020668Y008831D03*
X015655Y009445D03*
X014515Y009445D03*
X014481Y014488D03*
X015621Y014488D03*
X015655Y015816D03*
X014515Y015816D03*
X021168Y014931D03*
X028668Y014731D03*
X033668Y014731D03*
X028668Y008931D03*
D18*
X030668Y011181D03*
X030668Y011681D03*
X030668Y012181D03*
X030668Y012681D03*
X032668Y012681D03*
X032668Y012181D03*
X032668Y011681D03*
X032668Y011181D03*
D19*
X032140Y016031D03*
X017596Y013031D03*
X017396Y010631D03*
D20*
X018340Y010375D03*
X018340Y010887D03*
X018540Y012775D03*
X018540Y013287D03*
X031196Y015775D03*
X031196Y016287D03*
D21*
X030859Y007015D03*
D22*
X031859Y007015D03*
X032859Y007015D03*
D23*
X008705Y007015D03*
D24*
X009705Y007015D03*
X010705Y007015D03*
X011705Y007015D03*
D25*
X012018Y008986D03*
X012018Y009576D03*
X012018Y013986D03*
X012018Y014576D03*
D26*
X011768Y012631D03*
X008468Y012331D03*
X008468Y011631D03*
X007568Y008531D03*
X011968Y008331D03*
X013568Y006831D03*
X015368Y006831D03*
X016868Y006931D03*
X017868Y009331D03*
X019668Y009331D03*
X022568Y009831D03*
X024068Y010031D03*
X026468Y009731D03*
X023068Y011831D03*
X022668Y012431D03*
X021168Y012531D03*
X018968Y012331D03*
X018868Y011431D03*
X022968Y014131D03*
X025968Y014131D03*
X027468Y014131D03*
X029968Y013831D03*
X030468Y014531D03*
X033568Y012631D03*
X034768Y013331D03*
X033268Y011431D03*
X034768Y011031D03*
X033768Y009631D03*
X034268Y008931D03*
X032568Y009631D03*
X031968Y008831D03*
X030468Y009931D03*
X028568Y011931D03*
X024368Y011931D03*
X020368Y015631D03*
X021268Y017131D03*
X024468Y017131D03*
X027568Y017131D03*
X031068Y017131D03*
X018168Y017131D03*
X016868Y015531D03*
X015168Y017131D03*
X008868Y015731D03*
X023968Y006831D03*
X025968Y006831D03*
X027968Y006831D03*
M02*
