G75*
G70*
%OFA0B0*%
%FSLAX24Y24*%
%IPPOS*%
%LPD*%
%AMOC8*
5,1,8,0,0,1.08239X$1,22.5*
%
%ADD10C,0.0120*%
%ADD11C,0.0030*%
%ADD12C,0.0050*%
%ADD13C,0.0220*%
%ADD14C,0.0080*%
%ADD15R,0.0180X0.0300*%
%ADD16C,0.0060*%
D10*
X021032Y009968D02*
X021032Y010384D01*
X021032Y010777D02*
X021032Y011193D01*
X021032Y011587D02*
X021032Y012002D01*
X021032Y012396D02*
X021032Y012812D01*
X021032Y013205D02*
X021032Y013621D01*
X021032Y014014D02*
X021032Y014430D01*
X021032Y014824D02*
X021032Y015239D01*
X021032Y015633D02*
X021032Y016049D01*
X021032Y016442D02*
X021032Y016858D01*
X023000Y015874D02*
X023000Y015578D01*
X023000Y015185D02*
X023000Y014889D01*
X026937Y015086D02*
X026937Y014693D01*
X026937Y014299D02*
X026937Y013905D01*
X026937Y015480D02*
X026937Y015874D01*
X032843Y015874D02*
X032843Y015480D01*
X032843Y015086D02*
X032843Y014693D01*
X032843Y014299D02*
X032843Y013905D01*
X019063Y013905D02*
X019063Y014299D01*
X019063Y014693D02*
X019063Y015086D01*
X019063Y015480D02*
X019063Y015874D01*
X015126Y015874D02*
X015126Y015480D01*
X015126Y015086D02*
X015126Y014693D01*
X015126Y014299D02*
X015126Y013905D01*
X009221Y013905D02*
X009221Y014299D01*
X009221Y014693D02*
X009221Y015086D01*
X009221Y015480D02*
X009221Y015874D01*
D11*
X007730Y010565D02*
X007536Y010565D01*
X007633Y010565D02*
X007633Y010855D01*
X007730Y010758D01*
X007831Y010758D02*
X007831Y010565D01*
X007831Y010710D02*
X008024Y010710D01*
X008024Y010758D02*
X007928Y010855D01*
X007831Y010758D01*
X008024Y010758D02*
X008024Y010565D01*
X008125Y010565D02*
X008125Y010855D01*
X008125Y010710D02*
X008319Y010710D01*
X008420Y010710D02*
X008468Y010662D01*
X008614Y010662D01*
X008614Y010565D02*
X008614Y010855D01*
X008468Y010855D01*
X008420Y010807D01*
X008420Y010710D01*
X008319Y010565D02*
X008319Y010855D01*
X013436Y010812D02*
X013485Y010861D01*
X013581Y010861D01*
X013630Y010812D01*
X013731Y010764D02*
X013731Y010571D01*
X013630Y010571D02*
X013436Y010764D01*
X013436Y010812D01*
X013436Y010571D02*
X013630Y010571D01*
X013731Y010716D02*
X013924Y010716D01*
X013924Y010764D02*
X013828Y010861D01*
X013731Y010764D01*
X013924Y010764D02*
X013924Y010571D01*
X014025Y010571D02*
X014025Y010861D01*
X014025Y010716D02*
X014219Y010716D01*
X014320Y010716D02*
X014368Y010667D01*
X014514Y010667D01*
X014514Y010571D02*
X014514Y010861D01*
X014368Y010861D01*
X014320Y010812D01*
X014320Y010716D01*
X014219Y010571D02*
X014219Y010861D01*
X017436Y010749D02*
X017436Y010701D01*
X017485Y010653D01*
X017436Y010604D01*
X017436Y010556D01*
X017485Y010508D01*
X017581Y010508D01*
X017630Y010556D01*
X017731Y010508D02*
X017731Y010701D01*
X017828Y010798D01*
X017924Y010701D01*
X017924Y010508D01*
X018025Y010508D02*
X018025Y010798D01*
X018025Y010653D02*
X018219Y010653D01*
X018320Y010653D02*
X018368Y010604D01*
X018514Y010604D01*
X018514Y010508D02*
X018514Y010798D01*
X018368Y010798D01*
X018320Y010749D01*
X018320Y010653D01*
X018219Y010508D02*
X018219Y010798D01*
X017924Y010653D02*
X017731Y010653D01*
X017630Y010749D02*
X017581Y010798D01*
X017485Y010798D01*
X017436Y010749D01*
X017485Y010653D02*
X017533Y010653D01*
X021336Y010545D02*
X021530Y010545D01*
X021433Y010545D02*
X021433Y010835D01*
X021530Y010738D01*
X021631Y010738D02*
X021679Y010690D01*
X021824Y010690D01*
X021925Y010690D02*
X022119Y010690D01*
X022220Y010690D02*
X022268Y010641D01*
X022414Y010641D01*
X022414Y010545D02*
X022414Y010835D01*
X022268Y010835D01*
X022220Y010786D01*
X022220Y010690D01*
X022119Y010545D02*
X022119Y010835D01*
X021925Y010835D02*
X021925Y010545D01*
X021824Y010545D02*
X021679Y010545D01*
X021631Y010593D01*
X021631Y010641D01*
X021679Y010690D01*
X021631Y010738D02*
X021631Y010786D01*
X021679Y010835D01*
X021824Y010835D01*
X021824Y010545D01*
X025183Y011644D02*
X025231Y011596D01*
X025425Y011596D01*
X025473Y011644D01*
X025473Y011741D01*
X025425Y011790D01*
X025473Y011891D02*
X025183Y011891D01*
X025183Y012036D01*
X025231Y012084D01*
X025280Y012084D01*
X025328Y012036D01*
X025328Y011891D01*
X025231Y011790D02*
X025183Y011741D01*
X025183Y011644D01*
X025473Y011891D02*
X025473Y012036D01*
X025425Y012084D01*
X025376Y012084D01*
X025328Y012036D01*
X025425Y012185D02*
X025328Y012282D01*
X025183Y012282D01*
X025328Y012282D02*
X025425Y012379D01*
X025473Y012379D01*
X025473Y012480D02*
X025183Y012480D01*
X025280Y012480D02*
X025280Y012625D01*
X025328Y012674D01*
X025425Y012674D01*
X025473Y012625D01*
X025473Y012480D01*
X025473Y012185D02*
X025425Y012185D01*
X025135Y012775D02*
X025135Y012968D01*
X025231Y013069D02*
X025183Y013118D01*
X025183Y013214D01*
X025231Y013263D01*
X025473Y013263D01*
X025328Y013364D02*
X025328Y013558D01*
X025328Y013659D02*
X025328Y013852D01*
X025183Y013509D02*
X025473Y013509D01*
X025328Y013364D01*
X025231Y013069D02*
X025473Y013069D01*
X022103Y013794D02*
X022055Y013746D01*
X021958Y013746D01*
X021909Y013794D01*
X021808Y013746D02*
X021663Y013746D01*
X021615Y013794D01*
X021615Y013843D01*
X021663Y013891D01*
X021808Y013891D01*
X021909Y013988D02*
X021958Y014036D01*
X022055Y014036D01*
X022103Y013988D01*
X022103Y013794D01*
X021808Y013746D02*
X021808Y014036D01*
X021663Y014036D01*
X021615Y013988D01*
X021615Y013940D01*
X021663Y013891D01*
X021514Y013988D02*
X021417Y013891D01*
X021417Y013746D01*
X021417Y013891D02*
X021320Y013988D01*
X021320Y014036D01*
X021219Y014036D02*
X021219Y013746D01*
X021219Y013843D02*
X021074Y013843D01*
X021026Y013891D01*
X021026Y013988D01*
X021074Y014036D01*
X021219Y014036D01*
X021514Y014036D02*
X021514Y013988D01*
X020924Y013698D02*
X020731Y013698D01*
X020630Y013794D02*
X020581Y013746D01*
X020485Y013746D01*
X020436Y013794D01*
X020436Y014036D01*
X020335Y013988D02*
X020287Y014036D01*
X020190Y014036D01*
X020142Y013988D01*
X020142Y013940D01*
X020190Y013891D01*
X020142Y013843D01*
X020142Y013794D01*
X020190Y013746D01*
X020287Y013746D01*
X020335Y013794D01*
X020238Y013891D02*
X020190Y013891D01*
X020630Y013794D02*
X020630Y014036D01*
X022006Y015889D02*
X022006Y016034D01*
X022054Y016082D01*
X022102Y016034D01*
X022102Y015889D01*
X022199Y015889D02*
X022199Y016082D01*
X022151Y016082D01*
X022102Y016034D01*
X022300Y016034D02*
X022300Y015889D01*
X022397Y015889D02*
X022397Y016034D01*
X022349Y016082D01*
X022300Y016034D01*
X022397Y016034D02*
X022445Y016082D01*
X022494Y016082D01*
X022494Y015889D01*
X022595Y015937D02*
X022643Y015889D01*
X022740Y015889D01*
X022788Y015937D01*
X022788Y016034D02*
X022692Y016082D01*
X022643Y016082D01*
X022595Y016034D01*
X022595Y015937D01*
X022788Y016034D02*
X022788Y016179D01*
X022595Y016179D01*
X025648Y016034D02*
X025648Y015889D01*
X025745Y015889D02*
X025745Y016034D01*
X025696Y016082D01*
X025648Y016034D01*
X025745Y016034D02*
X025793Y016082D01*
X025841Y016082D01*
X025841Y015889D01*
X025943Y015889D02*
X025943Y016034D01*
X025991Y016082D01*
X026039Y016034D01*
X026039Y015889D01*
X026136Y015889D02*
X026136Y016082D01*
X026088Y016082D01*
X026039Y016034D01*
X026237Y016034D02*
X026237Y015937D01*
X026286Y015889D01*
X026382Y015889D01*
X026431Y015937D01*
X026431Y016034D02*
X026334Y016082D01*
X026286Y016082D01*
X026237Y016034D01*
X026237Y016179D02*
X026431Y016179D01*
X026431Y016034D01*
X026532Y015889D02*
X026725Y015889D01*
X026629Y015889D02*
X026629Y016179D01*
X026725Y016082D01*
X031553Y016034D02*
X031553Y015889D01*
X031650Y015889D02*
X031650Y016034D01*
X031602Y016082D01*
X031553Y016034D01*
X031650Y016034D02*
X031699Y016082D01*
X031747Y016082D01*
X031747Y015889D01*
X031848Y015889D02*
X031848Y016034D01*
X031897Y016082D01*
X031945Y016034D01*
X031945Y015889D01*
X032042Y015889D02*
X032042Y016082D01*
X031993Y016082D01*
X031945Y016034D01*
X032143Y016130D02*
X032336Y015937D01*
X032288Y015889D01*
X032191Y015889D01*
X032143Y015937D01*
X032143Y016130D01*
X032191Y016179D01*
X032288Y016179D01*
X032336Y016130D01*
X032336Y015937D01*
X032437Y015937D02*
X032486Y015889D01*
X032583Y015889D01*
X032631Y015937D01*
X032534Y016034D02*
X032486Y016034D01*
X032437Y015985D01*
X032437Y015937D01*
X032486Y016034D02*
X032437Y016082D01*
X032437Y016130D01*
X032486Y016179D01*
X032583Y016179D01*
X032631Y016130D01*
X035183Y015047D02*
X035183Y014853D01*
X035183Y014950D02*
X035473Y014950D01*
X035376Y014853D01*
X035328Y014752D02*
X035328Y014559D01*
X035328Y014458D02*
X035231Y014458D01*
X035183Y014409D01*
X035183Y014312D01*
X035231Y014264D01*
X035328Y014264D02*
X035376Y014361D01*
X035376Y014409D01*
X035328Y014458D01*
X035473Y014458D02*
X035473Y014264D01*
X035328Y014264D01*
X035231Y014163D02*
X035473Y014163D01*
X035473Y013969D02*
X035231Y013969D01*
X035183Y014018D01*
X035183Y014114D01*
X035231Y014163D01*
X035135Y013868D02*
X035135Y013675D01*
X035280Y013525D02*
X035280Y013380D01*
X035183Y013380D02*
X035473Y013380D01*
X035473Y013525D01*
X035425Y013574D01*
X035328Y013574D01*
X035280Y013525D01*
X035425Y013279D02*
X035473Y013279D01*
X035425Y013279D02*
X035328Y013182D01*
X035183Y013182D01*
X035328Y013182D02*
X035425Y013085D01*
X035473Y013085D01*
X035425Y012984D02*
X035376Y012984D01*
X035328Y012936D01*
X035328Y012791D01*
X035231Y012690D02*
X035183Y012641D01*
X035183Y012544D01*
X035231Y012496D01*
X035425Y012496D01*
X035473Y012544D01*
X035473Y012641D01*
X035425Y012690D01*
X035473Y012791D02*
X035473Y012936D01*
X035425Y012984D01*
X035328Y012936D02*
X035280Y012984D01*
X035231Y012984D01*
X035183Y012936D01*
X035183Y012791D01*
X035473Y012791D01*
X035405Y011795D02*
X035453Y011747D01*
X035453Y011650D01*
X035405Y011601D01*
X035308Y011500D02*
X035308Y011307D01*
X035308Y011206D02*
X035211Y011206D01*
X035163Y011157D01*
X035163Y011061D01*
X035211Y011012D01*
X035308Y011012D02*
X035356Y011109D01*
X035356Y011157D01*
X035308Y011206D01*
X035453Y011206D02*
X035453Y011012D01*
X035308Y011012D01*
X035211Y010911D02*
X035453Y010911D01*
X035453Y010717D02*
X035211Y010717D01*
X035163Y010766D01*
X035163Y010863D01*
X035211Y010911D01*
X035115Y010616D02*
X035115Y010423D01*
X035260Y010273D02*
X035260Y010128D01*
X035163Y010128D02*
X035453Y010128D01*
X035453Y010273D01*
X035405Y010322D01*
X035308Y010322D01*
X035260Y010273D01*
X035405Y010027D02*
X035453Y010027D01*
X035405Y010027D02*
X035308Y009930D01*
X035163Y009930D01*
X035308Y009930D02*
X035405Y009834D01*
X035453Y009834D01*
X035405Y009732D02*
X035356Y009732D01*
X035308Y009684D01*
X035308Y009539D01*
X035211Y009438D02*
X035163Y009389D01*
X035163Y009293D01*
X035211Y009244D01*
X035405Y009244D01*
X035453Y009293D01*
X035453Y009389D01*
X035405Y009438D01*
X035453Y009539D02*
X035453Y009684D01*
X035405Y009732D01*
X035308Y009684D02*
X035260Y009732D01*
X035211Y009732D01*
X035163Y009684D01*
X035163Y009539D01*
X035453Y009539D01*
X032314Y010587D02*
X032314Y010877D01*
X032168Y010877D01*
X032120Y010829D01*
X032120Y010732D01*
X032168Y010684D01*
X032314Y010684D01*
X032019Y010732D02*
X031825Y010732D01*
X031724Y010732D02*
X031579Y010732D01*
X031531Y010684D01*
X031531Y010635D01*
X031579Y010587D01*
X031724Y010587D01*
X031724Y010877D01*
X031579Y010877D01*
X031531Y010829D01*
X031531Y010781D01*
X031579Y010732D01*
X031430Y010635D02*
X031381Y010587D01*
X031285Y010587D01*
X031236Y010635D01*
X031236Y010684D01*
X031285Y010732D01*
X031333Y010732D01*
X031285Y010732D02*
X031236Y010781D01*
X031236Y010829D01*
X031285Y010877D01*
X031381Y010877D01*
X031430Y010829D01*
X031825Y010877D02*
X031825Y010587D01*
X032019Y010587D02*
X032019Y010877D01*
X031260Y011374D02*
X031260Y011568D01*
X031212Y011616D01*
X031115Y011616D01*
X031067Y011568D01*
X030966Y011616D02*
X030966Y011326D01*
X030820Y011326D01*
X030772Y011374D01*
X030772Y011423D01*
X030820Y011471D01*
X030966Y011471D01*
X031067Y011374D02*
X031115Y011326D01*
X031212Y011326D01*
X031260Y011374D01*
X030966Y011616D02*
X030820Y011616D01*
X030772Y011568D01*
X030772Y011520D01*
X030820Y011471D01*
X030671Y011568D02*
X030574Y011471D01*
X030574Y011326D01*
X030574Y011471D02*
X030477Y011568D01*
X030477Y011616D01*
X030376Y011616D02*
X030231Y011616D01*
X030183Y011568D01*
X030183Y011471D01*
X030231Y011423D01*
X030376Y011423D01*
X030376Y011326D02*
X030376Y011616D01*
X030671Y011616D02*
X030671Y011568D01*
X030082Y011278D02*
X029888Y011278D01*
X029787Y011374D02*
X029787Y011616D01*
X029593Y011616D02*
X029593Y011374D01*
X029642Y011326D01*
X029739Y011326D01*
X029787Y011374D01*
X029492Y011471D02*
X029299Y011471D01*
X029198Y011471D02*
X029004Y011471D01*
X029101Y011568D02*
X029101Y011374D01*
X029347Y011326D02*
X029347Y011616D01*
X029492Y011471D01*
X026414Y010872D02*
X026414Y010582D01*
X026414Y010678D02*
X026268Y010678D01*
X026220Y010727D01*
X026220Y010823D01*
X026268Y010872D01*
X026414Y010872D01*
X026119Y010872D02*
X026119Y010582D01*
X026119Y010727D02*
X025925Y010727D01*
X025824Y010727D02*
X025679Y010727D01*
X025631Y010678D01*
X025631Y010630D01*
X025679Y010582D01*
X025824Y010582D01*
X025824Y010872D01*
X025679Y010872D01*
X025631Y010823D01*
X025631Y010775D01*
X025679Y010727D01*
X025530Y010823D02*
X025481Y010872D01*
X025385Y010872D01*
X025336Y010823D01*
X025336Y010775D01*
X025530Y010582D01*
X025336Y010582D01*
X025925Y010582D02*
X025925Y010872D01*
X023203Y007936D02*
X023058Y007936D01*
X023009Y007888D01*
X023009Y007791D01*
X023058Y007743D01*
X023203Y007743D01*
X023106Y007743D02*
X023009Y007646D01*
X022908Y007646D02*
X022715Y007646D01*
X022614Y007646D02*
X022420Y007646D01*
X022319Y007646D02*
X022174Y007646D01*
X022126Y007694D01*
X022126Y007888D01*
X022174Y007936D01*
X022319Y007936D01*
X022319Y007646D01*
X022517Y007791D02*
X022614Y007791D01*
X022614Y007936D02*
X022614Y007646D01*
X022614Y007936D02*
X022420Y007936D01*
X022024Y007936D02*
X022024Y007646D01*
X021879Y007646D01*
X021831Y007694D01*
X021831Y007743D01*
X021879Y007791D01*
X022024Y007791D01*
X021879Y007791D02*
X021831Y007840D01*
X021831Y007888D01*
X021879Y007936D01*
X022024Y007936D01*
X021730Y007791D02*
X021536Y007791D01*
X021435Y007791D02*
X021242Y007791D01*
X021242Y007840D02*
X021242Y007646D01*
X021435Y007646D02*
X021435Y007840D01*
X021338Y007936D01*
X021242Y007840D01*
X022033Y006911D02*
X021936Y006815D01*
X021936Y006621D01*
X021936Y006766D02*
X022130Y006766D01*
X022130Y006815D02*
X022033Y006911D01*
X022130Y006815D02*
X022130Y006621D01*
X022231Y006766D02*
X022424Y006766D01*
X022526Y006718D02*
X022526Y006669D01*
X022574Y006621D01*
X022719Y006621D01*
X022719Y006911D01*
X022574Y006911D01*
X022526Y006863D01*
X022526Y006815D01*
X022574Y006766D01*
X022719Y006766D01*
X022820Y006669D02*
X022820Y006863D01*
X022869Y006911D01*
X023014Y006911D01*
X023014Y006621D01*
X022869Y006621D01*
X022820Y006669D01*
X022574Y006766D02*
X022526Y006718D01*
X023115Y006621D02*
X023308Y006621D01*
X023308Y006911D01*
X023115Y006911D01*
X023212Y006766D02*
X023308Y006766D01*
X023409Y006621D02*
X023603Y006621D01*
X023603Y006911D01*
X023203Y007646D02*
X023203Y007936D01*
X022908Y007936D02*
X022908Y007646D01*
X020003Y006911D02*
X020003Y006621D01*
X019809Y006621D01*
X019708Y006621D02*
X019515Y006621D01*
X019414Y006621D02*
X019269Y006621D01*
X019220Y006669D01*
X019220Y006863D01*
X019269Y006911D01*
X019414Y006911D01*
X019414Y006621D01*
X019612Y006766D02*
X019708Y006766D01*
X019708Y006911D02*
X019708Y006621D01*
X019708Y006911D02*
X019515Y006911D01*
X019119Y006815D02*
X019022Y006911D01*
X018926Y006815D01*
X018926Y006621D01*
X018926Y006766D02*
X019119Y006766D01*
X019119Y006815D02*
X019119Y006621D01*
X018824Y006766D02*
X018631Y006766D01*
X018530Y006766D02*
X018385Y006766D01*
X018336Y006718D01*
X018336Y006669D01*
X018385Y006621D01*
X018530Y006621D01*
X018530Y006911D01*
X018385Y006911D01*
X018336Y006863D01*
X018336Y006815D01*
X018385Y006766D01*
X018531Y007646D02*
X018531Y007840D01*
X018628Y007936D01*
X018724Y007840D01*
X018724Y007646D01*
X018826Y007694D02*
X018826Y007888D01*
X018874Y007936D01*
X019019Y007936D01*
X019019Y007646D01*
X018874Y007646D01*
X018826Y007694D01*
X018724Y007791D02*
X018531Y007791D01*
X018430Y007791D02*
X018236Y007791D01*
X018135Y007791D02*
X017990Y007791D01*
X017942Y007743D01*
X017942Y007694D01*
X017990Y007646D01*
X018135Y007646D01*
X018135Y007936D01*
X017990Y007936D01*
X017942Y007888D01*
X017942Y007840D01*
X017990Y007791D01*
X019120Y007646D02*
X019314Y007646D01*
X019314Y007936D01*
X019120Y007936D01*
X019217Y007791D02*
X019314Y007791D01*
X019415Y007646D02*
X019608Y007646D01*
X019608Y007936D01*
X019709Y007888D02*
X019709Y007791D01*
X019758Y007743D01*
X019903Y007743D01*
X019806Y007743D02*
X019709Y007646D01*
X019903Y007646D02*
X019903Y007936D01*
X019758Y007936D01*
X019709Y007888D01*
X035163Y011601D02*
X035356Y011795D01*
X035405Y011795D01*
X035163Y011795D02*
X035163Y011601D01*
D12*
X033709Y011070D02*
X033276Y011070D01*
X033138Y011228D02*
X032548Y011228D01*
X032410Y011070D02*
X031977Y011070D01*
X031977Y012803D01*
X032410Y012803D01*
X033276Y012803D02*
X033709Y012803D01*
X033709Y011070D01*
X027803Y011070D02*
X027370Y011070D01*
X027233Y011228D02*
X026642Y011228D01*
X026504Y011070D02*
X026071Y011070D01*
X026071Y012803D01*
X026504Y012803D01*
X027370Y012803D02*
X027803Y012803D01*
X027803Y011070D01*
X023866Y011070D02*
X023433Y011070D01*
X023296Y011228D02*
X022705Y011228D01*
X022567Y011070D02*
X022134Y011070D01*
X022134Y012803D01*
X022567Y012803D01*
X023433Y012803D02*
X023866Y012803D01*
X023866Y011070D01*
X019929Y011070D02*
X019496Y011070D01*
X019359Y011228D02*
X018768Y011228D01*
X018630Y011070D02*
X018197Y011070D01*
X018197Y012803D01*
X018630Y012803D01*
X019496Y012803D02*
X019929Y012803D01*
X019929Y011070D01*
X015992Y011070D02*
X015559Y011070D01*
X015422Y011228D02*
X014831Y011228D01*
X014693Y011070D02*
X014260Y011070D01*
X014260Y012803D01*
X014693Y012803D01*
X015559Y012803D02*
X015992Y012803D01*
X015992Y011070D01*
X010087Y011070D02*
X009654Y011070D01*
X009516Y011228D02*
X008925Y011228D01*
X008788Y011070D02*
X008355Y011070D01*
X008355Y012803D01*
X008788Y012803D01*
X009654Y012803D02*
X010087Y012803D01*
X010087Y011070D01*
D13*
X021956Y013031D02*
X021980Y013031D01*
X024768Y011243D02*
X024768Y011219D01*
X029468Y011919D02*
X029468Y011943D01*
X034468Y011743D02*
X034468Y011719D01*
X034468Y012619D02*
X034468Y012643D01*
D14*
X021849Y007098D02*
X021668Y007098D01*
X021576Y006976D01*
X021487Y007098D02*
X021668Y007098D01*
X021678Y007092D02*
X021754Y006976D01*
X020549Y007098D02*
X020368Y007098D01*
X020276Y006976D01*
X020187Y007098D02*
X020368Y007098D01*
X020378Y007092D02*
X020454Y006976D01*
D15*
X019368Y007331D03*
X022668Y007331D03*
D16*
X024053Y012737D02*
X024683Y012737D01*
X024702Y012737D01*
X024721Y012741D01*
X024739Y012747D01*
X024755Y012756D01*
X024770Y012769D01*
X024782Y012783D01*
X024792Y012800D01*
X024798Y012818D01*
X024802Y012836D01*
X024801Y012836D02*
X024801Y013426D01*
X024802Y013427D02*
X024798Y013446D01*
X024792Y013463D01*
X024782Y013480D01*
X024770Y013494D01*
X024755Y013506D01*
X024739Y013516D01*
X024721Y013522D01*
X024702Y013526D01*
X024683Y013526D01*
X024683Y013525D02*
X024053Y013525D01*
X024053Y013526D02*
X024034Y013526D01*
X024015Y013522D01*
X023997Y013516D01*
X023981Y013506D01*
X023966Y013494D01*
X023954Y013480D01*
X023944Y013463D01*
X023938Y013446D01*
X023934Y013427D01*
X023935Y013426D02*
X023935Y012836D01*
X023934Y012836D02*
X023938Y012817D01*
X023944Y012800D01*
X023954Y012783D01*
X023966Y012769D01*
X023981Y012757D01*
X023997Y012747D01*
X024015Y012741D01*
X024034Y012737D01*
X024053Y012737D01*
X027935Y012836D02*
X027935Y013426D01*
X027934Y013427D02*
X027938Y013446D01*
X027944Y013463D01*
X027954Y013480D01*
X027966Y013494D01*
X027981Y013506D01*
X027997Y013516D01*
X028015Y013522D01*
X028034Y013526D01*
X028053Y013526D01*
X028053Y013525D02*
X028683Y013525D01*
X028683Y013526D02*
X028702Y013526D01*
X028721Y013522D01*
X028739Y013516D01*
X028755Y013506D01*
X028770Y013494D01*
X028782Y013480D01*
X028792Y013463D01*
X028798Y013446D01*
X028802Y013427D01*
X028801Y013426D02*
X028801Y012836D01*
X028802Y012836D02*
X028798Y012818D01*
X028792Y012800D01*
X028782Y012783D01*
X028770Y012769D01*
X028755Y012756D01*
X028739Y012747D01*
X028721Y012741D01*
X028702Y012737D01*
X028683Y012737D01*
X028053Y012737D01*
X028034Y012737D01*
X028015Y012741D01*
X027997Y012747D01*
X027981Y012757D01*
X027966Y012769D01*
X027954Y012783D01*
X027944Y012800D01*
X027938Y012817D01*
X027934Y012836D01*
X018101Y012836D02*
X018101Y013426D01*
X018102Y013427D02*
X018098Y013446D01*
X018092Y013463D01*
X018082Y013480D01*
X018070Y013494D01*
X018055Y013506D01*
X018039Y013516D01*
X018021Y013522D01*
X018002Y013526D01*
X017983Y013526D01*
X017983Y013525D02*
X017353Y013525D01*
X017353Y013526D02*
X017334Y013526D01*
X017315Y013522D01*
X017297Y013516D01*
X017281Y013507D01*
X017266Y013494D01*
X017254Y013480D01*
X017244Y013463D01*
X017238Y013445D01*
X017234Y013427D01*
X017235Y013426D02*
X017235Y012836D01*
X017234Y012836D02*
X017238Y012817D01*
X017244Y012800D01*
X017254Y012783D01*
X017266Y012769D01*
X017281Y012757D01*
X017297Y012747D01*
X017315Y012741D01*
X017334Y012737D01*
X017353Y012737D01*
X017983Y012737D01*
X018002Y012737D01*
X018021Y012741D01*
X018039Y012747D01*
X018055Y012757D01*
X018070Y012769D01*
X018082Y012783D01*
X018092Y012800D01*
X018098Y012817D01*
X018102Y012836D01*
X014201Y012836D02*
X014201Y013426D01*
X014202Y013427D02*
X014198Y013446D01*
X014192Y013463D01*
X014182Y013480D01*
X014170Y013494D01*
X014155Y013506D01*
X014139Y013516D01*
X014121Y013522D01*
X014102Y013526D01*
X014083Y013526D01*
X014083Y013525D02*
X013453Y013525D01*
X013453Y013526D02*
X013434Y013526D01*
X013415Y013522D01*
X013397Y013516D01*
X013381Y013507D01*
X013366Y013494D01*
X013354Y013480D01*
X013344Y013463D01*
X013338Y013445D01*
X013334Y013427D01*
X013335Y013426D02*
X013335Y012836D01*
X013334Y012836D02*
X013338Y012817D01*
X013344Y012800D01*
X013354Y012783D01*
X013366Y012769D01*
X013381Y012757D01*
X013397Y012747D01*
X013415Y012741D01*
X013434Y012737D01*
X013453Y012737D01*
X014083Y012737D01*
X014102Y012737D01*
X014121Y012741D01*
X014139Y012747D01*
X014155Y012757D01*
X014170Y012769D01*
X014182Y012783D01*
X014192Y012800D01*
X014198Y012817D01*
X014202Y012836D01*
M02*
