G75*
G70*
%OFA0B0*%
%FSLAX24Y24*%
%IPPOS*%
%LPD*%
%AMOC8*
5,1,8,0,0,1.08239X$1,22.5*
%
%ADD10R,0.0248X0.0327*%
%ADD11R,0.0394X0.0433*%
%ADD12R,0.0984X0.0472*%
%ADD13C,0.0142*%
%ADD14R,0.0480X0.0880*%
%ADD15R,0.1417X0.0866*%
%ADD16R,0.0472X0.0984*%
%ADD17R,0.0433X0.0394*%
%ADD18R,0.0500X0.0260*%
%ADD19R,0.0315X0.0315*%
%ADD20R,0.0157X0.0433*%
%ADD21R,0.0260X0.0800*%
%ADD22R,0.0984X0.0669*%
%ADD23R,0.0236X0.0866*%
%ADD24R,0.0315X0.0394*%
%ADD25R,0.0137X0.0550*%
%ADD26R,0.0394X0.0315*%
%ADD27R,0.0217X0.0472*%
%ADD28R,0.0256X0.0866*%
%ADD29R,0.0394X0.0110*%
%ADD30R,0.0110X0.0394*%
%ADD31R,0.0945X0.0945*%
%ADD32R,0.0512X0.0866*%
%ADD33R,0.0354X0.0276*%
%ADD34R,0.0276X0.0354*%
%ADD35R,0.0394X0.0276*%
D10*
X034697Y019185D03*
X034696Y019916D03*
X035601Y019916D03*
X035603Y019185D03*
X036621Y021515D03*
X037526Y021515D03*
X038670Y019816D03*
X038642Y019173D03*
X039548Y019173D03*
X039576Y019816D03*
D11*
X039494Y020760D03*
X039494Y021429D03*
X038727Y021386D03*
X038727Y020717D03*
X035782Y020533D03*
X035782Y021202D03*
X034871Y021311D03*
X033966Y022067D03*
X033966Y022736D03*
X033981Y024534D03*
X033981Y025204D03*
X034900Y025204D03*
X034900Y024534D03*
X034871Y020642D03*
X035795Y013285D03*
X035795Y012615D03*
X034495Y010785D03*
X033895Y010785D03*
X033895Y010115D03*
X034495Y010115D03*
X034495Y008785D03*
X033895Y008785D03*
X033895Y008115D03*
X034495Y008115D03*
X036595Y008285D03*
X037195Y008285D03*
X037195Y007615D03*
X036595Y007615D03*
X036995Y006085D03*
X036995Y005415D03*
D12*
X038789Y022406D03*
X038789Y023705D03*
D13*
X038057Y020967D02*
X036231Y020967D01*
X038057Y020967D02*
X038057Y020401D01*
X036231Y020401D01*
X036231Y020967D01*
X036231Y020542D02*
X038057Y020542D01*
X038057Y020683D02*
X036231Y020683D01*
X036231Y020824D02*
X038057Y020824D01*
X038057Y020965D02*
X036231Y020965D01*
X036231Y019510D02*
X038057Y019510D01*
X038057Y018944D01*
X036231Y018944D01*
X036231Y019510D01*
X036231Y019085D02*
X038057Y019085D01*
X038057Y019226D02*
X036231Y019226D01*
X036231Y019367D02*
X038057Y019367D01*
X038057Y019508D02*
X036231Y019508D01*
D14*
X036628Y022391D03*
X037538Y022391D03*
X035718Y022391D03*
D15*
X036628Y024831D03*
D16*
X037962Y025022D03*
X039261Y025022D03*
D17*
X034701Y023336D03*
X034031Y023336D03*
X035060Y011950D03*
X035730Y011950D03*
X034530Y009450D03*
X033860Y009450D03*
X036660Y006950D03*
X037330Y006950D03*
X037960Y006950D03*
X038630Y006950D03*
X038630Y007650D03*
X037960Y007650D03*
X035930Y005750D03*
X035260Y005750D03*
X035260Y004850D03*
X035930Y004850D03*
X035930Y004250D03*
X035260Y004250D03*
X036860Y004250D03*
X037530Y004250D03*
X037530Y004850D03*
X036860Y004850D03*
X036860Y000850D03*
X037530Y000850D03*
X035830Y000850D03*
X035160Y000850D03*
D18*
X033811Y029284D03*
X033811Y029678D03*
X033811Y030071D03*
X033811Y030465D03*
D19*
X034599Y029973D03*
X035189Y029973D03*
X035780Y029973D03*
X036370Y029973D03*
X036370Y029382D03*
X035780Y029382D03*
X035189Y029382D03*
X034599Y029382D03*
X036961Y029382D03*
X037552Y029382D03*
X038142Y029382D03*
X038142Y029973D03*
X037552Y029973D03*
X036961Y029973D03*
X016250Y030355D03*
X016250Y030945D03*
X015550Y030945D03*
X015550Y030355D03*
X016250Y001445D03*
X016950Y001445D03*
X016950Y000855D03*
X016250Y000855D03*
D20*
X035111Y007164D03*
X035367Y007164D03*
X035623Y007164D03*
X035879Y007164D03*
X035879Y008936D03*
X035623Y008936D03*
X035367Y008936D03*
X035111Y008936D03*
X035211Y003336D03*
X035467Y003336D03*
X035723Y003336D03*
X035979Y003336D03*
X036711Y003336D03*
X036967Y003336D03*
X037223Y003336D03*
X037479Y003336D03*
X037479Y001564D03*
X037223Y001564D03*
X036967Y001564D03*
X036711Y001564D03*
X035979Y001564D03*
X035723Y001564D03*
X035467Y001564D03*
X035211Y001564D03*
D21*
X037295Y009145D03*
X037795Y009145D03*
X038295Y009145D03*
X038795Y009145D03*
X039295Y009145D03*
X039795Y009145D03*
X040295Y009145D03*
X040295Y011755D03*
X039795Y011755D03*
X039295Y011755D03*
X038795Y011755D03*
X038295Y011755D03*
X037795Y011755D03*
X037295Y011755D03*
D22*
X034195Y006898D03*
X034195Y005402D03*
X034195Y003898D03*
X034195Y002402D03*
X038595Y002498D03*
X038595Y001002D03*
X038595Y003902D03*
X038595Y005398D03*
D23*
X012400Y005174D03*
X011900Y005174D03*
X011400Y005174D03*
X010900Y005174D03*
X010900Y003126D03*
X011400Y003126D03*
X011900Y003126D03*
X012400Y003126D03*
D24*
X013450Y003815D03*
X013450Y004485D03*
X016250Y002685D03*
X016950Y002685D03*
X016950Y002015D03*
X016250Y002015D03*
X023750Y002615D03*
X023750Y003285D03*
X028550Y019415D03*
X028550Y020085D03*
X017050Y030315D03*
X017050Y030985D03*
X014850Y030985D03*
X014850Y030315D03*
D25*
X019687Y004089D03*
X019943Y004089D03*
X020198Y004089D03*
X020454Y004089D03*
X020710Y004089D03*
X020966Y004089D03*
X021222Y004089D03*
X021478Y004089D03*
X021734Y004089D03*
X021990Y004089D03*
X022246Y004089D03*
X022502Y004089D03*
X022757Y004089D03*
X023013Y004089D03*
X023013Y001211D03*
X022757Y001211D03*
X022502Y001211D03*
X022246Y001211D03*
X021990Y001211D03*
X021734Y001211D03*
X021478Y001211D03*
X021222Y001211D03*
X020966Y001211D03*
X020710Y001211D03*
X020454Y001211D03*
X020198Y001211D03*
X019943Y001211D03*
X019687Y001211D03*
D26*
X014085Y002250D03*
X013415Y002250D03*
X012085Y006250D03*
X011415Y006250D03*
X009685Y028550D03*
X009015Y028550D03*
X008385Y028550D03*
X007715Y028550D03*
D27*
X006276Y004738D03*
X006650Y004738D03*
X007024Y004738D03*
X007024Y005762D03*
X006276Y005762D03*
D28*
X008729Y005098D03*
X008729Y003641D03*
X028171Y013302D03*
X028171Y014759D03*
D29*
X009718Y024656D03*
X009718Y024853D03*
X009718Y025050D03*
X009718Y025247D03*
X009718Y025444D03*
X008182Y025444D03*
X008182Y025247D03*
X008182Y025050D03*
X008182Y024853D03*
X008182Y024656D03*
D30*
X008556Y024282D03*
X008753Y024282D03*
X008950Y024282D03*
X009147Y024282D03*
X009344Y024282D03*
X009344Y025818D03*
X009147Y025818D03*
X008950Y025818D03*
X008753Y025818D03*
X008556Y025818D03*
D31*
X008950Y025050D03*
D32*
X009477Y027850D03*
X007823Y027850D03*
D33*
X008650Y027106D03*
X008650Y026594D03*
X007850Y026494D03*
X007850Y027006D03*
X006150Y026606D03*
X006150Y026094D03*
X004350Y026206D03*
X004350Y025694D03*
X004950Y024606D03*
X004950Y024094D03*
X006150Y024206D03*
X006150Y023694D03*
X007550Y023806D03*
X007550Y023294D03*
X008150Y023294D03*
X008150Y023806D03*
X008750Y023406D03*
X009350Y023406D03*
X009350Y022894D03*
X008750Y022894D03*
D34*
X007406Y024850D03*
X006894Y024850D03*
X006894Y025450D03*
X007406Y025450D03*
X006106Y025450D03*
X005594Y025450D03*
X005594Y024850D03*
X006106Y024850D03*
X004906Y025150D03*
X004394Y025150D03*
X009794Y026250D03*
X010306Y026250D03*
X010294Y025250D03*
X010806Y025250D03*
D35*
X027738Y008124D03*
X027738Y007750D03*
X027738Y007376D03*
X028762Y007376D03*
X028762Y007750D03*
X028762Y008124D03*
X028762Y006124D03*
X028762Y005750D03*
X028762Y005376D03*
X027738Y005376D03*
X027738Y005750D03*
X027738Y006124D03*
M02*
