%
M48
M72
T01C0.0200
T02C0.0236
T03C0.0354
T04C0.0394
T05C0.0400
T06C0.0472
T07C0.0591
T08C0.0630
T09C0.0787
T10C0.1181
T11C0.1575
T12C0.3150
%
T01
X34008Y19441
X34008Y19941
X34008Y20441
X34008Y20941
X34008Y21441
X40307Y21441
X40307Y20941
X40307Y20441
X40307Y19941
X40307Y19441
X40307Y23347
X40307Y23847
X40307Y24347
X40307Y24847
X40307Y25347
T02
X39245Y25823
X37145Y26373
X34845Y23873
X36245Y23673
X37145Y23073
X34495Y22673
X34445Y21723
X31050Y21950
X31050Y23950
X31050Y25950
X31050Y27950
X27950Y31050
X25950Y31050
X23950Y31050
X21950Y31050
X19950Y31050
X17950Y31050
X17050Y29550
X14850Y29550
X13950Y31050
X11950Y31050
X9750Y31050
X8750Y31050
X7750Y31050
X6750Y31050
X5750Y31050
X4750Y31050
X3750Y31050
X2750Y31050
X750Y28450
X750Y27450
X5250Y28250
X7250Y26750
X8450Y28050
X8850Y27650
X9150Y26950
X10450Y25750
X10850Y26250
X9207Y25278
X9207Y24806
X8696Y24806
X8696Y25278
X7550Y24350
X9850Y23450
X9250Y22250
X9250Y21250
X9250Y20250
X9250Y19250
X9250Y18250
X9250Y17250
X8750Y16450
X8750Y15450
X7750Y15450
X6750Y15450
X6750Y16450
X7750Y16450
X5750Y16450
X4750Y16450
X3750Y16450
X3750Y15450
X4750Y15450
X5750Y15450
X2750Y15450
X1750Y15450
X1750Y16450
X2750Y16450
X750Y16450
X750Y15450
X850Y13550
X850Y11550
X850Y9550
X850Y7550
X850Y5550
X850Y3550
X5650Y5250
X6950Y6650
X8050Y6650
X9850Y7350
X10550Y6050
X12650Y7850
X13350Y8250
X12650Y8650
X11950Y9050
X11350Y9450
X10650Y9850
X10350Y10650
X10350Y11250
X10750Y11650
X11150Y12050
X11550Y12450
X14250Y13450
X15250Y12050
X16150Y11150
X17050Y12050
X17050Y10350
X15250Y10350
X15535Y7351
X17550Y5750
X18350Y5050
X19750Y4750
X20350Y5150
X21750Y2650
X22750Y2150
X24050Y650
X26050Y650
X28050Y650
X31050Y3750
X34195Y3150
X34795Y1750
X36345Y1150
X36395Y2150
X37895Y3250
X36395Y3850
X36395Y5350
X37495Y6150
X35895Y6650
X35156Y6391
X34995Y7850
X35995Y7750
X36795Y9150
X35095Y9550
X34995Y10550
X35295Y11350
X35995Y11350
X36695Y11550
X37895Y10850
X38595Y10950
X38495Y9950
X40395Y10450
X40095Y8150
X40095Y6850
X40095Y5450
X34195Y4650
X33895Y7550
X31050Y9650
X29350Y8150
X28250Y6850
X27150Y7050
X25650Y8050
X25050Y9450
X26550Y9450
X26650Y11350
X23650Y7950
X20450Y10850
X18950Y8650
X14950Y5350
X16750Y3750
X17850Y2550
X18950Y1350
X19650Y1950
X20150Y1950
X12250Y4250
X11050Y4250
X9450Y2850
X7950Y2850
X6634Y3505
X8650Y750
X29450Y6050
X37695Y12950
X37295Y13650
X36395Y13550
X37095Y14750
X37695Y15250
X38795Y14750
X39295Y14250
X38795Y12650
X31050Y17350
X33645Y18973
X40195Y22423
X37748Y30465
X37158Y30465
X36567Y30465
X35977Y30465
X25950Y19450
X23450Y19050
X16250Y27050
X15550Y27050
X5250Y21250
X750Y21450
X750Y20450
X750Y19450
X750Y18450
X750Y17450
X750Y22450
X750Y23450
T03
X18784Y2650
X20516Y2650
T04
X13250Y1150
X12250Y1150
X11250Y1150
X10250Y1150
X2150Y5150
X2150Y6150
X2150Y7850
X2150Y8850
X2150Y9850
X2150Y10850
X2150Y11850
X2150Y12850
X30150Y13150
X30150Y12150
X30150Y11150
X30150Y14150
X30150Y15150
X30150Y16150
X30150Y17850
X30150Y18850
X30150Y19850
X30150Y20850
X30150Y21850
X40095Y14930
X40095Y13930
X40095Y12930
X30150Y8150
X30150Y7150
X30150Y6150
X30150Y5150
X40095Y4603
X40095Y3603
X40095Y2603
X40095Y1603
T05
X39015Y18260
X37875Y18260
X36440Y18260
X35300Y18260
X35300Y26528
X36440Y26528
X37875Y26528
X39015Y26528
X15050Y2220
X15050Y1080
T06
X6634Y1650
X4666Y1650
T07
X2350Y25150
T08
X1350Y26150
X3350Y26150
X3350Y24150
X1350Y24150
T09
X34008Y26528
X39126Y29874
X40307Y26528
X40307Y18260
X34008Y18260
T10
X34008Y15111
X34008Y937
T11
X1725Y1725
X30071Y1725
X30071Y30071
X1725Y30071
T12
X15898Y15898
M30
