G75*
G70*
%OFA0B0*%
%FSLAX24Y24*%
%IPPOS*%
%LPD*%
%AMOC8*
5,1,8,0,0,1.08239X$1,22.5*
%
%ADD10C,0.0740*%
%ADD11R,0.0315X0.0138*%
%ADD12R,0.0984X0.0984*%
%ADD13R,0.0394X0.0551*%
%ADD14R,0.0433X0.0394*%
%ADD15R,0.0248X0.0327*%
%ADD16C,0.0400*%
%ADD17R,0.0500X0.0260*%
%ADD18R,0.0709X0.0689*%
%ADD19R,0.0250X0.0500*%
%ADD20R,0.0394X0.0433*%
%ADD21R,0.0354X0.0354*%
%ADD22R,0.0276X0.0236*%
%ADD23R,0.0660X0.0660*%
%ADD24OC8,0.0660*%
%ADD25R,0.0594X0.0594*%
%ADD26OC8,0.0594*%
%ADD27R,0.0138X0.0315*%
%ADD28R,0.2559X0.2559*%
%ADD29R,0.0512X0.0866*%
%ADD30R,0.0394X0.0315*%
%ADD31R,0.0315X0.0394*%
%ADD32R,0.0630X0.0709*%
%ADD33R,0.0197X0.0984*%
%ADD34R,0.0787X0.0984*%
%ADD35OC8,0.1181*%
%ADD36R,0.0315X0.0118*%
%ADD37C,0.1000*%
%ADD38C,0.0100*%
%ADD39C,0.0396*%
%ADD40C,0.0160*%
%ADD41OC8,0.0396*%
%ADD42C,0.0120*%
%ADD43C,0.0240*%
%ADD44C,0.0320*%
D10*
X015050Y001080D03*
X015050Y002220D03*
X035300Y018260D03*
X036440Y018260D03*
X037875Y018260D03*
X039015Y018260D03*
X039015Y026528D03*
X037875Y026528D03*
X036440Y026528D03*
X035300Y026528D03*
D11*
G36*
X035581Y022961D02*
X035802Y022740D01*
X035705Y022643D01*
X035484Y022864D01*
X035581Y022961D01*
G37*
G36*
X035400Y022780D02*
X035621Y022559D01*
X035524Y022462D01*
X035303Y022683D01*
X035400Y022780D01*
G37*
G36*
X035219Y022599D02*
X035440Y022378D01*
X035343Y022281D01*
X035122Y022502D01*
X035219Y022599D01*
G37*
G36*
X035038Y022418D02*
X035259Y022197D01*
X035162Y022100D01*
X034941Y022321D01*
X035038Y022418D01*
G37*
G36*
X034941Y021626D02*
X035162Y021847D01*
X035259Y021750D01*
X035038Y021529D01*
X034941Y021626D01*
G37*
G36*
X035122Y021445D02*
X035343Y021666D01*
X035440Y021569D01*
X035219Y021348D01*
X035122Y021445D01*
G37*
G36*
X035303Y021264D02*
X035524Y021485D01*
X035621Y021388D01*
X035400Y021167D01*
X035303Y021264D01*
G37*
G36*
X035484Y021083D02*
X035705Y021304D01*
X035802Y021207D01*
X035581Y020986D01*
X035484Y021083D01*
G37*
G36*
X036151Y021304D02*
X036372Y021083D01*
X036275Y020986D01*
X036054Y021207D01*
X036151Y021304D01*
G37*
G36*
X036332Y021485D02*
X036553Y021264D01*
X036456Y021167D01*
X036235Y021388D01*
X036332Y021485D01*
G37*
G36*
X036513Y021666D02*
X036734Y021445D01*
X036637Y021348D01*
X036416Y021569D01*
X036513Y021666D01*
G37*
G36*
X036694Y021847D02*
X036915Y021626D01*
X036818Y021529D01*
X036597Y021750D01*
X036694Y021847D01*
G37*
G36*
X036597Y022197D02*
X036818Y022418D01*
X036915Y022321D01*
X036694Y022100D01*
X036597Y022197D01*
G37*
G36*
X036416Y022378D02*
X036637Y022599D01*
X036734Y022502D01*
X036513Y022281D01*
X036416Y022378D01*
G37*
G36*
X036235Y022559D02*
X036456Y022780D01*
X036553Y022683D01*
X036332Y022462D01*
X036235Y022559D01*
G37*
G36*
X036054Y022740D02*
X036275Y022961D01*
X036372Y022864D01*
X036151Y022643D01*
X036054Y022740D01*
G37*
X017725Y012430D03*
X017725Y012174D03*
X017725Y011918D03*
X017725Y011662D03*
X017725Y011406D03*
X017725Y011150D03*
X017725Y010894D03*
X017725Y010638D03*
X017725Y010382D03*
X017725Y010126D03*
X017725Y009870D03*
X014575Y009870D03*
X014575Y010126D03*
X014575Y010382D03*
X014575Y010638D03*
X014575Y010894D03*
X014575Y011150D03*
X014575Y011406D03*
X014575Y011662D03*
X014575Y011918D03*
X014575Y012174D03*
X014575Y012430D03*
D12*
G36*
X035233Y021974D02*
X035928Y022669D01*
X036623Y021974D01*
X035928Y021279D01*
X035233Y021974D01*
G37*
D13*
X034454Y023348D03*
X033706Y023348D03*
X034080Y024215D03*
X034756Y024501D03*
X035504Y024501D03*
X036106Y024251D03*
X036854Y024251D03*
X037456Y023900D03*
X038204Y023900D03*
X037830Y024767D03*
X036480Y025117D03*
X035130Y025367D03*
X038836Y022896D03*
X039584Y022896D03*
X039210Y022030D03*
X038084Y020496D03*
X037336Y020496D03*
X036784Y020246D03*
X036036Y020246D03*
X035484Y019997D03*
X034736Y019997D03*
X035110Y019131D03*
X036410Y019380D03*
X037710Y019630D03*
D14*
X039081Y019980D03*
X039081Y020461D03*
X039081Y020942D03*
X039081Y021423D03*
X039751Y021423D03*
X039751Y020942D03*
X039751Y020461D03*
X039751Y019980D03*
X039751Y023904D03*
X039751Y024385D03*
X039751Y024867D03*
X039081Y024867D03*
X039081Y024385D03*
X039081Y023904D03*
X037130Y015250D03*
X036460Y015250D03*
X035830Y015250D03*
X035830Y014650D03*
X035160Y014650D03*
X035160Y015250D03*
X034730Y013950D03*
X034060Y013950D03*
X039260Y010950D03*
X039930Y010950D03*
X039930Y009950D03*
X039260Y009950D03*
X035830Y007150D03*
X035160Y007150D03*
D15*
X037439Y022417D03*
X038344Y022417D03*
D16*
X040307Y023347D03*
X040307Y023847D03*
X040307Y024347D03*
X040307Y024847D03*
X040307Y025347D03*
X040307Y021441D03*
X040307Y020941D03*
X040307Y020441D03*
X040307Y019941D03*
X040307Y019441D03*
X034008Y019441D03*
X034008Y019941D03*
X034008Y020441D03*
X034008Y020941D03*
X034008Y021441D03*
D17*
X033811Y029284D03*
X033811Y029678D03*
X033811Y030071D03*
X033811Y030465D03*
D18*
X034008Y009993D03*
X036370Y009993D03*
X036370Y006056D03*
X034008Y006056D03*
D19*
X036345Y012250D03*
X036845Y012250D03*
X037345Y012250D03*
X037845Y012250D03*
X037845Y014250D03*
X037345Y014250D03*
X036845Y014250D03*
X036345Y014250D03*
D20*
X035695Y013585D03*
X035695Y012915D03*
X034595Y012185D03*
X034595Y011515D03*
X033895Y011515D03*
X033895Y012185D03*
D21*
X034767Y013150D03*
D22*
X033822Y012894D03*
X033822Y013406D03*
D23*
X030150Y011150D03*
X030150Y017850D03*
X040095Y012930D03*
X002150Y007850D03*
X002150Y005150D03*
D24*
X002150Y006150D03*
X002150Y008850D03*
X002150Y009850D03*
X002150Y010850D03*
X002150Y011850D03*
X002150Y012850D03*
X030150Y013150D03*
X030150Y012150D03*
X030150Y014150D03*
X030150Y015150D03*
X030150Y016150D03*
X030150Y018850D03*
X030150Y019850D03*
X030150Y020850D03*
X030150Y021850D03*
X040095Y014930D03*
X040095Y013930D03*
D25*
X030150Y005150D03*
X040095Y001603D03*
X013250Y001150D03*
D26*
X012250Y001150D03*
X011250Y001150D03*
X010250Y001150D03*
X030150Y006150D03*
X030150Y007150D03*
X030150Y008150D03*
X040095Y004603D03*
X040095Y003603D03*
X040095Y002603D03*
D27*
X017430Y009575D03*
X017174Y009575D03*
X016918Y009575D03*
X016662Y009575D03*
X016406Y009575D03*
X016150Y009575D03*
X015894Y009575D03*
X015638Y009575D03*
X015382Y009575D03*
X015126Y009575D03*
X014870Y009575D03*
X014870Y012725D03*
X015126Y012725D03*
X015382Y012725D03*
X015638Y012725D03*
X015894Y012725D03*
X016150Y012725D03*
X016406Y012725D03*
X016662Y012725D03*
X016918Y012725D03*
X017174Y012725D03*
X017430Y012725D03*
D28*
X016150Y011150D03*
D29*
X018123Y008950D03*
X019777Y008950D03*
D30*
X020085Y008150D03*
X019415Y008150D03*
X018685Y008150D03*
X018015Y008150D03*
X015985Y013450D03*
X015315Y013450D03*
X028215Y016150D03*
X028885Y016150D03*
D31*
X019650Y010985D03*
X019650Y010315D03*
X016250Y008585D03*
X016250Y007915D03*
X022650Y003485D03*
X022650Y002815D03*
D32*
X012201Y010650D03*
X011099Y010650D03*
D33*
X019020Y003634D03*
X019335Y003634D03*
X019650Y003634D03*
X019965Y003634D03*
X020280Y003634D03*
D34*
X021422Y003634D03*
X021422Y001469D03*
X017878Y001469D03*
X017878Y003634D03*
D35*
X006634Y001650D03*
X004666Y001650D03*
D36*
X024940Y008355D03*
X024940Y008552D03*
X024940Y008748D03*
X024940Y008945D03*
X026160Y008945D03*
X026160Y008748D03*
X026160Y008552D03*
X026160Y008355D03*
D37*
X003350Y024150D03*
X002350Y025150D03*
X001350Y026150D03*
X003350Y026150D03*
X001350Y024150D03*
D38*
X002251Y000600D02*
X014850Y000600D01*
X014755Y000639D01*
X014609Y000785D01*
X014530Y000977D01*
X014530Y001183D01*
X014609Y001375D01*
X014755Y001521D01*
X014947Y001600D01*
X015153Y001600D01*
X015345Y001521D01*
X015491Y001375D01*
X015570Y001183D01*
X015570Y000977D01*
X015491Y000785D01*
X015345Y000639D01*
X015250Y000600D01*
X029545Y000600D01*
X029311Y000735D01*
X029081Y000965D01*
X028918Y001247D01*
X028834Y001562D01*
X028834Y001888D01*
X028918Y002202D01*
X029081Y002485D01*
X029311Y002715D01*
X029594Y002878D01*
X029908Y002962D01*
X030234Y002962D01*
X030549Y002878D01*
X030831Y002715D01*
X031061Y002485D01*
X031196Y002251D01*
X031196Y029545D01*
X031061Y029311D01*
X030831Y029081D01*
X030549Y028918D01*
X030234Y028834D01*
X029908Y028834D01*
X029594Y028918D01*
X029311Y029081D01*
X029081Y029311D01*
X028918Y029594D01*
X028834Y029908D01*
X028834Y030234D01*
X028918Y030549D01*
X029081Y030831D01*
X029311Y031061D01*
X029545Y031196D01*
X002251Y031196D01*
X002485Y031061D01*
X002715Y030831D01*
X002878Y030549D01*
X002962Y030234D01*
X002962Y029908D01*
X002878Y029594D01*
X002715Y029311D01*
X002485Y029081D01*
X002202Y028918D01*
X001888Y028834D01*
X001562Y028834D01*
X001247Y028918D01*
X000965Y029081D01*
X000735Y029311D01*
X000600Y029545D01*
X000600Y002251D01*
X000735Y002485D01*
X000965Y002715D01*
X001247Y002878D01*
X001562Y002962D01*
X001888Y002962D01*
X002202Y002878D01*
X002485Y002715D01*
X002715Y002485D01*
X002878Y002202D01*
X002962Y001888D01*
X002962Y001562D01*
X002878Y001247D01*
X002715Y000965D01*
X002485Y000735D01*
X002251Y000600D01*
X002325Y000643D02*
X014752Y000643D01*
X014654Y000741D02*
X013647Y000741D01*
X013639Y000733D02*
X013667Y000761D01*
X013687Y000795D01*
X013697Y000833D01*
X013697Y001102D01*
X013298Y001102D01*
X013298Y001198D01*
X013202Y001198D01*
X013202Y001102D01*
X012803Y001102D01*
X012803Y000833D01*
X012813Y000795D01*
X012833Y000761D01*
X012861Y000733D01*
X012895Y000713D01*
X012933Y000703D01*
X013202Y000703D01*
X013202Y001102D01*
X013298Y001102D01*
X013298Y000703D01*
X013567Y000703D01*
X013605Y000713D01*
X013639Y000733D01*
X013697Y000840D02*
X014587Y000840D01*
X014546Y000938D02*
X013697Y000938D01*
X013697Y001037D02*
X014530Y001037D01*
X014530Y001135D02*
X013298Y001135D01*
X013298Y001198D02*
X013697Y001198D01*
X013697Y001467D01*
X013687Y001505D01*
X013667Y001539D01*
X013639Y001567D01*
X013605Y001587D01*
X013567Y001597D01*
X013298Y001597D01*
X013298Y001198D01*
X013298Y001234D02*
X013202Y001234D01*
X013202Y001198D02*
X013202Y001597D01*
X012933Y001597D01*
X012895Y001587D01*
X012861Y001567D01*
X012833Y001539D01*
X012813Y001505D01*
X012803Y001467D01*
X012803Y001198D01*
X013202Y001198D01*
X013202Y001135D02*
X012697Y001135D01*
X012697Y001037D02*
X012803Y001037D01*
X012803Y000938D02*
X012670Y000938D01*
X012697Y000965D02*
X012435Y000703D01*
X012065Y000703D01*
X011803Y000965D01*
X011803Y001335D01*
X012065Y001597D01*
X012435Y001597D01*
X012697Y001335D01*
X012697Y000965D01*
X012803Y000840D02*
X012571Y000840D01*
X012473Y000741D02*
X012853Y000741D01*
X013202Y000741D02*
X013298Y000741D01*
X013298Y000840D02*
X013202Y000840D01*
X013202Y000938D02*
X013298Y000938D01*
X013298Y001037D02*
X013202Y001037D01*
X013202Y001332D02*
X013298Y001332D01*
X013298Y001431D02*
X013202Y001431D01*
X013202Y001529D02*
X013298Y001529D01*
X013673Y001529D02*
X014775Y001529D01*
X014665Y001431D02*
X013697Y001431D01*
X013697Y001332D02*
X014592Y001332D01*
X014551Y001234D02*
X013697Y001234D01*
X012827Y001529D02*
X012503Y001529D01*
X012601Y001431D02*
X012803Y001431D01*
X012803Y001332D02*
X012697Y001332D01*
X012697Y001234D02*
X012803Y001234D01*
X011997Y001529D02*
X011503Y001529D01*
X011435Y001597D02*
X011065Y001597D01*
X010803Y001335D01*
X010803Y000965D01*
X011065Y000703D01*
X011435Y000703D01*
X011697Y000965D01*
X011697Y001335D01*
X011435Y001597D01*
X011601Y001431D02*
X011899Y001431D01*
X011803Y001332D02*
X011697Y001332D01*
X011697Y001234D02*
X011803Y001234D01*
X011803Y001135D02*
X011697Y001135D01*
X011697Y001037D02*
X011803Y001037D01*
X011830Y000938D02*
X011670Y000938D01*
X011571Y000840D02*
X011929Y000840D01*
X012027Y000741D02*
X011473Y000741D01*
X011027Y000741D02*
X010473Y000741D01*
X010435Y000703D02*
X010697Y000965D01*
X010697Y001102D01*
X010298Y001102D01*
X010298Y001198D01*
X010697Y001198D01*
X010697Y001335D01*
X010435Y001597D01*
X010298Y001597D01*
X010298Y001198D01*
X010202Y001198D01*
X010202Y001102D01*
X010298Y001102D01*
X010298Y000703D01*
X010435Y000703D01*
X010298Y000741D02*
X010202Y000741D01*
X010202Y000703D02*
X010202Y001102D01*
X009803Y001102D01*
X009803Y000965D01*
X010065Y000703D01*
X010202Y000703D01*
X010202Y000840D02*
X010298Y000840D01*
X010298Y000938D02*
X010202Y000938D01*
X010202Y001037D02*
X010298Y001037D01*
X010298Y001135D02*
X010803Y001135D01*
X010803Y001037D02*
X010697Y001037D01*
X010670Y000938D02*
X010830Y000938D01*
X010929Y000840D02*
X010571Y000840D01*
X010697Y001234D02*
X010803Y001234D01*
X010803Y001332D02*
X010697Y001332D01*
X010601Y001431D02*
X010899Y001431D01*
X010997Y001529D02*
X010503Y001529D01*
X010298Y001529D02*
X010202Y001529D01*
X010202Y001597D02*
X010202Y001198D01*
X009803Y001198D01*
X009803Y001335D01*
X010065Y001597D01*
X010202Y001597D01*
X010202Y001431D02*
X010298Y001431D01*
X010298Y001332D02*
X010202Y001332D01*
X010202Y001234D02*
X010298Y001234D01*
X010202Y001135D02*
X007167Y001135D01*
X007265Y001234D02*
X009803Y001234D01*
X009803Y001332D02*
X007364Y001332D01*
X007375Y001343D02*
X006941Y000909D01*
X006328Y000909D01*
X005894Y001343D01*
X005894Y001957D01*
X006328Y002391D01*
X006941Y002391D01*
X007375Y001957D01*
X007375Y001343D01*
X007375Y001431D02*
X009899Y001431D01*
X009997Y001529D02*
X007375Y001529D01*
X007375Y001628D02*
X017335Y001628D01*
X017335Y001726D02*
X015216Y001726D01*
X015153Y001700D02*
X015345Y001779D01*
X015491Y001925D01*
X015570Y002117D01*
X015570Y002323D01*
X015491Y002515D01*
X015345Y002661D01*
X015153Y002740D01*
X014947Y002740D01*
X014755Y002661D01*
X014609Y002515D01*
X014530Y002323D01*
X014530Y002117D01*
X014609Y001925D01*
X014755Y001779D01*
X014947Y001700D01*
X015153Y001700D01*
X015325Y001529D02*
X017335Y001529D01*
X017335Y001431D02*
X015435Y001431D01*
X015508Y001332D02*
X017335Y001332D01*
X017335Y001234D02*
X015549Y001234D01*
X015570Y001135D02*
X017335Y001135D01*
X017335Y001037D02*
X015570Y001037D01*
X015554Y000938D02*
X017335Y000938D01*
X017335Y000915D02*
X017423Y000827D01*
X018334Y000827D01*
X018422Y000915D01*
X018422Y002023D01*
X018334Y002111D01*
X017423Y002111D01*
X017335Y002023D01*
X017335Y000915D01*
X017410Y000840D02*
X015513Y000840D01*
X015446Y000741D02*
X029305Y000741D01*
X029207Y000840D02*
X021890Y000840D01*
X021877Y000827D02*
X021965Y000915D01*
X021965Y002023D01*
X021877Y002111D01*
X020966Y002111D01*
X020878Y002023D01*
X020878Y000915D01*
X020966Y000827D01*
X021877Y000827D01*
X021965Y000938D02*
X029108Y000938D01*
X029040Y001037D02*
X021965Y001037D01*
X021965Y001135D02*
X028983Y001135D01*
X028926Y001234D02*
X021965Y001234D01*
X021965Y001332D02*
X028895Y001332D01*
X028869Y001431D02*
X021965Y001431D01*
X021965Y001529D02*
X028843Y001529D01*
X028834Y001628D02*
X021965Y001628D01*
X021965Y001726D02*
X028834Y001726D01*
X028834Y001825D02*
X022874Y001825D01*
X022819Y001802D02*
X022947Y001855D01*
X023045Y001953D01*
X023098Y002081D01*
X023098Y002219D01*
X023045Y002347D01*
X022947Y002445D01*
X022880Y002473D01*
X022880Y002479D01*
X022957Y002556D01*
X022957Y003074D01*
X022877Y003155D01*
X022900Y003168D01*
X022928Y003196D01*
X022947Y003230D01*
X022957Y003268D01*
X022957Y003456D01*
X022679Y003456D01*
X022679Y003513D01*
X022957Y003513D01*
X022957Y003701D01*
X022947Y003739D01*
X022928Y003774D01*
X022900Y003802D01*
X022865Y003821D01*
X022827Y003831D01*
X022679Y003831D01*
X022679Y003513D01*
X022621Y003513D01*
X022621Y003456D01*
X022343Y003456D01*
X022343Y003268D01*
X022353Y003230D01*
X022372Y003196D01*
X022400Y003168D01*
X022423Y003155D01*
X022343Y003074D01*
X022343Y002556D01*
X022420Y002479D01*
X022420Y002263D01*
X022402Y002219D01*
X022402Y002081D01*
X022455Y001953D01*
X022553Y001855D01*
X022681Y001802D01*
X022819Y001802D01*
X022626Y001825D02*
X021965Y001825D01*
X021965Y001923D02*
X022485Y001923D01*
X022426Y002022D02*
X021965Y002022D01*
X022402Y002120D02*
X020873Y002120D01*
X020871Y002118D02*
X021048Y002295D01*
X021143Y002525D01*
X021143Y002775D01*
X021053Y002992D01*
X021877Y002992D01*
X021965Y003080D01*
X021965Y004189D01*
X031196Y004189D01*
X031196Y004287D02*
X016525Y004287D01*
X016427Y004189D02*
X017335Y004189D01*
X017335Y003080D01*
X017423Y002992D01*
X018247Y002992D01*
X018157Y002775D01*
X018157Y002525D01*
X018252Y002295D01*
X018429Y002118D01*
X018659Y002023D01*
X018909Y002023D01*
X019139Y002118D01*
X019316Y002295D01*
X019411Y002525D01*
X019411Y002775D01*
X019321Y002992D01*
X019450Y002992D01*
X019450Y002242D01*
X019355Y002147D01*
X019302Y002019D01*
X019302Y001881D01*
X019355Y001753D01*
X019453Y001655D01*
X019581Y001602D01*
X019719Y001602D01*
X019847Y001655D01*
X019900Y001708D01*
X019953Y001655D01*
X020081Y001602D01*
X020219Y001602D01*
X020347Y001655D01*
X020445Y001753D01*
X020498Y001881D01*
X020498Y002019D01*
X020497Y002023D01*
X020641Y002023D01*
X020871Y002118D01*
X020878Y002022D02*
X020497Y002022D01*
X020498Y001923D02*
X020878Y001923D01*
X020878Y001825D02*
X020475Y001825D01*
X020418Y001726D02*
X020878Y001726D01*
X020878Y001628D02*
X020281Y001628D01*
X020019Y001628D02*
X019781Y001628D01*
X019519Y001628D02*
X018422Y001628D01*
X018422Y001726D02*
X019382Y001726D01*
X019325Y001825D02*
X018422Y001825D01*
X018422Y001923D02*
X019302Y001923D01*
X019303Y002022D02*
X018422Y002022D01*
X018427Y002120D02*
X015570Y002120D01*
X015570Y002219D02*
X018328Y002219D01*
X018243Y002317D02*
X015570Y002317D01*
X015532Y002416D02*
X018202Y002416D01*
X018161Y002514D02*
X015491Y002514D01*
X015393Y002613D02*
X018157Y002613D01*
X018157Y002711D02*
X015223Y002711D01*
X014877Y002711D02*
X002489Y002711D01*
X002587Y002613D02*
X014707Y002613D01*
X014609Y002514D02*
X002686Y002514D01*
X002755Y002416D02*
X014568Y002416D01*
X014530Y002317D02*
X007015Y002317D01*
X007113Y002219D02*
X014530Y002219D01*
X014530Y002120D02*
X007212Y002120D01*
X007310Y002022D02*
X014569Y002022D01*
X014612Y001923D02*
X007375Y001923D01*
X007375Y001825D02*
X014710Y001825D01*
X014884Y001726D02*
X007375Y001726D01*
X007068Y001037D02*
X009803Y001037D01*
X009830Y000938D02*
X006970Y000938D01*
X006299Y000938D02*
X005001Y000938D01*
X004972Y000909D02*
X005406Y001343D01*
X005406Y001600D01*
X004716Y001600D01*
X004716Y001700D01*
X005406Y001700D01*
X005406Y001957D01*
X004972Y002391D01*
X004716Y002391D01*
X004716Y001700D01*
X004616Y001700D01*
X004616Y002391D01*
X004359Y002391D01*
X003925Y001957D01*
X003925Y001700D01*
X004616Y001700D01*
X004616Y001600D01*
X004716Y001600D01*
X004716Y000909D01*
X004972Y000909D01*
X005100Y001037D02*
X006200Y001037D01*
X006102Y001135D02*
X005198Y001135D01*
X005297Y001234D02*
X006003Y001234D01*
X005905Y001332D02*
X005395Y001332D01*
X005406Y001431D02*
X005894Y001431D01*
X005894Y001529D02*
X005406Y001529D01*
X005406Y001726D02*
X005894Y001726D01*
X005894Y001628D02*
X004716Y001628D01*
X004716Y001726D02*
X004616Y001726D01*
X004616Y001628D02*
X002962Y001628D01*
X002962Y001726D02*
X003925Y001726D01*
X003925Y001825D02*
X002962Y001825D01*
X002953Y001923D02*
X003925Y001923D01*
X003990Y002022D02*
X002926Y002022D01*
X002900Y002120D02*
X004088Y002120D01*
X004187Y002219D02*
X002869Y002219D01*
X002812Y002317D02*
X004285Y002317D01*
X004616Y002317D02*
X004716Y002317D01*
X004716Y002219D02*
X004616Y002219D01*
X004616Y002120D02*
X004716Y002120D01*
X004716Y002022D02*
X004616Y002022D01*
X004616Y001923D02*
X004716Y001923D01*
X004716Y001825D02*
X004616Y001825D01*
X004616Y001600D02*
X003925Y001600D01*
X003925Y001343D01*
X004359Y000909D01*
X004616Y000909D01*
X004616Y001600D01*
X004616Y001529D02*
X004716Y001529D01*
X004716Y001431D02*
X004616Y001431D01*
X004616Y001332D02*
X004716Y001332D01*
X004716Y001234D02*
X004616Y001234D01*
X004616Y001135D02*
X004716Y001135D01*
X004716Y001037D02*
X004616Y001037D01*
X004616Y000938D02*
X004716Y000938D01*
X004330Y000938D02*
X002688Y000938D01*
X002756Y001037D02*
X004232Y001037D01*
X004133Y001135D02*
X002813Y001135D01*
X002870Y001234D02*
X004035Y001234D01*
X003936Y001332D02*
X002901Y001332D01*
X002927Y001431D02*
X003925Y001431D01*
X003925Y001529D02*
X002953Y001529D01*
X002589Y000840D02*
X009929Y000840D01*
X010027Y000741D02*
X002491Y000741D01*
X000638Y002317D02*
X000600Y002317D01*
X000600Y002416D02*
X000695Y002416D01*
X000764Y002514D02*
X000600Y002514D01*
X000600Y002613D02*
X000863Y002613D01*
X000961Y002711D02*
X000600Y002711D01*
X000600Y002810D02*
X001129Y002810D01*
X001360Y002908D02*
X000600Y002908D01*
X000600Y003007D02*
X017408Y003007D01*
X017335Y003105D02*
X000600Y003105D01*
X000600Y003204D02*
X006453Y003204D01*
X006437Y003210D02*
X006565Y003157D01*
X006703Y003157D01*
X006795Y003195D01*
X015367Y003195D01*
X015481Y003243D01*
X017655Y005417D01*
X017747Y005455D01*
X017845Y005553D01*
X017898Y005681D01*
X017898Y005819D01*
X017845Y005947D01*
X017747Y006045D01*
X017619Y006098D01*
X017481Y006098D01*
X017353Y006045D01*
X017255Y005947D01*
X017217Y005855D01*
X015177Y003815D01*
X006795Y003815D01*
X006703Y003853D01*
X006565Y003853D01*
X006437Y003800D01*
X006339Y003703D01*
X006286Y003575D01*
X006286Y003436D01*
X006339Y003308D01*
X006437Y003210D01*
X006345Y003302D02*
X000600Y003302D01*
X000600Y003401D02*
X006301Y003401D01*
X006286Y003499D02*
X000600Y003499D01*
X000600Y003598D02*
X006296Y003598D01*
X006336Y003696D02*
X000600Y003696D01*
X000600Y003795D02*
X006431Y003795D01*
X006254Y002317D02*
X005046Y002317D01*
X005145Y002219D02*
X006155Y002219D01*
X006057Y002120D02*
X005243Y002120D01*
X005342Y002022D02*
X005958Y002022D01*
X005894Y001923D02*
X005406Y001923D01*
X005406Y001825D02*
X005894Y001825D01*
X002321Y002810D02*
X018171Y002810D01*
X018212Y002908D02*
X002090Y002908D01*
X000600Y003893D02*
X015255Y003893D01*
X015353Y003992D02*
X000600Y003992D01*
X000600Y004090D02*
X015452Y004090D01*
X015550Y004189D02*
X000600Y004189D01*
X000600Y004287D02*
X015649Y004287D01*
X015747Y004386D02*
X000600Y004386D01*
X000600Y004484D02*
X015846Y004484D01*
X015944Y004583D02*
X000600Y004583D01*
X000600Y004681D02*
X001747Y004681D01*
X001758Y004670D02*
X002542Y004670D01*
X002630Y004758D01*
X002630Y005542D01*
X002542Y005630D01*
X001758Y005630D01*
X001670Y005542D01*
X001670Y004758D01*
X001758Y004670D01*
X001670Y004780D02*
X000600Y004780D01*
X000600Y004878D02*
X001670Y004878D01*
X001670Y004977D02*
X000600Y004977D01*
X000600Y005075D02*
X001670Y005075D01*
X001670Y005174D02*
X000600Y005174D01*
X000600Y005272D02*
X001670Y005272D01*
X001670Y005371D02*
X000600Y005371D01*
X000600Y005469D02*
X001670Y005469D01*
X001695Y005568D02*
X000600Y005568D01*
X000600Y005666D02*
X014750Y005666D01*
X014750Y005642D02*
X014655Y005547D01*
X014602Y005419D01*
X014602Y005281D01*
X014655Y005153D01*
X014753Y005055D01*
X014881Y005002D01*
X015019Y005002D01*
X015147Y005055D01*
X015245Y005153D01*
X015298Y005281D01*
X015298Y005419D01*
X015245Y005547D01*
X015150Y005642D01*
X015150Y008467D01*
X015694Y009011D01*
X015694Y008850D01*
X015667Y008850D01*
X015550Y008733D01*
X015335Y008518D01*
X015335Y007643D01*
X015240Y007548D01*
X015187Y007420D01*
X015187Y007281D01*
X015240Y007154D01*
X015338Y007056D01*
X015466Y007003D01*
X015605Y007003D01*
X015733Y007056D01*
X015831Y007154D01*
X015884Y007281D01*
X015884Y007420D01*
X015831Y007548D01*
X015735Y007643D01*
X015735Y008353D01*
X015833Y008450D01*
X015943Y008450D01*
X015943Y008326D01*
X015735Y008326D01*
X015735Y008227D02*
X015995Y008227D01*
X016000Y008232D02*
X015972Y008204D01*
X015953Y008170D01*
X015943Y008132D01*
X015943Y007944D01*
X016221Y007944D01*
X016221Y007887D01*
X015943Y007887D01*
X015943Y007699D01*
X015953Y007661D01*
X015972Y007626D01*
X016000Y007598D01*
X016035Y007579D01*
X016073Y007569D01*
X016221Y007569D01*
X016221Y007887D01*
X016279Y007887D01*
X016279Y007569D01*
X016427Y007569D01*
X016465Y007579D01*
X016500Y007598D01*
X016528Y007626D01*
X016547Y007661D01*
X016557Y007699D01*
X016557Y007860D01*
X016579Y007838D01*
X016581Y007838D01*
X019050Y005465D01*
X019050Y005167D01*
X019402Y004815D01*
X019402Y004681D01*
X016919Y004681D01*
X016821Y004583D02*
X019443Y004583D01*
X019455Y004553D02*
X019553Y004455D01*
X019681Y004402D01*
X019819Y004402D01*
X019947Y004455D01*
X020045Y004553D01*
X020098Y004681D01*
X031196Y004681D01*
X031196Y004583D02*
X020057Y004583D01*
X020098Y004681D02*
X020098Y004819D01*
X020045Y004947D01*
X019947Y005045D01*
X019819Y005098D01*
X019685Y005098D01*
X019450Y005333D01*
X019450Y005469D01*
X019720Y005469D01*
X019824Y005371D02*
X019450Y005371D01*
X019450Y005469D02*
X019452Y005471D01*
X019450Y005552D01*
X019450Y005633D01*
X019448Y005634D01*
X019448Y005637D01*
X019390Y005693D01*
X019333Y005750D01*
X019331Y005750D01*
X016862Y008123D01*
X016862Y008160D01*
X020002Y005203D01*
X020002Y005081D01*
X020055Y004953D01*
X020153Y004855D01*
X020281Y004802D01*
X020419Y004802D01*
X020547Y004855D01*
X020645Y004953D01*
X020698Y005081D01*
X020698Y005219D01*
X020645Y005347D01*
X020547Y005445D01*
X020419Y005498D01*
X020281Y005498D01*
X020275Y005496D01*
X018592Y007080D01*
X020704Y007080D01*
X020803Y007121D01*
X021003Y007321D01*
X021079Y007397D01*
X021120Y007496D01*
X021120Y009604D01*
X021079Y009703D01*
X020879Y009903D01*
X020803Y009979D01*
X020704Y010020D01*
X019921Y010020D01*
X019928Y010026D01*
X019947Y010061D01*
X019957Y010099D01*
X019957Y010287D01*
X019679Y010287D01*
X019679Y010344D01*
X019957Y010344D01*
X019957Y010532D01*
X019947Y010570D01*
X019928Y010604D01*
X019900Y010632D01*
X019877Y010645D01*
X019957Y010726D01*
X019957Y010850D01*
X020102Y010850D01*
X020102Y010781D01*
X020155Y010653D01*
X020253Y010555D01*
X020381Y010502D01*
X020519Y010502D01*
X020647Y010555D01*
X020745Y010653D01*
X020798Y010781D01*
X020798Y010919D01*
X020745Y011047D01*
X020647Y011145D01*
X020519Y011198D01*
X020485Y011198D01*
X020477Y011206D01*
X024311Y011206D01*
X024350Y011167D01*
X024350Y009467D01*
X024450Y009367D01*
X024567Y009250D01*
X024758Y009250D01*
X024853Y009155D01*
X024854Y009154D01*
X024763Y009154D01*
X024724Y009144D01*
X024690Y009124D01*
X024662Y009096D01*
X024643Y009062D01*
X024632Y009024D01*
X024632Y008948D01*
X024566Y008948D01*
X024467Y008850D01*
X024350Y008733D01*
X024350Y007067D01*
X024550Y006867D01*
X024667Y006750D01*
X026965Y006750D01*
X027081Y006702D01*
X027219Y006702D01*
X027347Y006755D01*
X027445Y006853D01*
X027498Y006981D01*
X027498Y007119D01*
X027445Y007247D01*
X027347Y007345D01*
X027219Y007398D01*
X027081Y007398D01*
X026953Y007345D01*
X026855Y007247D01*
X026815Y007150D01*
X024833Y007150D01*
X024750Y007233D01*
X024750Y008146D01*
X025159Y008146D01*
X025164Y008150D01*
X025315Y008150D01*
X025302Y008119D01*
X025302Y007981D01*
X025355Y007853D01*
X025453Y007755D01*
X025581Y007702D01*
X025719Y007702D01*
X025847Y007755D01*
X025945Y007853D01*
X025998Y007981D01*
X025998Y008115D01*
X026029Y008146D01*
X026380Y008146D01*
X026468Y008234D01*
X026468Y008352D01*
X028050Y008352D01*
X028050Y007142D01*
X027955Y007047D01*
X027902Y006919D01*
X027902Y006781D01*
X027955Y006653D01*
X028053Y006555D01*
X028181Y006502D01*
X028319Y006502D01*
X028447Y006555D01*
X028545Y006653D01*
X028598Y006781D01*
X028598Y006919D01*
X028545Y007047D01*
X028450Y007142D01*
X028450Y008533D01*
X028333Y008650D01*
X028231Y008752D01*
X026734Y008752D01*
X026750Y008767D01*
X026750Y009158D01*
X026845Y009253D01*
X026898Y009381D01*
X026898Y009519D01*
X026845Y009647D01*
X026747Y009745D01*
X026619Y009798D01*
X026481Y009798D01*
X026353Y009745D01*
X026255Y009647D01*
X026202Y009519D01*
X026202Y009381D01*
X026255Y009253D01*
X026350Y009158D01*
X026350Y009154D01*
X026050Y009154D01*
X026050Y011920D01*
X025997Y011974D01*
X027744Y011974D01*
X028650Y011067D01*
X028767Y010950D01*
X029670Y010950D01*
X029670Y010758D01*
X029758Y010670D01*
X030542Y010670D01*
X030630Y010758D01*
X030630Y011542D01*
X030542Y011630D01*
X029758Y011630D01*
X029670Y011542D01*
X029670Y011350D01*
X028933Y011350D01*
X027909Y012374D01*
X027056Y012374D01*
X027150Y012467D01*
X027150Y015867D01*
X027233Y015950D01*
X027869Y015950D01*
X027869Y015930D01*
X027956Y015843D01*
X028474Y015843D01*
X028550Y015918D01*
X028626Y015843D01*
X029144Y015843D01*
X029231Y015930D01*
X029231Y015950D01*
X029671Y015950D01*
X029951Y015670D01*
X030349Y015670D01*
X030630Y015951D01*
X030630Y016349D01*
X030349Y016630D01*
X029951Y016630D01*
X029671Y016350D01*
X029231Y016350D01*
X029231Y016370D01*
X029144Y016457D01*
X028626Y016457D01*
X028550Y016382D01*
X028474Y016457D01*
X027956Y016457D01*
X027869Y016370D01*
X027869Y016350D01*
X027067Y016350D01*
X026950Y016233D01*
X026750Y016033D01*
X026750Y012633D01*
X026747Y012630D01*
X017963Y012630D01*
X017944Y012648D01*
X017648Y012648D01*
X017648Y012944D01*
X017630Y012963D01*
X017630Y013347D01*
X022533Y018250D01*
X027833Y018250D01*
X028033Y018450D01*
X028150Y018567D01*
X028150Y021567D01*
X028233Y021650D01*
X029671Y021650D01*
X029951Y021370D01*
X030349Y021370D01*
X030630Y021651D01*
X030630Y022049D01*
X030349Y022330D01*
X029951Y022330D01*
X029671Y022050D01*
X028067Y022050D01*
X027950Y021933D01*
X027750Y021733D01*
X027750Y018733D01*
X027667Y018650D01*
X022533Y018650D01*
X022742Y018859D01*
X023152Y018859D01*
X023155Y018853D01*
X023253Y018755D01*
X023381Y018702D01*
X023519Y018702D01*
X023647Y018755D01*
X023745Y018853D01*
X023798Y018981D01*
X023798Y019119D01*
X023745Y019247D01*
X023647Y019345D01*
X023519Y019398D01*
X023381Y019398D01*
X023253Y019345D01*
X023167Y019259D01*
X022742Y019259D01*
X023033Y019550D01*
X025567Y019550D01*
X025602Y019515D01*
X025602Y019381D01*
X025655Y019253D01*
X025753Y019155D01*
X025881Y019102D01*
X026019Y019102D01*
X026147Y019155D01*
X026245Y019253D01*
X026298Y019381D01*
X026298Y019519D01*
X026245Y019647D01*
X026147Y019745D01*
X026019Y019798D01*
X025885Y019798D01*
X025733Y019950D01*
X022867Y019950D01*
X022750Y019833D01*
X016331Y013414D01*
X016331Y013670D01*
X016244Y013757D01*
X016185Y013757D01*
X016185Y013798D01*
X016110Y013873D01*
X016165Y013873D01*
X016680Y014011D01*
X017141Y014278D01*
X017518Y014655D01*
X017785Y015116D01*
X017923Y015631D01*
X017923Y016165D01*
X017785Y016680D01*
X017518Y017141D01*
X017141Y017518D01*
X016680Y017785D01*
X016165Y017923D01*
X015631Y017923D01*
X015116Y017785D01*
X014655Y017518D01*
X014278Y017141D01*
X014011Y016680D01*
X013873Y016165D01*
X013873Y015631D01*
X014011Y015116D01*
X014278Y014655D01*
X014655Y014278D01*
X015049Y014050D01*
X014267Y014050D01*
X014167Y013950D01*
X014050Y013833D01*
X014050Y013742D01*
X013955Y013647D01*
X013902Y013519D01*
X013902Y013381D01*
X013955Y013253D01*
X013958Y013250D01*
X012633Y013250D01*
X012550Y013333D01*
X012550Y023067D01*
X016185Y026702D01*
X016319Y026702D01*
X016447Y026755D01*
X016545Y026853D01*
X016598Y026981D01*
X016598Y027119D01*
X016545Y027247D01*
X016447Y027345D01*
X016319Y027398D01*
X016181Y027398D01*
X016053Y027345D01*
X015955Y027247D01*
X015902Y027119D01*
X015902Y026985D01*
X015898Y026981D01*
X015898Y027119D01*
X015845Y027247D01*
X015747Y027345D01*
X015619Y027398D01*
X015481Y027398D01*
X015353Y027345D01*
X015255Y027247D01*
X015202Y027119D01*
X015202Y026985D01*
X011750Y023533D01*
X011750Y012867D01*
X011867Y012750D01*
X011988Y012630D01*
X011852Y012630D01*
X011845Y012647D01*
X011747Y012745D01*
X011619Y012798D01*
X011481Y012798D01*
X011353Y012745D01*
X011255Y012647D01*
X011202Y012519D01*
X011202Y012398D01*
X011081Y012398D01*
X010953Y012345D01*
X010855Y012247D01*
X010802Y012119D01*
X010802Y011998D01*
X010681Y011998D01*
X010553Y011945D01*
X010455Y011847D01*
X010402Y011719D01*
X010402Y011598D01*
X010281Y011598D01*
X010160Y011548D01*
X010160Y023289D01*
X010198Y023381D01*
X010198Y023519D01*
X010160Y023611D01*
X010160Y024212D01*
X010113Y024326D01*
X009960Y024478D01*
X009960Y025440D01*
X010289Y025440D01*
X010381Y025402D01*
X010519Y025402D01*
X010647Y025455D01*
X010742Y025550D01*
X013333Y025550D01*
X013450Y025667D01*
X015050Y027267D01*
X015050Y029258D01*
X015142Y029350D01*
X016758Y029350D01*
X016853Y029255D01*
X016981Y029202D01*
X017119Y029202D01*
X017247Y029255D01*
X017345Y029353D01*
X017398Y029481D01*
X017398Y029619D01*
X017345Y029747D01*
X017247Y029845D01*
X017119Y029898D01*
X016981Y029898D01*
X016853Y029845D01*
X016758Y029750D01*
X015142Y029750D01*
X015047Y029845D01*
X014919Y029898D01*
X014781Y029898D01*
X014653Y029845D01*
X014555Y029747D01*
X014502Y029619D01*
X014502Y029481D01*
X014555Y029353D01*
X014650Y029258D01*
X014650Y027433D01*
X013167Y025950D01*
X010742Y025950D01*
X010647Y026045D01*
X010519Y026098D01*
X010381Y026098D01*
X010289Y026060D01*
X009960Y026060D01*
X009960Y027012D01*
X009913Y027126D01*
X009826Y027213D01*
X009712Y027260D01*
X009311Y027260D01*
X009219Y027298D01*
X009081Y027298D01*
X008989Y027260D01*
X007288Y027260D01*
X007174Y027213D01*
X007074Y027113D01*
X006987Y027026D01*
X006940Y026912D01*
X006940Y026911D01*
X006902Y026819D01*
X006902Y026681D01*
X006955Y026553D01*
X007053Y026455D01*
X007181Y026402D01*
X007319Y026402D01*
X007447Y026455D01*
X007545Y026553D01*
X007581Y026640D01*
X008989Y026640D01*
X009081Y026602D01*
X009219Y026602D01*
X009311Y026640D01*
X009340Y026640D01*
X009340Y024660D01*
X007711Y024660D01*
X007619Y024698D01*
X007481Y024698D01*
X007353Y024645D01*
X007255Y024547D01*
X007202Y024419D01*
X007202Y024281D01*
X007255Y024153D01*
X007353Y024055D01*
X007481Y024002D01*
X007619Y024002D01*
X007711Y024040D01*
X009522Y024040D01*
X009540Y024022D01*
X009540Y023611D01*
X009502Y023519D01*
X009502Y023381D01*
X009540Y023289D01*
X009540Y007511D01*
X009502Y007419D01*
X009502Y007281D01*
X009555Y007153D01*
X009653Y007055D01*
X009781Y007002D01*
X009919Y007002D01*
X010047Y007055D01*
X010145Y007153D01*
X010198Y007281D01*
X010198Y007419D01*
X010160Y007511D01*
X010160Y010952D01*
X010281Y010902D01*
X010419Y010902D01*
X010547Y010955D01*
X010640Y011048D01*
X010634Y011024D01*
X010634Y010700D01*
X011049Y010700D01*
X011049Y010600D01*
X011149Y010600D01*
X011149Y010700D01*
X011564Y010700D01*
X011564Y011024D01*
X011557Y011050D01*
X011733Y011050D01*
X011736Y011053D01*
X011736Y010234D01*
X011824Y010146D01*
X012578Y010146D01*
X012666Y010234D01*
X012666Y011066D01*
X012578Y011154D01*
X012350Y011154D01*
X012350Y011167D01*
X012389Y011206D01*
X014268Y011206D01*
X014268Y011150D01*
X014268Y011094D01*
X013111Y011094D01*
X012967Y010950D01*
X012850Y010833D01*
X012850Y010050D01*
X010942Y010050D01*
X010847Y010145D01*
X010846Y010146D01*
X011049Y010146D01*
X011049Y010600D01*
X010634Y010600D01*
X010634Y010276D01*
X010644Y010238D01*
X010664Y010204D01*
X010669Y010198D01*
X010581Y010198D01*
X010453Y010145D01*
X010355Y010047D01*
X010302Y009919D01*
X010302Y009781D01*
X010355Y009653D01*
X010453Y009555D01*
X010581Y009502D01*
X010719Y009502D01*
X010847Y009555D01*
X010942Y009650D01*
X011058Y009650D01*
X011055Y009647D01*
X011002Y009519D01*
X011002Y009381D01*
X011055Y009253D01*
X011153Y009155D01*
X011281Y009102D01*
X011419Y009102D01*
X011547Y009155D01*
X011642Y009250D01*
X011658Y009250D01*
X011655Y009247D01*
X011602Y009119D01*
X011602Y008981D01*
X011655Y008853D01*
X011753Y008755D01*
X011881Y008702D01*
X012019Y008702D01*
X012147Y008755D01*
X012242Y008850D01*
X012358Y008850D01*
X012355Y008847D01*
X012302Y008719D01*
X012302Y008581D01*
X012355Y008453D01*
X012453Y008355D01*
X012581Y008302D01*
X012719Y008302D01*
X012847Y008355D01*
X012942Y008450D01*
X013058Y008450D01*
X013055Y008447D01*
X013002Y008319D01*
X013002Y008181D01*
X013055Y008053D01*
X013058Y008050D01*
X012942Y008050D01*
X012847Y008145D01*
X012719Y008198D01*
X012581Y008198D01*
X012453Y008145D01*
X012355Y008047D01*
X012302Y007919D01*
X012302Y007781D01*
X012355Y007653D01*
X012453Y007555D01*
X012581Y007502D01*
X012719Y007502D01*
X012847Y007555D01*
X012942Y007650D01*
X014533Y007650D01*
X014550Y007667D01*
X014550Y006433D01*
X014367Y006250D01*
X010842Y006250D01*
X010747Y006345D01*
X010619Y006398D01*
X010481Y006398D01*
X010353Y006345D01*
X010255Y006247D01*
X010202Y006119D01*
X010202Y005981D01*
X010255Y005853D01*
X010353Y005755D01*
X010481Y005702D01*
X010619Y005702D01*
X010747Y005755D01*
X010842Y005850D01*
X014533Y005850D01*
X014750Y006067D01*
X014750Y005642D01*
X014675Y005568D02*
X002605Y005568D01*
X002630Y005469D02*
X014623Y005469D01*
X014602Y005371D02*
X002630Y005371D01*
X002630Y005272D02*
X014606Y005272D01*
X014646Y005174D02*
X002630Y005174D01*
X002630Y005075D02*
X014733Y005075D01*
X014950Y005350D02*
X014950Y008550D01*
X015638Y009238D01*
X015638Y009575D01*
X015382Y009575D02*
X015382Y009282D01*
X014750Y008650D01*
X014750Y006350D01*
X014450Y006050D01*
X010550Y006050D01*
X010202Y006060D02*
X002630Y006060D01*
X002630Y006102D02*
X002198Y006102D01*
X002198Y006198D01*
X002102Y006198D01*
X002102Y006102D01*
X001670Y006102D01*
X001670Y005951D01*
X001951Y005670D01*
X002102Y005670D01*
X002102Y006102D01*
X002198Y006102D01*
X002198Y005670D01*
X002349Y005670D01*
X002630Y005951D01*
X002630Y006102D01*
X002630Y006198D02*
X002630Y006349D01*
X002349Y006630D01*
X002198Y006630D01*
X002198Y006198D01*
X002630Y006198D01*
X002630Y006257D02*
X010265Y006257D01*
X010218Y006159D02*
X002198Y006159D01*
X002102Y006159D02*
X000600Y006159D01*
X000600Y006257D02*
X001670Y006257D01*
X001670Y006198D02*
X002102Y006198D01*
X002102Y006630D01*
X001951Y006630D01*
X001670Y006349D01*
X001670Y006198D01*
X001670Y006060D02*
X000600Y006060D01*
X000600Y005962D02*
X001670Y005962D01*
X001758Y005863D02*
X000600Y005863D01*
X000600Y005765D02*
X001857Y005765D01*
X002102Y005765D02*
X002198Y005765D01*
X002198Y005863D02*
X002102Y005863D01*
X002102Y005962D02*
X002198Y005962D01*
X002198Y006060D02*
X002102Y006060D01*
X002102Y006257D02*
X002198Y006257D01*
X002198Y006356D02*
X002102Y006356D01*
X002102Y006454D02*
X002198Y006454D01*
X002198Y006553D02*
X002102Y006553D01*
X001874Y006553D02*
X000600Y006553D01*
X000600Y006651D02*
X014550Y006651D01*
X014550Y006553D02*
X002426Y006553D01*
X002525Y006454D02*
X014550Y006454D01*
X014473Y006356D02*
X010722Y006356D01*
X010835Y006257D02*
X014374Y006257D01*
X014644Y005962D02*
X014750Y005962D01*
X014743Y006060D02*
X014750Y006060D01*
X014750Y005863D02*
X014546Y005863D01*
X014750Y005765D02*
X010757Y005765D01*
X010343Y005765D02*
X002443Y005765D01*
X002542Y005863D02*
X010251Y005863D01*
X010210Y005962D02*
X002630Y005962D01*
X002623Y006356D02*
X010378Y006356D01*
X010023Y007045D02*
X014550Y007045D01*
X014550Y006947D02*
X000600Y006947D01*
X000600Y007045D02*
X009677Y007045D01*
X009564Y007144D02*
X000600Y007144D01*
X000600Y007242D02*
X009518Y007242D01*
X009502Y007341D02*
X000600Y007341D01*
X000600Y007439D02*
X001689Y007439D01*
X001670Y007458D02*
X001758Y007370D01*
X002542Y007370D01*
X002630Y007458D01*
X002630Y008242D01*
X002542Y008330D01*
X001758Y008330D01*
X001670Y008242D01*
X001670Y007458D01*
X001670Y007538D02*
X000600Y007538D01*
X000600Y007636D02*
X001670Y007636D01*
X001670Y007735D02*
X000600Y007735D01*
X000600Y007833D02*
X001670Y007833D01*
X001670Y007932D02*
X000600Y007932D01*
X000600Y008030D02*
X001670Y008030D01*
X001670Y008129D02*
X000600Y008129D01*
X000600Y008227D02*
X001670Y008227D01*
X001753Y008326D02*
X000600Y008326D01*
X000600Y008424D02*
X001897Y008424D01*
X001951Y008370D02*
X002349Y008370D01*
X002630Y008651D01*
X002630Y009049D01*
X002349Y009330D01*
X001951Y009330D01*
X001670Y009049D01*
X001670Y008651D01*
X001951Y008370D01*
X001799Y008523D02*
X000600Y008523D01*
X000600Y008621D02*
X001700Y008621D01*
X001670Y008720D02*
X000600Y008720D01*
X000600Y008818D02*
X001670Y008818D01*
X001670Y008917D02*
X000600Y008917D01*
X000600Y009015D02*
X001670Y009015D01*
X001735Y009114D02*
X000600Y009114D01*
X000600Y009212D02*
X001833Y009212D01*
X001932Y009311D02*
X000600Y009311D01*
X000600Y009409D02*
X001912Y009409D01*
X001951Y009370D02*
X002349Y009370D01*
X002630Y009651D01*
X002630Y010049D01*
X002349Y010330D01*
X001951Y010330D01*
X001670Y010049D01*
X001670Y009651D01*
X001951Y009370D01*
X001814Y009508D02*
X000600Y009508D01*
X000600Y009606D02*
X001715Y009606D01*
X001670Y009705D02*
X000600Y009705D01*
X000600Y009803D02*
X001670Y009803D01*
X001670Y009902D02*
X000600Y009902D01*
X000600Y010000D02*
X001670Y010000D01*
X001720Y010099D02*
X000600Y010099D01*
X000600Y010197D02*
X001818Y010197D01*
X001917Y010296D02*
X000600Y010296D01*
X000600Y010394D02*
X001927Y010394D01*
X001951Y010370D02*
X002349Y010370D01*
X002630Y010651D01*
X002630Y011049D01*
X002349Y011330D01*
X001951Y011330D01*
X001670Y011049D01*
X001670Y010651D01*
X001951Y010370D01*
X001829Y010493D02*
X000600Y010493D01*
X000600Y010591D02*
X001730Y010591D01*
X001670Y010690D02*
X000600Y010690D01*
X000600Y010788D02*
X001670Y010788D01*
X001670Y010887D02*
X000600Y010887D01*
X000600Y010985D02*
X001670Y010985D01*
X001705Y011084D02*
X000600Y011084D01*
X000600Y011182D02*
X001803Y011182D01*
X001902Y011281D02*
X000600Y011281D01*
X000600Y011379D02*
X001942Y011379D01*
X001951Y011370D02*
X002349Y011370D01*
X002630Y011651D01*
X002630Y012049D01*
X002349Y012330D01*
X001951Y012330D01*
X001670Y012049D01*
X001670Y011651D01*
X001951Y011370D01*
X001844Y011478D02*
X000600Y011478D01*
X000600Y011576D02*
X001745Y011576D01*
X001670Y011675D02*
X000600Y011675D01*
X000600Y011773D02*
X001670Y011773D01*
X001670Y011872D02*
X000600Y011872D01*
X000600Y011970D02*
X001670Y011970D01*
X001690Y012069D02*
X000600Y012069D01*
X000600Y012167D02*
X001788Y012167D01*
X001887Y012266D02*
X000600Y012266D01*
X000600Y012364D02*
X009540Y012364D01*
X009540Y012266D02*
X002413Y012266D01*
X002349Y012370D02*
X002630Y012651D01*
X002630Y013049D01*
X002349Y013330D01*
X001951Y013330D01*
X001670Y013049D01*
X001670Y012651D01*
X001951Y012370D01*
X002349Y012370D01*
X002441Y012463D02*
X009540Y012463D01*
X009540Y012561D02*
X002540Y012561D01*
X002630Y012660D02*
X009540Y012660D01*
X009540Y012758D02*
X002630Y012758D01*
X002630Y012857D02*
X009540Y012857D01*
X009540Y012955D02*
X002630Y012955D01*
X002625Y013054D02*
X009540Y013054D01*
X009540Y013152D02*
X002527Y013152D01*
X002428Y013251D02*
X009540Y013251D01*
X009540Y013349D02*
X000600Y013349D01*
X000600Y013251D02*
X001872Y013251D01*
X001773Y013152D02*
X000600Y013152D01*
X000600Y013054D02*
X001675Y013054D01*
X001670Y012955D02*
X000600Y012955D01*
X000600Y012857D02*
X001670Y012857D01*
X001670Y012758D02*
X000600Y012758D01*
X000600Y012660D02*
X001670Y012660D01*
X001760Y012561D02*
X000600Y012561D01*
X000600Y012463D02*
X001859Y012463D01*
X002512Y012167D02*
X009540Y012167D01*
X009540Y012069D02*
X002610Y012069D01*
X002630Y011970D02*
X009540Y011970D01*
X009540Y011872D02*
X002630Y011872D01*
X002630Y011773D02*
X009540Y011773D01*
X009540Y011675D02*
X002630Y011675D01*
X002555Y011576D02*
X009540Y011576D01*
X009540Y011478D02*
X002456Y011478D01*
X002358Y011379D02*
X009540Y011379D01*
X009540Y011281D02*
X002398Y011281D01*
X002497Y011182D02*
X009540Y011182D01*
X009540Y011084D02*
X002595Y011084D01*
X002630Y010985D02*
X009540Y010985D01*
X009540Y010887D02*
X002630Y010887D01*
X002630Y010788D02*
X009540Y010788D01*
X009540Y010690D02*
X002630Y010690D01*
X002570Y010591D02*
X009540Y010591D01*
X009540Y010493D02*
X002471Y010493D01*
X002373Y010394D02*
X009540Y010394D01*
X009540Y010296D02*
X002383Y010296D01*
X002482Y010197D02*
X009540Y010197D01*
X009540Y010099D02*
X002580Y010099D01*
X002630Y010000D02*
X009540Y010000D01*
X009540Y009902D02*
X002630Y009902D01*
X002630Y009803D02*
X009540Y009803D01*
X009540Y009705D02*
X002630Y009705D01*
X002585Y009606D02*
X009540Y009606D01*
X009540Y009508D02*
X002486Y009508D01*
X002388Y009409D02*
X009540Y009409D01*
X009540Y009311D02*
X002368Y009311D01*
X002467Y009212D02*
X009540Y009212D01*
X009540Y009114D02*
X002565Y009114D01*
X002630Y009015D02*
X009540Y009015D01*
X009540Y008917D02*
X002630Y008917D01*
X002630Y008818D02*
X009540Y008818D01*
X009540Y008720D02*
X002630Y008720D01*
X002600Y008621D02*
X009540Y008621D01*
X009540Y008523D02*
X002501Y008523D01*
X002403Y008424D02*
X009540Y008424D01*
X009540Y008326D02*
X002547Y008326D01*
X002630Y008227D02*
X009540Y008227D01*
X009540Y008129D02*
X002630Y008129D01*
X002630Y008030D02*
X009540Y008030D01*
X009540Y007932D02*
X002630Y007932D01*
X002630Y007833D02*
X009540Y007833D01*
X009540Y007735D02*
X002630Y007735D01*
X002630Y007636D02*
X009540Y007636D01*
X009540Y007538D02*
X002630Y007538D01*
X002611Y007439D02*
X009510Y007439D01*
X010160Y007538D02*
X012495Y007538D01*
X012372Y007636D02*
X010160Y007636D01*
X010160Y007735D02*
X012321Y007735D01*
X012302Y007833D02*
X010160Y007833D01*
X010160Y007932D02*
X012307Y007932D01*
X012348Y008030D02*
X010160Y008030D01*
X010160Y008129D02*
X012436Y008129D01*
X012524Y008326D02*
X010160Y008326D01*
X010160Y008424D02*
X012384Y008424D01*
X012326Y008523D02*
X010160Y008523D01*
X010160Y008621D02*
X012302Y008621D01*
X012302Y008720D02*
X012062Y008720D01*
X012210Y008818D02*
X012343Y008818D01*
X012650Y008650D02*
X013850Y008650D01*
X013950Y008750D01*
X013950Y010050D01*
X014026Y010126D01*
X014575Y010126D01*
X014575Y009870D02*
X014370Y009870D01*
X014250Y009750D01*
X014250Y008350D01*
X014150Y008250D01*
X013350Y008250D01*
X013024Y008129D02*
X012864Y008129D01*
X013002Y008227D02*
X010160Y008227D01*
X010160Y008720D02*
X011838Y008720D01*
X011690Y008818D02*
X010160Y008818D01*
X010160Y008917D02*
X011628Y008917D01*
X011602Y009015D02*
X010160Y009015D01*
X010160Y009114D02*
X011253Y009114D01*
X011096Y009212D02*
X010160Y009212D01*
X010160Y009311D02*
X011031Y009311D01*
X011002Y009409D02*
X010160Y009409D01*
X010160Y009508D02*
X010567Y009508D01*
X010733Y009508D02*
X011002Y009508D01*
X011038Y009606D02*
X010898Y009606D01*
X010650Y009850D02*
X012950Y009850D01*
X013050Y009950D01*
X013050Y010750D01*
X013194Y010894D01*
X014575Y010894D01*
X014575Y010638D02*
X013438Y010638D01*
X013350Y010550D01*
X013350Y009550D01*
X013250Y009450D01*
X011350Y009450D01*
X011604Y009212D02*
X011640Y009212D01*
X011602Y009114D02*
X011447Y009114D01*
X011950Y009050D02*
X013450Y009050D01*
X013550Y009150D01*
X013550Y010250D01*
X013682Y010382D01*
X014575Y010382D01*
X014883Y011100D02*
X014883Y011150D01*
X014883Y011200D01*
X016100Y011200D01*
X016100Y012417D01*
X016200Y012417D01*
X016200Y011200D01*
X016100Y011200D01*
X016100Y011100D01*
X014883Y011100D01*
X014883Y011150D02*
X014575Y011150D01*
X014268Y011150D01*
X014575Y011150D01*
X014575Y011150D01*
X014883Y011150D01*
X014883Y011182D02*
X016100Y011182D01*
X016100Y011100D02*
X016200Y011100D01*
X016200Y011200D01*
X017417Y011200D01*
X017417Y011100D01*
X016200Y011100D01*
X016200Y009883D01*
X016150Y009883D01*
X016100Y009883D01*
X016100Y011100D01*
X016100Y011084D02*
X016200Y011084D01*
X016200Y011182D02*
X017417Y011182D01*
X017725Y011150D02*
X019415Y011150D01*
X019650Y010985D01*
X019715Y011050D01*
X020350Y011050D01*
X020450Y010950D01*
X020450Y010850D01*
X020771Y010985D02*
X024350Y010985D01*
X024350Y010887D02*
X020798Y010887D01*
X020798Y010788D02*
X024350Y010788D01*
X024350Y010690D02*
X020760Y010690D01*
X020683Y010591D02*
X024350Y010591D01*
X024350Y010493D02*
X019957Y010493D01*
X019957Y010394D02*
X024350Y010394D01*
X024350Y010296D02*
X019679Y010296D01*
X019957Y010197D02*
X024350Y010197D01*
X024350Y010099D02*
X019957Y010099D01*
X019935Y010591D02*
X020217Y010591D01*
X020140Y010690D02*
X019921Y010690D01*
X019957Y010788D02*
X020102Y010788D01*
X020558Y011182D02*
X024335Y011182D01*
X024350Y011084D02*
X020709Y011084D01*
X020752Y010000D02*
X024350Y010000D01*
X024350Y009902D02*
X020880Y009902D01*
X020979Y009803D02*
X024350Y009803D01*
X024350Y009705D02*
X021077Y009705D01*
X021119Y009606D02*
X024350Y009606D01*
X024350Y009508D02*
X021120Y009508D01*
X021120Y009409D02*
X024408Y009409D01*
X024507Y009311D02*
X021120Y009311D01*
X021120Y009212D02*
X024796Y009212D01*
X024679Y009114D02*
X021120Y009114D01*
X021120Y009015D02*
X024632Y009015D01*
X024655Y008945D02*
X024550Y009050D01*
X024534Y008917D02*
X021120Y008917D01*
X021120Y008818D02*
X024435Y008818D01*
X024350Y008720D02*
X021120Y008720D01*
X021120Y008621D02*
X024350Y008621D01*
X024350Y008523D02*
X021120Y008523D01*
X021120Y008424D02*
X024350Y008424D01*
X024350Y008326D02*
X021120Y008326D01*
X021120Y008227D02*
X024350Y008227D01*
X024350Y008129D02*
X021120Y008129D01*
X021120Y008030D02*
X024350Y008030D01*
X024350Y007932D02*
X021120Y007932D01*
X021120Y007833D02*
X024350Y007833D01*
X024350Y007735D02*
X021120Y007735D01*
X021120Y007636D02*
X024350Y007636D01*
X024350Y007538D02*
X021120Y007538D01*
X021096Y007439D02*
X024350Y007439D01*
X024350Y007341D02*
X021022Y007341D01*
X020924Y007242D02*
X024350Y007242D01*
X024350Y007144D02*
X020825Y007144D01*
X020538Y007620D02*
X018396Y007620D01*
X018297Y007579D01*
X018221Y007503D01*
X018199Y007450D01*
X017783Y007843D01*
X018274Y007843D01*
X018355Y007923D01*
X018368Y007900D01*
X018396Y007872D01*
X018430Y007853D01*
X018468Y007843D01*
X018656Y007843D01*
X018656Y008121D01*
X018713Y008121D01*
X018713Y007843D01*
X018901Y007843D01*
X018939Y007853D01*
X018974Y007872D01*
X019002Y007900D01*
X019021Y007935D01*
X019031Y007973D01*
X019031Y008121D01*
X018713Y008121D01*
X018713Y008179D01*
X018656Y008179D01*
X018656Y008457D01*
X018529Y008457D01*
X018529Y008750D01*
X018733Y008750D01*
X018850Y008867D01*
X018950Y008967D01*
X018950Y010233D01*
X018833Y010350D01*
X018745Y010438D01*
X018779Y010438D01*
X018950Y010267D01*
X018950Y009067D01*
X019150Y008867D01*
X019267Y008750D01*
X019371Y008750D01*
X019371Y008457D01*
X019199Y008457D01*
X019161Y008447D01*
X019126Y008428D01*
X019098Y008400D01*
X019079Y008365D01*
X019069Y008327D01*
X019069Y008179D01*
X019387Y008179D01*
X019387Y008121D01*
X019444Y008121D01*
X019444Y007843D01*
X019632Y007843D01*
X019670Y007853D01*
X019704Y007872D01*
X019732Y007900D01*
X019745Y007923D01*
X019826Y007843D01*
X020344Y007843D01*
X020431Y007930D01*
X020431Y008370D01*
X020344Y008457D01*
X020183Y008457D01*
X020183Y009445D01*
X020148Y009480D01*
X020538Y009480D01*
X020580Y009438D01*
X020580Y007662D01*
X020538Y007620D01*
X020554Y007636D02*
X018002Y007636D01*
X018106Y007538D02*
X018256Y007538D01*
X017897Y007735D02*
X020580Y007735D01*
X020580Y007833D02*
X017793Y007833D01*
X018015Y008150D02*
X018015Y008842D01*
X018123Y008950D01*
X018650Y008950D01*
X018750Y009050D01*
X018750Y010150D01*
X018518Y010382D01*
X017725Y010382D01*
X017725Y010638D02*
X018862Y010638D01*
X019150Y010350D01*
X019150Y009150D01*
X019350Y008950D01*
X019777Y008950D01*
X019777Y008823D01*
X019950Y008650D01*
X019950Y008285D01*
X020085Y008150D01*
X020431Y008129D02*
X020580Y008129D01*
X020580Y008227D02*
X020431Y008227D01*
X020431Y008326D02*
X020580Y008326D01*
X020580Y008424D02*
X020377Y008424D01*
X020183Y008523D02*
X020580Y008523D01*
X020580Y008621D02*
X020183Y008621D01*
X020183Y008720D02*
X020580Y008720D01*
X020580Y008818D02*
X020183Y008818D01*
X020183Y008917D02*
X020580Y008917D01*
X020580Y009015D02*
X020183Y009015D01*
X020183Y009114D02*
X020580Y009114D01*
X020580Y009212D02*
X020183Y009212D01*
X020183Y009311D02*
X020580Y009311D01*
X020580Y009409D02*
X020183Y009409D01*
X019371Y008720D02*
X018529Y008720D01*
X018529Y008621D02*
X019371Y008621D01*
X019371Y008523D02*
X018529Y008523D01*
X018656Y008424D02*
X018713Y008424D01*
X018713Y008457D02*
X018713Y008179D01*
X019031Y008179D01*
X019031Y008327D01*
X019021Y008365D01*
X019002Y008400D01*
X018974Y008428D01*
X018939Y008447D01*
X018901Y008457D01*
X018713Y008457D01*
X018713Y008326D02*
X018656Y008326D01*
X018656Y008227D02*
X018713Y008227D01*
X018713Y008129D02*
X019387Y008129D01*
X019387Y008121D02*
X019069Y008121D01*
X019069Y007973D01*
X019079Y007935D01*
X019098Y007900D01*
X019126Y007872D01*
X019161Y007853D01*
X019199Y007843D01*
X019387Y007843D01*
X019387Y008121D01*
X019387Y008030D02*
X019444Y008030D01*
X019444Y007932D02*
X019387Y007932D01*
X019081Y007932D02*
X019019Y007932D01*
X019031Y008030D02*
X019069Y008030D01*
X019069Y008227D02*
X019031Y008227D01*
X019031Y008326D02*
X019069Y008326D01*
X019123Y008424D02*
X018977Y008424D01*
X018801Y008818D02*
X019199Y008818D01*
X019101Y008917D02*
X018899Y008917D01*
X018950Y009015D02*
X019002Y009015D01*
X018950Y009114D02*
X018950Y009114D01*
X018950Y009212D02*
X018950Y009212D01*
X018950Y009311D02*
X018950Y009311D01*
X018950Y009409D02*
X018950Y009409D01*
X018950Y009508D02*
X018950Y009508D01*
X018950Y009606D02*
X018950Y009606D01*
X018950Y009705D02*
X018950Y009705D01*
X018950Y009803D02*
X018950Y009803D01*
X018950Y009902D02*
X018950Y009902D01*
X018950Y010000D02*
X018950Y010000D01*
X018950Y010099D02*
X018950Y010099D01*
X018950Y010197D02*
X018950Y010197D01*
X018922Y010296D02*
X018887Y010296D01*
X018823Y010394D02*
X018789Y010394D01*
X019093Y010690D02*
X019379Y010690D01*
X019343Y010726D02*
X019423Y010645D01*
X019400Y010632D01*
X019372Y010604D01*
X019353Y010570D01*
X019343Y010532D01*
X019343Y010440D01*
X019233Y010550D01*
X018945Y010838D01*
X018779Y010838D01*
X018032Y010838D01*
X018032Y010894D01*
X017725Y010894D01*
X017725Y010894D01*
X018032Y010894D01*
X018032Y010950D01*
X019343Y010950D01*
X019343Y010726D01*
X019343Y010788D02*
X018995Y010788D01*
X019192Y010591D02*
X019365Y010591D01*
X019343Y010493D02*
X019290Y010493D01*
X019343Y010887D02*
X018032Y010887D01*
X017725Y010894D02*
X017206Y010894D01*
X017206Y010806D01*
X017050Y010650D01*
X017050Y010350D01*
X017206Y010894D02*
X017150Y010950D01*
X017725Y011406D02*
X024394Y011406D01*
X024550Y011250D01*
X024550Y009550D01*
X024650Y009450D01*
X025050Y009450D01*
X025250Y009450D01*
X025350Y009350D01*
X025350Y008650D01*
X025250Y008550D01*
X024941Y008550D01*
X024940Y008552D01*
X024938Y008550D01*
X024940Y008355D02*
X024944Y008350D01*
X025450Y008350D01*
X025550Y008450D01*
X025550Y011450D01*
X025338Y011662D01*
X017725Y011662D01*
X017725Y011918D02*
X025770Y011918D01*
X025850Y011838D01*
X025850Y009050D01*
X025950Y008950D01*
X026156Y008950D01*
X026160Y008945D01*
X026160Y008748D02*
X026448Y008748D01*
X026550Y008850D01*
X026550Y009450D01*
X026869Y009311D02*
X031196Y009311D01*
X031196Y009409D02*
X026898Y009409D01*
X026898Y009508D02*
X031196Y009508D01*
X031196Y009606D02*
X026862Y009606D01*
X026788Y009705D02*
X031196Y009705D01*
X031196Y009803D02*
X026050Y009803D01*
X026050Y009705D02*
X026312Y009705D01*
X026238Y009606D02*
X026050Y009606D01*
X026050Y009508D02*
X026202Y009508D01*
X026202Y009409D02*
X026050Y009409D01*
X026050Y009311D02*
X026231Y009311D01*
X026296Y009212D02*
X026050Y009212D01*
X026160Y008552D02*
X028148Y008552D01*
X028250Y008450D01*
X028250Y006850D01*
X028598Y006848D02*
X029820Y006848D01*
X029722Y006947D02*
X028587Y006947D01*
X028546Y007045D02*
X029703Y007045D01*
X029703Y006965D02*
X029965Y006703D01*
X030335Y006703D01*
X030597Y006965D01*
X030597Y007335D01*
X030335Y007597D01*
X029965Y007597D01*
X029703Y007335D01*
X029703Y006965D01*
X029703Y007144D02*
X028450Y007144D01*
X028450Y007242D02*
X029703Y007242D01*
X029709Y007341D02*
X028450Y007341D01*
X028450Y007439D02*
X029807Y007439D01*
X029906Y007538D02*
X028450Y007538D01*
X028450Y007636D02*
X031196Y007636D01*
X031196Y007538D02*
X030394Y007538D01*
X030493Y007439D02*
X031196Y007439D01*
X031196Y007341D02*
X030591Y007341D01*
X030597Y007242D02*
X031196Y007242D01*
X031196Y007144D02*
X030597Y007144D01*
X030597Y007045D02*
X031196Y007045D01*
X031196Y006947D02*
X030578Y006947D01*
X030480Y006848D02*
X031196Y006848D01*
X031196Y006750D02*
X030381Y006750D01*
X030335Y006597D02*
X029965Y006597D01*
X029703Y006335D01*
X029703Y005965D01*
X029965Y005703D01*
X030335Y005703D01*
X030597Y005965D01*
X030597Y006335D01*
X030335Y006597D01*
X030379Y006553D02*
X031196Y006553D01*
X031196Y006651D02*
X028543Y006651D01*
X028585Y006750D02*
X029919Y006750D01*
X029921Y006553D02*
X028441Y006553D01*
X028059Y006553D02*
X019152Y006553D01*
X019048Y006651D02*
X027957Y006651D01*
X027915Y006750D02*
X027334Y006750D01*
X027440Y006848D02*
X027902Y006848D01*
X027913Y006947D02*
X027484Y006947D01*
X027498Y007045D02*
X027954Y007045D01*
X028050Y007144D02*
X027488Y007144D01*
X027447Y007242D02*
X028050Y007242D01*
X028050Y007341D02*
X027352Y007341D01*
X027150Y007050D02*
X027050Y006950D01*
X024750Y006950D01*
X024550Y007150D01*
X024550Y008650D01*
X024648Y008748D01*
X024940Y008748D01*
X024940Y008945D02*
X024655Y008945D01*
X024750Y008129D02*
X025306Y008129D01*
X025302Y008030D02*
X024750Y008030D01*
X024750Y007932D02*
X025322Y007932D01*
X025375Y007833D02*
X024750Y007833D01*
X024750Y007735D02*
X025502Y007735D01*
X025798Y007735D02*
X028050Y007735D01*
X028050Y007833D02*
X025925Y007833D01*
X025978Y007932D02*
X028050Y007932D01*
X028050Y008030D02*
X025998Y008030D01*
X026011Y008129D02*
X028050Y008129D01*
X028050Y008227D02*
X026461Y008227D01*
X026468Y008326D02*
X028050Y008326D01*
X028450Y008326D02*
X029703Y008326D01*
X029703Y008335D02*
X029703Y007965D01*
X029965Y007703D01*
X030335Y007703D01*
X030597Y007965D01*
X030597Y008335D01*
X030335Y008597D01*
X029965Y008597D01*
X029703Y008335D01*
X029703Y008227D02*
X028450Y008227D01*
X028450Y008129D02*
X029703Y008129D01*
X029703Y008030D02*
X028450Y008030D01*
X028450Y007932D02*
X029737Y007932D01*
X029835Y007833D02*
X028450Y007833D01*
X028450Y007735D02*
X029934Y007735D01*
X030366Y007735D02*
X031196Y007735D01*
X031196Y007833D02*
X030465Y007833D01*
X030563Y007932D02*
X031196Y007932D01*
X031196Y008030D02*
X030597Y008030D01*
X030597Y008129D02*
X031196Y008129D01*
X031196Y008227D02*
X030597Y008227D01*
X030597Y008326D02*
X031196Y008326D01*
X031196Y008424D02*
X030508Y008424D01*
X030409Y008523D02*
X031196Y008523D01*
X031196Y008621D02*
X028362Y008621D01*
X028450Y008523D02*
X029891Y008523D01*
X029792Y008424D02*
X028450Y008424D01*
X028263Y008720D02*
X031196Y008720D01*
X031196Y008818D02*
X026750Y008818D01*
X026750Y008917D02*
X031196Y008917D01*
X031196Y009015D02*
X026750Y009015D01*
X026750Y009114D02*
X031196Y009114D01*
X031196Y009212D02*
X026804Y009212D01*
X026160Y008355D02*
X026156Y008350D01*
X025950Y008350D01*
X025650Y008050D01*
X024750Y007636D02*
X028050Y007636D01*
X028050Y007538D02*
X024750Y007538D01*
X024750Y007439D02*
X028050Y007439D01*
X026948Y007341D02*
X024750Y007341D01*
X024750Y007242D02*
X026853Y007242D01*
X026966Y006750D02*
X018943Y006750D01*
X018839Y006848D02*
X024569Y006848D01*
X024471Y006947D02*
X018734Y006947D01*
X018629Y007045D02*
X024372Y007045D01*
X020676Y005272D02*
X029703Y005272D01*
X029703Y005174D02*
X020698Y005174D01*
X020696Y005075D02*
X029703Y005075D01*
X029703Y004977D02*
X020655Y004977D01*
X020570Y004878D02*
X029703Y004878D01*
X029703Y004791D02*
X029791Y004703D01*
X030509Y004703D01*
X030597Y004791D01*
X030597Y005509D01*
X030509Y005597D01*
X029791Y005597D01*
X029703Y005509D01*
X029703Y004791D01*
X029715Y004780D02*
X020098Y004780D01*
X020074Y004878D02*
X020130Y004878D01*
X020045Y004977D02*
X020016Y004977D01*
X020004Y005075D02*
X019875Y005075D01*
X020002Y005174D02*
X019609Y005174D01*
X019511Y005272D02*
X019929Y005272D01*
X020198Y005568D02*
X029762Y005568D01*
X029703Y005469D02*
X020489Y005469D01*
X020622Y005371D02*
X029703Y005371D01*
X029904Y005765D02*
X019989Y005765D01*
X019885Y005863D02*
X029805Y005863D01*
X029707Y005962D02*
X019780Y005962D01*
X019675Y006060D02*
X029703Y006060D01*
X029703Y006159D02*
X019571Y006159D01*
X019466Y006257D02*
X029703Y006257D01*
X029724Y006356D02*
X019362Y006356D01*
X019257Y006454D02*
X029822Y006454D01*
X030478Y006454D02*
X031196Y006454D01*
X031196Y006356D02*
X030576Y006356D01*
X030597Y006257D02*
X031196Y006257D01*
X031196Y006159D02*
X030597Y006159D01*
X030597Y006060D02*
X031196Y006060D01*
X031196Y005962D02*
X030593Y005962D01*
X030495Y005863D02*
X031196Y005863D01*
X031196Y005765D02*
X030396Y005765D01*
X030538Y005568D02*
X031196Y005568D01*
X031196Y005666D02*
X020094Y005666D01*
X019615Y005568D02*
X019450Y005568D01*
X019418Y005666D02*
X019510Y005666D01*
X019406Y005765D02*
X019315Y005765D01*
X019301Y005863D02*
X019213Y005863D01*
X019197Y005962D02*
X019111Y005962D01*
X019092Y006060D02*
X019008Y006060D01*
X018987Y006159D02*
X018906Y006159D01*
X018883Y006257D02*
X018803Y006257D01*
X018778Y006356D02*
X018701Y006356D01*
X018674Y006454D02*
X018598Y006454D01*
X018569Y006553D02*
X018496Y006553D01*
X018464Y006651D02*
X018393Y006651D01*
X018360Y006750D02*
X018291Y006750D01*
X018255Y006848D02*
X018188Y006848D01*
X018151Y006947D02*
X018086Y006947D01*
X018046Y007045D02*
X017983Y007045D01*
X017941Y007144D02*
X017881Y007144D01*
X017837Y007242D02*
X017779Y007242D01*
X017732Y007341D02*
X017676Y007341D01*
X017628Y007439D02*
X017574Y007439D01*
X017523Y007538D02*
X017471Y007538D01*
X017418Y007636D02*
X017369Y007636D01*
X017314Y007735D02*
X017266Y007735D01*
X017209Y007833D02*
X017164Y007833D01*
X017105Y007932D02*
X017061Y007932D01*
X017000Y008030D02*
X016959Y008030D01*
X016895Y008129D02*
X016862Y008129D01*
X016662Y008038D02*
X019250Y005550D01*
X019250Y005250D01*
X019750Y004750D01*
X019976Y004484D02*
X031196Y004484D01*
X031196Y004386D02*
X016624Y004386D01*
X016722Y004484D02*
X019524Y004484D01*
X019455Y004553D02*
X019402Y004681D01*
X019402Y004780D02*
X017018Y004780D01*
X017116Y004878D02*
X019339Y004878D01*
X019241Y004977D02*
X017215Y004977D01*
X017313Y005075D02*
X019142Y005075D01*
X019050Y005174D02*
X017412Y005174D01*
X017510Y005272D02*
X019050Y005272D01*
X019050Y005371D02*
X017609Y005371D01*
X017761Y005469D02*
X019046Y005469D01*
X018943Y005568D02*
X017851Y005568D01*
X017892Y005666D02*
X018841Y005666D01*
X018738Y005765D02*
X017898Y005765D01*
X017880Y005863D02*
X018636Y005863D01*
X018533Y005962D02*
X017831Y005962D01*
X017711Y006060D02*
X018431Y006060D01*
X018328Y006159D02*
X015150Y006159D01*
X015150Y006257D02*
X018226Y006257D01*
X018124Y006356D02*
X015150Y006356D01*
X015150Y006454D02*
X018021Y006454D01*
X017919Y006553D02*
X015150Y006553D01*
X015150Y006651D02*
X017816Y006651D01*
X017714Y006750D02*
X015150Y006750D01*
X015150Y006848D02*
X017611Y006848D01*
X017509Y006947D02*
X015150Y006947D01*
X015150Y007045D02*
X015364Y007045D01*
X015250Y007144D02*
X015150Y007144D01*
X015150Y007242D02*
X015204Y007242D01*
X015187Y007341D02*
X015150Y007341D01*
X015150Y007439D02*
X015195Y007439D01*
X015236Y007538D02*
X015150Y007538D01*
X015150Y007636D02*
X015328Y007636D01*
X015335Y007735D02*
X015150Y007735D01*
X015150Y007833D02*
X015335Y007833D01*
X015335Y007932D02*
X015150Y007932D01*
X015150Y008030D02*
X015335Y008030D01*
X015335Y008129D02*
X015150Y008129D01*
X015150Y008227D02*
X015335Y008227D01*
X015335Y008326D02*
X015150Y008326D01*
X015150Y008424D02*
X015335Y008424D01*
X015340Y008523D02*
X015205Y008523D01*
X015304Y008621D02*
X015438Y008621D01*
X015402Y008720D02*
X015537Y008720D01*
X015501Y008818D02*
X015635Y008818D01*
X015599Y008917D02*
X015694Y008917D01*
X015750Y008650D02*
X015850Y008650D01*
X015894Y008694D01*
X015894Y009575D01*
X016150Y009575D02*
X016150Y009268D01*
X016239Y009268D01*
X016267Y009275D01*
X016275Y009268D01*
X016462Y009268D01*
X016462Y008931D01*
X016094Y008931D01*
X016094Y009268D01*
X016150Y009268D01*
X016150Y009575D01*
X016150Y009575D01*
X016150Y009883D01*
X016150Y009575D01*
X016150Y009575D01*
X016150Y009606D02*
X016150Y009606D01*
X016150Y009508D02*
X016150Y009508D01*
X016150Y009409D02*
X016150Y009409D01*
X016150Y009311D02*
X016150Y009311D01*
X016094Y009212D02*
X016462Y009212D01*
X016462Y009114D02*
X016094Y009114D01*
X016094Y009015D02*
X016462Y009015D01*
X016185Y008650D02*
X015850Y008650D01*
X015750Y008650D02*
X015535Y008435D01*
X015535Y007351D01*
X015884Y007341D02*
X017099Y007341D01*
X016996Y007439D02*
X015876Y007439D01*
X015835Y007538D02*
X016894Y007538D01*
X016792Y007636D02*
X016533Y007636D01*
X016557Y007735D02*
X016689Y007735D01*
X016587Y007833D02*
X016557Y007833D01*
X016662Y008038D02*
X016662Y009575D01*
X016918Y009575D02*
X016918Y008382D01*
X020350Y005150D01*
X020440Y004276D02*
X019174Y004276D01*
X019167Y004269D01*
X019138Y004276D01*
X019020Y004276D01*
X018902Y004276D01*
X018864Y004266D01*
X018830Y004246D01*
X018802Y004218D01*
X018782Y004184D01*
X018772Y004146D01*
X018772Y003634D01*
X018772Y003277D01*
X018659Y003277D01*
X018429Y003182D01*
X018422Y003175D01*
X018422Y004189D01*
X018784Y004189D01*
X018772Y004090D02*
X018422Y004090D01*
X018422Y003992D02*
X018772Y003992D01*
X018772Y003893D02*
X018422Y003893D01*
X018422Y003795D02*
X018772Y003795D01*
X018772Y003696D02*
X018422Y003696D01*
X018422Y003598D02*
X018772Y003598D01*
X018772Y003634D02*
X019020Y003634D01*
X019020Y003634D01*
X018772Y003634D01*
X018772Y003499D02*
X018422Y003499D01*
X018422Y003401D02*
X018772Y003401D01*
X018772Y003302D02*
X018422Y003302D01*
X018422Y003204D02*
X018481Y003204D01*
X019020Y003634D02*
X019020Y004276D01*
X019020Y003634D01*
X019020Y003634D01*
X019020Y003696D02*
X019020Y003696D01*
X019020Y003795D02*
X019020Y003795D01*
X019020Y003893D02*
X019020Y003893D01*
X019020Y003992D02*
X019020Y003992D01*
X019020Y004090D02*
X019020Y004090D01*
X019020Y004189D02*
X019020Y004189D01*
X018422Y004189D02*
X018334Y004276D01*
X017423Y004276D01*
X017335Y004189D01*
X017335Y004090D02*
X016328Y004090D01*
X016230Y003992D02*
X017335Y003992D01*
X017335Y003893D02*
X016131Y003893D01*
X016033Y003795D02*
X017335Y003795D01*
X017335Y003696D02*
X015934Y003696D01*
X015836Y003598D02*
X017335Y003598D01*
X017335Y003499D02*
X015737Y003499D01*
X015639Y003401D02*
X017335Y003401D01*
X017335Y003302D02*
X015540Y003302D01*
X015387Y003204D02*
X017335Y003204D01*
X017335Y002022D02*
X015531Y002022D01*
X015488Y001923D02*
X017335Y001923D01*
X017335Y001825D02*
X015390Y001825D01*
X015348Y000643D02*
X029471Y000643D01*
X028843Y001923D02*
X023015Y001923D01*
X023074Y002022D02*
X028870Y002022D01*
X028896Y002120D02*
X023098Y002120D01*
X023098Y002219D02*
X028927Y002219D01*
X028984Y002317D02*
X023058Y002317D01*
X022977Y002416D02*
X029041Y002416D01*
X029111Y002514D02*
X022915Y002514D01*
X022957Y002613D02*
X029209Y002613D01*
X029308Y002711D02*
X022957Y002711D01*
X022957Y002810D02*
X029475Y002810D01*
X029706Y002908D02*
X022957Y002908D01*
X022957Y003007D02*
X031196Y003007D01*
X031196Y003105D02*
X022927Y003105D01*
X022932Y003204D02*
X031196Y003204D01*
X031196Y003302D02*
X022957Y003302D01*
X022957Y003401D02*
X031196Y003401D01*
X031196Y003499D02*
X022679Y003499D01*
X022621Y003499D02*
X021965Y003499D01*
X021965Y003401D02*
X022343Y003401D01*
X022343Y003302D02*
X021965Y003302D01*
X021965Y003204D02*
X022368Y003204D01*
X022373Y003105D02*
X021965Y003105D01*
X021892Y003007D02*
X022343Y003007D01*
X022343Y002908D02*
X021088Y002908D01*
X021129Y002810D02*
X022343Y002810D01*
X022343Y002711D02*
X021143Y002711D01*
X021143Y002613D02*
X022343Y002613D01*
X022385Y002514D02*
X021139Y002514D01*
X021098Y002416D02*
X022420Y002416D01*
X022420Y002317D02*
X021057Y002317D01*
X020972Y002219D02*
X022402Y002219D01*
X020878Y001529D02*
X018422Y001529D01*
X018422Y001431D02*
X020878Y001431D01*
X020878Y001332D02*
X018422Y001332D01*
X018422Y001234D02*
X020878Y001234D01*
X020878Y001135D02*
X018422Y001135D01*
X018422Y001037D02*
X020878Y001037D01*
X020878Y000938D02*
X018422Y000938D01*
X018347Y000840D02*
X020953Y000840D01*
X020150Y001950D02*
X019965Y002135D01*
X019965Y003634D01*
X019650Y003634D02*
X019650Y001950D01*
X019426Y002219D02*
X019239Y002219D01*
X019325Y002317D02*
X019450Y002317D01*
X019450Y002416D02*
X019366Y002416D01*
X019406Y002514D02*
X019450Y002514D01*
X019450Y002613D02*
X019411Y002613D01*
X019411Y002711D02*
X019450Y002711D01*
X019450Y002810D02*
X019397Y002810D01*
X019356Y002908D02*
X019450Y002908D01*
X020528Y003277D02*
X020528Y004189D01*
X020878Y004189D01*
X020878Y003175D01*
X020871Y003182D01*
X020641Y003277D01*
X020528Y003277D01*
X020528Y003302D02*
X020878Y003302D01*
X020878Y003204D02*
X020819Y003204D01*
X020878Y003401D02*
X020528Y003401D01*
X020528Y003499D02*
X020878Y003499D01*
X020878Y003598D02*
X020528Y003598D01*
X020528Y003696D02*
X020878Y003696D01*
X020878Y003795D02*
X020528Y003795D01*
X020528Y003893D02*
X020878Y003893D01*
X020878Y003992D02*
X020528Y003992D01*
X020528Y004090D02*
X020878Y004090D01*
X020878Y004189D02*
X020966Y004276D01*
X021877Y004276D01*
X021965Y004189D01*
X021965Y004090D02*
X031196Y004090D01*
X031196Y003992D02*
X021965Y003992D01*
X021965Y003893D02*
X031196Y003893D01*
X031196Y003795D02*
X022907Y003795D01*
X022957Y003696D02*
X031196Y003696D01*
X031196Y003598D02*
X022957Y003598D01*
X022679Y003598D02*
X022621Y003598D01*
X022621Y003513D02*
X022621Y003831D01*
X022473Y003831D01*
X022435Y003821D01*
X022400Y003802D01*
X022372Y003774D01*
X022353Y003739D01*
X022343Y003701D01*
X022343Y003513D01*
X022621Y003513D01*
X022621Y003696D02*
X022679Y003696D01*
X022679Y003795D02*
X022621Y003795D01*
X022393Y003795D02*
X021965Y003795D01*
X021965Y003696D02*
X022343Y003696D01*
X022343Y003598D02*
X021965Y003598D01*
X020528Y004189D02*
X020440Y004276D01*
X019344Y002120D02*
X019141Y002120D01*
X016043Y004681D02*
X002553Y004681D01*
X002630Y004780D02*
X016141Y004780D01*
X016240Y004878D02*
X002630Y004878D01*
X002630Y004977D02*
X016338Y004977D01*
X016437Y005075D02*
X015167Y005075D01*
X015254Y005174D02*
X016535Y005174D01*
X016634Y005272D02*
X015294Y005272D01*
X015298Y005371D02*
X016732Y005371D01*
X016831Y005469D02*
X015277Y005469D01*
X015225Y005568D02*
X016929Y005568D01*
X017028Y005666D02*
X015150Y005666D01*
X015150Y005765D02*
X017126Y005765D01*
X017220Y005863D02*
X015150Y005863D01*
X015150Y005962D02*
X017269Y005962D01*
X017389Y006060D02*
X015150Y006060D01*
X014550Y006750D02*
X000600Y006750D01*
X000600Y006848D02*
X014550Y006848D01*
X014550Y007144D02*
X010136Y007144D01*
X010182Y007242D02*
X014550Y007242D01*
X014550Y007341D02*
X010198Y007341D01*
X010190Y007439D02*
X014550Y007439D01*
X014550Y007538D02*
X012805Y007538D01*
X012928Y007636D02*
X014550Y007636D01*
X014450Y007850D02*
X014550Y007950D01*
X014550Y009450D01*
X014675Y009575D01*
X014870Y009575D01*
X016100Y009902D02*
X016200Y009902D01*
X016200Y010000D02*
X016100Y010000D01*
X016100Y010099D02*
X016200Y010099D01*
X016200Y010197D02*
X016100Y010197D01*
X016100Y010296D02*
X016200Y010296D01*
X016200Y010394D02*
X016100Y010394D01*
X016100Y010493D02*
X016200Y010493D01*
X016200Y010591D02*
X016100Y010591D01*
X016100Y010690D02*
X016200Y010690D01*
X016200Y010788D02*
X016100Y010788D01*
X016100Y010887D02*
X016200Y010887D01*
X016200Y010985D02*
X016100Y010985D01*
X016100Y011281D02*
X016200Y011281D01*
X016200Y011379D02*
X016100Y011379D01*
X016100Y011478D02*
X016200Y011478D01*
X016200Y011576D02*
X016100Y011576D01*
X016100Y011675D02*
X016200Y011675D01*
X016200Y011773D02*
X016100Y011773D01*
X016100Y011872D02*
X016200Y011872D01*
X016200Y011970D02*
X016100Y011970D01*
X016100Y012069D02*
X016200Y012069D01*
X016200Y012167D02*
X016100Y012167D01*
X016100Y012266D02*
X016200Y012266D01*
X016200Y012364D02*
X016100Y012364D01*
X015894Y012194D02*
X015750Y012050D01*
X015250Y012050D01*
X014575Y012174D02*
X011774Y012174D01*
X011650Y012050D01*
X011150Y012050D01*
X010822Y012167D02*
X010160Y012167D01*
X010160Y012069D02*
X010802Y012069D01*
X010873Y012266D02*
X010160Y012266D01*
X010160Y012364D02*
X010998Y012364D01*
X011202Y012463D02*
X010160Y012463D01*
X010160Y012561D02*
X011219Y012561D01*
X011267Y012660D02*
X010160Y012660D01*
X010160Y012758D02*
X011384Y012758D01*
X011716Y012758D02*
X011859Y012758D01*
X011833Y012660D02*
X011958Y012660D01*
X012175Y012725D02*
X011950Y012950D01*
X011950Y023450D01*
X015550Y027050D01*
X015898Y027041D02*
X015902Y027041D01*
X015890Y027139D02*
X015910Y027139D01*
X015951Y027238D02*
X015849Y027238D01*
X015756Y027336D02*
X016044Y027336D01*
X016250Y027050D02*
X012350Y023150D01*
X012350Y013250D01*
X012550Y013050D01*
X015050Y013050D01*
X015126Y012974D01*
X015126Y012725D01*
X014870Y012725D02*
X012175Y012725D01*
X011761Y012857D02*
X010160Y012857D01*
X010160Y012955D02*
X011750Y012955D01*
X011750Y013054D02*
X010160Y013054D01*
X010160Y013152D02*
X011750Y013152D01*
X011750Y013251D02*
X010160Y013251D01*
X010160Y013349D02*
X011750Y013349D01*
X011750Y013448D02*
X010160Y013448D01*
X010160Y013546D02*
X011750Y013546D01*
X011750Y013645D02*
X010160Y013645D01*
X010160Y013743D02*
X011750Y013743D01*
X011750Y013842D02*
X010160Y013842D01*
X010160Y013940D02*
X011750Y013940D01*
X011750Y014039D02*
X010160Y014039D01*
X010160Y014137D02*
X011750Y014137D01*
X011750Y014236D02*
X010160Y014236D01*
X010160Y014334D02*
X011750Y014334D01*
X011750Y014433D02*
X010160Y014433D01*
X010160Y014531D02*
X011750Y014531D01*
X011750Y014630D02*
X010160Y014630D01*
X010160Y014728D02*
X011750Y014728D01*
X011750Y014827D02*
X010160Y014827D01*
X010160Y014925D02*
X011750Y014925D01*
X011750Y015024D02*
X010160Y015024D01*
X010160Y015122D02*
X011750Y015122D01*
X011750Y015221D02*
X010160Y015221D01*
X010160Y015319D02*
X011750Y015319D01*
X011750Y015418D02*
X010160Y015418D01*
X010160Y015516D02*
X011750Y015516D01*
X011750Y015615D02*
X010160Y015615D01*
X010160Y015713D02*
X011750Y015713D01*
X011750Y015812D02*
X010160Y015812D01*
X010160Y015910D02*
X011750Y015910D01*
X011750Y016009D02*
X010160Y016009D01*
X010160Y016107D02*
X011750Y016107D01*
X011750Y016206D02*
X010160Y016206D01*
X010160Y016304D02*
X011750Y016304D01*
X011750Y016403D02*
X010160Y016403D01*
X010160Y016501D02*
X011750Y016501D01*
X011750Y016600D02*
X010160Y016600D01*
X010160Y016698D02*
X011750Y016698D01*
X011750Y016797D02*
X010160Y016797D01*
X010160Y016895D02*
X011750Y016895D01*
X011750Y016994D02*
X010160Y016994D01*
X010160Y017092D02*
X011750Y017092D01*
X011750Y017191D02*
X010160Y017191D01*
X010160Y017289D02*
X011750Y017289D01*
X011750Y017388D02*
X010160Y017388D01*
X010160Y017486D02*
X011750Y017486D01*
X011750Y017585D02*
X010160Y017585D01*
X010160Y017683D02*
X011750Y017683D01*
X011750Y017782D02*
X010160Y017782D01*
X010160Y017880D02*
X011750Y017880D01*
X011750Y017979D02*
X010160Y017979D01*
X010160Y018077D02*
X011750Y018077D01*
X011750Y018176D02*
X010160Y018176D01*
X010160Y018274D02*
X011750Y018274D01*
X011750Y018373D02*
X010160Y018373D01*
X010160Y018471D02*
X011750Y018471D01*
X011750Y018570D02*
X010160Y018570D01*
X010160Y018668D02*
X011750Y018668D01*
X011750Y018767D02*
X010160Y018767D01*
X010160Y018865D02*
X011750Y018865D01*
X011750Y018964D02*
X010160Y018964D01*
X010160Y019062D02*
X011750Y019062D01*
X011750Y019161D02*
X010160Y019161D01*
X010160Y019259D02*
X011750Y019259D01*
X011750Y019358D02*
X010160Y019358D01*
X010160Y019456D02*
X011750Y019456D01*
X011750Y019555D02*
X010160Y019555D01*
X010160Y019653D02*
X011750Y019653D01*
X011750Y019752D02*
X010160Y019752D01*
X010160Y019850D02*
X011750Y019850D01*
X011750Y019949D02*
X010160Y019949D01*
X010160Y020047D02*
X011750Y020047D01*
X011750Y020146D02*
X010160Y020146D01*
X010160Y020244D02*
X011750Y020244D01*
X011750Y020343D02*
X010160Y020343D01*
X010160Y020441D02*
X011750Y020441D01*
X011750Y020540D02*
X010160Y020540D01*
X010160Y020638D02*
X011750Y020638D01*
X011750Y020737D02*
X010160Y020737D01*
X010160Y020835D02*
X011750Y020835D01*
X011750Y020934D02*
X010160Y020934D01*
X010160Y021032D02*
X011750Y021032D01*
X011750Y021131D02*
X010160Y021131D01*
X010160Y021229D02*
X011750Y021229D01*
X011750Y021328D02*
X010160Y021328D01*
X010160Y021426D02*
X011750Y021426D01*
X011750Y021525D02*
X010160Y021525D01*
X010160Y021623D02*
X011750Y021623D01*
X011750Y021722D02*
X010160Y021722D01*
X010160Y021820D02*
X011750Y021820D01*
X011750Y021919D02*
X010160Y021919D01*
X010160Y022017D02*
X011750Y022017D01*
X011750Y022116D02*
X010160Y022116D01*
X010160Y022214D02*
X011750Y022214D01*
X011750Y022313D02*
X010160Y022313D01*
X010160Y022411D02*
X011750Y022411D01*
X011750Y022510D02*
X010160Y022510D01*
X010160Y022608D02*
X011750Y022608D01*
X011750Y022707D02*
X010160Y022707D01*
X010160Y022805D02*
X011750Y022805D01*
X011750Y022904D02*
X010160Y022904D01*
X010160Y023002D02*
X011750Y023002D01*
X011750Y023101D02*
X010160Y023101D01*
X010160Y023199D02*
X011750Y023199D01*
X011750Y023298D02*
X010164Y023298D01*
X010198Y023396D02*
X011750Y023396D01*
X011750Y023495D02*
X010198Y023495D01*
X010168Y023593D02*
X011810Y023593D01*
X011909Y023692D02*
X010160Y023692D01*
X010160Y023790D02*
X012007Y023790D01*
X012106Y023889D02*
X010160Y023889D01*
X010160Y023987D02*
X012204Y023987D01*
X012303Y024086D02*
X010160Y024086D01*
X010160Y024184D02*
X012401Y024184D01*
X012500Y024283D02*
X010131Y024283D01*
X010057Y024381D02*
X012598Y024381D01*
X012697Y024480D02*
X009960Y024480D01*
X009960Y024578D02*
X012795Y024578D01*
X012894Y024677D02*
X009960Y024677D01*
X009960Y024775D02*
X012992Y024775D01*
X013091Y024874D02*
X009960Y024874D01*
X009960Y024972D02*
X013189Y024972D01*
X013288Y025071D02*
X009960Y025071D01*
X009960Y025169D02*
X013386Y025169D01*
X013485Y025268D02*
X009960Y025268D01*
X009960Y025366D02*
X013583Y025366D01*
X013682Y025465D02*
X010657Y025465D01*
X010450Y025750D02*
X013250Y025750D01*
X014850Y027350D01*
X014850Y029550D01*
X017050Y029550D01*
X017298Y029306D02*
X029086Y029306D01*
X029027Y029405D02*
X017367Y029405D01*
X017398Y029503D02*
X028970Y029503D01*
X028916Y029602D02*
X017398Y029602D01*
X017365Y029700D02*
X028890Y029700D01*
X028863Y029799D02*
X017294Y029799D01*
X017122Y029897D02*
X028837Y029897D01*
X028834Y029996D02*
X002962Y029996D01*
X002962Y030094D02*
X028834Y030094D01*
X028834Y030193D02*
X002962Y030193D01*
X002947Y030291D02*
X028849Y030291D01*
X028876Y030390D02*
X002921Y030390D01*
X002894Y030488D02*
X028902Y030488D01*
X028940Y030587D02*
X002856Y030587D01*
X002799Y030685D02*
X028997Y030685D01*
X029054Y030784D02*
X002742Y030784D01*
X002664Y030882D02*
X029132Y030882D01*
X029231Y030981D02*
X002565Y030981D01*
X002454Y031079D02*
X029342Y031079D01*
X029513Y031178D02*
X002283Y031178D01*
X002959Y029897D02*
X014778Y029897D01*
X014922Y029897D02*
X016978Y029897D01*
X016806Y029799D02*
X015094Y029799D01*
X014606Y029799D02*
X002933Y029799D01*
X002906Y029700D02*
X014535Y029700D01*
X014502Y029602D02*
X002880Y029602D01*
X002826Y029503D02*
X014502Y029503D01*
X014533Y029405D02*
X002769Y029405D01*
X002710Y029306D02*
X014602Y029306D01*
X014650Y029208D02*
X002611Y029208D01*
X002513Y029109D02*
X014650Y029109D01*
X014650Y029011D02*
X002362Y029011D01*
X002180Y028912D02*
X014650Y028912D01*
X014650Y028814D02*
X000600Y028814D01*
X000600Y028912D02*
X001270Y028912D01*
X001087Y029011D02*
X000600Y029011D01*
X000600Y029109D02*
X000937Y029109D01*
X000839Y029208D02*
X000600Y029208D01*
X000600Y029306D02*
X000740Y029306D01*
X000681Y029405D02*
X000600Y029405D01*
X000600Y029503D02*
X000624Y029503D01*
X000600Y028715D02*
X014650Y028715D01*
X014650Y028617D02*
X000600Y028617D01*
X000600Y028518D02*
X014650Y028518D01*
X014650Y028420D02*
X000600Y028420D01*
X000600Y028321D02*
X014650Y028321D01*
X014650Y028223D02*
X000600Y028223D01*
X000600Y028124D02*
X014650Y028124D01*
X014650Y028026D02*
X000600Y028026D01*
X000600Y027927D02*
X014650Y027927D01*
X014650Y027829D02*
X000600Y027829D01*
X000600Y027730D02*
X014650Y027730D01*
X014650Y027632D02*
X000600Y027632D01*
X000600Y027533D02*
X014650Y027533D01*
X014650Y027435D02*
X000600Y027435D01*
X000600Y027336D02*
X014553Y027336D01*
X014455Y027238D02*
X009766Y027238D01*
X009899Y027139D02*
X014356Y027139D01*
X014258Y027041D02*
X009948Y027041D01*
X009960Y026942D02*
X014159Y026942D01*
X014061Y026844D02*
X009960Y026844D01*
X009960Y026745D02*
X013962Y026745D01*
X013864Y026647D02*
X009960Y026647D01*
X009960Y026548D02*
X013765Y026548D01*
X013667Y026450D02*
X009960Y026450D01*
X009960Y026351D02*
X013568Y026351D01*
X013470Y026253D02*
X009960Y026253D01*
X009960Y026154D02*
X013371Y026154D01*
X013273Y026056D02*
X010622Y026056D01*
X010735Y025957D02*
X013174Y025957D01*
X013444Y025662D02*
X013879Y025662D01*
X013977Y025760D02*
X013543Y025760D01*
X013641Y025859D02*
X014076Y025859D01*
X014174Y025957D02*
X013740Y025957D01*
X013838Y026056D02*
X014273Y026056D01*
X014371Y026154D02*
X013937Y026154D01*
X014035Y026253D02*
X014470Y026253D01*
X014568Y026351D02*
X014134Y026351D01*
X014232Y026450D02*
X014667Y026450D01*
X014765Y026548D02*
X014331Y026548D01*
X014429Y026647D02*
X014864Y026647D01*
X014962Y026745D02*
X014528Y026745D01*
X014626Y026844D02*
X015061Y026844D01*
X015159Y026942D02*
X014725Y026942D01*
X014823Y027041D02*
X015202Y027041D01*
X015210Y027139D02*
X014922Y027139D01*
X015020Y027238D02*
X015251Y027238D01*
X015344Y027336D02*
X015050Y027336D01*
X015050Y027435D02*
X031196Y027435D01*
X031196Y027533D02*
X015050Y027533D01*
X015050Y027632D02*
X031196Y027632D01*
X031196Y027730D02*
X015050Y027730D01*
X015050Y027829D02*
X031196Y027829D01*
X031196Y027927D02*
X015050Y027927D01*
X015050Y028026D02*
X031196Y028026D01*
X031196Y028124D02*
X015050Y028124D01*
X015050Y028223D02*
X031196Y028223D01*
X031196Y028321D02*
X015050Y028321D01*
X015050Y028420D02*
X031196Y028420D01*
X031196Y028518D02*
X015050Y028518D01*
X015050Y028617D02*
X031196Y028617D01*
X031196Y028715D02*
X015050Y028715D01*
X015050Y028814D02*
X031196Y028814D01*
X031196Y028912D02*
X030526Y028912D01*
X030709Y029011D02*
X031196Y029011D01*
X031196Y029109D02*
X030859Y029109D01*
X030958Y029208D02*
X031196Y029208D01*
X031196Y029306D02*
X031056Y029306D01*
X031115Y029405D02*
X031196Y029405D01*
X031196Y029503D02*
X031172Y029503D01*
X029616Y028912D02*
X015050Y028912D01*
X015050Y029011D02*
X029434Y029011D01*
X029283Y029109D02*
X015050Y029109D01*
X015050Y029208D02*
X016967Y029208D01*
X017133Y029208D02*
X029185Y029208D01*
X031196Y027336D02*
X016456Y027336D01*
X016549Y027238D02*
X031196Y027238D01*
X031196Y027139D02*
X016590Y027139D01*
X016598Y027041D02*
X031196Y027041D01*
X031196Y026942D02*
X016582Y026942D01*
X016536Y026844D02*
X031196Y026844D01*
X031196Y026745D02*
X016423Y026745D01*
X016129Y026647D02*
X031196Y026647D01*
X031196Y026548D02*
X016031Y026548D01*
X015932Y026450D02*
X031196Y026450D01*
X031196Y026351D02*
X015834Y026351D01*
X015735Y026253D02*
X031196Y026253D01*
X031196Y026154D02*
X015637Y026154D01*
X015538Y026056D02*
X031196Y026056D01*
X031196Y025957D02*
X015440Y025957D01*
X015341Y025859D02*
X031196Y025859D01*
X031196Y025760D02*
X015243Y025760D01*
X015144Y025662D02*
X031196Y025662D01*
X031196Y025563D02*
X015046Y025563D01*
X014947Y025465D02*
X031196Y025465D01*
X031196Y025366D02*
X014849Y025366D01*
X014750Y025268D02*
X031196Y025268D01*
X031196Y025169D02*
X014652Y025169D01*
X014553Y025071D02*
X031196Y025071D01*
X031196Y024972D02*
X014455Y024972D01*
X014356Y024874D02*
X031196Y024874D01*
X031196Y024775D02*
X014258Y024775D01*
X014159Y024677D02*
X031196Y024677D01*
X031196Y024578D02*
X014061Y024578D01*
X013962Y024480D02*
X031196Y024480D01*
X031196Y024381D02*
X013864Y024381D01*
X013765Y024283D02*
X031196Y024283D01*
X031196Y024184D02*
X013667Y024184D01*
X013568Y024086D02*
X031196Y024086D01*
X031196Y023987D02*
X013470Y023987D01*
X013371Y023889D02*
X031196Y023889D01*
X031196Y023790D02*
X013273Y023790D01*
X013174Y023692D02*
X031196Y023692D01*
X031196Y023593D02*
X013076Y023593D01*
X012977Y023495D02*
X031196Y023495D01*
X031196Y023396D02*
X012879Y023396D01*
X012780Y023298D02*
X031196Y023298D01*
X031196Y023199D02*
X012682Y023199D01*
X012583Y023101D02*
X031196Y023101D01*
X031196Y023002D02*
X012550Y023002D01*
X012550Y022904D02*
X031196Y022904D01*
X031196Y022805D02*
X012550Y022805D01*
X012550Y022707D02*
X031196Y022707D01*
X031196Y022608D02*
X012550Y022608D01*
X012550Y022510D02*
X031196Y022510D01*
X031196Y022411D02*
X012550Y022411D01*
X012550Y022313D02*
X029934Y022313D01*
X029835Y022214D02*
X012550Y022214D01*
X012550Y022116D02*
X029737Y022116D01*
X030150Y021850D02*
X028150Y021850D01*
X027950Y021650D01*
X027950Y018650D01*
X027750Y018450D01*
X022450Y018450D01*
X017430Y013430D01*
X017430Y012725D01*
X017648Y012758D02*
X026750Y012758D01*
X026750Y012660D02*
X017648Y012660D01*
X017648Y012857D02*
X026750Y012857D01*
X026750Y012955D02*
X017638Y012955D01*
X017630Y013054D02*
X026750Y013054D01*
X026750Y013152D02*
X017630Y013152D01*
X017630Y013251D02*
X026750Y013251D01*
X026750Y013349D02*
X017632Y013349D01*
X017730Y013448D02*
X026750Y013448D01*
X026750Y013546D02*
X017829Y013546D01*
X017927Y013645D02*
X026750Y013645D01*
X026750Y013743D02*
X018026Y013743D01*
X018124Y013842D02*
X026750Y013842D01*
X026750Y013940D02*
X018223Y013940D01*
X018321Y014039D02*
X026750Y014039D01*
X026750Y014137D02*
X018420Y014137D01*
X018518Y014236D02*
X026750Y014236D01*
X026750Y014334D02*
X018617Y014334D01*
X018715Y014433D02*
X026750Y014433D01*
X026750Y014531D02*
X018814Y014531D01*
X018912Y014630D02*
X026750Y014630D01*
X026750Y014728D02*
X019011Y014728D01*
X019109Y014827D02*
X026750Y014827D01*
X026750Y014925D02*
X019208Y014925D01*
X019306Y015024D02*
X026750Y015024D01*
X026750Y015122D02*
X019405Y015122D01*
X019503Y015221D02*
X026750Y015221D01*
X026750Y015319D02*
X019602Y015319D01*
X019700Y015418D02*
X026750Y015418D01*
X026750Y015516D02*
X019799Y015516D01*
X019897Y015615D02*
X026750Y015615D01*
X026750Y015713D02*
X019996Y015713D01*
X020094Y015812D02*
X026750Y015812D01*
X026750Y015910D02*
X020193Y015910D01*
X020291Y016009D02*
X026750Y016009D01*
X026824Y016107D02*
X020390Y016107D01*
X020488Y016206D02*
X026923Y016206D01*
X027021Y016304D02*
X020587Y016304D01*
X020685Y016403D02*
X027901Y016403D01*
X028215Y016150D02*
X027150Y016150D01*
X026950Y015950D01*
X026950Y012550D01*
X026830Y012430D01*
X017725Y012430D01*
X017725Y012174D02*
X027826Y012174D01*
X028850Y011150D01*
X030150Y011150D01*
X029670Y011379D02*
X028904Y011379D01*
X028805Y011478D02*
X029670Y011478D01*
X029704Y011576D02*
X028707Y011576D01*
X028608Y011675D02*
X029947Y011675D01*
X029951Y011670D02*
X030349Y011670D01*
X030630Y011951D01*
X030630Y012349D01*
X030349Y012630D01*
X029951Y012630D01*
X029670Y012349D01*
X029670Y011951D01*
X029951Y011670D01*
X029848Y011773D02*
X028510Y011773D01*
X028411Y011872D02*
X029750Y011872D01*
X029670Y011970D02*
X028313Y011970D01*
X028214Y012069D02*
X029670Y012069D01*
X029670Y012167D02*
X028116Y012167D01*
X028017Y012266D02*
X029670Y012266D01*
X029685Y012364D02*
X027919Y012364D01*
X027747Y011970D02*
X026000Y011970D01*
X026050Y011872D02*
X027846Y011872D01*
X027944Y011773D02*
X026050Y011773D01*
X026050Y011675D02*
X028043Y011675D01*
X028141Y011576D02*
X026050Y011576D01*
X026050Y011478D02*
X028240Y011478D01*
X028338Y011379D02*
X026050Y011379D01*
X026050Y011281D02*
X028437Y011281D01*
X028535Y011182D02*
X026050Y011182D01*
X026050Y011084D02*
X028634Y011084D01*
X028732Y010985D02*
X026050Y010985D01*
X026050Y010887D02*
X029670Y010887D01*
X029670Y010788D02*
X026050Y010788D01*
X026050Y010690D02*
X029738Y010690D01*
X030562Y010690D02*
X031196Y010690D01*
X031196Y010788D02*
X030630Y010788D01*
X030630Y010887D02*
X031196Y010887D01*
X031196Y010985D02*
X030630Y010985D01*
X030630Y011084D02*
X031196Y011084D01*
X031196Y011182D02*
X030630Y011182D01*
X030630Y011281D02*
X031196Y011281D01*
X031196Y011379D02*
X030630Y011379D01*
X030630Y011478D02*
X031196Y011478D01*
X031196Y011576D02*
X030596Y011576D01*
X030452Y011773D02*
X031196Y011773D01*
X031196Y011675D02*
X030353Y011675D01*
X030550Y011872D02*
X031196Y011872D01*
X031196Y011970D02*
X030630Y011970D01*
X030630Y012069D02*
X031196Y012069D01*
X031196Y012167D02*
X030630Y012167D01*
X030630Y012266D02*
X031196Y012266D01*
X031196Y012364D02*
X030615Y012364D01*
X030516Y012463D02*
X031196Y012463D01*
X031196Y012561D02*
X030418Y012561D01*
X030349Y012670D02*
X030630Y012951D01*
X030630Y013102D01*
X030198Y013102D01*
X030198Y013198D01*
X030102Y013198D01*
X030102Y013102D01*
X029670Y013102D01*
X029670Y012951D01*
X029951Y012670D01*
X030102Y012670D01*
X030102Y013102D01*
X030198Y013102D01*
X030198Y012670D01*
X030349Y012670D01*
X030437Y012758D02*
X031196Y012758D01*
X031196Y012660D02*
X027150Y012660D01*
X027150Y012758D02*
X029863Y012758D01*
X029765Y012857D02*
X027150Y012857D01*
X027150Y012955D02*
X029670Y012955D01*
X029670Y013054D02*
X027150Y013054D01*
X027150Y013152D02*
X030102Y013152D01*
X030102Y013198D02*
X029670Y013198D01*
X029670Y013349D01*
X029951Y013630D01*
X030102Y013630D01*
X030102Y013198D01*
X030102Y013251D02*
X030198Y013251D01*
X030198Y013198D02*
X030198Y013630D01*
X030349Y013630D01*
X030630Y013349D01*
X030630Y013198D01*
X030198Y013198D01*
X030198Y013152D02*
X031196Y013152D01*
X031196Y013054D02*
X030630Y013054D01*
X030630Y012955D02*
X031196Y012955D01*
X031196Y012857D02*
X030535Y012857D01*
X030198Y012857D02*
X030102Y012857D01*
X030102Y012955D02*
X030198Y012955D01*
X030198Y013054D02*
X030102Y013054D01*
X030102Y013349D02*
X030198Y013349D01*
X030198Y013448D02*
X030102Y013448D01*
X030102Y013546D02*
X030198Y013546D01*
X030349Y013670D02*
X030630Y013951D01*
X030630Y014349D01*
X030349Y014630D01*
X029951Y014630D01*
X029670Y014349D01*
X029670Y013951D01*
X029951Y013670D01*
X030349Y013670D01*
X030422Y013743D02*
X031196Y013743D01*
X031196Y013645D02*
X027150Y013645D01*
X027150Y013743D02*
X029878Y013743D01*
X029780Y013842D02*
X027150Y013842D01*
X027150Y013940D02*
X029681Y013940D01*
X029670Y014039D02*
X027150Y014039D01*
X027150Y014137D02*
X029670Y014137D01*
X029670Y014236D02*
X027150Y014236D01*
X027150Y014334D02*
X029670Y014334D01*
X029754Y014433D02*
X027150Y014433D01*
X027150Y014531D02*
X029852Y014531D01*
X029951Y014630D02*
X027150Y014630D01*
X027150Y014728D02*
X029893Y014728D01*
X029951Y014670D02*
X029670Y014951D01*
X029670Y015102D01*
X030102Y015102D01*
X030102Y015198D01*
X029670Y015198D01*
X029670Y015349D01*
X029951Y015630D01*
X030102Y015630D01*
X030102Y015198D01*
X030198Y015198D01*
X030198Y015630D01*
X030349Y015630D01*
X030630Y015349D01*
X030630Y015198D01*
X030198Y015198D01*
X030198Y015102D01*
X030630Y015102D01*
X030630Y014951D01*
X030349Y014670D01*
X030198Y014670D01*
X030198Y015102D01*
X030102Y015102D01*
X030102Y014670D01*
X029951Y014670D01*
X030102Y014728D02*
X030198Y014728D01*
X030198Y014827D02*
X030102Y014827D01*
X030102Y014925D02*
X030198Y014925D01*
X030198Y015024D02*
X030102Y015024D01*
X030102Y015122D02*
X027150Y015122D01*
X027150Y015024D02*
X029670Y015024D01*
X029696Y014925D02*
X027150Y014925D01*
X027150Y014827D02*
X029795Y014827D01*
X029670Y015221D02*
X027150Y015221D01*
X027150Y015319D02*
X029670Y015319D01*
X029739Y015418D02*
X027150Y015418D01*
X027150Y015516D02*
X029837Y015516D01*
X029936Y015615D02*
X027150Y015615D01*
X027150Y015713D02*
X029908Y015713D01*
X029810Y015812D02*
X027150Y015812D01*
X027193Y015910D02*
X027889Y015910D01*
X028529Y016403D02*
X028571Y016403D01*
X028885Y016150D02*
X030150Y016150D01*
X030490Y015812D02*
X031196Y015812D01*
X031196Y015910D02*
X030589Y015910D01*
X030630Y016009D02*
X031196Y016009D01*
X031196Y016107D02*
X030630Y016107D01*
X030630Y016206D02*
X031196Y016206D01*
X031196Y016304D02*
X030630Y016304D01*
X030576Y016403D02*
X031196Y016403D01*
X031196Y016501D02*
X030478Y016501D01*
X030379Y016600D02*
X031196Y016600D01*
X031196Y016698D02*
X020981Y016698D01*
X021079Y016797D02*
X031196Y016797D01*
X031196Y016895D02*
X021178Y016895D01*
X021276Y016994D02*
X031196Y016994D01*
X031196Y017092D02*
X021375Y017092D01*
X021473Y017191D02*
X031196Y017191D01*
X031196Y017289D02*
X021572Y017289D01*
X021670Y017388D02*
X029740Y017388D01*
X029758Y017370D02*
X030542Y017370D01*
X030630Y017458D01*
X030630Y018242D01*
X030542Y018330D01*
X029758Y018330D01*
X029670Y018242D01*
X029670Y017458D01*
X029758Y017370D01*
X029670Y017486D02*
X021769Y017486D01*
X021867Y017585D02*
X029670Y017585D01*
X029670Y017683D02*
X021966Y017683D01*
X022064Y017782D02*
X029670Y017782D01*
X029670Y017880D02*
X022163Y017880D01*
X022261Y017979D02*
X029670Y017979D01*
X029670Y018077D02*
X022360Y018077D01*
X022458Y018176D02*
X029670Y018176D01*
X029702Y018274D02*
X027857Y018274D01*
X027955Y018373D02*
X029949Y018373D01*
X029951Y018370D02*
X030349Y018370D01*
X030630Y018651D01*
X030630Y019049D01*
X030349Y019330D01*
X029951Y019330D01*
X029670Y019049D01*
X029670Y018651D01*
X029951Y018370D01*
X029850Y018471D02*
X028054Y018471D01*
X028150Y018570D02*
X029752Y018570D01*
X029670Y018668D02*
X028150Y018668D01*
X028150Y018767D02*
X029670Y018767D01*
X029670Y018865D02*
X028150Y018865D01*
X028150Y018964D02*
X029670Y018964D01*
X029683Y019062D02*
X028150Y019062D01*
X028150Y019161D02*
X029782Y019161D01*
X029880Y019259D02*
X028150Y019259D01*
X028150Y019358D02*
X031196Y019358D01*
X031196Y019456D02*
X030435Y019456D01*
X030349Y019370D02*
X030630Y019651D01*
X030630Y019802D01*
X030198Y019802D01*
X030198Y019898D01*
X030102Y019898D01*
X030102Y019802D01*
X029670Y019802D01*
X029670Y019651D01*
X029951Y019370D01*
X030102Y019370D01*
X030102Y019802D01*
X030198Y019802D01*
X030198Y019370D01*
X030349Y019370D01*
X030420Y019259D02*
X031196Y019259D01*
X031196Y019161D02*
X030518Y019161D01*
X030617Y019062D02*
X031196Y019062D01*
X031196Y018964D02*
X030630Y018964D01*
X030630Y018865D02*
X031196Y018865D01*
X031196Y018767D02*
X030630Y018767D01*
X030630Y018668D02*
X031196Y018668D01*
X031196Y018570D02*
X030548Y018570D01*
X030450Y018471D02*
X031196Y018471D01*
X031196Y018373D02*
X030351Y018373D01*
X030598Y018274D02*
X031196Y018274D01*
X031196Y018176D02*
X030630Y018176D01*
X030630Y018077D02*
X031196Y018077D01*
X031196Y017979D02*
X030630Y017979D01*
X030630Y017880D02*
X031196Y017880D01*
X031196Y017782D02*
X030630Y017782D01*
X030630Y017683D02*
X031196Y017683D01*
X031196Y017585D02*
X030630Y017585D01*
X030630Y017486D02*
X031196Y017486D01*
X031196Y017388D02*
X030560Y017388D01*
X029921Y016600D02*
X020882Y016600D01*
X020784Y016501D02*
X029822Y016501D01*
X029724Y016403D02*
X029199Y016403D01*
X029211Y015910D02*
X029711Y015910D01*
X030102Y015615D02*
X030198Y015615D01*
X030198Y015516D02*
X030102Y015516D01*
X030102Y015418D02*
X030198Y015418D01*
X030198Y015319D02*
X030102Y015319D01*
X030102Y015221D02*
X030198Y015221D01*
X030198Y015122D02*
X031196Y015122D01*
X031196Y015024D02*
X030630Y015024D01*
X030604Y014925D02*
X031196Y014925D01*
X031196Y014827D02*
X030505Y014827D01*
X030407Y014728D02*
X031196Y014728D01*
X031196Y014630D02*
X030349Y014630D01*
X030448Y014531D02*
X031196Y014531D01*
X031196Y014433D02*
X030546Y014433D01*
X030630Y014334D02*
X031196Y014334D01*
X031196Y014236D02*
X030630Y014236D01*
X030630Y014137D02*
X031196Y014137D01*
X031196Y014039D02*
X030630Y014039D01*
X030619Y013940D02*
X031196Y013940D01*
X031196Y013842D02*
X030520Y013842D01*
X030433Y013546D02*
X031196Y013546D01*
X031196Y013448D02*
X030531Y013448D01*
X030630Y013349D02*
X031196Y013349D01*
X031196Y013251D02*
X030630Y013251D01*
X030198Y012758D02*
X030102Y012758D01*
X029882Y012561D02*
X027150Y012561D01*
X027145Y012463D02*
X029784Y012463D01*
X029670Y013251D02*
X027150Y013251D01*
X027150Y013349D02*
X029670Y013349D01*
X029769Y013448D02*
X027150Y013448D01*
X027150Y013546D02*
X029867Y013546D01*
X030630Y015221D02*
X031196Y015221D01*
X031196Y015319D02*
X030630Y015319D01*
X030561Y015418D02*
X031196Y015418D01*
X031196Y015516D02*
X030463Y015516D01*
X030364Y015615D02*
X031196Y015615D01*
X031196Y015713D02*
X030392Y015713D01*
X028558Y015910D02*
X028542Y015910D01*
X027685Y018668D02*
X022551Y018668D01*
X022649Y018767D02*
X023241Y018767D01*
X023450Y019050D02*
X023441Y019059D01*
X022659Y019059D01*
X017174Y013574D01*
X017174Y012725D01*
X016406Y012725D02*
X016406Y013206D01*
X022950Y019750D01*
X025650Y019750D01*
X025950Y019450D01*
X026298Y019456D02*
X027750Y019456D01*
X027750Y019358D02*
X026288Y019358D01*
X026248Y019259D02*
X027750Y019259D01*
X027750Y019161D02*
X026153Y019161D01*
X025747Y019161D02*
X023781Y019161D01*
X023798Y019062D02*
X027750Y019062D01*
X027750Y018964D02*
X023791Y018964D01*
X023750Y018865D02*
X027750Y018865D01*
X027750Y018767D02*
X023659Y018767D01*
X023733Y019259D02*
X025652Y019259D01*
X025612Y019358D02*
X023617Y019358D01*
X023283Y019358D02*
X022840Y019358D01*
X022939Y019456D02*
X025602Y019456D01*
X025833Y019850D02*
X027750Y019850D01*
X027750Y019752D02*
X026132Y019752D01*
X026239Y019653D02*
X027750Y019653D01*
X027750Y019555D02*
X026283Y019555D01*
X025734Y019949D02*
X027750Y019949D01*
X027750Y020047D02*
X012550Y020047D01*
X012550Y019949D02*
X022866Y019949D01*
X022767Y019850D02*
X012550Y019850D01*
X012550Y019752D02*
X022669Y019752D01*
X022570Y019653D02*
X012550Y019653D01*
X012550Y019555D02*
X022472Y019555D01*
X022373Y019456D02*
X012550Y019456D01*
X012550Y019358D02*
X022275Y019358D01*
X022176Y019259D02*
X012550Y019259D01*
X012550Y019161D02*
X022078Y019161D01*
X021979Y019062D02*
X012550Y019062D01*
X012550Y018964D02*
X021881Y018964D01*
X021782Y018865D02*
X012550Y018865D01*
X012550Y018767D02*
X021684Y018767D01*
X021585Y018668D02*
X012550Y018668D01*
X012550Y018570D02*
X021487Y018570D01*
X021388Y018471D02*
X012550Y018471D01*
X012550Y018373D02*
X021290Y018373D01*
X021191Y018274D02*
X012550Y018274D01*
X012550Y018176D02*
X021093Y018176D01*
X020994Y018077D02*
X012550Y018077D01*
X012550Y017979D02*
X020896Y017979D01*
X020797Y017880D02*
X016324Y017880D01*
X016685Y017782D02*
X020699Y017782D01*
X020600Y017683D02*
X016856Y017683D01*
X017027Y017585D02*
X020502Y017585D01*
X020403Y017486D02*
X017174Y017486D01*
X017272Y017388D02*
X020305Y017388D01*
X020206Y017289D02*
X017371Y017289D01*
X017469Y017191D02*
X020108Y017191D01*
X020009Y017092D02*
X017547Y017092D01*
X017604Y016994D02*
X019911Y016994D01*
X019812Y016895D02*
X017660Y016895D01*
X017717Y016797D02*
X019714Y016797D01*
X019615Y016698D02*
X017774Y016698D01*
X017806Y016600D02*
X019517Y016600D01*
X019418Y016501D02*
X017833Y016501D01*
X017859Y016403D02*
X019320Y016403D01*
X019221Y016304D02*
X017885Y016304D01*
X017912Y016206D02*
X019123Y016206D01*
X019024Y016107D02*
X017923Y016107D01*
X017923Y016009D02*
X018926Y016009D01*
X018827Y015910D02*
X017923Y015910D01*
X017923Y015812D02*
X018729Y015812D01*
X018630Y015713D02*
X017923Y015713D01*
X017918Y015615D02*
X018532Y015615D01*
X018433Y015516D02*
X017892Y015516D01*
X017866Y015418D02*
X018335Y015418D01*
X018236Y015319D02*
X017839Y015319D01*
X017813Y015221D02*
X018138Y015221D01*
X018039Y015122D02*
X017786Y015122D01*
X017731Y015024D02*
X017941Y015024D01*
X017842Y014925D02*
X017674Y014925D01*
X017617Y014827D02*
X017744Y014827D01*
X017645Y014728D02*
X017561Y014728D01*
X017547Y014630D02*
X017493Y014630D01*
X017448Y014531D02*
X017395Y014531D01*
X017350Y014433D02*
X017296Y014433D01*
X017251Y014334D02*
X017198Y014334D01*
X017153Y014236D02*
X017068Y014236D01*
X017054Y014137D02*
X016898Y014137D01*
X016956Y014039D02*
X016727Y014039D01*
X016857Y013940D02*
X016414Y013940D01*
X016258Y013743D02*
X016660Y013743D01*
X016562Y013645D02*
X016331Y013645D01*
X016331Y013546D02*
X016463Y013546D01*
X016365Y013448D02*
X016331Y013448D01*
X016150Y013285D02*
X015985Y013450D01*
X015985Y013715D01*
X015850Y013850D01*
X014350Y013850D01*
X014250Y013750D01*
X014250Y013450D01*
X014598Y013448D02*
X015287Y013448D01*
X015287Y013421D02*
X014969Y013421D01*
X014969Y013273D01*
X014975Y013250D01*
X014542Y013250D01*
X014545Y013253D01*
X014598Y013381D01*
X014598Y013519D01*
X014545Y013647D01*
X014542Y013650D01*
X014975Y013650D01*
X014969Y013627D01*
X014969Y013479D01*
X015287Y013479D01*
X015287Y013421D01*
X015344Y013421D01*
X015344Y013143D01*
X015532Y013143D01*
X015570Y013153D01*
X015604Y013172D01*
X015632Y013200D01*
X015645Y013223D01*
X015726Y013143D01*
X015950Y013143D01*
X015950Y013032D01*
X015894Y013032D01*
X015805Y013032D01*
X015777Y013025D01*
X015769Y013032D01*
X015326Y013032D01*
X015326Y013056D01*
X015250Y013133D01*
X015240Y013143D01*
X015287Y013143D01*
X015287Y013421D01*
X015287Y013349D02*
X015344Y013349D01*
X015344Y013251D02*
X015287Y013251D01*
X015287Y013152D02*
X015344Y013152D01*
X015326Y013054D02*
X015950Y013054D01*
X015894Y013032D02*
X015894Y012725D01*
X015894Y013032D01*
X015894Y012955D02*
X015894Y012955D01*
X015894Y012857D02*
X015894Y012857D01*
X015894Y012758D02*
X015894Y012758D01*
X015894Y012725D02*
X015894Y012725D01*
X015894Y012194D01*
X016150Y012725D02*
X016150Y013285D01*
X015716Y013152D02*
X015567Y013152D01*
X014974Y013251D02*
X014543Y013251D01*
X014585Y013349D02*
X014969Y013349D01*
X014969Y013546D02*
X014587Y013546D01*
X014546Y013645D02*
X014973Y013645D01*
X014899Y014137D02*
X012550Y014137D01*
X012550Y014039D02*
X014256Y014039D01*
X014157Y013940D02*
X012550Y013940D01*
X012550Y013842D02*
X014059Y013842D01*
X014050Y013743D02*
X012550Y013743D01*
X012550Y013645D02*
X013954Y013645D01*
X013913Y013546D02*
X012550Y013546D01*
X012550Y013448D02*
X013902Y013448D01*
X013915Y013349D02*
X012550Y013349D01*
X012632Y013251D02*
X013957Y013251D01*
X014575Y012430D02*
X011570Y012430D01*
X011550Y012450D01*
X011918Y011918D02*
X011650Y011650D01*
X010750Y011650D01*
X010613Y011970D02*
X010160Y011970D01*
X010160Y011872D02*
X010479Y011872D01*
X010424Y011773D02*
X010160Y011773D01*
X010160Y011675D02*
X010402Y011675D01*
X010227Y011576D02*
X010160Y011576D01*
X010350Y011250D02*
X011650Y011250D01*
X012062Y011662D01*
X014575Y011662D01*
X014575Y011918D02*
X011918Y011918D01*
X012306Y011406D02*
X012150Y011250D01*
X012150Y010701D01*
X012201Y010650D01*
X011736Y010690D02*
X011149Y010690D01*
X011149Y010600D02*
X011564Y010600D01*
X011564Y010276D01*
X011554Y010238D01*
X011534Y010204D01*
X011506Y010176D01*
X011472Y010156D01*
X011434Y010146D01*
X011149Y010146D01*
X011149Y010600D01*
X011149Y010591D02*
X011049Y010591D01*
X011049Y010493D02*
X011149Y010493D01*
X011149Y010394D02*
X011049Y010394D01*
X011049Y010296D02*
X011149Y010296D01*
X011149Y010197D02*
X011049Y010197D01*
X010894Y010099D02*
X012850Y010099D01*
X012850Y010197D02*
X012630Y010197D01*
X012666Y010296D02*
X012850Y010296D01*
X012850Y010394D02*
X012666Y010394D01*
X012666Y010493D02*
X012850Y010493D01*
X012850Y010591D02*
X012666Y010591D01*
X012666Y010690D02*
X012850Y010690D01*
X012850Y010788D02*
X012666Y010788D01*
X012666Y010887D02*
X012904Y010887D01*
X013002Y010985D02*
X012666Y010985D01*
X012649Y011084D02*
X013101Y011084D01*
X012365Y011182D02*
X014268Y011182D01*
X014575Y011150D02*
X014575Y011150D01*
X014575Y011406D02*
X012306Y011406D01*
X011736Y010985D02*
X011564Y010985D01*
X011564Y010887D02*
X011736Y010887D01*
X011736Y010788D02*
X011564Y010788D01*
X011564Y010591D02*
X011736Y010591D01*
X011736Y010493D02*
X011564Y010493D01*
X011564Y010394D02*
X011736Y010394D01*
X011736Y010296D02*
X011564Y010296D01*
X011527Y010197D02*
X011773Y010197D01*
X011049Y010690D02*
X010160Y010690D01*
X010160Y010788D02*
X010634Y010788D01*
X010634Y010887D02*
X010160Y010887D01*
X010160Y010591D02*
X010634Y010591D01*
X010634Y010493D02*
X010160Y010493D01*
X010160Y010394D02*
X010634Y010394D01*
X010634Y010296D02*
X010160Y010296D01*
X010160Y010197D02*
X010578Y010197D01*
X010406Y010099D02*
X010160Y010099D01*
X010160Y010000D02*
X010335Y010000D01*
X010302Y009902D02*
X010160Y009902D01*
X010160Y009803D02*
X010302Y009803D01*
X010333Y009705D02*
X010160Y009705D01*
X010160Y009606D02*
X010402Y009606D01*
X010577Y010985D02*
X010634Y010985D01*
X009540Y013448D02*
X000600Y013448D01*
X000600Y013546D02*
X009540Y013546D01*
X009540Y013645D02*
X000600Y013645D01*
X000600Y013743D02*
X009540Y013743D01*
X009540Y013842D02*
X000600Y013842D01*
X000600Y013940D02*
X009540Y013940D01*
X009540Y014039D02*
X000600Y014039D01*
X000600Y014137D02*
X009540Y014137D01*
X009540Y014236D02*
X000600Y014236D01*
X000600Y014334D02*
X009540Y014334D01*
X009540Y014433D02*
X000600Y014433D01*
X000600Y014531D02*
X009540Y014531D01*
X009540Y014630D02*
X000600Y014630D01*
X000600Y014728D02*
X009540Y014728D01*
X009540Y014827D02*
X000600Y014827D01*
X000600Y014925D02*
X009540Y014925D01*
X009540Y015024D02*
X000600Y015024D01*
X000600Y015122D02*
X009540Y015122D01*
X009540Y015221D02*
X000600Y015221D01*
X000600Y015319D02*
X009540Y015319D01*
X009540Y015418D02*
X000600Y015418D01*
X000600Y015516D02*
X009540Y015516D01*
X009540Y015615D02*
X000600Y015615D01*
X000600Y015713D02*
X009540Y015713D01*
X009540Y015812D02*
X000600Y015812D01*
X000600Y015910D02*
X009540Y015910D01*
X009540Y016009D02*
X000600Y016009D01*
X000600Y016107D02*
X009540Y016107D01*
X009540Y016206D02*
X000600Y016206D01*
X000600Y016304D02*
X009540Y016304D01*
X009540Y016403D02*
X000600Y016403D01*
X000600Y016501D02*
X009540Y016501D01*
X009540Y016600D02*
X000600Y016600D01*
X000600Y016698D02*
X009540Y016698D01*
X009540Y016797D02*
X000600Y016797D01*
X000600Y016895D02*
X009540Y016895D01*
X009540Y016994D02*
X000600Y016994D01*
X000600Y017092D02*
X009540Y017092D01*
X009540Y017191D02*
X000600Y017191D01*
X000600Y017289D02*
X009540Y017289D01*
X009540Y017388D02*
X000600Y017388D01*
X000600Y017486D02*
X009540Y017486D01*
X009540Y017585D02*
X000600Y017585D01*
X000600Y017683D02*
X009540Y017683D01*
X009540Y017782D02*
X000600Y017782D01*
X000600Y017880D02*
X009540Y017880D01*
X009540Y017979D02*
X000600Y017979D01*
X000600Y018077D02*
X009540Y018077D01*
X009540Y018176D02*
X000600Y018176D01*
X000600Y018274D02*
X009540Y018274D01*
X009540Y018373D02*
X000600Y018373D01*
X000600Y018471D02*
X009540Y018471D01*
X009540Y018570D02*
X000600Y018570D01*
X000600Y018668D02*
X009540Y018668D01*
X009540Y018767D02*
X000600Y018767D01*
X000600Y018865D02*
X009540Y018865D01*
X009540Y018964D02*
X000600Y018964D01*
X000600Y019062D02*
X009540Y019062D01*
X009540Y019161D02*
X000600Y019161D01*
X000600Y019259D02*
X009540Y019259D01*
X009540Y019358D02*
X000600Y019358D01*
X000600Y019456D02*
X009540Y019456D01*
X009540Y019555D02*
X000600Y019555D01*
X000600Y019653D02*
X009540Y019653D01*
X009540Y019752D02*
X000600Y019752D01*
X000600Y019850D02*
X009540Y019850D01*
X009540Y019949D02*
X000600Y019949D01*
X000600Y020047D02*
X009540Y020047D01*
X009540Y020146D02*
X000600Y020146D01*
X000600Y020244D02*
X009540Y020244D01*
X009540Y020343D02*
X000600Y020343D01*
X000600Y020441D02*
X009540Y020441D01*
X009540Y020540D02*
X000600Y020540D01*
X000600Y020638D02*
X009540Y020638D01*
X009540Y020737D02*
X000600Y020737D01*
X000600Y020835D02*
X009540Y020835D01*
X009540Y020934D02*
X000600Y020934D01*
X000600Y021032D02*
X009540Y021032D01*
X009540Y021131D02*
X000600Y021131D01*
X000600Y021229D02*
X009540Y021229D01*
X009540Y021328D02*
X000600Y021328D01*
X000600Y021426D02*
X009540Y021426D01*
X009540Y021525D02*
X000600Y021525D01*
X000600Y021623D02*
X009540Y021623D01*
X009540Y021722D02*
X000600Y021722D01*
X000600Y021820D02*
X009540Y021820D01*
X009540Y021919D02*
X000600Y021919D01*
X000600Y022017D02*
X009540Y022017D01*
X009540Y022116D02*
X000600Y022116D01*
X000600Y022214D02*
X009540Y022214D01*
X009540Y022313D02*
X000600Y022313D01*
X000600Y022411D02*
X009540Y022411D01*
X009540Y022510D02*
X000600Y022510D01*
X000600Y022608D02*
X009540Y022608D01*
X009540Y022707D02*
X000600Y022707D01*
X000600Y022805D02*
X009540Y022805D01*
X009540Y022904D02*
X000600Y022904D01*
X000600Y023002D02*
X009540Y023002D01*
X009540Y023101D02*
X000600Y023101D01*
X000600Y023199D02*
X009540Y023199D01*
X009536Y023298D02*
X000600Y023298D01*
X000600Y023396D02*
X009502Y023396D01*
X009502Y023495D02*
X000600Y023495D01*
X000600Y023593D02*
X001015Y023593D01*
X000988Y023608D02*
X001062Y023566D01*
X001141Y023533D01*
X001223Y023511D01*
X001300Y023501D01*
X001300Y024100D01*
X000701Y024100D01*
X000711Y024023D01*
X000733Y023941D01*
X000766Y023862D01*
X000808Y023788D01*
X000860Y023721D01*
X000921Y023660D01*
X000988Y023608D01*
X000889Y023692D02*
X000600Y023692D01*
X000600Y023790D02*
X000807Y023790D01*
X000755Y023889D02*
X000600Y023889D01*
X000600Y023987D02*
X000721Y023987D01*
X000703Y024086D02*
X000600Y024086D01*
X000600Y024184D02*
X001300Y024184D01*
X001300Y024200D02*
X001300Y024100D01*
X001400Y024100D01*
X001400Y024200D01*
X001300Y024200D01*
X001300Y024799D01*
X001223Y024789D01*
X001141Y024767D01*
X001062Y024734D01*
X000988Y024692D01*
X000921Y024640D01*
X000860Y024579D01*
X000808Y024512D01*
X000766Y024438D01*
X000733Y024359D01*
X000711Y024277D01*
X000701Y024200D01*
X001300Y024200D01*
X001300Y024283D02*
X001400Y024283D01*
X001400Y024200D02*
X001400Y024799D01*
X001477Y024789D01*
X001559Y024767D01*
X001638Y024734D01*
X001712Y024692D01*
X001779Y024640D01*
X001840Y024579D01*
X001892Y024512D01*
X001934Y024438D01*
X001967Y024359D01*
X001989Y024277D01*
X001999Y024200D01*
X001400Y024200D01*
X001400Y024184D02*
X003300Y024184D01*
X003300Y024200D02*
X003300Y024100D01*
X002701Y024100D01*
X002711Y024023D01*
X002733Y023941D01*
X002766Y023862D01*
X002808Y023788D01*
X002860Y023721D01*
X002921Y023660D01*
X002988Y023608D01*
X003062Y023566D01*
X003141Y023533D01*
X003223Y023511D01*
X003300Y023501D01*
X003300Y024100D01*
X003400Y024100D01*
X003400Y024200D01*
X003300Y024200D01*
X003300Y024799D01*
X003223Y024789D01*
X003141Y024767D01*
X003062Y024734D01*
X002988Y024692D01*
X002921Y024640D01*
X002860Y024579D01*
X002808Y024512D01*
X002766Y024438D01*
X002733Y024359D01*
X002711Y024277D01*
X002701Y024200D01*
X003300Y024200D01*
X003300Y024283D02*
X003400Y024283D01*
X003400Y024200D02*
X003400Y024799D01*
X003477Y024789D01*
X003559Y024767D01*
X003638Y024734D01*
X003712Y024692D01*
X003779Y024640D01*
X003840Y024579D01*
X003892Y024512D01*
X003934Y024438D01*
X003967Y024359D01*
X003989Y024277D01*
X003999Y024200D01*
X003400Y024200D01*
X003400Y024184D02*
X007242Y024184D01*
X007202Y024283D02*
X003987Y024283D01*
X003958Y024381D02*
X007202Y024381D01*
X007227Y024480D02*
X003910Y024480D01*
X003841Y024578D02*
X007286Y024578D01*
X007429Y024677D02*
X003732Y024677D01*
X003529Y024775D02*
X009340Y024775D01*
X009340Y024677D02*
X007671Y024677D01*
X007322Y024086D02*
X003997Y024086D01*
X003999Y024100D02*
X003400Y024100D01*
X003400Y023501D01*
X003477Y023511D01*
X003559Y023533D01*
X003638Y023566D01*
X003712Y023608D01*
X003779Y023660D01*
X003840Y023721D01*
X003892Y023788D01*
X003934Y023862D01*
X003967Y023941D01*
X003989Y024023D01*
X003999Y024100D01*
X003979Y023987D02*
X009540Y023987D01*
X009540Y023889D02*
X003945Y023889D01*
X003893Y023790D02*
X009540Y023790D01*
X009540Y023692D02*
X003811Y023692D01*
X003685Y023593D02*
X009532Y023593D01*
X009340Y024874D02*
X002939Y024874D01*
X002901Y024782D02*
X003000Y025021D01*
X003000Y025279D01*
X002901Y025518D01*
X002718Y025701D01*
X002479Y025800D01*
X002221Y025800D01*
X001982Y025701D01*
X001799Y025518D01*
X001700Y025279D01*
X001700Y025021D01*
X001799Y024782D01*
X001982Y024599D01*
X002221Y024500D01*
X002479Y024500D01*
X002718Y024599D01*
X002901Y024782D01*
X002894Y024775D02*
X003171Y024775D01*
X003300Y024775D02*
X003400Y024775D01*
X003400Y024677D02*
X003300Y024677D01*
X003300Y024578D02*
X003400Y024578D01*
X003400Y024480D02*
X003300Y024480D01*
X003300Y024381D02*
X003400Y024381D01*
X003400Y024086D02*
X003300Y024086D01*
X003300Y023987D02*
X003400Y023987D01*
X003400Y023889D02*
X003300Y023889D01*
X003300Y023790D02*
X003400Y023790D01*
X003400Y023692D02*
X003300Y023692D01*
X003300Y023593D02*
X003400Y023593D01*
X003015Y023593D02*
X001685Y023593D01*
X001712Y023608D02*
X001779Y023660D01*
X001840Y023721D01*
X001892Y023788D01*
X001934Y023862D01*
X001967Y023941D01*
X001989Y024023D01*
X001999Y024100D01*
X001400Y024100D01*
X001400Y023501D01*
X001477Y023511D01*
X001559Y023533D01*
X001638Y023566D01*
X001712Y023608D01*
X001811Y023692D02*
X002889Y023692D01*
X002807Y023790D02*
X001893Y023790D01*
X001945Y023889D02*
X002755Y023889D01*
X002721Y023987D02*
X001979Y023987D01*
X001997Y024086D02*
X002703Y024086D01*
X002713Y024283D02*
X001987Y024283D01*
X001958Y024381D02*
X002742Y024381D01*
X002790Y024480D02*
X001910Y024480D01*
X001841Y024578D02*
X002032Y024578D01*
X001904Y024677D02*
X001732Y024677D01*
X001806Y024775D02*
X001529Y024775D01*
X001400Y024775D02*
X001300Y024775D01*
X001300Y024677D02*
X001400Y024677D01*
X001400Y024578D02*
X001300Y024578D01*
X001300Y024480D02*
X001400Y024480D01*
X001400Y024381D02*
X001300Y024381D01*
X001300Y024086D02*
X001400Y024086D01*
X001400Y023987D02*
X001300Y023987D01*
X001300Y023889D02*
X001400Y023889D01*
X001400Y023790D02*
X001300Y023790D01*
X001300Y023692D02*
X001400Y023692D01*
X001400Y023593D02*
X001300Y023593D01*
X000713Y024283D02*
X000600Y024283D01*
X000600Y024381D02*
X000742Y024381D01*
X000790Y024480D02*
X000600Y024480D01*
X000600Y024578D02*
X000859Y024578D01*
X000968Y024677D02*
X000600Y024677D01*
X000600Y024775D02*
X001171Y024775D01*
X000600Y024874D02*
X001761Y024874D01*
X001720Y024972D02*
X000600Y024972D01*
X000600Y025071D02*
X001700Y025071D01*
X001700Y025169D02*
X000600Y025169D01*
X000600Y025268D02*
X001700Y025268D01*
X001736Y025366D02*
X000600Y025366D01*
X000600Y025465D02*
X001777Y025465D01*
X001844Y025563D02*
X001632Y025563D01*
X001638Y025566D02*
X001712Y025608D01*
X001779Y025660D01*
X001840Y025721D01*
X001892Y025788D01*
X001934Y025862D01*
X001967Y025941D01*
X001989Y026023D01*
X001999Y026100D01*
X001400Y026100D01*
X001400Y026200D01*
X001300Y026200D01*
X001300Y026799D01*
X001223Y026789D01*
X001141Y026767D01*
X001062Y026734D01*
X000988Y026692D01*
X000921Y026640D01*
X000860Y026579D01*
X000808Y026512D01*
X000766Y026438D01*
X000733Y026359D01*
X000711Y026277D01*
X000701Y026200D01*
X001300Y026200D01*
X001300Y026100D01*
X000701Y026100D01*
X000711Y026023D01*
X000733Y025941D01*
X000766Y025862D01*
X000808Y025788D01*
X000860Y025721D01*
X000921Y025660D01*
X000988Y025608D01*
X001062Y025566D01*
X001141Y025533D01*
X001223Y025511D01*
X001300Y025501D01*
X001300Y026100D01*
X001400Y026100D01*
X001400Y025501D01*
X001477Y025511D01*
X001559Y025533D01*
X001638Y025566D01*
X001781Y025662D02*
X001942Y025662D01*
X001870Y025760D02*
X002124Y025760D01*
X001932Y025859D02*
X002768Y025859D01*
X002766Y025862D02*
X002808Y025788D01*
X002860Y025721D01*
X002921Y025660D01*
X002988Y025608D01*
X003062Y025566D01*
X003141Y025533D01*
X003223Y025511D01*
X003300Y025501D01*
X003300Y026100D01*
X002701Y026100D01*
X002711Y026023D01*
X002733Y025941D01*
X002766Y025862D01*
X002729Y025957D02*
X001971Y025957D01*
X001993Y026056D02*
X002707Y026056D01*
X002701Y026200D02*
X003300Y026200D01*
X003300Y026799D01*
X003223Y026789D01*
X003141Y026767D01*
X003062Y026734D01*
X002988Y026692D01*
X002921Y026640D01*
X002860Y026579D01*
X002808Y026512D01*
X002766Y026438D01*
X002733Y026359D01*
X002711Y026277D01*
X002701Y026200D01*
X002708Y026253D02*
X001992Y026253D01*
X001989Y026277D02*
X001967Y026359D01*
X001934Y026438D01*
X001892Y026512D01*
X001840Y026579D01*
X001779Y026640D01*
X001712Y026692D01*
X001638Y026734D01*
X001559Y026767D01*
X001477Y026789D01*
X001400Y026799D01*
X001400Y026200D01*
X001999Y026200D01*
X001989Y026277D01*
X001969Y026351D02*
X002731Y026351D01*
X002772Y026450D02*
X001928Y026450D01*
X001864Y026548D02*
X002836Y026548D01*
X002929Y026647D02*
X001771Y026647D01*
X001612Y026745D02*
X003088Y026745D01*
X003300Y026745D02*
X003400Y026745D01*
X003400Y026799D02*
X003400Y026200D01*
X003300Y026200D01*
X003300Y026100D01*
X003400Y026100D01*
X003400Y026200D01*
X003999Y026200D01*
X003989Y026277D01*
X003967Y026359D01*
X003934Y026438D01*
X003892Y026512D01*
X003840Y026579D01*
X003779Y026640D01*
X003712Y026692D01*
X003638Y026734D01*
X003559Y026767D01*
X003477Y026789D01*
X003400Y026799D01*
X003400Y026647D02*
X003300Y026647D01*
X003300Y026548D02*
X003400Y026548D01*
X003400Y026450D02*
X003300Y026450D01*
X003300Y026351D02*
X003400Y026351D01*
X003400Y026253D02*
X003300Y026253D01*
X003300Y026154D02*
X001400Y026154D01*
X001400Y026056D02*
X001300Y026056D01*
X001300Y026154D02*
X000600Y026154D01*
X000600Y026056D02*
X000707Y026056D01*
X000729Y025957D02*
X000600Y025957D01*
X000600Y025859D02*
X000768Y025859D01*
X000830Y025760D02*
X000600Y025760D01*
X000600Y025662D02*
X000919Y025662D01*
X001068Y025563D02*
X000600Y025563D01*
X000600Y026253D02*
X000708Y026253D01*
X000731Y026351D02*
X000600Y026351D01*
X000600Y026450D02*
X000772Y026450D01*
X000836Y026548D02*
X000600Y026548D01*
X000600Y026647D02*
X000929Y026647D01*
X001088Y026745D02*
X000600Y026745D01*
X000600Y026844D02*
X006912Y026844D01*
X006902Y026745D02*
X003612Y026745D01*
X003771Y026647D02*
X006916Y026647D01*
X006960Y026548D02*
X003864Y026548D01*
X003928Y026450D02*
X007066Y026450D01*
X007434Y026450D02*
X009340Y026450D01*
X009340Y026548D02*
X007540Y026548D01*
X006953Y026942D02*
X000600Y026942D01*
X000600Y027041D02*
X007002Y027041D01*
X007101Y027139D02*
X000600Y027139D01*
X000600Y027238D02*
X007234Y027238D01*
X009340Y026351D02*
X003969Y026351D01*
X003992Y026253D02*
X009340Y026253D01*
X009340Y026154D02*
X003400Y026154D01*
X003400Y026100D02*
X003999Y026100D01*
X003989Y026023D01*
X003967Y025941D01*
X003934Y025862D01*
X003892Y025788D01*
X003840Y025721D01*
X003779Y025660D01*
X003712Y025608D01*
X003638Y025566D01*
X003559Y025533D01*
X003477Y025511D01*
X003400Y025501D01*
X003400Y026100D01*
X003400Y026056D02*
X003300Y026056D01*
X003300Y025957D02*
X003400Y025957D01*
X003400Y025859D02*
X003300Y025859D01*
X003300Y025760D02*
X003400Y025760D01*
X003400Y025662D02*
X003300Y025662D01*
X003300Y025563D02*
X003400Y025563D01*
X003632Y025563D02*
X009340Y025563D01*
X009340Y025465D02*
X002923Y025465D01*
X002964Y025366D02*
X009340Y025366D01*
X009340Y025268D02*
X003000Y025268D01*
X003000Y025169D02*
X009340Y025169D01*
X009340Y025071D02*
X003000Y025071D01*
X002980Y024972D02*
X009340Y024972D01*
X009340Y025662D02*
X003781Y025662D01*
X003870Y025760D02*
X009340Y025760D01*
X009340Y025859D02*
X003932Y025859D01*
X003971Y025957D02*
X009340Y025957D01*
X009340Y026056D02*
X003993Y026056D01*
X003068Y025563D02*
X002856Y025563D01*
X002919Y025662D02*
X002758Y025662D01*
X002830Y025760D02*
X002576Y025760D01*
X001400Y025760D02*
X001300Y025760D01*
X001300Y025662D02*
X001400Y025662D01*
X001400Y025563D02*
X001300Y025563D01*
X001300Y025859D02*
X001400Y025859D01*
X001400Y025957D02*
X001300Y025957D01*
X001300Y026253D02*
X001400Y026253D01*
X001400Y026351D02*
X001300Y026351D01*
X001300Y026450D02*
X001400Y026450D01*
X001400Y026548D02*
X001300Y026548D01*
X001300Y026647D02*
X001400Y026647D01*
X001400Y026745D02*
X001300Y026745D01*
X002796Y024677D02*
X002968Y024677D01*
X002859Y024578D02*
X002668Y024578D01*
X012550Y022017D02*
X028034Y022017D01*
X027936Y021919D02*
X012550Y021919D01*
X012550Y021820D02*
X027837Y021820D01*
X027750Y021722D02*
X012550Y021722D01*
X012550Y021623D02*
X027750Y021623D01*
X027750Y021525D02*
X012550Y021525D01*
X012550Y021426D02*
X027750Y021426D01*
X027750Y021328D02*
X012550Y021328D01*
X012550Y021229D02*
X027750Y021229D01*
X027750Y021131D02*
X012550Y021131D01*
X012550Y021032D02*
X027750Y021032D01*
X027750Y020934D02*
X012550Y020934D01*
X012550Y020835D02*
X027750Y020835D01*
X027750Y020737D02*
X012550Y020737D01*
X012550Y020638D02*
X027750Y020638D01*
X027750Y020540D02*
X012550Y020540D01*
X012550Y020441D02*
X027750Y020441D01*
X027750Y020343D02*
X012550Y020343D01*
X012550Y020244D02*
X027750Y020244D01*
X027750Y020146D02*
X012550Y020146D01*
X012550Y017880D02*
X015472Y017880D01*
X015111Y017782D02*
X012550Y017782D01*
X012550Y017683D02*
X014940Y017683D01*
X014770Y017585D02*
X012550Y017585D01*
X012550Y017486D02*
X014623Y017486D01*
X014524Y017388D02*
X012550Y017388D01*
X012550Y017289D02*
X014426Y017289D01*
X014327Y017191D02*
X012550Y017191D01*
X012550Y017092D02*
X014249Y017092D01*
X014192Y016994D02*
X012550Y016994D01*
X012550Y016895D02*
X014136Y016895D01*
X014079Y016797D02*
X012550Y016797D01*
X012550Y016698D02*
X014022Y016698D01*
X013990Y016600D02*
X012550Y016600D01*
X012550Y016501D02*
X013963Y016501D01*
X013937Y016403D02*
X012550Y016403D01*
X012550Y016304D02*
X013911Y016304D01*
X013884Y016206D02*
X012550Y016206D01*
X012550Y016107D02*
X013873Y016107D01*
X013873Y016009D02*
X012550Y016009D01*
X012550Y015910D02*
X013873Y015910D01*
X013873Y015812D02*
X012550Y015812D01*
X012550Y015713D02*
X013873Y015713D01*
X013878Y015615D02*
X012550Y015615D01*
X012550Y015516D02*
X013904Y015516D01*
X013931Y015418D02*
X012550Y015418D01*
X012550Y015319D02*
X013957Y015319D01*
X013983Y015221D02*
X012550Y015221D01*
X012550Y015122D02*
X014010Y015122D01*
X014065Y015024D02*
X012550Y015024D01*
X012550Y014925D02*
X014122Y014925D01*
X014179Y014827D02*
X012550Y014827D01*
X012550Y014728D02*
X014235Y014728D01*
X014303Y014630D02*
X012550Y014630D01*
X012550Y014531D02*
X014402Y014531D01*
X014500Y014433D02*
X012550Y014433D01*
X012550Y014334D02*
X014599Y014334D01*
X014728Y014236D02*
X012550Y014236D01*
X016141Y013842D02*
X016759Y013842D01*
X016150Y009803D02*
X016150Y009803D01*
X016150Y009705D02*
X016150Y009705D01*
X016185Y008650D02*
X016250Y008585D01*
X015943Y008424D02*
X015807Y008424D01*
X015943Y008326D02*
X016023Y008245D01*
X016000Y008232D01*
X015943Y008129D02*
X015735Y008129D01*
X015735Y008030D02*
X015943Y008030D01*
X015943Y007833D02*
X015735Y007833D01*
X015735Y007735D02*
X015943Y007735D01*
X015967Y007636D02*
X015742Y007636D01*
X015735Y007932D02*
X016221Y007932D01*
X016221Y007833D02*
X016279Y007833D01*
X016279Y007735D02*
X016221Y007735D01*
X016221Y007636D02*
X016279Y007636D01*
X015867Y007242D02*
X017201Y007242D01*
X017304Y007144D02*
X015821Y007144D01*
X015707Y007045D02*
X017406Y007045D01*
X018656Y007932D02*
X018713Y007932D01*
X018713Y008030D02*
X018656Y008030D01*
X020431Y008030D02*
X020580Y008030D01*
X020580Y007932D02*
X020431Y007932D01*
X026050Y009902D02*
X031196Y009902D01*
X031196Y010000D02*
X026050Y010000D01*
X026050Y010099D02*
X031196Y010099D01*
X031196Y010197D02*
X026050Y010197D01*
X026050Y010296D02*
X031196Y010296D01*
X031196Y010394D02*
X026050Y010394D01*
X026050Y010493D02*
X031196Y010493D01*
X031196Y010591D02*
X026050Y010591D01*
X030597Y005469D02*
X031196Y005469D01*
X031196Y005371D02*
X030597Y005371D01*
X030597Y005272D02*
X031196Y005272D01*
X031196Y005174D02*
X030597Y005174D01*
X030597Y005075D02*
X031196Y005075D01*
X031196Y004977D02*
X030597Y004977D01*
X030597Y004878D02*
X031196Y004878D01*
X031196Y004780D02*
X030585Y004780D01*
X030436Y002908D02*
X031196Y002908D01*
X031196Y002810D02*
X030667Y002810D01*
X030835Y002711D02*
X031196Y002711D01*
X031196Y002613D02*
X030934Y002613D01*
X031032Y002514D02*
X031196Y002514D01*
X031196Y002416D02*
X031101Y002416D01*
X031158Y002317D02*
X031196Y002317D01*
X033671Y002317D02*
X035037Y002317D01*
X035100Y002380D02*
X034818Y002098D01*
X034726Y002098D01*
X034598Y002045D01*
X034500Y001947D01*
X034469Y001873D01*
X034410Y001907D01*
X034145Y001978D01*
X033871Y001978D01*
X033671Y001924D01*
X033671Y005561D01*
X034425Y005561D01*
X034513Y005649D01*
X034513Y006462D01*
X034425Y006550D01*
X034205Y006550D01*
X034205Y006763D01*
X034794Y007352D01*
X034794Y007198D01*
X035112Y007198D01*
X035112Y007102D01*
X034794Y007102D01*
X034794Y006933D01*
X034804Y006895D01*
X034824Y006861D01*
X034852Y006833D01*
X034886Y006813D01*
X034924Y006803D01*
X035112Y006803D01*
X035112Y007102D01*
X035209Y007102D01*
X035209Y006803D01*
X035397Y006803D01*
X035435Y006813D01*
X035469Y006833D01*
X035495Y006859D01*
X035551Y006803D01*
X035582Y006803D01*
X035547Y006719D01*
X035547Y006581D01*
X035600Y006453D01*
X035698Y006355D01*
X035826Y006302D01*
X035866Y006302D01*
X035866Y006286D01*
X035489Y006286D01*
X035504Y006321D01*
X035504Y006460D01*
X035451Y006588D01*
X035353Y006686D01*
X035225Y006739D01*
X035087Y006739D01*
X034959Y006686D01*
X034861Y006588D01*
X034808Y006460D01*
X034808Y006321D01*
X034861Y006193D01*
X034865Y006189D01*
X034865Y006055D01*
X035000Y005920D01*
X035094Y005826D01*
X035866Y005826D01*
X035866Y005649D01*
X035954Y005561D01*
X036114Y005561D01*
X036100Y005547D01*
X036047Y005419D01*
X036047Y005281D01*
X036100Y005153D01*
X036198Y005055D01*
X036326Y005002D01*
X036464Y005002D01*
X036592Y005055D01*
X036690Y005153D01*
X036743Y005281D01*
X036743Y005320D01*
X039090Y005320D01*
X039225Y005455D01*
X039325Y005555D01*
X039325Y009603D01*
X039539Y009603D01*
X039595Y009659D01*
X039621Y009633D01*
X039655Y009613D01*
X039693Y009603D01*
X039881Y009603D01*
X039881Y009902D01*
X039978Y009902D01*
X039978Y009998D01*
X040296Y009998D01*
X040296Y010167D01*
X040286Y010205D01*
X040266Y010239D01*
X040238Y010267D01*
X040204Y010287D01*
X040166Y010297D01*
X039978Y010297D01*
X039978Y009998D01*
X039881Y009998D01*
X039881Y010297D01*
X039693Y010297D01*
X039655Y010287D01*
X039621Y010267D01*
X039595Y010241D01*
X039539Y010297D01*
X039467Y010297D01*
X039525Y010355D01*
X039525Y010603D01*
X039539Y010603D01*
X039595Y010659D01*
X039621Y010633D01*
X039655Y010613D01*
X039693Y010603D01*
X039881Y010603D01*
X039881Y010902D01*
X039978Y010902D01*
X039978Y010998D01*
X040296Y010998D01*
X040296Y011167D01*
X040286Y011205D01*
X040266Y011239D01*
X040238Y011267D01*
X040204Y011287D01*
X040166Y011297D01*
X039978Y011297D01*
X039978Y010998D01*
X039881Y010998D01*
X039881Y011297D01*
X039693Y011297D01*
X039655Y011287D01*
X039621Y011267D01*
X039595Y011241D01*
X039539Y011297D01*
X038982Y011297D01*
X038894Y011209D01*
X038894Y011138D01*
X038890Y011147D01*
X038792Y011245D01*
X038664Y011298D01*
X038526Y011298D01*
X038398Y011245D01*
X038300Y011147D01*
X038247Y011019D01*
X038247Y010881D01*
X038300Y010753D01*
X038365Y010688D01*
X038365Y010680D01*
X037725Y010680D01*
X037725Y010845D01*
X037525Y011045D01*
X037390Y011180D01*
X036301Y011180D01*
X036343Y011281D01*
X036343Y011373D01*
X036377Y011407D01*
X036400Y011353D01*
X036498Y011255D01*
X036626Y011202D01*
X036764Y011202D01*
X036892Y011255D01*
X036990Y011353D01*
X037043Y011481D01*
X037043Y011601D01*
X037055Y011613D01*
X037055Y011873D01*
X037095Y011913D01*
X037135Y011873D01*
X037135Y011813D01*
X037285Y011663D01*
X037408Y011540D01*
X040082Y011540D01*
X040182Y011640D01*
X040305Y011763D01*
X040305Y012450D01*
X040487Y012450D01*
X040575Y012537D01*
X040575Y013322D01*
X040487Y013410D01*
X039703Y013410D01*
X039615Y013322D01*
X039615Y012537D01*
X039703Y012450D01*
X039885Y012450D01*
X039885Y011960D01*
X038114Y011960D01*
X038120Y011980D01*
X038120Y012237D01*
X037857Y012237D01*
X037857Y012263D01*
X038120Y012263D01*
X038120Y012520D01*
X038110Y012558D01*
X038090Y012592D01*
X038062Y012620D01*
X038028Y012640D01*
X037990Y012650D01*
X037880Y012650D01*
X037892Y012655D01*
X037990Y012753D01*
X038043Y012881D01*
X038043Y013019D01*
X037990Y013147D01*
X037892Y013245D01*
X037764Y013298D01*
X037626Y013298D01*
X037498Y013245D01*
X037413Y013160D01*
X037105Y013160D01*
X037105Y013352D01*
X037226Y013302D01*
X037364Y013302D01*
X037492Y013355D01*
X037590Y013453D01*
X037643Y013581D01*
X037643Y013719D01*
X037590Y013847D01*
X037560Y013878D01*
X037595Y013913D01*
X037658Y013850D01*
X038032Y013850D01*
X038120Y013938D01*
X038120Y014040D01*
X039013Y014040D01*
X039098Y013955D01*
X039226Y013902D01*
X039364Y013902D01*
X039492Y013955D01*
X039590Y014053D01*
X039615Y014113D01*
X039615Y013978D01*
X040046Y013978D01*
X040046Y013881D01*
X039615Y013881D01*
X039615Y013731D01*
X039896Y013450D01*
X040046Y013450D01*
X040046Y013881D01*
X040143Y013881D01*
X040143Y013450D01*
X040294Y013450D01*
X040575Y013731D01*
X040575Y013881D01*
X040143Y013881D01*
X040143Y013978D01*
X040046Y013978D01*
X040046Y014410D01*
X039896Y014410D01*
X039626Y014139D01*
X039643Y014181D01*
X039643Y014319D01*
X039590Y014447D01*
X039492Y014545D01*
X039364Y014598D01*
X039226Y014598D01*
X039098Y014545D01*
X039013Y014460D01*
X038120Y014460D01*
X038120Y014562D01*
X038032Y014650D01*
X037658Y014650D01*
X037595Y014587D01*
X037532Y014650D01*
X037158Y014650D01*
X037095Y014587D01*
X037032Y014650D01*
X036658Y014650D01*
X036595Y014587D01*
X036555Y014627D01*
X036555Y014903D01*
X036739Y014903D01*
X036795Y014959D01*
X036851Y014903D01*
X037408Y014903D01*
X037479Y014974D01*
X037498Y014955D01*
X037626Y014902D01*
X037764Y014902D01*
X037892Y014955D01*
X037977Y015040D01*
X039615Y015040D01*
X039615Y014731D01*
X039896Y014450D01*
X040294Y014450D01*
X040575Y014731D01*
X040575Y015128D01*
X040294Y015410D01*
X040132Y015410D01*
X040094Y015448D01*
X040645Y015448D01*
X040645Y000600D01*
X034995Y000600D01*
X035049Y000800D01*
X035049Y001074D01*
X034978Y001339D01*
X034927Y001428D01*
X034992Y001455D01*
X035090Y001553D01*
X035143Y001681D01*
X035143Y001773D01*
X035290Y001920D01*
X036133Y001920D01*
X036198Y001855D01*
X036326Y001802D01*
X036464Y001802D01*
X036592Y001855D01*
X036690Y001953D01*
X036743Y002081D01*
X036743Y002219D01*
X036690Y002347D01*
X036592Y002445D01*
X036464Y002498D01*
X036326Y002498D01*
X036198Y002445D01*
X036133Y002380D01*
X035100Y002380D01*
X034938Y002219D02*
X033671Y002219D01*
X033671Y002120D02*
X034840Y002120D01*
X034574Y002022D02*
X033671Y002022D01*
X033671Y002416D02*
X036168Y002416D01*
X036622Y002416D02*
X039650Y002416D01*
X039648Y002418D02*
X039910Y002156D01*
X040046Y002156D01*
X040046Y002554D01*
X039648Y002554D01*
X039648Y002418D01*
X039648Y002514D02*
X033671Y002514D01*
X033671Y002613D02*
X040046Y002613D01*
X040046Y002651D02*
X040046Y002554D01*
X040143Y002554D01*
X040143Y002156D01*
X040280Y002156D01*
X040542Y002418D01*
X040542Y002554D01*
X040143Y002554D01*
X040143Y002651D01*
X040046Y002651D01*
X039648Y002651D01*
X039648Y002788D01*
X039910Y003050D01*
X040046Y003050D01*
X040046Y002651D01*
X040046Y002711D02*
X040143Y002711D01*
X040143Y002651D02*
X040143Y003050D01*
X040280Y003050D01*
X040542Y002788D01*
X040542Y002651D01*
X040143Y002651D01*
X040143Y002613D02*
X040645Y002613D01*
X040645Y002711D02*
X040542Y002711D01*
X040520Y002810D02*
X040645Y002810D01*
X040645Y002908D02*
X040422Y002908D01*
X040323Y003007D02*
X040645Y003007D01*
X040645Y003105D02*
X033671Y003105D01*
X033671Y003007D02*
X039867Y003007D01*
X039768Y002908D02*
X033671Y002908D01*
X033671Y002810D02*
X039670Y002810D01*
X039648Y002711D02*
X033671Y002711D01*
X033671Y003204D02*
X039862Y003204D01*
X039910Y003156D02*
X039648Y003418D01*
X039648Y003554D01*
X040046Y003554D01*
X040046Y003651D01*
X039648Y003651D01*
X039648Y003788D01*
X039910Y004050D01*
X040046Y004050D01*
X040046Y003651D01*
X040143Y003651D01*
X040143Y004050D01*
X040280Y004050D01*
X040542Y003788D01*
X040542Y003651D01*
X040143Y003651D01*
X040143Y003554D01*
X040143Y003156D01*
X040280Y003156D01*
X040542Y003418D01*
X040542Y003554D01*
X040143Y003554D01*
X040046Y003554D01*
X040046Y003156D01*
X039910Y003156D01*
X040046Y003204D02*
X040143Y003204D01*
X040143Y003302D02*
X040046Y003302D01*
X040046Y003401D02*
X040143Y003401D01*
X040143Y003499D02*
X040046Y003499D01*
X040046Y003598D02*
X033671Y003598D01*
X033671Y003696D02*
X039648Y003696D01*
X039655Y003795D02*
X033671Y003795D01*
X033671Y003893D02*
X039753Y003893D01*
X039852Y003992D02*
X033671Y003992D01*
X033671Y004090D02*
X040645Y004090D01*
X040645Y003992D02*
X040338Y003992D01*
X040437Y003893D02*
X040645Y003893D01*
X040645Y003795D02*
X040535Y003795D01*
X040542Y003696D02*
X040645Y003696D01*
X040645Y003598D02*
X040143Y003598D01*
X040143Y003696D02*
X040046Y003696D01*
X040046Y003795D02*
X040143Y003795D01*
X040143Y003893D02*
X040046Y003893D01*
X040046Y003992D02*
X040143Y003992D01*
X040280Y004156D02*
X039910Y004156D01*
X039648Y004418D01*
X039648Y004788D01*
X039910Y005050D01*
X040280Y005050D01*
X040542Y004788D01*
X040542Y004418D01*
X040280Y004156D01*
X040313Y004189D02*
X040645Y004189D01*
X040645Y004287D02*
X040411Y004287D01*
X040510Y004386D02*
X040645Y004386D01*
X040645Y004484D02*
X040542Y004484D01*
X040542Y004583D02*
X040645Y004583D01*
X040645Y004681D02*
X040542Y004681D01*
X040542Y004780D02*
X040645Y004780D01*
X040645Y004878D02*
X040452Y004878D01*
X040353Y004977D02*
X040645Y004977D01*
X040645Y005075D02*
X036612Y005075D01*
X036699Y005174D02*
X040645Y005174D01*
X040645Y005272D02*
X036739Y005272D01*
X036178Y005075D02*
X033671Y005075D01*
X033671Y004977D02*
X039837Y004977D01*
X039738Y004878D02*
X033671Y004878D01*
X033671Y004780D02*
X039648Y004780D01*
X039648Y004681D02*
X033671Y004681D01*
X033671Y004583D02*
X039648Y004583D01*
X039648Y004484D02*
X033671Y004484D01*
X033671Y004386D02*
X039680Y004386D01*
X039779Y004287D02*
X033671Y004287D01*
X033671Y004189D02*
X039877Y004189D01*
X039648Y003499D02*
X033671Y003499D01*
X033671Y003401D02*
X039665Y003401D01*
X039764Y003302D02*
X033671Y003302D01*
X034350Y001923D02*
X034490Y001923D01*
X035143Y001726D02*
X039648Y001726D01*
X039648Y001628D02*
X035121Y001628D01*
X035066Y001529D02*
X039648Y001529D01*
X039648Y001431D02*
X034933Y001431D01*
X034980Y001332D02*
X039648Y001332D01*
X039648Y001244D02*
X039736Y001156D01*
X040454Y001156D01*
X040542Y001244D01*
X040542Y001962D01*
X040454Y002050D01*
X039736Y002050D01*
X039648Y001962D01*
X039648Y001244D01*
X039658Y001234D02*
X035006Y001234D01*
X035033Y001135D02*
X040645Y001135D01*
X040645Y001037D02*
X035049Y001037D01*
X035049Y000938D02*
X040645Y000938D01*
X040645Y000840D02*
X035049Y000840D01*
X035033Y000741D02*
X040645Y000741D01*
X040645Y000643D02*
X035007Y000643D01*
X035195Y001825D02*
X036271Y001825D01*
X036519Y001825D02*
X039648Y001825D01*
X039648Y001923D02*
X036660Y001923D01*
X036718Y002022D02*
X039708Y002022D01*
X039847Y002219D02*
X036743Y002219D01*
X036743Y002120D02*
X040645Y002120D01*
X040645Y002022D02*
X040482Y002022D01*
X040542Y001923D02*
X040645Y001923D01*
X040645Y001825D02*
X040542Y001825D01*
X040542Y001726D02*
X040645Y001726D01*
X040645Y001628D02*
X040542Y001628D01*
X040542Y001529D02*
X040645Y001529D01*
X040645Y001431D02*
X040542Y001431D01*
X040542Y001332D02*
X040645Y001332D01*
X040645Y001234D02*
X040531Y001234D01*
X040645Y002219D02*
X040343Y002219D01*
X040441Y002317D02*
X040645Y002317D01*
X040645Y002416D02*
X040540Y002416D01*
X040542Y002514D02*
X040645Y002514D01*
X040143Y002514D02*
X040046Y002514D01*
X040046Y002416D02*
X040143Y002416D01*
X040143Y002317D02*
X040046Y002317D01*
X040046Y002219D02*
X040143Y002219D01*
X039749Y002317D02*
X036702Y002317D01*
X040046Y002810D02*
X040143Y002810D01*
X040143Y002908D02*
X040046Y002908D01*
X040046Y003007D02*
X040143Y003007D01*
X040328Y003204D02*
X040645Y003204D01*
X040645Y003302D02*
X040426Y003302D01*
X040525Y003401D02*
X040645Y003401D01*
X040645Y003499D02*
X040542Y003499D01*
X040645Y005371D02*
X039141Y005371D01*
X039239Y005469D02*
X040645Y005469D01*
X040645Y005568D02*
X039325Y005568D01*
X039325Y005666D02*
X040645Y005666D01*
X040645Y005765D02*
X039325Y005765D01*
X039325Y005863D02*
X040645Y005863D01*
X040645Y005962D02*
X039325Y005962D01*
X039325Y006060D02*
X040645Y006060D01*
X040645Y006159D02*
X039325Y006159D01*
X039325Y006257D02*
X040645Y006257D01*
X040645Y006356D02*
X039325Y006356D01*
X039325Y006454D02*
X040645Y006454D01*
X040645Y006553D02*
X039325Y006553D01*
X039325Y006651D02*
X040645Y006651D01*
X040645Y006750D02*
X039325Y006750D01*
X039325Y006848D02*
X040645Y006848D01*
X040645Y006947D02*
X039325Y006947D01*
X039325Y007045D02*
X040645Y007045D01*
X040645Y007144D02*
X039325Y007144D01*
X039325Y007242D02*
X040645Y007242D01*
X040645Y007341D02*
X039325Y007341D01*
X039325Y007439D02*
X040645Y007439D01*
X040645Y007538D02*
X039325Y007538D01*
X039325Y007636D02*
X040645Y007636D01*
X040645Y007735D02*
X039325Y007735D01*
X039325Y007833D02*
X040645Y007833D01*
X040645Y007932D02*
X039325Y007932D01*
X039325Y008030D02*
X040645Y008030D01*
X040645Y008129D02*
X039325Y008129D01*
X039325Y008227D02*
X040645Y008227D01*
X040645Y008326D02*
X039325Y008326D01*
X039325Y008424D02*
X040645Y008424D01*
X040645Y008523D02*
X039325Y008523D01*
X039325Y008621D02*
X040645Y008621D01*
X040645Y008720D02*
X039325Y008720D01*
X039325Y008818D02*
X040645Y008818D01*
X040645Y008917D02*
X039325Y008917D01*
X039325Y009015D02*
X040645Y009015D01*
X040645Y009114D02*
X039325Y009114D01*
X039325Y009212D02*
X040645Y009212D01*
X040645Y009311D02*
X039325Y009311D01*
X039325Y009409D02*
X040645Y009409D01*
X040645Y009508D02*
X039325Y009508D01*
X039542Y009606D02*
X039683Y009606D01*
X039881Y009606D02*
X039978Y009606D01*
X039978Y009603D02*
X040166Y009603D01*
X040204Y009613D01*
X040238Y009633D01*
X040266Y009661D01*
X040286Y009695D01*
X040296Y009733D01*
X040296Y009902D01*
X039978Y009902D01*
X039978Y009603D01*
X039978Y009705D02*
X039881Y009705D01*
X039881Y009803D02*
X039978Y009803D01*
X039978Y009902D02*
X039881Y009902D01*
X039881Y010000D02*
X039978Y010000D01*
X039978Y010099D02*
X039881Y010099D01*
X039881Y010197D02*
X039978Y010197D01*
X039978Y010296D02*
X039881Y010296D01*
X039688Y010296D02*
X039540Y010296D01*
X039525Y010394D02*
X040645Y010394D01*
X040645Y010296D02*
X040171Y010296D01*
X040288Y010197D02*
X040645Y010197D01*
X040645Y010099D02*
X040296Y010099D01*
X040296Y010000D02*
X040645Y010000D01*
X040645Y009902D02*
X040296Y009902D01*
X040296Y009803D02*
X040645Y009803D01*
X040645Y009705D02*
X040288Y009705D01*
X040177Y009606D02*
X040645Y009606D01*
X040645Y010493D02*
X039525Y010493D01*
X039525Y010591D02*
X040645Y010591D01*
X040645Y010690D02*
X040283Y010690D01*
X040286Y010695D02*
X040296Y010733D01*
X040296Y010902D01*
X039978Y010902D01*
X039978Y010603D01*
X040166Y010603D01*
X040204Y010613D01*
X040238Y010633D01*
X040266Y010661D01*
X040286Y010695D01*
X040296Y010788D02*
X040645Y010788D01*
X040645Y010887D02*
X040296Y010887D01*
X040296Y011084D02*
X040645Y011084D01*
X040645Y011182D02*
X040292Y011182D01*
X040215Y011281D02*
X040645Y011281D01*
X040645Y011379D02*
X037001Y011379D01*
X037042Y011478D02*
X040645Y011478D01*
X040645Y011576D02*
X040118Y011576D01*
X040216Y011675D02*
X040645Y011675D01*
X040645Y011773D02*
X040305Y011773D01*
X040305Y011872D02*
X040645Y011872D01*
X040645Y011970D02*
X040305Y011970D01*
X040305Y012069D02*
X040645Y012069D01*
X040645Y012167D02*
X040305Y012167D01*
X040305Y012266D02*
X040645Y012266D01*
X040645Y012364D02*
X040305Y012364D01*
X040500Y012463D02*
X040645Y012463D01*
X040645Y012561D02*
X040575Y012561D01*
X040575Y012660D02*
X040645Y012660D01*
X040645Y012758D02*
X040575Y012758D01*
X040575Y012857D02*
X040645Y012857D01*
X040645Y012955D02*
X040575Y012955D01*
X040575Y013054D02*
X040645Y013054D01*
X040645Y013152D02*
X040575Y013152D01*
X040575Y013251D02*
X040645Y013251D01*
X040645Y013349D02*
X040548Y013349D01*
X040645Y013448D02*
X037585Y013448D01*
X037629Y013546D02*
X039800Y013546D01*
X039701Y013645D02*
X037643Y013645D01*
X037633Y013743D02*
X039615Y013743D01*
X039615Y013842D02*
X037592Y013842D01*
X037478Y013349D02*
X039642Y013349D01*
X039615Y013251D02*
X037879Y013251D01*
X037985Y013152D02*
X039615Y013152D01*
X039615Y013054D02*
X038029Y013054D01*
X038043Y012955D02*
X039615Y012955D01*
X039615Y012857D02*
X038033Y012857D01*
X037992Y012758D02*
X039615Y012758D01*
X039615Y012660D02*
X037897Y012660D01*
X038108Y012561D02*
X039615Y012561D01*
X039690Y012463D02*
X038120Y012463D01*
X038120Y012364D02*
X039885Y012364D01*
X039885Y012266D02*
X038120Y012266D01*
X038120Y012167D02*
X039885Y012167D01*
X039885Y012069D02*
X038120Y012069D01*
X038117Y011970D02*
X039885Y011970D01*
X039881Y011281D02*
X039978Y011281D01*
X039978Y011182D02*
X039881Y011182D01*
X039881Y011084D02*
X039978Y011084D01*
X039978Y010985D02*
X040645Y010985D01*
X039978Y010887D02*
X039881Y010887D01*
X039881Y010788D02*
X039978Y010788D01*
X039978Y010690D02*
X039881Y010690D01*
X039645Y011281D02*
X039555Y011281D01*
X038965Y011281D02*
X038707Y011281D01*
X038855Y011182D02*
X038894Y011182D01*
X038483Y011281D02*
X036918Y011281D01*
X037043Y011576D02*
X037372Y011576D01*
X037285Y011663D02*
X037285Y011663D01*
X037273Y011675D02*
X037055Y011675D01*
X037055Y011773D02*
X037175Y011773D01*
X037135Y011872D02*
X037055Y011872D01*
X036389Y011379D02*
X036349Y011379D01*
X036343Y011281D02*
X036472Y011281D01*
X036302Y011182D02*
X038335Y011182D01*
X038273Y011084D02*
X037487Y011084D01*
X037585Y010985D02*
X038247Y010985D01*
X038247Y010887D02*
X037684Y010887D01*
X037725Y010788D02*
X038285Y010788D01*
X038363Y010690D02*
X037725Y010690D01*
X037265Y010655D02*
X037265Y006412D01*
X037200Y006347D01*
X037147Y006219D01*
X037147Y006081D01*
X037200Y005953D01*
X037298Y005855D01*
X037426Y005802D01*
X037564Y005802D01*
X037692Y005855D01*
X037790Y005953D01*
X037843Y006081D01*
X037843Y006219D01*
X037790Y006347D01*
X037725Y006412D01*
X037725Y010220D01*
X038273Y010220D01*
X038200Y010147D01*
X038147Y010019D01*
X038147Y009881D01*
X038200Y009753D01*
X038298Y009655D01*
X038426Y009602D01*
X038564Y009602D01*
X038692Y009655D01*
X038757Y009720D01*
X038865Y009720D01*
X038865Y005780D01*
X036875Y005780D01*
X036875Y006462D01*
X036787Y006550D01*
X036600Y006550D01*
X036600Y009498D01*
X036787Y009498D01*
X036875Y009586D01*
X036875Y010399D01*
X036787Y010487D01*
X035954Y010487D01*
X035866Y010399D01*
X035866Y009586D01*
X035954Y009498D01*
X036140Y009498D01*
X036140Y008066D01*
X036064Y008098D01*
X035926Y008098D01*
X035834Y008060D01*
X035277Y008060D01*
X035192Y008145D01*
X035064Y008198D01*
X034926Y008198D01*
X034798Y008145D01*
X034700Y008047D01*
X034647Y007919D01*
X034647Y007799D01*
X033908Y007060D01*
X033785Y006937D01*
X033785Y006550D01*
X033671Y006550D01*
X033671Y009498D01*
X034425Y009498D01*
X034513Y009586D01*
X034513Y009740D01*
X034797Y009740D01*
X034747Y009619D01*
X034747Y009481D01*
X034800Y009353D01*
X034898Y009255D01*
X035026Y009202D01*
X035164Y009202D01*
X035292Y009255D01*
X035390Y009353D01*
X035443Y009481D01*
X035443Y009619D01*
X035390Y009747D01*
X035305Y009832D01*
X035305Y009937D01*
X035205Y010037D01*
X035082Y010160D01*
X034513Y010160D01*
X034513Y010399D01*
X034425Y010487D01*
X033671Y010487D01*
X033671Y010949D01*
X033765Y010855D01*
X033900Y010720D01*
X037200Y010720D01*
X037265Y010655D01*
X037230Y010690D02*
X033671Y010690D01*
X033671Y010788D02*
X033832Y010788D01*
X033733Y010887D02*
X033671Y010887D01*
X033671Y010591D02*
X037265Y010591D01*
X037265Y010493D02*
X033671Y010493D01*
X034513Y010394D02*
X035866Y010394D01*
X035866Y010296D02*
X034513Y010296D01*
X034513Y010197D02*
X035866Y010197D01*
X035866Y010099D02*
X035143Y010099D01*
X035242Y010000D02*
X035866Y010000D01*
X035866Y009902D02*
X035305Y009902D01*
X035334Y009803D02*
X035866Y009803D01*
X035866Y009705D02*
X035408Y009705D01*
X035443Y009606D02*
X035866Y009606D01*
X035945Y009508D02*
X035443Y009508D01*
X035413Y009409D02*
X036140Y009409D01*
X036140Y009311D02*
X035348Y009311D01*
X035189Y009212D02*
X036140Y009212D01*
X036140Y009114D02*
X033671Y009114D01*
X033671Y009212D02*
X035001Y009212D01*
X034842Y009311D02*
X033671Y009311D01*
X033671Y009409D02*
X034776Y009409D01*
X034747Y009508D02*
X034434Y009508D01*
X034513Y009606D02*
X034747Y009606D01*
X034782Y009705D02*
X034513Y009705D01*
X033671Y009015D02*
X036140Y009015D01*
X036140Y008917D02*
X033671Y008917D01*
X033671Y008818D02*
X036140Y008818D01*
X036140Y008720D02*
X033671Y008720D01*
X033671Y008621D02*
X036140Y008621D01*
X036140Y008523D02*
X033671Y008523D01*
X033671Y008424D02*
X036140Y008424D01*
X036140Y008326D02*
X033671Y008326D01*
X033671Y008227D02*
X036140Y008227D01*
X036140Y008129D02*
X035209Y008129D01*
X034781Y008129D02*
X033671Y008129D01*
X033671Y008030D02*
X034693Y008030D01*
X034652Y007932D02*
X033671Y007932D01*
X033671Y007833D02*
X034647Y007833D01*
X034582Y007735D02*
X033671Y007735D01*
X033671Y007636D02*
X034484Y007636D01*
X034385Y007538D02*
X033671Y007538D01*
X033671Y007439D02*
X034287Y007439D01*
X034188Y007341D02*
X033671Y007341D01*
X033671Y007242D02*
X034090Y007242D01*
X033991Y007144D02*
X033671Y007144D01*
X033671Y007045D02*
X033893Y007045D01*
X033794Y006947D02*
X033671Y006947D01*
X033671Y006848D02*
X033785Y006848D01*
X033785Y006750D02*
X033671Y006750D01*
X033671Y006651D02*
X033785Y006651D01*
X033785Y006553D02*
X033671Y006553D01*
X034205Y006553D02*
X034846Y006553D01*
X034808Y006454D02*
X034513Y006454D01*
X034513Y006356D02*
X034808Y006356D01*
X034834Y006257D02*
X034513Y006257D01*
X034513Y006159D02*
X034865Y006159D01*
X034865Y006060D02*
X034513Y006060D01*
X034513Y005962D02*
X034958Y005962D01*
X035057Y005863D02*
X034513Y005863D01*
X034513Y005765D02*
X035866Y005765D01*
X035866Y005666D02*
X034513Y005666D01*
X034431Y005568D02*
X035948Y005568D01*
X036067Y005469D02*
X033671Y005469D01*
X033671Y005371D02*
X036047Y005371D01*
X036050Y005272D02*
X033671Y005272D01*
X033671Y005174D02*
X036091Y005174D01*
X036875Y005863D02*
X037290Y005863D01*
X037196Y005962D02*
X036875Y005962D01*
X036875Y006060D02*
X037155Y006060D01*
X037147Y006159D02*
X036875Y006159D01*
X036875Y006257D02*
X037162Y006257D01*
X037208Y006356D02*
X036875Y006356D01*
X036875Y006454D02*
X037265Y006454D01*
X037265Y006553D02*
X036600Y006553D01*
X036600Y006651D02*
X037265Y006651D01*
X037265Y006750D02*
X036600Y006750D01*
X036600Y006848D02*
X037265Y006848D01*
X037265Y006947D02*
X036600Y006947D01*
X036600Y007045D02*
X037265Y007045D01*
X037265Y007144D02*
X036600Y007144D01*
X036600Y007242D02*
X037265Y007242D01*
X037265Y007341D02*
X036600Y007341D01*
X036600Y007439D02*
X037265Y007439D01*
X037265Y007538D02*
X036600Y007538D01*
X036600Y007636D02*
X037265Y007636D01*
X037265Y007735D02*
X036600Y007735D01*
X036600Y007833D02*
X037265Y007833D01*
X037265Y007932D02*
X036600Y007932D01*
X036600Y008030D02*
X037265Y008030D01*
X037265Y008129D02*
X036600Y008129D01*
X036600Y008227D02*
X037265Y008227D01*
X037265Y008326D02*
X036600Y008326D01*
X036600Y008424D02*
X037265Y008424D01*
X037265Y008523D02*
X036600Y008523D01*
X036600Y008621D02*
X037265Y008621D01*
X037265Y008720D02*
X036600Y008720D01*
X036600Y008818D02*
X037265Y008818D01*
X037265Y008917D02*
X036600Y008917D01*
X036600Y009015D02*
X037265Y009015D01*
X037265Y009114D02*
X036600Y009114D01*
X036600Y009212D02*
X037265Y009212D01*
X037265Y009311D02*
X036600Y009311D01*
X036600Y009409D02*
X037265Y009409D01*
X037265Y009508D02*
X036796Y009508D01*
X036875Y009606D02*
X037265Y009606D01*
X037265Y009705D02*
X036875Y009705D01*
X036875Y009803D02*
X037265Y009803D01*
X037265Y009902D02*
X036875Y009902D01*
X036875Y010000D02*
X037265Y010000D01*
X037265Y010099D02*
X036875Y010099D01*
X036875Y010197D02*
X037265Y010197D01*
X037265Y010296D02*
X036875Y010296D01*
X036875Y010394D02*
X037265Y010394D01*
X037725Y010197D02*
X038250Y010197D01*
X038180Y010099D02*
X037725Y010099D01*
X037725Y010000D02*
X038147Y010000D01*
X038147Y009902D02*
X037725Y009902D01*
X037725Y009803D02*
X038179Y009803D01*
X038248Y009705D02*
X037725Y009705D01*
X037725Y009606D02*
X038416Y009606D01*
X038574Y009606D02*
X038865Y009606D01*
X038865Y009508D02*
X037725Y009508D01*
X037725Y009409D02*
X038865Y009409D01*
X038865Y009311D02*
X037725Y009311D01*
X037725Y009212D02*
X038865Y009212D01*
X038865Y009114D02*
X037725Y009114D01*
X037725Y009015D02*
X038865Y009015D01*
X038865Y008917D02*
X037725Y008917D01*
X037725Y008818D02*
X038865Y008818D01*
X038865Y008720D02*
X037725Y008720D01*
X037725Y008621D02*
X038865Y008621D01*
X038865Y008523D02*
X037725Y008523D01*
X037725Y008424D02*
X038865Y008424D01*
X038865Y008326D02*
X037725Y008326D01*
X037725Y008227D02*
X038865Y008227D01*
X038865Y008129D02*
X037725Y008129D01*
X037725Y008030D02*
X038865Y008030D01*
X038865Y007932D02*
X037725Y007932D01*
X037725Y007833D02*
X038865Y007833D01*
X038865Y007735D02*
X037725Y007735D01*
X037725Y007636D02*
X038865Y007636D01*
X038865Y007538D02*
X037725Y007538D01*
X037725Y007439D02*
X038865Y007439D01*
X038865Y007341D02*
X037725Y007341D01*
X037725Y007242D02*
X038865Y007242D01*
X038865Y007144D02*
X037725Y007144D01*
X037725Y007045D02*
X038865Y007045D01*
X038865Y006947D02*
X037725Y006947D01*
X037725Y006848D02*
X038865Y006848D01*
X038865Y006750D02*
X037725Y006750D01*
X037725Y006651D02*
X038865Y006651D01*
X038865Y006553D02*
X037725Y006553D01*
X037725Y006454D02*
X038865Y006454D01*
X038865Y006356D02*
X037782Y006356D01*
X037827Y006257D02*
X038865Y006257D01*
X038865Y006159D02*
X037843Y006159D01*
X037834Y006060D02*
X038865Y006060D01*
X038865Y005962D02*
X037794Y005962D01*
X037700Y005863D02*
X038865Y005863D01*
X035697Y006356D02*
X035504Y006356D01*
X035504Y006454D02*
X035599Y006454D01*
X035558Y006553D02*
X035466Y006553D01*
X035388Y006651D02*
X035547Y006651D01*
X035559Y006750D02*
X034205Y006750D01*
X034205Y006651D02*
X034924Y006651D01*
X034837Y006848D02*
X034290Y006848D01*
X034388Y006947D02*
X034794Y006947D01*
X034794Y007045D02*
X034487Y007045D01*
X034585Y007144D02*
X035112Y007144D01*
X035112Y007198D02*
X035112Y007497D01*
X034939Y007497D01*
X034944Y007502D01*
X035064Y007502D01*
X035192Y007555D01*
X035277Y007640D01*
X035664Y007640D01*
X035700Y007553D01*
X035756Y007497D01*
X035551Y007497D01*
X035495Y007441D01*
X035469Y007467D01*
X035435Y007487D01*
X035397Y007497D01*
X035209Y007497D01*
X035209Y007198D01*
X035112Y007198D01*
X035112Y007242D02*
X035209Y007242D01*
X035209Y007341D02*
X035112Y007341D01*
X035112Y007439D02*
X035209Y007439D01*
X035150Y007538D02*
X035715Y007538D01*
X035665Y007636D02*
X035273Y007636D01*
X034794Y007341D02*
X034782Y007341D01*
X034794Y007242D02*
X034684Y007242D01*
X035112Y007045D02*
X035209Y007045D01*
X035209Y006947D02*
X035112Y006947D01*
X035112Y006848D02*
X035209Y006848D01*
X035484Y006848D02*
X035506Y006848D01*
X038742Y009705D02*
X038865Y009705D01*
X036115Y011795D02*
X036018Y011698D01*
X035926Y011698D01*
X035798Y011645D01*
X035700Y011547D01*
X035647Y011419D01*
X035647Y011327D01*
X035500Y011180D01*
X034885Y011180D01*
X034912Y011207D01*
X034932Y011241D01*
X034942Y011279D01*
X034942Y011467D01*
X034643Y011467D01*
X034643Y011564D01*
X034942Y011564D01*
X034942Y011752D01*
X034932Y011790D01*
X034912Y011824D01*
X034886Y011850D01*
X034942Y011906D01*
X034942Y012463D01*
X034854Y012551D01*
X034805Y012551D01*
X034805Y012823D01*
X035007Y012823D01*
X035094Y012911D01*
X035094Y012940D01*
X035182Y012940D01*
X035282Y013040D01*
X035348Y013106D01*
X035348Y012637D01*
X035436Y012549D01*
X035664Y012549D01*
X035673Y012540D01*
X035717Y012540D01*
X035757Y012523D01*
X035800Y012540D01*
X036070Y012540D01*
X036070Y011938D01*
X036115Y011893D01*
X036115Y011795D01*
X036093Y011773D02*
X034936Y011773D01*
X034942Y011675D02*
X035869Y011675D01*
X035729Y011576D02*
X034942Y011576D01*
X034942Y011379D02*
X035647Y011379D01*
X035671Y011478D02*
X034643Y011478D01*
X034546Y011478D02*
X034242Y011478D01*
X034248Y011467D02*
X034248Y011279D01*
X034258Y011241D01*
X034278Y011207D01*
X034305Y011180D01*
X034185Y011180D01*
X034242Y011237D01*
X034242Y011794D01*
X034186Y011850D01*
X034242Y011906D01*
X034242Y012463D01*
X034154Y012551D01*
X034032Y012551D01*
X034032Y012636D01*
X034110Y012714D01*
X034110Y013074D01*
X034035Y013150D01*
X034110Y013226D01*
X034110Y013586D01*
X034093Y013603D01*
X034339Y013603D01*
X034395Y013659D01*
X034421Y013633D01*
X034455Y013613D01*
X034493Y013603D01*
X034681Y013603D01*
X034681Y013902D01*
X034778Y013902D01*
X034778Y013603D01*
X034966Y013603D01*
X034985Y013608D01*
X034985Y013477D01*
X034528Y013477D01*
X034440Y013389D01*
X034440Y013120D01*
X034385Y013065D01*
X034385Y012551D01*
X034336Y012551D01*
X034248Y012463D01*
X034248Y011906D01*
X034304Y011850D01*
X034278Y011824D01*
X034258Y011790D01*
X034248Y011752D01*
X034248Y011564D01*
X034546Y011564D01*
X034546Y011467D01*
X034248Y011467D01*
X034242Y011379D02*
X034248Y011379D01*
X034242Y011281D02*
X034248Y011281D01*
X034303Y011182D02*
X034187Y011182D01*
X034242Y011576D02*
X034248Y011576D01*
X034242Y011675D02*
X034248Y011675D01*
X034242Y011773D02*
X034254Y011773D01*
X034282Y011872D02*
X034207Y011872D01*
X034242Y011970D02*
X034248Y011970D01*
X034242Y012069D02*
X034248Y012069D01*
X034242Y012167D02*
X034248Y012167D01*
X034242Y012266D02*
X034248Y012266D01*
X034242Y012364D02*
X034248Y012364D01*
X034242Y012463D02*
X034248Y012463D01*
X034385Y012561D02*
X034032Y012561D01*
X034056Y012660D02*
X034385Y012660D01*
X034385Y012758D02*
X034110Y012758D01*
X034110Y012857D02*
X034385Y012857D01*
X034385Y012955D02*
X034110Y012955D01*
X034110Y013054D02*
X034385Y013054D01*
X034440Y013152D02*
X034037Y013152D01*
X034110Y013251D02*
X034440Y013251D01*
X034440Y013349D02*
X034110Y013349D01*
X034110Y013448D02*
X034498Y013448D01*
X034409Y013645D02*
X034380Y013645D01*
X034110Y013546D02*
X034985Y013546D01*
X034778Y013645D02*
X034681Y013645D01*
X034681Y013743D02*
X034778Y013743D01*
X034778Y013842D02*
X034681Y013842D01*
X034681Y013998D02*
X034681Y014297D01*
X034666Y014297D01*
X034794Y014425D01*
X034794Y014391D01*
X034882Y014303D01*
X034985Y014303D01*
X034985Y014292D01*
X034966Y014297D01*
X034778Y014297D01*
X034778Y013998D01*
X034681Y013998D01*
X034681Y014039D02*
X034778Y014039D01*
X034778Y014137D02*
X034681Y014137D01*
X034681Y014236D02*
X034778Y014236D01*
X034851Y014334D02*
X034703Y014334D01*
X035295Y013054D02*
X035348Y013054D01*
X035348Y012955D02*
X035197Y012955D01*
X035348Y012857D02*
X035040Y012857D01*
X034805Y012758D02*
X035348Y012758D01*
X035348Y012660D02*
X034805Y012660D01*
X034805Y012561D02*
X035424Y012561D01*
X034942Y012463D02*
X036070Y012463D01*
X036070Y012364D02*
X034942Y012364D01*
X034942Y012266D02*
X036070Y012266D01*
X036070Y012167D02*
X034942Y012167D01*
X034942Y012069D02*
X036070Y012069D01*
X036070Y011970D02*
X034942Y011970D01*
X034907Y011872D02*
X036115Y011872D01*
X035600Y011281D02*
X034942Y011281D01*
X034887Y011182D02*
X035502Y011182D01*
X037105Y013251D02*
X037511Y013251D01*
X037112Y013349D02*
X037105Y013349D01*
X038120Y013940D02*
X039134Y013940D01*
X039014Y014039D02*
X038120Y014039D01*
X038120Y014531D02*
X039084Y014531D01*
X039506Y014531D02*
X039815Y014531D01*
X039716Y014630D02*
X038052Y014630D01*
X037820Y014925D02*
X039615Y014925D01*
X039615Y014827D02*
X036555Y014827D01*
X036555Y014728D02*
X039618Y014728D01*
X039615Y015024D02*
X037961Y015024D01*
X037570Y014925D02*
X037430Y014925D01*
X037552Y014630D02*
X037637Y014630D01*
X037137Y014630D02*
X037052Y014630D01*
X036829Y014925D02*
X036761Y014925D01*
X036637Y014630D02*
X036555Y014630D01*
X039456Y013940D02*
X040046Y013940D01*
X040143Y013940D02*
X040645Y013940D01*
X040575Y013978D02*
X040575Y014128D01*
X040294Y014410D01*
X040143Y014410D01*
X040143Y013978D01*
X040575Y013978D01*
X040575Y014039D02*
X040645Y014039D01*
X040645Y014137D02*
X040566Y014137D01*
X040645Y014236D02*
X040468Y014236D01*
X040369Y014334D02*
X040645Y014334D01*
X040645Y014433D02*
X039596Y014433D01*
X039637Y014334D02*
X039821Y014334D01*
X039722Y014236D02*
X039643Y014236D01*
X039615Y014039D02*
X039576Y014039D01*
X040046Y014039D02*
X040143Y014039D01*
X040143Y014137D02*
X040046Y014137D01*
X040046Y014236D02*
X040143Y014236D01*
X040143Y014334D02*
X040046Y014334D01*
X040375Y014531D02*
X040645Y014531D01*
X040645Y014630D02*
X040474Y014630D01*
X040572Y014728D02*
X040645Y014728D01*
X040645Y014827D02*
X040575Y014827D01*
X040575Y014925D02*
X040645Y014925D01*
X040645Y015024D02*
X040575Y015024D01*
X040575Y015122D02*
X040645Y015122D01*
X040645Y015221D02*
X040483Y015221D01*
X040384Y015319D02*
X040645Y015319D01*
X040645Y015418D02*
X040124Y015418D01*
X040143Y013842D02*
X040046Y013842D01*
X040046Y013743D02*
X040143Y013743D01*
X040143Y013645D02*
X040046Y013645D01*
X040046Y013546D02*
X040143Y013546D01*
X040390Y013546D02*
X040645Y013546D01*
X040645Y013645D02*
X040489Y013645D01*
X040575Y013743D02*
X040645Y013743D01*
X040645Y013842D02*
X040575Y013842D01*
X038617Y017923D02*
X038273Y017923D01*
X038320Y017988D01*
X038357Y018061D01*
X038382Y018138D01*
X038394Y018210D01*
X037925Y018210D01*
X037925Y018310D01*
X038394Y018310D01*
X038382Y018382D01*
X038357Y018460D01*
X038320Y018533D01*
X038272Y018599D01*
X038248Y018623D01*
X038642Y018623D01*
X038574Y018555D01*
X038495Y018364D01*
X038495Y018157D01*
X038574Y017966D01*
X038617Y017923D01*
X038569Y017979D02*
X038313Y017979D01*
X038363Y018077D02*
X038528Y018077D01*
X038495Y018176D02*
X038388Y018176D01*
X038495Y018274D02*
X037925Y018274D01*
X037825Y018274D02*
X036490Y018274D01*
X036490Y018310D02*
X036959Y018310D01*
X036948Y018382D01*
X036922Y018460D01*
X036885Y018533D01*
X036837Y018599D01*
X036813Y018623D01*
X037502Y018623D01*
X037479Y018599D01*
X037431Y018533D01*
X037393Y018460D01*
X037368Y018382D01*
X037357Y018310D01*
X037825Y018310D01*
X037825Y018210D01*
X037357Y018210D01*
X037368Y018138D01*
X037393Y018061D01*
X037431Y017988D01*
X037478Y017923D01*
X036838Y017923D01*
X036885Y017988D01*
X036922Y018061D01*
X036948Y018138D01*
X036959Y018210D01*
X036490Y018210D01*
X036490Y018310D01*
X036390Y018310D02*
X036390Y018210D01*
X035922Y018210D01*
X035933Y018138D01*
X035959Y018061D01*
X035996Y017988D01*
X036043Y017923D01*
X035698Y017923D01*
X035741Y017966D01*
X035820Y018157D01*
X035820Y018364D01*
X035741Y018555D01*
X035673Y018623D01*
X036068Y018623D01*
X036044Y018599D01*
X035996Y018533D01*
X035959Y018460D01*
X035933Y018382D01*
X035922Y018310D01*
X036390Y018310D01*
X036390Y018274D02*
X035820Y018274D01*
X035820Y018176D02*
X035927Y018176D01*
X035953Y018077D02*
X035787Y018077D01*
X035747Y017979D02*
X036002Y017979D01*
X035932Y018373D02*
X035817Y018373D01*
X035776Y018471D02*
X035964Y018471D01*
X036022Y018570D02*
X035727Y018570D01*
X035457Y019023D02*
X035457Y019468D01*
X035369Y019556D01*
X034851Y019556D01*
X034763Y019468D01*
X034763Y019144D01*
X034760Y019141D01*
X034760Y019092D01*
X034744Y019045D01*
X034760Y019012D01*
X034760Y018975D01*
X034763Y018972D01*
X034763Y018793D01*
X034851Y018705D01*
X035016Y018705D01*
X035006Y018701D01*
X034860Y018555D01*
X034830Y018482D01*
X034724Y018738D01*
X034486Y018975D01*
X034176Y019104D01*
X034108Y019104D01*
X034207Y019145D01*
X034305Y019243D01*
X034310Y019255D01*
X034428Y019373D01*
X034545Y019490D01*
X034545Y019571D01*
X034995Y019571D01*
X035083Y019659D01*
X035083Y020335D01*
X034995Y020422D01*
X034936Y020422D01*
X034936Y020823D01*
X035241Y020823D01*
X035386Y020968D01*
X035518Y020835D01*
X035642Y020835D01*
X035646Y020839D01*
X035813Y020672D01*
X035777Y020672D01*
X035689Y020584D01*
X035689Y020422D01*
X035532Y020422D01*
X035532Y020045D01*
X035435Y020045D01*
X035435Y019948D01*
X035532Y019948D01*
X035532Y019571D01*
X035700Y019571D01*
X035739Y019581D01*
X035773Y019601D01*
X035801Y019629D01*
X035820Y019663D01*
X035831Y019702D01*
X035831Y019821D01*
X036295Y019821D01*
X036383Y019909D01*
X036383Y020584D01*
X036295Y020672D01*
X036245Y020672D01*
X036245Y020806D01*
X036215Y020835D01*
X036250Y020835D01*
X036216Y020835D01*
X036250Y020835D02*
X036445Y020640D01*
X036469Y020616D01*
X036467Y020614D01*
X036447Y020580D01*
X036437Y020542D01*
X036437Y020295D01*
X036735Y020295D01*
X036735Y020198D01*
X036437Y020198D01*
X036437Y019951D01*
X036447Y019913D01*
X036467Y019879D01*
X036495Y019851D01*
X036529Y019831D01*
X036567Y019821D01*
X036735Y019821D01*
X036735Y020198D01*
X036832Y020198D01*
X036832Y019821D01*
X037000Y019821D01*
X037039Y019831D01*
X037073Y019851D01*
X037101Y019879D01*
X037120Y019913D01*
X037131Y019951D01*
X037131Y020070D01*
X037595Y020070D01*
X037683Y020158D01*
X037683Y020834D01*
X037644Y020873D01*
X037776Y020873D01*
X037767Y020864D01*
X037747Y020830D01*
X037737Y020791D01*
X037737Y020544D01*
X038035Y020544D01*
X038035Y020448D01*
X037737Y020448D01*
X037737Y020201D01*
X037747Y020163D01*
X037767Y020128D01*
X037795Y020100D01*
X037829Y020081D01*
X037867Y020070D01*
X038035Y020070D01*
X038035Y020448D01*
X038132Y020448D01*
X038132Y020070D01*
X038245Y020070D01*
X038245Y019856D01*
X038219Y019830D01*
X038057Y019830D01*
X038057Y019968D01*
X037969Y020056D01*
X037451Y020056D01*
X037363Y019968D01*
X037363Y019292D01*
X037382Y019273D01*
X036757Y019273D01*
X036757Y019718D01*
X036669Y019806D01*
X036151Y019806D01*
X036063Y019718D01*
X036063Y019394D01*
X036060Y019391D01*
X036060Y019342D01*
X036044Y019295D01*
X036060Y019262D01*
X036060Y019225D01*
X036063Y019222D01*
X036063Y019043D01*
X036083Y019023D01*
X035457Y019023D01*
X035457Y019062D02*
X036063Y019062D01*
X036063Y019161D02*
X035457Y019161D01*
X035457Y019259D02*
X036060Y019259D01*
X036060Y019358D02*
X035457Y019358D01*
X035457Y019456D02*
X036063Y019456D01*
X036063Y019555D02*
X035371Y019555D01*
X035435Y019571D02*
X035435Y019948D01*
X035137Y019948D01*
X035137Y019702D01*
X035147Y019663D01*
X035167Y019629D01*
X035195Y019601D01*
X035229Y019581D01*
X035267Y019571D01*
X035435Y019571D01*
X035435Y019653D02*
X035532Y019653D01*
X035532Y019752D02*
X035435Y019752D01*
X035435Y019850D02*
X035532Y019850D01*
X035435Y019949D02*
X035083Y019949D01*
X035083Y020047D02*
X035137Y020047D01*
X035137Y020045D02*
X035435Y020045D01*
X035435Y020422D01*
X035267Y020422D01*
X035229Y020412D01*
X035195Y020392D01*
X035167Y020365D01*
X035147Y020330D01*
X035137Y020292D01*
X035137Y020045D01*
X035137Y020146D02*
X035083Y020146D01*
X035083Y020244D02*
X035137Y020244D01*
X035154Y020343D02*
X035075Y020343D01*
X034936Y020441D02*
X035689Y020441D01*
X035689Y020540D02*
X034936Y020540D01*
X034936Y020638D02*
X035743Y020638D01*
X035748Y020737D02*
X034936Y020737D01*
X034736Y020914D02*
X034845Y021023D01*
X035158Y021023D01*
X035462Y021326D01*
X035643Y021145D02*
X035643Y021125D01*
X036045Y020723D01*
X036045Y020256D01*
X036036Y020246D01*
X036383Y020244D02*
X036735Y020244D01*
X036735Y020146D02*
X036832Y020146D01*
X036832Y020047D02*
X036735Y020047D01*
X036735Y019949D02*
X036832Y019949D01*
X036832Y019850D02*
X036735Y019850D01*
X036723Y019752D02*
X037363Y019752D01*
X037363Y019850D02*
X037071Y019850D01*
X037130Y019949D02*
X037363Y019949D01*
X037442Y020047D02*
X037131Y020047D01*
X037336Y020496D02*
X037109Y020723D01*
X036645Y020723D01*
X036222Y021145D01*
X036213Y021145D01*
X036394Y021323D02*
X036645Y021073D01*
X038145Y021073D01*
X038595Y021523D01*
X038595Y022655D01*
X038836Y022896D01*
X039183Y022904D02*
X039535Y022904D01*
X039535Y022944D02*
X039535Y022847D01*
X039237Y022847D01*
X039237Y022600D01*
X039247Y022562D01*
X039267Y022528D01*
X039295Y022500D01*
X039329Y022480D01*
X039367Y022470D01*
X039535Y022470D01*
X039535Y022847D01*
X039632Y022847D01*
X039632Y022470D01*
X039800Y022470D01*
X039839Y022480D01*
X039873Y022500D01*
X039901Y022528D01*
X039920Y022562D01*
X039931Y022600D01*
X039931Y022847D01*
X039632Y022847D01*
X039632Y022944D01*
X039535Y022944D01*
X039237Y022944D01*
X039237Y023191D01*
X039247Y023229D01*
X039267Y023263D01*
X039295Y023291D01*
X039329Y023311D01*
X039367Y023321D01*
X039535Y023321D01*
X039535Y022944D01*
X039535Y023002D02*
X039632Y023002D01*
X039632Y022944D02*
X039632Y023321D01*
X039800Y023321D01*
X039839Y023311D01*
X039873Y023291D01*
X039901Y023263D01*
X039920Y023229D01*
X039931Y023191D01*
X039931Y022944D01*
X039632Y022944D01*
X039632Y022904D02*
X040495Y022904D01*
X040495Y023002D02*
X040390Y023002D01*
X040377Y022997D02*
X040495Y023046D01*
X040495Y021743D01*
X040377Y021791D01*
X040238Y021791D01*
X040109Y021738D01*
X040085Y021714D01*
X040029Y021770D01*
X039557Y021770D01*
X039557Y022367D01*
X039469Y022455D01*
X038951Y022455D01*
X038863Y022367D01*
X038863Y021770D01*
X038803Y021770D01*
X038795Y021762D01*
X038795Y022470D01*
X039095Y022470D01*
X039183Y022558D01*
X039183Y023233D01*
X039095Y023321D01*
X038577Y023321D01*
X038489Y023233D01*
X038489Y022832D01*
X038395Y022738D01*
X038395Y022731D01*
X038356Y022731D01*
X038356Y022429D01*
X038332Y022429D01*
X038332Y022731D01*
X038245Y022731D01*
X038245Y023475D01*
X038463Y023475D01*
X038551Y023563D01*
X038551Y023784D01*
X038612Y023723D01*
X038715Y023723D01*
X038715Y023645D01*
X038803Y023557D01*
X039360Y023557D01*
X039416Y023613D01*
X039472Y023557D01*
X040023Y023557D01*
X040011Y023545D01*
X039957Y023416D01*
X039957Y023277D01*
X040011Y023149D01*
X040109Y023050D01*
X040238Y022997D01*
X040377Y022997D01*
X040225Y023002D02*
X039931Y023002D01*
X039931Y023101D02*
X040059Y023101D01*
X039990Y023199D02*
X039929Y023199D01*
X039957Y023298D02*
X039862Y023298D01*
X039957Y023396D02*
X038245Y023396D01*
X038245Y023298D02*
X038553Y023298D01*
X038489Y023199D02*
X038245Y023199D01*
X038245Y023101D02*
X038489Y023101D01*
X038489Y023002D02*
X038245Y023002D01*
X038245Y022904D02*
X038489Y022904D01*
X038462Y022805D02*
X038245Y022805D01*
X038332Y022707D02*
X038356Y022707D01*
X038356Y022608D02*
X038332Y022608D01*
X038332Y022510D02*
X038356Y022510D01*
X038356Y022405D02*
X038356Y022104D01*
X038395Y022104D01*
X038395Y021606D01*
X038062Y021273D01*
X037928Y021273D01*
X038245Y021590D01*
X038245Y021756D01*
X038245Y022104D01*
X038332Y022104D01*
X038332Y022405D01*
X038356Y022405D01*
X038356Y022313D02*
X038332Y022313D01*
X038332Y022214D02*
X038356Y022214D01*
X038356Y022116D02*
X038332Y022116D01*
X038395Y022017D02*
X038245Y022017D01*
X038245Y021919D02*
X038395Y021919D01*
X038395Y021820D02*
X038245Y021820D01*
X038245Y021722D02*
X038395Y021722D01*
X038395Y021623D02*
X038245Y021623D01*
X038179Y021525D02*
X038314Y021525D01*
X038215Y021426D02*
X038081Y021426D01*
X038117Y021328D02*
X037982Y021328D01*
X037645Y021273D02*
X038045Y021673D01*
X038045Y023741D01*
X038204Y023900D01*
X037857Y023889D02*
X037504Y023889D01*
X037504Y023852D02*
X037504Y023949D01*
X037407Y023949D01*
X037407Y024326D01*
X037239Y024326D01*
X037201Y024316D01*
X037201Y024316D01*
X037201Y024589D01*
X037113Y024676D01*
X036595Y024676D01*
X036507Y024589D01*
X036507Y023913D01*
X036595Y023825D01*
X036845Y023825D01*
X036845Y023540D01*
X036962Y023423D01*
X036995Y023390D01*
X036992Y023386D01*
X036948Y023368D01*
X036890Y023310D01*
X036593Y023608D01*
X036593Y023742D01*
X036540Y023870D01*
X036453Y023957D01*
X036453Y024202D01*
X036154Y024202D01*
X036154Y024299D01*
X036057Y024299D01*
X036057Y024676D01*
X035889Y024676D01*
X035851Y024666D01*
X035851Y024666D01*
X035851Y024839D01*
X035763Y024927D01*
X035245Y024927D01*
X035157Y024839D01*
X035157Y024163D01*
X035245Y024076D01*
X035295Y024076D01*
X035295Y023540D01*
X035362Y023473D01*
X034801Y023473D01*
X034801Y023686D01*
X034713Y023774D01*
X034195Y023774D01*
X034107Y023686D01*
X034107Y023011D01*
X034195Y022923D01*
X034253Y022923D01*
X034200Y022870D01*
X034147Y022742D01*
X034147Y022604D01*
X034200Y022476D01*
X034298Y022378D01*
X034426Y022325D01*
X034564Y022325D01*
X034692Y022378D01*
X034787Y022473D01*
X034879Y022473D01*
X034820Y022414D01*
X034800Y022380D01*
X034790Y022341D01*
X034790Y022302D01*
X034797Y022273D01*
X033671Y022273D01*
X033671Y023300D01*
X033754Y023300D01*
X033754Y022923D01*
X033923Y022923D01*
X033961Y022933D01*
X033995Y022953D01*
X034023Y022981D01*
X034043Y023015D01*
X034053Y023053D01*
X034053Y023300D01*
X033754Y023300D01*
X033754Y023397D01*
X033671Y023397D01*
X033671Y025754D01*
X033840Y025684D01*
X034132Y025684D01*
X033850Y025403D01*
X033850Y024640D01*
X033821Y024640D01*
X033733Y024552D01*
X033733Y023877D01*
X033821Y023789D01*
X034339Y023789D01*
X034427Y023877D01*
X034427Y024155D01*
X034439Y024133D01*
X034467Y024106D01*
X034501Y024086D01*
X034539Y024076D01*
X034707Y024076D01*
X034707Y024453D01*
X034804Y024453D01*
X034804Y024076D01*
X034973Y024076D01*
X035011Y024086D01*
X035045Y024106D01*
X035073Y024133D01*
X035093Y024168D01*
X035103Y024206D01*
X035103Y024453D01*
X034804Y024453D01*
X034804Y024550D01*
X034707Y024550D01*
X034707Y024927D01*
X034539Y024927D01*
X034501Y024917D01*
X034467Y024897D01*
X034439Y024869D01*
X034419Y024835D01*
X034409Y024797D01*
X034409Y024570D01*
X034339Y024640D01*
X034310Y024640D01*
X034310Y025212D01*
X034783Y025685D01*
X034783Y025030D01*
X034871Y024942D01*
X035389Y024942D01*
X035477Y025030D01*
X035477Y025473D01*
X036151Y025473D01*
X036133Y025455D01*
X036133Y024779D01*
X036221Y024691D01*
X036739Y024691D01*
X036827Y024779D01*
X036827Y025181D01*
X036919Y025273D01*
X038495Y025273D01*
X038495Y024656D01*
X038184Y024967D01*
X038177Y024967D01*
X038177Y025104D01*
X038089Y025192D01*
X037571Y025192D01*
X037483Y025104D01*
X037483Y024429D01*
X037571Y024341D01*
X038089Y024341D01*
X038166Y024418D01*
X038259Y024326D01*
X037945Y024326D01*
X037857Y024238D01*
X037857Y023836D01*
X037845Y023824D01*
X037845Y023489D01*
X037845Y023490D01*
X037845Y023506D01*
X037796Y023554D01*
X037790Y023563D01*
X037793Y023567D01*
X037803Y023605D01*
X037803Y023852D01*
X037504Y023852D01*
X037504Y023949D02*
X037803Y023949D01*
X037803Y024196D01*
X037793Y024234D01*
X037773Y024268D01*
X037745Y024296D01*
X037711Y024316D01*
X037673Y024326D01*
X037504Y024326D01*
X037504Y023949D01*
X037504Y023987D02*
X037407Y023987D01*
X037407Y024086D02*
X037504Y024086D01*
X037504Y024184D02*
X037407Y024184D01*
X037407Y024283D02*
X037504Y024283D01*
X037531Y024381D02*
X037201Y024381D01*
X037201Y024480D02*
X037483Y024480D01*
X037483Y024578D02*
X037201Y024578D01*
X037483Y024677D02*
X035851Y024677D01*
X035851Y024775D02*
X036137Y024775D01*
X036133Y024874D02*
X035816Y024874D01*
X036133Y024972D02*
X035419Y024972D01*
X035477Y025071D02*
X036133Y025071D01*
X036133Y025169D02*
X035477Y025169D01*
X035477Y025268D02*
X036133Y025268D01*
X036133Y025366D02*
X035477Y025366D01*
X035477Y025465D02*
X036143Y025465D01*
X036480Y025117D02*
X036836Y025473D01*
X038595Y025473D01*
X038695Y025373D01*
X038695Y024473D01*
X038782Y024385D01*
X039081Y024385D01*
X039063Y023923D02*
X038695Y023923D01*
X038595Y024023D01*
X038595Y024273D01*
X038101Y024767D01*
X037830Y024767D01*
X037483Y024775D02*
X036823Y024775D01*
X036827Y024874D02*
X037483Y024874D01*
X037483Y024972D02*
X036827Y024972D01*
X036827Y025071D02*
X037483Y025071D01*
X037548Y025169D02*
X036827Y025169D01*
X036913Y025268D02*
X038495Y025268D01*
X038495Y025169D02*
X038112Y025169D01*
X038177Y025071D02*
X038495Y025071D01*
X038495Y024972D02*
X038177Y024972D01*
X038277Y024874D02*
X038495Y024874D01*
X038495Y024775D02*
X038375Y024775D01*
X038474Y024677D02*
X038495Y024677D01*
X038204Y024381D02*
X038129Y024381D01*
X037902Y024283D02*
X037758Y024283D01*
X037803Y024184D02*
X037857Y024184D01*
X037857Y024086D02*
X037803Y024086D01*
X037803Y023987D02*
X037857Y023987D01*
X037845Y023790D02*
X037803Y023790D01*
X037803Y023692D02*
X037845Y023692D01*
X037845Y023593D02*
X037800Y023593D01*
X037845Y023495D02*
X037845Y023495D01*
X037645Y023423D02*
X037245Y023423D01*
X037045Y023623D01*
X037045Y024060D01*
X036854Y024251D01*
X036507Y024283D02*
X036154Y024283D01*
X036154Y024299D02*
X036453Y024299D01*
X036453Y024546D01*
X036443Y024584D01*
X036423Y024618D01*
X036395Y024646D01*
X036361Y024666D01*
X036323Y024676D01*
X036154Y024676D01*
X036154Y024299D01*
X036154Y024381D02*
X036057Y024381D01*
X036057Y024480D02*
X036154Y024480D01*
X036154Y024578D02*
X036057Y024578D01*
X036444Y024578D02*
X036507Y024578D01*
X036507Y024480D02*
X036453Y024480D01*
X036453Y024381D02*
X036507Y024381D01*
X036507Y024184D02*
X036453Y024184D01*
X036453Y024086D02*
X036507Y024086D01*
X036507Y023987D02*
X036453Y023987D01*
X036521Y023889D02*
X036532Y023889D01*
X036573Y023790D02*
X036845Y023790D01*
X036845Y023692D02*
X036593Y023692D01*
X036607Y023593D02*
X036845Y023593D01*
X036890Y023495D02*
X036706Y023495D01*
X036804Y023396D02*
X036989Y023396D01*
X037129Y023238D02*
X037145Y023073D01*
X037129Y023238D02*
X037129Y022658D01*
X037070Y022598D01*
X037250Y022417D01*
X037439Y022417D01*
X037070Y022598D02*
X036756Y022285D01*
X036756Y022259D01*
X036575Y022440D02*
X036575Y022453D01*
X036795Y022673D01*
X036795Y023123D01*
X036245Y023673D01*
X035945Y023523D02*
X035595Y023523D01*
X035495Y023623D01*
X035495Y024492D01*
X035504Y024501D01*
X035157Y024480D02*
X034804Y024480D01*
X034804Y024550D02*
X035103Y024550D01*
X035103Y024797D01*
X035093Y024835D01*
X035073Y024869D01*
X035045Y024897D01*
X035011Y024917D01*
X034973Y024927D01*
X034804Y024927D01*
X034804Y024550D01*
X034804Y024578D02*
X034707Y024578D01*
X034707Y024677D02*
X034804Y024677D01*
X034804Y024775D02*
X034707Y024775D01*
X034707Y024874D02*
X034804Y024874D01*
X034841Y024972D02*
X034310Y024972D01*
X034310Y024874D02*
X034444Y024874D01*
X034409Y024775D02*
X034310Y024775D01*
X034310Y024677D02*
X034409Y024677D01*
X034401Y024578D02*
X034409Y024578D01*
X034707Y024381D02*
X034804Y024381D01*
X034804Y024283D02*
X034707Y024283D01*
X034707Y024184D02*
X034804Y024184D01*
X034804Y024086D02*
X034707Y024086D01*
X034502Y024086D02*
X034427Y024086D01*
X034427Y023987D02*
X035295Y023987D01*
X035295Y023889D02*
X034427Y023889D01*
X034340Y023790D02*
X035295Y023790D01*
X035295Y023692D02*
X034795Y023692D01*
X034801Y023593D02*
X035295Y023593D01*
X035340Y023495D02*
X034801Y023495D01*
X034530Y023273D02*
X034454Y023348D01*
X034530Y023273D02*
X035645Y023273D01*
X036116Y022802D01*
X036213Y022802D01*
X036394Y022622D02*
X036545Y022773D01*
X036545Y022923D01*
X035945Y023523D01*
X035445Y023023D02*
X035195Y023023D01*
X034845Y022673D01*
X034495Y022673D01*
X034173Y022805D02*
X033671Y022805D01*
X033671Y022707D02*
X034147Y022707D01*
X034147Y022608D02*
X033671Y022608D01*
X033671Y022510D02*
X034186Y022510D01*
X034264Y022411D02*
X033671Y022411D01*
X033671Y022313D02*
X034790Y022313D01*
X034745Y022273D02*
X034759Y022259D01*
X035100Y022259D01*
X035081Y022259D01*
X034818Y022411D02*
X034725Y022411D01*
X034715Y022073D02*
X035100Y021688D01*
X035281Y021507D02*
X035046Y021273D01*
X034445Y021273D01*
X034345Y021173D01*
X034345Y019573D01*
X034213Y019441D01*
X034008Y019441D01*
X034222Y019161D02*
X034763Y019161D01*
X034763Y019259D02*
X034314Y019259D01*
X034412Y019358D02*
X034763Y019358D01*
X034763Y019456D02*
X034511Y019456D01*
X034545Y019555D02*
X034849Y019555D01*
X035077Y019653D02*
X035153Y019653D01*
X035137Y019752D02*
X035083Y019752D01*
X035083Y019850D02*
X035137Y019850D01*
X035435Y020047D02*
X035532Y020047D01*
X035532Y020146D02*
X035435Y020146D01*
X035435Y020244D02*
X035532Y020244D01*
X035532Y020343D02*
X035435Y020343D01*
X035831Y019752D02*
X036097Y019752D01*
X036063Y019653D02*
X035815Y019653D01*
X036324Y019850D02*
X036496Y019850D01*
X036438Y019949D02*
X036383Y019949D01*
X036383Y020047D02*
X036437Y020047D01*
X036437Y020146D02*
X036383Y020146D01*
X036383Y020343D02*
X036437Y020343D01*
X036437Y020441D02*
X036383Y020441D01*
X036383Y020540D02*
X036437Y020540D01*
X036447Y020638D02*
X036329Y020638D01*
X036348Y020737D02*
X036245Y020737D01*
X035650Y020835D02*
X035253Y020835D01*
X035352Y020934D02*
X035420Y020934D01*
X034736Y020914D02*
X034736Y019997D01*
X034008Y019941D02*
X033626Y019941D01*
X033495Y020073D01*
X033495Y021923D01*
X033645Y022073D01*
X034715Y022073D01*
X034632Y021873D02*
X034804Y021702D01*
X034790Y021688D01*
X034790Y021564D01*
X034880Y021473D01*
X034362Y021473D01*
X034358Y021469D01*
X034358Y021511D01*
X034305Y021640D01*
X034207Y021738D01*
X034078Y021791D01*
X033939Y021791D01*
X033810Y021738D01*
X033712Y021640D01*
X033695Y021599D01*
X033695Y021840D01*
X033728Y021873D01*
X034632Y021873D01*
X034645Y021823D02*
X034495Y021823D01*
X034685Y021820D02*
X033695Y021820D01*
X033695Y021722D02*
X033794Y021722D01*
X033705Y021623D02*
X033695Y021623D01*
X034223Y021722D02*
X034784Y021722D01*
X034790Y021623D02*
X034312Y021623D01*
X034353Y021525D02*
X034829Y021525D01*
X034259Y022259D02*
X034195Y022323D01*
X034233Y022904D02*
X033671Y022904D01*
X033671Y023002D02*
X033754Y023002D01*
X033754Y023101D02*
X033671Y023101D01*
X033671Y023199D02*
X033754Y023199D01*
X033754Y023298D02*
X033671Y023298D01*
X033754Y023396D02*
X034107Y023396D01*
X034053Y023397D02*
X034053Y023644D01*
X034043Y023682D01*
X034023Y023716D01*
X033995Y023744D01*
X033961Y023764D01*
X033923Y023774D01*
X033754Y023774D01*
X033754Y023397D01*
X034053Y023397D01*
X034053Y023495D02*
X034107Y023495D01*
X034107Y023593D02*
X034053Y023593D01*
X034037Y023692D02*
X034112Y023692D01*
X033820Y023790D02*
X033671Y023790D01*
X033671Y023692D02*
X033754Y023692D01*
X033754Y023593D02*
X033671Y023593D01*
X033671Y023495D02*
X033754Y023495D01*
X034053Y023298D02*
X034107Y023298D01*
X034107Y023199D02*
X034053Y023199D01*
X034053Y023101D02*
X034107Y023101D01*
X034116Y023002D02*
X034035Y023002D01*
X033733Y023889D02*
X033671Y023889D01*
X033671Y023987D02*
X033733Y023987D01*
X033733Y024086D02*
X033671Y024086D01*
X033671Y024184D02*
X033733Y024184D01*
X033733Y024283D02*
X033671Y024283D01*
X033671Y024381D02*
X033733Y024381D01*
X033733Y024480D02*
X033671Y024480D01*
X033671Y024578D02*
X033759Y024578D01*
X033671Y024677D02*
X033850Y024677D01*
X033850Y024775D02*
X033671Y024775D01*
X033671Y024874D02*
X033850Y024874D01*
X033850Y024972D02*
X033671Y024972D01*
X033671Y025071D02*
X033850Y025071D01*
X033850Y025169D02*
X033671Y025169D01*
X033671Y025268D02*
X033850Y025268D01*
X033850Y025366D02*
X033671Y025366D01*
X033671Y025465D02*
X033912Y025465D01*
X034010Y025563D02*
X033671Y025563D01*
X033671Y025662D02*
X034109Y025662D01*
X034464Y025366D02*
X034783Y025366D01*
X034783Y025268D02*
X034365Y025268D01*
X034310Y025169D02*
X034783Y025169D01*
X034783Y025071D02*
X034310Y025071D01*
X034562Y025465D02*
X034783Y025465D01*
X034783Y025563D02*
X034661Y025563D01*
X034759Y025662D02*
X034783Y025662D01*
X035130Y025458D02*
X035345Y025673D01*
X038945Y025673D01*
X039095Y025523D01*
X039095Y024880D01*
X039081Y024867D01*
X039295Y025213D02*
X039295Y025606D01*
X039178Y025723D01*
X039028Y025873D01*
X037970Y025873D01*
X037990Y025893D01*
X038125Y026028D01*
X038125Y026068D01*
X038170Y026087D01*
X038316Y026233D01*
X038395Y026425D01*
X038395Y026631D01*
X038316Y026823D01*
X038273Y026865D01*
X038617Y026865D01*
X038574Y026823D01*
X038495Y026631D01*
X038495Y026425D01*
X038574Y026233D01*
X038721Y026087D01*
X038912Y026008D01*
X039119Y026008D01*
X039310Y026087D01*
X039456Y026233D01*
X039486Y026306D01*
X039592Y026050D01*
X039830Y025813D01*
X040140Y025684D01*
X040210Y025684D01*
X040205Y025683D01*
X040142Y025657D01*
X040084Y025619D01*
X040036Y025570D01*
X039997Y025513D01*
X039971Y025449D01*
X039957Y025381D01*
X039957Y025347D01*
X040307Y025347D01*
X040307Y025347D01*
X039957Y025347D01*
X039957Y025312D01*
X039971Y025245D01*
X039984Y025213D01*
X039472Y025213D01*
X039416Y025157D01*
X039360Y025213D01*
X039295Y025213D01*
X039295Y025268D02*
X039966Y025268D01*
X039957Y025366D02*
X039295Y025366D01*
X039295Y025465D02*
X039977Y025465D01*
X040031Y025563D02*
X039295Y025563D01*
X039239Y025662D02*
X040153Y025662D01*
X039957Y025760D02*
X039140Y025760D01*
X039042Y025859D02*
X039784Y025859D01*
X039685Y025957D02*
X038054Y025957D01*
X038125Y026056D02*
X038797Y026056D01*
X038654Y026154D02*
X038237Y026154D01*
X038324Y026253D02*
X038566Y026253D01*
X038526Y026351D02*
X038365Y026351D01*
X038395Y026450D02*
X038495Y026450D01*
X038495Y026548D02*
X038395Y026548D01*
X038389Y026647D02*
X038502Y026647D01*
X038542Y026745D02*
X038348Y026745D01*
X038295Y026844D02*
X038595Y026844D01*
X039377Y026154D02*
X039549Y026154D01*
X039590Y026056D02*
X039234Y026056D01*
X039464Y026253D02*
X039508Y026253D01*
X039428Y025169D02*
X039404Y025169D01*
X039751Y024867D02*
X040288Y024867D01*
X040307Y024847D01*
X040269Y024385D02*
X039751Y024385D01*
X039751Y023904D02*
X040250Y023904D01*
X040307Y023847D01*
X039990Y023495D02*
X038483Y023495D01*
X038551Y023593D02*
X038767Y023593D01*
X038715Y023692D02*
X038551Y023692D01*
X039063Y023923D02*
X039081Y023904D01*
X039396Y023593D02*
X039437Y023593D01*
X039535Y023298D02*
X039632Y023298D01*
X039632Y023199D02*
X039535Y023199D01*
X039535Y023101D02*
X039632Y023101D01*
X039632Y022805D02*
X039535Y022805D01*
X039535Y022707D02*
X039632Y022707D01*
X039632Y022608D02*
X039535Y022608D01*
X039535Y022510D02*
X039632Y022510D01*
X039513Y022411D02*
X040495Y022411D01*
X040495Y022313D02*
X039557Y022313D01*
X039557Y022214D02*
X040495Y022214D01*
X040495Y022116D02*
X039557Y022116D01*
X039557Y022017D02*
X040495Y022017D01*
X040495Y021919D02*
X039557Y021919D01*
X039557Y021820D02*
X040495Y021820D01*
X040093Y021722D02*
X040078Y021722D01*
X040307Y021441D02*
X040289Y021423D01*
X039751Y021423D01*
X039751Y020942D02*
X040307Y020942D01*
X040307Y020941D01*
X040288Y020461D02*
X039751Y020461D01*
X040288Y020461D02*
X040307Y020441D01*
X040269Y019980D02*
X039751Y019980D01*
X040269Y019980D02*
X040307Y019941D01*
X040307Y019441D02*
X040613Y019441D01*
X040695Y019523D01*
X040695Y023273D01*
X040595Y023373D01*
X040333Y023373D01*
X040307Y023347D01*
X040495Y022805D02*
X039931Y022805D01*
X039931Y022707D02*
X040495Y022707D01*
X040495Y022608D02*
X039931Y022608D01*
X039882Y022510D02*
X040495Y022510D01*
X039285Y022510D02*
X039134Y022510D01*
X039183Y022608D02*
X039237Y022608D01*
X039237Y022707D02*
X039183Y022707D01*
X039183Y022805D02*
X039237Y022805D01*
X039237Y023002D02*
X039183Y023002D01*
X039183Y023101D02*
X039237Y023101D01*
X039239Y023199D02*
X039183Y023199D01*
X039119Y023298D02*
X039306Y023298D01*
X038907Y022411D02*
X038795Y022411D01*
X038795Y022313D02*
X038863Y022313D01*
X038863Y022214D02*
X038795Y022214D01*
X038795Y022116D02*
X038863Y022116D01*
X038863Y022017D02*
X038795Y022017D01*
X038795Y021919D02*
X038863Y021919D01*
X038863Y021820D02*
X038795Y021820D01*
X039081Y021901D02*
X039081Y021423D01*
X039081Y021901D02*
X039210Y022030D01*
X037795Y021823D02*
X037495Y021523D01*
X036895Y021523D01*
X036756Y021662D01*
X036756Y021688D01*
X036575Y021507D02*
X036575Y021493D01*
X036795Y021273D01*
X037645Y021273D01*
X037681Y020835D02*
X037750Y020835D01*
X037737Y020737D02*
X037683Y020737D01*
X037683Y020638D02*
X037737Y020638D01*
X037683Y020540D02*
X038035Y020540D01*
X038035Y020441D02*
X038132Y020441D01*
X038132Y020343D02*
X038035Y020343D01*
X038035Y020244D02*
X038132Y020244D01*
X038132Y020146D02*
X038035Y020146D01*
X037977Y020047D02*
X038245Y020047D01*
X038245Y019949D02*
X038057Y019949D01*
X038057Y019850D02*
X038239Y019850D01*
X038445Y019773D02*
X038445Y020823D01*
X038545Y020923D01*
X039062Y020923D01*
X039081Y020942D01*
X039070Y020473D02*
X038795Y020473D01*
X038645Y020323D01*
X038645Y019223D01*
X038495Y019073D01*
X036495Y019073D01*
X036260Y019308D01*
X036410Y019380D01*
X036757Y019358D02*
X037363Y019358D01*
X037363Y019456D02*
X036757Y019456D01*
X036757Y019555D02*
X037363Y019555D01*
X037363Y019653D02*
X036757Y019653D01*
X037710Y019630D02*
X038302Y019630D01*
X038445Y019773D01*
X037757Y020146D02*
X037670Y020146D01*
X037683Y020244D02*
X037737Y020244D01*
X037737Y020343D02*
X037683Y020343D01*
X037683Y020441D02*
X037737Y020441D01*
X039070Y020473D02*
X039081Y020461D01*
X039081Y019980D02*
X039095Y019967D01*
X039095Y018923D01*
X038995Y018823D01*
X035195Y018823D01*
X034960Y019058D01*
X035110Y019131D01*
X034750Y019062D02*
X034277Y019062D01*
X034498Y018964D02*
X034763Y018964D01*
X034763Y018865D02*
X034597Y018865D01*
X034695Y018767D02*
X034789Y018767D01*
X034753Y018668D02*
X034973Y018668D01*
X034874Y018570D02*
X034793Y018570D01*
X036859Y018570D02*
X037457Y018570D01*
X037399Y018471D02*
X036917Y018471D01*
X036949Y018373D02*
X037367Y018373D01*
X037362Y018176D02*
X036954Y018176D01*
X036928Y018077D02*
X037388Y018077D01*
X037437Y017979D02*
X036879Y017979D01*
X038293Y018570D02*
X038589Y018570D01*
X038540Y018471D02*
X038351Y018471D01*
X038384Y018373D02*
X038499Y018373D01*
X036394Y021323D02*
X036394Y021326D01*
X037795Y021823D02*
X037795Y023223D01*
X037645Y023423D01*
X036394Y022622D02*
X036394Y022621D01*
X035643Y022802D02*
X035643Y022825D01*
X035445Y023023D01*
X035235Y024086D02*
X035010Y024086D01*
X035097Y024184D02*
X035157Y024184D01*
X035157Y024283D02*
X035103Y024283D01*
X035103Y024381D02*
X035157Y024381D01*
X035157Y024578D02*
X035103Y024578D01*
X035103Y024677D02*
X035157Y024677D01*
X035157Y024775D02*
X035103Y024775D01*
X035068Y024874D02*
X035192Y024874D01*
X035130Y025367D02*
X035130Y025458D01*
X036801Y026153D02*
X036881Y026233D01*
X036960Y026425D01*
X036960Y026631D01*
X036881Y026823D01*
X036838Y026865D01*
X037477Y026865D01*
X037434Y026823D01*
X037355Y026631D01*
X037355Y026425D01*
X037434Y026233D01*
X037515Y026153D01*
X036801Y026153D01*
X036802Y026154D02*
X037514Y026154D01*
X037426Y026253D02*
X036889Y026253D01*
X036930Y026351D02*
X037386Y026351D01*
X037355Y026450D02*
X036960Y026450D01*
X036960Y026548D02*
X037355Y026548D01*
X037362Y026647D02*
X036954Y026647D01*
X036913Y026745D02*
X037402Y026745D01*
X037455Y026844D02*
X036860Y026844D01*
X037552Y029284D02*
X033811Y029284D01*
X033811Y029678D02*
X036961Y029678D01*
X037158Y029874D01*
X037158Y030465D01*
X036567Y030465D02*
X036567Y030268D01*
X036370Y030071D01*
X033811Y030071D01*
X033811Y030465D02*
X035977Y030465D01*
X037552Y029284D02*
X037748Y029481D01*
X037748Y030465D01*
X040269Y024385D02*
X040307Y024347D01*
X031196Y022313D02*
X030366Y022313D01*
X030465Y022214D02*
X031196Y022214D01*
X031196Y022116D02*
X030563Y022116D01*
X030630Y022017D02*
X031196Y022017D01*
X031196Y021919D02*
X030630Y021919D01*
X030630Y021820D02*
X031196Y021820D01*
X031196Y021722D02*
X030630Y021722D01*
X030602Y021623D02*
X031196Y021623D01*
X031196Y021525D02*
X030503Y021525D01*
X030405Y021426D02*
X031196Y021426D01*
X031196Y021328D02*
X030351Y021328D01*
X030349Y021330D02*
X029951Y021330D01*
X029670Y021049D01*
X029670Y020651D01*
X029951Y020370D01*
X030349Y020370D01*
X030630Y020651D01*
X030630Y021049D01*
X030349Y021330D01*
X030450Y021229D02*
X031196Y021229D01*
X031196Y021131D02*
X030548Y021131D01*
X030630Y021032D02*
X031196Y021032D01*
X031196Y020934D02*
X030630Y020934D01*
X030630Y020835D02*
X031196Y020835D01*
X031196Y020737D02*
X030630Y020737D01*
X030617Y020638D02*
X031196Y020638D01*
X031196Y020540D02*
X030518Y020540D01*
X030420Y020441D02*
X031196Y020441D01*
X031196Y020343D02*
X028150Y020343D01*
X028150Y020441D02*
X029880Y020441D01*
X029951Y020330D02*
X029670Y020049D01*
X029670Y019898D01*
X030102Y019898D01*
X030102Y020330D01*
X029951Y020330D01*
X029865Y020244D02*
X028150Y020244D01*
X028150Y020146D02*
X029767Y020146D01*
X029670Y020047D02*
X028150Y020047D01*
X028150Y019949D02*
X029670Y019949D01*
X029670Y019752D02*
X028150Y019752D01*
X028150Y019850D02*
X030102Y019850D01*
X030198Y019850D02*
X031196Y019850D01*
X031196Y019752D02*
X030630Y019752D01*
X030630Y019653D02*
X031196Y019653D01*
X031196Y019555D02*
X030533Y019555D01*
X030198Y019555D02*
X030102Y019555D01*
X030102Y019653D02*
X030198Y019653D01*
X030198Y019752D02*
X030102Y019752D01*
X030198Y019898D02*
X030630Y019898D01*
X030630Y020049D01*
X030349Y020330D01*
X030198Y020330D01*
X030198Y019898D01*
X030198Y019949D02*
X030102Y019949D01*
X030102Y020047D02*
X030198Y020047D01*
X030198Y020146D02*
X030102Y020146D01*
X030102Y020244D02*
X030198Y020244D01*
X030435Y020244D02*
X031196Y020244D01*
X031196Y020146D02*
X030533Y020146D01*
X030630Y020047D02*
X031196Y020047D01*
X031196Y019949D02*
X030630Y019949D01*
X030198Y019456D02*
X030102Y019456D01*
X029865Y019456D02*
X028150Y019456D01*
X028150Y019555D02*
X029767Y019555D01*
X029670Y019653D02*
X028150Y019653D01*
X028150Y020540D02*
X029782Y020540D01*
X029683Y020638D02*
X028150Y020638D01*
X028150Y020737D02*
X029670Y020737D01*
X029670Y020835D02*
X028150Y020835D01*
X028150Y020934D02*
X029670Y020934D01*
X029670Y021032D02*
X028150Y021032D01*
X028150Y021131D02*
X029752Y021131D01*
X029850Y021229D02*
X028150Y021229D01*
X028150Y021328D02*
X029949Y021328D01*
X029895Y021426D02*
X028150Y021426D01*
X028150Y021525D02*
X029797Y021525D01*
X029698Y021623D02*
X028206Y021623D01*
X016802Y029306D02*
X015098Y029306D01*
X013780Y025563D02*
X013346Y025563D01*
X013045Y008424D02*
X012916Y008424D01*
X013004Y008326D02*
X012776Y008326D01*
X012650Y007850D02*
X014450Y007850D01*
X001775Y006454D02*
X000600Y006454D01*
X000600Y006356D02*
X001677Y006356D01*
D39*
X000850Y005550D03*
X000850Y003550D03*
X005650Y005250D03*
X006950Y006650D03*
X008050Y006650D03*
X009850Y007350D03*
X010550Y006050D03*
X012650Y007850D03*
X013350Y008250D03*
X012650Y008650D03*
X011950Y009050D03*
X011350Y009450D03*
X010650Y009850D03*
X010350Y010650D03*
X010350Y011250D03*
X010750Y011650D03*
X011150Y012050D03*
X011550Y012450D03*
X014250Y013450D03*
X015250Y012050D03*
X016150Y011150D03*
X017050Y012050D03*
X017050Y010350D03*
X015250Y010350D03*
X015535Y007351D03*
X017550Y005750D03*
X018350Y005050D03*
X019750Y004750D03*
X020350Y005150D03*
X021750Y002650D03*
X022750Y002150D03*
X024050Y000650D03*
X026050Y000650D03*
X028050Y000650D03*
X031050Y003750D03*
X034195Y003150D03*
X034795Y001750D03*
X036345Y001150D03*
X036395Y002150D03*
X037895Y003250D03*
X036395Y003850D03*
X036395Y005350D03*
X037495Y006150D03*
X035895Y006650D03*
X035156Y006391D03*
X034995Y007850D03*
X035995Y007750D03*
X036795Y009150D03*
X035095Y009550D03*
X034995Y010550D03*
X035295Y011350D03*
X035995Y011350D03*
X036695Y011550D03*
X037895Y010850D03*
X038595Y010950D03*
X038495Y009950D03*
X040395Y010450D03*
X040095Y008150D03*
X040095Y006850D03*
X040095Y005450D03*
X034195Y004650D03*
X033895Y007550D03*
X031050Y009650D03*
X029350Y008150D03*
X028250Y006850D03*
X027150Y007050D03*
X025650Y008050D03*
X025050Y009450D03*
X026550Y009450D03*
X026650Y011350D03*
X023650Y007950D03*
X020450Y010850D03*
X018950Y008650D03*
X014950Y005350D03*
X016750Y003750D03*
X017850Y002550D03*
X018950Y001350D03*
X019650Y001950D03*
X020150Y001950D03*
X012250Y004250D03*
X011050Y004250D03*
X009450Y002850D03*
X007950Y002850D03*
X006634Y003505D03*
X008650Y000750D03*
X000850Y007550D03*
X000850Y009550D03*
X000850Y011550D03*
X000850Y013550D03*
X000750Y015450D03*
X000750Y016450D03*
X000750Y017450D03*
X001750Y016450D03*
X002750Y016450D03*
X002750Y015450D03*
X001750Y015450D03*
X003750Y015450D03*
X004750Y015450D03*
X005750Y015450D03*
X005750Y016450D03*
X004750Y016450D03*
X003750Y016450D03*
X006750Y016450D03*
X007750Y016450D03*
X007750Y015450D03*
X006750Y015450D03*
X008750Y015450D03*
X008750Y016450D03*
X009250Y017250D03*
X009250Y018250D03*
X009250Y019250D03*
X009250Y020250D03*
X009250Y021250D03*
X009250Y022250D03*
X009850Y023450D03*
X009207Y024806D03*
X009207Y025278D03*
X008696Y025278D03*
X008696Y024806D03*
X007550Y024350D03*
X010450Y025750D03*
X010850Y026250D03*
X009150Y026950D03*
X008850Y027650D03*
X008450Y028050D03*
X007250Y026750D03*
X005250Y028250D03*
X004750Y031050D03*
X003750Y031050D03*
X002750Y031050D03*
X005750Y031050D03*
X006750Y031050D03*
X007750Y031050D03*
X008750Y031050D03*
X009750Y031050D03*
X011950Y031050D03*
X013950Y031050D03*
X014850Y029550D03*
X017050Y029550D03*
X017950Y031050D03*
X019950Y031050D03*
X021950Y031050D03*
X023950Y031050D03*
X025950Y031050D03*
X027950Y031050D03*
X031050Y027950D03*
X031050Y025950D03*
X031050Y023950D03*
X031050Y021950D03*
X034445Y021723D03*
X034495Y022673D03*
X034845Y023873D03*
X036245Y023673D03*
X037145Y023073D03*
X040195Y022423D03*
X039245Y025823D03*
X037145Y026373D03*
X033645Y018973D03*
X031050Y017350D03*
X025950Y019450D03*
X023450Y019050D03*
X016250Y027050D03*
X015550Y027050D03*
X005250Y021250D03*
X000750Y021450D03*
X000750Y020450D03*
X000750Y019450D03*
X000750Y018450D03*
X000750Y022450D03*
X000750Y023450D03*
X000750Y027450D03*
X000750Y028450D03*
X029450Y006050D03*
X037695Y012950D03*
X037295Y013650D03*
X036395Y013550D03*
X037095Y014750D03*
X037695Y015250D03*
X038795Y014750D03*
X039295Y014250D03*
X038795Y012650D03*
D40*
X038595Y010950D02*
X038595Y010450D01*
X039295Y010450D01*
X039295Y010915D01*
X039260Y010950D01*
X038595Y010450D02*
X037495Y010450D01*
X037495Y010750D01*
X037295Y010950D01*
X035595Y010950D01*
X035995Y011350D01*
X036345Y011700D01*
X036345Y012250D01*
X035595Y010950D02*
X033995Y010950D01*
X033895Y011050D01*
X033895Y011515D01*
X036135Y009757D02*
X036370Y009993D01*
X036370Y006056D01*
X035189Y006056D01*
X035095Y006150D01*
X035095Y006330D01*
X035156Y006391D01*
X035895Y006650D02*
X035895Y007085D01*
X035830Y007150D01*
X036370Y006056D02*
X036395Y006031D01*
X036395Y005550D01*
X036395Y005350D01*
X036395Y005550D02*
X038995Y005550D01*
X039095Y005650D01*
X039095Y009950D01*
X039260Y009950D01*
X039095Y009950D02*
X038495Y009950D01*
X037495Y010450D02*
X037495Y006150D01*
X036395Y002150D02*
X035195Y002150D01*
X034795Y001750D01*
X022750Y002150D02*
X022650Y002250D01*
X022650Y002815D01*
X034080Y024215D02*
X034080Y025307D01*
X035300Y026528D01*
X035300Y026317D01*
X035695Y025923D01*
X037695Y025923D01*
X037895Y026123D01*
X037895Y026508D01*
X037875Y026528D01*
X009650Y024450D02*
X009600Y024400D01*
X009550Y024350D01*
D41*
X035977Y030465D03*
X036567Y030465D03*
X037158Y030465D03*
X037748Y030465D03*
D42*
X037695Y015250D02*
X037130Y015250D01*
X036460Y015250D02*
X036345Y015135D01*
X036345Y014250D01*
X035830Y014650D02*
X035695Y014515D01*
X035695Y013585D01*
X035730Y013550D01*
X036395Y013550D01*
X036895Y013050D02*
X036995Y012950D01*
X037695Y012950D01*
X037345Y012600D02*
X037195Y012750D01*
X035760Y012750D01*
X035695Y012915D01*
X035195Y013250D02*
X035195Y014615D01*
X035160Y014650D01*
X035160Y015250D01*
X035830Y015250D02*
X036460Y015250D01*
X036845Y014250D02*
X036895Y014200D01*
X036895Y013050D01*
X037295Y013650D02*
X037345Y013700D01*
X037345Y014250D01*
X037845Y014250D02*
X039295Y014250D01*
X040095Y014930D02*
X040095Y015150D01*
X039995Y015250D01*
X037695Y015250D01*
X035195Y013250D02*
X035095Y013150D01*
X034767Y013150D01*
X034595Y012978D01*
X034595Y012185D01*
X033895Y012185D02*
X033822Y012257D01*
X033822Y012894D01*
X033822Y013406D02*
X033822Y013712D01*
X034060Y013950D01*
X036845Y012250D02*
X036845Y011700D01*
X036695Y011550D01*
X037345Y011900D02*
X037345Y012250D01*
X037345Y012600D01*
X037345Y011900D02*
X037495Y011750D01*
X039995Y011750D01*
X040095Y011850D01*
X040095Y012930D01*
X035095Y009850D02*
X034995Y009950D01*
X034051Y009950D01*
X034008Y009993D01*
X035095Y009850D02*
X035095Y009550D01*
X034995Y007850D02*
X033995Y006850D01*
X033995Y006069D01*
X034008Y006056D01*
X034995Y007850D02*
X035895Y007850D01*
X035995Y007750D01*
D43*
X029450Y006350D02*
X029450Y006050D01*
X029350Y008150D02*
X029350Y008350D01*
X020850Y007550D02*
X020850Y009550D01*
X020650Y009750D01*
X019450Y009750D01*
X018450Y007350D02*
X020650Y007350D01*
X020850Y007550D01*
D44*
X017550Y005750D02*
X015305Y003505D01*
X006634Y003505D01*
X009850Y007350D02*
X009850Y023450D01*
X009850Y023450D01*
X009850Y024150D01*
X009600Y024400D01*
X009650Y024450D02*
X009650Y025750D01*
X010450Y025750D01*
X009650Y025750D02*
X009650Y026950D01*
X009150Y026950D01*
X007350Y026950D01*
X007250Y026850D01*
X007250Y026750D01*
X007550Y024350D02*
X009550Y024350D01*
M02*
