G75*
G70*
%OFA0B0*%
%FSLAX24Y24*%
%IPPOS*%
%LPD*%
%AMOC8*
5,1,8,0,0,1.08239X$1,22.5*
%
%ADD10C,0.0020*%
%ADD11C,0.0030*%
%ADD12C,0.0040*%
%ADD13C,0.0050*%
%ADD14R,0.0180X0.0300*%
%ADD15C,0.0080*%
%ADD16R,0.0300X0.0180*%
%ADD17C,0.0220*%
%ADD18C,0.0100*%
%ADD19C,0.0060*%
%ADD20R,0.0160X0.0340*%
%ADD21R,0.0340X0.0160*%
%ADD22R,0.0010X0.0010*%
%ADD23R,0.0030X0.0010*%
%ADD24R,0.0020X0.0010*%
%ADD25R,0.0040X0.0010*%
%ADD26R,0.0050X0.0010*%
%ADD27R,0.0170X0.0010*%
%ADD28R,0.0290X0.0010*%
%ADD29R,0.0400X0.0010*%
%ADD30R,0.0310X0.0010*%
%ADD31R,0.0260X0.0010*%
%ADD32R,0.0270X0.0010*%
%ADD33R,0.0180X0.0010*%
%ADD34R,0.0460X0.0010*%
%ADD35R,0.0380X0.0010*%
%ADD36R,0.0100X0.0010*%
%ADD37R,0.0190X0.0010*%
%ADD38R,0.0410X0.0010*%
%ADD39R,0.0160X0.0010*%
%ADD40R,0.0360X0.0010*%
%ADD41R,0.0080X0.0010*%
%ADD42R,0.0440X0.0010*%
%ADD43R,0.0200X0.0010*%
%ADD44R,0.0240X0.0010*%
%ADD45R,0.0450X0.0010*%
%ADD46R,0.0210X0.0010*%
%ADD47R,0.0130X0.0010*%
%ADD48R,0.0140X0.0010*%
%ADD49R,0.0150X0.0010*%
%ADD50R,0.0230X0.0010*%
%ADD51R,0.0060X0.0010*%
%ADD52R,0.0090X0.0010*%
%ADD53R,0.0070X0.0010*%
%ADD54R,0.0220X0.0010*%
%ADD55R,0.0780X0.0010*%
%ADD56R,0.0610X0.0010*%
%ADD57R,0.0250X0.0010*%
%ADD58R,0.0120X0.0010*%
%ADD59R,0.0110X0.0010*%
%ADD60R,0.0320X0.0010*%
%ADD61R,0.0300X0.0010*%
%ADD62R,0.0330X0.0010*%
%ADD63R,0.0370X0.0010*%
%ADD64R,0.0350X0.0010*%
%ADD65R,0.0630X0.0010*%
%ADD66R,0.0430X0.0010*%
%ADD67R,0.0650X0.0010*%
%ADD68R,0.0420X0.0010*%
%ADD69R,0.0340X0.0010*%
%ADD70R,0.0390X0.0010*%
%ADD71R,0.0660X0.0010*%
%ADD72R,0.0680X0.0010*%
D10*
X033395Y011327D02*
X033615Y011327D01*
X033615Y011437D01*
X033578Y011474D01*
X033505Y011474D01*
X033468Y011437D01*
X033468Y011327D01*
X033468Y011401D02*
X033395Y011474D01*
X033395Y011548D02*
X033615Y011548D01*
X033615Y011658D01*
X033578Y011695D01*
X033505Y011695D01*
X033468Y011658D01*
X033468Y011548D01*
X033468Y011621D02*
X033395Y011695D01*
X033395Y011769D02*
X033395Y011916D01*
X033395Y011990D02*
X033615Y011990D01*
X033615Y012137D01*
X033542Y012211D02*
X033615Y012284D01*
X033395Y012284D01*
X033395Y012211D02*
X033395Y012358D01*
X033432Y012631D02*
X033652Y012631D01*
X033652Y012741D01*
X033615Y012778D01*
X033542Y012778D01*
X033505Y012741D01*
X033505Y012631D01*
X033505Y012852D02*
X033505Y012962D01*
X033542Y012999D01*
X033615Y012999D01*
X033652Y012962D01*
X033652Y012852D01*
X033432Y012852D01*
X033505Y012926D02*
X033432Y012999D01*
X033432Y013073D02*
X033432Y013220D01*
X033432Y013294D02*
X033652Y013294D01*
X033652Y013441D01*
X033542Y013368D02*
X033542Y013294D01*
X033652Y013220D02*
X033652Y013073D01*
X033432Y013073D01*
X033542Y013073D02*
X033542Y013147D01*
X033507Y014260D02*
X033654Y014260D01*
X033507Y014407D01*
X033507Y014443D01*
X033544Y014480D01*
X033617Y014480D01*
X033654Y014443D01*
X033728Y014480D02*
X033875Y014480D01*
X033875Y014260D01*
X033949Y014260D02*
X034096Y014260D01*
X034096Y014480D01*
X033949Y014480D01*
X034023Y014370D02*
X034096Y014370D01*
X034170Y014370D02*
X034207Y014333D01*
X034317Y014333D01*
X034317Y014260D02*
X034317Y014480D01*
X034207Y014480D01*
X034170Y014443D01*
X034170Y014370D01*
X034244Y014333D02*
X034170Y014260D01*
X034391Y014260D02*
X034465Y014333D01*
X034428Y014333D02*
X034538Y014333D01*
X034538Y014260D02*
X034538Y014480D01*
X034428Y014480D01*
X034391Y014443D01*
X034391Y014370D01*
X034428Y014333D01*
X034815Y014218D02*
X034962Y014218D01*
X034889Y014218D02*
X034889Y014439D01*
X034962Y014365D01*
X035036Y014365D02*
X035073Y014329D01*
X035183Y014329D01*
X035257Y014292D02*
X035294Y014329D01*
X035367Y014329D01*
X035404Y014365D01*
X035404Y014402D01*
X035367Y014439D01*
X035294Y014439D01*
X035257Y014402D01*
X035183Y014439D02*
X035073Y014439D01*
X035036Y014402D01*
X035036Y014365D01*
X035073Y014329D02*
X035036Y014292D01*
X035036Y014255D01*
X035073Y014218D01*
X035183Y014218D01*
X035183Y014439D01*
X035257Y014292D02*
X035257Y014255D01*
X035294Y014218D01*
X035367Y014218D01*
X035404Y014255D01*
X035552Y014218D02*
X035552Y014329D01*
X035478Y014402D01*
X035478Y014439D01*
X035552Y014329D02*
X035625Y014402D01*
X035625Y014439D01*
X035699Y014439D02*
X035699Y014218D01*
X035699Y014329D02*
X035846Y014329D01*
X035920Y014329D02*
X035957Y014292D01*
X036067Y014292D01*
X035994Y014292D02*
X035920Y014218D01*
X035846Y014218D02*
X035846Y014439D01*
X035920Y014402D02*
X035920Y014329D01*
X035920Y014402D02*
X035957Y014439D01*
X036067Y014439D01*
X036067Y014218D01*
X035385Y013794D02*
X035385Y013721D01*
X035348Y013684D01*
X035348Y013610D02*
X035312Y013610D01*
X035275Y013573D01*
X035275Y013463D01*
X035238Y013389D02*
X035202Y013389D01*
X035165Y013352D01*
X035165Y013279D01*
X035202Y013242D01*
X035275Y013279D02*
X035275Y013352D01*
X035238Y013389D01*
X035165Y013463D02*
X035165Y013573D01*
X035202Y013610D01*
X035238Y013610D01*
X035275Y013573D01*
X035348Y013610D02*
X035385Y013573D01*
X035385Y013463D01*
X035165Y013463D01*
X035348Y013389D02*
X035385Y013352D01*
X035385Y013279D01*
X035348Y013242D01*
X035312Y013242D01*
X035275Y013279D01*
X035348Y013168D02*
X035385Y013168D01*
X035348Y013168D02*
X035275Y013095D01*
X035165Y013095D01*
X035275Y013095D02*
X035348Y013021D01*
X035385Y013021D01*
X035385Y012947D02*
X035165Y012947D01*
X035275Y012947D02*
X035275Y012800D01*
X035275Y012726D02*
X035238Y012689D01*
X035238Y012579D01*
X035165Y012579D02*
X035385Y012579D01*
X035385Y012689D01*
X035348Y012726D01*
X035275Y012726D01*
X035238Y012653D02*
X035165Y012726D01*
X035165Y012800D02*
X035385Y012800D01*
X035782Y012460D02*
X035782Y012387D01*
X035819Y012350D01*
X035892Y012350D02*
X035929Y012423D01*
X035929Y012460D01*
X035892Y012497D01*
X035819Y012497D01*
X035782Y012460D01*
X035892Y012350D02*
X036002Y012350D01*
X036002Y012497D01*
X036002Y012276D02*
X035819Y012276D01*
X035782Y012239D01*
X035782Y012166D01*
X035819Y012129D01*
X036002Y012129D01*
X035072Y012112D02*
X035072Y011965D01*
X034852Y011965D01*
X034852Y012112D01*
X034852Y012186D02*
X035072Y012186D01*
X035072Y012333D01*
X034962Y012259D02*
X034962Y012186D01*
X034962Y012038D02*
X034962Y011965D01*
X034962Y011891D02*
X034926Y011854D01*
X034926Y011744D01*
X034926Y011817D02*
X034852Y011891D01*
X034962Y011891D02*
X035036Y011891D01*
X035072Y011854D01*
X035072Y011744D01*
X034852Y011744D01*
X034889Y011670D02*
X034852Y011633D01*
X034852Y011560D01*
X034889Y011523D01*
X035036Y011523D01*
X035072Y011560D01*
X035072Y011633D01*
X035036Y011670D01*
X033615Y011769D02*
X033395Y011769D01*
X033505Y011769D02*
X033505Y011842D01*
X033615Y011916D02*
X033615Y011769D01*
X033505Y011990D02*
X033505Y012063D01*
X035165Y013684D02*
X035312Y013831D01*
X035348Y013831D01*
X035385Y013794D01*
X035165Y013831D02*
X035165Y013684D01*
X033875Y014370D02*
X033802Y014370D01*
X034717Y015507D02*
X034864Y015507D01*
X034790Y015507D02*
X034790Y015728D01*
X034864Y015654D01*
X034938Y015654D02*
X034938Y015507D01*
X034938Y015617D02*
X035085Y015617D01*
X035085Y015654D02*
X035011Y015728D01*
X034938Y015654D01*
X035085Y015654D02*
X035085Y015507D01*
X035159Y015544D02*
X035196Y015507D01*
X035269Y015507D01*
X035306Y015544D01*
X035269Y015617D02*
X035196Y015617D01*
X035159Y015581D01*
X035159Y015544D01*
X035269Y015617D02*
X035306Y015654D01*
X035306Y015691D01*
X035269Y015728D01*
X035196Y015728D01*
X035159Y015691D01*
X035380Y015691D02*
X035380Y015728D01*
X035380Y015691D02*
X035453Y015617D01*
X035453Y015507D01*
X035453Y015617D02*
X035527Y015691D01*
X035527Y015728D01*
X035601Y015728D02*
X035601Y015507D01*
X035601Y015617D02*
X035748Y015617D01*
X035822Y015617D02*
X035859Y015581D01*
X035969Y015581D01*
X035969Y015507D02*
X035969Y015728D01*
X035859Y015728D01*
X035822Y015691D01*
X035822Y015617D01*
X035895Y015581D02*
X035822Y015507D01*
X035748Y015507D02*
X035748Y015728D01*
X036509Y015691D02*
X036546Y015728D01*
X036619Y015728D01*
X036656Y015691D01*
X036730Y015654D02*
X036730Y015507D01*
X036656Y015507D02*
X036509Y015654D01*
X036509Y015691D01*
X036509Y015507D02*
X036656Y015507D01*
X036730Y015617D02*
X036877Y015617D01*
X036877Y015654D02*
X036803Y015728D01*
X036730Y015654D01*
X036877Y015654D02*
X036877Y015507D01*
X036951Y015544D02*
X036988Y015507D01*
X037061Y015507D01*
X037098Y015544D01*
X037061Y015617D02*
X036988Y015617D01*
X036951Y015581D01*
X036951Y015544D01*
X037061Y015617D02*
X037098Y015654D01*
X037098Y015691D01*
X037061Y015728D01*
X036988Y015728D01*
X036951Y015691D01*
X037172Y015691D02*
X037172Y015728D01*
X037172Y015691D02*
X037245Y015617D01*
X037245Y015507D01*
X037245Y015617D02*
X037319Y015691D01*
X037319Y015728D01*
X037393Y015728D02*
X037393Y015507D01*
X037393Y015617D02*
X037540Y015617D01*
X037614Y015617D02*
X037651Y015581D01*
X037761Y015581D01*
X037687Y015581D02*
X037614Y015507D01*
X037540Y015507D02*
X037540Y015728D01*
X037614Y015691D02*
X037614Y015617D01*
X037614Y015691D02*
X037651Y015728D01*
X037761Y015728D01*
X037761Y015507D01*
X039278Y012996D02*
X039278Y012849D01*
X039278Y012775D02*
X039278Y012628D01*
X039388Y012738D01*
X039168Y012738D01*
X039205Y012554D02*
X039388Y012554D01*
X039388Y012407D02*
X039205Y012407D01*
X039168Y012444D01*
X039168Y012517D01*
X039205Y012554D01*
X039131Y012333D02*
X039131Y012186D01*
X039241Y012075D02*
X039278Y012112D01*
X039351Y012112D01*
X039388Y012075D01*
X039388Y011965D01*
X039168Y011965D01*
X039241Y011965D02*
X039241Y012075D01*
X039351Y011891D02*
X039278Y011818D01*
X039168Y011818D01*
X039278Y011818D02*
X039351Y011744D01*
X039388Y011744D01*
X039351Y011670D02*
X039315Y011670D01*
X039278Y011633D01*
X039278Y011523D01*
X039351Y011449D02*
X039388Y011412D01*
X039388Y011339D01*
X039351Y011302D01*
X039205Y011302D01*
X039168Y011339D01*
X039168Y011412D01*
X039205Y011449D01*
X039168Y011523D02*
X039168Y011633D01*
X039205Y011670D01*
X039241Y011670D01*
X039278Y011633D01*
X039351Y011670D02*
X039388Y011633D01*
X039388Y011523D01*
X039168Y011523D01*
X039351Y011891D02*
X039388Y011891D01*
X039351Y012922D02*
X039205Y012922D01*
X039241Y009566D02*
X039241Y009419D01*
X039241Y009345D02*
X039241Y009198D01*
X039351Y009308D01*
X039131Y009308D01*
X039168Y009124D02*
X039351Y009124D01*
X039351Y008977D02*
X039168Y008977D01*
X039131Y009014D01*
X039131Y009087D01*
X039168Y009124D01*
X039094Y008903D02*
X039094Y008756D01*
X039204Y008645D02*
X039204Y008535D01*
X039131Y008535D02*
X039351Y008535D01*
X039351Y008645D01*
X039315Y008682D01*
X039241Y008682D01*
X039204Y008645D01*
X039315Y008461D02*
X039241Y008387D01*
X039131Y008387D01*
X039241Y008387D02*
X039315Y008314D01*
X039351Y008314D01*
X039315Y008240D02*
X039278Y008240D01*
X039241Y008203D01*
X039241Y008093D01*
X039168Y008019D02*
X039131Y007982D01*
X039131Y007909D01*
X039168Y007872D01*
X039315Y007872D01*
X039351Y007909D01*
X039351Y007982D01*
X039315Y008019D01*
X039351Y008093D02*
X039351Y008203D01*
X039315Y008240D01*
X039241Y008203D02*
X039204Y008240D01*
X039168Y008240D01*
X039131Y008203D01*
X039131Y008093D01*
X039351Y008093D01*
X039351Y008461D02*
X039315Y008461D01*
X036519Y008446D02*
X036519Y008519D01*
X036482Y008556D01*
X036445Y008556D01*
X036409Y008519D01*
X036372Y008556D01*
X036335Y008556D01*
X036299Y008519D01*
X036299Y008446D01*
X036335Y008409D01*
X036335Y008335D02*
X036519Y008335D01*
X036482Y008409D02*
X036519Y008446D01*
X036409Y008483D02*
X036409Y008519D01*
X036335Y008335D02*
X036299Y008298D01*
X036299Y008225D01*
X036335Y008188D01*
X036519Y008188D01*
X036262Y008114D02*
X036262Y007967D01*
X036372Y007856D02*
X036372Y007746D01*
X036299Y007746D02*
X036519Y007746D01*
X036519Y007856D01*
X036482Y007893D01*
X036409Y007893D01*
X036372Y007856D01*
X036482Y007672D02*
X036409Y007599D01*
X036299Y007599D01*
X036409Y007599D02*
X036482Y007525D01*
X036519Y007525D01*
X036482Y007451D02*
X036445Y007451D01*
X036409Y007414D01*
X036409Y007304D01*
X036482Y007230D02*
X036519Y007193D01*
X036519Y007120D01*
X036482Y007083D01*
X036335Y007083D01*
X036299Y007120D01*
X036299Y007193D01*
X036335Y007230D01*
X036299Y007304D02*
X036299Y007414D01*
X036335Y007451D01*
X036372Y007451D01*
X036409Y007414D01*
X036482Y007451D02*
X036519Y007414D01*
X036519Y007304D01*
X036299Y007304D01*
X036482Y007672D02*
X036519Y007672D01*
X035199Y008336D02*
X035199Y008446D01*
X035163Y008482D01*
X035089Y008482D01*
X035052Y008446D01*
X035052Y008336D01*
X034979Y008336D02*
X035199Y008336D01*
X035199Y008557D02*
X034979Y008557D01*
X035089Y008557D02*
X035089Y008703D01*
X035089Y008778D02*
X035089Y008924D01*
X035126Y008924D02*
X034979Y008924D01*
X034979Y008778D02*
X035126Y008778D01*
X035199Y008851D01*
X035126Y008924D01*
X035199Y008703D02*
X034979Y008703D01*
X035114Y004987D02*
X035077Y004951D01*
X035077Y004841D01*
X035298Y004841D01*
X035298Y004951D01*
X035261Y004987D01*
X035224Y004987D01*
X035188Y004951D01*
X035188Y004841D01*
X035188Y004766D02*
X035188Y004620D01*
X035188Y004545D02*
X035151Y004509D01*
X035151Y004399D01*
X035077Y004399D02*
X035298Y004399D01*
X035298Y004509D01*
X035261Y004545D01*
X035188Y004545D01*
X035077Y004620D02*
X035298Y004620D01*
X035298Y004766D02*
X035077Y004766D01*
X035188Y004951D02*
X035151Y004987D01*
X035114Y004987D01*
X035924Y018783D02*
X036071Y018783D01*
X035924Y018930D01*
X035924Y018967D01*
X035961Y019004D01*
X036034Y019004D01*
X036071Y018967D01*
X036145Y018967D02*
X036182Y019004D01*
X036292Y019004D01*
X036292Y018783D01*
X036182Y018783D01*
X036145Y018820D01*
X036145Y018967D01*
X036366Y019004D02*
X036513Y019004D01*
X036513Y018783D01*
X036366Y018783D01*
X036439Y018893D02*
X036513Y018893D01*
X036587Y018783D02*
X036734Y018783D01*
X036734Y019004D01*
X036808Y018967D02*
X036808Y018820D01*
X036845Y018783D01*
X036918Y018783D01*
X036955Y018820D01*
X036955Y018967D01*
X036918Y019004D01*
X036845Y019004D01*
X036808Y018967D01*
X036881Y018857D02*
X036808Y018783D01*
X037174Y019020D02*
X037211Y018983D01*
X037284Y018983D01*
X037321Y019020D01*
X037395Y019020D02*
X037395Y019166D01*
X037432Y019203D01*
X037542Y019203D01*
X037542Y018983D01*
X037432Y018983D01*
X037395Y019020D01*
X037321Y019166D02*
X037284Y019203D01*
X037211Y019203D01*
X037174Y019166D01*
X037174Y019130D01*
X037211Y019093D01*
X037174Y019056D01*
X037174Y019020D01*
X037211Y019093D02*
X037247Y019093D01*
X037616Y018983D02*
X037763Y018983D01*
X037763Y019203D01*
X037616Y019203D01*
X037689Y019093D02*
X037763Y019093D01*
X037837Y018983D02*
X037984Y018983D01*
X037984Y019203D01*
X038058Y019166D02*
X038058Y019020D01*
X038095Y018983D01*
X038168Y018983D01*
X038205Y019020D01*
X038205Y019166D01*
X038168Y019203D01*
X038095Y019203D01*
X038058Y019166D01*
X038131Y019056D02*
X038058Y018983D01*
X039280Y019400D02*
X039427Y019400D01*
X039354Y019400D02*
X039354Y019620D01*
X039427Y019547D01*
X039501Y019400D02*
X039648Y019400D01*
X039648Y019620D01*
X039722Y019583D02*
X039722Y019510D01*
X039759Y019473D01*
X039869Y019473D01*
X039869Y019400D02*
X039869Y019620D01*
X039759Y019620D01*
X039722Y019583D01*
X039796Y019473D02*
X039722Y019400D01*
X038723Y019799D02*
X038723Y019909D01*
X038687Y019945D01*
X038613Y019945D01*
X038576Y019909D01*
X038576Y019799D01*
X038503Y019799D02*
X038723Y019799D01*
X038576Y019872D02*
X038503Y019945D01*
X038503Y020020D02*
X038503Y020166D01*
X038503Y020241D02*
X038650Y020387D01*
X038687Y020387D01*
X038723Y020351D01*
X038723Y020277D01*
X038687Y020241D01*
X038503Y020241D02*
X038503Y020387D01*
X038484Y020499D02*
X038704Y020499D01*
X038704Y020609D01*
X038668Y020645D01*
X038594Y020645D01*
X038558Y020609D01*
X038558Y020499D01*
X038558Y020572D02*
X038484Y020645D01*
X038484Y020720D02*
X038484Y020866D01*
X038521Y020941D02*
X038484Y020977D01*
X038484Y021051D01*
X038521Y021087D01*
X038558Y021087D01*
X038594Y021051D01*
X038594Y021014D01*
X038594Y021051D02*
X038631Y021087D01*
X038668Y021087D01*
X038704Y021051D01*
X038704Y020977D01*
X038668Y020941D01*
X038704Y020720D02*
X038484Y020720D01*
X038465Y021199D02*
X038685Y021199D01*
X038685Y021309D01*
X038649Y021345D01*
X038575Y021345D01*
X038539Y021309D01*
X038539Y021199D01*
X038539Y021272D02*
X038465Y021345D01*
X038465Y021420D02*
X038465Y021566D01*
X038575Y021641D02*
X038575Y021787D01*
X038465Y021751D02*
X038685Y021751D01*
X038575Y021641D01*
X038685Y021420D02*
X038465Y021420D01*
X038224Y021787D02*
X038114Y021787D01*
X038077Y021824D01*
X038077Y021971D01*
X038114Y022008D01*
X038224Y022008D01*
X038224Y021787D01*
X038003Y021824D02*
X037966Y021787D01*
X037893Y021787D01*
X037856Y021824D01*
X037856Y021861D01*
X037893Y021897D01*
X038003Y021897D01*
X038003Y021824D01*
X038003Y021897D02*
X037929Y021971D01*
X037856Y022008D01*
X038496Y023449D02*
X038717Y023449D01*
X038717Y023559D01*
X038680Y023595D01*
X038606Y023595D01*
X038570Y023559D01*
X038570Y023449D01*
X038570Y023522D02*
X038496Y023595D01*
X038496Y023670D02*
X038496Y023816D01*
X038533Y023891D02*
X038496Y023927D01*
X038496Y024001D01*
X038533Y024037D01*
X038606Y024037D01*
X038643Y024001D01*
X038643Y023964D01*
X038606Y023891D01*
X038717Y023891D01*
X038717Y024037D01*
X038748Y024149D02*
X038748Y024259D01*
X038711Y024295D01*
X038638Y024295D01*
X038601Y024259D01*
X038601Y024149D01*
X038601Y024222D02*
X038527Y024295D01*
X038527Y024370D02*
X038527Y024516D01*
X038564Y024591D02*
X038527Y024627D01*
X038527Y024701D01*
X038564Y024737D01*
X038601Y024737D01*
X038638Y024701D01*
X038638Y024591D01*
X038564Y024591D01*
X038638Y024591D02*
X038711Y024664D01*
X038748Y024737D01*
X038748Y024370D02*
X038527Y024370D01*
X038527Y024149D02*
X038748Y024149D01*
X038717Y023670D02*
X038496Y023670D01*
X038861Y023453D02*
X038971Y023343D01*
X038824Y023343D01*
X038861Y023233D02*
X038861Y023453D01*
X039045Y023416D02*
X039082Y023453D01*
X039192Y023453D01*
X039192Y023233D01*
X039082Y023233D01*
X039045Y023269D01*
X039045Y023416D01*
X039266Y023453D02*
X039413Y023453D01*
X039413Y023233D01*
X039266Y023233D01*
X039339Y023343D02*
X039413Y023343D01*
X039487Y023233D02*
X039634Y023233D01*
X039634Y023453D01*
X039708Y023416D02*
X039708Y023269D01*
X039745Y023233D01*
X039818Y023233D01*
X039855Y023269D01*
X039855Y023416D01*
X039818Y023453D01*
X039745Y023453D01*
X039708Y023416D01*
X039781Y023306D02*
X039708Y023233D01*
X039769Y025187D02*
X039769Y025407D01*
X039659Y025407D01*
X039622Y025370D01*
X039622Y025297D01*
X039659Y025260D01*
X039769Y025260D01*
X039696Y025260D02*
X039622Y025187D01*
X039548Y025187D02*
X039401Y025187D01*
X039327Y025187D02*
X039327Y025223D01*
X039180Y025370D01*
X039180Y025407D01*
X039327Y025407D01*
X039548Y025407D02*
X039548Y025187D01*
X038320Y025330D02*
X038283Y025293D01*
X038210Y025293D01*
X038173Y025330D01*
X038173Y025477D01*
X038210Y025514D01*
X038283Y025514D01*
X038320Y025477D01*
X038320Y025330D01*
X038247Y025367D02*
X038173Y025293D01*
X038099Y025293D02*
X037952Y025293D01*
X037878Y025293D02*
X037731Y025293D01*
X037657Y025293D02*
X037547Y025293D01*
X037510Y025330D01*
X037510Y025477D01*
X037547Y025514D01*
X037657Y025514D01*
X037657Y025293D01*
X037805Y025404D02*
X037878Y025404D01*
X037878Y025514D02*
X037878Y025293D01*
X037878Y025514D02*
X037731Y025514D01*
X037436Y025514D02*
X037436Y025404D01*
X037363Y025440D01*
X037326Y025440D01*
X037289Y025404D01*
X037289Y025330D01*
X037326Y025293D01*
X037399Y025293D01*
X037436Y025330D01*
X037436Y025514D02*
X037289Y025514D01*
X037020Y025681D02*
X037020Y025827D01*
X036983Y025864D01*
X036910Y025864D01*
X036873Y025827D01*
X036873Y025681D01*
X036910Y025644D01*
X036983Y025644D01*
X037020Y025681D01*
X036947Y025717D02*
X036873Y025644D01*
X036799Y025644D02*
X036799Y025864D01*
X036799Y025644D02*
X036652Y025644D01*
X036578Y025644D02*
X036431Y025644D01*
X036357Y025644D02*
X036357Y025864D01*
X036247Y025864D01*
X036210Y025827D01*
X036210Y025681D01*
X036247Y025644D01*
X036357Y025644D01*
X036505Y025754D02*
X036578Y025754D01*
X036578Y025864D02*
X036578Y025644D01*
X036578Y025864D02*
X036431Y025864D01*
X036136Y025754D02*
X036026Y025754D01*
X035989Y025717D01*
X035989Y025681D01*
X036026Y025644D01*
X036099Y025644D01*
X036136Y025681D01*
X036136Y025754D01*
X036063Y025827D01*
X035989Y025864D01*
X035520Y025831D02*
X035483Y025794D01*
X035410Y025794D01*
X035373Y025831D01*
X035373Y025978D01*
X035410Y026014D01*
X035483Y026014D01*
X035520Y025978D01*
X035520Y025831D01*
X035447Y025868D02*
X035373Y025794D01*
X035299Y025794D02*
X035152Y025794D01*
X035078Y025794D02*
X034931Y025794D01*
X034857Y025794D02*
X034747Y025794D01*
X034710Y025831D01*
X034710Y025978D01*
X034747Y026014D01*
X034857Y026014D01*
X034857Y025794D01*
X035005Y025904D02*
X035078Y025904D01*
X035078Y026014D02*
X035078Y025794D01*
X035078Y026014D02*
X034931Y026014D01*
X034636Y026014D02*
X034489Y026014D01*
X034489Y025978D01*
X034636Y025831D01*
X034636Y025794D01*
X035299Y025794D02*
X035299Y026014D01*
X033684Y024621D02*
X033684Y024547D01*
X033647Y024511D01*
X033610Y024511D01*
X033574Y024547D01*
X033574Y024621D01*
X033537Y024658D01*
X033500Y024658D01*
X033464Y024621D01*
X033464Y024547D01*
X033500Y024511D01*
X033464Y024437D02*
X033610Y024437D01*
X033684Y024363D01*
X033610Y024290D01*
X033464Y024290D01*
X033464Y024216D02*
X033464Y024069D01*
X033684Y024069D01*
X033647Y023995D02*
X033500Y023995D01*
X033464Y023958D01*
X033464Y023884D01*
X033500Y023848D01*
X033647Y023848D01*
X033684Y023884D01*
X033684Y023958D01*
X033647Y023995D01*
X033537Y023921D02*
X033464Y023995D01*
X033574Y024290D02*
X033574Y024437D01*
X033684Y024621D02*
X033647Y024658D01*
X035174Y023176D02*
X035252Y023254D01*
X035408Y023098D01*
X035356Y023150D02*
X035278Y023073D01*
X035226Y023073D01*
X035174Y023124D01*
X035174Y023176D01*
X035096Y023098D02*
X035044Y023046D01*
X035070Y023072D02*
X035225Y022916D01*
X035251Y022942D02*
X035199Y022890D01*
X035121Y022864D02*
X035017Y022968D01*
X034965Y022968D01*
X034914Y022916D01*
X034914Y022864D01*
X035017Y022760D02*
X035069Y022760D01*
X035121Y022812D01*
X035121Y022864D01*
X035434Y023177D02*
X035304Y023307D01*
X035408Y023410D02*
X035538Y023281D01*
X035538Y023229D01*
X035486Y023177D01*
X035434Y023177D01*
X038099Y025293D02*
X038099Y025514D01*
X035618Y020654D02*
X035545Y020654D01*
X035508Y020617D01*
X035508Y020470D01*
X035545Y020434D01*
X035618Y020434D01*
X035655Y020470D01*
X035655Y020617D01*
X035618Y020654D01*
X035581Y020507D02*
X035508Y020434D01*
X035434Y020434D02*
X035287Y020434D01*
X035213Y020434D02*
X035066Y020434D01*
X034992Y020434D02*
X034882Y020434D01*
X034845Y020470D01*
X034845Y020617D01*
X034882Y020654D01*
X034992Y020654D01*
X034992Y020434D01*
X035139Y020544D02*
X035213Y020544D01*
X035213Y020654D02*
X035213Y020434D01*
X035213Y020654D02*
X035066Y020654D01*
X034771Y020581D02*
X034697Y020654D01*
X034697Y020434D01*
X034624Y020434D02*
X034771Y020434D01*
X035434Y020434D02*
X035434Y020654D01*
X038503Y020020D02*
X038723Y020020D01*
D11*
X029243Y016785D02*
X029243Y016415D01*
X029243Y016538D02*
X029058Y016538D01*
X028996Y016600D01*
X028996Y016724D01*
X029058Y016785D01*
X029243Y016785D01*
X029120Y016538D02*
X028996Y016415D01*
X028752Y016415D02*
X028752Y016785D01*
X028875Y016785D02*
X028628Y016785D01*
X028507Y016724D02*
X028507Y016477D01*
X028445Y016415D01*
X028322Y016415D01*
X028260Y016477D01*
X028260Y016724D01*
X028322Y016785D01*
X028445Y016785D01*
X028507Y016724D01*
X028138Y016785D02*
X027953Y016785D01*
X027891Y016724D01*
X027891Y016600D01*
X027953Y016538D01*
X028138Y016538D01*
X028138Y016415D02*
X028138Y016785D01*
X019985Y013327D02*
X019985Y013203D01*
X019924Y013142D01*
X019985Y013327D02*
X019924Y013388D01*
X019862Y013388D01*
X019615Y013142D01*
X019615Y013388D01*
X019553Y013020D02*
X019553Y012773D01*
X019738Y012590D02*
X019738Y012405D01*
X019615Y012405D02*
X019985Y012405D01*
X019985Y012590D01*
X019924Y012652D01*
X019800Y012652D01*
X019738Y012590D01*
X019924Y012284D02*
X019800Y012160D01*
X019615Y012160D01*
X019800Y012160D02*
X019924Y012037D01*
X019985Y012037D01*
X019924Y011915D02*
X019862Y011915D01*
X019800Y011854D01*
X019800Y011668D01*
X019677Y011547D02*
X019615Y011485D01*
X019615Y011362D01*
X019677Y011300D01*
X019924Y011300D01*
X019985Y011362D01*
X019985Y011485D01*
X019924Y011547D01*
X019985Y011668D02*
X019985Y011854D01*
X019924Y011915D01*
X019800Y011854D02*
X019738Y011915D01*
X019677Y011915D01*
X019615Y011854D01*
X019615Y011668D01*
X019985Y011668D01*
X019985Y012284D02*
X019924Y012284D01*
X018480Y013377D02*
X018418Y013315D01*
X018295Y013315D01*
X018233Y013377D01*
X018112Y013315D02*
X017926Y013315D01*
X017865Y013377D01*
X017865Y013438D01*
X017926Y013500D01*
X018112Y013500D01*
X018233Y013624D02*
X018295Y013685D01*
X018418Y013685D01*
X018480Y013624D01*
X018480Y013377D01*
X018112Y013315D02*
X018112Y013685D01*
X017926Y013685D01*
X017865Y013624D01*
X017865Y013562D01*
X017926Y013500D01*
X017743Y013624D02*
X017743Y013685D01*
X017743Y013624D02*
X017620Y013500D01*
X017620Y013315D01*
X017620Y013500D02*
X017496Y013624D01*
X017496Y013685D01*
X017375Y013685D02*
X017190Y013685D01*
X017128Y013624D01*
X017128Y013500D01*
X017190Y013438D01*
X017375Y013438D01*
X017375Y013315D02*
X017375Y013685D01*
X017007Y013253D02*
X016760Y013253D01*
X016638Y013315D02*
X016391Y013315D01*
X016515Y013315D02*
X016515Y013685D01*
X016638Y013562D01*
X014199Y010969D02*
X014261Y010907D01*
X014261Y010784D01*
X014199Y010722D01*
X013952Y010722D01*
X013890Y010784D01*
X013890Y010907D01*
X013952Y010969D01*
X013890Y010600D02*
X013890Y010476D01*
X013890Y010538D02*
X014261Y010538D01*
X014261Y010476D02*
X014261Y010600D01*
X014199Y010355D02*
X014075Y010355D01*
X014014Y010293D01*
X014014Y010108D01*
X013890Y010108D02*
X014261Y010108D01*
X014261Y010293D01*
X014199Y010355D01*
X014261Y009987D02*
X013952Y009987D01*
X013890Y009925D01*
X013890Y009801D01*
X013952Y009740D01*
X014261Y009740D01*
X012535Y011277D02*
X012473Y011215D01*
X012350Y011215D01*
X012288Y011277D01*
X012167Y011277D02*
X012105Y011215D01*
X011982Y011215D01*
X011920Y011277D01*
X011798Y011215D02*
X011798Y011462D01*
X011675Y011585D01*
X011551Y011462D01*
X011551Y011215D01*
X011430Y011215D02*
X011430Y011585D01*
X011245Y011585D01*
X011183Y011524D01*
X011183Y011400D01*
X011245Y011338D01*
X011430Y011338D01*
X011551Y011400D02*
X011798Y011400D01*
X011920Y011524D02*
X011982Y011585D01*
X012105Y011585D01*
X012167Y011524D01*
X012167Y011277D01*
X012288Y011524D02*
X012350Y011585D01*
X012473Y011585D01*
X012535Y011524D01*
X012535Y011277D01*
X016077Y007409D02*
X016015Y007347D01*
X016015Y007223D01*
X016077Y007162D01*
X015953Y007040D02*
X015953Y006793D01*
X016138Y006610D02*
X016138Y006425D01*
X016015Y006425D02*
X016385Y006425D01*
X016385Y006610D01*
X016324Y006672D01*
X016200Y006672D01*
X016138Y006610D01*
X016324Y006304D02*
X016385Y006304D01*
X016324Y006304D02*
X016200Y006180D01*
X016015Y006180D01*
X016200Y006180D02*
X016324Y006057D01*
X016385Y006057D01*
X016324Y005935D02*
X016262Y005935D01*
X016200Y005874D01*
X016200Y005688D01*
X016077Y005567D02*
X016015Y005505D01*
X016015Y005382D01*
X016077Y005320D01*
X016324Y005320D01*
X016385Y005382D01*
X016385Y005505D01*
X016324Y005567D01*
X016385Y005688D02*
X016385Y005874D01*
X016324Y005935D01*
X016200Y005874D02*
X016138Y005935D01*
X016077Y005935D01*
X016015Y005874D01*
X016015Y005688D01*
X016385Y005688D01*
X017683Y004674D02*
X017683Y004612D01*
X017745Y004550D01*
X017930Y004550D01*
X018051Y004488D02*
X018051Y004427D01*
X018113Y004365D01*
X018237Y004365D01*
X018298Y004427D01*
X018420Y004427D02*
X018420Y004735D01*
X018298Y004674D02*
X018298Y004612D01*
X018237Y004550D01*
X018113Y004550D01*
X018051Y004488D01*
X017930Y004365D02*
X017930Y004735D01*
X017745Y004735D01*
X017683Y004674D01*
X017745Y004550D02*
X017683Y004488D01*
X017683Y004427D01*
X017745Y004365D01*
X017930Y004365D01*
X018051Y004674D02*
X018113Y004735D01*
X018237Y004735D01*
X018298Y004674D01*
X018420Y004427D02*
X018482Y004365D01*
X018605Y004365D01*
X018667Y004427D01*
X018667Y004735D01*
X018788Y004735D02*
X018912Y004735D01*
X018850Y004735D02*
X018850Y004427D01*
X018912Y004365D01*
X018973Y004365D01*
X019035Y004427D01*
X018424Y005988D02*
X018177Y005988D01*
X018115Y006050D01*
X018115Y006174D01*
X018177Y006235D01*
X018115Y006357D02*
X018485Y006604D01*
X018362Y006725D02*
X018485Y006848D01*
X018115Y006848D01*
X018115Y006725D02*
X018115Y006972D01*
X018053Y007093D02*
X018053Y007340D01*
X018115Y007462D02*
X018362Y007709D01*
X018424Y007709D01*
X018485Y007647D01*
X018485Y007523D01*
X018424Y007462D01*
X018115Y007462D02*
X018115Y007709D01*
X018115Y006604D02*
X018485Y006357D01*
X018424Y006235D02*
X018485Y006174D01*
X018485Y006050D01*
X018424Y005988D01*
X019615Y006050D02*
X019677Y005988D01*
X019924Y005988D01*
X019985Y006050D01*
X019985Y006174D01*
X019924Y006235D01*
X019985Y006357D02*
X019615Y006604D01*
X019615Y006725D02*
X019615Y006972D01*
X019615Y006848D02*
X019985Y006848D01*
X019862Y006725D01*
X019985Y006604D02*
X019615Y006357D01*
X019677Y006235D02*
X019615Y006174D01*
X019615Y006050D01*
X019553Y007093D02*
X019553Y007340D01*
X019615Y007462D02*
X019615Y007709D01*
X019615Y007585D02*
X019985Y007585D01*
X019862Y007462D01*
X022515Y007339D02*
X022515Y007092D01*
X022515Y006970D02*
X022515Y006847D01*
X022515Y006908D02*
X022885Y006908D01*
X022885Y006847D02*
X022885Y006970D01*
X022762Y007092D02*
X022885Y007216D01*
X022515Y007216D01*
X022577Y006725D02*
X022824Y006725D01*
X022885Y006663D01*
X022885Y006478D01*
X022515Y006478D01*
X022515Y006663D01*
X022577Y006725D01*
X022885Y006357D02*
X022885Y006110D01*
X022885Y005988D02*
X022885Y005742D01*
X022515Y005742D01*
X022453Y005620D02*
X022453Y005373D01*
X022638Y005190D02*
X022638Y005005D01*
X022515Y005005D02*
X022885Y005005D01*
X022885Y005190D01*
X022824Y005252D01*
X022700Y005252D01*
X022638Y005190D01*
X022824Y004884D02*
X022885Y004884D01*
X022824Y004884D02*
X022700Y004760D01*
X022515Y004760D01*
X022700Y004760D02*
X022824Y004637D01*
X022885Y004637D01*
X022824Y004515D02*
X022762Y004515D01*
X022700Y004454D01*
X022700Y004268D01*
X022577Y004147D02*
X022515Y004085D01*
X022515Y003962D01*
X022577Y003900D01*
X022824Y003900D01*
X022885Y003962D01*
X022885Y004085D01*
X022824Y004147D01*
X022885Y004268D02*
X022885Y004454D01*
X022824Y004515D01*
X022700Y004454D02*
X022638Y004515D01*
X022577Y004515D01*
X022515Y004454D01*
X022515Y004268D01*
X022885Y004268D01*
X022700Y005742D02*
X022700Y005865D01*
X022515Y006233D02*
X022885Y006233D01*
X024985Y009793D02*
X024923Y009854D01*
X024923Y010101D01*
X024985Y010163D01*
X025170Y010163D01*
X025170Y009793D01*
X024985Y009793D01*
X025292Y009854D02*
X025292Y010101D01*
X025353Y010163D01*
X025477Y010163D01*
X025539Y010101D01*
X025539Y009854D01*
X025477Y009793D01*
X025353Y009793D01*
X025292Y009854D01*
X025660Y009793D02*
X025660Y010163D01*
X025783Y010039D01*
X025907Y010163D01*
X025907Y009793D01*
X026028Y009854D02*
X026028Y010163D01*
X026275Y010163D02*
X026275Y009854D01*
X026213Y009793D01*
X026090Y009793D01*
X026028Y009854D01*
X016385Y007347D02*
X016385Y007223D01*
X016324Y007162D01*
X016200Y007285D02*
X016200Y007347D01*
X016138Y007409D01*
X016077Y007409D01*
X016200Y007347D02*
X016262Y007409D01*
X016324Y007409D01*
X016385Y007347D01*
X013412Y002035D02*
X013288Y002035D01*
X013350Y002035D02*
X013350Y001727D01*
X013412Y001665D01*
X013473Y001665D01*
X013535Y001727D01*
X013167Y001727D02*
X013167Y001974D01*
X013105Y002035D01*
X012982Y002035D01*
X012920Y001974D01*
X012798Y001912D02*
X012798Y001665D01*
X012920Y001727D02*
X012982Y001665D01*
X013105Y001665D01*
X013167Y001727D01*
X012798Y001850D02*
X012551Y001850D01*
X012551Y001912D02*
X012551Y001665D01*
X012430Y001665D02*
X012430Y002035D01*
X012183Y001665D01*
X012183Y002035D01*
X012551Y001912D02*
X012675Y002035D01*
X012798Y001912D01*
X006304Y003108D02*
X006242Y003046D01*
X006180Y003046D01*
X006118Y003108D01*
X006118Y003416D01*
X006057Y003416D02*
X006180Y003416D01*
X005935Y003416D02*
X005750Y003416D01*
X005688Y003355D01*
X005688Y003293D01*
X005750Y003231D01*
X005935Y003231D01*
X005935Y003046D02*
X005935Y003416D01*
X005750Y003231D02*
X005688Y003170D01*
X005688Y003108D01*
X005750Y003046D01*
X005935Y003046D01*
X005567Y003046D02*
X005567Y003293D01*
X005443Y003416D01*
X005320Y003293D01*
X005320Y003046D01*
X005320Y003231D02*
X005567Y003231D01*
X005199Y003416D02*
X004952Y003416D01*
X005075Y003416D02*
X005075Y003046D01*
D12*
X015690Y002453D02*
X016050Y002453D01*
X016050Y002213D02*
X015690Y002213D01*
X015690Y002085D02*
X015930Y002085D01*
X016050Y001965D01*
X015930Y001845D01*
X015690Y001845D01*
X015750Y001717D02*
X015690Y001657D01*
X015690Y001537D01*
X015750Y001477D01*
X015990Y001477D01*
X016050Y001537D01*
X016050Y001657D01*
X015990Y001717D01*
X015870Y001845D02*
X015870Y002085D01*
X016050Y002213D02*
X015690Y002453D01*
X015870Y001349D02*
X015810Y001288D01*
X015810Y001108D01*
X015690Y001108D02*
X016050Y001108D01*
X016050Y001288D01*
X015990Y001349D01*
X015870Y001349D01*
X016050Y000980D02*
X016050Y000860D01*
X016050Y000920D02*
X015750Y000920D01*
X015690Y000860D01*
X015690Y000800D01*
X015750Y000740D01*
X020377Y008679D02*
X020617Y008679D01*
X020497Y008679D02*
X020497Y009040D01*
X020617Y008920D01*
X020745Y009040D02*
X020986Y008679D01*
X020745Y008679D02*
X020986Y009040D01*
D13*
X003681Y000666D02*
X003681Y000469D01*
X007619Y000469D01*
X007619Y000666D01*
X003681Y000666D01*
X003681Y002831D01*
X007619Y002831D01*
X007619Y000666D01*
X009850Y000950D02*
X009850Y001350D01*
X010050Y001550D01*
X010450Y001550D01*
X010650Y001350D01*
X010850Y001350D01*
X011050Y001550D01*
X011450Y001550D01*
X011650Y001350D01*
X011850Y001350D01*
X012050Y001550D01*
X012450Y001550D01*
X012650Y001350D01*
X012850Y001350D01*
X012850Y001550D01*
X013650Y001550D01*
X013650Y000750D01*
X012850Y000750D01*
X012850Y000950D01*
X012650Y000950D01*
X012450Y000750D01*
X012050Y000750D01*
X011850Y000950D01*
X011650Y000950D01*
X011450Y000750D01*
X011050Y000750D01*
X010850Y000950D01*
X010650Y000950D01*
X010450Y000750D01*
X010050Y000750D01*
X009850Y000950D01*
X025117Y008256D02*
X025983Y008256D01*
X025983Y009044D01*
X025117Y009044D01*
X025117Y008256D01*
X025156Y008374D02*
X025158Y008392D01*
X025164Y008408D01*
X025173Y008423D01*
X025186Y008436D01*
X025201Y008445D01*
X025217Y008451D01*
X025235Y008453D01*
X025253Y008451D01*
X025269Y008445D01*
X025284Y008436D01*
X025297Y008423D01*
X025306Y008408D01*
X025312Y008392D01*
X025314Y008374D01*
X025312Y008356D01*
X025306Y008340D01*
X025297Y008325D01*
X025284Y008312D01*
X025269Y008303D01*
X025253Y008297D01*
X025235Y008295D01*
X025217Y008297D01*
X025201Y008303D01*
X025186Y008312D01*
X025173Y008325D01*
X025164Y008340D01*
X025158Y008356D01*
X025156Y008374D01*
X033822Y012678D02*
X034767Y012678D01*
X034767Y012874D01*
X034334Y013032D02*
X034334Y013268D01*
X034020Y013150D02*
X034022Y013180D01*
X034028Y013210D01*
X034037Y013239D01*
X034050Y013266D01*
X034067Y013291D01*
X034086Y013314D01*
X034109Y013335D01*
X034134Y013352D01*
X034160Y013366D01*
X034189Y013376D01*
X034218Y013383D01*
X034248Y013386D01*
X034279Y013385D01*
X034309Y013380D01*
X034338Y013371D01*
X034365Y013359D01*
X034391Y013344D01*
X034415Y013325D01*
X034436Y013303D01*
X034454Y013279D01*
X034469Y013252D01*
X034480Y013224D01*
X034488Y013195D01*
X034492Y013165D01*
X034492Y013135D01*
X034488Y013105D01*
X034480Y013076D01*
X034469Y013048D01*
X034454Y013021D01*
X034436Y012997D01*
X034415Y012975D01*
X034391Y012956D01*
X034365Y012941D01*
X034338Y012929D01*
X034309Y012920D01*
X034279Y012915D01*
X034248Y012914D01*
X034218Y012917D01*
X034189Y012924D01*
X034160Y012934D01*
X034134Y012948D01*
X034109Y012965D01*
X034086Y012986D01*
X034067Y013009D01*
X034050Y013034D01*
X034037Y013061D01*
X034028Y013090D01*
X034022Y013120D01*
X034020Y013150D01*
X034177Y013268D02*
X034177Y013032D01*
X033822Y013111D02*
X033822Y013189D01*
X033822Y013622D02*
X034767Y013622D01*
X034767Y013426D01*
X036111Y014037D02*
X036111Y012463D01*
X038079Y012463D01*
X038079Y014037D01*
X036111Y014037D01*
X036209Y013841D02*
X036211Y013860D01*
X036216Y013879D01*
X036226Y013895D01*
X036238Y013910D01*
X036253Y013922D01*
X036269Y013932D01*
X036288Y013937D01*
X036307Y013939D01*
X036326Y013937D01*
X036345Y013932D01*
X036361Y013922D01*
X036376Y013910D01*
X036388Y013895D01*
X036398Y013879D01*
X036403Y013860D01*
X036405Y013841D01*
X036403Y013822D01*
X036398Y013803D01*
X036388Y013787D01*
X036376Y013772D01*
X036361Y013760D01*
X036345Y013750D01*
X036326Y013745D01*
X036307Y013743D01*
X036288Y013745D01*
X036269Y013750D01*
X036253Y013760D01*
X036238Y013772D01*
X036226Y013787D01*
X036216Y013803D01*
X036211Y013822D01*
X036209Y013841D01*
X036056Y010859D02*
X034323Y010859D01*
X034323Y010426D01*
X034323Y009559D02*
X034323Y009126D01*
X036056Y009126D01*
X036056Y009559D01*
X035898Y009697D02*
X035898Y010288D01*
X036056Y010426D02*
X036056Y010859D01*
X036056Y006922D02*
X034323Y006922D01*
X034323Y006489D01*
X034323Y005622D02*
X034323Y005189D01*
X036056Y005189D01*
X036056Y005622D01*
X035898Y005760D02*
X035898Y006351D01*
X036056Y006489D02*
X036056Y006922D01*
X035928Y020860D02*
X036067Y020999D01*
X035928Y020860D02*
X035789Y020999D01*
X034954Y021834D02*
X034814Y021974D01*
X034954Y022113D01*
X035789Y022948D02*
X035928Y023087D01*
X036067Y022948D01*
X036039Y023157D02*
X036041Y023176D01*
X036046Y023195D01*
X036056Y023211D01*
X036068Y023226D01*
X036083Y023238D01*
X036099Y023248D01*
X036118Y023253D01*
X036137Y023255D01*
X036156Y023253D01*
X036175Y023248D01*
X036191Y023238D01*
X036206Y023226D01*
X036218Y023211D01*
X036228Y023195D01*
X036233Y023176D01*
X036235Y023157D01*
X036233Y023138D01*
X036228Y023119D01*
X036218Y023103D01*
X036206Y023088D01*
X036191Y023076D01*
X036175Y023066D01*
X036156Y023061D01*
X036137Y023059D01*
X036118Y023061D01*
X036099Y023066D01*
X036083Y023076D01*
X036068Y023088D01*
X036056Y023103D01*
X036046Y023119D01*
X036041Y023138D01*
X036039Y023157D01*
X036902Y022113D02*
X037042Y021974D01*
X036902Y021834D01*
X034205Y029087D02*
X033418Y029087D01*
X033418Y030662D02*
X034205Y030662D01*
D14*
X039416Y024867D03*
X039416Y024385D03*
X039416Y023904D03*
X039416Y021423D03*
X039416Y020942D03*
X039416Y020461D03*
X039416Y019980D03*
X036795Y015250D03*
X035495Y015250D03*
X035495Y014650D03*
X034395Y013950D03*
D15*
X037537Y022161D02*
X037695Y022161D01*
X037695Y022673D01*
X038246Y022673D01*
X037695Y022673D02*
X037537Y022673D01*
X037695Y022161D02*
X038246Y022161D01*
X020870Y003949D02*
X020516Y003949D01*
X021146Y002965D02*
X021146Y002138D01*
X018784Y003949D02*
X018430Y003949D01*
X018154Y002965D02*
X018154Y002138D01*
X015550Y001900D02*
X015550Y002400D01*
X015300Y002650D01*
X014800Y002650D01*
X014550Y002400D01*
X014550Y001900D01*
X014800Y001650D01*
X014550Y001400D01*
X014550Y000900D01*
X014800Y000650D01*
X015300Y000650D01*
X015550Y000900D01*
X015550Y001400D01*
X015300Y001650D01*
X015550Y001900D01*
D16*
X033895Y011850D03*
X035695Y013250D03*
D17*
X034607Y011850D02*
X034583Y011850D01*
X039595Y010962D02*
X039595Y010938D01*
X039595Y009962D02*
X039595Y009938D01*
X035495Y007162D02*
X035495Y007138D01*
D18*
X019915Y008596D02*
X019915Y009304D01*
X017985Y009304D01*
X017985Y008596D01*
X019915Y008596D01*
X017725Y009575D02*
X017725Y009772D01*
X017725Y009575D02*
X017528Y009575D01*
X014772Y009575D02*
X014575Y009575D01*
X014575Y009772D01*
X014059Y009378D02*
X014061Y009403D01*
X014067Y009427D01*
X014076Y009450D01*
X014088Y009471D01*
X014104Y009490D01*
X014123Y009507D01*
X014144Y009520D01*
X014166Y009530D01*
X014190Y009537D01*
X014215Y009540D01*
X014240Y009539D01*
X014264Y009534D01*
X014287Y009526D01*
X014309Y009514D01*
X014329Y009499D01*
X014346Y009481D01*
X014360Y009461D01*
X014371Y009439D01*
X014379Y009415D01*
X014383Y009390D01*
X014383Y009366D01*
X014379Y009341D01*
X014371Y009317D01*
X014360Y009295D01*
X014346Y009275D01*
X014329Y009257D01*
X014309Y009242D01*
X014287Y009230D01*
X014264Y009222D01*
X014240Y009217D01*
X014215Y009216D01*
X014190Y009219D01*
X014166Y009226D01*
X014144Y009236D01*
X014123Y009249D01*
X014104Y009266D01*
X014088Y009285D01*
X014076Y009306D01*
X014067Y009329D01*
X014061Y009353D01*
X014059Y009378D01*
X014575Y012528D02*
X014575Y012725D01*
X014772Y012725D01*
X017528Y012725D02*
X017725Y012725D01*
X017725Y012528D01*
D19*
X015820Y013310D02*
X015480Y013310D01*
X015480Y013590D02*
X015820Y013590D01*
X019510Y010820D02*
X019510Y010480D01*
X019790Y010480D02*
X019790Y010820D01*
X019920Y008290D02*
X019580Y008290D01*
X019580Y008010D02*
X019920Y008010D01*
X018520Y008010D02*
X018180Y008010D01*
X018180Y008290D02*
X018520Y008290D01*
X016390Y008420D02*
X016390Y008080D01*
X016110Y008080D02*
X016110Y008420D01*
X022510Y003320D02*
X022510Y002980D01*
X022790Y002980D02*
X022790Y003320D01*
X028380Y016010D02*
X028720Y016010D01*
X028720Y016290D02*
X028380Y016290D01*
D20*
X028300Y016150D03*
X028800Y016150D03*
X020000Y008150D03*
X019500Y008150D03*
X018600Y008150D03*
X018100Y008150D03*
X015900Y013450D03*
X015400Y013450D03*
D21*
X019650Y010900D03*
X019650Y010400D03*
X016250Y008500D03*
X016250Y008000D03*
X022650Y003400D03*
X022650Y002900D03*
D22*
X007230Y030100D03*
X007270Y030220D03*
X007410Y030370D03*
X007620Y030370D03*
X007620Y030360D03*
X007560Y030220D03*
X007540Y030670D03*
X007350Y030690D03*
X007290Y030670D03*
X007230Y030640D03*
X005400Y030220D03*
X005400Y030210D03*
X005400Y030200D03*
X005400Y030190D03*
X005400Y030180D03*
X005400Y030170D03*
X005400Y030150D03*
X005380Y030080D03*
X005270Y030120D03*
X005200Y030120D03*
X005230Y030210D03*
X005180Y030220D03*
X005180Y030240D03*
X005110Y030220D03*
X005120Y030180D03*
X004930Y030300D03*
X004930Y030330D03*
X005330Y030370D03*
X005350Y030370D03*
D23*
X005340Y030360D03*
X005380Y030280D03*
X005360Y030230D03*
X005380Y030110D03*
X005380Y030090D03*
X005230Y030220D03*
X005090Y030180D03*
X005020Y030170D03*
X004930Y030380D03*
X004680Y030650D03*
X004670Y030670D03*
X005310Y030470D03*
X005310Y030460D03*
X005310Y030450D03*
X006250Y030450D03*
X006250Y030440D03*
X006250Y030430D03*
X006250Y030420D03*
X006250Y030410D03*
X006250Y030400D03*
X006250Y030390D03*
X006250Y030380D03*
X006250Y030310D03*
X006250Y030300D03*
X006250Y030290D03*
X006250Y030280D03*
X006250Y030270D03*
X006250Y030260D03*
X006250Y030250D03*
X006250Y030240D03*
X006250Y030230D03*
X006250Y030220D03*
X006250Y030210D03*
X006250Y030200D03*
X006250Y030190D03*
X006250Y030180D03*
X006250Y030170D03*
X006250Y030460D03*
X006250Y030470D03*
X006250Y030480D03*
X006250Y030490D03*
X006250Y030500D03*
X006250Y030510D03*
X006250Y030520D03*
X006250Y030530D03*
X006250Y030540D03*
X006250Y030550D03*
X006250Y030560D03*
X006510Y030580D03*
X006510Y030590D03*
X007230Y030630D03*
X007410Y030690D03*
X007480Y030680D03*
X007540Y030660D03*
X007640Y030590D03*
X007680Y030540D03*
X007350Y030050D03*
D24*
X007285Y030070D03*
X007475Y030050D03*
X007535Y030070D03*
X007595Y030100D03*
X007205Y030370D03*
X007145Y030540D03*
X007185Y030590D03*
X007475Y030690D03*
X006505Y030210D03*
X006505Y030200D03*
X006505Y030190D03*
X006505Y030180D03*
X006505Y030170D03*
X006505Y030160D03*
X006505Y030150D03*
X006505Y030140D03*
X006475Y030170D03*
X006475Y030180D03*
X006475Y030190D03*
X006475Y030200D03*
X006475Y030210D03*
X006425Y030280D03*
X006425Y030290D03*
X006425Y030300D03*
X006425Y030310D03*
X006425Y030320D03*
X006425Y030330D03*
X006425Y030340D03*
X006425Y030350D03*
X006425Y030360D03*
X006425Y030370D03*
X006425Y030380D03*
X006425Y030390D03*
X006425Y030400D03*
X006425Y030410D03*
X006395Y030410D03*
X006395Y030400D03*
X006395Y030390D03*
X006395Y030380D03*
X006395Y030310D03*
X006395Y030300D03*
X006395Y030290D03*
X006395Y030280D03*
X006135Y030280D03*
X006135Y030270D03*
X006135Y030260D03*
X006135Y030250D03*
X006135Y030240D03*
X006135Y030230D03*
X006135Y030220D03*
X006135Y030210D03*
X006135Y030200D03*
X006135Y030190D03*
X006135Y030180D03*
X006135Y030170D03*
X006075Y030140D03*
X006135Y030290D03*
X006135Y030300D03*
X006135Y030310D03*
X006135Y030320D03*
X006135Y030330D03*
X006135Y030340D03*
X006135Y030350D03*
X006135Y030360D03*
X006135Y030370D03*
X006135Y030380D03*
X006135Y030390D03*
X006135Y030400D03*
X006135Y030410D03*
X006135Y030420D03*
X006135Y030430D03*
X006135Y030440D03*
X006135Y030450D03*
X006135Y030460D03*
X006135Y030470D03*
X006135Y030480D03*
X006135Y030490D03*
X006135Y030500D03*
X006135Y030510D03*
X006135Y030520D03*
X006135Y030530D03*
X006135Y030540D03*
X006135Y030550D03*
X006135Y030560D03*
X006135Y030570D03*
X005395Y030230D03*
X005335Y030350D03*
X005235Y030240D03*
X005145Y030200D03*
X005155Y030180D03*
X004975Y030170D03*
X004965Y030180D03*
X004925Y030340D03*
X004925Y030350D03*
X004925Y030360D03*
X004925Y030370D03*
X004925Y030390D03*
D25*
X004975Y030370D03*
X004975Y030360D03*
X004975Y030350D03*
X004975Y030340D03*
X004975Y030330D03*
X005045Y030350D03*
X005045Y030360D03*
X005145Y030190D03*
X005235Y030230D03*
X005355Y030220D03*
X005355Y030210D03*
X005385Y030100D03*
X005315Y030480D03*
X005315Y030490D03*
X005315Y030500D03*
X005315Y030510D03*
X005315Y030520D03*
X005315Y030530D03*
X004685Y030630D03*
X004685Y030640D03*
X004675Y030660D03*
X007285Y030660D03*
X007345Y030680D03*
X007415Y030680D03*
X007475Y030670D03*
X007595Y030630D03*
X007595Y030110D03*
X007535Y030080D03*
X007475Y030070D03*
X007475Y030060D03*
X007415Y030060D03*
X007415Y030050D03*
X007345Y030060D03*
X007285Y030080D03*
X007235Y030110D03*
D26*
X007350Y030070D03*
X007410Y030070D03*
X007140Y030360D03*
X007140Y030370D03*
X007350Y030670D03*
X007410Y030670D03*
X007690Y030380D03*
X007690Y030370D03*
X007690Y030360D03*
X008080Y030240D03*
X008080Y030230D03*
X008080Y030220D03*
X008080Y030210D03*
X008080Y030200D03*
X008080Y030190D03*
X008080Y030180D03*
X008080Y030170D03*
X006490Y030220D03*
X006490Y030230D03*
X006410Y030260D03*
X006410Y030270D03*
X006410Y030420D03*
X006410Y030430D03*
X005380Y030270D03*
X005380Y030260D03*
X005350Y030200D03*
X005310Y030120D03*
X005090Y030190D03*
X005050Y030340D03*
X005040Y030370D03*
X005040Y030380D03*
X004980Y030380D03*
X004980Y030390D03*
X004980Y030300D03*
X004690Y030620D03*
D27*
X005200Y030620D03*
X005330Y030380D03*
X005860Y030170D03*
X006320Y030320D03*
X006320Y030330D03*
X006320Y030370D03*
X006970Y030380D03*
X006990Y030550D03*
X007300Y030610D03*
X007410Y030660D03*
X007530Y030610D03*
X007300Y030130D03*
X007410Y030080D03*
X006960Y030170D03*
D28*
X007410Y030100D03*
X007410Y030090D03*
X007570Y030290D03*
X007410Y030630D03*
X007410Y030640D03*
X007410Y030650D03*
X006380Y030570D03*
D29*
X006785Y030130D03*
X007415Y030620D03*
D30*
X007260Y030290D03*
X004560Y030600D03*
X004560Y030610D03*
D31*
X004535Y030590D03*
X004535Y030580D03*
X004535Y030160D03*
X004535Y030150D03*
X004535Y030140D03*
X004535Y030130D03*
X004535Y030120D03*
X005205Y030610D03*
X007225Y030320D03*
X007245Y030440D03*
X007575Y030440D03*
X007605Y030320D03*
X007855Y030580D03*
X007855Y030590D03*
X007855Y030600D03*
X007855Y030610D03*
D32*
X005630Y030610D03*
X005630Y030600D03*
X005630Y030590D03*
X005630Y030580D03*
D33*
X005955Y030600D03*
X005955Y030610D03*
X006975Y030560D03*
X006935Y030320D03*
X007305Y030120D03*
D34*
X006295Y030600D03*
X006295Y030610D03*
D35*
X006775Y030610D03*
D36*
X007175Y030530D03*
X007175Y030520D03*
X007185Y030490D03*
X007135Y030410D03*
X007135Y030330D03*
X007185Y030250D03*
X007175Y030220D03*
X007175Y030210D03*
X007325Y030180D03*
X007285Y030340D03*
X007535Y030340D03*
X007535Y030350D03*
X007535Y030390D03*
X007535Y030400D03*
X007655Y030520D03*
X007695Y030330D03*
X007655Y030220D03*
X007655Y030210D03*
X007645Y030200D03*
X005285Y030400D03*
X005105Y030600D03*
D37*
X005110Y030580D03*
X005270Y030600D03*
X005330Y030420D03*
X005330Y030410D03*
X005330Y030390D03*
X005950Y030580D03*
X005950Y030590D03*
D38*
X005700Y030140D03*
X006790Y030600D03*
D39*
X006995Y030540D03*
X007005Y030530D03*
X007015Y030500D03*
X006995Y030400D03*
X006985Y030390D03*
X007295Y030590D03*
X007295Y030600D03*
X007525Y030600D03*
X007535Y030590D03*
X007295Y030140D03*
X006325Y030340D03*
X006325Y030360D03*
X005815Y030400D03*
X005095Y030160D03*
X005005Y030250D03*
X005005Y030260D03*
X004995Y030400D03*
D40*
X005215Y030590D03*
X005205Y030150D03*
X006825Y030330D03*
D41*
X007125Y030390D03*
X007185Y030500D03*
X007335Y030550D03*
X007345Y030540D03*
X007535Y030380D03*
X007535Y030360D03*
X007695Y030350D03*
X007695Y030390D03*
X007615Y030180D03*
X007335Y030190D03*
X007215Y030180D03*
X007185Y030240D03*
X006105Y030160D03*
X006105Y030150D03*
X005385Y030400D03*
X005385Y030500D03*
X005385Y030510D03*
X005385Y030520D03*
X005385Y030530D03*
X004965Y030310D03*
X004965Y030290D03*
X005325Y030170D03*
X006105Y030580D03*
X006105Y030590D03*
D42*
X006805Y030590D03*
D43*
X007265Y030580D03*
X007275Y030560D03*
X007555Y030560D03*
X007265Y030160D03*
X005315Y030580D03*
D44*
X006365Y030580D03*
X007235Y030310D03*
X007415Y030260D03*
X007585Y030310D03*
X007585Y030430D03*
X007415Y030480D03*
D45*
X006810Y030580D03*
X006810Y030160D03*
X006290Y030130D03*
X006290Y030120D03*
D46*
X006930Y030370D03*
X007270Y030170D03*
X007270Y030150D03*
X007410Y030210D03*
X007410Y030220D03*
X007410Y030230D03*
X007410Y030240D03*
X007560Y030170D03*
X007410Y030500D03*
X007410Y030510D03*
X007410Y030520D03*
X007410Y030530D03*
X007270Y030570D03*
X007560Y030570D03*
X007560Y030580D03*
D47*
X006710Y030570D03*
X006710Y030560D03*
X006710Y030550D03*
X006710Y030540D03*
X006710Y030530D03*
X006710Y030520D03*
X006710Y030510D03*
X006710Y030500D03*
X006710Y030490D03*
X006710Y030480D03*
X006710Y030470D03*
X006710Y030460D03*
X006710Y030450D03*
X006710Y030440D03*
X006710Y030430D03*
X006710Y030420D03*
X006710Y030410D03*
X006710Y030400D03*
X006710Y030390D03*
X006710Y030380D03*
X006710Y030370D03*
X006710Y030320D03*
X006710Y030310D03*
X006710Y030300D03*
X006710Y030290D03*
X006710Y030280D03*
X006710Y030270D03*
X006710Y030260D03*
X006710Y030250D03*
X006710Y030240D03*
X006710Y030230D03*
X006710Y030220D03*
X006710Y030210D03*
X006710Y030200D03*
X006710Y030190D03*
X006710Y030180D03*
X006710Y030170D03*
X005630Y030170D03*
X005630Y030180D03*
X005630Y030190D03*
X005630Y030200D03*
X005630Y030210D03*
X005630Y030220D03*
X005630Y030230D03*
X005630Y030240D03*
X005630Y030250D03*
X005630Y030260D03*
X005630Y030270D03*
X005630Y030280D03*
X005630Y030290D03*
X005630Y030300D03*
X005630Y030310D03*
X005630Y030320D03*
X005630Y030330D03*
X005630Y030340D03*
X005630Y030400D03*
X005630Y030410D03*
X005630Y030420D03*
X005630Y030430D03*
X005630Y030440D03*
X005630Y030450D03*
X005630Y030460D03*
X005630Y030470D03*
X005630Y030480D03*
X005630Y030490D03*
X005630Y030500D03*
X005630Y030510D03*
X005630Y030520D03*
X005630Y030530D03*
X005630Y030540D03*
X005630Y030550D03*
X005630Y030560D03*
X005630Y030570D03*
X005360Y030560D03*
X005360Y030550D03*
X005360Y030540D03*
X005360Y030440D03*
X005360Y030430D03*
X005050Y030550D03*
X005040Y030540D03*
X005020Y030230D03*
X004530Y030230D03*
X004530Y030220D03*
X004530Y030210D03*
X004530Y030200D03*
X004530Y030190D03*
X004530Y030180D03*
X004530Y030170D03*
X004530Y030240D03*
X004530Y030250D03*
X004530Y030260D03*
X004530Y030270D03*
X004530Y030280D03*
X004530Y030290D03*
X004530Y030300D03*
X004530Y030310D03*
X004530Y030320D03*
X004530Y030330D03*
X004530Y030340D03*
X004530Y030350D03*
X004530Y030360D03*
X004530Y030370D03*
X004530Y030380D03*
X004530Y030390D03*
X004530Y030400D03*
X004530Y030410D03*
X004530Y030420D03*
X004530Y030430D03*
X004530Y030440D03*
X004530Y030450D03*
X004530Y030460D03*
X004530Y030470D03*
X004530Y030480D03*
X004530Y030490D03*
X004530Y030500D03*
X004530Y030510D03*
X004530Y030520D03*
X004530Y030530D03*
X004530Y030540D03*
X004530Y030550D03*
X004530Y030560D03*
X004530Y030570D03*
D48*
X005005Y030470D03*
X005005Y030460D03*
X005015Y030490D03*
X005015Y030500D03*
X005025Y030510D03*
X005025Y030520D03*
X005035Y030530D03*
X005065Y030560D03*
X005075Y030570D03*
X005025Y030220D03*
X005035Y030210D03*
X005035Y030200D03*
X005845Y030430D03*
X005855Y030450D03*
X005865Y030470D03*
X005875Y030480D03*
X005875Y030490D03*
X005885Y030500D03*
X005885Y030510D03*
X005895Y030520D03*
X005895Y030530D03*
X005905Y030540D03*
X005905Y030550D03*
X005915Y030560D03*
X005875Y030320D03*
X005885Y030310D03*
X005895Y030300D03*
X005895Y030290D03*
X005895Y030280D03*
X005895Y030270D03*
X005895Y030260D03*
X005895Y030250D03*
X005895Y030240D03*
X005895Y030230D03*
X005895Y030220D03*
X005895Y030210D03*
X005885Y030200D03*
X006975Y030300D03*
X006985Y030290D03*
X006985Y030280D03*
X006995Y030270D03*
X006995Y030260D03*
X006995Y030250D03*
X006995Y030240D03*
X006995Y030230D03*
X006995Y030220D03*
X006995Y030210D03*
X006985Y030200D03*
X007175Y030260D03*
X007175Y030480D03*
X007655Y030480D03*
X007855Y030480D03*
X007855Y030470D03*
X007855Y030460D03*
X007855Y030450D03*
X007855Y030440D03*
X007855Y030430D03*
X007855Y030420D03*
X007855Y030410D03*
X007855Y030400D03*
X007855Y030390D03*
X007855Y030380D03*
X007855Y030370D03*
X007855Y030360D03*
X007855Y030350D03*
X007855Y030340D03*
X007855Y030330D03*
X007855Y030320D03*
X007855Y030310D03*
X007855Y030300D03*
X007855Y030290D03*
X007855Y030280D03*
X007855Y030270D03*
X007855Y030260D03*
X007855Y030250D03*
X007855Y030240D03*
X007855Y030230D03*
X007855Y030220D03*
X007855Y030210D03*
X007855Y030200D03*
X007855Y030190D03*
X007855Y030180D03*
X007855Y030170D03*
X007655Y030260D03*
X007855Y030490D03*
X007855Y030500D03*
X007855Y030510D03*
X007855Y030520D03*
X007855Y030530D03*
X007855Y030540D03*
X007855Y030550D03*
X007855Y030560D03*
X007855Y030570D03*
D49*
X007020Y030490D03*
X007020Y030480D03*
X007020Y030450D03*
X007010Y030440D03*
X007010Y030430D03*
X007010Y030420D03*
X007000Y030410D03*
X007010Y030510D03*
X007010Y030520D03*
X006960Y030310D03*
X006980Y030190D03*
X006970Y030180D03*
X005880Y030190D03*
X005870Y030180D03*
X005870Y030330D03*
X005860Y030340D03*
X005830Y030410D03*
X005840Y030420D03*
X005850Y030440D03*
X005860Y030460D03*
X005920Y030570D03*
X005350Y030570D03*
X005010Y030480D03*
X005000Y030450D03*
X005000Y030440D03*
X005000Y030430D03*
X005000Y030420D03*
X005000Y030410D03*
X005000Y030320D03*
X005000Y030280D03*
X005000Y030270D03*
X005010Y030240D03*
X005330Y030160D03*
D50*
X006360Y030150D03*
X006940Y030570D03*
X007410Y030250D03*
D51*
X007205Y030190D03*
X007135Y030380D03*
X007195Y030540D03*
X007205Y030550D03*
X007625Y030540D03*
X006495Y030540D03*
X006495Y030530D03*
X006495Y030520D03*
X006495Y030510D03*
X006495Y030500D03*
X006495Y030550D03*
X006495Y030560D03*
X005375Y030250D03*
X005375Y030240D03*
X005345Y030190D03*
X005315Y030130D03*
X005045Y030290D03*
X005045Y030300D03*
X005045Y030310D03*
X005045Y030330D03*
X005045Y030390D03*
X004985Y030190D03*
D52*
X005110Y030170D03*
X005140Y030120D03*
X005190Y030110D03*
X007130Y030340D03*
X007130Y030400D03*
X007180Y030510D03*
X007290Y030390D03*
X007290Y030380D03*
X007290Y030370D03*
X007290Y030360D03*
X007290Y030350D03*
X007350Y030200D03*
X007480Y030200D03*
X007490Y030190D03*
X007500Y030180D03*
X007640Y030240D03*
X007640Y030250D03*
X007650Y030230D03*
X007700Y030340D03*
X007700Y030400D03*
X007640Y030490D03*
X007640Y030500D03*
X007650Y030510D03*
X007650Y030530D03*
X007490Y030550D03*
X007480Y030540D03*
X007530Y030370D03*
X007180Y030230D03*
X007180Y030200D03*
D53*
X007130Y030350D03*
X007620Y030190D03*
X007620Y030550D03*
X005390Y030490D03*
X005390Y030480D03*
X005390Y030470D03*
X005390Y030460D03*
X005390Y030450D03*
X005340Y030180D03*
D54*
X007415Y030490D03*
D55*
X007335Y030470D03*
X007335Y030460D03*
D56*
X007410Y030450D03*
D57*
X007240Y030430D03*
X007230Y030420D03*
X007250Y030300D03*
X007580Y030300D03*
X007600Y030420D03*
X006360Y030160D03*
D58*
X007285Y030330D03*
X007285Y030410D03*
X007545Y030410D03*
D59*
X007540Y030330D03*
X007690Y030410D03*
X007290Y030400D03*
X005120Y030130D03*
D60*
X005725Y030390D03*
D61*
X005715Y030380D03*
X005715Y030370D03*
X007415Y030110D03*
D62*
X006810Y030340D03*
X005730Y030360D03*
D63*
X006830Y030360D03*
D64*
X006820Y030350D03*
X006760Y030120D03*
X005740Y030350D03*
D65*
X007410Y030280D03*
X007410Y030270D03*
D66*
X006800Y030150D03*
X005720Y030160D03*
D67*
X007780Y030160D03*
X007780Y030150D03*
X007780Y030140D03*
D68*
X006795Y030140D03*
X005705Y030150D03*
D69*
X005675Y030120D03*
X005215Y030140D03*
D70*
X005690Y030130D03*
D71*
X007775Y030130D03*
D72*
X007765Y030120D03*
M02*
