G75*
G70*
%OFA0B0*%
%FSLAX24Y24*%
%IPPOS*%
%LPD*%
%AMOC8*
5,1,8,0,0,1.08239X$1,22.5*
%
%ADD10C,0.0867*%
%ADD11C,0.1261*%
%ADD12C,0.1655*%
%ADD13C,0.3230*%
%ADD14C,0.0240*%
%ADD15C,0.0820*%
%ADD16R,0.0328X0.0407*%
%ADD17R,0.0474X0.0513*%
%ADD18R,0.1064X0.0552*%
%ADD19C,0.0158*%
%ADD20R,0.0560X0.0960*%
%ADD21R,0.1497X0.0946*%
%ADD22R,0.0552X0.1064*%
%ADD23R,0.0513X0.0474*%
%ADD24C,0.0480*%
%ADD25R,0.0580X0.0340*%
%ADD26R,0.0395X0.0395*%
%ADD27R,0.0237X0.0513*%
%ADD28R,0.0340X0.0880*%
%ADD29R,0.1064X0.0749*%
%ADD30R,0.0740X0.0740*%
%ADD31OC8,0.0740*%
%ADD32R,0.0674X0.0674*%
%ADD33OC8,0.0674*%
%ADD34R,0.0316X0.0946*%
%ADD35R,0.0395X0.0474*%
%ADD36R,0.0217X0.0630*%
%ADD37R,0.0474X0.0395*%
%ADD38C,0.0434*%
%ADD39R,0.0297X0.0552*%
%ADD40R,0.0336X0.0946*%
%ADD41OC8,0.1261*%
%ADD42R,0.0474X0.0190*%
%ADD43R,0.0190X0.0474*%
%ADD44R,0.1025X0.1025*%
%ADD45R,0.0592X0.0946*%
%ADD46R,0.0434X0.0356*%
%ADD47R,0.0356X0.0434*%
%ADD48C,0.1080*%
%ADD49R,0.0474X0.0356*%
%ADD50C,0.0476*%
%ADD51OC8,0.0476*%
D10*
X034008Y018260D03*
X040307Y018260D03*
X040307Y026528D03*
X039126Y029874D03*
X034008Y026528D03*
D11*
X034008Y015111D03*
X034008Y000937D03*
D12*
X001725Y001725D03*
X030071Y001725D03*
X030071Y030071D03*
X001725Y030071D03*
D13*
X015898Y015898D03*
D14*
X009950Y015950D02*
X009950Y023050D01*
X010450Y027050D02*
X010450Y031350D01*
X009950Y015950D02*
X000550Y015950D01*
D15*
X015050Y002220D03*
X015050Y001080D03*
X035300Y018260D03*
X036440Y018260D03*
X037875Y018260D03*
X039015Y018260D03*
X039015Y026528D03*
X037875Y026528D03*
X036440Y026528D03*
X035300Y026528D03*
D16*
X036621Y021515D03*
X037526Y021515D03*
X038670Y019816D03*
X038642Y019173D03*
X039548Y019173D03*
X039576Y019816D03*
X035601Y019916D03*
X035603Y019185D03*
X034697Y019185D03*
X034696Y019916D03*
D17*
X034871Y020642D03*
X035782Y020533D03*
X035782Y021202D03*
X034871Y021311D03*
X033966Y022067D03*
X033966Y022736D03*
X033981Y024534D03*
X033981Y025204D03*
X034900Y025204D03*
X034900Y024534D03*
X038727Y021386D03*
X038727Y020717D03*
X039494Y020760D03*
X039494Y021429D03*
X035795Y013285D03*
X035795Y012615D03*
X034495Y010785D03*
X033895Y010785D03*
X033895Y010115D03*
X034495Y010115D03*
X034495Y008785D03*
X033895Y008785D03*
X033895Y008115D03*
X034495Y008115D03*
X036595Y008285D03*
X037195Y008285D03*
X037195Y007615D03*
X036595Y007615D03*
X036995Y006085D03*
X036995Y005415D03*
D18*
X038789Y022406D03*
X038789Y023705D03*
D19*
X038089Y020999D02*
X036199Y020999D01*
X038089Y020999D02*
X038089Y020369D01*
X036199Y020369D01*
X036199Y020999D01*
X036199Y020526D02*
X038089Y020526D01*
X038089Y020683D02*
X036199Y020683D01*
X036199Y020840D02*
X038089Y020840D01*
X038089Y020997D02*
X036199Y020997D01*
X036199Y019542D02*
X038089Y019542D01*
X038089Y018912D01*
X036199Y018912D01*
X036199Y019542D01*
X036199Y019069D02*
X038089Y019069D01*
X038089Y019226D02*
X036199Y019226D01*
X036199Y019383D02*
X038089Y019383D01*
X038089Y019540D02*
X036199Y019540D01*
D20*
X036628Y022391D03*
X037538Y022391D03*
X035718Y022391D03*
D21*
X036628Y024831D03*
D22*
X037962Y025022D03*
X039261Y025022D03*
D23*
X034701Y023336D03*
X034031Y023336D03*
X035060Y011950D03*
X035730Y011950D03*
X034530Y009450D03*
X033860Y009450D03*
X036660Y006950D03*
X037330Y006950D03*
X037960Y006950D03*
X038630Y006950D03*
X038630Y007650D03*
X037960Y007650D03*
X035930Y005750D03*
X035260Y005750D03*
X035260Y004850D03*
X035930Y004850D03*
X035930Y004250D03*
X035260Y004250D03*
X036860Y004250D03*
X037530Y004250D03*
X037530Y004850D03*
X036860Y004850D03*
X036860Y000850D03*
X037530Y000850D03*
X035830Y000850D03*
X035160Y000850D03*
D24*
X034008Y019441D03*
X034008Y019941D03*
X034008Y020441D03*
X034008Y020941D03*
X034008Y021441D03*
X040307Y021441D03*
X040307Y020941D03*
X040307Y020441D03*
X040307Y019941D03*
X040307Y019441D03*
X040307Y023347D03*
X040307Y023847D03*
X040307Y024347D03*
X040307Y024847D03*
X040307Y025347D03*
D25*
X033811Y029284D03*
X033811Y029678D03*
X033811Y030071D03*
X033811Y030465D03*
D26*
X034599Y029973D03*
X035189Y029973D03*
X035780Y029973D03*
X036370Y029973D03*
X036370Y029382D03*
X035780Y029382D03*
X035189Y029382D03*
X034599Y029382D03*
X036961Y029382D03*
X037552Y029382D03*
X038142Y029382D03*
X038142Y029973D03*
X037552Y029973D03*
X036961Y029973D03*
X016250Y030355D03*
X016250Y030945D03*
X015550Y030945D03*
X015550Y030355D03*
X016250Y001445D03*
X016950Y001445D03*
X016950Y000855D03*
X016250Y000855D03*
D27*
X035111Y007164D03*
X035367Y007164D03*
X035623Y007164D03*
X035879Y007164D03*
X035879Y008936D03*
X035623Y008936D03*
X035367Y008936D03*
X035111Y008936D03*
X035211Y003336D03*
X035467Y003336D03*
X035723Y003336D03*
X035979Y003336D03*
X036711Y003336D03*
X036967Y003336D03*
X037223Y003336D03*
X037479Y003336D03*
X037479Y001564D03*
X037223Y001564D03*
X036967Y001564D03*
X036711Y001564D03*
X035979Y001564D03*
X035723Y001564D03*
X035467Y001564D03*
X035211Y001564D03*
D28*
X037295Y009145D03*
X037795Y009145D03*
X038295Y009145D03*
X038795Y009145D03*
X039295Y009145D03*
X039795Y009145D03*
X040295Y009145D03*
X040295Y011755D03*
X039795Y011755D03*
X039295Y011755D03*
X038795Y011755D03*
X038295Y011755D03*
X037795Y011755D03*
X037295Y011755D03*
D29*
X034195Y006898D03*
X034195Y005402D03*
X034195Y003898D03*
X034195Y002402D03*
X038595Y002498D03*
X038595Y001002D03*
X038595Y003902D03*
X038595Y005398D03*
D30*
X030150Y011150D03*
X030150Y017850D03*
X040095Y012930D03*
X002150Y007850D03*
X002150Y005150D03*
D31*
X002150Y006150D03*
X002150Y008850D03*
X002150Y009850D03*
X002150Y010850D03*
X002150Y011850D03*
X002150Y012850D03*
X030150Y013150D03*
X030150Y012150D03*
X030150Y014150D03*
X030150Y015150D03*
X030150Y016150D03*
X030150Y018850D03*
X030150Y019850D03*
X030150Y020850D03*
X030150Y021850D03*
X040095Y014930D03*
X040095Y013930D03*
D32*
X030150Y005150D03*
X040095Y001603D03*
X013250Y001150D03*
D33*
X012250Y001150D03*
X011250Y001150D03*
X010250Y001150D03*
X030150Y006150D03*
X030150Y007150D03*
X030150Y008150D03*
X040095Y004603D03*
X040095Y003603D03*
X040095Y002603D03*
D34*
X012400Y003126D03*
X011900Y003126D03*
X011400Y003126D03*
X010900Y003126D03*
X010900Y005174D03*
X011400Y005174D03*
X011900Y005174D03*
X012400Y005174D03*
D35*
X013450Y004485D03*
X013450Y003815D03*
X016250Y002685D03*
X016950Y002685D03*
X016950Y002015D03*
X016250Y002015D03*
X023750Y002615D03*
X023750Y003285D03*
X028550Y019415D03*
X028550Y020085D03*
X017050Y030315D03*
X017050Y030985D03*
X014850Y030985D03*
X014850Y030315D03*
D36*
X019687Y004089D03*
X019943Y004089D03*
X020198Y004089D03*
X020454Y004089D03*
X020710Y004089D03*
X020966Y004089D03*
X021222Y004089D03*
X021478Y004089D03*
X021734Y004089D03*
X021990Y004089D03*
X022246Y004089D03*
X022502Y004089D03*
X022757Y004089D03*
X023013Y004089D03*
X023013Y001211D03*
X022757Y001211D03*
X022502Y001211D03*
X022246Y001211D03*
X021990Y001211D03*
X021734Y001211D03*
X021478Y001211D03*
X021222Y001211D03*
X020966Y001211D03*
X020710Y001211D03*
X020454Y001211D03*
X020198Y001211D03*
X019943Y001211D03*
X019687Y001211D03*
D37*
X014085Y002250D03*
X013415Y002250D03*
X012085Y006250D03*
X011415Y006250D03*
X009685Y028550D03*
X009015Y028550D03*
X008385Y028550D03*
X007715Y028550D03*
D38*
X018784Y002650D03*
X020516Y002650D03*
D39*
X007024Y004738D03*
X006650Y004738D03*
X006276Y004738D03*
X006276Y005762D03*
X007024Y005762D03*
D40*
X008729Y005098D03*
X008729Y003641D03*
X028171Y013302D03*
X028171Y014759D03*
D41*
X006634Y001650D03*
X004666Y001650D03*
D42*
X008182Y024656D03*
X008182Y024853D03*
X008182Y025050D03*
X008182Y025247D03*
X008182Y025444D03*
X009718Y025444D03*
X009718Y025247D03*
X009718Y025050D03*
X009718Y024853D03*
X009718Y024656D03*
D43*
X009344Y024282D03*
X009147Y024282D03*
X008950Y024282D03*
X008753Y024282D03*
X008556Y024282D03*
X008556Y025818D03*
X008753Y025818D03*
X008950Y025818D03*
X009147Y025818D03*
X009344Y025818D03*
D44*
X008950Y025050D03*
D45*
X009477Y027850D03*
X007823Y027850D03*
D46*
X008650Y027106D03*
X008650Y026594D03*
X007850Y026494D03*
X007850Y027006D03*
X006150Y026606D03*
X006150Y026094D03*
X004350Y026206D03*
X004350Y025694D03*
X004950Y024606D03*
X004950Y024094D03*
X006150Y024206D03*
X006150Y023694D03*
X007550Y023806D03*
X007550Y023294D03*
X008150Y023294D03*
X008150Y023806D03*
X008750Y023406D03*
X009350Y023406D03*
X009350Y022894D03*
X008750Y022894D03*
D47*
X007406Y024850D03*
X006894Y024850D03*
X006894Y025450D03*
X007406Y025450D03*
X006106Y025450D03*
X005594Y025450D03*
X005594Y024850D03*
X006106Y024850D03*
X004906Y025150D03*
X004394Y025150D03*
X009794Y026250D03*
X010306Y026250D03*
X010294Y025250D03*
X010806Y025250D03*
D48*
X003350Y026150D03*
X002350Y025150D03*
X001350Y026150D03*
X001350Y024150D03*
X003350Y024150D03*
D49*
X027738Y008124D03*
X027738Y007750D03*
X027738Y007376D03*
X028762Y007376D03*
X028762Y007750D03*
X028762Y008124D03*
X028762Y006124D03*
X028762Y005750D03*
X028762Y005376D03*
X027738Y005376D03*
X027738Y005750D03*
X027738Y006124D03*
D50*
X028250Y006850D03*
X027150Y007050D03*
X025650Y008050D03*
X025050Y009450D03*
X026550Y009450D03*
X026650Y011350D03*
X029350Y008150D03*
X031050Y009650D03*
X033895Y007550D03*
X034995Y007850D03*
X035995Y007750D03*
X035895Y006650D03*
X035156Y006391D03*
X036395Y005350D03*
X037495Y006150D03*
X040095Y005450D03*
X040095Y006850D03*
X040095Y008150D03*
X038495Y009950D03*
X038595Y010950D03*
X037895Y010850D03*
X036695Y011550D03*
X035995Y011350D03*
X035295Y011350D03*
X034995Y010550D03*
X035095Y009550D03*
X036795Y009150D03*
X040395Y010450D03*
X038795Y012650D03*
X037695Y012950D03*
X037295Y013650D03*
X036395Y013550D03*
X037095Y014750D03*
X037695Y015250D03*
X038795Y014750D03*
X039295Y014250D03*
X033645Y018973D03*
X031050Y017350D03*
X025950Y019450D03*
X023450Y019050D03*
X031050Y021950D03*
X031050Y023950D03*
X031050Y025950D03*
X031050Y027950D03*
X027950Y031050D03*
X025950Y031050D03*
X023950Y031050D03*
X021950Y031050D03*
X019950Y031050D03*
X017950Y031050D03*
X017050Y029550D03*
X014850Y029550D03*
X013950Y031050D03*
X011950Y031050D03*
X009750Y031050D03*
X008750Y031050D03*
X007750Y031050D03*
X006750Y031050D03*
X005750Y031050D03*
X004750Y031050D03*
X003750Y031050D03*
X002750Y031050D03*
X000750Y028450D03*
X000750Y027450D03*
X005250Y028250D03*
X007250Y026750D03*
X008450Y028050D03*
X008850Y027650D03*
X009150Y026950D03*
X010450Y025750D03*
X010850Y026250D03*
X009207Y025278D03*
X009207Y024806D03*
X008696Y024806D03*
X008696Y025278D03*
X007550Y024350D03*
X009850Y023450D03*
X009250Y022250D03*
X009250Y021250D03*
X009250Y020250D03*
X009250Y019250D03*
X009250Y018250D03*
X009250Y017250D03*
X008750Y016450D03*
X008750Y015450D03*
X007750Y015450D03*
X006750Y015450D03*
X006750Y016450D03*
X007750Y016450D03*
X005750Y016450D03*
X004750Y016450D03*
X003750Y016450D03*
X003750Y015450D03*
X004750Y015450D03*
X005750Y015450D03*
X002750Y015450D03*
X001750Y015450D03*
X001750Y016450D03*
X002750Y016450D03*
X000750Y016450D03*
X000750Y015450D03*
X000850Y013550D03*
X000850Y011550D03*
X000850Y009550D03*
X000850Y007550D03*
X000850Y005550D03*
X000850Y003550D03*
X005650Y005250D03*
X006950Y006650D03*
X008050Y006650D03*
X009850Y007350D03*
X010550Y006050D03*
X012650Y007850D03*
X013350Y008250D03*
X012650Y008650D03*
X011950Y009050D03*
X011350Y009450D03*
X010650Y009850D03*
X010350Y010650D03*
X010350Y011250D03*
X010750Y011650D03*
X011150Y012050D03*
X011550Y012450D03*
X014250Y013450D03*
X015250Y012050D03*
X016150Y011150D03*
X017050Y012050D03*
X017050Y010350D03*
X015250Y010350D03*
X015535Y007351D03*
X017550Y005750D03*
X018350Y005050D03*
X019750Y004750D03*
X020350Y005150D03*
X021750Y002650D03*
X022750Y002150D03*
X024050Y000650D03*
X026050Y000650D03*
X028050Y000650D03*
X031050Y003750D03*
X034195Y003150D03*
X034795Y001750D03*
X036345Y001150D03*
X036395Y002150D03*
X037895Y003250D03*
X036395Y003850D03*
X034195Y004650D03*
X029450Y006050D03*
X023650Y007950D03*
X020450Y010850D03*
X018950Y008650D03*
X014950Y005350D03*
X016750Y003750D03*
X017850Y002550D03*
X018950Y001350D03*
X019650Y001950D03*
X020150Y001950D03*
X012250Y004250D03*
X011050Y004250D03*
X009450Y002850D03*
X007950Y002850D03*
X006634Y003505D03*
X008650Y000750D03*
X000750Y017450D03*
X000750Y018450D03*
X000750Y019450D03*
X000750Y020450D03*
X000750Y021450D03*
X000750Y022450D03*
X000750Y023450D03*
X005250Y021250D03*
X015550Y027050D03*
X016250Y027050D03*
X034495Y022673D03*
X034445Y021723D03*
X036245Y023673D03*
X037145Y023073D03*
X034845Y023873D03*
X037145Y026373D03*
X039245Y025823D03*
X040195Y022423D03*
D51*
X037748Y030465D03*
X037158Y030465D03*
X036567Y030465D03*
X035977Y030465D03*
M02*
