G75*
G70*
%OFA0B0*%
%FSLAX24Y24*%
%IPPOS*%
%LPD*%
%AMOC8*
5,1,8,0,0,1.08239X$1,22.5*
%
%ADD10C,0.0020*%
%ADD11C,0.0010*%
%ADD12C,0.0070*%
%ADD13C,0.0050*%
%ADD14C,0.0030*%
%ADD15C,0.0100*%
%ADD16C,0.0080*%
%ADD17C,0.0220*%
%ADD18R,0.0300X0.0180*%
%ADD19C,0.0060*%
%ADD20C,0.0157*%
%ADD21R,0.0180X0.0300*%
%ADD22R,0.0193X0.0433*%
%ADD23R,0.0340X0.0160*%
%ADD24R,0.0160X0.0340*%
%ADD25R,0.0010X0.0010*%
%ADD26R,0.0010X0.0030*%
%ADD27R,0.0010X0.0020*%
%ADD28R,0.0010X0.0040*%
%ADD29R,0.0010X0.0050*%
%ADD30R,0.0010X0.0170*%
%ADD31R,0.0010X0.0290*%
%ADD32R,0.0010X0.0400*%
%ADD33R,0.0010X0.0310*%
%ADD34R,0.0010X0.0260*%
%ADD35R,0.0010X0.0270*%
%ADD36R,0.0010X0.0180*%
%ADD37R,0.0010X0.0460*%
%ADD38R,0.0010X0.0380*%
%ADD39R,0.0010X0.0100*%
%ADD40R,0.0010X0.0190*%
%ADD41R,0.0010X0.0410*%
%ADD42R,0.0010X0.0160*%
%ADD43R,0.0010X0.0360*%
%ADD44R,0.0010X0.0080*%
%ADD45R,0.0010X0.0440*%
%ADD46R,0.0010X0.0200*%
%ADD47R,0.0010X0.0240*%
%ADD48R,0.0010X0.0450*%
%ADD49R,0.0010X0.0210*%
%ADD50R,0.0010X0.0130*%
%ADD51R,0.0010X0.0140*%
%ADD52R,0.0010X0.0150*%
%ADD53R,0.0010X0.0230*%
%ADD54R,0.0010X0.0060*%
%ADD55R,0.0010X0.0090*%
%ADD56R,0.0010X0.0070*%
%ADD57R,0.0010X0.0220*%
%ADD58R,0.0010X0.0780*%
%ADD59R,0.0010X0.0610*%
%ADD60R,0.0010X0.0250*%
%ADD61R,0.0010X0.0120*%
%ADD62R,0.0010X0.0110*%
%ADD63R,0.0010X0.0320*%
%ADD64R,0.0010X0.0300*%
%ADD65R,0.0010X0.0330*%
%ADD66R,0.0010X0.0370*%
%ADD67R,0.0010X0.0350*%
%ADD68R,0.0010X0.0630*%
%ADD69R,0.0010X0.0430*%
%ADD70R,0.0010X0.0650*%
%ADD71R,0.0010X0.0420*%
%ADD72R,0.0010X0.0340*%
%ADD73R,0.0010X0.0390*%
%ADD74R,0.0010X0.0660*%
%ADD75R,0.0010X0.0680*%
%ADD76R,0.0060X0.0010*%
%ADD77R,0.0080X0.0010*%
%ADD78R,0.0100X0.0010*%
%ADD79R,0.0110X0.0010*%
%ADD80R,0.0120X0.0010*%
%ADD81R,0.0130X0.0010*%
%ADD82R,0.0140X0.0010*%
%ADD83R,0.0150X0.0010*%
%ADD84R,0.0160X0.0010*%
%ADD85R,0.0170X0.0010*%
%ADD86R,0.0180X0.0010*%
%ADD87R,0.0190X0.0010*%
%ADD88R,0.0090X0.0010*%
%ADD89R,0.0070X0.0010*%
%ADD90R,0.0030X0.0010*%
%ADD91R,0.0250X0.0010*%
%ADD92R,0.0460X0.0010*%
%ADD93R,0.0530X0.0010*%
%ADD94R,0.0590X0.0010*%
%ADD95R,0.0640X0.0010*%
%ADD96R,0.0690X0.0010*%
%ADD97R,0.0730X0.0010*%
%ADD98R,0.0770X0.0010*%
%ADD99R,0.0200X0.0010*%
%ADD100R,0.0800X0.0010*%
%ADD101R,0.0230X0.0010*%
%ADD102R,0.0830X0.0010*%
%ADD103R,0.0270X0.0010*%
%ADD104R,0.0860X0.0010*%
%ADD105R,0.0280X0.0010*%
%ADD106R,0.0890X0.0010*%
%ADD107R,0.0310X0.0010*%
%ADD108R,0.0870X0.0010*%
%ADD109R,0.0330X0.0010*%
%ADD110R,0.0210X0.0010*%
%ADD111R,0.0360X0.0010*%
%ADD112R,0.0840X0.0010*%
%ADD113R,0.0380X0.0010*%
%ADD114R,0.0400X0.0010*%
%ADD115R,0.0810X0.0010*%
%ADD116R,0.0420X0.0010*%
%ADD117R,0.0440X0.0010*%
%ADD118R,0.0740X0.0010*%
%ADD119R,0.0020X0.0010*%
%ADD120R,0.0700X0.0010*%
%ADD121R,0.0490X0.0010*%
%ADD122R,0.0040X0.0010*%
%ADD123R,0.0670X0.0010*%
%ADD124R,0.0510X0.0010*%
%ADD125R,0.0630X0.0010*%
%ADD126R,0.0550X0.0010*%
%ADD127R,0.0560X0.0010*%
%ADD128R,0.0570X0.0010*%
%ADD129R,0.0520X0.0010*%
%ADD130R,0.0600X0.0010*%
%ADD131R,0.0480X0.0010*%
%ADD132R,0.0620X0.0010*%
%ADD133R,0.0450X0.0010*%
%ADD134R,0.0410X0.0010*%
%ADD135R,0.0660X0.0010*%
%ADD136R,0.0680X0.0010*%
%ADD137R,0.0340X0.0010*%
%ADD138R,0.0300X0.0010*%
%ADD139R,0.0720X0.0010*%
%ADD140R,0.0260X0.0010*%
%ADD141R,0.0290X0.0010*%
%ADD142R,0.0750X0.0010*%
%ADD143R,0.0320X0.0010*%
%ADD144R,0.0240X0.0010*%
%ADD145R,0.0220X0.0010*%
%ADD146R,0.0050X0.0010*%
%ADD147R,0.0390X0.0010*%
%ADD148R,0.0900X0.0010*%
%ADD149R,0.0910X0.0010*%
%ADD150R,0.0920X0.0010*%
%ADD151R,0.0950X0.0010*%
%ADD152R,0.0470X0.0010*%
%ADD153R,0.0970X0.0010*%
%ADD154R,0.0990X0.0010*%
%ADD155R,0.1010X0.0010*%
%ADD156R,0.1020X0.0010*%
%ADD157R,0.1050X0.0010*%
%ADD158R,0.1070X0.0010*%
%ADD159R,0.0540X0.0010*%
%ADD160R,0.1090X0.0010*%
%ADD161R,0.1100X0.0010*%
%ADD162R,0.1120X0.0010*%
%ADD163R,0.0580X0.0010*%
%ADD164R,0.1140X0.0010*%
%ADD165R,0.1170X0.0010*%
%ADD166R,0.1200X0.0010*%
%ADD167R,0.0500X0.0010*%
%ADD168R,0.0350X0.0010*%
%ADD169R,0.1220X0.0010*%
%ADD170R,0.0370X0.0010*%
%ADD171R,0.1240X0.0010*%
%ADD172R,0.1270X0.0010*%
%ADD173R,0.0430X0.0010*%
%ADD174R,0.1290X0.0010*%
%ADD175R,0.1320X0.0010*%
%ADD176R,0.1350X0.0010*%
%ADD177R,0.1380X0.0010*%
%ADD178R,0.1410X0.0010*%
%ADD179R,0.2080X0.0010*%
%ADD180R,0.2110X0.0010*%
%ADD181R,0.1520X0.0010*%
%ADD182R,0.1110X0.0010*%
%ADD183R,0.0650X0.0010*%
%ADD184R,0.0610X0.0010*%
%ADD185R,0.0780X0.0010*%
%ADD186R,0.0880X0.0010*%
%ADD187R,0.0930X0.0010*%
%ADD188R,0.0710X0.0010*%
%ADD189R,0.0940X0.0010*%
%ADD190R,0.1000X0.0010*%
%ADD191R,0.1030X0.0010*%
%ADD192R,0.1060X0.0010*%
%ADD193R,0.1040X0.0010*%
%ADD194R,0.0980X0.0010*%
%ADD195R,0.0760X0.0010*%
%ADD196R,0.1150X0.0010*%
%ADD197R,0.1160X0.0010*%
%ADD198R,0.0820X0.0010*%
%ADD199R,0.1180X0.0010*%
%ADD200R,0.1210X0.0010*%
%ADD201R,0.1260X0.0010*%
%ADD202R,0.2390X0.0010*%
%ADD203R,0.2410X0.0010*%
%ADD204R,0.3930X0.0010*%
%ADD205R,0.3920X0.0010*%
%ADD206R,0.3910X0.0010*%
%ADD207R,0.3900X0.0010*%
%ADD208R,0.3890X0.0010*%
%ADD209R,0.3880X0.0010*%
%ADD210R,0.3480X0.0010*%
%ADD211R,0.1470X0.0010*%
%ADD212R,0.1130X0.0010*%
%ADD213R,0.1080X0.0010*%
%ADD214R,0.0960X0.0010*%
%ADD215R,0.1460X0.0010*%
%ADD216R,0.1450X0.0010*%
%ADD217R,0.1440X0.0010*%
%ADD218R,0.1430X0.0010*%
%ADD219R,0.1420X0.0010*%
%ADD220R,0.1390X0.0010*%
%ADD221R,0.1370X0.0010*%
%ADD222R,0.1360X0.0010*%
%ADD223R,0.2550X0.0010*%
%ADD224R,0.2710X0.0010*%
%ADD225R,0.2720X0.0010*%
%ADD226R,0.2290X0.0010*%
%ADD227R,0.2280X0.0010*%
%ADD228R,0.2260X0.0010*%
%ADD229R,0.2250X0.0010*%
%ADD230R,0.2170X0.0010*%
%ADD231R,0.2160X0.0010*%
%ADD232R,0.1400X0.0010*%
%ADD233R,0.1770X0.0010*%
%ADD234R,0.0850X0.0010*%
%ADD235R,0.0790X0.0010*%
%ADD236R,0.1900X0.0010*%
%ADD237R,0.1840X0.0010*%
%ADD238R,0.1780X0.0010*%
%ADD239R,0.1710X0.0010*%
%ADD240R,0.1640X0.0010*%
%ADD241R,0.1570X0.0010*%
%ADD242R,0.1490X0.0010*%
%ADD243R,0.0280X0.0160*%
%ADD244C,0.0160*%
D10*
X033282Y005789D02*
X033319Y005752D01*
X033466Y005752D01*
X033502Y005789D01*
X033502Y005862D01*
X033466Y005899D01*
X033502Y005973D02*
X033282Y005973D01*
X033282Y006083D01*
X033319Y006120D01*
X033392Y006120D01*
X033429Y006083D01*
X033429Y005973D01*
X033429Y006047D02*
X033502Y006120D01*
X033466Y006194D02*
X033502Y006231D01*
X033502Y006304D01*
X033466Y006341D01*
X033319Y006341D01*
X033282Y006304D01*
X033282Y006231D01*
X033319Y006194D01*
X033466Y006194D01*
X033466Y006415D02*
X033502Y006452D01*
X033502Y006525D01*
X033466Y006562D01*
X033282Y006562D01*
X033282Y006636D02*
X033282Y006783D01*
X033282Y006709D02*
X033502Y006709D01*
X033392Y006857D02*
X033392Y007004D01*
X033466Y006415D02*
X033282Y006415D01*
X033319Y005899D02*
X033282Y005862D01*
X033282Y005789D01*
X034892Y005258D02*
X034892Y005111D01*
X035002Y005037D02*
X035002Y004890D01*
X035002Y004963D02*
X034782Y004963D01*
X034855Y004890D01*
X034819Y004816D02*
X034892Y004816D01*
X034929Y004779D01*
X034929Y004669D01*
X034929Y004742D02*
X035002Y004816D01*
X035002Y004669D02*
X034782Y004669D01*
X034782Y004779D01*
X034819Y004816D01*
X034819Y004595D02*
X034892Y004595D01*
X034929Y004558D01*
X034929Y004448D01*
X034929Y004521D02*
X035002Y004595D01*
X035002Y004448D02*
X034782Y004448D01*
X034782Y004558D01*
X034819Y004595D01*
X034862Y004039D02*
X034826Y004002D01*
X034826Y003855D01*
X034862Y003818D01*
X034936Y003818D01*
X034973Y003855D01*
X035047Y003818D02*
X035047Y004039D01*
X035157Y004039D01*
X035194Y004002D01*
X035194Y003929D01*
X035157Y003892D01*
X035047Y003892D01*
X035120Y003892D02*
X035194Y003818D01*
X035268Y003818D02*
X035378Y003818D01*
X035415Y003855D01*
X035415Y003892D01*
X035378Y003929D01*
X035268Y003929D01*
X035268Y004039D02*
X035378Y004039D01*
X035415Y004002D01*
X035415Y003965D01*
X035378Y003929D01*
X035489Y004002D02*
X035562Y003929D01*
X035562Y003818D01*
X035562Y003929D02*
X035636Y004002D01*
X035636Y004039D01*
X035710Y004039D02*
X035820Y004039D01*
X035857Y004002D01*
X035857Y003929D01*
X035820Y003892D01*
X035710Y003892D01*
X035710Y003818D02*
X035710Y004039D01*
X035489Y004039D02*
X035489Y004002D01*
X035268Y004039D02*
X035268Y003818D01*
X034973Y004002D02*
X034936Y004039D01*
X034862Y004039D01*
X035931Y003929D02*
X036078Y003929D01*
X036524Y004002D02*
X036524Y003855D01*
X036561Y003818D01*
X036634Y003818D01*
X036671Y003855D01*
X036745Y003818D02*
X036745Y004039D01*
X036855Y004039D01*
X036892Y004002D01*
X036892Y003929D01*
X036855Y003892D01*
X036745Y003892D01*
X036819Y003892D02*
X036892Y003818D01*
X036966Y003818D02*
X037076Y003818D01*
X037113Y003855D01*
X037113Y003892D01*
X037076Y003929D01*
X036966Y003929D01*
X036966Y004039D02*
X037076Y004039D01*
X037113Y004002D01*
X037113Y003965D01*
X037076Y003929D01*
X037187Y004002D02*
X037261Y003929D01*
X037261Y003818D01*
X037261Y003929D02*
X037334Y004002D01*
X037334Y004039D01*
X037408Y004039D02*
X037518Y004039D01*
X037555Y004002D01*
X037555Y003929D01*
X037518Y003892D01*
X037408Y003892D01*
X037408Y003818D02*
X037408Y004039D01*
X037187Y004039D02*
X037187Y004002D01*
X036966Y004039D02*
X036966Y003818D01*
X036671Y004002D02*
X036634Y004039D01*
X036561Y004039D01*
X036524Y004002D01*
X037629Y003929D02*
X037776Y003929D01*
X037703Y004002D02*
X037703Y003855D01*
X037685Y005162D02*
X037685Y005272D01*
X037648Y005309D01*
X037575Y005309D01*
X037538Y005272D01*
X037538Y005162D01*
X037758Y005162D01*
X037685Y005235D02*
X037758Y005309D01*
X037758Y005383D02*
X037538Y005383D01*
X037538Y005493D01*
X037575Y005530D01*
X037648Y005530D01*
X037685Y005493D01*
X037685Y005383D01*
X037685Y005456D02*
X037758Y005530D01*
X037758Y005604D02*
X037758Y005751D01*
X037758Y005677D02*
X037538Y005677D01*
X037611Y005604D01*
X037648Y005825D02*
X037648Y005972D01*
X037575Y005898D02*
X037721Y005898D01*
X037472Y006501D02*
X037361Y006501D01*
X037361Y006721D01*
X037472Y006721D01*
X037508Y006685D01*
X037508Y006648D01*
X037472Y006611D01*
X037361Y006611D01*
X037472Y006611D02*
X037508Y006574D01*
X037508Y006538D01*
X037472Y006501D01*
X037214Y006611D02*
X037140Y006611D01*
X037066Y006611D02*
X037030Y006574D01*
X036919Y006574D01*
X036919Y006501D02*
X036919Y006721D01*
X037030Y006721D01*
X037066Y006685D01*
X037066Y006611D01*
X036993Y006574D02*
X037066Y006501D01*
X037140Y006501D02*
X037140Y006721D01*
X037287Y006721D01*
X038031Y007216D02*
X038068Y007179D01*
X038141Y007179D01*
X038178Y007216D01*
X038252Y007179D02*
X038252Y007399D01*
X038399Y007399D01*
X038473Y007399D02*
X038547Y007399D01*
X038510Y007399D02*
X038510Y007179D01*
X038473Y007179D02*
X038547Y007179D01*
X038621Y007179D02*
X038731Y007179D01*
X038767Y007216D01*
X038767Y007252D01*
X038731Y007289D01*
X038621Y007289D01*
X038731Y007289D02*
X038767Y007326D01*
X038767Y007363D01*
X038731Y007399D01*
X038621Y007399D01*
X038621Y007179D01*
X038326Y007289D02*
X038252Y007289D01*
X038178Y007363D02*
X038141Y007399D01*
X038068Y007399D01*
X038031Y007363D01*
X038031Y007216D01*
X038189Y006739D02*
X038299Y006739D01*
X038336Y006702D01*
X038336Y006629D01*
X038299Y006592D01*
X038189Y006592D01*
X038262Y006592D02*
X038336Y006518D01*
X038410Y006518D02*
X038557Y006518D01*
X038631Y006518D02*
X038741Y006518D01*
X038778Y006555D01*
X038778Y006592D01*
X038741Y006629D01*
X038631Y006629D01*
X038631Y006739D02*
X038631Y006518D01*
X038741Y006629D02*
X038778Y006665D01*
X038778Y006702D01*
X038741Y006739D01*
X038631Y006739D01*
X038410Y006739D02*
X038410Y006518D01*
X038189Y006518D02*
X038189Y006739D01*
X037626Y007697D02*
X037406Y007697D01*
X037406Y007807D01*
X037443Y007843D01*
X037516Y007843D01*
X037553Y007807D01*
X037553Y007697D01*
X037553Y007770D02*
X037626Y007843D01*
X037626Y007918D02*
X037406Y007918D01*
X037406Y008064D01*
X037406Y008139D02*
X037406Y008212D01*
X037406Y008175D02*
X037626Y008175D01*
X037626Y008139D02*
X037626Y008212D01*
X037626Y008286D02*
X037626Y008396D01*
X037590Y008433D01*
X037553Y008433D01*
X037516Y008396D01*
X037516Y008286D01*
X037406Y008286D02*
X037406Y008396D01*
X037443Y008433D01*
X037480Y008433D01*
X037516Y008396D01*
X037626Y008286D02*
X037406Y008286D01*
X037516Y007991D02*
X037516Y007918D01*
X036580Y008631D02*
X036580Y008704D01*
X036543Y008741D01*
X036580Y008815D02*
X036360Y008815D01*
X036360Y008962D01*
X036360Y009036D02*
X036360Y009146D01*
X036397Y009183D01*
X036433Y009183D01*
X036470Y009146D01*
X036470Y009036D01*
X036580Y009036D02*
X036360Y009036D01*
X036470Y009146D02*
X036507Y009183D01*
X036543Y009183D01*
X036580Y009146D01*
X036580Y009036D01*
X036470Y008889D02*
X036470Y008815D01*
X036397Y008741D02*
X036360Y008704D01*
X036360Y008631D01*
X036397Y008594D01*
X036543Y008594D01*
X036580Y008631D01*
X036615Y009685D02*
X036798Y009685D01*
X036835Y009722D01*
X036835Y009795D01*
X036798Y009832D01*
X036615Y009832D01*
X036725Y009906D02*
X036725Y010053D01*
X036835Y010016D02*
X036615Y010016D01*
X036725Y009906D01*
X034957Y009020D02*
X034957Y008947D01*
X034920Y008910D01*
X034920Y008836D02*
X034736Y008836D01*
X034773Y008910D02*
X034736Y008947D01*
X034736Y009020D01*
X034773Y009057D01*
X034810Y009057D01*
X034846Y009020D01*
X034883Y009057D01*
X034920Y009057D01*
X034957Y009020D01*
X034846Y009020D02*
X034846Y008984D01*
X034920Y008836D02*
X034957Y008799D01*
X034957Y008726D01*
X034920Y008689D01*
X034736Y008689D01*
X034545Y007860D02*
X034618Y007786D01*
X034618Y007640D01*
X034618Y007750D02*
X034472Y007750D01*
X034472Y007786D02*
X034545Y007860D01*
X034472Y007786D02*
X034472Y007640D01*
X034324Y007750D02*
X034251Y007750D01*
X034176Y007823D02*
X034140Y007860D01*
X034066Y007860D01*
X034030Y007823D01*
X034030Y007676D01*
X034066Y007640D01*
X034140Y007640D01*
X034176Y007676D01*
X034251Y007640D02*
X034251Y007860D01*
X034397Y007860D01*
X033585Y007913D02*
X033365Y007913D01*
X033365Y008023D01*
X033401Y008060D01*
X033475Y008060D01*
X033511Y008023D01*
X033511Y007913D01*
X033511Y007987D02*
X033585Y008060D01*
X033585Y008134D02*
X033365Y008134D01*
X033365Y008281D01*
X033365Y008355D02*
X033365Y008429D01*
X033365Y008392D02*
X033585Y008392D01*
X033585Y008355D02*
X033585Y008429D01*
X033585Y008502D02*
X033438Y008502D01*
X033365Y008576D01*
X033438Y008649D01*
X033585Y008649D01*
X033475Y008649D02*
X033475Y008502D01*
X033475Y008208D02*
X033475Y008134D01*
X033476Y009072D02*
X033476Y009182D01*
X033439Y009219D01*
X033366Y009219D01*
X033329Y009182D01*
X033329Y009072D01*
X033549Y009072D01*
X033476Y009146D02*
X033549Y009219D01*
X033549Y009293D02*
X033329Y009293D01*
X033329Y009440D01*
X033403Y009514D02*
X033329Y009588D01*
X033403Y009661D01*
X033549Y009661D01*
X033439Y009661D02*
X033439Y009514D01*
X033403Y009514D02*
X033549Y009514D01*
X033439Y009367D02*
X033439Y009293D01*
X033401Y010012D02*
X033548Y010012D01*
X033585Y010048D01*
X033585Y010122D01*
X033548Y010158D01*
X033585Y010233D02*
X033365Y010233D01*
X033365Y010379D01*
X033365Y010454D02*
X033365Y010527D01*
X033365Y010490D02*
X033585Y010490D01*
X033585Y010454D02*
X033585Y010527D01*
X033585Y010601D02*
X033438Y010601D01*
X033365Y010674D01*
X033438Y010748D01*
X033585Y010748D01*
X033475Y010748D02*
X033475Y010601D01*
X033475Y010306D02*
X033475Y010233D01*
X033401Y010158D02*
X033365Y010122D01*
X033365Y010048D01*
X033401Y010012D01*
X034195Y011084D02*
X034195Y011305D01*
X034305Y011305D01*
X034342Y011268D01*
X034342Y011195D01*
X034305Y011158D01*
X034195Y011158D01*
X034268Y011158D02*
X034342Y011084D01*
X034416Y011084D02*
X034563Y011084D01*
X034637Y011084D02*
X034637Y011231D01*
X034710Y011305D01*
X034784Y011231D01*
X034784Y011084D01*
X034784Y011195D02*
X034637Y011195D01*
X034416Y011305D02*
X034416Y011084D01*
X034586Y011809D02*
X034733Y011809D01*
X034770Y011846D01*
X034770Y011919D01*
X034733Y011956D01*
X034770Y012030D02*
X034550Y012030D01*
X034550Y012140D01*
X034586Y012177D01*
X034623Y012177D01*
X034660Y012140D01*
X034660Y012030D01*
X034586Y011956D02*
X034550Y011919D01*
X034550Y011846D01*
X034586Y011809D01*
X034770Y012030D02*
X034770Y012140D01*
X034733Y012177D01*
X034697Y012177D01*
X034660Y012140D01*
X034586Y012251D02*
X034660Y012325D01*
X034770Y012325D01*
X034660Y012325D02*
X034586Y012398D01*
X034550Y012398D01*
X034550Y012472D02*
X034550Y012582D01*
X034586Y012619D01*
X034660Y012619D01*
X034697Y012582D01*
X034697Y012472D01*
X034770Y012472D02*
X034550Y012472D01*
X034550Y012251D02*
X034586Y012251D01*
X034807Y012693D02*
X034807Y012840D01*
X034733Y012914D02*
X034770Y012951D01*
X034770Y013024D01*
X034733Y013061D01*
X034550Y013061D01*
X034550Y013135D02*
X034660Y013135D01*
X034623Y013209D01*
X034623Y013245D01*
X034660Y013282D01*
X034733Y013282D01*
X034770Y013245D01*
X034770Y013172D01*
X034733Y013135D01*
X034550Y013135D02*
X034550Y013282D01*
X034660Y013356D02*
X034660Y013503D01*
X034586Y013577D02*
X034550Y013614D01*
X034550Y013687D01*
X034586Y013724D01*
X034623Y013724D01*
X034770Y013577D01*
X034770Y013724D01*
X035265Y013739D02*
X035375Y013739D01*
X035338Y013812D01*
X035338Y013849D01*
X035375Y013886D01*
X035448Y013886D01*
X035485Y013849D01*
X035485Y013776D01*
X035448Y013739D01*
X035448Y013665D02*
X035265Y013665D01*
X035265Y013739D02*
X035265Y013886D01*
X035375Y013960D02*
X035375Y014107D01*
X035338Y014181D02*
X035265Y014254D01*
X035485Y014254D01*
X035485Y014181D02*
X035485Y014328D01*
X035448Y013665D02*
X035485Y013628D01*
X035485Y013555D01*
X035448Y013518D01*
X035265Y013518D01*
X035522Y013444D02*
X035522Y013297D01*
X035411Y013186D02*
X035411Y013076D01*
X035485Y013076D02*
X035265Y013076D01*
X035265Y013186D01*
X035301Y013223D01*
X035375Y013223D01*
X035411Y013186D01*
X035301Y013002D02*
X035265Y013002D01*
X035301Y013002D02*
X035375Y012929D01*
X035485Y012929D01*
X035375Y012929D02*
X035301Y012855D01*
X035265Y012855D01*
X035301Y012781D02*
X035338Y012781D01*
X035375Y012744D01*
X035375Y012634D01*
X035448Y012560D02*
X035485Y012523D01*
X035485Y012450D01*
X035448Y012413D01*
X035301Y012413D01*
X035265Y012450D01*
X035265Y012523D01*
X035301Y012560D01*
X035265Y012634D02*
X035265Y012744D01*
X035301Y012781D01*
X035375Y012744D02*
X035411Y012781D01*
X035448Y012781D01*
X035485Y012744D01*
X035485Y012634D01*
X035265Y012634D01*
X034733Y012914D02*
X034550Y012914D01*
X039365Y012872D02*
X039401Y012909D01*
X039548Y012909D01*
X039585Y012872D01*
X039585Y012799D01*
X039548Y012762D01*
X039401Y012762D01*
X039365Y012799D01*
X039365Y012872D01*
X039365Y012983D02*
X039548Y012983D01*
X039585Y013020D01*
X039585Y013093D01*
X039548Y013130D01*
X039365Y013130D01*
X039365Y013204D02*
X039365Y013351D01*
X039365Y013277D02*
X039585Y013277D01*
X039548Y012651D02*
X039365Y012651D01*
X039365Y012614D02*
X039365Y012688D01*
X039548Y012651D02*
X039585Y012614D01*
X039585Y012578D01*
X039548Y012541D01*
X039153Y017515D02*
X039006Y017515D01*
X039079Y017515D02*
X039079Y017736D01*
X039006Y017662D01*
X038932Y017515D02*
X038785Y017515D01*
X038785Y017736D01*
X038711Y017736D02*
X038637Y017736D01*
X038674Y017736D02*
X038674Y017515D01*
X038637Y017515D02*
X038711Y017515D01*
X038563Y017552D02*
X038563Y017699D01*
X038527Y017736D01*
X038453Y017736D01*
X038416Y017699D01*
X038416Y017552D01*
X038453Y017515D01*
X038527Y017515D01*
X038563Y017552D01*
X038342Y017552D02*
X038306Y017515D01*
X038232Y017515D01*
X038195Y017552D01*
X038195Y017699D01*
X038232Y017736D01*
X038306Y017736D01*
X038342Y017699D01*
X038121Y017736D02*
X038048Y017736D01*
X038085Y017736D02*
X038085Y017552D01*
X038048Y017515D01*
X038011Y017515D01*
X037974Y017552D01*
X036579Y017540D02*
X036432Y017540D01*
X036579Y017687D01*
X036579Y017724D01*
X036542Y017760D01*
X036468Y017760D01*
X036432Y017724D01*
X036358Y017540D02*
X036211Y017540D01*
X036211Y017760D01*
X036137Y017760D02*
X036063Y017760D01*
X036100Y017760D02*
X036100Y017540D01*
X036063Y017540D02*
X036137Y017540D01*
X035989Y017577D02*
X035989Y017724D01*
X035953Y017760D01*
X035879Y017760D01*
X035842Y017724D01*
X035842Y017577D01*
X035879Y017540D01*
X035953Y017540D01*
X035989Y017577D01*
X035768Y017577D02*
X035732Y017540D01*
X035658Y017540D01*
X035621Y017577D01*
X035621Y017724D01*
X035658Y017760D01*
X035732Y017760D01*
X035768Y017724D01*
X035547Y017760D02*
X035474Y017760D01*
X035511Y017760D02*
X035511Y017577D01*
X035474Y017540D01*
X035437Y017540D01*
X035400Y017577D01*
X034662Y018496D02*
X034662Y018606D01*
X034626Y018643D01*
X034479Y018643D01*
X034442Y018606D01*
X034442Y018496D01*
X034662Y018496D01*
X034662Y018717D02*
X034515Y018864D01*
X034479Y018864D01*
X034442Y018827D01*
X034442Y018754D01*
X034479Y018717D01*
X034662Y018717D02*
X034662Y018864D01*
X033571Y019401D02*
X033571Y019438D01*
X033535Y019474D01*
X033351Y019474D01*
X033351Y019438D02*
X033351Y019511D01*
X033351Y019585D02*
X033351Y019659D01*
X033351Y019622D02*
X033571Y019622D01*
X033571Y019585D02*
X033571Y019659D01*
X033535Y019733D02*
X033388Y019733D01*
X033351Y019769D01*
X033351Y019843D01*
X033388Y019879D01*
X033388Y019954D02*
X033425Y019954D01*
X033461Y019990D01*
X033461Y020064D01*
X033498Y020100D01*
X033535Y020100D01*
X033571Y020064D01*
X033571Y019990D01*
X033535Y019954D01*
X033535Y019879D02*
X033571Y019843D01*
X033571Y019769D01*
X033535Y019733D01*
X033388Y019954D02*
X033351Y019990D01*
X033351Y020064D01*
X033388Y020100D01*
X033351Y020175D02*
X033351Y020285D01*
X033388Y020321D01*
X033461Y020321D01*
X033498Y020285D01*
X033498Y020175D01*
X033571Y020175D02*
X033351Y020175D01*
X033571Y019401D02*
X033535Y019364D01*
X035258Y020279D02*
X035258Y020389D01*
X035295Y020426D01*
X035441Y020426D01*
X035478Y020389D01*
X035478Y020279D01*
X035258Y020279D01*
X035368Y020500D02*
X035368Y020647D01*
X035258Y020610D02*
X035368Y020500D01*
X035478Y020610D02*
X035258Y020610D01*
X035891Y020086D02*
X036111Y020086D01*
X036111Y020013D02*
X036111Y020160D01*
X035964Y020013D02*
X035891Y020086D01*
X036111Y019939D02*
X036111Y019792D01*
X035891Y019792D01*
X036992Y020885D02*
X037102Y020885D01*
X037138Y020922D01*
X037138Y021069D01*
X037102Y021106D01*
X036992Y021106D01*
X036992Y020885D01*
X037213Y020922D02*
X037249Y020885D01*
X037323Y020885D01*
X037359Y020922D01*
X037359Y020959D01*
X037323Y020995D01*
X037286Y020995D01*
X037323Y020995D02*
X037359Y021032D01*
X037359Y021069D01*
X037323Y021106D01*
X037249Y021106D01*
X037213Y021069D01*
X038183Y021254D02*
X038183Y021365D01*
X038220Y021401D01*
X038293Y021401D01*
X038330Y021365D01*
X038330Y021254D01*
X038403Y021254D02*
X038183Y021254D01*
X038330Y021328D02*
X038403Y021401D01*
X038366Y021475D02*
X038403Y021512D01*
X038403Y021586D01*
X038366Y021622D01*
X038330Y021622D01*
X038293Y021586D01*
X038293Y021549D01*
X038293Y021586D02*
X038256Y021622D01*
X038220Y021622D01*
X038183Y021586D01*
X038183Y021512D01*
X038220Y021475D01*
X038957Y021769D02*
X038993Y021732D01*
X039067Y021732D01*
X039103Y021769D01*
X039178Y021732D02*
X039324Y021879D01*
X039324Y021915D01*
X039288Y021952D01*
X039214Y021952D01*
X039178Y021915D01*
X039103Y021915D02*
X039067Y021952D01*
X038993Y021952D01*
X038957Y021915D01*
X038957Y021769D01*
X039178Y021732D02*
X039324Y021732D01*
X039328Y020462D02*
X039291Y020426D01*
X039291Y020279D01*
X039328Y020242D01*
X039401Y020242D01*
X039438Y020279D01*
X039512Y020279D02*
X039549Y020242D01*
X039622Y020242D01*
X039659Y020279D01*
X039659Y020315D01*
X039622Y020352D01*
X039512Y020352D01*
X039512Y020279D01*
X039512Y020352D02*
X039586Y020426D01*
X039659Y020462D01*
X039438Y020426D02*
X039401Y020462D01*
X039328Y020462D01*
X039049Y019803D02*
X039049Y019583D01*
X038976Y019583D02*
X039123Y019583D01*
X039151Y019406D02*
X039041Y019406D01*
X039041Y019186D01*
X039151Y019186D01*
X039188Y019223D01*
X039188Y019370D01*
X039151Y019406D01*
X039262Y019406D02*
X039262Y019296D01*
X039336Y019333D01*
X039372Y019333D01*
X039409Y019296D01*
X039409Y019223D01*
X039372Y019186D01*
X039299Y019186D01*
X039262Y019223D01*
X039262Y019406D02*
X039409Y019406D01*
X039049Y019803D02*
X038976Y019730D01*
X038902Y019766D02*
X038865Y019803D01*
X038755Y019803D01*
X038755Y019583D01*
X038865Y019583D01*
X038902Y019620D01*
X038902Y019766D01*
X040777Y019843D02*
X040997Y019843D01*
X040997Y019990D01*
X040997Y020064D02*
X040777Y020064D01*
X040777Y020174D01*
X040814Y020211D01*
X040961Y020211D01*
X040997Y020174D01*
X040997Y020064D01*
X040887Y019917D02*
X040887Y019843D01*
X040777Y019843D02*
X040777Y019990D01*
X040851Y020285D02*
X040777Y020359D01*
X040997Y020359D01*
X040997Y020432D02*
X040997Y020285D01*
X040997Y019769D02*
X040997Y019622D01*
X040777Y019622D01*
X040777Y019548D02*
X040777Y019475D01*
X040777Y019511D02*
X040961Y019511D01*
X040997Y019475D01*
X040997Y019438D01*
X040961Y019401D01*
X040961Y023357D02*
X040997Y023394D01*
X040997Y023430D01*
X040961Y023467D01*
X040777Y023467D01*
X040777Y023430D02*
X040777Y023504D01*
X040777Y023578D02*
X040997Y023578D01*
X040997Y023725D01*
X040997Y023799D02*
X040997Y023946D01*
X040997Y024020D02*
X040997Y024130D01*
X040961Y024167D01*
X040814Y024167D01*
X040777Y024130D01*
X040777Y024020D01*
X040997Y024020D01*
X040887Y023872D02*
X040887Y023799D01*
X040777Y023799D02*
X040997Y023799D01*
X040777Y023799D02*
X040777Y023946D01*
X040814Y024241D02*
X040777Y024278D01*
X040777Y024351D01*
X040814Y024388D01*
X040851Y024388D01*
X040997Y024241D01*
X040997Y024388D01*
X039735Y025127D02*
X039735Y025200D01*
X039698Y025237D01*
X039698Y025311D02*
X039735Y025348D01*
X039735Y025421D01*
X039698Y025458D01*
X039662Y025458D01*
X039625Y025421D01*
X039625Y025384D01*
X039625Y025421D02*
X039588Y025458D01*
X039552Y025458D01*
X039515Y025421D01*
X039515Y025348D01*
X039552Y025311D01*
X039552Y025237D02*
X039515Y025200D01*
X039515Y025127D01*
X039552Y025090D01*
X039698Y025090D01*
X039735Y025127D01*
X038961Y027028D02*
X038814Y027028D01*
X038961Y027175D01*
X038961Y027211D01*
X038924Y027248D01*
X038851Y027248D01*
X038814Y027211D01*
X038740Y027211D02*
X038703Y027248D01*
X038630Y027248D01*
X038593Y027211D01*
X038593Y027175D01*
X038630Y027138D01*
X038703Y027138D01*
X038740Y027101D01*
X038740Y027065D01*
X038703Y027028D01*
X038630Y027028D01*
X038593Y027065D01*
X038519Y027028D02*
X038519Y027175D01*
X038446Y027248D01*
X038372Y027175D01*
X038372Y027028D01*
X038298Y027028D02*
X038151Y027028D01*
X038151Y027248D01*
X038077Y027248D02*
X038004Y027248D01*
X038040Y027248D02*
X038040Y027065D01*
X038004Y027028D01*
X037967Y027028D01*
X037930Y027065D01*
X038372Y027138D02*
X038519Y027138D01*
X036386Y027078D02*
X036239Y027078D01*
X036313Y027078D02*
X036313Y027298D01*
X036239Y027225D01*
X036165Y027261D02*
X036129Y027298D01*
X036055Y027298D01*
X036018Y027261D01*
X036018Y027225D01*
X036055Y027188D01*
X036129Y027188D01*
X036165Y027151D01*
X036165Y027115D01*
X036129Y027078D01*
X036055Y027078D01*
X036018Y027115D01*
X035944Y027078D02*
X035944Y027225D01*
X035871Y027298D01*
X035798Y027225D01*
X035798Y027078D01*
X035723Y027078D02*
X035577Y027078D01*
X035577Y027298D01*
X035502Y027298D02*
X035429Y027298D01*
X035466Y027298D02*
X035466Y027115D01*
X035429Y027078D01*
X035392Y027078D01*
X035356Y027115D01*
X035798Y027188D02*
X035944Y027188D01*
X035585Y025251D02*
X035512Y025251D01*
X035512Y025177D01*
X035439Y025104D02*
X035585Y025104D01*
X035622Y025141D01*
X035622Y025214D01*
X035585Y025251D01*
X035439Y025251D02*
X035402Y025214D01*
X035402Y025141D01*
X035439Y025104D01*
X035402Y025030D02*
X035402Y024883D01*
X035622Y024883D01*
X035622Y025030D01*
X035512Y024956D02*
X035512Y024883D01*
X035512Y024809D02*
X035549Y024772D01*
X035549Y024662D01*
X035622Y024662D02*
X035402Y024662D01*
X035402Y024772D01*
X035439Y024809D01*
X035512Y024809D01*
X035549Y024735D02*
X035622Y024809D01*
X035585Y024588D02*
X035402Y024588D01*
X035402Y024441D02*
X035585Y024441D01*
X035622Y024478D01*
X035622Y024551D01*
X035585Y024588D01*
X034590Y024623D02*
X034370Y024623D01*
X034443Y024550D01*
X034407Y024476D02*
X034480Y024476D01*
X034517Y024439D01*
X034517Y024329D01*
X034590Y024329D02*
X034370Y024329D01*
X034370Y024439D01*
X034407Y024476D01*
X034517Y024402D02*
X034590Y024476D01*
X034590Y024550D02*
X034590Y024697D01*
X033671Y024647D02*
X033671Y024500D01*
X033524Y024647D01*
X033488Y024647D01*
X033451Y024610D01*
X033451Y024537D01*
X033488Y024500D01*
X033488Y024426D02*
X033561Y024426D01*
X033598Y024389D01*
X033598Y024279D01*
X033671Y024279D02*
X033451Y024279D01*
X033451Y024389D01*
X033488Y024426D01*
X033598Y024352D02*
X033671Y024426D01*
X033635Y023572D02*
X033672Y023535D01*
X033672Y023462D01*
X033635Y023425D01*
X033562Y023425D02*
X033525Y023498D01*
X033525Y023535D01*
X033562Y023572D01*
X033635Y023572D01*
X033562Y023425D02*
X033452Y023425D01*
X033452Y023572D01*
X033488Y023351D02*
X033452Y023314D01*
X033452Y023241D01*
X033488Y023204D01*
X033635Y023204D01*
X033672Y023241D01*
X033672Y023314D01*
X033635Y023351D01*
X033656Y022842D02*
X033582Y022769D01*
X033582Y022806D02*
X033582Y022696D01*
X033656Y022696D02*
X033436Y022696D01*
X033436Y022806D01*
X033472Y022842D01*
X033546Y022842D01*
X033582Y022806D01*
X033656Y022621D02*
X033656Y022475D01*
X033436Y022475D01*
X033472Y022400D02*
X033436Y022364D01*
X033436Y022290D01*
X033472Y022254D01*
X033619Y022254D01*
X033656Y022290D01*
X033656Y022364D01*
X033619Y022400D01*
X033656Y022179D02*
X033436Y022179D01*
X033509Y022106D01*
X033436Y022033D01*
X033656Y022033D01*
X033656Y021958D02*
X033582Y021885D01*
X033582Y021922D02*
X033582Y021812D01*
X033656Y021812D02*
X033436Y021812D01*
X033436Y021922D01*
X033472Y021958D01*
X033546Y021958D01*
X033582Y021922D01*
X034839Y022010D02*
X034949Y021900D01*
X034949Y022047D01*
X035059Y022010D02*
X034839Y022010D01*
X034875Y021826D02*
X034839Y021789D01*
X034839Y021716D01*
X034875Y021679D01*
X035022Y021679D01*
X035059Y021716D01*
X035059Y021789D01*
X035022Y021826D01*
X035202Y021422D02*
X035422Y021422D01*
X035422Y021349D02*
X035422Y021495D01*
X035275Y021349D02*
X035202Y021422D01*
X035239Y021275D02*
X035202Y021238D01*
X035202Y021164D01*
X035239Y021128D01*
X035386Y021128D01*
X035422Y021164D01*
X035422Y021238D01*
X035386Y021275D01*
X036605Y006437D02*
X036605Y006290D01*
X036569Y006216D02*
X036532Y006216D01*
X036495Y006179D01*
X036495Y006106D01*
X036532Y006069D01*
X036532Y005995D02*
X036605Y005995D01*
X036642Y005958D01*
X036642Y005848D01*
X036716Y005848D02*
X036495Y005848D01*
X036495Y005958D01*
X036532Y005995D01*
X036642Y005922D02*
X036716Y005995D01*
X036716Y006069D02*
X036569Y006216D01*
X036716Y006216D02*
X036716Y006069D01*
X036716Y005774D02*
X036642Y005701D01*
X036642Y005737D02*
X036642Y005627D01*
X036716Y005627D02*
X036495Y005627D01*
X036495Y005737D01*
X036532Y005774D01*
X036605Y005774D01*
X036642Y005737D01*
X036679Y006364D02*
X036532Y006364D01*
X035721Y005440D02*
X035648Y005440D01*
X035611Y005403D01*
X035537Y005403D02*
X035500Y005440D01*
X035390Y005440D01*
X035390Y005220D01*
X035390Y005293D02*
X035500Y005293D01*
X035537Y005330D01*
X035537Y005403D01*
X035464Y005293D02*
X035537Y005220D01*
X035611Y005220D02*
X035758Y005367D01*
X035758Y005403D01*
X035721Y005440D01*
X035832Y005330D02*
X035979Y005330D01*
X035758Y005220D02*
X035611Y005220D01*
X035316Y005220D02*
X035243Y005293D01*
X035279Y005293D02*
X035169Y005293D01*
X035169Y005220D02*
X035169Y005440D01*
X035279Y005440D01*
X035316Y005403D01*
X035316Y005330D01*
X035279Y005293D01*
X039310Y004588D02*
X039310Y004442D01*
X039310Y004515D02*
X039530Y004515D01*
X039493Y004367D02*
X039310Y004367D01*
X039310Y004221D02*
X039493Y004221D01*
X039530Y004257D01*
X039530Y004331D01*
X039493Y004367D01*
X039493Y004146D02*
X039346Y004146D01*
X039310Y004110D01*
X039310Y004036D01*
X039346Y004000D01*
X039493Y004000D01*
X039530Y004036D01*
X039530Y004110D01*
X039493Y004146D01*
X039530Y003925D02*
X039456Y003852D01*
X039456Y003889D02*
X039456Y003779D01*
X039530Y003779D02*
X039310Y003779D01*
X039310Y003889D01*
X039346Y003925D01*
X039420Y003925D01*
X039456Y003889D01*
X039493Y003704D02*
X039530Y003668D01*
X039530Y003594D01*
X039493Y003558D01*
X039346Y003558D01*
X039310Y003594D01*
X039310Y003668D01*
X039346Y003704D01*
X039420Y004663D02*
X039420Y004809D01*
X039346Y004736D02*
X039493Y004736D01*
X037884Y001862D02*
X037884Y001715D01*
X037884Y001788D02*
X037664Y001788D01*
X037737Y001715D01*
X037664Y001641D02*
X037847Y001641D01*
X037884Y001604D01*
X037884Y001531D01*
X037847Y001494D01*
X037664Y001494D01*
X037431Y000593D02*
X037468Y000556D01*
X037468Y000483D01*
X037431Y000446D01*
X037321Y000446D01*
X037394Y000446D02*
X037468Y000373D01*
X037542Y000483D02*
X037689Y000483D01*
X037615Y000556D02*
X037615Y000409D01*
X037431Y000593D02*
X037321Y000593D01*
X037321Y000373D01*
X037247Y000373D02*
X037247Y000593D01*
X037100Y000593D02*
X037247Y000373D01*
X037100Y000373D02*
X037100Y000593D01*
X037026Y000556D02*
X037026Y000483D01*
X036989Y000446D01*
X036879Y000446D01*
X036879Y000373D02*
X036879Y000593D01*
X036989Y000593D01*
X037026Y000556D01*
X036952Y000446D02*
X037026Y000373D01*
X036805Y000409D02*
X036768Y000373D01*
X036695Y000373D01*
X036658Y000409D01*
X036658Y000556D01*
X036695Y000593D01*
X036768Y000593D01*
X036805Y000556D01*
X035989Y000483D02*
X035842Y000483D01*
X035768Y000483D02*
X035731Y000446D01*
X035621Y000446D01*
X035694Y000446D02*
X035768Y000373D01*
X035768Y000483D02*
X035768Y000556D01*
X035731Y000593D01*
X035621Y000593D01*
X035621Y000373D01*
X035547Y000373D02*
X035547Y000593D01*
X035400Y000593D02*
X035547Y000373D01*
X035400Y000373D02*
X035400Y000593D01*
X035326Y000556D02*
X035326Y000483D01*
X035289Y000446D01*
X035179Y000446D01*
X035179Y000373D02*
X035179Y000593D01*
X035289Y000593D01*
X035326Y000556D01*
X035252Y000446D02*
X035326Y000373D01*
X035105Y000409D02*
X035068Y000373D01*
X034995Y000373D01*
X034958Y000409D01*
X034958Y000556D01*
X034995Y000593D01*
X035068Y000593D01*
X035105Y000556D01*
X036211Y001494D02*
X036395Y001494D01*
X036431Y001531D01*
X036431Y001604D01*
X036395Y001641D01*
X036211Y001641D01*
X036248Y001715D02*
X036211Y001752D01*
X036211Y001825D01*
X036248Y001862D01*
X036285Y001862D01*
X036431Y001715D01*
X036431Y001862D01*
X034465Y001703D02*
X034318Y001703D01*
X034392Y001630D02*
X034392Y001777D01*
X034244Y001813D02*
X034244Y001593D01*
X034097Y001813D01*
X034097Y001593D01*
X034023Y001593D02*
X033950Y001593D01*
X033987Y001593D02*
X033987Y001813D01*
X034023Y001813D02*
X033950Y001813D01*
X033876Y001777D02*
X033876Y001703D01*
X033839Y001666D01*
X033729Y001666D01*
X033729Y001593D02*
X033729Y001813D01*
X033839Y001813D01*
X033876Y001777D01*
X033802Y001666D02*
X033876Y001593D01*
X033655Y001630D02*
X033618Y001593D01*
X033545Y001593D01*
X033508Y001630D01*
X033508Y001777D01*
X033545Y001813D01*
X033618Y001813D01*
X033655Y001777D01*
X039355Y001341D02*
X039575Y001341D01*
X039355Y001194D01*
X039575Y001194D01*
X039575Y001120D02*
X039575Y001047D01*
X039575Y001084D02*
X039355Y001084D01*
X039355Y001120D02*
X039355Y001047D01*
X039392Y000973D02*
X039465Y000973D01*
X039502Y000936D01*
X039502Y000826D01*
X039502Y000899D02*
X039575Y000973D01*
X039575Y000826D02*
X039355Y000826D01*
X039355Y000936D01*
X039392Y000973D01*
X039392Y000752D02*
X039355Y000715D01*
X039355Y000642D01*
X039392Y000605D01*
X039539Y000605D01*
X039575Y000642D01*
X039575Y000715D01*
X039539Y000752D01*
X039855Y000917D02*
X039892Y000881D01*
X039928Y000881D01*
X039965Y000917D01*
X039965Y001101D01*
X039928Y001101D02*
X040002Y001101D01*
X040076Y001101D02*
X040149Y001101D01*
X040113Y001101D02*
X040113Y000881D01*
X040149Y000881D02*
X040076Y000881D01*
X040223Y000881D02*
X040223Y001101D01*
X040370Y000881D01*
X040370Y001101D01*
X039465Y001415D02*
X039465Y001562D01*
D11*
X037583Y001844D02*
X037583Y001894D01*
X037584Y001893D02*
X037599Y001896D01*
X037613Y001901D01*
X037625Y001909D01*
X037636Y001920D01*
X037644Y001932D01*
X037649Y001946D01*
X037652Y001961D01*
X037701Y001962D01*
X037702Y001961D01*
X037699Y001941D01*
X037694Y001921D01*
X037685Y001903D01*
X037673Y001887D01*
X037658Y001872D01*
X037642Y001860D01*
X037624Y001851D01*
X037604Y001846D01*
X037584Y001843D01*
X037584Y001852D01*
X037603Y001854D01*
X037621Y001860D01*
X037637Y001868D01*
X037653Y001879D01*
X037666Y001892D01*
X037677Y001908D01*
X037685Y001924D01*
X037691Y001942D01*
X037693Y001961D01*
X037684Y001961D01*
X037681Y001942D01*
X037675Y001924D01*
X037666Y001907D01*
X037653Y001892D01*
X037638Y001879D01*
X037621Y001870D01*
X037603Y001864D01*
X037584Y001861D01*
X037584Y001870D01*
X037601Y001873D01*
X037618Y001878D01*
X037633Y001887D01*
X037647Y001898D01*
X037658Y001912D01*
X037667Y001927D01*
X037672Y001944D01*
X037675Y001961D01*
X037666Y001961D01*
X037663Y001943D01*
X037656Y001926D01*
X037647Y001911D01*
X037634Y001898D01*
X037619Y001889D01*
X037602Y001882D01*
X037584Y001879D01*
X037584Y001888D01*
X037600Y001891D01*
X037615Y001897D01*
X037628Y001905D01*
X037640Y001917D01*
X037648Y001930D01*
X037654Y001945D01*
X037657Y001961D01*
X037701Y002942D02*
X037651Y002942D01*
X037652Y002943D02*
X037649Y002958D01*
X037644Y002972D01*
X037636Y002984D01*
X037625Y002995D01*
X037613Y003003D01*
X037599Y003008D01*
X037584Y003011D01*
X037583Y003060D01*
X037584Y003061D01*
X037604Y003058D01*
X037624Y003053D01*
X037642Y003044D01*
X037658Y003032D01*
X037673Y003017D01*
X037685Y003001D01*
X037694Y002983D01*
X037699Y002963D01*
X037702Y002943D01*
X037693Y002943D01*
X037691Y002962D01*
X037685Y002980D01*
X037677Y002996D01*
X037666Y003012D01*
X037653Y003025D01*
X037637Y003036D01*
X037621Y003044D01*
X037603Y003050D01*
X037584Y003052D01*
X037584Y003043D01*
X037603Y003040D01*
X037621Y003034D01*
X037638Y003025D01*
X037653Y003012D01*
X037666Y002997D01*
X037675Y002980D01*
X037681Y002962D01*
X037684Y002943D01*
X037675Y002943D01*
X037672Y002960D01*
X037667Y002977D01*
X037658Y002992D01*
X037647Y003006D01*
X037633Y003017D01*
X037618Y003026D01*
X037601Y003031D01*
X037584Y003034D01*
X037584Y003025D01*
X037602Y003022D01*
X037619Y003015D01*
X037634Y003006D01*
X037647Y002993D01*
X037656Y002978D01*
X037663Y002961D01*
X037666Y002943D01*
X037657Y002943D01*
X037654Y002959D01*
X037648Y002974D01*
X037640Y002987D01*
X037628Y002999D01*
X037615Y003007D01*
X037600Y003013D01*
X037584Y003016D01*
X036201Y002942D02*
X036151Y002942D01*
X036152Y002943D02*
X036149Y002958D01*
X036144Y002972D01*
X036136Y002984D01*
X036125Y002995D01*
X036113Y003003D01*
X036099Y003008D01*
X036084Y003011D01*
X036083Y003060D01*
X036084Y003061D01*
X036104Y003058D01*
X036124Y003053D01*
X036142Y003044D01*
X036158Y003032D01*
X036173Y003017D01*
X036185Y003001D01*
X036194Y002983D01*
X036199Y002963D01*
X036202Y002943D01*
X036193Y002943D01*
X036191Y002962D01*
X036185Y002980D01*
X036177Y002996D01*
X036166Y003012D01*
X036153Y003025D01*
X036137Y003036D01*
X036121Y003044D01*
X036103Y003050D01*
X036084Y003052D01*
X036084Y003043D01*
X036103Y003040D01*
X036121Y003034D01*
X036138Y003025D01*
X036153Y003012D01*
X036166Y002997D01*
X036175Y002980D01*
X036181Y002962D01*
X036184Y002943D01*
X036175Y002943D01*
X036172Y002960D01*
X036167Y002977D01*
X036158Y002992D01*
X036147Y003006D01*
X036133Y003017D01*
X036118Y003026D01*
X036101Y003031D01*
X036084Y003034D01*
X036084Y003025D01*
X036102Y003022D01*
X036119Y003015D01*
X036134Y003006D01*
X036147Y002993D01*
X036156Y002978D01*
X036163Y002961D01*
X036166Y002943D01*
X036157Y002943D01*
X036154Y002959D01*
X036148Y002974D01*
X036140Y002987D01*
X036128Y002999D01*
X036115Y003007D01*
X036100Y003013D01*
X036084Y003016D01*
X036083Y001844D02*
X036083Y001894D01*
X036084Y001893D02*
X036099Y001896D01*
X036113Y001901D01*
X036125Y001909D01*
X036136Y001920D01*
X036144Y001932D01*
X036149Y001946D01*
X036152Y001961D01*
X036201Y001962D01*
X036202Y001961D01*
X036199Y001941D01*
X036194Y001921D01*
X036185Y001903D01*
X036173Y001887D01*
X036158Y001872D01*
X036142Y001860D01*
X036124Y001851D01*
X036104Y001846D01*
X036084Y001843D01*
X036084Y001852D01*
X036103Y001854D01*
X036121Y001860D01*
X036137Y001868D01*
X036153Y001879D01*
X036166Y001892D01*
X036177Y001908D01*
X036185Y001924D01*
X036191Y001942D01*
X036193Y001961D01*
X036184Y001961D01*
X036181Y001942D01*
X036175Y001924D01*
X036166Y001907D01*
X036153Y001892D01*
X036138Y001879D01*
X036121Y001870D01*
X036103Y001864D01*
X036084Y001861D01*
X036084Y001870D01*
X036101Y001873D01*
X036118Y001878D01*
X036133Y001887D01*
X036147Y001898D01*
X036158Y001912D01*
X036167Y001927D01*
X036172Y001944D01*
X036175Y001961D01*
X036166Y001961D01*
X036163Y001943D01*
X036156Y001926D01*
X036147Y001911D01*
X036134Y001898D01*
X036119Y001889D01*
X036102Y001882D01*
X036084Y001879D01*
X036084Y001888D01*
X036100Y001891D01*
X036115Y001897D01*
X036128Y001905D01*
X036140Y001917D01*
X036148Y001930D01*
X036154Y001945D01*
X036157Y001961D01*
X035983Y007444D02*
X035983Y007494D01*
X035984Y007493D02*
X035999Y007496D01*
X036013Y007501D01*
X036025Y007509D01*
X036036Y007520D01*
X036044Y007532D01*
X036049Y007546D01*
X036052Y007561D01*
X036101Y007562D01*
X036102Y007561D01*
X036099Y007541D01*
X036094Y007521D01*
X036085Y007503D01*
X036073Y007487D01*
X036058Y007472D01*
X036042Y007460D01*
X036024Y007451D01*
X036004Y007446D01*
X035984Y007443D01*
X035984Y007452D01*
X036003Y007454D01*
X036021Y007460D01*
X036037Y007468D01*
X036053Y007479D01*
X036066Y007492D01*
X036077Y007508D01*
X036085Y007524D01*
X036091Y007542D01*
X036093Y007561D01*
X036084Y007561D01*
X036081Y007542D01*
X036075Y007524D01*
X036066Y007507D01*
X036053Y007492D01*
X036038Y007479D01*
X036021Y007470D01*
X036003Y007464D01*
X035984Y007461D01*
X035984Y007470D01*
X036001Y007473D01*
X036018Y007478D01*
X036033Y007487D01*
X036047Y007498D01*
X036058Y007512D01*
X036067Y007527D01*
X036072Y007544D01*
X036075Y007561D01*
X036066Y007561D01*
X036063Y007543D01*
X036056Y007526D01*
X036047Y007511D01*
X036034Y007498D01*
X036019Y007489D01*
X036002Y007482D01*
X035984Y007479D01*
X035984Y007488D01*
X036000Y007491D01*
X036015Y007497D01*
X036028Y007505D01*
X036040Y007517D01*
X036048Y007530D01*
X036054Y007545D01*
X036057Y007561D01*
X036101Y008542D02*
X036051Y008542D01*
X036052Y008543D02*
X036049Y008558D01*
X036044Y008572D01*
X036036Y008584D01*
X036025Y008595D01*
X036013Y008603D01*
X035999Y008608D01*
X035984Y008611D01*
X035983Y008660D01*
X035984Y008661D01*
X036004Y008658D01*
X036024Y008653D01*
X036042Y008644D01*
X036058Y008632D01*
X036073Y008617D01*
X036085Y008601D01*
X036094Y008583D01*
X036099Y008563D01*
X036102Y008543D01*
X036093Y008543D01*
X036091Y008562D01*
X036085Y008580D01*
X036077Y008596D01*
X036066Y008612D01*
X036053Y008625D01*
X036037Y008636D01*
X036021Y008644D01*
X036003Y008650D01*
X035984Y008652D01*
X035984Y008643D01*
X036003Y008640D01*
X036021Y008634D01*
X036038Y008625D01*
X036053Y008612D01*
X036066Y008597D01*
X036075Y008580D01*
X036081Y008562D01*
X036084Y008543D01*
X036075Y008543D01*
X036072Y008560D01*
X036067Y008577D01*
X036058Y008592D01*
X036047Y008606D01*
X036033Y008617D01*
X036018Y008626D01*
X036001Y008631D01*
X035984Y008634D01*
X035984Y008625D01*
X036002Y008622D01*
X036019Y008615D01*
X036034Y008606D01*
X036047Y008593D01*
X036056Y008578D01*
X036063Y008561D01*
X036066Y008543D01*
X036057Y008543D01*
X036054Y008559D01*
X036048Y008574D01*
X036040Y008587D01*
X036028Y008599D01*
X036015Y008607D01*
X036000Y008613D01*
X035984Y008616D01*
X035940Y029333D02*
X036090Y029333D01*
X036090Y029433D01*
X036090Y029480D02*
X036090Y029580D01*
X036090Y029627D02*
X036090Y029702D01*
X036065Y029727D01*
X035965Y029727D01*
X035940Y029702D01*
X035940Y029627D01*
X036090Y029627D01*
X036015Y029530D02*
X036015Y029480D01*
X035940Y029480D02*
X036090Y029480D01*
X035940Y029480D02*
X035940Y029580D01*
X035940Y029775D02*
X035940Y029875D01*
X035965Y029875D01*
X036065Y029775D01*
X036090Y029775D01*
X036531Y029702D02*
X036531Y029627D01*
X036681Y029627D01*
X036681Y029702D01*
X036656Y029727D01*
X036556Y029727D01*
X036531Y029702D01*
X036606Y029775D02*
X036606Y029850D01*
X036631Y029875D01*
X036656Y029875D01*
X036681Y029850D01*
X036681Y029800D01*
X036656Y029775D01*
X036606Y029775D01*
X036556Y029825D01*
X036531Y029875D01*
X036531Y029580D02*
X036531Y029480D01*
X036681Y029480D01*
X036681Y029580D01*
X036606Y029530D02*
X036606Y029480D01*
X036681Y029433D02*
X036681Y029333D01*
X036531Y029333D01*
X037121Y029333D02*
X037272Y029333D01*
X037272Y029433D01*
X037272Y029480D02*
X037272Y029580D01*
X037272Y029627D02*
X037272Y029702D01*
X037247Y029727D01*
X037146Y029727D01*
X037121Y029702D01*
X037121Y029627D01*
X037272Y029627D01*
X037197Y029530D02*
X037197Y029480D01*
X037272Y029480D02*
X037121Y029480D01*
X037121Y029580D01*
X037121Y029775D02*
X037197Y029775D01*
X037171Y029825D01*
X037171Y029850D01*
X037197Y029875D01*
X037247Y029875D01*
X037272Y029850D01*
X037272Y029800D01*
X037247Y029775D01*
X037121Y029775D02*
X037121Y029875D01*
X037712Y029850D02*
X037787Y029775D01*
X037787Y029875D01*
X037862Y029850D02*
X037712Y029850D01*
X037737Y029727D02*
X037712Y029702D01*
X037712Y029627D01*
X037862Y029627D01*
X037862Y029702D01*
X037837Y029727D01*
X037737Y029727D01*
X037712Y029580D02*
X037712Y029480D01*
X037862Y029480D01*
X037862Y029580D01*
X037787Y029530D02*
X037787Y029480D01*
X037862Y029433D02*
X037862Y029333D01*
X037712Y029333D01*
X035500Y029333D02*
X035500Y029433D01*
X035500Y029480D02*
X035500Y029580D01*
X035500Y029627D02*
X035500Y029702D01*
X035475Y029727D01*
X035375Y029727D01*
X035350Y029702D01*
X035350Y029627D01*
X035500Y029627D01*
X035425Y029530D02*
X035425Y029480D01*
X035350Y029480D02*
X035500Y029480D01*
X035500Y029333D02*
X035350Y029333D01*
X035350Y029480D02*
X035350Y029580D01*
X035375Y029775D02*
X035350Y029800D01*
X035350Y029850D01*
X035375Y029875D01*
X035400Y029875D01*
X035425Y029850D01*
X035450Y029875D01*
X035475Y029875D01*
X035500Y029850D01*
X035500Y029800D01*
X035475Y029775D01*
X035425Y029825D02*
X035425Y029850D01*
X034909Y029875D02*
X034909Y029775D01*
X034809Y029875D01*
X034784Y029875D01*
X034759Y029850D01*
X034759Y029800D01*
X034784Y029775D01*
X034784Y029727D02*
X034759Y029702D01*
X034759Y029627D01*
X034909Y029627D01*
X034909Y029702D01*
X034884Y029727D01*
X034784Y029727D01*
X034759Y029580D02*
X034759Y029480D01*
X034909Y029480D01*
X034909Y029580D01*
X034834Y029530D02*
X034834Y029480D01*
X034909Y029433D02*
X034909Y029333D01*
X034759Y029333D01*
X034319Y029333D02*
X034319Y029433D01*
X034319Y029480D02*
X034319Y029580D01*
X034319Y029627D02*
X034319Y029702D01*
X034294Y029727D01*
X034194Y029727D01*
X034169Y029702D01*
X034169Y029627D01*
X034319Y029627D01*
X034244Y029530D02*
X034244Y029480D01*
X034169Y029480D02*
X034319Y029480D01*
X034319Y029333D02*
X034169Y029333D01*
X034169Y029480D02*
X034169Y029580D01*
X034219Y029775D02*
X034169Y029825D01*
X034319Y029825D01*
X034319Y029775D02*
X034319Y029875D01*
D12*
X026815Y028977D02*
X026815Y028814D01*
X026733Y028732D01*
X026406Y029059D01*
X026733Y029059D01*
X026815Y028977D01*
X026733Y028732D02*
X026406Y028732D01*
X026325Y028814D01*
X026325Y028977D01*
X026406Y029059D01*
X026733Y028556D02*
X026815Y028556D01*
X026815Y028474D01*
X026733Y028474D01*
X026733Y028556D01*
X026815Y028286D02*
X026815Y027959D01*
X026815Y028122D02*
X026325Y028122D01*
X026488Y027959D01*
X026488Y027770D02*
X026815Y027606D01*
X026488Y027443D01*
X026488Y026739D02*
X026488Y026493D01*
X026570Y026412D01*
X026733Y026412D01*
X026815Y026493D01*
X026815Y026739D01*
X026325Y026739D01*
X026488Y026227D02*
X026488Y026145D01*
X026652Y025982D01*
X026815Y025982D02*
X026488Y025982D01*
X026570Y025793D02*
X026815Y025793D01*
X026815Y025548D01*
X026733Y025466D01*
X026652Y025548D01*
X026652Y025793D01*
X026570Y025793D02*
X026488Y025712D01*
X026488Y025548D01*
X026570Y025278D02*
X026488Y025196D01*
X026488Y025032D01*
X026570Y024951D01*
X026733Y024951D01*
X026815Y025032D01*
X026815Y025196D01*
X026733Y025278D01*
X026570Y025278D01*
X026652Y024762D02*
X026733Y024762D01*
X026815Y024680D01*
X026815Y024435D01*
X026325Y024435D01*
X026325Y024680D01*
X026406Y024762D01*
X026488Y024762D01*
X026570Y024680D01*
X026570Y024435D01*
X026570Y024680D02*
X026652Y024762D01*
X026815Y023739D02*
X026325Y023739D01*
X026325Y023576D01*
X026325Y023387D02*
X026815Y023060D01*
X026815Y023387D02*
X026325Y023060D01*
X026325Y022871D02*
X026325Y022544D01*
X026325Y022708D02*
X026815Y022708D01*
X026733Y022356D02*
X026815Y022274D01*
X026815Y022029D01*
X026325Y022029D01*
X026325Y022274D01*
X026406Y022356D01*
X026488Y022356D01*
X026570Y022274D01*
X026570Y022029D01*
X026570Y022274D02*
X026652Y022356D01*
X026733Y022356D01*
X026815Y021848D02*
X026815Y021685D01*
X026325Y021685D01*
X026325Y021848D01*
X025515Y021685D02*
X025515Y022012D01*
X025433Y022201D02*
X025352Y022282D01*
X025352Y022528D01*
X025270Y022528D02*
X025515Y022528D01*
X025515Y022282D01*
X025433Y022201D01*
X025188Y022282D02*
X025188Y022446D01*
X025270Y022528D01*
X025270Y022716D02*
X025188Y022798D01*
X025188Y023043D01*
X025352Y022961D02*
X025352Y022798D01*
X025270Y022716D01*
X025515Y022716D02*
X025515Y022961D01*
X025433Y023043D01*
X025352Y022961D01*
X025352Y023232D02*
X025352Y023559D01*
X025270Y023559D01*
X025188Y023477D01*
X025188Y023314D01*
X025270Y023232D01*
X025433Y023232D01*
X025515Y023314D01*
X025515Y023477D01*
X025515Y023748D02*
X025188Y023748D01*
X025188Y023911D02*
X025188Y023993D01*
X025188Y023911D02*
X025352Y023748D01*
X025270Y024693D02*
X025270Y024938D01*
X025352Y025020D01*
X025433Y025020D01*
X025515Y024938D01*
X025515Y024693D01*
X025025Y024693D01*
X025025Y024938D01*
X025106Y025020D01*
X025188Y025020D01*
X025270Y024938D01*
X025270Y025209D02*
X025188Y025290D01*
X025188Y025454D01*
X025270Y025535D01*
X025352Y025535D01*
X025352Y025209D01*
X025433Y025209D02*
X025270Y025209D01*
X025433Y025209D02*
X025515Y025290D01*
X025515Y025454D01*
X025433Y025724D02*
X025352Y025806D01*
X025352Y026051D01*
X025270Y026051D02*
X025515Y026051D01*
X025515Y025806D01*
X025433Y025724D01*
X025188Y025806D02*
X025188Y025969D01*
X025270Y026051D01*
X025270Y026240D02*
X025188Y026322D01*
X025188Y026567D01*
X025270Y026755D02*
X025188Y026837D01*
X025188Y027001D01*
X025270Y027082D01*
X025433Y027082D01*
X025515Y027001D01*
X025515Y026837D01*
X025433Y026755D01*
X025270Y026755D01*
X025515Y026567D02*
X025515Y026322D01*
X025433Y026240D01*
X025270Y026240D01*
X025188Y027271D02*
X025188Y027516D01*
X025270Y027598D01*
X025515Y027598D01*
X025515Y027271D02*
X025188Y027271D01*
X025025Y028302D02*
X025352Y028302D01*
X025515Y028466D01*
X025352Y028629D01*
X025025Y028629D01*
X025106Y028818D02*
X025025Y028900D01*
X025025Y029063D01*
X025106Y029145D01*
X025188Y029145D01*
X025270Y029063D01*
X025352Y029145D01*
X025433Y029145D01*
X025515Y029063D01*
X025515Y028900D01*
X025433Y028818D01*
X025270Y028981D02*
X025270Y029063D01*
X026815Y023739D02*
X026815Y023576D01*
X025515Y021685D02*
X025025Y021685D01*
D13*
X027675Y021675D02*
X027675Y021850D01*
X027733Y021909D01*
X027850Y021909D01*
X027908Y021850D01*
X027908Y021675D01*
X028025Y021675D02*
X027675Y021675D01*
X027791Y022102D02*
X027791Y022218D01*
X027850Y022277D01*
X028025Y022277D01*
X028025Y022102D01*
X027967Y022043D01*
X027908Y022102D01*
X027908Y022277D01*
X027967Y022412D02*
X028025Y022470D01*
X028025Y022645D01*
X027791Y022645D01*
X027675Y022780D02*
X027675Y022838D01*
X028025Y022838D01*
X028025Y022780D02*
X028025Y022897D01*
X028025Y023394D02*
X027675Y023394D01*
X027791Y023511D01*
X027675Y023627D01*
X028025Y023627D01*
X028025Y023762D02*
X028025Y023820D01*
X027967Y023820D01*
X027967Y023762D01*
X028025Y023762D01*
X027850Y024315D02*
X027850Y024548D01*
X027791Y025051D02*
X027675Y025168D01*
X028025Y025168D01*
X028025Y025051D02*
X028025Y025285D01*
X028025Y025420D02*
X028025Y025653D01*
X028025Y025536D02*
X027675Y025536D01*
X027791Y025420D01*
X028025Y025788D02*
X027675Y026021D01*
X027733Y026156D02*
X027675Y026215D01*
X027675Y026331D01*
X027733Y026390D01*
X027791Y026390D01*
X028025Y026156D01*
X028025Y026390D01*
X027967Y026524D02*
X027733Y026758D01*
X027967Y026758D01*
X028025Y026700D01*
X028025Y026583D01*
X027967Y026524D01*
X027733Y026524D01*
X027675Y026583D01*
X027675Y026700D01*
X027733Y026758D01*
X027791Y026893D02*
X027675Y027010D01*
X028025Y027010D01*
X028025Y027126D02*
X028025Y026893D01*
X028025Y027261D02*
X027791Y027495D01*
X027733Y027495D01*
X027675Y027436D01*
X027675Y027319D01*
X027733Y027261D01*
X028025Y027261D02*
X028025Y027495D01*
X033418Y029087D02*
X034205Y029087D01*
X034205Y030662D02*
X033418Y030662D01*
X039957Y025497D02*
X040157Y025697D01*
X040457Y025697D01*
X040657Y025497D01*
X040657Y025197D01*
X040557Y025097D01*
X040657Y024997D01*
X040657Y024697D01*
X040557Y024597D01*
X040657Y024497D01*
X040657Y024197D01*
X040557Y024097D01*
X040657Y023997D01*
X040657Y023697D01*
X040557Y023597D01*
X040657Y023497D01*
X040657Y023197D01*
X040457Y022997D01*
X040157Y022997D01*
X039957Y023197D01*
X039957Y023497D01*
X040057Y023597D01*
X039957Y023697D01*
X039957Y023997D01*
X040057Y024097D01*
X039957Y024197D01*
X039957Y024497D01*
X040057Y024597D01*
X039957Y024697D01*
X039957Y024997D01*
X040057Y025097D01*
X039957Y025197D01*
X039957Y025497D01*
X040157Y021791D02*
X040457Y021791D01*
X040657Y021591D01*
X040657Y021291D01*
X040557Y021191D01*
X040657Y021091D01*
X040657Y020791D01*
X040557Y020691D01*
X040657Y020591D01*
X040657Y020291D01*
X040557Y020191D01*
X040657Y020091D01*
X040657Y019791D01*
X040557Y019691D01*
X040657Y019591D01*
X040657Y019291D01*
X040457Y019091D01*
X040157Y019091D01*
X039957Y019291D01*
X039957Y019591D01*
X040057Y019691D01*
X039957Y019791D01*
X039957Y020091D01*
X040057Y020191D01*
X039957Y020291D01*
X039957Y020591D01*
X040057Y020691D01*
X039957Y020791D01*
X039957Y021091D01*
X040057Y021191D01*
X039957Y021291D01*
X039957Y021591D01*
X040157Y021791D01*
X038089Y020270D02*
X038089Y019641D01*
X036200Y019641D02*
X036200Y020270D01*
X034358Y020291D02*
X034358Y020591D01*
X034258Y020691D01*
X034358Y020791D01*
X034358Y021091D01*
X034258Y021191D01*
X034358Y021291D01*
X034358Y021591D01*
X034158Y021791D01*
X033858Y021791D01*
X033658Y021591D01*
X033658Y021291D01*
X033758Y021191D01*
X033658Y021091D01*
X033658Y020791D01*
X033758Y020691D01*
X033658Y020591D01*
X033658Y020291D01*
X033758Y020191D01*
X033658Y020091D01*
X033658Y019791D01*
X033758Y019691D01*
X033658Y019591D01*
X033658Y019291D01*
X033858Y019091D01*
X034158Y019091D01*
X034358Y019291D01*
X034358Y019591D01*
X034258Y019691D01*
X034358Y019791D01*
X034358Y020091D01*
X034258Y020191D01*
X034358Y020291D01*
X030550Y020050D02*
X030550Y019650D01*
X030350Y019450D01*
X030350Y019250D01*
X030550Y019050D01*
X030550Y018650D01*
X030350Y018450D01*
X030350Y018250D01*
X030550Y018250D01*
X030550Y017450D01*
X029750Y017450D01*
X029750Y018250D01*
X029950Y018250D01*
X029950Y018450D01*
X029750Y018650D01*
X029750Y019050D01*
X029950Y019250D01*
X029950Y019450D01*
X029750Y019650D01*
X029750Y020050D01*
X029950Y020250D01*
X029950Y020450D01*
X029750Y020650D01*
X029750Y021050D01*
X029950Y021250D01*
X029950Y021450D01*
X029750Y021650D01*
X029750Y022050D01*
X029950Y022250D01*
X030350Y022250D01*
X030550Y022050D01*
X030550Y021650D01*
X030350Y021450D01*
X030350Y021250D01*
X030550Y021050D01*
X030550Y020650D01*
X030350Y020450D01*
X030350Y020250D01*
X030550Y020050D01*
X027967Y022412D02*
X027791Y022412D01*
X029950Y016550D02*
X030350Y016550D01*
X030550Y016350D01*
X030550Y015950D01*
X030350Y015750D01*
X030350Y015550D01*
X030550Y015350D01*
X030550Y014950D01*
X030350Y014750D01*
X030350Y014550D01*
X030550Y014350D01*
X030550Y013950D01*
X030350Y013750D01*
X030350Y013550D01*
X030550Y013350D01*
X030550Y012950D01*
X030350Y012750D01*
X030350Y012550D01*
X030550Y012350D01*
X030550Y011950D01*
X030350Y011750D01*
X030350Y011550D01*
X030550Y011550D01*
X030550Y010750D01*
X029750Y010750D01*
X029750Y011550D01*
X029950Y011550D01*
X029950Y011750D01*
X029750Y011950D01*
X029750Y012350D01*
X029950Y012550D01*
X029950Y012750D01*
X029750Y012950D01*
X029750Y013350D01*
X029950Y013550D01*
X029950Y013750D01*
X029750Y013950D01*
X029750Y014350D01*
X029950Y014550D01*
X029950Y014750D01*
X029750Y014950D01*
X029750Y015350D01*
X029950Y015550D01*
X029950Y015750D01*
X029750Y015950D01*
X029750Y016350D01*
X029950Y016550D01*
X039695Y015130D02*
X039695Y014730D01*
X039895Y014530D01*
X039895Y014330D01*
X039695Y014130D01*
X039695Y013730D01*
X039895Y013530D01*
X039895Y013330D01*
X039695Y013330D01*
X039695Y012530D01*
X040495Y012530D01*
X040495Y013330D01*
X040295Y013330D01*
X040295Y013530D01*
X040495Y013730D01*
X040495Y014130D01*
X040295Y014330D01*
X040295Y014530D01*
X040495Y014730D01*
X040495Y015130D01*
X040295Y015330D01*
X039895Y015330D01*
X039695Y015130D01*
X030550Y008350D02*
X030550Y007950D01*
X030350Y007750D01*
X030350Y007550D01*
X030550Y007350D01*
X030550Y006950D01*
X030350Y006750D01*
X030350Y006550D01*
X030550Y006350D01*
X030550Y005950D01*
X030350Y005750D01*
X030350Y005550D01*
X030550Y005550D01*
X030550Y004750D01*
X029750Y004750D01*
X029750Y005550D01*
X029950Y005550D01*
X029950Y005750D01*
X029750Y005950D01*
X029750Y006350D01*
X029950Y006550D01*
X029950Y006750D01*
X029750Y006950D01*
X029750Y007350D01*
X029950Y007550D01*
X029950Y007750D01*
X029750Y007950D01*
X029750Y008350D01*
X029950Y008550D01*
X030350Y008550D01*
X030550Y008350D01*
X028565Y008380D02*
X028565Y007120D01*
X027935Y007120D01*
X027935Y008380D01*
X028565Y008380D01*
X028565Y006380D02*
X027935Y006380D01*
X027935Y005120D01*
X028565Y005120D01*
X028565Y006380D01*
X039695Y004803D02*
X039695Y004403D01*
X039895Y004203D01*
X039895Y004003D01*
X039695Y003803D01*
X039695Y003403D01*
X039895Y003203D01*
X039895Y003003D01*
X039695Y002803D01*
X039695Y002403D01*
X039895Y002203D01*
X039895Y002003D01*
X039695Y002003D01*
X039695Y001203D01*
X040495Y001203D01*
X040495Y002003D01*
X040295Y002003D01*
X040295Y002203D01*
X040495Y002403D01*
X040495Y002803D01*
X040295Y003003D01*
X040295Y003203D01*
X040495Y003403D01*
X040495Y003803D01*
X040295Y004003D01*
X040295Y004203D01*
X040495Y004403D01*
X040495Y004803D01*
X040295Y005003D01*
X039895Y005003D01*
X039695Y004803D01*
X009836Y024361D02*
X009838Y024380D01*
X009843Y024399D01*
X009853Y024415D01*
X009865Y024430D01*
X009880Y024442D01*
X009896Y024452D01*
X009915Y024457D01*
X009934Y024459D01*
X009953Y024457D01*
X009972Y024452D01*
X009988Y024442D01*
X010003Y024430D01*
X010015Y024415D01*
X010025Y024399D01*
X010030Y024380D01*
X010032Y024361D01*
X010030Y024342D01*
X010025Y024323D01*
X010015Y024307D01*
X010003Y024292D01*
X009988Y024280D01*
X009972Y024270D01*
X009953Y024265D01*
X009934Y024263D01*
X009915Y024265D01*
X009896Y024270D01*
X009880Y024280D01*
X009865Y024292D01*
X009853Y024307D01*
X009843Y024323D01*
X009838Y024342D01*
X009836Y024361D01*
X009737Y024263D02*
X009737Y024558D01*
X009737Y024263D02*
X009442Y024263D01*
X008458Y024263D02*
X008163Y024263D01*
X008163Y024558D01*
X008163Y025542D02*
X008163Y025837D01*
X008458Y025837D01*
X009442Y025837D02*
X009737Y025837D01*
X009737Y025542D01*
X003610Y025622D02*
X003610Y024678D01*
X003610Y023654D02*
X003610Y023024D01*
X001090Y023024D01*
X001090Y023654D01*
X001090Y023024D02*
X001011Y022945D01*
X001090Y022867D01*
X001011Y022788D01*
X001090Y022709D01*
X001011Y022630D01*
X001090Y022552D01*
X001011Y022473D01*
X001090Y022394D01*
X001011Y022315D01*
X001090Y022237D01*
X001011Y022158D01*
X001090Y022079D01*
X001011Y022000D01*
X001090Y021922D01*
X001011Y021843D01*
X001090Y021764D01*
X001011Y021685D01*
X001090Y021607D01*
X001011Y021528D01*
X001090Y021449D01*
X001011Y021370D01*
X001090Y021292D01*
X001011Y021213D01*
X001090Y021134D01*
X001011Y021056D01*
X001090Y020977D01*
X001011Y020898D01*
X001090Y020819D01*
X001011Y020741D01*
X001090Y020662D01*
X001011Y020583D01*
X001090Y020504D01*
X003610Y020504D01*
X003689Y020583D01*
X003610Y020662D01*
X003689Y020741D01*
X003610Y020819D01*
X003689Y020898D01*
X003610Y020977D01*
X003689Y021056D01*
X003610Y021134D01*
X003689Y021213D01*
X003610Y021292D01*
X003689Y021370D01*
X003610Y021449D01*
X003689Y021528D01*
X003610Y021607D01*
X003689Y021685D01*
X003610Y021764D01*
X003689Y021843D01*
X003610Y021922D01*
X003689Y022000D01*
X003610Y022079D01*
X003689Y022158D01*
X003610Y022237D01*
X003689Y022315D01*
X003610Y022394D01*
X003689Y022473D01*
X003610Y022552D01*
X003689Y022630D01*
X003610Y022709D01*
X003689Y022788D01*
X003610Y022867D01*
X003689Y022945D01*
X003610Y023024D01*
X002980Y023733D02*
X001720Y023733D01*
X001799Y023811D02*
X002901Y023811D01*
X001470Y025150D02*
X001472Y025209D01*
X001478Y025267D01*
X001488Y025325D01*
X001501Y025382D01*
X001519Y025439D01*
X001540Y025494D01*
X001565Y025547D01*
X001593Y025598D01*
X001624Y025648D01*
X001659Y025695D01*
X001697Y025740D01*
X001738Y025783D01*
X001782Y025822D01*
X001828Y025858D01*
X001876Y025892D01*
X001927Y025922D01*
X001980Y025948D01*
X002034Y025971D01*
X002089Y025990D01*
X002146Y026006D01*
X002204Y026018D01*
X002262Y026026D01*
X002321Y026030D01*
X002379Y026030D01*
X002438Y026026D01*
X002496Y026018D01*
X002554Y026006D01*
X002611Y025990D01*
X002666Y025971D01*
X002720Y025948D01*
X002773Y025922D01*
X002824Y025892D01*
X002872Y025858D01*
X002918Y025822D01*
X002962Y025783D01*
X003003Y025740D01*
X003041Y025695D01*
X003076Y025648D01*
X003107Y025598D01*
X003135Y025547D01*
X003160Y025494D01*
X003181Y025439D01*
X003199Y025382D01*
X003212Y025325D01*
X003222Y025267D01*
X003228Y025209D01*
X003230Y025150D01*
X003228Y025091D01*
X003222Y025033D01*
X003212Y024975D01*
X003199Y024918D01*
X003181Y024861D01*
X003160Y024806D01*
X003135Y024753D01*
X003107Y024702D01*
X003076Y024652D01*
X003041Y024605D01*
X003003Y024560D01*
X002962Y024517D01*
X002918Y024478D01*
X002872Y024442D01*
X002824Y024408D01*
X002773Y024378D01*
X002720Y024352D01*
X002666Y024329D01*
X002611Y024310D01*
X002554Y024294D01*
X002496Y024282D01*
X002438Y024274D01*
X002379Y024270D01*
X002321Y024270D01*
X002262Y024274D01*
X002204Y024282D01*
X002146Y024294D01*
X002089Y024310D01*
X002034Y024329D01*
X001980Y024352D01*
X001927Y024378D01*
X001876Y024408D01*
X001828Y024442D01*
X001782Y024478D01*
X001738Y024517D01*
X001697Y024560D01*
X001659Y024605D01*
X001624Y024652D01*
X001593Y024702D01*
X001565Y024753D01*
X001540Y024806D01*
X001519Y024861D01*
X001501Y024918D01*
X001488Y024975D01*
X001478Y025033D01*
X001472Y025091D01*
X001470Y025150D01*
X001090Y025622D02*
X001090Y024678D01*
X001878Y026410D02*
X002822Y026410D01*
X003610Y020504D02*
X003610Y020111D01*
X001090Y020111D01*
X001090Y020504D01*
X001950Y013250D02*
X002350Y013250D01*
X002550Y013050D01*
X002550Y012650D01*
X002350Y012450D01*
X002350Y012250D01*
X002550Y012050D01*
X002550Y011650D01*
X002350Y011450D01*
X002350Y011250D01*
X002550Y011050D01*
X002550Y010650D01*
X002350Y010450D01*
X002350Y010250D01*
X002550Y010050D01*
X002550Y009650D01*
X002350Y009450D01*
X002350Y009250D01*
X002550Y009050D01*
X002550Y008650D01*
X002350Y008450D01*
X002350Y008250D01*
X002550Y008250D01*
X002550Y007450D01*
X001750Y007450D01*
X001750Y008250D01*
X001950Y008250D01*
X001950Y008450D01*
X001750Y008650D01*
X001750Y009050D01*
X001950Y009250D01*
X001950Y009450D01*
X001750Y009650D01*
X001750Y010050D01*
X001950Y010250D01*
X001950Y010450D01*
X001750Y010650D01*
X001750Y011050D01*
X001950Y011250D01*
X001950Y011450D01*
X001750Y011650D01*
X001750Y012050D01*
X001950Y012250D01*
X001950Y012450D01*
X001750Y012650D01*
X001750Y013050D01*
X001950Y013250D01*
X001950Y006550D02*
X002350Y006550D01*
X002550Y006350D01*
X002550Y005950D01*
X002350Y005750D01*
X002350Y005550D01*
X002550Y005550D01*
X002550Y004750D01*
X001750Y004750D01*
X001750Y005550D01*
X001950Y005550D01*
X001950Y005750D01*
X001750Y005950D01*
X001750Y006350D01*
X001950Y006550D01*
D14*
X004484Y004455D02*
X004546Y004394D01*
X004669Y004394D01*
X004731Y004455D01*
X004731Y004764D01*
X004853Y004764D02*
X005038Y004764D01*
X005099Y004702D01*
X005099Y004579D01*
X005038Y004517D01*
X004853Y004517D01*
X004976Y004517D02*
X005099Y004394D01*
X005221Y004394D02*
X005468Y004394D01*
X005589Y004455D02*
X005651Y004394D01*
X005774Y004394D01*
X005836Y004455D01*
X005836Y004579D01*
X005713Y004579D01*
X005836Y004702D02*
X005774Y004764D01*
X005651Y004764D01*
X005589Y004702D01*
X005589Y004455D01*
X005344Y004579D02*
X005221Y004579D01*
X005221Y004764D02*
X005221Y004394D01*
X004853Y004394D02*
X004853Y004764D01*
X005221Y004764D02*
X005468Y004764D01*
X004484Y004764D02*
X004484Y004455D01*
X007202Y003833D02*
X007325Y003710D01*
X007263Y003588D02*
X007202Y003527D01*
X007202Y003403D01*
X007263Y003341D01*
X007510Y003341D01*
X007572Y003403D01*
X007572Y003527D01*
X007510Y003588D01*
X007572Y003710D02*
X007572Y003957D01*
X007572Y003833D02*
X007202Y003833D01*
X010215Y003845D02*
X010276Y003783D01*
X010523Y003783D01*
X010585Y003845D01*
X010585Y003968D01*
X010523Y004030D01*
X010585Y004152D02*
X010338Y004152D01*
X010215Y004275D01*
X010338Y004399D01*
X010585Y004399D01*
X010585Y004520D02*
X010215Y004520D01*
X010585Y004767D01*
X010215Y004767D01*
X010400Y004399D02*
X010400Y004152D01*
X010276Y004030D02*
X010215Y003968D01*
X010215Y003845D01*
X010215Y003662D02*
X010523Y003662D01*
X010585Y003600D01*
X010585Y003477D01*
X010523Y003415D01*
X010215Y003415D01*
X012857Y001885D02*
X012857Y001515D01*
X012857Y001638D02*
X013042Y001638D01*
X013104Y001700D01*
X013104Y001824D01*
X013042Y001885D01*
X012857Y001885D01*
X012980Y001638D02*
X013104Y001515D01*
X013225Y001577D02*
X013287Y001515D01*
X013410Y001515D01*
X013472Y001577D01*
X013593Y001515D02*
X013593Y001762D01*
X013717Y001885D01*
X013840Y001762D01*
X013840Y001515D01*
X013962Y001515D02*
X013962Y001885D01*
X014209Y001515D01*
X014209Y001885D01*
X013840Y001700D02*
X013593Y001700D01*
X013472Y001824D02*
X013410Y001885D01*
X013287Y001885D01*
X013225Y001824D01*
X013225Y001577D01*
X015390Y001637D02*
X015390Y001452D01*
X015760Y001452D01*
X015760Y001637D01*
X015698Y001699D01*
X015451Y001699D01*
X015390Y001637D01*
X015390Y001330D02*
X015390Y001083D01*
X015760Y001083D01*
X015760Y001330D01*
X015575Y001207D02*
X015575Y001083D01*
X015760Y000962D02*
X015760Y000715D01*
X015390Y000715D01*
X015822Y001820D02*
X015822Y002067D01*
X015760Y002312D02*
X015390Y002312D01*
X015390Y002435D02*
X015390Y002188D01*
X015390Y002557D02*
X015760Y002803D01*
X015760Y002557D02*
X015390Y002803D01*
X016015Y003100D02*
X016015Y003285D01*
X016076Y003347D01*
X016200Y003347D01*
X016262Y003285D01*
X016262Y003100D01*
X016385Y003100D02*
X016015Y003100D01*
X016262Y003223D02*
X016385Y003347D01*
X016385Y003468D02*
X016385Y003715D01*
X016385Y003960D02*
X016015Y003960D01*
X016015Y003837D02*
X016015Y004084D01*
X016015Y004205D02*
X016385Y004452D01*
X016385Y004205D02*
X016015Y004452D01*
X015488Y004815D02*
X015488Y005185D01*
X015242Y005185D02*
X015242Y004815D01*
X015120Y004815D02*
X015120Y005062D01*
X014997Y005185D01*
X014873Y005062D01*
X014873Y004815D01*
X014752Y004877D02*
X014690Y004815D01*
X014567Y004815D01*
X014505Y004877D01*
X014505Y005124D01*
X014567Y005185D01*
X014690Y005185D01*
X014752Y005124D01*
X014873Y005000D02*
X015120Y005000D01*
X015242Y005185D02*
X015488Y004815D01*
X014384Y004753D02*
X014137Y004753D01*
X014015Y004877D02*
X013954Y004815D01*
X013830Y004815D01*
X013768Y004877D01*
X013647Y004815D02*
X013523Y004938D01*
X013585Y004938D02*
X013400Y004938D01*
X013400Y004815D02*
X013400Y005185D01*
X013585Y005185D01*
X013647Y005124D01*
X013647Y005000D01*
X013585Y004938D01*
X013768Y005062D02*
X013768Y005124D01*
X013830Y005185D01*
X013954Y005185D01*
X014015Y005124D01*
X013954Y005000D02*
X014015Y004938D01*
X014015Y004877D01*
X013954Y005000D02*
X013830Y005000D01*
X013768Y005062D01*
X013778Y006515D02*
X013778Y006885D01*
X014025Y006515D01*
X014025Y006885D01*
X013657Y006762D02*
X013657Y006515D01*
X013657Y006700D02*
X013410Y006700D01*
X013410Y006762D02*
X013533Y006885D01*
X013657Y006762D01*
X013410Y006762D02*
X013410Y006515D01*
X013288Y006577D02*
X013227Y006515D01*
X013103Y006515D01*
X013042Y006577D01*
X013042Y006824D01*
X013103Y006885D01*
X013227Y006885D01*
X013288Y006824D01*
X012920Y006453D02*
X012673Y006453D01*
X012490Y006638D02*
X012305Y006638D01*
X012305Y006515D02*
X012305Y006885D01*
X012490Y006885D01*
X012552Y006824D01*
X012552Y006700D01*
X012490Y006638D01*
X012184Y006824D02*
X012184Y006885D01*
X012184Y006824D02*
X012060Y006700D01*
X012060Y006515D01*
X012060Y006700D02*
X011937Y006824D01*
X011937Y006885D01*
X011815Y006824D02*
X011815Y006762D01*
X011754Y006700D01*
X011568Y006700D01*
X011447Y006577D02*
X011385Y006515D01*
X011262Y006515D01*
X011200Y006577D01*
X011200Y006824D01*
X011262Y006885D01*
X011385Y006885D01*
X011447Y006824D01*
X011568Y006885D02*
X011754Y006885D01*
X011815Y006824D01*
X011754Y006700D02*
X011815Y006638D01*
X011815Y006577D01*
X011754Y006515D01*
X011568Y006515D01*
X011568Y006885D01*
X016015Y003468D02*
X016385Y003468D01*
X016815Y003468D02*
X017185Y003468D01*
X017185Y003715D01*
X017185Y003837D02*
X016815Y003837D01*
X016815Y004022D01*
X016876Y004084D01*
X017000Y004084D01*
X017062Y004022D01*
X017062Y003837D01*
X017062Y003960D02*
X017185Y004084D01*
X017185Y004205D02*
X016815Y004452D01*
X016815Y004205D02*
X017185Y004452D01*
X017185Y003347D02*
X017062Y003223D01*
X017062Y003285D02*
X017062Y003100D01*
X017185Y003100D02*
X016815Y003100D01*
X016815Y003285D01*
X016876Y003347D01*
X017000Y003347D01*
X017062Y003285D01*
X017390Y002803D02*
X017760Y002557D01*
X017760Y002435D02*
X017637Y002312D01*
X017637Y002373D02*
X017637Y002188D01*
X017760Y002188D02*
X017390Y002188D01*
X017390Y002373D01*
X017451Y002435D01*
X017575Y002435D01*
X017637Y002373D01*
X017390Y002557D02*
X017760Y002803D01*
X017822Y002067D02*
X017822Y001820D01*
X017698Y001699D02*
X017451Y001699D01*
X017390Y001637D01*
X017390Y001452D01*
X017760Y001452D01*
X017760Y001637D01*
X017698Y001699D01*
X017760Y001330D02*
X017760Y001083D01*
X017390Y001083D01*
X017390Y001330D01*
X017575Y001207D02*
X017575Y001083D01*
X017760Y000962D02*
X017760Y000715D01*
X017390Y000715D01*
X021365Y004627D02*
X021427Y004565D01*
X021550Y004565D01*
X021612Y004627D01*
X021612Y004935D01*
X021733Y004935D02*
X021733Y004627D01*
X021795Y004565D01*
X021918Y004565D01*
X021980Y004627D01*
X021980Y004935D01*
X022102Y004874D02*
X022102Y004812D01*
X022163Y004750D01*
X022287Y004750D01*
X022349Y004688D01*
X022349Y004627D01*
X022287Y004565D01*
X022163Y004565D01*
X022102Y004627D01*
X022102Y004874D02*
X022163Y004935D01*
X022287Y004935D01*
X022349Y004874D01*
X022470Y004935D02*
X022655Y004935D01*
X022717Y004874D01*
X022717Y004812D01*
X022655Y004750D01*
X022470Y004750D01*
X022470Y004565D02*
X022655Y004565D01*
X022717Y004627D01*
X022717Y004688D01*
X022655Y004750D01*
X022470Y004565D02*
X022470Y004935D01*
X023515Y004905D02*
X023515Y005090D01*
X023576Y005152D01*
X023700Y005152D01*
X023762Y005090D01*
X023762Y004905D01*
X023885Y004905D02*
X023515Y004905D01*
X023515Y004784D02*
X023576Y004784D01*
X023700Y004660D01*
X023885Y004660D01*
X023700Y004660D02*
X023576Y004537D01*
X023515Y004537D01*
X023576Y004415D02*
X023515Y004354D01*
X023515Y004168D01*
X023885Y004168D01*
X023885Y004354D01*
X023823Y004415D01*
X023762Y004415D01*
X023700Y004354D01*
X023700Y004168D01*
X023823Y004047D02*
X023885Y003985D01*
X023885Y003862D01*
X023823Y003800D01*
X023576Y003800D01*
X023515Y003862D01*
X023515Y003985D01*
X023576Y004047D01*
X023700Y004354D02*
X023638Y004415D01*
X023576Y004415D01*
X023947Y005273D02*
X023947Y005520D01*
X023885Y005642D02*
X023515Y005642D01*
X023515Y005888D01*
X023515Y006010D02*
X023515Y006257D01*
X023515Y006378D02*
X023515Y006563D01*
X023576Y006625D01*
X023823Y006625D01*
X023885Y006563D01*
X023885Y006378D01*
X023515Y006378D01*
X023515Y006133D02*
X023885Y006133D01*
X023700Y005765D02*
X023700Y005642D01*
X023885Y006747D02*
X023885Y006870D01*
X023885Y006808D02*
X023515Y006808D01*
X023515Y006747D02*
X023515Y006870D01*
X023576Y006992D02*
X023515Y007054D01*
X023515Y007177D01*
X023576Y007239D01*
X023638Y007239D01*
X023885Y006992D01*
X023885Y007239D01*
X021365Y004935D02*
X021365Y004627D01*
X027843Y004718D02*
X027905Y004656D01*
X028028Y004656D01*
X028090Y004718D01*
X028090Y004965D01*
X028028Y005027D01*
X027905Y005027D01*
X027843Y004965D01*
X027843Y004718D01*
X027967Y004780D02*
X028090Y004656D01*
X028212Y004656D02*
X028459Y004903D01*
X028459Y004965D01*
X028397Y005027D01*
X028273Y005027D01*
X028212Y004965D01*
X028212Y004656D02*
X028459Y004656D01*
X030665Y004988D02*
X030665Y005112D01*
X030665Y005050D02*
X030973Y005050D01*
X031035Y004988D01*
X031035Y004927D01*
X030973Y004865D01*
X030665Y005233D02*
X030665Y005480D01*
X030665Y005602D02*
X030665Y005787D01*
X030726Y005849D01*
X030850Y005849D01*
X030912Y005787D01*
X030912Y005602D01*
X031035Y005602D02*
X030665Y005602D01*
X030665Y005357D02*
X031035Y005357D01*
X030912Y005725D02*
X031035Y005849D01*
X031035Y005970D02*
X030788Y005970D01*
X030665Y006093D01*
X030788Y006217D01*
X031035Y006217D01*
X031035Y006338D02*
X030665Y006338D01*
X031035Y006585D01*
X030665Y006585D01*
X030850Y006217D02*
X030850Y005970D01*
X028565Y008474D02*
X028318Y008474D01*
X028197Y008474D02*
X028073Y008597D01*
X027950Y008535D02*
X027950Y008782D01*
X028012Y008844D01*
X028135Y008844D01*
X028197Y008782D01*
X028197Y008535D01*
X028135Y008474D01*
X028012Y008474D01*
X027950Y008535D01*
X028318Y008721D02*
X028442Y008844D01*
X028442Y008474D01*
X030973Y010765D02*
X031035Y010827D01*
X031035Y010888D01*
X030973Y010950D01*
X030665Y010950D01*
X030665Y010888D02*
X030665Y011012D01*
X030665Y011133D02*
X030665Y011318D01*
X030726Y011380D01*
X030973Y011380D01*
X031035Y011318D01*
X031035Y011133D01*
X030665Y011133D01*
X030665Y011502D02*
X030665Y011687D01*
X030726Y011749D01*
X030850Y011749D01*
X030912Y011687D01*
X030912Y011502D01*
X031035Y011502D02*
X030665Y011502D01*
X030912Y011625D02*
X031035Y011749D01*
X030973Y011870D02*
X031035Y011932D01*
X031035Y012055D01*
X030973Y012117D01*
X030665Y012117D01*
X030665Y012238D02*
X030788Y012362D01*
X030665Y012485D01*
X031035Y012485D01*
X031035Y012238D02*
X030665Y012238D01*
X030665Y011870D02*
X030973Y011870D01*
X028962Y015528D02*
X028962Y015898D01*
X028838Y015775D01*
X028715Y015898D01*
X028715Y015528D01*
X028593Y015590D02*
X028593Y015898D01*
X028346Y015898D02*
X028346Y015590D01*
X028408Y015528D01*
X028531Y015528D01*
X028593Y015590D01*
X028225Y015528D02*
X028101Y015651D01*
X028163Y015651D02*
X027978Y015651D01*
X027978Y015528D02*
X027978Y015898D01*
X028163Y015898D01*
X028225Y015837D01*
X028225Y015713D01*
X028163Y015651D01*
X027857Y015590D02*
X027795Y015528D01*
X027610Y015528D01*
X027610Y015898D01*
X027795Y015898D01*
X027857Y015837D01*
X027857Y015590D01*
X027488Y015590D02*
X027427Y015528D01*
X027303Y015528D01*
X027241Y015590D01*
X027241Y015837D01*
X027303Y015898D01*
X027427Y015898D01*
X027488Y015837D01*
X027915Y018388D02*
X027915Y018574D01*
X027976Y018635D01*
X028100Y018635D01*
X028162Y018574D01*
X028162Y018388D01*
X028285Y018388D02*
X027915Y018388D01*
X028162Y018512D02*
X028285Y018635D01*
X028285Y018757D02*
X027915Y018757D01*
X028038Y018880D01*
X027915Y019004D01*
X028285Y019004D01*
X028223Y019125D02*
X027976Y019125D01*
X027915Y019187D01*
X027915Y019310D01*
X027976Y019372D01*
X027915Y019493D02*
X028285Y019493D01*
X028285Y019740D01*
X028285Y019862D02*
X027915Y019862D01*
X027915Y020047D01*
X027976Y020109D01*
X028100Y020109D01*
X028162Y020047D01*
X028162Y019862D01*
X028162Y019985D02*
X028285Y020109D01*
X028223Y019372D02*
X028285Y019310D01*
X028285Y019187D01*
X028223Y019125D01*
X030765Y019101D02*
X030765Y018915D01*
X031135Y018915D01*
X031012Y018915D02*
X031012Y019101D01*
X030950Y019162D01*
X030826Y019162D01*
X030765Y019101D01*
X030826Y018794D02*
X030765Y018732D01*
X030765Y018609D01*
X030826Y018547D01*
X030888Y018547D01*
X030950Y018609D01*
X030950Y018732D01*
X031012Y018794D01*
X031073Y018794D01*
X031135Y018732D01*
X031135Y018609D01*
X031073Y018547D01*
X031073Y018426D02*
X031135Y018364D01*
X031135Y018241D01*
X031073Y018179D01*
X030826Y018179D01*
X030765Y018241D01*
X030765Y018364D01*
X030826Y018426D01*
X030765Y018057D02*
X030765Y017933D01*
X030765Y017995D02*
X031135Y017995D01*
X031135Y017933D02*
X031135Y018057D01*
X031073Y017750D02*
X030765Y017750D01*
X030765Y017688D02*
X030765Y017812D01*
X031073Y017750D02*
X031135Y017688D01*
X031135Y017627D01*
X031073Y017565D01*
X016510Y028073D02*
X016510Y028320D01*
X016510Y028442D02*
X016510Y028689D01*
X016510Y028810D02*
X016510Y028995D01*
X016448Y029057D01*
X016201Y029057D01*
X016140Y028995D01*
X016140Y028810D01*
X016510Y028810D01*
X016325Y028565D02*
X016325Y028442D01*
X016140Y028442D02*
X016510Y028442D01*
X016510Y028073D02*
X016140Y028073D01*
X015810Y028073D02*
X015810Y028320D01*
X015810Y028442D02*
X015810Y028689D01*
X015810Y028810D02*
X015810Y028995D01*
X015748Y029057D01*
X015501Y029057D01*
X015440Y028995D01*
X015440Y028810D01*
X015810Y028810D01*
X015625Y028565D02*
X015625Y028442D01*
X015440Y028442D02*
X015810Y028442D01*
X016140Y028442D02*
X016140Y028689D01*
X015872Y029178D02*
X015872Y029425D01*
X015810Y029547D02*
X015563Y029794D01*
X015501Y029794D01*
X015440Y029732D01*
X015440Y029608D01*
X015501Y029547D01*
X015810Y029547D02*
X015810Y029794D01*
X016140Y029670D02*
X016263Y029547D01*
X016140Y029670D02*
X016510Y029670D01*
X016510Y029547D02*
X016510Y029794D01*
X016572Y029425D02*
X016572Y029178D01*
X017325Y030115D02*
X017325Y030485D01*
X017510Y030485D01*
X017572Y030424D01*
X017572Y030300D01*
X017510Y030238D01*
X017325Y030238D01*
X017448Y030238D02*
X017572Y030115D01*
X017693Y030115D02*
X017940Y030115D01*
X018062Y030115D02*
X018309Y030115D01*
X018185Y030115D02*
X018185Y030485D01*
X018062Y030362D01*
X017693Y030485D02*
X017693Y030115D01*
X015440Y028689D02*
X015440Y028442D01*
X015440Y028073D02*
X015810Y028073D01*
X014447Y026510D02*
X014508Y026449D01*
X014508Y026387D01*
X014447Y026325D01*
X014508Y026263D01*
X014508Y026202D01*
X014447Y026140D01*
X014323Y026140D01*
X014262Y026202D01*
X014140Y026202D02*
X014140Y026449D01*
X014078Y026510D01*
X013893Y026510D01*
X013893Y026140D01*
X014078Y026140D01*
X014140Y026202D01*
X014385Y026325D02*
X014447Y026325D01*
X014447Y026510D02*
X014323Y026510D01*
X014262Y026449D01*
X013772Y026510D02*
X013525Y026510D01*
X013525Y026140D01*
X013403Y026140D02*
X013280Y026263D01*
X013342Y026263D02*
X013157Y026263D01*
X013157Y026140D02*
X013157Y026510D01*
X013342Y026510D01*
X013403Y026449D01*
X013403Y026325D01*
X013342Y026263D01*
X013525Y026325D02*
X013648Y026325D01*
X013035Y026078D02*
X012788Y026078D01*
X012605Y026263D02*
X012420Y026263D01*
X012420Y026140D02*
X012420Y026510D01*
X012605Y026510D01*
X012667Y026449D01*
X012667Y026325D01*
X012605Y026263D01*
X012299Y026449D02*
X012299Y026510D01*
X012299Y026449D02*
X012175Y026325D01*
X012175Y026140D01*
X012175Y026325D02*
X012052Y026449D01*
X012052Y026510D01*
X011930Y026449D02*
X011930Y026387D01*
X011868Y026325D01*
X011683Y026325D01*
X011562Y026202D02*
X011500Y026140D01*
X011377Y026140D01*
X011315Y026202D01*
X011315Y026449D01*
X011377Y026510D01*
X011500Y026510D01*
X011562Y026449D01*
X011683Y026510D02*
X011683Y026140D01*
X011868Y026140D01*
X011930Y026202D01*
X011930Y026263D01*
X011868Y026325D01*
X011930Y026449D02*
X011868Y026510D01*
X011683Y026510D01*
X011625Y026840D02*
X011625Y027210D01*
X011872Y027210D01*
X011993Y027087D02*
X011993Y026840D01*
X011993Y027025D02*
X012240Y027025D01*
X012240Y027087D02*
X012240Y026840D01*
X012362Y026840D02*
X012608Y027087D01*
X012608Y027149D01*
X012547Y027210D01*
X012423Y027210D01*
X012362Y027149D01*
X012240Y027087D02*
X012117Y027210D01*
X011993Y027087D01*
X011748Y027025D02*
X011625Y027025D01*
X011503Y027025D02*
X011503Y027149D01*
X011442Y027210D01*
X011257Y027210D01*
X011257Y026840D01*
X011257Y026963D02*
X011442Y026963D01*
X011503Y027025D01*
X011380Y026963D02*
X011503Y026840D01*
X011135Y026778D02*
X010888Y026778D01*
X010705Y026963D02*
X010767Y027025D01*
X010767Y027149D01*
X010705Y027210D01*
X010520Y027210D01*
X010520Y026840D01*
X010520Y026963D02*
X010705Y026963D01*
X010399Y027149D02*
X010399Y027210D01*
X010399Y027149D02*
X010275Y027025D01*
X010275Y026840D01*
X010275Y027025D02*
X010152Y027149D01*
X010152Y027210D01*
X010030Y027149D02*
X010030Y027087D01*
X009968Y027025D01*
X009783Y027025D01*
X009662Y026902D02*
X009600Y026840D01*
X009477Y026840D01*
X009415Y026902D01*
X009415Y027149D01*
X009477Y027210D01*
X009600Y027210D01*
X009662Y027149D01*
X009783Y027210D02*
X009968Y027210D01*
X010030Y027149D01*
X009968Y027025D02*
X010030Y026963D01*
X010030Y026902D01*
X009968Y026840D01*
X009783Y026840D01*
X009783Y027210D01*
X009874Y027584D02*
X010244Y027831D01*
X010244Y027952D02*
X009998Y028199D01*
X009936Y028199D01*
X009874Y028137D01*
X009874Y028014D01*
X009936Y027952D01*
X009874Y027831D02*
X010244Y027584D01*
X010244Y027952D02*
X010244Y028199D01*
X009485Y028962D02*
X009423Y028900D01*
X009176Y028900D01*
X009115Y028962D01*
X009115Y029085D01*
X009176Y029147D01*
X009115Y029268D02*
X009485Y029515D01*
X009485Y029637D02*
X009238Y029884D01*
X009176Y029884D01*
X009115Y029822D01*
X009115Y029698D01*
X009176Y029637D01*
X009115Y029515D02*
X009485Y029268D01*
X009423Y029147D02*
X009485Y029085D01*
X009485Y028962D01*
X009485Y029637D02*
X009485Y029884D01*
X009547Y030005D02*
X009547Y030252D01*
X009485Y030373D02*
X009485Y030620D01*
X009485Y030497D02*
X009115Y030497D01*
X009238Y030373D01*
X008247Y030252D02*
X008247Y030005D01*
X008185Y029884D02*
X008185Y029637D01*
X007938Y029884D01*
X007876Y029884D01*
X007815Y029822D01*
X007815Y029698D01*
X007876Y029637D01*
X007815Y029515D02*
X008185Y029268D01*
X008123Y029147D02*
X008185Y029085D01*
X008185Y028962D01*
X008123Y028900D01*
X007876Y028900D01*
X007815Y028962D01*
X007815Y029085D01*
X007876Y029147D01*
X007815Y029268D02*
X008185Y029515D01*
X007322Y029235D02*
X007322Y028988D01*
X007137Y028805D02*
X007137Y028620D01*
X007260Y028620D02*
X006890Y028620D01*
X006890Y028805D01*
X006951Y028867D01*
X007075Y028867D01*
X007137Y028805D01*
X006951Y028499D02*
X006890Y028499D01*
X006951Y028499D02*
X007075Y028375D01*
X007260Y028375D01*
X007075Y028375D02*
X006951Y028252D01*
X006890Y028252D01*
X006951Y028130D02*
X007013Y028130D01*
X007075Y028068D01*
X007075Y027883D01*
X007198Y027762D02*
X007260Y027700D01*
X007260Y027577D01*
X007198Y027515D01*
X006951Y027515D01*
X006890Y027577D01*
X006890Y027700D01*
X006951Y027762D01*
X006890Y027883D02*
X006890Y028068D01*
X006951Y028130D01*
X007075Y028068D02*
X007137Y028130D01*
X007198Y028130D01*
X007260Y028068D01*
X007260Y027883D01*
X006890Y027883D01*
X006360Y028082D02*
X006298Y028020D01*
X006360Y028082D02*
X006360Y028205D01*
X006298Y028267D01*
X006237Y028267D01*
X006175Y028205D01*
X006175Y028143D01*
X006175Y028205D02*
X006113Y028267D01*
X006051Y028267D01*
X005990Y028205D01*
X005990Y028082D01*
X006051Y028020D01*
X005990Y027899D02*
X005990Y027652D01*
X006360Y027652D01*
X006360Y027530D02*
X006237Y027407D01*
X006237Y027468D02*
X006237Y027283D01*
X006360Y027283D02*
X005990Y027283D01*
X005990Y027468D01*
X006051Y027530D01*
X006175Y027530D01*
X006237Y027468D01*
X006175Y027652D02*
X006175Y027775D01*
X006298Y027162D02*
X006360Y027100D01*
X006360Y026977D01*
X006298Y026915D01*
X006051Y026915D01*
X005990Y026977D01*
X005990Y027100D01*
X006051Y027162D01*
X005760Y027167D02*
X005760Y026920D01*
X005513Y027167D01*
X005451Y027167D01*
X005390Y027105D01*
X005390Y026982D01*
X005451Y026920D01*
X005390Y026799D02*
X005390Y026552D01*
X005760Y026552D01*
X005760Y026430D02*
X005637Y026307D01*
X005637Y026368D02*
X005637Y026183D01*
X005760Y026183D02*
X005390Y026183D01*
X005390Y026368D01*
X005451Y026430D01*
X005575Y026430D01*
X005637Y026368D01*
X005575Y026552D02*
X005575Y026675D01*
X005760Y026062D02*
X005760Y025815D01*
X005390Y025815D01*
X004560Y026577D02*
X004560Y026700D01*
X004498Y026762D01*
X004437Y026883D02*
X004437Y027068D01*
X004375Y027130D01*
X004251Y027130D01*
X004190Y027068D01*
X004190Y026883D01*
X004560Y026883D01*
X004437Y027007D02*
X004560Y027130D01*
X004560Y027252D02*
X004190Y027252D01*
X004190Y027499D01*
X004375Y027620D02*
X004375Y027805D01*
X004437Y027867D01*
X004498Y027867D01*
X004560Y027805D01*
X004560Y027682D01*
X004498Y027620D01*
X004375Y027620D01*
X004251Y027743D01*
X004190Y027867D01*
X004375Y027375D02*
X004375Y027252D01*
X004251Y026762D02*
X004190Y026700D01*
X004190Y026577D01*
X004251Y026515D01*
X004498Y026515D01*
X004560Y026577D01*
X003217Y027135D02*
X002970Y027135D01*
X002849Y027135D02*
X002849Y026765D01*
X002602Y027135D01*
X002602Y026765D01*
X002480Y026765D02*
X002480Y027012D01*
X002357Y027135D01*
X002233Y027012D01*
X002233Y026765D01*
X002233Y026950D02*
X002480Y026950D01*
X002112Y027135D02*
X001988Y027135D01*
X002050Y027135D02*
X002050Y026827D01*
X001988Y026765D01*
X001927Y026765D01*
X001865Y026827D01*
X003093Y026765D02*
X003093Y027135D01*
X004301Y024594D02*
X004363Y024594D01*
X004425Y024532D01*
X004487Y024594D01*
X004548Y024594D01*
X004610Y024532D01*
X004610Y024408D01*
X004548Y024347D01*
X004425Y024470D02*
X004425Y024532D01*
X004301Y024594D02*
X004240Y024532D01*
X004240Y024408D01*
X004301Y024347D01*
X004240Y024225D02*
X004240Y023978D01*
X004610Y023978D01*
X004610Y023857D02*
X004487Y023733D01*
X004487Y023795D02*
X004487Y023610D01*
X004610Y023610D02*
X004240Y023610D01*
X004240Y023795D01*
X004301Y023857D01*
X004425Y023857D01*
X004487Y023795D01*
X004425Y023978D02*
X004425Y024102D01*
X004840Y023594D02*
X004840Y023347D01*
X005025Y023347D01*
X004963Y023470D01*
X004963Y023532D01*
X005025Y023594D01*
X005148Y023594D01*
X005210Y023532D01*
X005210Y023408D01*
X005148Y023347D01*
X005025Y023102D02*
X005025Y022978D01*
X005025Y022857D02*
X004901Y022857D01*
X004840Y022795D01*
X004840Y022610D01*
X005210Y022610D01*
X005087Y022610D02*
X005087Y022795D01*
X005025Y022857D01*
X005087Y022733D02*
X005210Y022857D01*
X005210Y022978D02*
X004840Y022978D01*
X004840Y023225D01*
X004610Y023242D02*
X004610Y023489D01*
X004610Y023242D02*
X004240Y023242D01*
X004901Y022489D02*
X004840Y022427D01*
X004840Y022303D01*
X004901Y022242D01*
X005148Y022242D01*
X005210Y022303D01*
X005210Y022427D01*
X005148Y022489D01*
X005501Y023042D02*
X005748Y023042D01*
X005810Y023103D01*
X005810Y023227D01*
X005748Y023289D01*
X005687Y023410D02*
X005687Y023595D01*
X005625Y023657D01*
X005501Y023657D01*
X005440Y023595D01*
X005440Y023410D01*
X005810Y023410D01*
X005687Y023533D02*
X005810Y023657D01*
X005810Y023778D02*
X005440Y023778D01*
X005440Y024025D01*
X005625Y024147D02*
X005625Y024394D01*
X005810Y024332D02*
X005440Y024332D01*
X005625Y024147D01*
X005625Y023902D02*
X005625Y023778D01*
X005501Y023289D02*
X005440Y023227D01*
X005440Y023103D01*
X005501Y023042D01*
X006040Y022925D02*
X006040Y022678D01*
X006410Y022678D01*
X006410Y022557D02*
X006287Y022433D01*
X006287Y022495D02*
X006287Y022310D01*
X006410Y022310D02*
X006040Y022310D01*
X006040Y022495D01*
X006101Y022557D01*
X006225Y022557D01*
X006287Y022495D01*
X006225Y022678D02*
X006225Y022802D01*
X006163Y023047D02*
X006040Y023170D01*
X006410Y023170D01*
X006410Y023047D02*
X006410Y023294D01*
X006840Y023327D02*
X006840Y023203D01*
X006901Y023142D01*
X007148Y023142D01*
X007210Y023203D01*
X007210Y023327D01*
X007148Y023389D01*
X007087Y023510D02*
X007087Y023695D01*
X007025Y023757D01*
X006901Y023757D01*
X006840Y023695D01*
X006840Y023510D01*
X007210Y023510D01*
X007087Y023633D02*
X007210Y023757D01*
X007210Y023878D02*
X006840Y023878D01*
X006840Y024125D01*
X006963Y024247D02*
X006840Y024370D01*
X007210Y024370D01*
X007210Y024247D02*
X007210Y024494D01*
X007025Y024002D02*
X007025Y023878D01*
X006901Y023389D02*
X006840Y023327D01*
X007440Y022770D02*
X007810Y022770D01*
X007810Y022647D02*
X007810Y022894D01*
X008040Y022832D02*
X008101Y022894D01*
X008163Y022894D01*
X008225Y022832D01*
X008287Y022894D01*
X008348Y022894D01*
X008410Y022832D01*
X008410Y022708D01*
X008348Y022647D01*
X008410Y022525D02*
X008163Y022525D01*
X008040Y022402D01*
X008163Y022278D01*
X008410Y022278D01*
X008225Y022278D02*
X008225Y022525D01*
X008101Y022647D02*
X008040Y022708D01*
X008040Y022832D01*
X008225Y022832D02*
X008225Y022770D01*
X007810Y022525D02*
X007563Y022525D01*
X007440Y022402D01*
X007563Y022278D01*
X007810Y022278D01*
X007625Y022278D02*
X007625Y022525D01*
X007563Y022647D02*
X007440Y022770D01*
X007440Y022157D02*
X007440Y021910D01*
X007810Y021910D01*
X007810Y021789D02*
X007687Y021665D01*
X007687Y021727D02*
X007687Y021542D01*
X007810Y021542D02*
X007440Y021542D01*
X007440Y021727D01*
X007501Y021789D01*
X007625Y021789D01*
X007687Y021727D01*
X007625Y021910D02*
X007625Y022033D01*
X008040Y021910D02*
X008040Y022157D01*
X008225Y022033D02*
X008225Y021910D01*
X008225Y021789D02*
X008287Y021727D01*
X008287Y021542D01*
X008410Y021542D02*
X008040Y021542D01*
X008040Y021727D01*
X008101Y021789D01*
X008225Y021789D01*
X008287Y021665D02*
X008410Y021789D01*
X008410Y021910D02*
X008040Y021910D01*
X007872Y021420D02*
X007872Y021173D01*
X008040Y020990D02*
X008101Y021052D01*
X008225Y021052D01*
X008287Y020990D01*
X008287Y020805D01*
X008410Y020805D02*
X008040Y020805D01*
X008040Y020990D01*
X007810Y020805D02*
X007440Y020805D01*
X007440Y020990D01*
X007501Y021052D01*
X007625Y021052D01*
X007687Y020990D01*
X007687Y020805D01*
X007501Y020684D02*
X007440Y020684D01*
X007501Y020684D02*
X007625Y020560D01*
X007810Y020560D01*
X007625Y020560D02*
X007501Y020437D01*
X007440Y020437D01*
X007501Y020315D02*
X007440Y020254D01*
X007440Y020068D01*
X007810Y020068D01*
X007810Y020254D01*
X007748Y020315D01*
X007687Y020315D01*
X007625Y020254D01*
X007625Y020068D01*
X007748Y019947D02*
X007810Y019885D01*
X007810Y019762D01*
X007748Y019700D01*
X007501Y019700D01*
X007440Y019762D01*
X007440Y019885D01*
X007501Y019947D01*
X007625Y020254D02*
X007563Y020315D01*
X007501Y020315D01*
X008040Y020254D02*
X008101Y020315D01*
X008163Y020315D01*
X008225Y020254D01*
X008225Y020068D01*
X008348Y019947D02*
X008410Y019885D01*
X008410Y019762D01*
X008348Y019700D01*
X008101Y019700D01*
X008040Y019762D01*
X008040Y019885D01*
X008101Y019947D01*
X008040Y020068D02*
X008040Y020254D01*
X008040Y020437D02*
X008101Y020437D01*
X008225Y020560D01*
X008410Y020560D01*
X008225Y020560D02*
X008101Y020684D01*
X008040Y020684D01*
X008640Y020613D02*
X008701Y020675D01*
X008825Y020675D01*
X008887Y020613D01*
X008887Y020428D01*
X009010Y020428D02*
X008640Y020428D01*
X008640Y020613D01*
X008640Y020796D02*
X008640Y021043D01*
X008640Y021165D02*
X008640Y021350D01*
X008701Y021411D01*
X008763Y021411D01*
X008825Y021350D01*
X008825Y021165D01*
X008825Y021350D02*
X008887Y021411D01*
X008948Y021411D01*
X009010Y021350D01*
X009010Y021165D01*
X008640Y021165D01*
X008472Y021173D02*
X008472Y021420D01*
X008640Y021533D02*
X008640Y021656D01*
X008640Y021595D02*
X009010Y021595D01*
X009010Y021656D02*
X009010Y021533D01*
X009010Y021778D02*
X008763Y021778D01*
X008640Y021902D01*
X008763Y022025D01*
X009010Y022025D01*
X008948Y022147D02*
X009010Y022208D01*
X009010Y022332D01*
X008948Y022394D01*
X008887Y022394D01*
X008825Y022332D01*
X008825Y022208D01*
X008763Y022147D01*
X008701Y022147D01*
X008640Y022208D01*
X008640Y022332D01*
X008701Y022394D01*
X008825Y022025D02*
X008825Y021778D01*
X008825Y020920D02*
X008825Y020796D01*
X009010Y020796D02*
X008640Y020796D01*
X008887Y020551D02*
X009010Y020675D01*
X009072Y020306D02*
X009072Y020060D01*
X009010Y019938D02*
X008887Y019815D01*
X008887Y019876D02*
X008887Y019691D01*
X009010Y019691D02*
X008640Y019691D01*
X008640Y019876D01*
X008701Y019938D01*
X008825Y019938D01*
X008887Y019876D01*
X008410Y020068D02*
X008410Y020254D01*
X008348Y020315D01*
X008287Y020315D01*
X008225Y020254D01*
X008410Y020068D02*
X008040Y020068D01*
X010240Y020562D02*
X010301Y020500D01*
X010548Y020500D01*
X010610Y020562D01*
X010610Y020685D01*
X010548Y020747D01*
X010610Y020868D02*
X010610Y021054D01*
X010548Y021115D01*
X010487Y021115D01*
X010425Y021054D01*
X010425Y020868D01*
X010301Y020747D02*
X010240Y020685D01*
X010240Y020562D01*
X010240Y020868D02*
X010240Y021054D01*
X010301Y021115D01*
X010363Y021115D01*
X010425Y021054D01*
X010301Y021237D02*
X010425Y021360D01*
X010610Y021360D01*
X010425Y021360D02*
X010301Y021484D01*
X010240Y021484D01*
X010240Y021605D02*
X010240Y021790D01*
X010301Y021852D01*
X010425Y021852D01*
X010487Y021790D01*
X010487Y021605D01*
X010610Y021605D02*
X010240Y021605D01*
X010240Y021237D02*
X010301Y021237D01*
X010240Y020868D02*
X010610Y020868D01*
X010672Y021973D02*
X010672Y022220D01*
X010610Y022342D02*
X010240Y022342D01*
X010240Y022527D01*
X010301Y022589D01*
X010425Y022589D01*
X010487Y022527D01*
X010487Y022342D01*
X010487Y022465D02*
X010610Y022589D01*
X010610Y022710D02*
X010240Y022710D01*
X010240Y022957D01*
X010240Y023078D02*
X010240Y023264D01*
X010301Y023325D01*
X010548Y023325D01*
X010610Y023264D01*
X010610Y023078D01*
X010240Y023078D01*
X010425Y022833D02*
X010425Y022710D01*
X010301Y023447D02*
X010240Y023508D01*
X010240Y023632D01*
X010301Y023694D01*
X010363Y023694D01*
X010610Y023447D01*
X010610Y023694D01*
X010646Y024248D02*
X010646Y024618D01*
X010831Y024618D01*
X010893Y024556D01*
X010893Y024433D01*
X010831Y024371D01*
X010646Y024371D01*
X010769Y024371D02*
X010893Y024248D01*
X011014Y024248D02*
X011014Y024618D01*
X011261Y024618D01*
X011138Y024433D02*
X011014Y024433D01*
X010524Y024309D02*
X010524Y024618D01*
X010278Y024618D02*
X010278Y024309D01*
X010339Y024248D01*
X010463Y024248D01*
X010524Y024309D01*
X011277Y025140D02*
X011400Y025140D01*
X011462Y025202D01*
X011583Y025140D02*
X011583Y025510D01*
X011768Y025510D01*
X011830Y025449D01*
X011830Y025387D01*
X011768Y025325D01*
X011583Y025325D01*
X011462Y025449D02*
X011400Y025510D01*
X011277Y025510D01*
X011215Y025449D01*
X011215Y025202D01*
X011277Y025140D01*
X011583Y025140D02*
X011768Y025140D01*
X011830Y025202D01*
X011830Y025263D01*
X011768Y025325D01*
X011952Y025449D02*
X012075Y025325D01*
X012075Y025140D01*
X012075Y025325D02*
X012199Y025449D01*
X012199Y025510D01*
X012320Y025510D02*
X012505Y025510D01*
X012567Y025449D01*
X012567Y025325D01*
X012505Y025263D01*
X012320Y025263D01*
X012320Y025140D02*
X012320Y025510D01*
X011952Y025510D02*
X011952Y025449D01*
X012688Y025078D02*
X012935Y025078D01*
X013057Y025140D02*
X013057Y025510D01*
X013242Y025510D01*
X013303Y025449D01*
X013303Y025325D01*
X013242Y025263D01*
X013057Y025263D01*
X013180Y025263D02*
X013303Y025140D01*
X013425Y025140D02*
X013425Y025510D01*
X013672Y025510D01*
X013793Y025510D02*
X013978Y025510D01*
X014040Y025449D01*
X014040Y025202D01*
X013978Y025140D01*
X013793Y025140D01*
X013793Y025510D01*
X013548Y025325D02*
X013425Y025325D01*
X014162Y025387D02*
X014285Y025510D01*
X014285Y025140D01*
X014162Y025140D02*
X014408Y025140D01*
X012608Y026840D02*
X012362Y026840D01*
X013325Y030115D02*
X013325Y030485D01*
X013510Y030485D01*
X013572Y030424D01*
X013572Y030300D01*
X013510Y030238D01*
X013325Y030238D01*
X013448Y030238D02*
X013572Y030115D01*
X013693Y030115D02*
X013693Y030485D01*
X013693Y030115D02*
X013940Y030115D01*
X014062Y030115D02*
X014309Y030362D01*
X014309Y030424D01*
X014247Y030485D01*
X014123Y030485D01*
X014062Y030424D01*
X014062Y030115D02*
X014309Y030115D01*
X008185Y030373D02*
X007938Y030620D01*
X007876Y030620D01*
X007815Y030558D01*
X007815Y030435D01*
X007876Y030373D01*
X008185Y030373D02*
X008185Y030620D01*
X007260Y030647D02*
X006890Y030647D01*
X007075Y030462D01*
X007075Y030708D01*
X007075Y030340D02*
X007075Y030093D01*
X007013Y030093D02*
X007260Y030093D01*
X007013Y030093D02*
X006890Y030217D01*
X007013Y030340D01*
X007260Y030340D01*
X006890Y029972D02*
X006890Y029725D01*
X007260Y029725D01*
X007260Y029603D02*
X007137Y029480D01*
X007137Y029542D02*
X007137Y029357D01*
X007260Y029357D02*
X006890Y029357D01*
X006890Y029542D01*
X006951Y029603D01*
X007075Y029603D01*
X007137Y029542D01*
X007075Y029725D02*
X007075Y029848D01*
X007060Y027167D02*
X007060Y026920D01*
X006813Y027167D01*
X006751Y027167D01*
X006690Y027105D01*
X006690Y026982D01*
X006751Y026920D01*
X006690Y026799D02*
X006690Y026552D01*
X007060Y026552D01*
X007060Y026430D02*
X006937Y026307D01*
X006937Y026368D02*
X006937Y026183D01*
X007060Y026183D02*
X006690Y026183D01*
X006690Y026368D01*
X006751Y026430D01*
X006875Y026430D01*
X006937Y026368D01*
X006875Y026552D02*
X006875Y026675D01*
X006998Y026062D02*
X007060Y026000D01*
X007060Y025877D01*
X006998Y025815D01*
X006751Y025815D01*
X006690Y025877D01*
X006690Y026000D01*
X006751Y026062D01*
X006410Y022189D02*
X006410Y021942D01*
X006040Y021942D01*
X001327Y009435D02*
X001265Y009373D01*
X001265Y009312D01*
X001327Y009250D01*
X001635Y009250D01*
X001635Y009312D02*
X001635Y009188D01*
X001574Y009067D02*
X001512Y009067D01*
X001450Y009005D01*
X001450Y008882D01*
X001388Y008820D01*
X001327Y008820D01*
X001265Y008882D01*
X001265Y009005D01*
X001327Y009067D01*
X001574Y009067D02*
X001635Y009005D01*
X001635Y008882D01*
X001574Y008820D01*
X001635Y008698D02*
X001635Y008513D01*
X001574Y008451D01*
X001450Y008451D01*
X001388Y008513D01*
X001388Y008698D01*
X001265Y008698D02*
X001635Y008698D01*
X001512Y008330D02*
X001635Y008207D01*
X001512Y008083D01*
X001265Y008083D01*
X001265Y007962D02*
X001635Y007962D01*
X001635Y007777D01*
X001574Y007715D01*
X001450Y007715D01*
X001388Y007777D01*
X001388Y007962D01*
X001388Y007838D02*
X001265Y007715D01*
X001265Y007593D02*
X001265Y007347D01*
X001450Y007470D02*
X001450Y007593D01*
X001635Y007593D02*
X001265Y007593D01*
X001635Y007593D02*
X001635Y007347D01*
X001450Y008083D02*
X001450Y008330D01*
X001512Y008330D02*
X001265Y008330D01*
X001227Y006335D02*
X001165Y006273D01*
X001165Y006212D01*
X001227Y006150D01*
X001535Y006150D01*
X001535Y006212D02*
X001535Y006088D01*
X001535Y005967D02*
X001165Y005967D01*
X001288Y005967D02*
X001288Y005782D01*
X001350Y005720D01*
X001474Y005720D01*
X001535Y005782D01*
X001535Y005967D01*
X001474Y005598D02*
X001227Y005598D01*
X001165Y005537D01*
X001165Y005413D01*
X001227Y005351D01*
X001474Y005351D01*
X001535Y005413D01*
X001535Y005537D01*
X001474Y005598D01*
X001535Y005230D02*
X001165Y005230D01*
X001288Y005107D01*
X001165Y004983D01*
X001535Y004983D01*
D15*
X007685Y027496D02*
X009615Y027496D01*
X009615Y028204D01*
X007685Y028204D01*
X007685Y027496D01*
X032433Y027315D02*
X032433Y026922D01*
X032433Y026528D02*
X032433Y026134D01*
X032433Y025741D02*
X032433Y025347D01*
X032433Y024953D02*
X032433Y024559D01*
X032433Y024166D02*
X032433Y023772D01*
X032433Y023378D02*
X032433Y022985D01*
X032433Y022591D02*
X032433Y022197D01*
X032433Y021804D02*
X032433Y021410D01*
X032433Y021016D02*
X032433Y020622D01*
X032433Y020229D02*
X032433Y019835D01*
X032433Y019441D02*
X032433Y019048D01*
X032433Y018654D02*
X032433Y018260D01*
X032433Y017867D02*
X032433Y017473D01*
X032433Y017079D02*
X032433Y016685D01*
X032863Y016685D01*
X033257Y016685D02*
X033686Y016685D01*
X034080Y016685D02*
X034509Y016685D01*
X034903Y016685D02*
X035333Y016685D01*
X035726Y016685D02*
X036156Y016685D01*
X036549Y016685D02*
X036979Y016685D01*
X037373Y016685D02*
X037802Y016685D01*
X038196Y016685D02*
X038625Y016685D01*
X039019Y016685D02*
X039448Y016685D01*
X039842Y016685D02*
X040272Y016685D01*
X040665Y016685D02*
X041095Y016685D01*
X032433Y016685D02*
X032433Y016273D01*
X032433Y015879D02*
X032433Y015467D01*
X032433Y015073D02*
X032433Y014661D01*
X032433Y014267D02*
X032433Y013855D01*
X032433Y013461D02*
X032433Y013048D01*
X032433Y012655D02*
X032433Y012242D01*
X032433Y011849D02*
X032433Y011436D01*
X032433Y011042D02*
X032433Y010630D01*
X032433Y010236D02*
X032433Y009824D01*
X032433Y009430D02*
X032433Y009018D01*
X032433Y008624D02*
X032433Y008211D01*
X032433Y007818D02*
X032433Y007405D01*
X032433Y007012D02*
X032433Y006599D01*
X032433Y006205D02*
X032433Y005793D01*
X032433Y005399D02*
X032433Y004987D01*
X032433Y004593D02*
X032433Y004181D01*
X032433Y003787D02*
X032433Y003375D01*
X032433Y002981D02*
X032433Y002568D01*
X032433Y002175D02*
X032433Y001762D01*
X032433Y001369D02*
X032433Y000956D01*
X032433Y000562D02*
X032433Y000150D01*
X035723Y002706D02*
X035725Y002728D01*
X035731Y002750D01*
X035740Y002770D01*
X035753Y002788D01*
X035769Y002804D01*
X035787Y002817D01*
X035807Y002826D01*
X035829Y002832D01*
X035851Y002834D01*
X035873Y002832D01*
X035895Y002826D01*
X035915Y002817D01*
X035933Y002804D01*
X035949Y002788D01*
X035962Y002770D01*
X035971Y002750D01*
X035977Y002728D01*
X035979Y002706D01*
X035977Y002684D01*
X035971Y002662D01*
X035962Y002642D01*
X035949Y002624D01*
X035933Y002608D01*
X035915Y002595D01*
X035895Y002586D01*
X035873Y002580D01*
X035851Y002578D01*
X035829Y002580D01*
X035807Y002586D01*
X035787Y002595D01*
X035769Y002608D01*
X035753Y002624D01*
X035740Y002642D01*
X035731Y002662D01*
X035725Y002684D01*
X035723Y002706D01*
X037223Y002706D02*
X037225Y002728D01*
X037231Y002750D01*
X037240Y002770D01*
X037253Y002788D01*
X037269Y002804D01*
X037287Y002817D01*
X037307Y002826D01*
X037329Y002832D01*
X037351Y002834D01*
X037373Y002832D01*
X037395Y002826D01*
X037415Y002817D01*
X037433Y002804D01*
X037449Y002788D01*
X037462Y002770D01*
X037471Y002750D01*
X037477Y002728D01*
X037479Y002706D01*
X037477Y002684D01*
X037471Y002662D01*
X037462Y002642D01*
X037449Y002624D01*
X037433Y002608D01*
X037415Y002595D01*
X037395Y002586D01*
X037373Y002580D01*
X037351Y002578D01*
X037329Y002580D01*
X037307Y002586D01*
X037287Y002595D01*
X037269Y002608D01*
X037253Y002624D01*
X037240Y002642D01*
X037231Y002662D01*
X037225Y002684D01*
X037223Y002706D01*
X035623Y008306D02*
X035625Y008328D01*
X035631Y008350D01*
X035640Y008370D01*
X035653Y008388D01*
X035669Y008404D01*
X035687Y008417D01*
X035707Y008426D01*
X035729Y008432D01*
X035751Y008434D01*
X035773Y008432D01*
X035795Y008426D01*
X035815Y008417D01*
X035833Y008404D01*
X035849Y008388D01*
X035862Y008370D01*
X035871Y008350D01*
X035877Y008328D01*
X035879Y008306D01*
X035877Y008284D01*
X035871Y008262D01*
X035862Y008242D01*
X035849Y008224D01*
X035833Y008208D01*
X035815Y008195D01*
X035795Y008186D01*
X035773Y008180D01*
X035751Y008178D01*
X035729Y008180D01*
X035707Y008186D01*
X035687Y008195D01*
X035669Y008208D01*
X035653Y008224D01*
X035640Y008242D01*
X035631Y008262D01*
X035625Y008284D01*
X035623Y008306D01*
X032433Y027709D02*
X032433Y028103D01*
X032827Y028103D01*
X032433Y028103D02*
X032433Y028496D01*
X032433Y028890D02*
X032433Y029284D01*
X032433Y029678D02*
X032433Y030071D01*
X032433Y030465D02*
X032433Y030859D01*
X032433Y031252D02*
X032433Y031646D01*
X033221Y028103D02*
X033615Y028103D01*
X034008Y028103D02*
X034402Y028103D01*
X034796Y028103D02*
X035189Y028103D01*
X035583Y028103D02*
X035977Y028103D01*
X036370Y028103D02*
X036764Y028103D01*
X037158Y028103D02*
X037552Y028103D01*
X037945Y028103D02*
X038339Y028103D01*
X038733Y028103D02*
X039126Y028103D01*
X039520Y028103D02*
X039914Y028103D01*
X040307Y028103D02*
X040701Y028103D01*
X040701Y028496D01*
X040701Y028103D02*
X041095Y028103D01*
X040701Y028890D02*
X040701Y029284D01*
X040701Y029678D02*
X040701Y030071D01*
X040701Y030465D02*
X040701Y030859D01*
X040701Y031252D02*
X040701Y031646D01*
D16*
X038323Y029744D02*
X038142Y029744D01*
X038234Y029622D01*
X038142Y029744D02*
X037961Y029744D01*
X038056Y029622D02*
X038132Y029738D01*
X037733Y029744D02*
X037552Y029744D01*
X037644Y029622D01*
X037552Y029744D02*
X037370Y029744D01*
X037466Y029622D02*
X037542Y029738D01*
X037142Y029744D02*
X036961Y029744D01*
X037053Y029622D01*
X036961Y029744D02*
X036780Y029744D01*
X036875Y029622D02*
X036951Y029738D01*
X036552Y029744D02*
X036370Y029744D01*
X036463Y029622D01*
X036370Y029744D02*
X036189Y029744D01*
X036284Y029622D02*
X036360Y029738D01*
X035961Y029744D02*
X035780Y029744D01*
X035872Y029622D01*
X035780Y029744D02*
X035599Y029744D01*
X035694Y029622D02*
X035770Y029738D01*
X035370Y029744D02*
X035189Y029744D01*
X035281Y029622D01*
X035189Y029744D02*
X035008Y029744D01*
X035103Y029622D02*
X035179Y029738D01*
X034780Y029744D02*
X034599Y029744D01*
X034691Y029622D01*
X034599Y029744D02*
X034418Y029744D01*
X034513Y029622D02*
X034589Y029738D01*
X035120Y027028D02*
X035620Y027028D01*
X035870Y026778D01*
X036120Y027028D01*
X036620Y027028D01*
X036870Y026778D01*
X036870Y026278D01*
X036620Y026028D01*
X036120Y026028D01*
X035870Y026278D01*
X035620Y026028D01*
X035120Y026028D01*
X034870Y026278D01*
X034870Y026778D01*
X035120Y027028D01*
X037445Y026778D02*
X037445Y026278D01*
X037695Y026028D01*
X038195Y026028D01*
X038445Y026278D01*
X038695Y026028D01*
X039195Y026028D01*
X039445Y026278D01*
X039445Y026778D01*
X039195Y027028D01*
X038695Y027028D01*
X038445Y026778D01*
X038195Y027028D01*
X037695Y027028D01*
X037445Y026778D01*
X037745Y025632D02*
X037588Y025494D01*
X037588Y024530D01*
X037745Y024412D01*
X038218Y024412D01*
X037745Y024412D01*
X037918Y024261D02*
X035338Y024261D01*
X035338Y022961D01*
X037918Y022961D01*
X037918Y024261D01*
X038296Y024079D02*
X038178Y023922D01*
X038178Y023449D01*
X038178Y023922D01*
X038296Y024079D02*
X039261Y024079D01*
X039399Y023922D01*
X039399Y023449D01*
X039295Y023295D02*
X038272Y023295D01*
X038178Y022701D02*
X038178Y022032D01*
X039419Y022032D01*
X039419Y022701D01*
X039635Y024412D02*
X038966Y024412D01*
X039635Y024412D02*
X039635Y025652D01*
X038966Y025652D01*
X038372Y025528D02*
X038372Y024506D01*
X038218Y025632D02*
X037745Y025632D01*
X037428Y021771D02*
X037270Y021771D01*
X037270Y021259D01*
X036719Y021259D01*
X036719Y021771D02*
X037270Y021771D01*
X037270Y021259D02*
X037428Y021259D01*
X038769Y020072D02*
X039320Y020072D01*
X039320Y019560D01*
X038769Y019560D01*
X038741Y019429D02*
X038898Y019429D01*
X038898Y018917D01*
X039449Y018917D01*
X039195Y018760D02*
X038695Y018760D01*
X038445Y018510D01*
X038195Y018760D01*
X037695Y018760D01*
X037445Y018510D01*
X037445Y018010D01*
X037695Y017760D01*
X038195Y017760D01*
X038445Y018010D01*
X038695Y017760D01*
X039195Y017760D01*
X039445Y018010D01*
X039445Y018510D01*
X039195Y018760D01*
X038898Y018917D02*
X038741Y018917D01*
X038898Y019429D02*
X039449Y019429D01*
X039478Y019560D02*
X039320Y019560D01*
X039320Y020072D02*
X039478Y020072D01*
X036870Y018510D02*
X036870Y018010D01*
X036620Y017760D01*
X036120Y017760D01*
X035870Y018010D01*
X035620Y017760D01*
X035120Y017760D01*
X034870Y018010D01*
X034870Y018510D01*
X035120Y018760D01*
X035620Y018760D01*
X035870Y018510D01*
X036120Y018760D01*
X036620Y018760D01*
X036870Y018510D01*
X035504Y018930D02*
X035347Y018930D01*
X035347Y019441D01*
X034796Y019441D01*
X034794Y019660D02*
X035345Y019660D01*
X035345Y020172D01*
X034794Y020172D01*
X035345Y020172D02*
X035503Y020172D01*
X035503Y019660D02*
X035345Y019660D01*
X035347Y019441D02*
X035504Y019441D01*
X035347Y018930D02*
X034796Y018930D01*
X029215Y015074D02*
X028388Y015074D01*
X027955Y015074D02*
X027128Y015074D01*
X027128Y013420D01*
X027561Y012987D01*
X027974Y012987D01*
X028388Y012987D02*
X028781Y012987D01*
X029215Y013420D01*
X029215Y015074D01*
X028388Y014995D02*
X028447Y014980D01*
X028504Y014962D01*
X028561Y014940D01*
X028616Y014915D01*
X028669Y014886D01*
X028721Y014854D01*
X028770Y014819D01*
X028817Y014781D01*
X028862Y014740D01*
X028904Y014696D01*
X028943Y014650D01*
X028979Y014602D01*
X029013Y014551D01*
X029043Y014498D01*
X029069Y014444D01*
X029093Y014388D01*
X029112Y014331D01*
X029128Y014272D01*
X029141Y014213D01*
X029150Y014153D01*
X029155Y014093D01*
X029156Y014032D01*
X029153Y013971D01*
X029147Y013911D01*
X029137Y013851D01*
X029123Y013792D01*
X029106Y013734D01*
X029085Y013677D01*
X029061Y013622D01*
X029033Y013568D01*
X029002Y013516D01*
X028968Y013466D01*
X028930Y013418D01*
X028890Y013373D01*
X028847Y013330D01*
X028802Y013290D01*
X028754Y013253D01*
X028704Y013219D01*
X028652Y013188D01*
X028598Y013161D01*
X028542Y013136D01*
X028485Y013116D01*
X028427Y013099D01*
X028368Y013085D01*
X027974Y013066D02*
X027914Y013081D01*
X027855Y013099D01*
X027797Y013122D01*
X027740Y013148D01*
X027686Y013177D01*
X027633Y013210D01*
X027582Y013246D01*
X027534Y013285D01*
X027488Y013327D01*
X027446Y013372D01*
X027405Y013419D01*
X027369Y013469D01*
X027335Y013521D01*
X027304Y013575D01*
X027277Y013631D01*
X027254Y013689D01*
X027234Y013748D01*
X027218Y013808D01*
X027206Y013868D01*
X027197Y013930D01*
X027193Y013992D01*
X027192Y014054D01*
X027195Y014116D01*
X027203Y014178D01*
X027214Y014239D01*
X027228Y014299D01*
X027247Y014358D01*
X027269Y014416D01*
X027295Y014473D01*
X027324Y014527D01*
X027357Y014580D01*
X027393Y014631D01*
X027432Y014679D01*
X027474Y014725D01*
X027519Y014768D01*
X027566Y014808D01*
X027616Y014845D01*
X027668Y014879D01*
X027722Y014909D01*
X027778Y014936D01*
X027836Y014960D01*
X027895Y014980D01*
X027955Y014996D01*
X036975Y011022D02*
X036975Y010690D01*
X036995Y010690D02*
X037025Y010688D01*
X037055Y010683D01*
X037084Y010674D01*
X037111Y010661D01*
X037137Y010646D01*
X037161Y010627D01*
X037182Y010606D01*
X037201Y010582D01*
X037216Y010556D01*
X037229Y010529D01*
X037238Y010500D01*
X037243Y010470D01*
X037245Y010440D01*
X037243Y010410D01*
X037238Y010380D01*
X037229Y010351D01*
X037216Y010324D01*
X037201Y010298D01*
X037182Y010274D01*
X037161Y010253D01*
X037137Y010234D01*
X037111Y010219D01*
X037084Y010206D01*
X037055Y010197D01*
X037025Y010192D01*
X036995Y010190D01*
X036975Y010190D02*
X036975Y009794D01*
X036974Y009794D02*
X036979Y009774D01*
X036987Y009755D01*
X036998Y009737D01*
X037011Y009721D01*
X037027Y009708D01*
X037044Y009697D01*
X037063Y009689D01*
X037083Y009684D01*
X037104Y009682D01*
X037125Y009683D01*
X037125Y009684D02*
X040504Y009684D01*
X040505Y009683D02*
X040525Y009688D01*
X040544Y009696D01*
X040562Y009707D01*
X040578Y009720D01*
X040591Y009736D01*
X040602Y009753D01*
X040610Y009772D01*
X040615Y009792D01*
X040617Y009813D01*
X040616Y009834D01*
X040615Y009834D02*
X040615Y011066D01*
X040613Y011089D01*
X040608Y011112D01*
X040599Y011134D01*
X040586Y011154D01*
X040571Y011172D01*
X040553Y011187D01*
X040533Y011200D01*
X040511Y011209D01*
X040488Y011214D01*
X040465Y011216D01*
X037125Y011216D01*
X037125Y011217D02*
X037101Y011212D01*
X037078Y011204D01*
X037057Y011193D01*
X037037Y011179D01*
X037019Y011162D01*
X037004Y011143D01*
X036991Y011122D01*
X036982Y011100D01*
X036976Y011076D01*
X036974Y011052D01*
X036975Y011027D01*
X034805Y007370D02*
X033565Y007370D01*
X033565Y006504D01*
X033585Y005756D02*
X033585Y005087D01*
X033722Y004930D01*
X034687Y004930D01*
X034805Y005087D01*
X034805Y005756D01*
X034805Y006504D02*
X034805Y007370D01*
X037965Y005870D02*
X039205Y005870D01*
X039205Y005004D01*
X039205Y004256D02*
X039205Y003587D01*
X039087Y003430D01*
X038122Y003430D01*
X037985Y003587D01*
X037985Y004256D01*
X037965Y005004D02*
X037965Y005870D01*
X034805Y004370D02*
X034805Y003504D01*
X034805Y004370D02*
X033565Y004370D01*
X033565Y003504D01*
X033585Y002756D02*
X033585Y002087D01*
X033722Y001930D01*
X034687Y001930D01*
X034805Y002087D01*
X034805Y002756D01*
X037965Y002970D02*
X037965Y002104D01*
X037985Y001356D02*
X037985Y000687D01*
X038122Y000530D01*
X039087Y000530D01*
X039205Y000687D01*
X039205Y001356D01*
X039205Y002104D02*
X039205Y002970D01*
X037965Y002970D01*
X017131Y001083D02*
X016950Y001083D01*
X016858Y001205D01*
X016769Y001083D02*
X016950Y001083D01*
X016960Y001089D02*
X017036Y001205D01*
X016431Y001083D02*
X016250Y001083D01*
X016158Y001205D01*
X016069Y001083D02*
X016250Y001083D01*
X016260Y001089D02*
X016336Y001205D01*
X012595Y003402D02*
X010705Y003402D01*
X010705Y004701D01*
X012595Y004701D01*
X012595Y003402D01*
X012595Y004701D02*
X012595Y004898D01*
X010705Y004898D01*
X010705Y004701D01*
X009772Y004980D02*
X009772Y003326D01*
X008945Y003326D01*
X008512Y003326D02*
X007685Y003326D01*
X007685Y004980D01*
X008119Y005413D01*
X008512Y005413D01*
X008926Y005413D02*
X009339Y005413D01*
X009772Y004980D01*
X008926Y005334D02*
X008986Y005319D01*
X009045Y005301D01*
X009103Y005278D01*
X009160Y005252D01*
X009214Y005223D01*
X009267Y005190D01*
X009318Y005154D01*
X009366Y005115D01*
X009412Y005073D01*
X009454Y005028D01*
X009495Y004981D01*
X009531Y004931D01*
X009565Y004879D01*
X009596Y004825D01*
X009623Y004769D01*
X009646Y004711D01*
X009666Y004652D01*
X009682Y004592D01*
X009694Y004532D01*
X009703Y004470D01*
X009707Y004408D01*
X009708Y004346D01*
X009705Y004284D01*
X009697Y004222D01*
X009686Y004161D01*
X009672Y004101D01*
X009653Y004042D01*
X009631Y003984D01*
X009605Y003927D01*
X009576Y003873D01*
X009543Y003820D01*
X009507Y003769D01*
X009468Y003721D01*
X009426Y003675D01*
X009381Y003632D01*
X009334Y003592D01*
X009284Y003555D01*
X009232Y003521D01*
X009178Y003491D01*
X009122Y003464D01*
X009064Y003440D01*
X009005Y003420D01*
X008945Y003404D01*
X008512Y003405D02*
X008453Y003420D01*
X008396Y003438D01*
X008339Y003460D01*
X008284Y003485D01*
X008231Y003514D01*
X008179Y003546D01*
X008130Y003581D01*
X008083Y003619D01*
X008038Y003660D01*
X007996Y003704D01*
X007957Y003750D01*
X007921Y003798D01*
X007887Y003849D01*
X007857Y003902D01*
X007831Y003956D01*
X007807Y004012D01*
X007788Y004069D01*
X007772Y004128D01*
X007759Y004187D01*
X007750Y004247D01*
X007745Y004307D01*
X007744Y004368D01*
X007747Y004429D01*
X007753Y004489D01*
X007763Y004549D01*
X007777Y004608D01*
X007794Y004666D01*
X007815Y004723D01*
X007839Y004778D01*
X007867Y004832D01*
X007898Y004884D01*
X007932Y004934D01*
X007970Y004982D01*
X008010Y005027D01*
X008053Y005070D01*
X008098Y005110D01*
X008146Y005147D01*
X008196Y005181D01*
X008248Y005212D01*
X008302Y005239D01*
X008358Y005264D01*
X008415Y005284D01*
X008473Y005301D01*
X008532Y005315D01*
X015369Y030583D02*
X015550Y030583D01*
X015458Y030705D01*
X015550Y030583D02*
X015731Y030583D01*
X015636Y030705D02*
X015560Y030589D01*
X016069Y030583D02*
X016250Y030583D01*
X016158Y030705D01*
X016250Y030583D02*
X016431Y030583D01*
X016336Y030705D02*
X016260Y030589D01*
D17*
X034366Y023348D02*
X034366Y023324D01*
X034859Y020977D02*
X034883Y020977D01*
X035770Y020868D02*
X035794Y020868D01*
X039482Y021094D02*
X039506Y021094D01*
X035807Y012950D02*
X035783Y012950D01*
X035395Y011962D02*
X035395Y011938D01*
X033907Y010450D02*
X033883Y010450D01*
X034483Y008450D02*
X034507Y008450D01*
X036583Y007950D02*
X036607Y007950D01*
X038295Y007662D02*
X038295Y007638D01*
X037195Y004262D02*
X037195Y004238D01*
X035595Y004238D02*
X035595Y004262D01*
X035495Y000862D02*
X035495Y000838D01*
X037195Y000862D02*
X037195Y000838D01*
D18*
X036995Y005750D03*
X037195Y007950D03*
X034495Y010450D03*
X033895Y008450D03*
X038727Y021051D03*
X033966Y022402D03*
X033981Y024869D03*
X034900Y024869D03*
D19*
X028690Y019920D02*
X028690Y019580D01*
X028410Y019580D02*
X028410Y019920D01*
X017190Y030480D02*
X017190Y030820D01*
X016910Y030820D02*
X016910Y030480D01*
X014990Y030480D02*
X014990Y030820D01*
X014710Y030820D02*
X014710Y030480D01*
X009520Y028690D02*
X009180Y028690D01*
X009180Y028410D02*
X009520Y028410D01*
X008220Y028410D02*
X007880Y028410D01*
X007880Y028690D02*
X008220Y028690D01*
X034912Y008538D02*
X034912Y007566D01*
X034913Y007566D02*
X034914Y007549D01*
X034919Y007532D01*
X034926Y007517D01*
X034936Y007503D01*
X034948Y007491D01*
X034962Y007481D01*
X034977Y007474D01*
X034994Y007469D01*
X035011Y007468D01*
X035007Y007467D02*
X035975Y007467D01*
X036078Y007566D02*
X036078Y008534D01*
X035975Y008637D02*
X035007Y008637D01*
X035011Y008636D02*
X034994Y008635D01*
X034977Y008630D01*
X034962Y008623D01*
X034948Y008613D01*
X034936Y008601D01*
X034926Y008587D01*
X034919Y008572D01*
X034914Y008555D01*
X034913Y008538D01*
X035107Y003037D02*
X036075Y003037D01*
X036178Y002934D02*
X036178Y001966D01*
X036075Y001867D02*
X035107Y001867D01*
X035111Y001868D02*
X035094Y001869D01*
X035077Y001874D01*
X035062Y001881D01*
X035048Y001891D01*
X035036Y001903D01*
X035026Y001917D01*
X035019Y001932D01*
X035014Y001949D01*
X035013Y001966D01*
X035012Y001966D02*
X035012Y002938D01*
X035013Y002938D02*
X035014Y002955D01*
X035019Y002972D01*
X035026Y002987D01*
X035036Y003001D01*
X035048Y003013D01*
X035062Y003023D01*
X035077Y003030D01*
X035094Y003035D01*
X035111Y003036D01*
X036512Y002938D02*
X036512Y001966D01*
X036513Y001966D02*
X036514Y001949D01*
X036519Y001932D01*
X036526Y001917D01*
X036536Y001903D01*
X036548Y001891D01*
X036562Y001881D01*
X036577Y001874D01*
X036594Y001869D01*
X036611Y001868D01*
X036607Y001867D02*
X037575Y001867D01*
X037678Y001966D02*
X037678Y002934D01*
X037575Y003037D02*
X036607Y003037D01*
X036611Y003036D02*
X036594Y003035D01*
X036577Y003030D01*
X036562Y003023D01*
X036548Y003013D01*
X036536Y003001D01*
X036526Y002987D01*
X036519Y002972D01*
X036514Y002955D01*
X036513Y002938D01*
X023890Y002780D02*
X023890Y003120D01*
X023610Y003120D02*
X023610Y002780D01*
X022832Y003418D02*
X022834Y003444D01*
X022840Y003470D01*
X022849Y003495D01*
X022862Y003518D01*
X022878Y003539D01*
X022897Y003557D01*
X022919Y003573D01*
X022942Y003585D01*
X022967Y003593D01*
X022993Y003598D01*
X023020Y003599D01*
X023046Y003596D01*
X023071Y003589D01*
X023096Y003579D01*
X023118Y003565D01*
X023139Y003548D01*
X023156Y003529D01*
X023171Y003507D01*
X023182Y003483D01*
X023190Y003457D01*
X023194Y003431D01*
X023194Y003405D01*
X023190Y003379D01*
X023182Y003353D01*
X023171Y003329D01*
X023156Y003307D01*
X023139Y003288D01*
X023118Y003271D01*
X023096Y003257D01*
X023071Y003247D01*
X023046Y003240D01*
X023020Y003237D01*
X022993Y003238D01*
X022967Y003243D01*
X022942Y003251D01*
X022919Y003263D01*
X022897Y003279D01*
X022878Y003297D01*
X022862Y003318D01*
X022849Y003341D01*
X022840Y003366D01*
X022834Y003392D01*
X022832Y003418D01*
X023397Y003802D02*
X023397Y001498D01*
X019303Y001498D01*
X019303Y003802D01*
X023397Y003802D01*
X017090Y002520D02*
X017090Y002180D01*
X016810Y002180D02*
X016810Y002520D01*
X016390Y002520D02*
X016390Y002180D01*
X016110Y002180D02*
X016110Y002520D01*
X013920Y002390D02*
X013580Y002390D01*
X013580Y002110D02*
X013920Y002110D01*
X013590Y003980D02*
X013590Y004320D01*
X013310Y004320D02*
X013310Y003980D01*
X011920Y006110D02*
X011580Y006110D01*
X011580Y006390D02*
X011920Y006390D01*
X007210Y005569D02*
X007210Y004931D01*
X007173Y004931D01*
X006856Y004931D02*
X006819Y004931D01*
X006481Y004931D02*
X006444Y004931D01*
X006127Y004931D02*
X006090Y004931D01*
X006090Y005569D01*
X006127Y005569D01*
X006444Y005569D02*
X006856Y005569D01*
X007173Y005569D02*
X007210Y005569D01*
D20*
X033689Y005910D02*
X034711Y005910D01*
X034711Y002910D02*
X033689Y002910D01*
X038089Y001510D02*
X039111Y001510D01*
X039111Y004410D02*
X038089Y004410D01*
D21*
X037195Y004850D03*
X035595Y004850D03*
X035595Y005750D03*
X036995Y006950D03*
X038295Y006950D03*
X034195Y009450D03*
D22*
X012400Y005154D03*
X011900Y005154D03*
X011400Y005154D03*
X010900Y005154D03*
X010900Y003146D03*
X011400Y003146D03*
X011900Y003146D03*
X012400Y003146D03*
D23*
X013450Y003900D03*
X013450Y004400D03*
X016250Y002600D03*
X016950Y002600D03*
X016950Y002100D03*
X016250Y002100D03*
X023750Y002700D03*
X023750Y003200D03*
X028550Y019500D03*
X028550Y020000D03*
X017050Y030400D03*
X017050Y030900D03*
X014850Y030900D03*
X014850Y030400D03*
D24*
X009600Y028550D03*
X009100Y028550D03*
X008300Y028550D03*
X007800Y028550D03*
X011500Y006250D03*
X012000Y006250D03*
X013500Y002250D03*
X014000Y002250D03*
D25*
X024740Y002360D03*
X024740Y002370D03*
X024740Y002380D03*
X024800Y002040D03*
X024800Y002030D03*
X025700Y002970D03*
X025980Y003260D03*
X026650Y003270D03*
X026690Y003020D03*
X026650Y002950D03*
X026600Y002490D03*
X026570Y002350D03*
X026680Y001870D03*
X026840Y001780D03*
X028140Y002580D03*
X027880Y003420D03*
X023730Y022230D03*
X023700Y022230D03*
X023620Y022410D03*
X023580Y022420D03*
X023620Y022480D03*
X023640Y022480D03*
X023610Y022530D03*
X023520Y022500D03*
X023520Y022570D03*
X023480Y022680D03*
X023550Y022700D03*
X023570Y022700D03*
X023580Y022700D03*
X023590Y022700D03*
X023600Y022700D03*
X023610Y022700D03*
X023620Y022700D03*
X023770Y022650D03*
X023770Y022630D03*
X023500Y024530D03*
X023620Y024570D03*
X023770Y024710D03*
X023770Y024920D03*
X023760Y024920D03*
X023620Y024860D03*
X024070Y024840D03*
X024090Y024650D03*
X024070Y024590D03*
X024040Y024530D03*
D26*
X024030Y024530D03*
X024090Y024710D03*
X024080Y024780D03*
X024060Y024840D03*
X023990Y024940D03*
X023940Y024980D03*
X023450Y024650D03*
X023980Y023810D03*
X023990Y023810D03*
X023960Y023550D03*
X023950Y023550D03*
X023940Y023550D03*
X023930Y023550D03*
X023920Y023550D03*
X023910Y023550D03*
X023900Y023550D03*
X023890Y023550D03*
X023880Y023550D03*
X023870Y023550D03*
X023860Y023550D03*
X023850Y023550D03*
X023840Y023550D03*
X023830Y023550D03*
X023820Y023550D03*
X023810Y023550D03*
X023800Y023550D03*
X023790Y023550D03*
X023780Y023550D03*
X023710Y023550D03*
X023700Y023550D03*
X023690Y023550D03*
X023680Y023550D03*
X023670Y023550D03*
X023660Y023550D03*
X023650Y023550D03*
X023640Y023550D03*
X023630Y023550D03*
X023620Y023550D03*
X023610Y023550D03*
X023600Y023550D03*
X023590Y023550D03*
X023580Y023550D03*
X023570Y023550D03*
X023510Y022680D03*
X023490Y022680D03*
X023630Y022660D03*
X023680Y022680D03*
X023760Y022640D03*
X023850Y022610D03*
X023860Y022610D03*
X023870Y022610D03*
X023620Y022530D03*
X023580Y022390D03*
X023570Y022320D03*
X023780Y022230D03*
X024050Y021980D03*
X024070Y021970D03*
D27*
X023790Y022225D03*
X023770Y022225D03*
X023760Y022225D03*
X023750Y022225D03*
X023740Y022225D03*
X023580Y022265D03*
X023570Y022275D03*
X023600Y022445D03*
X023580Y022455D03*
X023640Y022535D03*
X023750Y022635D03*
X023630Y022695D03*
X023540Y023375D03*
X023570Y023435D03*
X023580Y023435D03*
X023590Y023435D03*
X023600Y023435D03*
X023610Y023435D03*
X023620Y023435D03*
X023630Y023435D03*
X023640Y023435D03*
X023650Y023435D03*
X023660Y023435D03*
X023670Y023435D03*
X023680Y023435D03*
X023690Y023435D03*
X023700Y023435D03*
X023710Y023435D03*
X023720Y023435D03*
X023730Y023435D03*
X023740Y023435D03*
X023750Y023435D03*
X023760Y023435D03*
X023770Y023435D03*
X023780Y023435D03*
X023790Y023435D03*
X023800Y023435D03*
X023810Y023435D03*
X023820Y023435D03*
X023830Y023435D03*
X023840Y023435D03*
X023850Y023435D03*
X023860Y023435D03*
X023870Y023435D03*
X023880Y023435D03*
X023890Y023435D03*
X023900Y023435D03*
X023910Y023435D03*
X023920Y023435D03*
X023930Y023435D03*
X023940Y023435D03*
X023950Y023435D03*
X023960Y023435D03*
X023970Y023435D03*
X023810Y023695D03*
X023800Y023695D03*
X023790Y023695D03*
X023780Y023695D03*
X023780Y023725D03*
X023770Y023725D03*
X023760Y023725D03*
X023750Y023725D03*
X023740Y023725D03*
X023730Y023725D03*
X023720Y023725D03*
X023710Y023725D03*
X023700Y023725D03*
X023690Y023725D03*
X023680Y023725D03*
X023680Y023695D03*
X023690Y023695D03*
X023700Y023695D03*
X023710Y023695D03*
X023790Y023725D03*
X023800Y023725D03*
X023810Y023725D03*
X023610Y023775D03*
X023600Y023775D03*
X023590Y023775D03*
X023580Y023775D03*
X023570Y023775D03*
X023570Y023805D03*
X023560Y023805D03*
X023550Y023805D03*
X023540Y023805D03*
X023580Y023805D03*
X023590Y023805D03*
X023600Y023805D03*
X023610Y023805D03*
X023940Y024445D03*
X023990Y024485D03*
X023770Y024505D03*
X023470Y024585D03*
X023450Y024775D03*
X023470Y024835D03*
X023500Y024895D03*
X024090Y024775D03*
D28*
X024070Y024775D03*
X024080Y024715D03*
X024080Y024645D03*
X024060Y024585D03*
X024030Y024895D03*
X023510Y024895D03*
X023480Y024835D03*
X023470Y024775D03*
X023460Y024775D03*
X023460Y024715D03*
X023450Y024715D03*
X023460Y024645D03*
X023480Y024585D03*
X023510Y024535D03*
X023500Y022685D03*
X023610Y022655D03*
X023620Y022655D03*
X023630Y022535D03*
X023590Y022445D03*
X023750Y022345D03*
X023760Y022345D03*
X023760Y022275D03*
X023750Y022275D03*
X023740Y022275D03*
X023730Y022275D03*
X023770Y022275D03*
X023880Y022615D03*
X023890Y022615D03*
X023900Y022615D03*
X023910Y022615D03*
X023920Y022615D03*
X023930Y022615D03*
X024030Y021985D03*
X024040Y021985D03*
X024060Y021975D03*
D29*
X024020Y021990D03*
X023790Y022280D03*
X023780Y022280D03*
X023780Y022340D03*
X023770Y022340D03*
X023740Y022350D03*
X023700Y022280D03*
X023590Y022390D03*
X023520Y022610D03*
X023600Y022650D03*
X023660Y022680D03*
X023670Y022680D03*
X023670Y023710D03*
X023660Y023710D03*
X023630Y023790D03*
X023620Y023790D03*
X023820Y023710D03*
X023830Y023710D03*
X023770Y024440D03*
X023760Y024440D03*
X023470Y024650D03*
X023470Y024710D03*
X023760Y024990D03*
X023770Y024990D03*
X023780Y024990D03*
X024070Y024710D03*
X024070Y024650D03*
X023640Y025380D03*
X023630Y025380D03*
X023620Y025380D03*
X023610Y025380D03*
X023600Y025380D03*
X023590Y025380D03*
X023580Y025380D03*
X023570Y025380D03*
D30*
X023480Y024710D03*
X023530Y024600D03*
X023570Y024260D03*
X023780Y024270D03*
X023950Y024290D03*
X024010Y024600D03*
X024060Y024710D03*
X024010Y024830D03*
X023770Y023620D03*
X023730Y023620D03*
X023720Y023620D03*
X023570Y023160D03*
X023780Y022630D03*
X024020Y022500D03*
D31*
X023970Y023680D03*
X024030Y024710D03*
X024040Y024710D03*
X024050Y024710D03*
X023690Y024870D03*
X023500Y024710D03*
X023490Y024710D03*
D32*
X024020Y024715D03*
X023530Y024085D03*
D33*
X023690Y024560D03*
X024000Y021860D03*
X024010Y021860D03*
D34*
X023990Y021835D03*
X023980Y021835D03*
X023560Y021835D03*
X023550Y021835D03*
X023540Y021835D03*
X023530Y021835D03*
X023520Y021835D03*
X024010Y022505D03*
X023720Y024525D03*
X023840Y024545D03*
X023840Y024875D03*
X023720Y024905D03*
X023980Y025155D03*
X023990Y025155D03*
X024000Y025155D03*
X024010Y025155D03*
D35*
X024010Y022930D03*
X024000Y022930D03*
X023990Y022930D03*
X023980Y022930D03*
D36*
X024000Y023255D03*
X024010Y023255D03*
X023960Y024275D03*
X023720Y024235D03*
X023520Y024605D03*
D37*
X024000Y023595D03*
X024010Y023595D03*
D38*
X024010Y024075D03*
D39*
X023930Y024475D03*
X023920Y024475D03*
X023890Y024485D03*
X023810Y024435D03*
X023730Y024435D03*
X023650Y024485D03*
X023620Y024475D03*
X023610Y024475D03*
X023580Y024625D03*
X023740Y024585D03*
X023740Y024835D03*
X023750Y024835D03*
X023790Y024835D03*
X023800Y024835D03*
X023920Y024955D03*
X023730Y024995D03*
X023620Y024955D03*
X023610Y024955D03*
X023600Y024945D03*
X023800Y022585D03*
X024000Y022405D03*
D40*
X023980Y022410D03*
X024000Y022570D03*
X023820Y022630D03*
X023810Y022630D03*
X023790Y022630D03*
X023980Y023250D03*
X023990Y023250D03*
D41*
X023540Y023000D03*
X024000Y024090D03*
D42*
X023940Y024295D03*
X023930Y024305D03*
X023900Y024315D03*
X023800Y024295D03*
X023790Y024285D03*
X023990Y024595D03*
X024000Y024595D03*
X024000Y024825D03*
X023990Y024835D03*
X023540Y024595D03*
X023740Y023625D03*
X023760Y023625D03*
X023800Y023115D03*
X023560Y022395D03*
X023650Y022305D03*
X023660Y022305D03*
X023800Y022295D03*
D43*
X023990Y022515D03*
X023550Y022505D03*
X023730Y024125D03*
D44*
X023790Y024425D03*
X023900Y024485D03*
X023950Y024635D03*
X023940Y024645D03*
X023780Y024835D03*
X023760Y024835D03*
X023750Y024995D03*
X023790Y024995D03*
X023580Y024915D03*
X023590Y024635D03*
X023580Y024515D03*
X023640Y024485D03*
X023560Y023405D03*
X023550Y023405D03*
X023980Y023405D03*
X023990Y023405D03*
X023930Y022685D03*
X023920Y022685D03*
X023910Y022685D03*
X023900Y022685D03*
X023800Y022685D03*
X023570Y022625D03*
X023690Y022265D03*
X023710Y022265D03*
D45*
X023990Y024105D03*
D46*
X023980Y024565D03*
X023960Y024575D03*
X023960Y024855D03*
X023560Y024565D03*
X023980Y022615D03*
D47*
X023980Y023665D03*
X023710Y024535D03*
X023660Y024715D03*
X023710Y024885D03*
X023830Y024885D03*
X023880Y024715D03*
D48*
X023980Y024110D03*
X023560Y024110D03*
X023530Y023590D03*
X023520Y023590D03*
D49*
X023770Y024230D03*
X023570Y024570D03*
X023550Y024570D03*
X023610Y024710D03*
X023620Y024710D03*
X023630Y024710D03*
X023640Y024710D03*
X023570Y024860D03*
X023900Y024710D03*
X023910Y024710D03*
X023920Y024710D03*
X023930Y024710D03*
X023970Y024570D03*
X023970Y024860D03*
X023980Y024860D03*
D50*
X023970Y024010D03*
X023960Y024010D03*
X023950Y024010D03*
X023940Y024010D03*
X023930Y024010D03*
X023920Y024010D03*
X023910Y024010D03*
X023900Y024010D03*
X023890Y024010D03*
X023880Y024010D03*
X023870Y024010D03*
X023860Y024010D03*
X023850Y024010D03*
X023840Y024010D03*
X023830Y024010D03*
X023820Y024010D03*
X023810Y024010D03*
X023800Y024010D03*
X023790Y024010D03*
X023780Y024010D03*
X023770Y024010D03*
X023720Y024010D03*
X023710Y024010D03*
X023700Y024010D03*
X023690Y024010D03*
X023680Y024010D03*
X023670Y024010D03*
X023660Y024010D03*
X023650Y024010D03*
X023640Y024010D03*
X023630Y024010D03*
X023620Y024010D03*
X023610Y024010D03*
X023600Y024010D03*
X023590Y024010D03*
X023580Y024010D03*
X023570Y024010D03*
X023570Y022930D03*
X023580Y022930D03*
X023590Y022930D03*
X023600Y022930D03*
X023610Y022930D03*
X023620Y022930D03*
X023630Y022930D03*
X023640Y022930D03*
X023650Y022930D03*
X023660Y022930D03*
X023670Y022930D03*
X023680Y022930D03*
X023690Y022930D03*
X023700Y022930D03*
X023710Y022930D03*
X023720Y022930D03*
X023730Y022930D03*
X023740Y022930D03*
X023800Y022930D03*
X023810Y022930D03*
X023820Y022930D03*
X023830Y022930D03*
X023840Y022930D03*
X023850Y022930D03*
X023860Y022930D03*
X023870Y022930D03*
X023880Y022930D03*
X023890Y022930D03*
X023900Y022930D03*
X023910Y022930D03*
X023920Y022930D03*
X023930Y022930D03*
X023940Y022930D03*
X023950Y022930D03*
X023960Y022930D03*
X023970Y022930D03*
X023960Y022660D03*
X023950Y022660D03*
X023940Y022660D03*
X023840Y022660D03*
X023830Y022660D03*
X023950Y022350D03*
X023940Y022340D03*
X023630Y022320D03*
X023630Y021830D03*
X023620Y021830D03*
X023610Y021830D03*
X023600Y021830D03*
X023590Y021830D03*
X023580Y021830D03*
X023570Y021830D03*
X023640Y021830D03*
X023650Y021830D03*
X023660Y021830D03*
X023670Y021830D03*
X023680Y021830D03*
X023690Y021830D03*
X023700Y021830D03*
X023710Y021830D03*
X023720Y021830D03*
X023730Y021830D03*
X023740Y021830D03*
X023750Y021830D03*
X023760Y021830D03*
X023770Y021830D03*
X023780Y021830D03*
X023790Y021830D03*
X023800Y021830D03*
X023810Y021830D03*
X023820Y021830D03*
X023830Y021830D03*
X023840Y021830D03*
X023850Y021830D03*
X023860Y021830D03*
X023870Y021830D03*
X023880Y021830D03*
X023890Y021830D03*
X023900Y021830D03*
X023910Y021830D03*
X023920Y021830D03*
X023930Y021830D03*
X023940Y021830D03*
X023950Y021830D03*
X023960Y021830D03*
X023970Y021830D03*
D51*
X023870Y022305D03*
X023860Y022305D03*
X023890Y022315D03*
X023900Y022315D03*
X023910Y022325D03*
X023920Y022325D03*
X023930Y022335D03*
X023960Y022365D03*
X023970Y022375D03*
X023620Y022325D03*
X023610Y022335D03*
X023600Y022335D03*
X023830Y023145D03*
X023850Y023155D03*
X023870Y023165D03*
X023880Y023175D03*
X023890Y023175D03*
X023900Y023185D03*
X023910Y023185D03*
X023920Y023195D03*
X023930Y023195D03*
X023940Y023205D03*
X023950Y023205D03*
X023960Y023215D03*
X023720Y023175D03*
X023710Y023185D03*
X023700Y023195D03*
X023690Y023195D03*
X023680Y023195D03*
X023670Y023195D03*
X023660Y023195D03*
X023650Y023195D03*
X023640Y023195D03*
X023630Y023195D03*
X023620Y023195D03*
X023610Y023195D03*
X023600Y023185D03*
X023700Y024275D03*
X023690Y024285D03*
X023680Y024285D03*
X023670Y024295D03*
X023660Y024295D03*
X023650Y024295D03*
X023640Y024295D03*
X023630Y024295D03*
X023620Y024295D03*
X023610Y024295D03*
X023600Y024285D03*
X023660Y024475D03*
X023880Y024475D03*
X023880Y024955D03*
X023880Y025155D03*
X023870Y025155D03*
X023860Y025155D03*
X023850Y025155D03*
X023840Y025155D03*
X023830Y025155D03*
X023820Y025155D03*
X023810Y025155D03*
X023800Y025155D03*
X023790Y025155D03*
X023780Y025155D03*
X023770Y025155D03*
X023760Y025155D03*
X023750Y025155D03*
X023740Y025155D03*
X023730Y025155D03*
X023720Y025155D03*
X023710Y025155D03*
X023700Y025155D03*
X023690Y025155D03*
X023680Y025155D03*
X023670Y025155D03*
X023660Y025155D03*
X023650Y025155D03*
X023640Y025155D03*
X023630Y025155D03*
X023620Y025155D03*
X023610Y025155D03*
X023600Y025155D03*
X023590Y025155D03*
X023580Y025155D03*
X023570Y025155D03*
X023660Y024955D03*
X023890Y025155D03*
X023900Y025155D03*
X023910Y025155D03*
X023920Y025155D03*
X023930Y025155D03*
X023940Y025155D03*
X023950Y025155D03*
X023960Y025155D03*
X023970Y025155D03*
D52*
X023890Y024320D03*
X023880Y024320D03*
X023850Y024320D03*
X023840Y024310D03*
X023830Y024310D03*
X023820Y024310D03*
X023810Y024300D03*
X023910Y024310D03*
X023920Y024310D03*
X023710Y024260D03*
X023590Y024280D03*
X023580Y024270D03*
X023970Y023220D03*
X023860Y023160D03*
X023840Y023150D03*
X023820Y023140D03*
X023810Y023130D03*
X023740Y023160D03*
X023730Y023170D03*
X023590Y023180D03*
X023580Y023170D03*
X023560Y022630D03*
X023640Y022310D03*
X023670Y022300D03*
X023680Y022300D03*
X023720Y022300D03*
X023810Y022300D03*
X023820Y022300D03*
X023830Y022300D03*
X023840Y022300D03*
X023850Y022300D03*
X023880Y022310D03*
X023970Y022650D03*
D53*
X023550Y023660D03*
X023970Y024240D03*
X023650Y024710D03*
D54*
X023590Y024505D03*
X023780Y024435D03*
X023940Y024495D03*
X023950Y024505D03*
X023940Y024925D03*
X023940Y023795D03*
X023930Y023795D03*
X023920Y023795D03*
X023910Y023795D03*
X023900Y023795D03*
X023950Y023795D03*
X023960Y023795D03*
X023650Y022675D03*
X023640Y022675D03*
X023590Y022645D03*
X023530Y022615D03*
X023690Y022345D03*
X023700Y022345D03*
X023710Y022345D03*
X023730Y022345D03*
X023790Y022345D03*
X023590Y022285D03*
D55*
X023570Y022410D03*
X023520Y022440D03*
X023510Y022490D03*
X023740Y024430D03*
X023800Y024430D03*
X023910Y024480D03*
X023790Y024590D03*
X023780Y024590D03*
X023770Y024590D03*
X023760Y024590D03*
X023750Y024590D03*
X023600Y024650D03*
X023600Y024780D03*
X023590Y024790D03*
X023580Y024800D03*
X023640Y024940D03*
X023650Y024940D03*
X023630Y024950D03*
X023740Y025000D03*
X023800Y025000D03*
X023890Y024940D03*
X023900Y024940D03*
X023910Y024950D03*
X023930Y024950D03*
X023950Y024790D03*
X023940Y024780D03*
X023770Y024830D03*
X023630Y024480D03*
X023600Y024480D03*
D56*
X023750Y024430D03*
X023590Y024920D03*
X023950Y024920D03*
X023890Y022690D03*
X023880Y022690D03*
X023870Y022690D03*
X023860Y022690D03*
X023850Y022690D03*
X023580Y022640D03*
D57*
X023890Y024715D03*
D58*
X023870Y024635D03*
X023860Y024635D03*
D59*
X023850Y024710D03*
D60*
X023830Y024540D03*
X023820Y024530D03*
X023700Y024550D03*
X023700Y024880D03*
X023820Y024900D03*
X023560Y023660D03*
D61*
X023730Y024585D03*
X023810Y024585D03*
X023810Y024845D03*
D62*
X023730Y024840D03*
X023810Y024990D03*
X023800Y024590D03*
X023530Y022420D03*
D63*
X023790Y023025D03*
D64*
X023780Y023015D03*
X023770Y023015D03*
X023510Y024715D03*
D65*
X023740Y024110D03*
X023760Y023030D03*
D66*
X023760Y024130D03*
D67*
X023750Y024120D03*
X023520Y024060D03*
X023750Y023040D03*
D68*
X023680Y024710D03*
X023670Y024710D03*
D69*
X023550Y024100D03*
X023560Y023020D03*
D70*
X023560Y025080D03*
X023550Y025080D03*
X023540Y025080D03*
D71*
X023540Y024095D03*
X023550Y023005D03*
D72*
X023520Y022975D03*
X023540Y022515D03*
D73*
X023530Y022990D03*
D74*
X023530Y025075D03*
D75*
X023520Y025065D03*
D76*
X025865Y003560D03*
X026005Y003290D03*
X026055Y003190D03*
X026135Y003260D03*
X026505Y003190D03*
X026505Y003180D03*
X026505Y003170D03*
X026505Y003160D03*
X026505Y003150D03*
X026505Y003090D03*
X026505Y003080D03*
X026505Y003070D03*
X026505Y003060D03*
X026505Y003050D03*
X026675Y003300D03*
X026895Y003220D03*
X026895Y003040D03*
X026895Y003030D03*
X027305Y003060D03*
X027305Y003070D03*
X027305Y003080D03*
X027305Y003090D03*
X027305Y003100D03*
X027305Y003110D03*
X027305Y003120D03*
X027305Y003130D03*
X027305Y003140D03*
X027305Y003150D03*
X027305Y003160D03*
X027305Y003170D03*
X027305Y003180D03*
X027265Y003250D03*
X027865Y003430D03*
X028135Y002570D03*
X026695Y002320D03*
X026655Y002630D03*
X026665Y001910D03*
X025645Y001720D03*
X025445Y001050D03*
X025455Y003010D03*
X025455Y003020D03*
X025455Y003030D03*
X025455Y003040D03*
X025455Y003050D03*
X025455Y003200D03*
X025455Y003210D03*
X025455Y003220D03*
D77*
X025445Y003250D03*
X025465Y002980D03*
X025465Y002970D03*
X026145Y003280D03*
X026295Y003210D03*
X026295Y003030D03*
X026495Y003010D03*
X026685Y003030D03*
X026895Y003010D03*
X027095Y003030D03*
X027095Y003210D03*
X027255Y003270D03*
X027295Y003020D03*
X027295Y003010D03*
X027845Y003330D03*
X026565Y003720D03*
X026495Y003230D03*
X026655Y002620D03*
X026715Y002470D03*
X026715Y002460D03*
X026555Y002300D03*
X026135Y002430D03*
X026155Y001870D03*
X025445Y001060D03*
X025115Y002200D03*
X027225Y001550D03*
D78*
X027045Y001700D03*
X026835Y001790D03*
X026875Y001920D03*
X026555Y002290D03*
X026705Y002430D03*
X026655Y002610D03*
X026485Y002980D03*
X026295Y003040D03*
X026295Y003200D03*
X026155Y003290D03*
X026485Y003260D03*
X026695Y003200D03*
X026695Y003050D03*
X026895Y003000D03*
X026895Y002990D03*
X027095Y003040D03*
X027095Y003200D03*
X027295Y003000D03*
X027735Y002250D03*
X025655Y003050D03*
X025655Y003060D03*
X025245Y001420D03*
X025435Y001070D03*
D79*
X025430Y001080D03*
X025250Y001410D03*
X025620Y001740D03*
X025130Y002190D03*
X024840Y002540D03*
X025650Y003070D03*
X025650Y003080D03*
X025650Y003090D03*
X025650Y003100D03*
X025650Y003110D03*
X025650Y003120D03*
X025650Y003130D03*
X025650Y003140D03*
X025650Y003150D03*
X025650Y003160D03*
X025650Y003170D03*
X025650Y003180D03*
X025650Y003190D03*
X025650Y003200D03*
X025650Y003210D03*
X025650Y003220D03*
X025650Y003230D03*
X025650Y003240D03*
X025650Y003250D03*
X025650Y003260D03*
X025650Y003270D03*
X025650Y003280D03*
X025650Y003290D03*
X025430Y003280D03*
X025260Y003210D03*
X025260Y003200D03*
X025260Y003190D03*
X026300Y003190D03*
X026300Y003050D03*
X026480Y002970D03*
X026700Y003060D03*
X026700Y003070D03*
X026700Y003080D03*
X026700Y003160D03*
X026700Y003170D03*
X026700Y003180D03*
X026700Y003190D03*
X026900Y003260D03*
X027090Y003190D03*
X027090Y003050D03*
X027290Y002990D03*
X027240Y003290D03*
X027330Y003670D03*
X026480Y003270D03*
X026660Y002600D03*
X026700Y002420D03*
X026690Y002350D03*
X026650Y001940D03*
X027030Y001740D03*
X027030Y001730D03*
X027040Y001720D03*
X027040Y001710D03*
X027040Y001690D03*
D80*
X027025Y001750D03*
X027015Y001760D03*
X026995Y001600D03*
X027255Y001560D03*
X026645Y001950D03*
X026555Y002280D03*
X026685Y002360D03*
X026685Y002370D03*
X026695Y002410D03*
X026655Y002590D03*
X026895Y002980D03*
X027095Y003060D03*
X027095Y003070D03*
X027095Y003160D03*
X027095Y003170D03*
X027095Y003180D03*
X026705Y003150D03*
X026705Y003140D03*
X026705Y003130D03*
X026705Y003120D03*
X026705Y003110D03*
X026705Y003100D03*
X026705Y003090D03*
X026295Y003070D03*
X026295Y003060D03*
X026295Y003160D03*
X026295Y003170D03*
X026295Y003180D03*
X025465Y002950D03*
X025425Y003290D03*
X025045Y003230D03*
X025615Y001750D03*
X026165Y001860D03*
X025425Y001090D03*
X028135Y002560D03*
X028125Y003080D03*
X027855Y003440D03*
D81*
X027290Y002980D03*
X027090Y003080D03*
X027090Y003090D03*
X027090Y003100D03*
X027090Y003110D03*
X027090Y003120D03*
X027090Y003130D03*
X027090Y003140D03*
X027090Y003150D03*
X026900Y003270D03*
X026470Y003280D03*
X026300Y003150D03*
X026300Y003140D03*
X026300Y003130D03*
X026300Y003120D03*
X026300Y003110D03*
X026300Y003100D03*
X026300Y003090D03*
X026300Y003080D03*
X026470Y002960D03*
X026660Y002580D03*
X026660Y002570D03*
X026550Y002270D03*
X026880Y001910D03*
X027030Y001680D03*
X025420Y001100D03*
X025260Y001400D03*
X025120Y002290D03*
X025300Y003030D03*
X025260Y003170D03*
X025260Y003180D03*
X025090Y003280D03*
X025080Y003270D03*
X025070Y003260D03*
X025060Y003250D03*
X025050Y003240D03*
X025040Y003220D03*
X025030Y003210D03*
X026050Y003180D03*
X026560Y003730D03*
D82*
X026465Y003290D03*
X026465Y002950D03*
X026895Y002970D03*
X027285Y002970D03*
X026665Y002560D03*
X026685Y002400D03*
X026685Y002390D03*
X026685Y002380D03*
X026645Y001960D03*
X027005Y001770D03*
X025605Y001760D03*
X025265Y001390D03*
X025415Y001110D03*
X025145Y002180D03*
X026045Y003060D03*
X026045Y003070D03*
X026045Y003080D03*
X026045Y003090D03*
X026045Y003100D03*
X026045Y003110D03*
X026045Y003120D03*
X026045Y003130D03*
X026045Y003140D03*
X026045Y003150D03*
X026045Y003160D03*
X026045Y003170D03*
X025105Y003290D03*
X025025Y003200D03*
X025015Y003180D03*
D83*
X025020Y003190D03*
X025010Y003170D03*
X025120Y003300D03*
X026050Y003050D03*
X026050Y003040D03*
X026050Y003030D03*
X026660Y002550D03*
X026550Y002260D03*
X026640Y001970D03*
X027000Y001780D03*
X027020Y001670D03*
X025410Y001120D03*
X025280Y001360D03*
X025270Y001370D03*
X025270Y001380D03*
X026910Y003280D03*
X028160Y002950D03*
D84*
X027735Y002240D03*
X027285Y002960D03*
X026665Y002540D03*
X026665Y002530D03*
X026665Y002520D03*
X026885Y001900D03*
X026995Y001610D03*
X027285Y001570D03*
X026175Y001850D03*
X025285Y001350D03*
X025395Y001140D03*
X025405Y001130D03*
X025165Y002170D03*
X025305Y003040D03*
X025005Y003150D03*
X025005Y003160D03*
X026055Y003020D03*
X026055Y003010D03*
X026455Y003300D03*
D85*
X026060Y003000D03*
X026670Y002510D03*
X026670Y002500D03*
X026550Y002250D03*
X026640Y001980D03*
X026980Y001790D03*
X028130Y002550D03*
X027250Y003300D03*
X026900Y002960D03*
X025590Y001770D03*
X025290Y001340D03*
X025300Y001320D03*
X025380Y001170D03*
X025390Y001160D03*
X025390Y001150D03*
X025000Y003140D03*
D86*
X024995Y003130D03*
X024995Y003120D03*
X025455Y002940D03*
X026065Y002990D03*
X026165Y002440D03*
X026985Y001620D03*
X025375Y001190D03*
X025375Y001180D03*
X025365Y001200D03*
X025355Y001220D03*
X025345Y001240D03*
X025315Y001290D03*
X025315Y001300D03*
X025305Y001310D03*
X025295Y001330D03*
X026905Y003290D03*
D87*
X026070Y002980D03*
X025310Y003050D03*
X024990Y003110D03*
X025180Y002160D03*
X025580Y001780D03*
X025320Y001280D03*
X025330Y001270D03*
X025330Y001260D03*
X025340Y001250D03*
X025350Y001230D03*
X025360Y001210D03*
X026640Y001990D03*
X026550Y002240D03*
X026890Y001890D03*
D88*
X026650Y001930D03*
X026690Y002340D03*
X026710Y002440D03*
X026710Y002450D03*
X026710Y002480D03*
X026710Y002490D03*
X026490Y002990D03*
X026490Y003000D03*
X026690Y003040D03*
X026490Y003240D03*
X026490Y003250D03*
X026900Y003250D03*
X026900Y003240D03*
X027250Y003280D03*
X028170Y002960D03*
X027000Y001590D03*
X025630Y001730D03*
X025240Y001430D03*
X025470Y002960D03*
X025440Y003260D03*
X025440Y003270D03*
X025260Y003220D03*
D89*
X025450Y003230D03*
X025450Y003240D03*
X025460Y003000D03*
X025460Y002990D03*
X025300Y003020D03*
X025650Y003040D03*
X026140Y003270D03*
X026500Y003220D03*
X026500Y003210D03*
X026500Y003200D03*
X026500Y003040D03*
X026500Y003030D03*
X026500Y003020D03*
X026700Y003210D03*
X026900Y003230D03*
X026890Y003020D03*
X027300Y003030D03*
X027300Y003040D03*
X027300Y003050D03*
X027300Y003190D03*
X027300Y003200D03*
X027300Y003210D03*
X027260Y003260D03*
X026690Y002330D03*
X026560Y002310D03*
X026660Y001920D03*
X025240Y001440D03*
D90*
X025230Y001450D03*
X024780Y002130D03*
X024780Y002140D03*
X024780Y002150D03*
X024770Y002190D03*
X024770Y002200D03*
X024770Y002210D03*
X024760Y002240D03*
X024760Y002250D03*
X024760Y002260D03*
X024760Y002270D03*
X024750Y002310D03*
X025690Y002960D03*
X025990Y003270D03*
X026120Y003230D03*
X026120Y003220D03*
X026890Y003100D03*
X026670Y001890D03*
X027180Y001540D03*
D91*
X026740Y001510D03*
X026640Y002020D03*
X027730Y002220D03*
X025550Y001810D03*
D92*
X026685Y001520D03*
X027555Y001690D03*
X028475Y002610D03*
X028475Y002620D03*
X028185Y003320D03*
X027685Y003300D03*
X027675Y003310D03*
X027645Y003670D03*
D93*
X027820Y002980D03*
X028440Y002730D03*
X028450Y002710D03*
X027250Y002360D03*
X027600Y001720D03*
X026630Y001530D03*
X026280Y002500D03*
X025420Y001990D03*
X025360Y002050D03*
X025550Y003500D03*
D94*
X026250Y002560D03*
X026290Y001730D03*
X026580Y001540D03*
X028350Y002390D03*
X027740Y003070D03*
X026950Y003670D03*
D95*
X026905Y003600D03*
X027785Y003030D03*
X028235Y002240D03*
X027655Y001770D03*
X027255Y002270D03*
X027265Y002280D03*
X026545Y001550D03*
X025365Y002360D03*
D96*
X025360Y002470D03*
X025360Y002480D03*
X025360Y002490D03*
X026210Y002640D03*
X026990Y003320D03*
X026990Y003330D03*
X026990Y003340D03*
X026990Y003350D03*
X026990Y003360D03*
X026990Y003370D03*
X026990Y003380D03*
X026990Y003390D03*
X027340Y002480D03*
X027340Y002470D03*
X028270Y002340D03*
X026510Y001560D03*
D97*
X026480Y001570D03*
X027700Y001820D03*
X028240Y002320D03*
X026200Y002670D03*
D98*
X026340Y001680D03*
X026450Y001580D03*
X027720Y001840D03*
X027830Y003110D03*
D99*
X027285Y002950D03*
X026895Y002950D03*
X026075Y002970D03*
X024985Y003090D03*
X024985Y003100D03*
X025155Y002300D03*
X026185Y001840D03*
X026985Y001630D03*
X026995Y001660D03*
X027315Y001580D03*
X027735Y002230D03*
D100*
X027725Y001850D03*
X027145Y002220D03*
X026425Y001590D03*
X026195Y002710D03*
X027845Y003130D03*
D101*
X027220Y003310D03*
X026420Y003310D03*
X026090Y002950D03*
X026640Y002010D03*
X026900Y001860D03*
X026980Y001650D03*
X027340Y001590D03*
X026190Y001830D03*
X025560Y001800D03*
X024980Y003050D03*
D102*
X026090Y003700D03*
X026350Y001660D03*
X026400Y001600D03*
X027740Y001870D03*
D103*
X027370Y001600D03*
X026920Y001810D03*
X026910Y001820D03*
X026910Y001830D03*
X026640Y002030D03*
X025540Y001820D03*
X025190Y002310D03*
D104*
X026195Y002740D03*
X026345Y001640D03*
X026375Y001610D03*
X027745Y001880D03*
X028225Y002420D03*
X026745Y003860D03*
D105*
X028115Y003460D03*
X028225Y003370D03*
X028235Y003360D03*
X028485Y003040D03*
X028505Y003010D03*
X027395Y001610D03*
X026925Y001800D03*
X025345Y003060D03*
X025345Y003070D03*
X024975Y003000D03*
D106*
X026000Y003650D03*
X026350Y001620D03*
X028220Y002450D03*
D107*
X027420Y001620D03*
X026530Y002940D03*
X027600Y003340D03*
X028120Y003440D03*
D108*
X028220Y002430D03*
X027750Y001890D03*
X026350Y001630D03*
X026020Y003660D03*
D109*
X027610Y003350D03*
X028130Y003430D03*
X028420Y003120D03*
X028480Y003000D03*
X027440Y001630D03*
D110*
X026980Y001640D03*
X026890Y001880D03*
X026640Y002000D03*
X026550Y002230D03*
X026080Y002960D03*
X025160Y003310D03*
X024980Y003080D03*
X024980Y003070D03*
X025570Y001790D03*
X027550Y002410D03*
D111*
X027465Y001640D03*
X027625Y003370D03*
X025505Y001870D03*
D112*
X026345Y001650D03*
X026195Y002730D03*
X028225Y002410D03*
D113*
X028515Y002650D03*
X028485Y002940D03*
X027745Y003280D03*
X027485Y001650D03*
X026235Y001790D03*
X025495Y001880D03*
X025275Y002100D03*
D114*
X025015Y002940D03*
X026655Y002080D03*
X027505Y001660D03*
X028505Y002640D03*
D115*
X027730Y001860D03*
X026350Y001670D03*
D116*
X026255Y002470D03*
X027205Y002400D03*
X027525Y001670D03*
X028485Y002560D03*
X028485Y002570D03*
X025595Y003560D03*
X025475Y001910D03*
D117*
X025465Y001920D03*
X025315Y002080D03*
X027215Y002390D03*
X027535Y001680D03*
X028475Y002590D03*
X026865Y003310D03*
D118*
X027745Y003550D03*
X028235Y002310D03*
X026335Y001690D03*
D119*
X026135Y001890D03*
X025665Y001700D03*
X026675Y001880D03*
X026875Y001930D03*
X026565Y002340D03*
X026655Y002640D03*
X026895Y003110D03*
X026895Y003120D03*
X026895Y003130D03*
X026895Y003140D03*
X026655Y003280D03*
X026565Y003710D03*
X026115Y003210D03*
X026115Y003200D03*
X026115Y003190D03*
X025875Y003500D03*
X025645Y003030D03*
X024745Y002350D03*
X024745Y002340D03*
X024745Y002330D03*
X024745Y002320D03*
X024755Y002300D03*
X024755Y002290D03*
X024755Y002280D03*
X024765Y002230D03*
X024765Y002220D03*
X024775Y002180D03*
X024775Y002170D03*
X024775Y002160D03*
X024785Y002120D03*
X024785Y002110D03*
X024785Y002100D03*
X024785Y002090D03*
X024795Y002080D03*
X024795Y002070D03*
X024795Y002060D03*
X024795Y002050D03*
X028185Y002970D03*
D120*
X028235Y002290D03*
X028235Y002280D03*
X027685Y001800D03*
X027215Y002240D03*
X027345Y002490D03*
X026325Y001700D03*
X025355Y002500D03*
X025355Y002510D03*
X026745Y003870D03*
X027735Y003570D03*
D121*
X027660Y003660D03*
X028200Y003290D03*
X027570Y001700D03*
X025440Y001960D03*
X025290Y002340D03*
D122*
X025685Y002950D03*
X025995Y003280D03*
X026125Y003240D03*
X026665Y003290D03*
X026895Y003190D03*
X026895Y003180D03*
X026895Y003170D03*
X026895Y003160D03*
X026895Y003150D03*
X026895Y003090D03*
X026895Y003080D03*
X026895Y003070D03*
X026895Y003060D03*
X026895Y003050D03*
X027275Y003220D03*
X027275Y003230D03*
X027495Y003020D03*
X028155Y003070D03*
X026565Y002330D03*
X025655Y001710D03*
D123*
X026310Y001710D03*
X025360Y002440D03*
X025360Y002450D03*
X025360Y002460D03*
X026920Y003610D03*
X027330Y002440D03*
X027330Y002430D03*
X028240Y002260D03*
D124*
X027810Y002960D03*
X027670Y003650D03*
X025590Y003530D03*
X025430Y001970D03*
X027580Y001710D03*
D125*
X027270Y002290D03*
X027280Y002300D03*
X027280Y002310D03*
X027290Y002320D03*
X027770Y003040D03*
X028320Y002370D03*
X026230Y002600D03*
X026300Y001720D03*
D126*
X026270Y002520D03*
X025410Y002010D03*
X027260Y002350D03*
X027610Y001730D03*
X028430Y002760D03*
X027830Y003000D03*
X027770Y003590D03*
X027730Y003610D03*
D127*
X027705Y003620D03*
X027685Y003630D03*
X026985Y003650D03*
X027835Y003020D03*
X027835Y003010D03*
X028425Y002780D03*
X028425Y002770D03*
X028005Y002520D03*
X026265Y002530D03*
X026285Y001740D03*
X025375Y002040D03*
X025325Y002350D03*
D128*
X025400Y002020D03*
X026260Y002540D03*
X027620Y001740D03*
X027730Y003080D03*
X026970Y003660D03*
D129*
X027815Y002970D03*
X028455Y002700D03*
X028455Y002690D03*
X026285Y002490D03*
X026275Y001750D03*
X025425Y001980D03*
X025565Y003510D03*
X025575Y003520D03*
D130*
X026245Y002570D03*
X027635Y001750D03*
X028235Y002210D03*
X027755Y003060D03*
D131*
X028195Y003300D03*
X026745Y003880D03*
X025595Y003540D03*
X025445Y001950D03*
X026265Y001760D03*
X026665Y002110D03*
D132*
X026235Y002590D03*
X025585Y003490D03*
X027645Y001760D03*
X028235Y002220D03*
X028235Y002230D03*
D133*
X028480Y002600D03*
X028180Y003330D03*
X027670Y003320D03*
X026660Y002100D03*
X026250Y001770D03*
X025460Y001930D03*
X025590Y003550D03*
D134*
X025260Y002330D03*
X025290Y002090D03*
X025480Y001900D03*
X026240Y001780D03*
X027200Y002410D03*
X028490Y002540D03*
X028490Y002550D03*
D135*
X028235Y002250D03*
X027665Y001780D03*
X027325Y002420D03*
X026225Y002620D03*
X025365Y002430D03*
X025365Y002420D03*
X025365Y002410D03*
X025365Y002400D03*
X025365Y002390D03*
X025585Y003480D03*
X026935Y003640D03*
D136*
X026935Y003630D03*
X026935Y003620D03*
X027725Y003580D03*
X027335Y002460D03*
X027335Y002450D03*
X027675Y001790D03*
X028235Y002270D03*
X028285Y002350D03*
X026215Y002630D03*
D137*
X026225Y002460D03*
X026225Y001800D03*
X025505Y001860D03*
X025225Y002320D03*
X024995Y002960D03*
X027615Y003360D03*
X028135Y003420D03*
X028425Y003110D03*
X028425Y003100D03*
X028435Y003090D03*
X028435Y003080D03*
D138*
X028115Y003450D03*
X027595Y003330D03*
X027735Y002210D03*
X026645Y002040D03*
X026215Y001810D03*
X025525Y001840D03*
X024985Y002980D03*
D139*
X025345Y002540D03*
X026205Y002660D03*
X027355Y002520D03*
X027695Y001810D03*
X028235Y002300D03*
X028255Y002330D03*
X027735Y003560D03*
D140*
X028105Y003470D03*
X026195Y002450D03*
X026205Y001820D03*
X026905Y001840D03*
X025215Y002140D03*
X024975Y003010D03*
X024975Y003020D03*
D141*
X024980Y002990D03*
X025340Y003080D03*
X025340Y003090D03*
X025230Y002130D03*
X025530Y001830D03*
D142*
X026200Y002680D03*
X027180Y002230D03*
X027710Y001830D03*
X027820Y003090D03*
X026110Y003720D03*
D143*
X024985Y002970D03*
X025245Y002120D03*
X025515Y001850D03*
X026645Y002050D03*
X028195Y003380D03*
X028415Y003130D03*
X028545Y002670D03*
D144*
X027285Y002940D03*
X026895Y002940D03*
X026555Y002220D03*
X026905Y001850D03*
X024975Y003030D03*
X024975Y003040D03*
D145*
X024975Y003060D03*
X025195Y002150D03*
X026895Y001870D03*
X028125Y002540D03*
X028525Y003020D03*
X028525Y003030D03*
X026905Y003300D03*
D146*
X026900Y003210D03*
X026900Y003200D03*
X027090Y003220D03*
X027270Y003240D03*
X027090Y003020D03*
X026510Y003100D03*
X026510Y003110D03*
X026510Y003120D03*
X026510Y003130D03*
X026510Y003140D03*
X026300Y003220D03*
X026130Y003250D03*
X026300Y003020D03*
X025840Y003020D03*
X025840Y003030D03*
X025840Y003040D03*
X025840Y003050D03*
X025840Y003060D03*
X025840Y003070D03*
X025840Y003080D03*
X025840Y003090D03*
X025840Y003100D03*
X025840Y003110D03*
X025840Y003120D03*
X025840Y003130D03*
X025840Y003140D03*
X025840Y003150D03*
X025840Y003160D03*
X025840Y003170D03*
X025840Y003180D03*
X025840Y003190D03*
X025840Y003200D03*
X025840Y003210D03*
X025840Y003220D03*
X025840Y003230D03*
X025840Y003240D03*
X025840Y003250D03*
X025840Y003260D03*
X025840Y003270D03*
X025840Y003280D03*
X025840Y003290D03*
X025840Y003010D03*
X025840Y003000D03*
X025840Y002990D03*
X025840Y002980D03*
X025840Y002970D03*
X025840Y002960D03*
X025840Y002950D03*
X025460Y003100D03*
X025460Y003110D03*
X025460Y003120D03*
X025460Y003130D03*
X025460Y003140D03*
X025460Y003150D03*
X025460Y003160D03*
X025460Y003170D03*
X025460Y003180D03*
X025460Y003190D03*
X025260Y003230D03*
X025080Y002280D03*
X025100Y002210D03*
X026150Y001880D03*
X026670Y001900D03*
X026560Y002320D03*
X027740Y002260D03*
X027330Y003660D03*
D147*
X028190Y003350D03*
X028490Y002530D03*
X028490Y002520D03*
X025490Y001890D03*
D148*
X027755Y001900D03*
X028215Y002460D03*
D149*
X028220Y002470D03*
X027760Y001910D03*
X028010Y003270D03*
D150*
X028015Y003260D03*
X028215Y002480D03*
X027765Y001920D03*
X025245Y002550D03*
X025245Y002560D03*
X025245Y002570D03*
X025245Y002580D03*
D151*
X027410Y002690D03*
X028210Y002510D03*
X027770Y001930D03*
X028030Y003230D03*
D152*
X028190Y003310D03*
X027230Y002380D03*
X025450Y001940D03*
X025330Y002070D03*
D153*
X027430Y002680D03*
X027770Y001940D03*
D154*
X027780Y001950D03*
X027490Y002540D03*
D155*
X027490Y002560D03*
X027780Y001960D03*
X025780Y003310D03*
X026040Y003640D03*
D156*
X027475Y002650D03*
X027495Y002580D03*
X027495Y002570D03*
X027785Y001970D03*
D157*
X027790Y001980D03*
X027500Y002600D03*
X027500Y002610D03*
D158*
X027790Y001990D03*
X027980Y003210D03*
D159*
X027825Y002990D03*
X028435Y002750D03*
X028435Y002740D03*
X028445Y002720D03*
X027755Y003600D03*
X027675Y003640D03*
X026275Y002510D03*
X026675Y002130D03*
X025415Y002000D03*
D160*
X026020Y003610D03*
X027990Y003190D03*
X027790Y002000D03*
D161*
X027795Y002010D03*
X027995Y003180D03*
D162*
X028005Y003150D03*
X027205Y003430D03*
X026015Y003600D03*
X026985Y002200D03*
X027795Y002020D03*
D163*
X028235Y002190D03*
X028235Y002200D03*
X027275Y002340D03*
X026255Y002550D03*
X025935Y002940D03*
X025395Y002030D03*
D164*
X027215Y003410D03*
X027205Y003710D03*
X027795Y002030D03*
D165*
X027800Y002040D03*
X027220Y003700D03*
D166*
X027225Y003690D03*
X027505Y002730D03*
X027795Y002050D03*
D167*
X027235Y002370D03*
X026665Y002120D03*
X026285Y002480D03*
X025345Y002060D03*
X025655Y003570D03*
X025665Y003580D03*
X027805Y002950D03*
X028205Y003280D03*
D168*
X028170Y003390D03*
X028140Y003410D03*
X028440Y003070D03*
X028440Y003060D03*
X028450Y003050D03*
X028530Y002660D03*
X027730Y002200D03*
X026650Y002060D03*
X025260Y002110D03*
D169*
X026745Y003830D03*
X027795Y002060D03*
D170*
X028530Y002680D03*
X028490Y002920D03*
X028490Y002930D03*
X028480Y002950D03*
X028480Y002960D03*
X028480Y002970D03*
X028470Y002980D03*
X028470Y002990D03*
X028150Y003400D03*
X027740Y003290D03*
X027630Y003380D03*
X027630Y003390D03*
X026650Y002070D03*
X025000Y002950D03*
D171*
X027495Y002750D03*
X027795Y002070D03*
D172*
X027790Y002080D03*
X027630Y002530D03*
D173*
X028480Y002580D03*
X028490Y002630D03*
X028180Y003340D03*
X027640Y003680D03*
X026660Y002090D03*
D174*
X027790Y002090D03*
D175*
X027785Y002100D03*
X026745Y003820D03*
D176*
X025860Y003430D03*
X027780Y002110D03*
D177*
X027775Y002120D03*
X025845Y003400D03*
D178*
X025830Y003380D03*
X026630Y003560D03*
X026740Y003810D03*
X027760Y002130D03*
D179*
X027435Y002140D03*
D180*
X027430Y002150D03*
X027440Y002160D03*
X027450Y002170D03*
X027460Y002180D03*
D181*
X027175Y002190D03*
D182*
X026990Y002210D03*
X028000Y003160D03*
X028000Y003170D03*
X027200Y003720D03*
X026740Y003840D03*
D183*
X026230Y002610D03*
X025370Y002380D03*
X025370Y002370D03*
X027240Y002250D03*
X027250Y002260D03*
X028300Y002360D03*
D184*
X028330Y002380D03*
X027760Y003050D03*
X027280Y002330D03*
X026240Y002580D03*
D185*
X026195Y002700D03*
X026695Y002930D03*
X027015Y003680D03*
X027835Y003120D03*
X028255Y002400D03*
D186*
X028225Y002440D03*
X026065Y003680D03*
X026045Y003670D03*
X025785Y003300D03*
D187*
X025240Y002730D03*
X025240Y002720D03*
X025240Y002710D03*
X025240Y002700D03*
X025240Y002690D03*
X025240Y002680D03*
X025240Y002670D03*
X025240Y002660D03*
X025240Y002650D03*
X025240Y002640D03*
X025240Y002630D03*
X025240Y002620D03*
X025240Y002610D03*
X025240Y002600D03*
X025240Y002590D03*
X028020Y003250D03*
X028210Y002490D03*
D188*
X027890Y002940D03*
X027350Y002510D03*
X027350Y002500D03*
X026210Y002650D03*
X025350Y002530D03*
X025350Y002520D03*
X026120Y003730D03*
D189*
X026225Y002750D03*
X025245Y002750D03*
X025245Y002760D03*
X025245Y002770D03*
X025245Y002780D03*
X025245Y002740D03*
X028025Y003240D03*
X028215Y002500D03*
D190*
X027495Y002550D03*
X027455Y002660D03*
X026745Y003850D03*
D191*
X027500Y002590D03*
D192*
X027505Y002620D03*
X027495Y002630D03*
X026025Y003620D03*
D193*
X026035Y003630D03*
X026265Y002760D03*
X027485Y002640D03*
D194*
X027445Y002670D03*
D195*
X027825Y003100D03*
X027755Y003540D03*
X026195Y002690D03*
D196*
X027220Y003400D03*
X027510Y002700D03*
D197*
X027505Y002710D03*
X027685Y002930D03*
D198*
X026195Y002720D03*
D199*
X027505Y002720D03*
D200*
X027500Y002740D03*
D201*
X027485Y002760D03*
D202*
X026930Y002770D03*
D203*
X026930Y002780D03*
D204*
X026740Y002790D03*
X026740Y002800D03*
X026740Y002810D03*
D205*
X026745Y002820D03*
D206*
X026740Y002830D03*
X026740Y002840D03*
X026740Y002850D03*
D207*
X026745Y002860D03*
X026745Y002870D03*
D208*
X026740Y002880D03*
D209*
X026745Y002890D03*
X026745Y002900D03*
X026745Y002910D03*
D210*
X026545Y002920D03*
D211*
X025800Y003320D03*
X025550Y002930D03*
D212*
X027210Y003420D03*
X028010Y003140D03*
D213*
X027985Y003200D03*
X027185Y003730D03*
D214*
X028035Y003220D03*
D215*
X025805Y003330D03*
D216*
X025810Y003340D03*
D217*
X025815Y003350D03*
D218*
X025820Y003360D03*
D219*
X025825Y003370D03*
X026635Y003550D03*
X026645Y003540D03*
D220*
X026620Y003580D03*
X025840Y003390D03*
D221*
X025850Y003410D03*
D222*
X025855Y003420D03*
D223*
X026480Y003440D03*
D224*
X026570Y003450D03*
D225*
X026585Y003460D03*
X026605Y003470D03*
D226*
X027080Y003480D03*
D227*
X027075Y003490D03*
D228*
X027065Y003500D03*
D229*
X027060Y003510D03*
D230*
X027080Y003520D03*
D231*
X027065Y003530D03*
D232*
X026625Y003570D03*
D233*
X026320Y003590D03*
D234*
X026080Y003690D03*
D235*
X026100Y003710D03*
D236*
X026745Y003740D03*
D237*
X026745Y003750D03*
D238*
X026745Y003760D03*
D239*
X026740Y003770D03*
D240*
X026745Y003780D03*
D241*
X026740Y003790D03*
D242*
X026740Y003800D03*
D243*
X008750Y023150D03*
D244*
X009338Y023150D02*
X009362Y023150D01*
X008162Y023550D02*
X008138Y023550D01*
X007562Y023550D02*
X007538Y023550D01*
X007150Y024838D02*
X007150Y024862D01*
X007150Y025438D02*
X007150Y025462D01*
X006162Y026350D02*
X006138Y026350D01*
X005850Y024862D02*
X005850Y024838D01*
X004962Y024350D02*
X004938Y024350D01*
X004362Y025950D02*
X004338Y025950D01*
X007838Y026750D02*
X007862Y026750D01*
X008638Y026850D02*
X008662Y026850D01*
X010050Y026262D02*
X010050Y026238D01*
X010550Y025262D02*
X010550Y025238D01*
M02*
